<svg width="219" height="117" viewBox="0 0 219 117" fill="none" xmlns="http://www.w3.org/2000/svg">
<path d="M180.4 0.200012C176.3 0.200012 172.5 2.30001 170.3 5.70001L134.9 60.3C134.9 60.4 134.7 60.5 134.5 60.5C134.2 60.5 134 60.3 134 60V12.2C134 5.50001 128.6 0.100006 121.9 0.100006H93.5C89.4 0.100006 85.6 2.20001 83.4 5.60001L48 60.2C48 60.3 47.8 60.4 47.6 60.4C47.3 60.4 47.1 60.2 47.1 59.9V12.1C47.1 5.40001 41.7 0 35 0H12.1C5.40004 0 0 5.40001 0 12.1V104.7C0 111.4 5.40004 116.8 12.1 116.8H47.9C51.6 116.8 55.2 115.1 57.5 112.1L82.6 79.5C84 77.7 86.9 78.7 86.9 81V104.8C86.9 111.5 92.3 116.9 99 116.9H134.8C138.5 116.9 142.1 115.2 144.4 112.2L215.6 19.6C221.7 11.7 216 0.200012 206 0.200012H180.3H180.4Z" fill="currentColor"/>
</svg>
