<svg width="247" height="227" viewBox="0 0 247 227" fill="none" xmlns="http://www.w3.org/2000/svg">
<path d="M188.812 85C184.912 87.7 186.812 93.8 191.512 93.8H236.812C240.312 93.8 242.612 97.4 241.212 100.6L228.212 129.6C227.412 131.3 225.712 132.4 223.812 132.4H170.712C167.012 132.4 164.712 136.3 166.512 139.6L185.312 173.7C186.512 175.9 185.912 178.6 183.812 180L149.612 203.5C147.212 205.1 144.012 204.3 142.612 201.8L124.712 169.3C122.812 165.8 117.712 166 116.112 169.6L91.7116 223.6C90.9116 225.3 89.2116 226.4 87.3116 226.4H60.5116C57.0116 226.4 54.7116 222.8 56.1116 219.6L77.5116 172.5C79.5116 168 74.4116 163.8 70.4116 166.5L16.7116 203.4C14.4116 205 11.1116 204.3 9.71158 201.8L0.611602 185.4C-0.588398 183.2 0.0116017 180.5 2.1116 179.1L57.3116 141.2C61.2116 138.5 59.3116 132.4 54.6116 132.4H9.31155C5.81155 132.4 3.51159 128.8 4.91159 125.6L17.9116 96.6C18.7116 94.9 20.4116 93.8 22.3116 93.8H75.4116C79.1116 93.8 81.4116 89.9 79.6116 86.6L60.8116 52.5C59.6116 50.3 60.3116 47.6 62.3116 46.2L96.5116 22.7C98.9116 21.1 102.112 21.9 103.512 24.4L121.412 57.1C123.312 60.6 128.412 60.4 130.012 56.8L154.412 2.80002C155.212 1.10002 156.912 0 158.812 0H185.612C189.112 0 191.412 3.60002 190.012 6.80002L168.712 53.7C166.712 58.2 171.812 62.4 175.812 59.7L229.512 22.8C231.812 21.2 235.112 21.9 236.512 24.4L245.612 40.8C246.812 43 246.212 45.7 244.112 47.1L188.912 85H188.812Z" fill="currentColor"/>
</svg>
