<?xml version="1.0" encoding="UTF-8"?>
<svg xmlns="http://www.w3.org/2000/svg" width="29" height="21"><defs><style>.c0{fill:#000000}.c1{fill:#a68cdc}.c2{fill:#6939ca}.c3{fill:#f6f6f5}.c4{fill:#fd8f3a}.c5{fill:#f9be4e}.c6{fill:#f594a1}.c7{fill:#ef5c6f}.c8{fill:#f6e85f}.c9{fill:#ac4a68}</style></defs><path class="c0" d="M1,1H27V2H28V20H2V19H1V1ZM2,2V18H26V2H2ZM3,7H25V17H3V7ZM4,8V10H6V8H4ZM4,11V13H6V11H4ZM4,14V16H6V14H4ZM7,8V10H9V8H7ZM7,11V13H9V11H7ZM7,14V16H9V14H7ZM10,8V10H12V8H10ZM10,11V13H12V11H10ZM10,14V16H12V14H10ZM13,8V10H15V8H13ZM13,11V13H15V11H13ZM13,14V16H15V14H13ZM16,8V10H18V8H16ZM16,11V13H18V11H16ZM16,14V16H18V14H16ZM19,8V10H21V8H19ZM19,11V13H21V11H19ZM19,14V16H21V14H19ZM22,8V10H24V8H22ZM22,11V13H24V11H22ZM22,14V16H24V14H22Z"/><path class="c1" d="M2,2H21V3H3V6H2V2ZM22,2H23V3H22V2ZM24,2H25V3H24V2Z"/><path class="c2" d="M3,3H4V4H24V3H25V2H26V6H3V3ZM21,2H22V3H21V2ZM23,2H24V3H23V2Z"/><path class="c3" d="M4,3H24V4H4V3Z"/><path class="c4" d="M2,6H3V7H2V6ZM2,8H3V9H2V8ZM2,10H3V11H2V10ZM2,12H3V13H2V12ZM2,14H3V15H2V14ZM2,16H3V17H2V16ZM3,17H4V18H3V17ZM4,6H5V7H4V6ZM5,17H6V18H5V17ZM6,6H7V7H6V6ZM7,9H8V10H7V9ZM7,15H8V16H7V15ZM7,17H8V18H7V17ZM8,6H9V7H8V6ZM8,8H9V9H8V8ZM8,12H9V13H8V12ZM8,14H9V15H8V14ZM9,17H10V18H9V17ZM10,6H11V7H10V6ZM10,12H11V13H10V12ZM11,9H12V10H11V9ZM11,11H12V12H11V11ZM11,15H12V16H11V15ZM11,17H12V18H11V17ZM12,6H13V7H12V6ZM13,9H14V10H13V9ZM13,15H14V16H13V15ZM13,17H14V18H13V17ZM14,6H15V7H14V6ZM14,8H15V9H14V8ZM14,12H15V13H14V12ZM14,14H15V15H14V14ZM15,17H16V18H15V17ZM16,6H17V7H16V6ZM16,12H17V13H16V12ZM17,9H18V10H17V9ZM17,11H18V12H17V11ZM17,15H18V16H17V15ZM17,17H18V18H17V17ZM18,6H19V7H18V6ZM19,9H20V10H19V9ZM19,15H20V16H19V15ZM19,17H20V18H19V17ZM20,6H21V7H20V6ZM20,8H21V9H20V8ZM20,12H21V13H20V12ZM20,14H21V15H20V14ZM21,17H22V18H21V17ZM22,6H23V7H22V6ZM23,17H24V18H23V17ZM24,6H25V7H24V6ZM25,7H26V8H25V7ZM25,9H26V10H25V9ZM25,11H26V12H25V11ZM25,13H26V14H25V13ZM25,15H26V16H25V15ZM25,17H26V18H25V17Z"/><path class="c5" d="M2,7H3V8H2V7ZM2,9H3V10H2V9ZM2,11H3V12H2V11ZM2,13H3V14H2V13ZM2,15H3V16H2V15ZM2,17H3V18H2V17ZM3,6H4V7H3V6ZM4,17H5V18H4V17ZM5,6H6V7H5V6ZM6,17H7V18H6V17ZM7,6H8V7H7V6ZM7,12H8V13H7V12ZM8,9H9V10H8V9ZM8,11H9V12H8V11ZM8,15H9V16H8V15ZM8,17H9V18H8V17ZM9,6H10V7H9V6ZM10,9H11V10H10V9ZM10,15H11V16H10V15ZM10,17H11V18H10V17ZM11,6H12V7H11V6ZM11,8H12V9H11V8ZM11,12H12V13H11V12ZM11,14H12V15H11V14ZM12,17H13V18H12V17ZM13,6H14V7H13V6ZM13,12H14V13H13V12ZM14,9H15V10H14V9ZM14,11H15V12H14V11ZM14,15H15V16H14V15ZM14,17H15V18H14V17ZM15,6H16V7H15V6ZM16,9H17V10H16V9ZM16,15H17V16H16V15ZM16,17H17V18H16V17ZM17,6H18V7H17V6ZM17,8H18V9H17V8ZM17,12H18V13H17V12ZM17,14H18V15H17V14ZM18,17H19V18H18V17ZM19,6H20V7H19V6ZM19,12H20V13H19V12ZM20,9H21V10H20V9ZM20,11H21V12H20V11ZM20,15H21V16H20V15ZM20,17H21V18H20V17ZM21,6H22V7H21V6ZM22,17H23V18H22V17ZM23,6H24V7H23V6ZM24,17H25V18H24V17ZM25,6H26V7H25V6ZM25,8H26V9H25V8ZM25,10H26V11H25V10ZM25,12H26V13H25V12ZM25,14H26V15H25V14ZM25,16H26V17H25V16Z"/><path class="c6" d="M4,8H5V9H4V8ZM4,11H5V12H4V11ZM4,14H5V15H4V14ZM22,8H23V9H22V8ZM22,11H23V12H22V11ZM22,14H23V15H22V14Z"/><path class="c7" d="M4,9H5V10H4V9ZM4,12H5V13H4V12ZM4,15H5V16H4V15ZM5,8H6V9H5V8ZM5,11H6V12H5V11ZM5,14H6V15H5V14ZM22,9H23V10H22V9ZM22,12H23V13H22V12ZM22,15H23V16H22V15ZM23,8H24V9H23V8ZM23,11H24V12H23V11ZM23,14H24V15H23V14Z"/><path class="c8" d="M7,8H8V9H7V8ZM7,11H8V12H7V11ZM7,14H8V15H7V14ZM10,8H11V9H10V8ZM10,11H11V12H10V11ZM10,14H11V15H10V14ZM13,8H14V9H13V8ZM13,11H14V12H13V11ZM13,14H14V15H13V14ZM16,8H17V9H16V8ZM16,11H17V12H16V11ZM16,14H17V15H16V14ZM19,8H20V9H19V8ZM19,11H20V12H19V11ZM19,14H20V15H19V14Z"/><path class="c9" d="M5,9H6V10H5V9ZM5,12H6V13H5V12ZM5,15H6V16H5V15ZM23,9H24V10H23V9ZM23,12H24V13H23V12ZM23,15H24V16H23V15Z"/></svg>