<?xml version="1.0" encoding="UTF-8"?>
<svg xmlns="http://www.w3.org/2000/svg" width="26" height="30"><defs><style>.c0{fill:#000000}.c1{fill:#302e70}.c2{fill:#ef5c6f}.c3{fill:#f6f6f5}.c4{fill:#ac4a68}</style></defs><path class="c0" d="M1,13H2V18H1V13ZM2,11H3V13H2V11ZM2,18H3V20H2V18ZM3,9H4V11H3V9ZM3,13H4V18H3V13ZM3,20H4V22H3V20ZM4,8H5V9H4V8ZM4,11H5V13H4V11ZM4,18H5V20H4V18ZM4,22H5V23H6V24H5V27H4V22ZM5,7H6V8H5V7ZM5,9H6V11H5V9ZM5,15H6V16H5V15ZM5,20H6V22H5V20ZM5,27H6V24H8V25H10V26H15V25H17V24H19V23H20V22H21V20H22V18H23V13H22V11H21V9H22V10H23V12H24V14H25V19H24V21H23V23H22V28H21V29H20V28H19V27H16V28H11V27H8V28H7V29H6V28H5V27ZM19,27H20V25H19V27ZM6,6H8V7H6V6ZM6,8H8V9H6V8ZM6,11H7V12H6V11ZM6,19H7V20H6V19ZM6,22H8V23H6V22ZM8,5H10V6H8V5ZM8,7H10V8H8V7ZM8,9H9V10H8V9ZM8,11H9V12H8V11ZM8,21H9V22H8V21ZM8,23H9V24H8V23ZM9,12H10V13H9V12ZM10,2H11V3H10V2ZM10,4H11V3H12V4H13V3H14V2H15V3H16V4H15V5H10V4ZM10,6H15V7H10V6ZM10,13H11V14H10V13ZM10,24H11V25H10V24ZM11,1H14V2H11V1ZM11,14H12V15H11V14ZM12,8H13V9H12V8ZM12,15H13V16H12V15ZM12,22H13V23H12V22ZM13,14H14V15H13V14ZM14,13H15V14H14V13ZM15,5H17V6H15V5ZM15,7H17V8H15V7ZM15,12H16V13H15V12ZM16,9H17V10H16V9ZM16,21H17V22H16V21ZM17,6H19V7H17V6ZM17,8H19V9H17V8ZM18,11H19V12H18V11ZM18,19H19V20H18V19ZM19,7H20V8H19V7ZM19,9H20V10H19V9ZM19,15H20V16H19V15ZM20,8H21V9H20V8ZM20,11H21V12H20V11ZM21,13H22V14H21V13Z"/><path class="c1" d="M9,23H10V24H9V23ZM11,24H15V25H11V24ZM12,3H13V4H12V3ZM13,2H14V3H13V2ZM15,23H17V24H15V23ZM17,22H19V23H17V22ZM19,10H20V11H19V10ZM19,20H20V22H19V20ZM20,12H21V13H20V12ZM20,18H21V20H20V18ZM21,14H22V18H21V14Z"/><path class="c2" d="M2,13H3V18H2V13ZM3,11H4V13H3V11ZM3,18H4V20H3V18ZM4,9H5V11H4V9ZM4,20H5V21H4V20ZM5,8H6V9H5V8ZM6,7H8V8H6V7ZM8,6H10V7H8V6ZM10,5H15V6H10V5ZM15,6H17V7H15V6ZM17,7H18V8H17V7Z"/><path class="c3" d="M4,13H5V11H6V9H8V8H10V7H15V8H17V9H19V11H20V13H21V18H20V20H19V22H17V23H15V24H10V23H8V22H6V20H5V18H4V13ZM6,11V12H7V11H6ZM8,9V10H9V9H8ZM17,9H16V10H17V9ZM19,11H18V12H19V11ZM19,20V19H18V20H19ZM17,22V21H16V22H17ZM8,22H9V21H8V22ZM6,20H7V19H6V20ZM5,15V16H6V15H5ZM8,11V12H9V11H8ZM9,12V13H10V12H9ZM10,13V14H11V13H10ZM11,14V15H12V14H11ZM12,8V9H13V8H12ZM12,15V16H13V15H12ZM12,22V23H13V22H12ZM13,14V15H14V14H13ZM14,13V14H15V13H14ZM15,12V13H16V12H15ZM19,15V16H20V15H19Z"/><path class="c4" d="M4,21H5V22H4V21ZM5,22H6V23H5V22ZM5,24H6V27H5V24ZM6,23H8V24H6V23ZM8,24H10V25H8V24ZM10,25H15V26H10V25ZM15,24H17V25H15V24ZM17,23H19V24H17V23ZM18,7H19V8H18V7ZM19,8H20V9H19V8ZM19,22H20V23H19V22ZM19,25H20V27H19V25ZM20,9H21V11H20V9ZM20,20H21V22H20V20ZM21,11H22V13H21V11ZM21,18H22V20H21V18ZM22,13H23V18H22V13Z"/></svg>