<?xml version="1.0" encoding="UTF-8"?>
<svg xmlns="http://www.w3.org/2000/svg" width="25" height="31"><defs><style>.c0{fill:#000000}.c1{fill:#f6e85f}.c2{fill:#f9be4e}.c3{fill:#fd8f3a}</style></defs><path class="c0" d="M1,1H15V2H16V3H15V9H21V8H22V9H23V10H24V30H2V29H1V1ZM2,2V28H22V10H20V11H4V10H14V6H8V5H14V2H2ZM4,13H20V14H4V13ZM4,16H20V17H4V16ZM4,19H20V20H4V19ZM4,22H20V23H4V22ZM16,3H17V4H16V3ZM17,4H18V5H17V4ZM18,5H19V6H18V5ZM19,6H20V7H19V6ZM20,7H21V8H20V7Z"/><path class="c1" d="M2,2H12V3H3V26H2V2ZM15,3H16V4H17V5H18V6H19V7H20V8H21V9H19V8H18V7H17V6H16V5H15V3ZM15,6H16V7H15V6ZM15,8H16V9H15V8ZM16,7H17V8H16V7ZM17,8H18V9H17V8Z"/><path class="c2" d="M2,26H3V28H2V26ZM3,3H12V4H11V5H10V4H9V5H8V4H7V5H6V4H5V5H4V6H5V7H4V8H5V9H4V12H5V13H4V14H5V15H4V18H3V3ZM3,19H4V20H5V21H4V22H3V19ZM3,23H4V24H5V25H4V26H3V23ZM4,18H5V19H4V18ZM4,26H5V27H4V26ZM5,5H6V6H5V5ZM5,7H6V8H5V7ZM5,9H6V10H5V9ZM5,11H6V12H5V11ZM5,15H6V16H5V15ZM5,17H6V18H5V17ZM5,21H6V22H5V21ZM5,23H6V24H5V23ZM5,25H6V26H5V25ZM6,6H7V7H6V6ZM6,8H7V9H6V8ZM6,12H7V13H6V12ZM6,14H7V15H6V14ZM6,18H7V19H6V18ZM6,20H7V21H6V20ZM6,24H7V25H6V24ZM6,26H7V27H6V26ZM7,5H8V6H7V5ZM7,7H8V8H7V7ZM7,9H8V10H7V9ZM7,11H8V12H7V11ZM7,15H8V16H7V15ZM7,17H8V18H7V17ZM7,21H8V22H7V21ZM7,23H8V24H7V23ZM7,25H8V26H7V25ZM8,6H9V7H8V6ZM8,8H9V9H8V8ZM8,12H9V13H8V12ZM8,14H9V15H8V14ZM8,18H9V19H8V18ZM8,20H9V21H8V20ZM8,24H9V25H8V24ZM8,26H9V27H8V26ZM9,7H10V8H9V7ZM9,9H10V10H9V9ZM9,11H10V12H9V11ZM9,15H10V16H9V15ZM9,17H10V18H9V17ZM9,21H10V22H9V21ZM9,23H10V24H9V23ZM9,25H10V26H9V25ZM10,6H11V7H10V6ZM10,8H11V9H10V8ZM10,12H11V13H10V12ZM10,14H11V15H10V14ZM10,18H11V19H10V18ZM10,20H11V21H10V20ZM10,24H11V25H10V24ZM10,26H11V27H10V26ZM11,7H12V8H11V7ZM11,9H12V10H11V9ZM11,11H12V12H11V11ZM11,15H12V16H11V15ZM11,17H12V18H11V17ZM11,21H12V22H11V21ZM11,23H12V24H11V23ZM11,25H12V26H11V25ZM12,2H13V3H12V2ZM12,4H13V5H12V4ZM12,6H13V7H12V6ZM12,8H13V9H12V8ZM12,12H13V13H12V12ZM12,14H13V15H12V14ZM12,18H13V19H12V18ZM12,20H13V21H12V20ZM12,24H13V25H12V24ZM12,26H13V27H12V26ZM13,11H14V12H13V11ZM13,15H14V16H13V15ZM13,17H14V18H13V17ZM13,21H14V22H13V21ZM13,23H14V24H13V23ZM13,25H14V26H13V25ZM14,12H15V13H14V12ZM14,14H15V15H14V14ZM14,18H15V19H14V18ZM14,20H15V21H14V20ZM14,24H15V25H14V24ZM14,26H15V27H14V26ZM15,5H16V6H15V5ZM15,7H16V8H15V7ZM15,11H16V12H15V11ZM15,15H16V16H15V15ZM15,17H16V18H15V17ZM15,21H16V22H15V21ZM15,23H16V24H15V23ZM15,25H16V26H15V25ZM16,6H17V7H16V6ZM16,8H17V9H16V8ZM16,12H17V13H16V12ZM16,14H17V15H16V14ZM16,18H17V19H16V18ZM16,20H17V21H16V20ZM16,24H17V25H16V24ZM16,26H17V27H16V26ZM17,7H18V8H17V7ZM17,11H18V12H17V11ZM17,15H18V16H17V15ZM17,17H18V18H17V17ZM17,21H18V22H17V21ZM17,23H18V24H17V23ZM17,25H18V26H17V25ZM18,8H19V9H18V8ZM18,12H19V13H18V12ZM18,14H19V15H18V14ZM18,18H19V19H18V18ZM18,20H19V21H18V20ZM18,24H19V25H18V24ZM18,26H19V27H18V26ZM19,11H20V12H19V11ZM19,15H20V16H19V15ZM19,17H20V18H19V17ZM19,21H20V22H19V21ZM19,23H20V24H19V23ZM19,25H20V26H19V25ZM20,12H21V13H20V12ZM20,14H21V15H20V14ZM20,16H21V17H20V16ZM20,18H21V19H20V18ZM20,20H21V21H20V20ZM20,22H21V23H20V22ZM20,24H21V25H20V24ZM20,26H21V27H20V26Z"/><path class="c3" d="M3,18H4V19H3V18ZM3,22H4V23H3V22ZM3,26H4V27H5V26H6V27H7V26H8V27H9V26H10V27H11V26H12V27H13V26H14V27H15V26H16V27H17V26H18V27H19V26H20V25H21V24H20V23H21V22H20V21H21V20H20V19H21V18H20V17H21V16H20V15H21V14H20V13H21V12H20V10H22V28H3V26ZM20,26V27H21V26H20ZM4,5H5V6H4V5ZM4,7H5V8H4V7ZM4,9H5V10H4V9ZM4,11H5V12H4V11ZM4,15H5V16H4V15ZM4,17H5V18H4V17ZM4,21H5V22H4V21ZM4,23H5V24H4V23ZM4,25H5V26H4V25ZM5,4H6V5H5V4ZM5,6H6V7H5V6ZM5,8H6V9H5V8ZM5,12H6V13H5V12ZM5,14H6V15H5V14ZM5,18H6V19H5V18ZM5,20H6V21H5V20ZM5,24H6V25H5V24ZM6,5H7V6H6V5ZM6,7H7V8H6V7ZM6,9H7V10H6V9ZM6,11H7V12H6V11ZM6,15H7V16H6V15ZM6,17H7V18H6V17ZM6,21H7V22H6V21ZM6,23H7V24H6V23ZM6,25H7V26H6V25ZM7,4H8V5H7V4ZM7,6H8V7H7V6ZM7,8H8V9H7V8ZM7,12H8V13H7V12ZM7,14H8V15H7V14ZM7,18H8V19H7V18ZM7,20H8V21H7V20ZM7,24H8V25H7V24ZM8,7H9V8H8V7ZM8,9H9V10H8V9ZM8,11H9V12H8V11ZM8,15H9V16H8V15ZM8,17H9V18H8V17ZM8,21H9V22H8V21ZM8,23H9V24H8V23ZM8,25H9V26H8V25ZM9,4H10V5H9V4ZM9,6H10V7H9V6ZM9,8H10V9H9V8ZM9,12H10V13H9V12ZM9,14H10V15H9V14ZM9,18H10V19H9V18ZM9,20H10V21H9V20ZM9,24H10V25H9V24ZM10,7H11V8H10V7ZM10,9H11V10H10V9ZM10,11H11V12H10V11ZM10,15H11V16H10V15ZM10,17H11V18H10V17ZM10,21H11V22H10V21ZM10,23H11V24H10V23ZM10,25H11V26H10V25ZM11,4H12V5H11V4ZM11,6H12V7H11V6ZM11,8H12V9H11V8ZM11,12H12V13H11V12ZM11,14H12V15H11V14ZM11,18H12V19H11V18ZM11,20H12V21H11V20ZM11,24H12V25H11V24ZM12,3H13V2H14V5H13V4H12V3ZM12,7H13V6H14V10H12V9H13V8H12V7ZM12,11H13V12H12V11ZM12,15H13V16H12V15ZM12,17H13V18H12V17ZM12,21H13V22H12V21ZM12,23H13V24H12V23ZM12,25H13V26H12V25ZM13,12H14V13H13V12ZM13,14H14V15H13V14ZM13,18H14V19H13V18ZM13,20H14V21H13V20ZM13,24H14V25H13V24ZM14,11H15V12H14V11ZM14,15H15V16H14V15ZM14,17H15V18H14V17ZM14,21H15V22H14V21ZM14,23H15V24H14V23ZM14,25H15V26H14V25ZM15,12H16V13H15V12ZM15,14H16V15H15V14ZM15,18H16V19H15V18ZM15,20H16V21H15V20ZM15,24H16V25H15V24ZM16,11H17V12H16V11ZM16,15H17V16H16V15ZM16,17H17V18H16V17ZM16,21H17V22H16V21ZM16,23H17V24H16V23ZM16,25H17V26H16V25ZM17,12H18V13H17V12ZM17,14H18V15H17V14ZM17,18H18V19H17V18ZM17,20H18V21H17V20ZM17,24H18V25H17V24ZM18,11H19V12H18V11ZM18,15H19V16H18V15ZM18,17H19V18H18V17ZM18,21H19V22H18V21ZM18,23H19V24H18V23ZM18,25H19V26H18V25ZM19,12H20V13H19V12ZM19,14H20V15H19V14ZM19,18H20V19H19V18ZM19,20H20V21H19V20ZM19,24H20V25H19V24Z"/></svg>