<?xml version="1.0" encoding="UTF-8"?>
<svg xmlns="http://www.w3.org/2000/svg" width="33" height="31"><defs><style>.c0{fill:#000000}.c1{fill:#ef5c6f}.c2{fill:#ac4a68}</style></defs><path class="c0" d="M1,3H2V5H6V3H7V27H6V7H2V6H1V3ZM2,2H3V3H2V2ZM3,1H24V2H6V3H5V2H3V1ZM7,27H8V28H7V27ZM8,28H11V27H12V24H25V3H26V4H27V24H31V25H32V28H31V29H30V30H9V29H8V28ZM12,27V28H29V27H30V25H13V27H12ZM10,9H23V10H10V9ZM10,12H23V13H10V12ZM10,15H23V16H10V15ZM10,18H23V19H10V18ZM14,4H19V5H14V4ZM24,2H25V3H24V2Z"/><path class="c1" d="M2,3H3V4H2V3ZM3,2H4V3H3V2ZM3,4H4V5H3V4ZM4,3H5V4H4V3ZM6,2H24V4H23V3H22V4H21V3H20V4H19V3H18V4H17V3H16V4H15V3H14V4H13V3H12V4H11V3H10V4H9V5H8V6H9V7H8V8H9V9H8V10H9V11H8V12H9V13H8V14H9V15H8V16H9V17H8V18H9V19H8V20H9V21H8V22H9V23H8V24H9V25H8V26H7V3H6V2ZM9,4V3H8V4H9ZM8,26H9V27H8V26ZM9,5H10V6H9V5ZM9,7H10V8H9V7ZM9,9H10V10H9V9ZM9,11H10V12H9V11ZM9,13H10V14H9V13ZM9,15H10V16H9V15ZM9,17H10V18H9V17ZM9,19H10V20H9V19ZM9,21H10V22H9V21ZM9,23H10V24H9V23ZM9,25H10V26H9V25ZM9,27H10V28H9V27ZM10,4H11V5H10V4ZM10,6H11V7H10V6ZM10,8H11V9H10V8ZM10,10H11V11H10V10ZM10,14H11V15H10V14ZM10,16H11V17H10V16ZM10,20H11V21H10V20ZM10,22H11V23H10V22ZM10,24H11V25H10V24ZM10,26H11V27H10V26ZM11,5H12V6H11V5ZM11,7H12V8H11V7ZM11,11H12V12H11V11ZM11,13H12V14H11V13ZM11,17H12V18H11V17ZM11,19H12V20H11V19ZM11,21H12V22H11V21ZM11,23H12V24H11V23ZM11,25H12V26H11V25ZM12,4H13V5H12V4ZM12,6H13V7H12V6ZM12,8H13V9H12V8ZM12,10H13V11H12V10ZM12,14H13V15H12V14ZM12,16H13V17H12V16ZM12,20H13V21H12V20ZM12,22H13V23H12V22ZM13,5H14V6H13V5ZM13,7H14V8H13V7ZM13,11H14V12H13V11ZM13,13H14V14H13V13ZM13,17H14V18H13V17ZM13,19H14V20H13V19ZM13,21H14V22H13V21ZM13,23H14V24H13V23ZM13,25H30V26H29V27H28V26H27V27H26V26H25V27H24V26H23V27H22V26H21V27H20V26H19V27H18V26H17V27H16V26H15V27H14V28H13V25ZM14,6H15V7H14V6ZM14,8H15V9H14V8ZM14,10H15V11H14V10ZM14,14H15V15H14V14ZM14,16H15V17H14V16ZM14,20H15V21H14V20ZM14,22H15V23H14V22ZM15,5H16V6H15V5ZM15,7H16V8H15V7ZM15,11H16V12H15V11ZM15,13H16V14H15V13ZM15,17H16V18H15V17ZM15,19H16V20H15V19ZM15,21H16V22H15V21ZM15,23H16V24H15V23ZM15,27H16V28H15V27ZM16,6H17V7H16V6ZM16,8H17V9H16V8ZM16,10H17V11H16V10ZM16,14H17V15H16V14ZM16,16H17V17H16V16ZM16,20H17V21H16V20ZM16,22H17V23H16V22ZM17,5H18V6H17V5ZM17,7H18V8H17V7ZM17,11H18V12H17V11ZM17,13H18V14H17V13ZM17,17H18V18H17V17ZM17,19H18V20H17V19ZM17,21H18V22H17V21ZM17,23H18V24H17V23ZM17,27H18V28H17V27ZM18,6H19V7H18V6ZM18,8H19V9H18V8ZM18,10H19V11H18V10ZM18,14H19V15H18V14ZM18,16H19V17H18V16ZM18,20H19V21H18V20ZM18,22H19V23H18V22ZM19,5H20V6H19V5ZM19,7H20V8H19V7ZM19,11H20V12H19V11ZM19,13H20V14H19V13ZM19,17H20V18H19V17ZM19,19H20V20H19V19ZM19,21H20V22H19V21ZM19,23H20V24H19V23ZM19,27H20V28H19V27ZM20,4H21V5H20V4ZM20,6H21V7H20V6ZM20,8H21V9H20V8ZM20,10H21V11H20V10ZM20,14H21V15H20V14ZM20,16H21V17H20V16ZM20,20H21V21H20V20ZM20,22H21V23H20V22ZM21,5H22V6H21V5ZM21,7H22V8H21V7ZM21,11H22V12H21V11ZM21,13H22V14H21V13ZM21,17H22V18H21V17ZM21,19H22V20H21V19ZM21,21H22V22H21V21ZM21,23H22V24H21V23ZM21,27H22V28H21V27ZM22,4H23V5H22V4ZM22,6H23V7H22V6ZM22,8H23V9H22V8ZM22,10H23V11H22V10ZM22,14H23V15H22V14ZM22,16H23V17H22V16ZM22,20H23V21H22V20ZM22,22H23V23H22V22ZM23,5H24V6H23V5ZM23,7H24V8H23V7ZM23,9H24V10H23V9ZM23,11H24V12H23V11ZM23,13H24V14H23V13ZM23,15H24V16H23V15ZM23,17H24V18H23V17ZM23,19H24V20H23V19ZM23,21H24V22H23V21ZM23,23H24V24H23V23ZM23,27H24V28H23V27ZM24,4H25V5H24V4ZM24,6H25V7H24V6ZM24,8H25V9H24V8ZM24,10H25V11H24V10ZM24,12H25V13H24V12ZM24,14H25V15H24V14ZM24,16H25V17H24V16ZM24,18H25V19H24V18ZM24,20H25V21H24V20ZM24,22H25V23H24V22ZM25,27H26V28H25V27ZM27,27H28V28H27V27Z"/><path class="c2" d="M2,4H3V5H2V4ZM3,3H4V4H3V3ZM4,2H5V3H4V2ZM4,4H5V3H6V5H4V4ZM7,26H8V27H7V26ZM8,3H9V4H8V3ZM8,5H9V6H8V5ZM8,7H9V8H8V7ZM8,9H9V10H8V9ZM8,11H9V12H8V11ZM8,13H9V14H8V13ZM8,15H9V16H8V15ZM8,17H9V18H8V17ZM8,19H9V20H8V19ZM8,21H9V22H8V21ZM8,23H9V24H8V23ZM8,25H9V26H8V25ZM8,27H9V28H8V27ZM9,4H10V5H9V4ZM9,6H10V7H9V6ZM9,8H10V9H9V8ZM9,10H10V11H9V10ZM9,12H10V13H9V12ZM9,14H10V15H9V14ZM9,16H10V17H9V16ZM9,18H10V19H9V18ZM9,20H10V21H9V20ZM9,22H10V23H9V22ZM9,24H10V25H9V24ZM9,26H10V27H9V26ZM10,3H11V4H10V3ZM10,5H11V6H10V5ZM10,7H11V8H10V7ZM10,11H11V12H10V11ZM10,13H11V14H10V13ZM10,17H11V18H10V17ZM10,19H11V20H10V19ZM10,21H11V22H10V21ZM10,23H11V24H10V23ZM10,25H11V26H10V25ZM10,27H11V28H10V27ZM11,4H12V5H11V4ZM11,6H12V7H11V6ZM11,8H12V9H11V8ZM11,10H12V11H11V10ZM11,14H12V15H11V14ZM11,16H12V17H11V16ZM11,20H12V21H11V20ZM11,22H12V23H11V22ZM11,24H12V25H11V24ZM11,26H12V27H11V26ZM12,3H13V4H12V3ZM12,5H13V6H12V5ZM12,7H13V8H12V7ZM12,11H13V12H12V11ZM12,13H13V14H12V13ZM12,17H13V18H12V17ZM12,19H13V20H12V19ZM12,21H13V22H12V21ZM12,23H13V24H12V23ZM12,27H13V28H12V27ZM13,4H14V5H13V4ZM13,6H14V7H13V6ZM13,8H14V9H13V8ZM13,10H14V11H13V10ZM13,14H14V15H13V14ZM13,16H14V17H13V16ZM13,20H14V21H13V20ZM13,22H14V23H13V22ZM14,3H15V4H14V3ZM14,5H15V6H14V5ZM14,7H15V8H14V7ZM14,11H15V12H14V11ZM14,13H15V14H14V13ZM14,17H15V18H14V17ZM14,19H15V20H14V19ZM14,21H15V22H14V21ZM14,23H15V24H14V23ZM14,27H15V28H14V27ZM15,6H16V7H15V6ZM15,8H16V9H15V8ZM15,10H16V11H15V10ZM15,14H16V15H15V14ZM15,16H16V17H15V16ZM15,20H16V21H15V20ZM15,22H16V23H15V22ZM15,26H16V27H15V26ZM16,3H17V4H16V3ZM16,5H17V6H16V5ZM16,7H17V8H16V7ZM16,11H17V12H16V11ZM16,13H17V14H16V13ZM16,17H17V18H16V17ZM16,19H17V20H16V19ZM16,21H17V22H16V21ZM16,23H17V24H16V23ZM16,27H17V28H16V27ZM17,6H18V7H17V6ZM17,8H18V9H17V8ZM17,10H18V11H17V10ZM17,14H18V15H17V14ZM17,16H18V17H17V16ZM17,20H18V21H17V20ZM17,22H18V23H17V22ZM17,26H18V27H17V26ZM18,3H19V4H18V3ZM18,5H19V6H18V5ZM18,7H19V8H18V7ZM18,11H19V12H18V11ZM18,13H19V14H18V13ZM18,17H19V18H18V17ZM18,19H19V20H18V19ZM18,21H19V22H18V21ZM18,23H19V24H18V23ZM18,27H19V28H18V27ZM19,4H20V5H19V4ZM19,6H20V7H19V6ZM19,8H20V9H19V8ZM19,10H20V11H19V10ZM19,14H20V15H19V14ZM19,16H20V17H19V16ZM19,20H20V21H19V20ZM19,22H20V23H19V22ZM19,26H20V27H19V26ZM20,3H21V4H20V3ZM20,5H21V6H20V5ZM20,7H21V8H20V7ZM20,11H21V12H20V11ZM20,13H21V14H20V13ZM20,17H21V18H20V17ZM20,19H21V20H20V19ZM20,21H21V22H20V21ZM20,23H21V24H20V23ZM20,27H21V28H20V27ZM21,4H22V5H21V4ZM21,6H22V7H21V6ZM21,8H22V9H21V8ZM21,10H22V11H21V10ZM21,14H22V15H21V14ZM21,16H22V17H21V16ZM21,20H22V21H21V20ZM21,22H22V23H21V22ZM21,26H22V27H21V26ZM22,3H23V4H22V3ZM22,5H23V6H22V5ZM22,7H23V8H22V7ZM22,11H23V12H22V11ZM22,13H23V14H22V13ZM22,17H23V18H22V17ZM22,19H23V20H22V19ZM22,21H23V22H22V21ZM22,23H23V24H22V23ZM22,27H23V28H22V27ZM23,4H24V5H23V4ZM23,6H24V7H23V6ZM23,8H24V9H23V8ZM23,10H24V11H23V10ZM23,12H24V13H23V12ZM23,14H24V15H23V14ZM23,16H24V17H23V16ZM23,18H24V19H23V18ZM23,20H24V21H23V20ZM23,22H24V23H23V22ZM23,26H24V27H23V26ZM24,3H25V4H24V3ZM24,5H25V6H24V5ZM24,7H25V8H24V7ZM24,9H25V10H24V9ZM24,11H25V12H24V11ZM24,13H25V14H24V13ZM24,15H25V16H24V15ZM24,17H25V18H24V17ZM24,19H25V20H24V19ZM24,21H25V22H24V21ZM24,23H25V24H24V23ZM24,27H25V28H24V27ZM25,26H26V27H25V26ZM26,27H27V28H26V27ZM27,26H28V27H27V26ZM28,27H29V28H28V27ZM29,26H30V27H29V26Z"/></svg>