<?xml version="1.0" encoding="UTF-8"?>
<svg xmlns="http://www.w3.org/2000/svg" width="15" height="31"><defs><style>.c0{fill:#000000}.c1{fill:#a68cdc}.c2{fill:#6939ca}</style></defs><path class="c0" d="M1,3H2V9H1V3ZM2,2H3V3H2V2ZM2,9H3V10H2V9ZM3,1H5V2H6V7H9V8H5V7H4V2H3V1ZM3,10H5V23H4V11H3V10ZM3,23H4V27H3V23ZM4,27H5V28H4V27ZM5,24H6V23H8V24H9V26H8V27H6V26H5V24ZM8,26V25H7V26H8ZM5,28H9V27H10V23H9V10H11V9H12V3H13V4H14V10H13V11H12V12H11V24H12V28H11V29H10V30H6V29H5V28ZM9,1H11V2H10V7H9V1ZM11,2H12V3H11V2Z"/><path class="c1" d="M2,3H3V7H4V8H9V9H8V12H7V22H6V23H5V12H6V11H7V10H5V9H2V3ZM3,2H4V3H3V2ZM4,23H5V25H4V23ZM8,23H9V24H8V23ZM8,26H9V27H8V26ZM9,7H10V8H9V7ZM10,3H11V7H10V3Z"/><path class="c2" d="M3,3H4V7H3V3ZM3,9H5V10H3V9ZM4,7H5V8H4V7ZM4,25H5V26H6V27H9V28H5V27H4V25ZM5,10H7V11H6V12H5V10ZM5,23H6V24H5V23ZM6,22H7V12H8V9H9V8H10V7H11V3H12V9H11V10H9V23H6V22ZM9,23H10V27H9V23ZM10,2H11V3H10V2Z"/></svg>