<svg width="24" height="24" viewBox="0 0 24 24" fill="none" xmlns="http://www.w3.org/2000/svg">
<g id="beauty-barber-light-sign">
<g id="Group">
<path id="Vector" d="M22.0012 16.502H21.0037V17.4995H22.0012V16.502Z" fill="#000001"/>
<path id="Vector_2" d="M22.0012 12.5054H21.0037V13.5029H22.0012V12.5054Z" fill="#000001"/>
<path id="Vector_3" d="M22.0012 7.50464H21.0037V8.50214H22.0012V7.50464Z" fill="#000001"/>
<path id="Vector_4" d="M22.0013 3.50165H21.0038V2.50415H19.9997V3.50165H19.0022V4.49915H19.9997V5.50321H21.0038V4.49915H22.0013V3.50165Z" fill="#000001"/>
<path id="Vector_5" d="M21.0038 15.5044H19.9998V16.5019H21.0038V15.5044Z" fill="#000001"/>
<path id="Vector_6" d="M19.9996 22.5V21.5025H21.0037V20.505H19.9996V19.501H19.0021V20.505H18.0046V21.5025H19.0021V22.5H19.9996Z" fill="#000001"/>
<path id="Vector_7" d="M19.9997 16.502H19.0022V17.4995H19.9997V16.502Z" fill="#000001"/>
<path id="Vector_8" d="M19.0021 9.49976H18.0046V10.5038H19.0021V9.49976Z" fill="#000001"/>
<path id="Vector_9" d="M18.0048 10.5037H17.0007V11.5012H18.0048V10.5037Z" fill="#000001"/>
<path id="Vector_10" d="M18.0048 8.5022H17.0007V9.4997H18.0048V8.5022Z" fill="#000001"/>
<path id="Vector_11" d="M17.0007 18.5034H16.0032V19.5009H17.0007V18.5034Z" fill="#000001"/>
<path id="Vector_12" d="M17.0007 13.5029H16.0032V14.5004H17.0007V13.5029Z" fill="#000001"/>
<path id="Vector_13" d="M17.0007 9.49976H16.0032V10.5038H17.0007V9.49976Z" fill="#000001"/>
<path id="Vector_14" d="M17.0007 4.49902H16.0032V5.50309H17.0007V4.49902Z" fill="#000001"/>
<path id="Vector_15" d="M6.99951 19.501V20.505H8.00357V21.5025H9.00107V20.505H14.0017V21.5025H14.9992V20.505H16.0033V19.501H6.99951Z" fill="#000001"/>
<path id="Vector_16" d="M14.0016 21.5024H9.00098V22.4999H14.0016V21.5024Z" fill="#000001"/>
<path id="Vector_17" d="M14.0016 1.5H9.00098V2.50406H14.0016V1.5Z" fill="#000001"/>
<path id="Vector_18" d="M5.00431 21.5026V16.502H8.00337V17.4995H6.99931V18.5035H16.0031V17.4995H14.999V6.50071H16.0031V5.50321H6.99931V6.50071H8.00337V7.50478H5.00431V2.50415H4.00024V21.5026H5.00431ZM14.0015 17.4995H11.9999V16.502H13.004V15.5045H14.0015V17.4995ZM9.00087 7.50478H10.0049V6.50071H11.9999V7.50478H11.0024V8.50228H10.0049V9.49978H9.00087V7.50478ZM9.00087 11.5013H10.0049V10.5038H11.0024V9.49978H11.9999V8.50228H13.004V7.50478H14.0015V9.49978H13.004V10.5038H11.9999V11.5013H11.0024V12.5054H10.0049V13.5029H9.00087V11.5013ZM9.00087 15.5045H10.0049V14.5004H11.0024V13.5029H11.9999V12.5054H13.004V11.5013H14.0015V13.5029H13.004V14.5004H11.9999V15.5045H11.0024V16.502H10.0049V17.4995H9.00087V15.5045ZM5.00431 8.50228H8.00337V15.5045H5.00431V8.50228Z" fill="#000001"/>
<path id="Vector_19" d="M16.0033 4.49915V3.50165H14.9992V2.50415H14.0017V3.50165H9.00107V2.50415H8.00357V3.50165H6.99951V4.49915H16.0033Z" fill="#000001"/>
<path id="Vector_20" d="M6.99945 18.5034H6.00195V19.5009H6.99945V18.5034Z" fill="#000001"/>
<path id="Vector_21" d="M6.99945 4.49902H6.00195V5.50309H6.99945V4.49902Z" fill="#000001"/>
<path id="Vector_22" d="M4.00034 1.5H1.99878V2.50406H4.00034V1.5Z" fill="#000001"/>
<path id="Vector_23" d="M4.00034 21.5024H1.99878V22.4999H4.00034V21.5024Z" fill="#000001"/>
</g>
</g>
</svg>
