<svg width="24" height="24" viewBox="0 0 24 24" fill="none" xmlns="http://www.w3.org/2000/svg">
<g id="beauty-perfume-2">
<g id="Group">
<path id="Vector" d="M21.998 4.49902H21.0005V5.50309H21.998V4.49902Z" fill="#000001"/>
<path id="Vector_2" d="M21.998 2.50415H21.0005V3.50165H21.998V2.50415Z" fill="#000001"/>
<path id="Vector_3" d="M20.0031 10.5037H18.999V20.5049H20.0031V10.5037Z" fill="#000001"/>
<path id="Vector_4" d="M20.0031 5.50317H18.999V6.50067H20.0031V5.50317Z" fill="#000001"/>
<path id="Vector_5" d="M20.0031 3.50146H18.999V4.49896H20.0031V3.50146Z" fill="#000001"/>
<path id="Vector_6" d="M20.0031 1.5H18.999V2.50406H20.0031V1.5Z" fill="#000001"/>
<path id="Vector_7" d="M18.999 20.5049H18.0015V21.5024H18.999V20.5049Z" fill="#000001"/>
<path id="Vector_8" d="M18.999 9.49976H18.0015V10.5038H18.999V9.49976Z" fill="#000001"/>
<path id="Vector_9" d="M18.0014 12.5054H17.0039V14.5004H18.0014V12.5054Z" fill="#000001"/>
<path id="Vector_10" d="M18.0014 4.49902H17.0039V5.50309H18.0014V4.49902Z" fill="#000001"/>
<path id="Vector_11" d="M18.0014 2.50415H17.0039V3.50165H18.0014V2.50415Z" fill="#000001"/>
<path id="Vector_12" d="M18.0012 21.5024H4.00342V22.4999H18.0012V21.5024Z" fill="#000001"/>
<path id="Vector_13" d="M5.00092 20.5051H17.0037V19.5011H18.0012V15.5045H15.0022V14.5004H13.0006V13.5029H7.99998V14.5004H5.99842V15.5045H4.00342V19.5011H5.00092V20.5051Z" fill="#000001"/>
<path id="Vector_14" d="M17.0041 11.5012H16V12.5053H17.0041V11.5012Z" fill="#000001"/>
<path id="Vector_15" d="M15.9999 10.5037H13.9983V11.5012H15.9999V10.5037Z" fill="#000001"/>
<path id="Vector_16" d="M13.9981 1.5H8V2.50406H13.9981V1.5Z" fill="#000001"/>
<path id="Vector_17" d="M18.0012 9.49978V8.50228H13.9981V6.50071H13.0006V5.50321H15.0022V4.49915H16.0029V3.50165H15.0054V2.50415H14.0014V4.49915H7.9967V2.50415H7.00248V5.50321H9.00404V6.50071H7.9967V8.50228H4.00342V9.49978H18.0012ZM10.0015 5.50321H12.0031V6.50071H10.0015V5.50321ZM9.00404 7.50478H13.0006V8.50228H9.00404V7.50478Z" fill="#000001"/>
<path id="Vector_18" d="M4.00357 20.5049H2.99951V21.5024H4.00357V20.5049Z" fill="#000001"/>
<path id="Vector_19" d="M4.00357 9.49976H2.99951V10.5038H4.00357V9.49976Z" fill="#000001"/>
<path id="Vector_20" d="M2.99945 10.5037H2.00195V20.5049H2.99945V10.5037Z" fill="#000001"/>
</g>
</g>
</svg>
