<svg width="24" height="24" viewBox="0 0 24 24" fill="none" xmlns="http://www.w3.org/2000/svg">
<g id="beauty-cosmatic-brush-set">
<g id="Group">
<path id="Vector" d="M22.0009 9.49976H21.0034V12.5054H22.0009V9.49976Z" fill="#000001"/>
<path id="Vector_2" d="M21.0036 8.5022H19.9995V9.4997H21.0036V8.5022Z" fill="#000001"/>
<path id="Vector_3" d="M21.0035 12.5054H18.0044V22.5001H21.0035V12.5054ZM19.9994 21.5026H19.0019V20.5051H19.9994V21.5026Z" fill="#000001"/>
<path id="Vector_4" d="M19.9995 7.50464H19.002V8.50214H19.9995V7.50464Z" fill="#000001"/>
<path id="Vector_5" d="M19.0019 8.5022H18.0044V9.4997H19.0019V8.5022Z" fill="#000001"/>
<path id="Vector_6" d="M18.0045 9.49976H17.0005V12.5054H18.0045V9.49976Z" fill="#000001"/>
<path id="Vector_7" d="M13.0039 13.5028V22.5H16.003V13.5028H14.9989V10.5037H16.003V9.49965H14.9989V8.50215H16.003V7.50465H14.9989V6.50059H16.003V5.50309H14.9989V4.49902H14.0014V5.50309H13.0039V6.50059H14.0014V7.50465H13.0039V8.50215H14.0014V9.49965H13.0039V10.5037H14.0014V13.5028H13.0039ZM14.9989 20.505V21.5025H14.0014V20.505H14.9989Z" fill="#000001"/>
<path id="Vector_8" d="M11.9999 3.50146H11.0024V7.50459H11.9999V3.50146Z" fill="#000001"/>
<path id="Vector_9" d="M11.0024 7.50464H10.0049V9.49964H11.0024V7.50464Z" fill="#000001"/>
<path id="Vector_10" d="M11.0024 2.50415H10.0049V3.50165H11.0024V2.50415Z" fill="#000001"/>
<path id="Vector_11" d="M10.0046 9.49976H9.00049V10.5038H10.0046V9.49976Z" fill="#000001"/>
<path id="Vector_12" d="M10.0046 4.49902H9.00049V5.50309H10.0046V4.49902Z" fill="#000001"/>
<path id="Vector_13" d="M8.00346 11.5012H6.00189V10.5037H5.00439V22.4999H9.00096V10.5037H8.00346V11.5012ZM8.00346 21.5024H6.99939V20.5049H8.00346V21.5024ZM8.00346 19.5008H6.99939V13.5027H8.00346V19.5008Z" fill="#000001"/>
<path id="Vector_14" d="M8.00309 7.50464H6.99902V9.49964H8.00309V7.50464Z" fill="#000001"/>
<path id="Vector_15" d="M9.00096 5.50317H5.00439V6.50067H9.00096V5.50317Z" fill="#000001"/>
<path id="Vector_16" d="M6.00189 7.50464H5.00439V8.50214H6.00189V7.50464Z" fill="#000001"/>
<path id="Vector_17" d="M10.0047 1.5H4V2.50406H10.0047V1.5Z" fill="#000001"/>
<path id="Vector_18" d="M5.00406 9.49976H4V10.5038H5.00406V9.49976Z" fill="#000001"/>
<path id="Vector_19" d="M5.00406 4.49902H4V5.50309H5.00406V4.49902Z" fill="#000001"/>
<path id="Vector_20" d="M3.99994 7.50464H3.00244V9.49964H3.99994V7.50464Z" fill="#000001"/>
<path id="Vector_21" d="M3.99994 2.50415H3.00244V3.50165H3.99994V2.50415Z" fill="#000001"/>
<path id="Vector_22" d="M3.0026 3.50146H1.99854V7.50459H3.0026V3.50146Z" fill="#000001"/>
</g>
</g>
</svg>
