<svg width="24" height="24" viewBox="0 0 24 24" fill="none" xmlns="http://www.w3.org/2000/svg">
<g id="beauty-mirror-2">
<g id="Group">
<path id="Vector" d="M18.0013 4.49906H16.9972V3.50156H16.003V2.50406H14.9989V1.5H9.00082V2.50406H7.99676V3.50156H6.99598V4.49906H5.99848V5.50312H5.00098V13.5028H5.99848V14.5003H6.99598V15.5044H8.99754V16.5019H10.0016V21.5025H10.9991V22.5H13.0007V21.5025H13.9982V16.5019H14.9957V15.5044H16.9972V14.5003H18.0013V13.5028H18.9988V5.50312H18.0013V4.49906ZM13.0007 20.505H11.9999V18.5034H13.0039L13.0007 20.505ZM16.9972 13.5028H16.003V14.5003H14.0014V15.5044H10.0049V14.5003H7.99676V13.5028H6.99598V5.50312H7.99676V4.49906H8.99426V3.50156H14.9924V4.49906H16.003V5.50312H17.0005L16.9972 13.5028Z" fill="#000001"/>
<path id="Vector_2" d="M13.998 10.5037H13.0005V11.5012H13.998V10.5037Z" fill="#000001"/>
<path id="Vector_3" d="M13.998 8.5022H13.0005V9.4997H13.998V8.5022Z" fill="#000001"/>
<path id="Vector_4" d="M13.0006 11.5012H10.999V12.5053H13.0006V11.5012Z" fill="#000001"/>
<path id="Vector_5" d="M10.999 10.5037H10.0015V11.5012H10.999V10.5037Z" fill="#000001"/>
<path id="Vector_6" d="M10.999 8.5022H10.0015V9.4997H10.999V8.5022Z" fill="#000001"/>
<path id="Vector_7" d="M10.999 4.49902H10.0015V5.50309H10.999V4.49902Z" fill="#000001"/>
<path id="Vector_8" d="M10.0016 5.50317H8.99756V6.50067H10.0016V5.50317Z" fill="#000001"/>
<path id="Vector_9" d="M8.9975 6.50073H8V7.50479H8.9975V6.50073Z" fill="#000001"/>
</g>
</g>
</svg>
