<svg width="24" height="24" viewBox="0 0 24 24" fill="none" xmlns="http://www.w3.org/2000/svg">
<g id="beauty-body-care-snail">
<g id="Group">
<path id="Vector" d="M22.4999 7.50464H21.5024V8.50214H22.4999V7.50464Z" fill="#000001"/>
<path id="Vector_2" d="M20.5051 13.5028H13.5029V14.5003H14.5004V15.5043H15.5045V18.5034H17.5061V19.5009H20.5051V20.505H21.5026V11.5012H20.5051V13.5028Z" fill="#000001"/>
<path id="Vector_3" d="M20.505 20.5049H19.501V21.5024H20.505V20.5049Z" fill="#000001"/>
<path id="Vector_4" d="M19.5011 10.5038V9.4997H18.5036V10.5038H9.50645V8.5022H8.50238V10.5038H7.50488V11.5013H20.5052V10.5038H19.5011Z" fill="#000001"/>
<path id="Vector_5" d="M20.505 5.50317H19.501V9.49974H20.505V5.50317Z" fill="#000001"/>
<path id="Vector_6" d="M20.505 2.50415H19.501V3.50165H20.505V2.50415Z" fill="#000001"/>
<path id="Vector_7" d="M19.5009 4.49902H17.5059V5.50309H19.5009V4.49902Z" fill="#000001"/>
<path id="Vector_8" d="M19.5009 21.5024H17.5059V22.4999H19.5009V21.5024Z" fill="#000001"/>
<path id="Vector_9" d="M18.5034 7.50464H17.5059V8.50214H18.5034V7.50464Z" fill="#000001"/>
<path id="Vector_10" d="M17.506 5.50317H16.502V6.50067H17.506V5.50317Z" fill="#000001"/>
<path id="Vector_11" d="M15.5045 20.5051V21.5026H16.502V19.501H14.5004V16.502H13.5029V20.5051H15.5045Z" fill="#000001"/>
<path id="Vector_12" d="M15.5046 3.50146H14.5005V4.49896H15.5046V3.50146Z" fill="#000001"/>
<path id="Vector_13" d="M13.5026 20.5049H12.5051V21.5024H8.50199V20.5049H7.50449V21.5024H5.50293V22.4999H15.5042V21.5024H13.5026V20.5049Z" fill="#000001"/>
<path id="Vector_14" d="M13.5029 15.5044H12.5054V16.5019H13.5029V15.5044Z" fill="#000001"/>
<path id="Vector_15" d="M17.5062 8.5022H11.5015V9.4997H17.5062V8.5022Z" fill="#000001"/>
<path id="Vector_16" d="M12.5055 17.4993H11.5015V19.5008H12.5055V17.4993Z" fill="#000001"/>
<path id="Vector_17" d="M16.502 6.50073H10.5039V7.50479H16.502V6.50073Z" fill="#000001"/>
<path id="Vector_18" d="M12.5055 2.50415H11.5015V3.50165H12.5055V2.50415Z" fill="#000001"/>
<path id="Vector_19" d="M11.5013 16.502H9.50635V17.4995H11.5013V16.502Z" fill="#000001"/>
<path id="Vector_20" d="M11.5014 3.50146H10.5039V4.49896H11.5014V3.50146Z" fill="#000001"/>
<path id="Vector_21" d="M11.5014 1.5H10.5039V2.50406H11.5014V1.5Z" fill="#000001"/>
<path id="Vector_22" d="M11.501 20.505V19.5009H10.5035V18.5034H9.50602V19.5009H8.50195V20.505H11.501Z" fill="#000001"/>
<path id="Vector_23" d="M12.5051 14.5002H8.50195V15.5043H12.5051V14.5002Z" fill="#000001"/>
<path id="Vector_24" d="M10.5038 7.50464H9.50635V8.50214H10.5038V7.50464Z" fill="#000001"/>
<path id="Vector_25" d="M10.5038 2.50415H9.50635V3.50165H10.5038V2.50415Z" fill="#000001"/>
<path id="Vector_26" d="M9.50602 17.4993H8.50195V18.5033H9.50602V17.4993Z" fill="#000001"/>
<path id="Vector_27" d="M8.50238 15.5044H7.50488V16.5019H8.50238V15.5044Z" fill="#000001"/>
<path id="Vector_28" d="M8.50238 5.50317H7.50488V6.50067H8.50238V5.50317Z" fill="#000001"/>
<path id="Vector_29" d="M7.50455 16.502H6.50049V20.5051H7.50455V16.502Z" fill="#000001"/>
<path id="Vector_30" d="M7.50455 11.5012H6.50049V13.5028H7.50455V11.5012Z" fill="#000001"/>
<path id="Vector_31" d="M6.50043 14.5002H5.50293V16.5018H6.50043V14.5002Z" fill="#000001"/>
<path id="Vector_32" d="M6.50043 9.49976H5.50293V10.5038H6.50043V9.49976Z" fill="#000001"/>
<path id="Vector_33" d="M5.50336 20.5049H4.50586V21.5024H5.50336V20.5049Z" fill="#000001"/>
<path id="Vector_34" d="M4.50553 17.4993H3.50146V20.5049H4.50553V17.4993Z" fill="#000001"/>
<path id="Vector_35" d="M4.50553 15.5044H3.50146V16.5019H4.50553V15.5044Z" fill="#000001"/>
<path id="Vector_36" d="M5.50297 14.5003V13.5028H4.50547V11.5012H3.50141V13.5028H2.50391V14.5003H5.50297Z" fill="#000001"/>
<path id="Vector_37" d="M4.50547 7.50465V6.50059H5.50297V5.50309H4.50547V4.49902H3.50141V5.50309H2.50391V6.50059H3.50141V7.50465H4.50547Z" fill="#000001"/>
<path id="Vector_38" d="M3.50141 16.502H2.50391V17.4995H3.50141V16.502Z" fill="#000001"/>
<path id="Vector_39" d="M2.50406 14.5002H1.5V16.5018H2.50406V14.5002Z" fill="#000001"/>
<path id="Vector_40" d="M2.50406 11.5012H1.5V13.5028H2.50406V11.5012Z" fill="#000001"/>
</g>
</g>
</svg>
