<svg width="24" height="24" viewBox="0 0 24 24" fill="none" xmlns="http://www.w3.org/2000/svg">
<g id="beauty-perfume-1">
<g id="Group">
<path id="Vector" d="M6.99939 10.5038H8.00346V11.5012H9.00096V10.5038H10.005V11.5012H11.0025V10.5038H12V9.49969H14.0016V8.50219H13.0041V7.50469H12V5.50312H14.0016V6.50062H14.9991V7.50469H16.0031V6.50062H19.9997V7.50469H21.0038V6.50062H22.0013V3.50156H21.0038V2.50406H19.9997V3.50156H16.0031V2.50406H14.9991V3.50156H14.0016V4.49906H10.005V3.50156H11.0025V1.5H8.00346V2.50406H6.99939V3.50156H9.00096V4.49906H8.00346V5.50312H11.0025V6.50062H8.00346V5.50312H6.99939V7.50469H6.00189V8.50219H5.00439V9.49969H6.99939V10.5038ZM14.9991 4.49906H21.0038V5.50312H14.9991V4.49906Z" fill="#000001"/>
<path id="Vector_2" d="M19.9997 7.50464H16.0032V8.50214H19.9997V7.50464Z" fill="#000001"/>
<path id="Vector_3" d="M19.9997 1.5H16.0032V2.50406H19.9997V1.5Z" fill="#000001"/>
<path id="Vector_4" d="M17.0007 12.5054H16.0032V18.5035H17.0007V12.5054Z" fill="#000001"/>
<path id="Vector_5" d="M16.0031 18.5034H14.999V20.505H16.0031V18.5034Z" fill="#000001"/>
<path id="Vector_6" d="M16.0031 10.5037H14.999V12.5052H16.0031V10.5037Z" fill="#000001"/>
<path id="Vector_7" d="M14.9992 9.49976H14.0017V10.5038H14.9992V9.49976Z" fill="#000001"/>
<path id="Vector_8" d="M14.9991 20.5049H13.0042V21.5024H14.9991V20.5049Z" fill="#000001"/>
<path id="Vector_9" d="M13.0041 12.5054H12V18.5035H13.0041V12.5054Z" fill="#000001"/>
<path id="Vector_10" d="M11.0026 20.5049H10.0051V21.5024H9.00102V20.5049H8.00352V21.5024H6.00195V22.4999H13.0041V21.5024H11.0026V20.5049Z" fill="#000001"/>
<path id="Vector_11" d="M11.9999 18.5034H11.0024V20.505H11.9999V18.5034Z" fill="#000001"/>
<path id="Vector_12" d="M11.9999 11.5012H11.0024V12.5053H11.9999V11.5012Z" fill="#000001"/>
<path id="Vector_13" d="M8.00357 18.5034H6.99951V20.505H8.00357V18.5034Z" fill="#000001"/>
<path id="Vector_14" d="M8.00357 11.5012H6.99951V12.5053H8.00357V11.5012Z" fill="#000001"/>
<path id="Vector_15" d="M6.99945 12.5054H6.00195V18.5035H6.99945V12.5054Z" fill="#000001"/>
<path id="Vector_16" d="M6.00181 20.5049H4.00024V21.5024H6.00181V20.5049Z" fill="#000001"/>
<path id="Vector_17" d="M6.00189 2.50415H5.00439V3.50165H6.00189V2.50415Z" fill="#000001"/>
<path id="Vector_18" d="M5.00431 9.49976H4.00024V10.5038H5.00431V9.49976Z" fill="#000001"/>
<path id="Vector_19" d="M4.00043 18.5034H3.00293V20.505H4.00043V18.5034Z" fill="#000001"/>
<path id="Vector_20" d="M4.00043 10.5037H3.00293V12.5052H4.00043V10.5037Z" fill="#000001"/>
<path id="Vector_21" d="M4.00043 2.50415H3.00293V3.50165H4.00043V2.50415Z" fill="#000001"/>
<path id="Vector_22" d="M3.00284 12.5054H1.99878V18.5035H3.00284V12.5054Z" fill="#000001"/>
</g>
</g>
</svg>
