<svg width="24" height="24" viewBox="0 0 24 24" fill="none" xmlns="http://www.w3.org/2000/svg">
<g id="beauty-nail-polish">
<g id="Group">
<path id="Vector" d="M22.001 22.4999V21.5024H21.0035V18.5033H19.9994V10.5037H21.0035V3.50146H18.0044V10.5037H19.0019V18.5033H18.0044V21.5024H19.0019V22.4999H22.001ZM19.0019 4.49896H19.9994V9.49959H19.0019V4.49896Z" fill="#000001"/>
<path id="Vector_2" d="M16.0031 11.5012H14.999V17.4993H16.0031V11.5012Z" fill="#000001"/>
<path id="Vector_3" d="M14.999 17.4993H14.0015V19.5008H14.999V17.4993Z" fill="#000001"/>
<path id="Vector_4" d="M14.0014 19.501H13.0039V21.5025H14.0014V19.501Z" fill="#000001"/>
<path id="Vector_5" d="M14.9989 10.5037H13.0039V11.5012H14.9989V10.5037Z" fill="#000001"/>
<path id="Vector_6" d="M5.00406 17.4993H6.00156V19.5009H6.99906V20.505H11.0022V19.5009H11.9997V17.4993H13.0038V16.5018H14.0012V12.5053H11.9997V11.5012H6.00156V12.5053H4V16.5018H5.00406V17.4993ZM6.00156 13.5028H6.99906V12.5053H8.00312V17.4993H9.00063V18.5034H8.00312V17.4993H6.99906V16.5018H6.00156V13.5028Z" fill="#000001"/>
<path id="Vector_7" d="M13.0041 9.49976H12V10.5038H13.0041V9.49976Z" fill="#000001"/>
<path id="Vector_8" d="M13.0041 21.5024H5.00439V22.4999H13.0041V21.5024Z" fill="#000001"/>
<path id="Vector_9" d="M11.0024 2.50415H10.0049V3.50165H11.0024V2.50415Z" fill="#000001"/>
<path id="Vector_10" d="M10.005 1.5H8.00342V2.50406H10.005V1.5Z" fill="#000001"/>
<path id="Vector_11" d="M11.9996 9.49959V3.50146H11.0021V8.50209H6.99896V3.50146H6.00146V9.49959H11.9996Z" fill="#000001"/>
<path id="Vector_12" d="M8.00309 2.50415H6.99902V3.50165H8.00309V2.50415Z" fill="#000001"/>
<path id="Vector_13" d="M6.00189 9.49976H5.00439V10.5038H6.00189V9.49976Z" fill="#000001"/>
<path id="Vector_14" d="M5.00406 19.501H4V21.5025H5.00406V19.501Z" fill="#000001"/>
<path id="Vector_15" d="M5.004 10.5037H3.00244V11.5012H5.004V10.5037Z" fill="#000001"/>
<path id="Vector_16" d="M3.99994 17.4993H3.00244V19.5008H3.99994V17.4993Z" fill="#000001"/>
<path id="Vector_17" d="M3.0026 11.5012H1.99854V17.4993H3.0026V11.5012Z" fill="#000001"/>
</g>
</g>
</svg>
