<svg width="24" height="24" viewBox="0 0 24 24" fill="none" xmlns="http://www.w3.org/2000/svg">
<g id="beauty-beard-style">
<g id="Group">
<path id="Vector" d="M22.4999 2.50415H21.5024V6.50071H22.4999V2.50415Z" fill="#000001"/>
<path id="Vector_2" d="M21.5024 6.50073H20.5049V7.50479H21.5024V6.50073Z" fill="#000001"/>
<path id="Vector_3" d="M3.50146 10.5037V16.5018H4.50553V18.5033H5.50303V20.5049H6.50053V21.5024H8.50209V22.4999H15.5043V21.5024H17.5058V20.5049H18.5033V18.5033H19.5008V16.5018H20.5049V10.5037H19.5008V12.5052H18.5033V13.5027H17.5058V11.5012H16.5018V10.5037H7.50459V11.5012H6.50053V13.5027H5.50303V12.5052H4.50553V10.5037H3.50146ZM7.50459 14.5002H8.50209V12.5052H11.5012V11.5012H12.5052V12.5052H15.5043V13.5027H16.5018V16.5018H15.5043V17.4993H13.5027V16.5018H10.5037V17.4993H8.50209V16.5018H7.50459V14.5002Z" fill="#000001"/>
<path id="Vector_4" d="M20.505 7.50464H19.501V8.50214H20.505V7.50464Z" fill="#000001"/>
<path id="Vector_5" d="M19.5009 4.49902H18.5034V5.50309H19.5009V4.49902Z" fill="#000001"/>
<path id="Vector_6" d="M19.501 8.5022H15.5044V9.4997H19.501V8.5022Z" fill="#000001"/>
<path id="Vector_7" d="M18.5034 5.50317H17.5059V6.50067H18.5034V5.50317Z" fill="#000001"/>
<path id="Vector_8" d="M17.506 6.50073H16.502V7.50479H17.506V6.50073Z" fill="#000001"/>
<path id="Vector_9" d="M17.506 3.50146H16.502V4.49896H17.506V3.50146Z" fill="#000001"/>
<path id="Vector_10" d="M16.5019 4.49902H15.5044V5.50309H16.5019V4.49902Z" fill="#000001"/>
<path id="Vector_11" d="M15.5046 7.50464H14.5005V8.50214H15.5046V7.50464Z" fill="#000001"/>
<path id="Vector_12" d="M21.5026 1.5H13.5029V2.50406H21.5026V1.5Z" fill="#000001"/>
<path id="Vector_13" d="M14.5004 13.5029H13.5029V14.5004H14.5004V13.5029Z" fill="#000001"/>
<path id="Vector_14" d="M14.5004 6.50073H13.5029V7.50479H14.5004V6.50073Z" fill="#000001"/>
<path id="Vector_15" d="M13.5027 2.50415H12.5052V3.50165H11.5012V2.50415H10.5037V6.50071H11.5012V4.49915H12.5052V6.50071H13.5027V2.50415Z" fill="#000001"/>
<path id="Vector_16" d="M13.5028 14.5002H11.5012V15.5043H13.5028V14.5002Z" fill="#000001"/>
<path id="Vector_17" d="M13.5027 8.5022H10.5037V9.4997H13.5027V8.5022Z" fill="#000001"/>
<path id="Vector_18" d="M10.5038 6.50073H9.50635V7.50479H10.5038V6.50073Z" fill="#000001"/>
<path id="Vector_19" d="M9.50626 7.50464H8.5022V8.50214H9.50626V7.50464Z" fill="#000001"/>
<path id="Vector_20" d="M8.50214 4.49902H7.50464V5.50309H8.50214V4.49902Z" fill="#000001"/>
<path id="Vector_21" d="M8.50218 8.5022H4.50562V9.4997H8.50218V8.5022Z" fill="#000001"/>
<path id="Vector_22" d="M7.50479 5.50317H6.50073V6.50067H7.50479V5.50317Z" fill="#000001"/>
<path id="Vector_23" d="M6.50067 6.50073H5.50317V7.50479H6.50067V6.50073Z" fill="#000001"/>
<path id="Vector_24" d="M6.50067 3.50146H5.50317V4.49896H6.50067V3.50146Z" fill="#000001"/>
<path id="Vector_25" d="M5.50312 4.49902H4.50562V5.50309H5.50312V4.49902Z" fill="#000001"/>
<path id="Vector_26" d="M4.50553 7.50464H3.50146V8.50214H4.50553V7.50464Z" fill="#000001"/>
<path id="Vector_27" d="M10.5038 1.5H2.50415V2.50406H10.5038V1.5Z" fill="#000001"/>
<path id="Vector_28" d="M3.50165 6.50073H2.50415V7.50479H3.50165V6.50073Z" fill="#000001"/>
<path id="Vector_29" d="M2.50406 2.50415H1.5V6.50071H2.50406V2.50415Z" fill="#000001"/>
</g>
</g>
</svg>
