<svg width="24" height="24" viewBox="0 0 24 24" fill="none" xmlns="http://www.w3.org/2000/svg">
<g id="beauty-cosmatic-lip-stick">
<g id="Group">
<path id="Vector" d="M19.9966 17.4995H13.9985V16.502H13.001V22.5001H21.0007V16.502H19.9966V17.4995Z" fill="#000001"/>
<path id="Vector_2" d="M18.9991 4.49902H16.9976V5.50309H18.9991V4.49902Z" fill="#000001"/>
<path id="Vector_3" d="M18.0016 8.5022H16.9976V10.5038H18.0016V8.5022Z" fill="#000001"/>
<path id="Vector_4" d="M16.9975 5.50317H16V6.50067H16.9975V5.50317Z" fill="#000001"/>
<path id="Vector_5" d="M19.9962 16.5019V5.50317H18.9987V12.5054H14.9955V7.50474H13.998V16.5019H19.9962ZM14.9955 13.5029H18.9987V15.5044H14.9955V13.5029Z" fill="#000001"/>
<path id="Vector_6" d="M15.9997 6.50073H14.9956V7.50479H15.9997V6.50073Z" fill="#000001"/>
<path id="Vector_7" d="M3.99701 1.5V2.50406H2.99951V22.5H10.9992V2.50406H10.0017V1.5H3.99701ZM10.0017 17.4994H3.99701V16.5019H10.0017V17.4994ZM10.0017 15.5044H3.99701V13.5028H10.0017V15.5044ZM10.0017 7.50469H8.99764V4.49906H6.99607V3.50156H8.99764V4.49906H10.0017V7.50469Z" fill="#000001"/>
</g>
</g>
</svg>
