<svg width="24" height="24" viewBox="0 0 24 24" fill="none" xmlns="http://www.w3.org/2000/svg">
<g id="beauty-mirror-1">
<g id="Group">
<path id="Vector" d="M18.4999 11.5012V9.49965H19.4974V12.5053H20.5015V8.50215H19.4974V6.50059H18.4999V4.49902H17.5024V11.5012H18.4999Z" fill="#000001"/>
<path id="Vector_2" d="M19.4975 12.5054H18.5V13.5029H19.4975V12.5054Z" fill="#000001"/>
<path id="Vector_3" d="M18.4999 13.5029H17.5024V14.5004H18.4999V13.5029Z" fill="#000001"/>
<path id="Vector_4" d="M17.5026 14.5002H16.4985V15.5043H17.5026V14.5002Z" fill="#000001"/>
<path id="Vector_5" d="M17.5026 11.5012H16.4985V12.5053H17.5026V11.5012Z" fill="#000001"/>
<path id="Vector_6" d="M17.5026 3.50146H16.4985V4.49896H17.5026V3.50146Z" fill="#000001"/>
<path id="Vector_7" d="M16.4985 12.5054H15.501V13.5029H16.4985V12.5054Z" fill="#000001"/>
<path id="Vector_8" d="M16.4985 5.50317H15.501V10.5038H16.4985V5.50317Z" fill="#000001"/>
<path id="Vector_9" d="M16.4985 2.50415H15.501V3.50165H16.4985V2.50415Z" fill="#000001"/>
<path id="Vector_10" d="M16.4983 16.5019V15.5044H7.50113V16.5019H10.5002V18.5035H7.50113V19.501H6.49707V21.5025H7.50113V22.5H16.4983V21.5025H17.5024V19.501H16.4983V18.5035H13.4993V16.5019H16.4983ZM11.4977 16.5019H12.5018V19.501H11.4977V16.5019ZM15.5008 20.505V21.5025H8.49863V20.505H15.5008Z" fill="#000001"/>
<path id="Vector_11" d="M15.5006 10.5037H14.4966V11.5012H15.5006V10.5037Z" fill="#000001"/>
<path id="Vector_12" d="M15.5006 4.49902H14.4966V5.50309H15.5006V4.49902Z" fill="#000001"/>
<path id="Vector_13" d="M15.5007 13.5029H8.49854V14.5004H15.5007V13.5029Z" fill="#000001"/>
<path id="Vector_14" d="M14.497 11.5012H9.50293V12.5053H14.497V11.5012Z" fill="#000001"/>
<path id="Vector_15" d="M13.4995 6.50073H12.502V7.50479H13.4995V6.50073Z" fill="#000001"/>
<path id="Vector_16" d="M12.5016 7.50464H11.4976V8.50214H12.5016V7.50464Z" fill="#000001"/>
<path id="Vector_17" d="M11.4975 8.5022H10.5V9.4997H11.4975V8.5022Z" fill="#000001"/>
<path id="Vector_18" d="M11.4975 5.50317H10.5V6.50067H11.4975V5.50317Z" fill="#000001"/>
<path id="Vector_19" d="M14.497 3.50146H9.50293V4.49896H14.497V3.50146Z" fill="#000001"/>
<path id="Vector_20" d="M10.5004 6.50073H9.50293V7.50479H10.5004V6.50073Z" fill="#000001"/>
<path id="Vector_21" d="M15.5007 1.5H8.49854V2.50406H15.5007V1.5Z" fill="#000001"/>
<path id="Vector_22" d="M9.5026 10.5037H8.49854V11.5012H9.5026V10.5037Z" fill="#000001"/>
<path id="Vector_23" d="M9.5026 4.49902H8.49854V5.50309H9.5026V4.49902Z" fill="#000001"/>
<path id="Vector_24" d="M8.49848 12.5054H7.50098V13.5029H8.49848V12.5054Z" fill="#000001"/>
<path id="Vector_25" d="M8.49848 5.50317H7.50098V10.5038H8.49848V5.50317Z" fill="#000001"/>
<path id="Vector_26" d="M8.49848 2.50415H7.50098V3.50165H8.49848V2.50415Z" fill="#000001"/>
<path id="Vector_27" d="M7.50113 14.5002H6.49707V15.5043H7.50113V14.5002Z" fill="#000001"/>
<path id="Vector_28" d="M7.50113 11.5012H6.49707V12.5053H7.50113V11.5012Z" fill="#000001"/>
<path id="Vector_29" d="M7.50113 3.50146H6.49707V4.49896H7.50113V3.50146Z" fill="#000001"/>
<path id="Vector_30" d="M6.49701 13.5029H5.49951V14.5004H6.49701V13.5029Z" fill="#000001"/>
<path id="Vector_31" d="M5.49945 12.5054H4.50195V13.5029H5.49945V12.5054Z" fill="#000001"/>
<path id="Vector_32" d="M4.50211 9.49965H5.49961V11.5012H6.49711V4.49902H5.49961V6.50059H4.50211V8.50215H3.49805V12.5053H4.50211V9.49965Z" fill="#000001"/>
</g>
</g>
</svg>
