<svg width="24" height="24" viewBox="0 0 24 24" fill="none" xmlns="http://www.w3.org/2000/svg">
<g id="beauty-healthy-food-dish">
<g id="Group">
<path id="Vector" d="M22.4999 3.50146H21.5024V8.50209H22.4999V3.50146Z" fill="#000001"/>
<path id="Vector_2" d="M21.5024 8.5022H20.5049V9.4997H21.5024V8.5022Z" fill="#000001"/>
<path id="Vector_3" d="M21.5024 2.50415H20.5049V3.50165H21.5024V2.50415Z" fill="#000001"/>
<path id="Vector_4" d="M20.505 9.49976H19.501V21.5026H20.505V9.49976Z" fill="#000001"/>
<path id="Vector_5" d="M20.505 4.49902H19.501V6.50059H20.505V4.49902Z" fill="#000001"/>
<path id="Vector_6" d="M19.5009 21.5024H18.5034V22.4999H19.5009V21.5024Z" fill="#000001"/>
<path id="Vector_7" d="M19.5009 3.50146H18.5034V4.49896H19.5009V3.50146Z" fill="#000001"/>
<path id="Vector_8" d="M20.5049 1.5H17.5059V2.50406H20.5049V1.5Z" fill="#000001"/>
<path id="Vector_9" d="M18.5034 9.49976H17.5059V21.5026H18.5034V9.49976Z" fill="#000001"/>
<path id="Vector_10" d="M17.506 8.5022H16.502V9.4997H17.506V8.5022Z" fill="#000001"/>
<path id="Vector_11" d="M17.506 2.50415H16.502V3.50165H17.506V2.50415Z" fill="#000001"/>
<path id="Vector_12" d="M16.5019 3.50146H15.5044V8.50209H16.5019V3.50146Z" fill="#000001"/>
<path id="Vector_13" d="M16.5021 20.5049H14.5005V21.5024H16.5021V20.5049Z" fill="#000001"/>
<path id="Vector_14" d="M7.50488 16.5018H10.5039V19.5008H13.503V16.5018H16.5021V13.5027H13.503V10.5037H10.5039V13.5027H7.50488V16.5018Z" fill="#000001"/>
<path id="Vector_15" d="M14.5004 21.5024H9.50635V22.4999H14.5004V21.5024Z" fill="#000001"/>
<path id="Vector_16" d="M14.5004 7.50464H9.50635V8.50214H14.5004V7.50464Z" fill="#000001"/>
<path id="Vector_17" d="M9.50645 20.5049H7.50488V21.5024H9.50645V20.5049Z" fill="#000001"/>
<path id="Vector_18" d="M8.50238 1.5H7.50488V8.50219H8.50238V1.5Z" fill="#000001"/>
<path id="Vector_19" d="M7.50455 8.5022H6.50049V9.4997H7.50455V8.5022Z" fill="#000001"/>
<path id="Vector_20" d="M6.50043 9.49976H5.50293V21.5026H6.50043V9.49976Z" fill="#000001"/>
<path id="Vector_21" d="M6.50043 1.5H5.50293V7.50469H6.50043V1.5Z" fill="#000001"/>
<path id="Vector_22" d="M5.50336 21.5024H4.50586V22.4999H5.50336V21.5024Z" fill="#000001"/>
<path id="Vector_23" d="M4.50553 9.49976H3.50146V21.5026H4.50553V9.49976Z" fill="#000001"/>
<path id="Vector_24" d="M4.50553 1.5H3.50146V7.50469H4.50553V1.5Z" fill="#000001"/>
<path id="Vector_25" d="M3.50141 8.5022H2.50391V9.4997H3.50141V8.5022Z" fill="#000001"/>
<path id="Vector_26" d="M2.50406 1.5H1.5V8.50219H2.50406V1.5Z" fill="#000001"/>
</g>
</g>
</svg>
