<svg width="24" height="24" viewBox="0 0 24 24" fill="none" xmlns="http://www.w3.org/2000/svg">
<g id="building-real-eastate-house-1">
<g id="Group">
<path id="Vector" d="M21.5025 15.4978H12.5053V14.5003H11.5012V12.4987H10.5038V10.4971H9.49969V8.50215H8.50219V7.49809H17.4994V6.50059H6.50062V7.49809H5.50312V5.49652H6.50062V4.49902H1.5V5.49652H2.50406V14.5003H1.5V16.5018H2.50406V22.5H21.5025V16.5018H22.5V14.5003H21.5025V15.4978ZM3.50156 5.49652H4.49906V10.4971H3.50156V5.49652ZM10.5038 21.5025H9.49969V16.5018H8.50219V21.5025H5.50312V19.5009H6.50062V18.4968H5.50312V16.5018H4.49906V21.5025H3.50156V14.5003H4.49906V12.4987H5.50312V10.4971H6.50062V9.49965H7.50469V10.4971H8.50219V12.4987H9.49969V14.5003H10.5038V21.5025ZM20.505 21.5025H11.5012V16.5018H20.505V21.5025Z" fill="#000001"/>
<path id="Vector_2" d="M21.5024 12.4985H20.5049V14.5001H21.5024V12.4985Z" fill="#000001"/>
<path id="Vector_3" d="M21.5024 3.50146H20.5049V4.49896H21.5024V3.50146Z" fill="#000001"/>
<path id="Vector_4" d="M20.505 10.4971H19.501V12.4986H20.505V10.4971Z" fill="#000001"/>
<path id="Vector_5" d="M20.505 2.49756H19.501V3.50162H20.505V2.49756Z" fill="#000001"/>
<path id="Vector_6" d="M19.5009 8.50195H18.5034V10.497H19.5009V8.50195Z" fill="#000001"/>
<path id="Vector_7" d="M20.505 4.49902H18.5034V5.49652H20.505V4.49902Z" fill="#000001"/>
<path id="Vector_8" d="M19.5011 1.5H17.4995V2.4975H19.5011V1.5Z" fill="#000001"/>
<path id="Vector_9" d="M19.501 17.4995H16.502V20.4986H19.501V17.4995ZM18.5035 19.5011H17.4995V18.497H18.5035V19.5011Z" fill="#000001"/>
<path id="Vector_10" d="M18.5036 7.49805H17.4995V8.50211H18.5036V7.49805Z" fill="#000001"/>
<path id="Vector_11" d="M18.5036 3.50146H17.4995V4.49896H18.5036V3.50146Z" fill="#000001"/>
<path id="Vector_12" d="M14.5005 13.496V14.5001H18.5036V12.4985H17.4996V13.496H14.5005Z" fill="#000001"/>
<path id="Vector_13" d="M17.4995 11.5015H16.502V12.499H17.4995V11.5015Z" fill="#000001"/>
<path id="Vector_14" d="M17.4995 2.49756H16.502V3.50162H17.4995V2.49756Z" fill="#000001"/>
<path id="Vector_15" d="M15.5044 17.4995H12.5054V20.4986H15.5044V17.4995ZM14.5004 19.5011H13.5029V18.497H14.5004V19.5011Z" fill="#000001"/>
<path id="Vector_16" d="M14.5004 12.4985H13.5029V13.496H14.5004V12.4985Z" fill="#000001"/>
<path id="Vector_17" d="M13.5029 11.5011H16.5019V10.4971H12.5054V12.4986H13.5029V11.5011Z" fill="#000001"/>
<path id="Vector_18" d="M14.5004 2.49756H13.5029V4.49912H14.5004V2.49756Z" fill="#000001"/>
<path id="Vector_19" d="M13.503 1.5H11.5015V2.4975H13.503V1.5Z" fill="#000001"/>
<path id="Vector_20" d="M13.5026 4.49902H8.50195V5.49652H13.5026V4.49902Z" fill="#000001"/>
<path id="Vector_21" d="M11.5014 2.49756H10.5039V3.50162H11.5014V2.49756Z" fill="#000001"/>
<path id="Vector_22" d="M10.5035 1.5H8.50195V2.4975H10.5035V1.5Z" fill="#000001"/>
<path id="Vector_23" d="M8.50199 15.498H5.50293V16.5021H8.50199V15.498Z" fill="#000001"/>
<path id="Vector_24" d="M8.50238 2.49756H7.50488V4.49912H8.50238V2.49756Z" fill="#000001"/>
<path id="Vector_25" d="M6.50043 1.5H5.50293V2.4975H6.50043V1.5Z" fill="#000001"/>
<path id="Vector_26" d="M4.49896 2.49756H3.50146V3.50162H4.49896V2.49756Z" fill="#000001"/>
</g>
</g>
</svg>
