<svg width="24" height="24" viewBox="0 0 24 24" fill="none" xmlns="http://www.w3.org/2000/svg">
<g id="building-real-eastate-sign-house-2">
<g id="Group">
<path id="Vector" d="M21.5026 15.9965H20.5051V14.999H12.5054V19.9996H14.5004V22.0012H15.5044V19.9996H17.506V22.0012H18.5035V19.9996H20.5051V19.0021H21.5026V17.9981H22.5001V17.0006H21.5026V15.9965ZM13.5029 17.0006V15.9965H14.5004V17.0006H13.5029ZM18.5035 19.0021H14.5004V17.9981H18.5035V19.0021ZM19.501 17.0006H18.5035V15.9965H19.501V17.0006Z" fill="#000001"/>
<path id="Vector_2" d="M13.5029 20.9971H12.5054V22.0011H13.5029V20.9971Z" fill="#000001"/>
<path id="Vector_3" d="M12.5055 19.9995H11.5015V20.997H12.5055V19.9995Z" fill="#000001"/>
<path id="Vector_4" d="M11.5014 19.002H10.5039V19.9995H11.5014V19.002Z" fill="#000001"/>
<path id="Vector_5" d="M11.5011 15.9966H9.49951V17.0006H11.5011V15.9966Z" fill="#000001"/>
<path id="Vector_6" d="M11.5014 12H10.5039V14.9991H11.5014V12Z" fill="#000001"/>
<path id="Vector_7" d="M10.5036 17.998H9.49951V19.0021H10.5036V17.998Z" fill="#000001"/>
<path id="Vector_8" d="M9.49988 17.0005H7.50488V17.998H9.49988V17.0005Z" fill="#000001"/>
<path id="Vector_9" d="M10.5039 11.0024H7.50488V11.9999H10.5039V11.0024Z" fill="#000001"/>
<path id="Vector_10" d="M7.50488 9.99809H10.5039V6.99902H7.50488V9.99809ZM8.50238 7.99652H9.49988V9.00059H8.50238V7.99652Z" fill="#000001"/>
<path id="Vector_11" d="M8.50242 14.9991V14.0016H7.50492V12H6.50086V15.9966H4.50586V17.0006H7.50492V14.9991H8.50242Z" fill="#000001"/>
<path id="Vector_12" d="M3.50156 14.9988V14.0013H5.50312V11.0023H3.50156V9.00072H4.50562V7.99666H5.50312V6.99916H6.50062V6.00166H7.50469V4.9976H10.5038V6.00166H11.5012V6.99916H12.5053V7.99666H13.5028V9.00072H14.5003V11.0023H12.5053V14.0013H15.5044V11.0023H16.5019V9.00072H15.5044V7.99666H14.5003V6.99916H13.5028V6.00166H12.5053V4.9976H11.5012V4.0001H10.5038V2.99604H9.49969V1.99854H8.50219V2.99604H7.50469V4.0001H6.50062V4.9976H5.50312V6.00166H4.50562V6.99916H3.50156V7.99666H2.50406V9.00072H1.5V11.0023H2.50406V14.9988H1.5V15.9963H4.50562V14.9988H3.50156ZM14.5003 12.9973H13.5028V11.9998H14.5003V12.9973ZM3.50156 11.9998H4.50562V12.9973H3.50156V11.9998Z" fill="#000001"/>
</g>
</g>
</svg>
