<svg width="24" height="24" viewBox="0 0 24 24" fill="none" xmlns="http://www.w3.org/2000/svg">
<g id="building-real-eastate-storage">
<g id="Group">
<path id="Vector" d="M21.0037 7.50455H5.00431V6.50049H4.00024V16.5017H5.00431V8.50205H21.0037V17.5058H19.0021V10.5036H18.0046V14.5002H17.0006V11.5011H11.9999V14.5002H10.0049V16.5017H11.0024V15.5042H11.9999V16.5017H13.004V15.5042H14.0015V17.5058H11.0024V18.5033H22.0012V6.50049H21.0037V7.50455ZM13.004 14.5002V12.5052H14.0015V13.5027H14.999V12.5052H16.0031V14.5002H13.004ZM18.0046 17.5058H14.999V15.5042H16.0031V16.5017H17.0006V15.5042H18.0046V17.5058Z" fill="#000001"/>
<path id="Vector_2" d="M21.0038 5.50293H19.9998V6.50043H21.0038V5.50293Z" fill="#000001"/>
<path id="Vector_3" d="M19.9997 4.50586H19.0022V5.50336H19.9997V4.50586Z" fill="#000001"/>
<path id="Vector_4" d="M19.0021 3.50146H18.0046V4.50553H19.0021V3.50146Z" fill="#000001"/>
<path id="Vector_5" d="M18.0047 9.50635H8.00342V10.5038H18.0047V9.50635Z" fill="#000001"/>
<path id="Vector_6" d="M18.0047 2.50391H16.0032V3.50141H18.0047V2.50391Z" fill="#000001"/>
<path id="Vector_7" d="M14.999 3.50146H11.0024V4.50553H14.999V3.50146Z" fill="#000001"/>
<path id="Vector_8" d="M16.0033 1.5H10.0051V2.50406H16.0033V1.5Z" fill="#000001"/>
<path id="Vector_9" d="M17.0007 5.50293H9.00098V6.50043H17.0007V5.50293Z" fill="#000001"/>
<path id="Vector_10" d="M10.005 2.50391H8.00342V3.50141H10.005V2.50391Z" fill="#000001"/>
<path id="Vector_11" d="M1.99878 17.5059V22.4999H10.005V17.5059H1.99878ZM6.0019 21.5024H3.00284V18.5034H4.00034V19.5009H5.0044V18.5034H6.0019V21.5024Z" fill="#000001"/>
<path id="Vector_12" d="M8.00357 10.5039H6.99951V16.502H8.00357V10.5039Z" fill="#000001"/>
<path id="Vector_13" d="M8.00357 3.50146H6.99951V4.50553H8.00357V3.50146Z" fill="#000001"/>
<path id="Vector_14" d="M6.99945 4.50586H6.00195V5.50336H6.99945V4.50586Z" fill="#000001"/>
<path id="Vector_15" d="M6.00189 5.50293H5.00439V6.50043H6.00189V5.50293Z" fill="#000001"/>
</g>
</g>
</svg>
