<svg width="24" height="24" viewBox="0 0 24 24" fill="none" xmlns="http://www.w3.org/2000/svg">
<g id="building-real-eastate-project-blueprint">
<g id="Group">
<path id="Vector" d="M7.49803 4.49902V5.50309H21.5024V20.4984H3.50146V21.5025H22.4999V4.49902H7.49803Z" fill="#000001"/>
<path id="Vector_2" d="M15.498 10.5039H14.5005V11.5014H15.498V10.5039Z" fill="#000001"/>
<path id="Vector_3" d="M14.5004 15.498H13.5029V16.5021H14.5004V15.498Z" fill="#000001"/>
<path id="Vector_4" d="M13.5026 16.502H12.4985V17.4995H13.5026V16.502Z" fill="#000001"/>
<path id="Vector_5" d="M9.49949 17.4993H5.50293V18.5034H12.4986V17.4993H10.5036V12.4987H11.5011V11.5012H13.5026V10.5037H11.5011V8.50211H18.5032V10.5037H16.5017V11.5012H18.5032V17.4993H16.5017V14.5002H14.5001V15.4977H15.4976V18.5034H19.5007V7.49805H9.49949V8.50211H10.5036V11.5012H7.49793V12.4987H9.49949V17.4993Z" fill="#000001"/>
<path id="Vector_6" d="M8.50211 7.49805H7.49805V8.50211H8.50211V7.49805Z" fill="#000001"/>
<path id="Vector_7" d="M3.50162 19.501H2.49756V20.4985H3.50162V19.501Z" fill="#000001"/>
<path id="Vector_8" d="M3.50156 17.4994V16.5019H6.50062V3.50162H5.50312V2.49756H3.50156V3.50162H2.4975V4.49912H1.5V19.501H2.4975V17.4994H3.50156Z" fill="#000001"/>
</g>
</g>
</svg>
