<svg width="24" height="24" viewBox="0 0 24 24" fill="none" xmlns="http://www.w3.org/2000/svg">
<g id="building-real-eastate-for-sale">
<g id="Group">
<path id="Vector" d="M22.4999 3.50146H21.5024V16.5018H22.4999V3.50146Z" fill="#000001"/>
<path id="Vector_2" d="M21.5026 16.502H20.4985V17.506H21.5026V16.502Z" fill="#000001"/>
<path id="Vector_3" d="M21.5026 2.50391H20.4985V3.50141H21.5026V2.50391Z" fill="#000001"/>
<path id="Vector_4" d="M3.50146 17.5059V18.5034H5.50303V20.5049H4.49896V21.5024H3.50146V22.4999H10.5037V21.5024H9.49959V20.5049H8.50209V18.5034H15.4977V20.5049H14.5002V21.5024H13.5027V22.4999H20.4983V21.5024H19.5008V20.5049H18.5033V18.5034H20.4983V17.5059H3.50146ZM7.49803 20.5049H6.50053V18.5034H7.49803V20.5049ZM17.4993 20.5049H16.5018V18.5034H17.4993V20.5049Z" fill="#000001"/>
<path id="Vector_5" d="M16.502 10.5039V15.5045H19.501V14.5005H17.4995V13.503H18.5035V12.5055H17.4995V11.5014H19.501V10.5039H16.502Z" fill="#000001"/>
<path id="Vector_6" d="M17.4995 7.50488H16.502V9.50645H17.4995V7.50488Z" fill="#000001"/>
<path id="Vector_7" d="M17.4995 5.50293H16.502V6.50043H17.4995V5.50293Z" fill="#000001"/>
<path id="Vector_8" d="M16.5021 6.50086H15.498V5.50336H16.5021V4.50586H14.5005V9.50648H15.498V7.50492H16.5021V6.50086Z" fill="#000001"/>
<path id="Vector_9" d="M13.5028 10.5039H12.4988V15.5045H15.4978V14.5005H13.5028V10.5039Z" fill="#000001"/>
<path id="Vector_10" d="M13.5027 4.50586H10.5037V9.50648H13.5027V4.50586ZM12.4987 8.50242H11.5012V5.50336H12.4987V8.50242Z" fill="#000001"/>
<path id="Vector_11" d="M8.5022 10.5039V15.5045H9.4997V13.503H10.5038V15.5045H11.5013V10.5039H8.5022ZM10.5038 12.5055H9.4997V11.5014H10.5038V12.5055Z" fill="#000001"/>
<path id="Vector_12" d="M9.49979 6.50086H7.49823V5.50336H9.49979V4.50586H6.50073V9.50648H7.49823V7.50492H9.49979V6.50086Z" fill="#000001"/>
<path id="Vector_13" d="M4.49902 10.5039V13.503H6.50059V14.5005H4.49902V15.5045H7.49809V12.5055H5.50309V11.5014H7.49809V10.5039H4.49902Z" fill="#000001"/>
<path id="Vector_14" d="M20.4983 1.5H3.50146V2.50406H20.4983V1.5Z" fill="#000001"/>
<path id="Vector_15" d="M3.50162 16.502H2.49756V17.506H3.50162V16.502Z" fill="#000001"/>
<path id="Vector_16" d="M3.50162 2.50391H2.49756V3.50141H3.50162V2.50391Z" fill="#000001"/>
<path id="Vector_17" d="M2.4975 3.50146H1.5V16.5018H2.4975V3.50146Z" fill="#000001"/>
</g>
</g>
</svg>
