<svg width="24" height="24" viewBox="0 0 24 24" fill="none" xmlns="http://www.w3.org/2000/svg">
<g id="building-real-eastate-location">
<g id="Group">
<path id="Vector" d="M22.5 7.49805H19.501V8.49555H22.5V7.49805Z" fill="#000001"/>
<path id="Vector_2" d="M22.5 21.4961H1.5V22.5002H22.5V21.4961Z" fill="#000001"/>
<path id="Vector_3" d="M20.505 17.4995H19.501V19.5011H22.5V18.497H20.505V17.4995Z" fill="#000001"/>
<path id="Vector_4" d="M22.5 10.4971H19.501V11.5011H22.5V10.4971Z" fill="#000001"/>
<path id="Vector_5" d="M19.5009 15.498H18.5034V17.4996H19.5009V15.498Z" fill="#000001"/>
<path id="Vector_6" d="M17.5057 18.497H16.5017V17.4995H15.5042V18.497H14.5001V17.4995H13.5026V18.497H10.5036V17.4995H9.49949V18.497H8.50199V17.4995H7.50449V18.497H6.50043V17.4995H5.50293V19.5011H18.5032V17.4995H17.5057V18.497Z" fill="#000001"/>
<path id="Vector_7" d="M18.5034 14.5005H17.5059V15.498H18.5034V14.5005Z" fill="#000001"/>
<path id="Vector_8" d="M18.5034 2.49756H17.5059V12.4988H18.5034V2.49756Z" fill="#000001"/>
<path id="Vector_9" d="M16.5019 17.4996H17.506V15.498H16.5019V14.5005H15.5044V16.4955H16.5019V17.4996Z" fill="#000001"/>
<path id="Vector_10" d="M13.5029 12.4985V14.5001H14.5004V13.496H17.5061V12.4985H13.5029Z" fill="#000001"/>
<path id="Vector_11" d="M15.5046 16.4951H14.5005V17.4992H15.5046V16.4951Z" fill="#000001"/>
<path id="Vector_12" d="M13.5029 14.5005H12.5054V16.4955H13.5029V14.5005Z" fill="#000001"/>
<path id="Vector_13" d="M12.5055 16.4951H11.5015V17.4992H12.5055V16.4951Z" fill="#000001"/>
<path id="Vector_14" d="M11.5014 14.5005H10.5039V16.4955H11.5014V14.5005Z" fill="#000001"/>
<path id="Vector_15" d="M6.50049 12.4985V13.496H9.49955V14.5001H10.5036V12.4985H6.50049Z" fill="#000001"/>
<path id="Vector_16" d="M9.49945 16.4951H8.50195V17.4992H9.49945V16.4951Z" fill="#000001"/>
<path id="Vector_17" d="M8.50238 7.49824H7.50488V8.49574H8.50238V11.5014H11.5014V9.4998H12.5055V11.5014H15.5046V8.49574H16.5021V7.49824H15.5046V6.50074H14.5005V5.49668H13.503V4.49918H12.5055V3.49512H11.5014V4.49918H10.5039V5.49668H9.49988V6.50074H8.50238V7.49824Z" fill="#000001"/>
<path id="Vector_18" d="M17.5058 1.5H6.50049V2.4975H17.5058V1.5Z" fill="#000001"/>
<path id="Vector_19" d="M7.50455 17.4996V16.4955H8.50205V14.5005H7.50455V15.498H6.50049V17.4996H7.50455Z" fill="#000001"/>
<path id="Vector_20" d="M6.50043 14.5005H5.50293V15.498H6.50043V14.5005Z" fill="#000001"/>
<path id="Vector_21" d="M6.50043 2.49756H5.50293V12.4988H6.50043V2.49756Z" fill="#000001"/>
<path id="Vector_22" d="M5.50336 15.498H4.50586V17.4996H5.50336V15.498Z" fill="#000001"/>
<path id="Vector_23" d="M3.50156 18.497H1.5V19.5011H4.50562V17.4995H3.50156V18.497Z" fill="#000001"/>
<path id="Vector_24" d="M4.50563 10.4971H1.5V11.5011H4.50563V10.4971Z" fill="#000001"/>
<path id="Vector_25" d="M4.50563 7.49805H1.5V8.49555H4.50563V7.49805Z" fill="#000001"/>
</g>
</g>
</svg>
