<svg width="24" height="24" viewBox="0 0 24 24" fill="none" xmlns="http://www.w3.org/2000/svg">
<g id="building-real-eastate-sign-house-1">
<g id="Group">
<path id="Vector" d="M22.4999 8.49561H21.5024V20.4984H22.4999V8.49561Z" fill="#000001"/>
<path id="Vector_2" d="M21.5024 20.4985H20.5049V21.496H21.5024V20.4985Z" fill="#000001"/>
<path id="Vector_3" d="M21.5024 7.49805H20.5049V8.49555H21.5024V7.49805Z" fill="#000001"/>
<path id="Vector_4" d="M20.5052 21.4961H7.50488V22.5002H20.5052V21.4961Z" fill="#000001"/>
<path id="Vector_5" d="M22.4999 4.49912V3.49506H19.5008V2.49756H18.5033V3.49506H10.5037V2.49756H9.49959V3.49506H4.50553V2.49756H3.50146V22.5001H4.50553V4.49912H9.49959V6.50068H7.50459V7.49818H20.5049V6.50068H19.5008V4.49912H22.4999ZM18.5033 6.50068H10.5037V4.49912H18.5033V6.50068Z" fill="#000001"/>
<path id="Vector_6" d="M9.49945 19.5009H13.5026V16.4953H14.5001V19.5009H18.5032V15.4978H19.5007V13.4962H18.5032V12.4987H17.5057V11.5012H16.5016V10.4972H15.5041V9.49967H14.5001V8.49561H13.5026V9.49967H12.5051V10.4972H11.501V11.5012H10.5035V12.4987H9.49945V13.4962H8.50195V15.4978H9.49945V19.5009ZM10.5035 14.5003H11.501V13.4962H12.5051V12.4987H13.5026V11.5012H14.5001V12.4987H15.5041V13.4962H16.5016V14.5003H17.5057V18.4969H15.5041V15.4978H12.5051V18.4969H10.5035V14.5003Z" fill="#000001"/>
<path id="Vector_7" d="M7.50455 20.4985H6.50049V21.496H7.50455V20.4985Z" fill="#000001"/>
<path id="Vector_8" d="M7.50455 7.49805H6.50049V8.49555H7.50455V7.49805Z" fill="#000001"/>
<path id="Vector_9" d="M6.50043 8.49561H5.50293V20.4984H6.50043V8.49561Z" fill="#000001"/>
<path id="Vector_10" d="M3.50141 1.5H2.50391V2.4975H3.50141V1.5Z" fill="#000001"/>
<path id="Vector_11" d="M2.50406 2.49756H1.5V22.5001H2.50406V2.49756Z" fill="#000001"/>
</g>
</g>
</svg>
