<svg width="24" height="24" viewBox="0 0 24 24" fill="none" xmlns="http://www.w3.org/2000/svg">
<g id="building-real-eastate-house-2">
<g id="Group">
<path id="Vector" d="M22.4999 6H21.5024V8.00156H22.4999V6Z" fill="#000001"/>
<path id="Vector_2" d="M21.5024 5.00244H20.5049V5.99994H21.5024V5.00244Z" fill="#000001"/>
<path id="Vector_3" d="M21.5025 8.00146H18.5034V8.99897H21.5025V8.00146Z" fill="#000001"/>
<path id="Vector_4" d="M8.50209 7.99838H7.50459V8.99588H6.50053V9.99994H5.50303V10.9974H4.50553V12.0015H3.50146V13.9965H4.50553V21.9962H19.5008V13.9998H20.5049V12.0048H19.5008V11.0007H18.5033V10.0032H17.5058V8.99916H16.5018V7.99838H15.5043V7.00416H14.5002V6.0001H13.5027V5.0026H12.5052V3.99854H11.5012V5.0026H10.5037V6.0001H9.49959V7.00416H8.50209V7.99838ZM11.5012 18.9971H10.5037V16.9956H11.5012V18.9971ZM9.49959 8.99588H10.5037V7.99838H11.5012V7.00416H12.5052V7.99838H13.5027V8.99588H14.5002V9.99994H15.5043V10.9974H16.5018V12.0015H17.5058V12.999H18.5033V16.9956H16.5018V17.9996H18.5033V20.9987H14.5002V15.0006H13.5027V13.9965H10.5037V15.0006H9.49959V20.9987H5.50303V20.0078H7.50459V19.0037H5.50303V16.0046H7.50459V15.0071H5.50303V13.0056H6.50053V12.0081H7.50459V11.004H8.50209V10.0065H9.49959V8.99588Z" fill="#000001"/>
<path id="Vector_5" d="M20.5049 3.99854H17.5059V5.0026H20.5049V3.99854Z" fill="#000001"/>
<path id="Vector_6" d="M18.5034 7.00391H17.5059V8.00141H18.5034V7.00391Z" fill="#000001"/>
<path id="Vector_7" d="M17.506 15.0039H16.502V16.0014H17.506V15.0039Z" fill="#000001"/>
<path id="Vector_8" d="M17.506 5.00244H16.502V7.004H17.506V5.00244Z" fill="#000001"/>
<path id="Vector_9" d="M17.506 19.0005H15.5044V20.0045H17.506V19.0005Z" fill="#000001"/>
<path id="Vector_10" d="M16.5021 12.0049H14.5005V13.0024H16.5021V12.0049Z" fill="#000001"/>
<path id="Vector_11" d="M13.503 8.99902H11.5015V10.0031H13.503V8.99902Z" fill="#000001"/>
<path id="Vector_12" d="M12.5055 11.0005H10.5039V12.0045H12.5055V11.0005Z" fill="#000001"/>
<path id="Vector_13" d="M9.49988 12.0049H7.50488V13.0024H9.49988V12.0049Z" fill="#000001"/>
<path id="Vector_14" d="M8.50238 3.99854H7.50488V6.0001H8.50238V3.99854Z" fill="#000001"/>
<path id="Vector_15" d="M8.50205 16.9985H6.50049V18.0026H8.50205V16.9985Z" fill="#000001"/>
<path id="Vector_16" d="M7.50455 3.00098H6.50049V3.99848H7.50455V3.00098Z" fill="#000001"/>
<path id="Vector_17" d="M6.50053 2.00342H3.50146V3.00092H6.50053V2.00342Z" fill="#000001"/>
<path id="Vector_18" d="M7.50453 6H2.50391V7.00406H7.50453V6Z" fill="#000001"/>
<path id="Vector_19" d="M3.50141 3.00098H2.50391V3.99848H3.50141V3.00098Z" fill="#000001"/>
<path id="Vector_20" d="M2.50406 3.99854H1.5V6.0001H2.50406V3.99854Z" fill="#000001"/>
</g>
</g>
</svg>
