<svg width="24" height="24" viewBox="0 0 24 24" fill="none" xmlns="http://www.w3.org/2000/svg">
<g id="building-real-eastate-sign-for-rent">
<g id="Group">
<path id="Vector" d="M22.4999 3.49512H21.5024V16.4954H22.4999V3.49512Z" fill="#000001"/>
<path id="Vector_2" d="M21.5024 16.4951H20.5049V17.4992H21.5024V16.4951Z" fill="#000001"/>
<path id="Vector_3" d="M21.5024 2.49756H20.5049V3.49506H21.5024V2.49756Z" fill="#000001"/>
<path id="Vector_4" d="M3.50146 17.4995V18.497H5.50303V20.4986H4.50553V21.4961H3.50146V22.5001H10.5037V21.4961H9.49959V20.4986H8.50209V18.497H15.5043V20.4986H14.5002V21.4961H13.5027V22.5001H20.5049V21.4961H19.5008V20.4986H18.5033V18.497H20.5049V17.4995H3.50146ZM7.50459 20.4986H6.50053V18.497H7.50459V20.4986ZM17.5058 20.4986H16.5018V18.497H17.5058V20.4986Z" fill="#000001"/>
<path id="Vector_5" d="M19.501 5.49652H18.5035V4.49902H17.506V5.49652H16.5019V6.50059H15.5044V9.49965H17.506V7.49809H18.5035V9.49965H20.505V6.50059H19.501V5.49652Z" fill="#000001"/>
<path id="Vector_6" d="M16.502 10.4971V11.5011H17.506V15.4977H18.5035V11.5011H19.501V10.4971H16.502Z" fill="#000001"/>
<path id="Vector_7" d="M14.5004 12.4986H13.5029V13.4961H14.5004V15.4977H15.5045V10.4971H14.5004V12.4986Z" fill="#000001"/>
<path id="Vector_8" d="M14.5004 7.49805H13.5029V9.49961H14.5004V7.49805Z" fill="#000001"/>
<path id="Vector_9" d="M14.5004 5.49658H13.5029V6.50064H14.5004V5.49658Z" fill="#000001"/>
<path id="Vector_10" d="M12.5055 11.5011V10.4971H11.5015V15.4977H12.5055V12.4986H13.503V11.5011H12.5055Z" fill="#000001"/>
<path id="Vector_11" d="M12.5055 7.49809H13.503V6.50059H12.5055V5.49652H13.503V4.49902H11.5015V9.49965H12.5055V7.49809Z" fill="#000001"/>
<path id="Vector_12" d="M7.50488 10.4971V15.4977H10.5039V14.5002H8.50238V13.4961H9.49988V12.4986H8.50238V11.5011H10.5039V10.4971H7.50488Z" fill="#000001"/>
<path id="Vector_13" d="M7.50488 4.49902V9.49965H10.5039V4.49902H7.50488ZM9.49988 8.49559H8.50238V5.49652H9.49988V8.49559Z" fill="#000001"/>
<path id="Vector_14" d="M6.50043 13.4961H5.50293V15.4977H6.50043V13.4961Z" fill="#000001"/>
<path id="Vector_15" d="M6.50043 11.5015H5.50293V12.499H6.50043V11.5015Z" fill="#000001"/>
<path id="Vector_16" d="M3.50146 4.49902V9.49965H4.50553V7.49809H6.50053V6.50059H4.50553V5.49652H6.50053V4.49902H3.50146Z" fill="#000001"/>
<path id="Vector_17" d="M20.5049 1.5H3.50146V2.4975H20.5049V1.5Z" fill="#000001"/>
<path id="Vector_18" d="M4.50553 11.5011H5.50303V10.4971H3.50146V15.4977H4.50553V13.4961H5.50303V12.4986H4.50553V11.5011Z" fill="#000001"/>
<path id="Vector_19" d="M3.50141 16.4951H2.50391V17.4992H3.50141V16.4951Z" fill="#000001"/>
<path id="Vector_20" d="M3.50141 2.49756H2.50391V3.49506H3.50141V2.49756Z" fill="#000001"/>
<path id="Vector_21" d="M2.50406 3.49512H1.5V16.4954H2.50406V3.49512Z" fill="#000001"/>
</g>
</g>
</svg>
