<svg width="24" height="24" viewBox="0 0 24 24" fill="none" xmlns="http://www.w3.org/2000/svg">
<g id="building-real-eastate-deal-documant">
<g id="Group">
<path id="Vector" d="M21.998 13.4961H21.0005V15.4977H21.998V13.4961Z" fill="#000001"/>
<path id="Vector_2" d="M3.99707 10.4971V22.4999H21.0005V18.4968H19.9964V21.4958H5.00113V10.4971H3.99707Z" fill="#000001"/>
<path id="Vector_3" d="M21.0004 15.498H19.9963V16.5021H21.0004V15.498Z" fill="#000001"/>
<path id="Vector_4" d="M21.0003 12.4985H18.9988V13.496H21.0003V12.4985Z" fill="#000001"/>
<path id="Vector_5" d="M19.9963 16.502H18.9988V17.4995H19.9963V16.502Z" fill="#000001"/>
<path id="Vector_6" d="M19.9963 14.5005H18.9988V15.498H19.9963V14.5005Z" fill="#000001"/>
<path id="Vector_7" d="M18.9987 17.4995H18.0012V18.497H18.9987V17.4995Z" fill="#000001"/>
<path id="Vector_8" d="M18.9987 13.4961H18.0012V14.5002H18.9987V13.4961Z" fill="#000001"/>
<path id="Vector_9" d="M18.0014 18.4971H16.9973V19.5011H18.0014V18.4971Z" fill="#000001"/>
<path id="Vector_10" d="M18.0014 14.5005H16.9973V15.498H18.0014V14.5005Z" fill="#000001"/>
<path id="Vector_11" d="M16.9973 17.4995H15.9998V18.497H16.9973V17.4995Z" fill="#000001"/>
<path id="Vector_12" d="M16.9973 15.498H15.9998V16.5021H16.9973V15.498Z" fill="#000001"/>
<path id="Vector_13" d="M14.9958 17.4995H13.9983V20.4986H16.9974V19.5011H14.9958V17.4995Z" fill="#000001"/>
<path id="Vector_14" d="M15.9997 16.502H14.9956V17.4995H15.9997V16.502Z" fill="#000001"/>
<path id="Vector_15" d="M16.9973 9.49951H10.0017V10.497H16.9973V9.49951Z" fill="#000001"/>
<path id="Vector_16" d="M14.9958 13.4961H6.99609V14.5002H14.9958V13.4961Z" fill="#000001"/>
<path id="Vector_17" d="M11.9967 17.4995H6.99609V18.497H11.9967V17.4995Z" fill="#000001"/>
<path id="Vector_18" d="M3.99707 1.5V2.4975H14.9958V7.49813H19.9964V11.5012H21.0005V6.50062H19.9964V5.49656H18.9989V4.49906H18.0014V3.50156H16.9974V2.4975H15.9999V1.5H3.99707Z" fill="#000001"/>
<path id="Vector_19" d="M3.99695 5.49646H2.99945V6.50053H2.00195V7.49803H2.99945V9.49959H5.00102V7.49803H5.99852V9.49959H8.00008V7.49803H8.99758V6.50053H8.00008V5.49646H6.99602V4.49896H5.99852V3.50146H5.00102V4.49896H3.99695V5.49646Z" fill="#000001"/>
</g>
</g>
</svg>
