<svg width="24" height="24" viewBox="0 0 24 24" fill="none" xmlns="http://www.w3.org/2000/svg">
<g id="building-real-eastate-houses-location">
<g id="Group">
<path id="Vector" d="M21.5025 13.5029H20.4984V12.5054H19.5009V11.5013H18.5034V10.5038H17.4994V9.50635H16.5019V10.5038H15.4978V11.5013H14.5003V12.5054H12.4988V11.5013H11.5012V12.5054H9.49969V11.5013H8.50219V10.5038H7.49813V9.50635H6.50062V10.5038H5.50312V11.5013H4.49906V12.5054H3.50156V13.5029H2.4975V14.5004H1.5V16.502H2.4975V20.5051H5.50312V16.502H4.49906V19.501H3.50156V14.5004H4.49906V13.5029H5.50312V12.5054H6.50062V11.5013H7.49813V12.5054H8.50219V13.5029H9.49969V14.5004H8.50219V15.5045H5.50312V16.502H6.50062V18.5035H7.49813V22.5001H10.5038V18.5035H9.49969V21.5026H8.50219V16.502H9.49969V15.5045H10.5038V14.5004H11.5012V13.5029H12.4988V14.5004H13.5028V15.5045H14.5003V16.502H15.4978V21.5026H14.5003V18.5035H13.5028V22.5001H16.5019V18.5035H17.4994V16.502H18.5034V15.5045H15.4978V14.5004H14.5003V13.5029H15.4978V12.5054H16.5019V11.5013H17.4994V12.5054H18.5034V13.5029H19.5009V14.5004H20.4984V19.501H19.5009V16.502H18.5034V20.5051H21.5025V16.502H22.5V14.5004H21.5025V13.5029Z" fill="#000001"/>
<path id="Vector_2" d="M13.503 17.5059H10.5039V18.5034H13.503V17.5059Z" fill="#000001"/>
<path id="Vector_3" d="M10.5035 1.5V2.50406H9.49945V3.50156H8.50195V6.50062H9.49945V8.50219H10.5035V9.50625H11.501V10.5038H12.4985V9.50625H13.5026V8.50219H14.5001V6.50062H15.4976V3.50156H14.5001V2.50406H13.5026V1.5H10.5035ZM13.5026 5.50312H12.4985V6.50062H11.501V5.50312H10.5035V4.50562H11.501V3.50156H12.4985V4.50562H13.5026V5.50312Z" fill="#000001"/>
</g>
</g>
</svg>
