<svg width="24" height="24" viewBox="0 0 24 24" fill="none" xmlns="http://www.w3.org/2000/svg">
<g id="business-products-magic-rabbit">
<g id="Group">
<path id="Vector" d="M21.4975 9.49961H20.5V11.5012H19.4959V10.5037H18.4984V9.49961H20.5V8.50211H18.4984V7.49805H17.5009V11.5012H16.4968V12.4987H7.49965V11.5012H6.49559V7.49805H5.50137V8.50211H3.49652V9.49961H5.50137V10.5037H4.50059V11.5012H3.49652V9.49961H2.49902V12.4987H3.49652V13.5027H5.50137V20.4984H6.49887V21.5024H7.50293V22.4999H16.5001V21.5024H17.5042V20.4984H18.5017V13.5027H20.5032V12.4987H21.5007L21.4975 9.49961ZM17.5009 15.5043H6.49559V14.5002H17.5009V15.5043Z" fill="#000001"/>
<path id="Vector_2" d="M17.5011 6.50073H16.4971V7.49823H17.5011V6.50073Z" fill="#000001"/>
<path id="Vector_3" d="M17.5011 2.50415H16.4971V4.49915H17.5011V2.50415Z" fill="#000001"/>
<path id="Vector_4" d="M16.497 4.49902H15.4995V6.50059H16.497V4.49902Z" fill="#000001"/>
<path id="Vector_5" d="M16.4967 1.5H14.4951V2.50406H16.4967V1.5Z" fill="#000001"/>
<path id="Vector_6" d="M15.4992 8.5022H14.4951V9.4997H15.4992V8.5022Z" fill="#000001"/>
<path id="Vector_7" d="M14.4951 2.50415H13.4976V4.49915H14.4951V2.50415Z" fill="#000001"/>
<path id="Vector_8" d="M13.498 4.49902H12.5005V5.50309H13.498V4.49902Z" fill="#000001"/>
<path id="Vector_9" d="M11.496 11.5013H12.5001V10.5038H13.4976V9.49976H10.4985V10.5038H11.496V11.5013Z" fill="#000001"/>
<path id="Vector_10" d="M12.5002 5.50317H11.4961V6.50067H12.5002V5.50317Z" fill="#000001"/>
<path id="Vector_11" d="M11.496 4.49902H10.4985V5.50309H11.496V4.49902Z" fill="#000001"/>
<path id="Vector_12" d="M10.4987 2.50415H9.49463V4.49915H10.4987V2.50415Z" fill="#000001"/>
<path id="Vector_13" d="M9.49457 8.5022H8.49707V9.4997H9.49457V8.5022Z" fill="#000001"/>
<path id="Vector_14" d="M9.49451 1.5H7.49951V2.50406H9.49451V1.5Z" fill="#000001"/>
<path id="Vector_15" d="M8.49701 4.49902H7.49951V6.50059H8.49701V4.49902Z" fill="#000001"/>
<path id="Vector_16" d="M7.49967 6.50073H6.49561V7.49823H7.49967V6.50073Z" fill="#000001"/>
<path id="Vector_17" d="M7.49967 2.50415H6.49561V4.49915H7.49967V2.50415Z" fill="#000001"/>
</g>
</g>
</svg>
