<svg width="24" height="24" viewBox="0 0 24 24" fill="none" xmlns="http://www.w3.org/2000/svg">
<g id="business-products-safe">
<g id="Group">
<path id="Vector" d="M22.5002 4.00024H21.4961V19.0021H22.5002V4.00024Z" fill="#000001"/>
<path id="Vector_2" d="M21.496 19.0022H20.4985V19.9997H21.496V19.0022Z" fill="#000001"/>
<path id="Vector_3" d="M21.496 3.00293H20.4985V4.00043H21.496V3.00293Z" fill="#000001"/>
<path id="Vector_4" d="M3.50146 19.9998V21.0038H5.49646V22.0013H6.50053V21.0038H17.4993V22.0013H18.4968V21.0038H20.4983V19.9998H3.50146Z" fill="#000001"/>
<path id="Vector_5" d="M19.5009 5.00439H4.49902V18.0047H19.5009V16.0031H20.4984V13.0041H19.5009V10.005H20.4984V6.99939H19.5009V5.00439ZM18.4968 6.99939H17.4993V10.005H18.4968V13.0041H17.4993V16.0031H18.4968V17.0006H5.49652V6.00189H18.4968V6.99939Z" fill="#000001"/>
<path id="Vector_6" d="M16.5021 9.00098H15.498V14.0016H16.5021V9.00098Z" fill="#000001"/>
<path id="Vector_7" d="M15.498 14.0017H14.5005V14.9992H15.498V14.0017Z" fill="#000001"/>
<path id="Vector_8" d="M15.498 8.00342H14.5005V9.00092H15.498V8.00342Z" fill="#000001"/>
<path id="Vector_9" d="M14.5002 10.0051H13.4961V13.0042H14.5002V10.0051Z" fill="#000001"/>
<path id="Vector_10" d="M14.5001 14.999H9.49951V16.0031H14.5001V14.999Z" fill="#000001"/>
<path id="Vector_11" d="M13.4961 13.0042H10.4971V14.0016H13.4961V13.0042Z" fill="#000001"/>
<path id="Vector_12" d="M13.4961 9.00098H10.4971V10.005H13.4961V9.00098Z" fill="#000001"/>
<path id="Vector_13" d="M14.5001 6.99951H9.49951V8.00357H14.5001V6.99951Z" fill="#000001"/>
<path id="Vector_14" d="M10.497 10.0051H9.49951V13.0042H10.497V10.0051Z" fill="#000001"/>
<path id="Vector_15" d="M9.49967 14.0017H8.49561V14.9992H9.49967V14.0017Z" fill="#000001"/>
<path id="Vector_16" d="M9.49967 8.00342H8.49561V9.00092H9.49967V8.00342Z" fill="#000001"/>
<path id="Vector_17" d="M8.49555 9.00098H7.49805V14.0016H8.49555V9.00098Z" fill="#000001"/>
<path id="Vector_18" d="M20.4983 1.99878H3.50146V3.00284H20.4983V1.99878Z" fill="#000001"/>
<path id="Vector_19" d="M3.50162 19.0022H2.49756V19.9997H3.50162V19.0022Z" fill="#000001"/>
<path id="Vector_20" d="M3.50162 3.00293H2.49756V4.00043H3.50162V3.00293Z" fill="#000001"/>
<path id="Vector_21" d="M2.4975 4.00024H1.5V19.0021H2.4975V4.00024Z" fill="#000001"/>
</g>
</g>
</svg>
