<svg width="24" height="24" viewBox="0 0 24 24" fill="none" xmlns="http://www.w3.org/2000/svg">
<g id="business-products-bag_1">
<g id="Group">
<path id="Vector" d="M22.5002 8.5022H21.4961V18.5034H22.5002V8.5022Z" fill="#000001"/>
<path id="Vector_2" d="M21.4959 18.5034H7.49805V19.5009H21.4959V18.5034Z" fill="#000001"/>
<path id="Vector_3" d="M20.4985 10.5037H19.501V12.4987H20.4985V10.5037Z" fill="#000001"/>
<path id="Vector_4" d="M17.4996 10.5038H19.5011V9.49976H15.498V10.5038H14.5005V12.4988H15.498V13.5029H19.5011V12.4988H17.4996V10.5038Z" fill="#000001"/>
<path id="Vector_5" d="M7.49805 7.50474V8.50224H21.4959V7.50474H18.4968V5.50317H17.4993V7.50474H7.49805Z" fill="#000001"/>
<path id="Vector_6" d="M14.5003 16.502H8.49561V17.4995H14.5003V16.502Z" fill="#000001"/>
<path id="Vector_7" d="M11.5012 14.5002H8.49561V15.5043H11.5012V14.5002Z" fill="#000001"/>
<path id="Vector_8" d="M7.49818 8.5022H6.50068V15.5044H2.49756V16.5019H6.50068V18.5034H7.49818V8.5022Z" fill="#000001"/>
<path id="Vector_9" d="M17.4994 4.49902H2.49756V5.50309H17.4994V4.49902Z" fill="#000001"/>
<path id="Vector_10" d="M2.4975 5.50317H1.5V15.5044H2.4975V5.50317Z" fill="#000001"/>
</g>
</g>
</svg>
