<svg width="24" height="24" viewBox="0 0 24 24" fill="none" xmlns="http://www.w3.org/2000/svg">
<g id="business-product-target">
<g id="Group">
<path id="Vector" d="M22.5002 9.49976H21.4961V14.5004H22.5002V9.49976Z" fill="#000001"/>
<path id="Vector_2" d="M20.4986 3.50156V1.5H19.5011V2.4975H18.497V3.50156H17.4995V6.50062H20.4986V5.50312H21.4961V4.49906H22.5001V3.50156H20.4986Z" fill="#000001"/>
<path id="Vector_3" d="M21.496 14.5002H20.4985V16.5018H21.496V14.5002Z" fill="#000001"/>
<path id="Vector_4" d="M21.496 7.49805H20.4985V9.49961H21.496V7.49805Z" fill="#000001"/>
<path id="Vector_5" d="M20.4985 16.502H19.501V18.5035H20.4985V16.502Z" fill="#000001"/>
<path id="Vector_6" d="M19.5011 18.5034H18.4971V19.5009H19.5011V18.5034Z" fill="#000001"/>
<path id="Vector_7" d="M18.497 19.501H16.502V20.4985H18.497V19.501Z" fill="#000001"/>
<path id="Vector_8" d="M17.4995 6.50073H16.502V7.49823H17.4995V6.50073Z" fill="#000001"/>
<path id="Vector_9" d="M16.5021 7.49805H15.498V8.50211H16.5021V7.49805Z" fill="#000001"/>
<path id="Vector_10" d="M16.5021 20.4985H14.5005V21.5026H16.5021V20.4985Z" fill="#000001"/>
<path id="Vector_11" d="M15.498 10.5037H14.5005V13.5027H15.498V10.5037Z" fill="#000001"/>
<path id="Vector_12" d="M15.498 8.5022H14.5005V9.4997H15.498V8.5022Z" fill="#000001"/>
<path id="Vector_13" d="M16.5021 2.49756H14.5005V3.50162H16.5021V2.49756Z" fill="#000001"/>
<path id="Vector_14" d="M14.5002 13.5029H13.4961V14.5004H14.5002V13.5029Z" fill="#000001"/>
<path id="Vector_15" d="M14.5002 9.49976H13.4961V10.5038H14.5002V9.49976Z" fill="#000001"/>
<path id="Vector_16" d="M14.5001 21.5024H9.49951V22.4999H14.5001V21.5024Z" fill="#000001"/>
<path id="Vector_17" d="M13.496 10.5037H12.4985V11.5012H13.496V10.5037Z" fill="#000001"/>
<path id="Vector_18" d="M13.4961 14.5002H10.4971V15.4977H13.4961V14.5002Z" fill="#000001"/>
<path id="Vector_19" d="M12.499 11.5012H11.5015V12.4987H12.499V11.5012Z" fill="#000001"/>
<path id="Vector_20" d="M13.4961 8.5022H10.4971V9.4997H13.4961V8.5022Z" fill="#000001"/>
<path id="Vector_21" d="M14.5001 1.5H9.49951V2.4975H14.5001V1.5Z" fill="#000001"/>
<path id="Vector_22" d="M10.497 13.5029H9.49951V14.5004H10.497V13.5029Z" fill="#000001"/>
<path id="Vector_23" d="M10.497 9.49976H9.49951V10.5038H10.497V9.49976Z" fill="#000001"/>
<path id="Vector_24" d="M9.49961 20.4985H7.49805V21.5026H9.49961V20.4985Z" fill="#000001"/>
<path id="Vector_25" d="M9.49967 10.5037H8.49561V13.5027H9.49967V10.5037Z" fill="#000001"/>
<path id="Vector_26" d="M9.49961 2.49756H7.49805V3.50162H9.49961V2.49756Z" fill="#000001"/>
<path id="Vector_27" d="M7.49814 19.501H5.49658V20.4985H7.49814V19.501Z" fill="#000001"/>
<path id="Vector_28" d="M7.49814 3.50146H5.49658V4.49896H7.49814V3.50146Z" fill="#000001"/>
<path id="Vector_29" d="M6.50059 9.49965H7.49809V7.49809H9.49965V6.50059H15.4978V5.50309H14.5003V4.49902H9.49965V5.50309H7.49809V6.50059H6.50059V7.49809H5.49652V9.49965H4.49902V14.5003H5.49652V16.5018H6.50059V17.4993H7.49809V18.5034H9.49965V19.5009H14.5003V18.5034H16.5018V17.4993H17.4993V16.5018H18.4968V14.5003H19.5009V9.49965H18.4968V8.50215H17.4993V14.5003H16.5018V16.5018H15.4978V17.4993H9.49965V16.5018H7.49809V14.5003H6.50059V9.49965Z" fill="#000001"/>
<path id="Vector_30" d="M5.49652 18.5034H4.49902V19.5009H5.49652V18.5034Z" fill="#000001"/>
<path id="Vector_31" d="M5.49652 4.49902H4.49902V5.50309H5.49652V4.49902Z" fill="#000001"/>
<path id="Vector_32" d="M4.49896 16.502H3.50146V18.5035H4.49896V16.502Z" fill="#000001"/>
<path id="Vector_33" d="M4.49896 5.50317H3.50146V7.49817H4.49896V5.50317Z" fill="#000001"/>
<path id="Vector_34" d="M3.50162 14.5002H2.49756V16.5018H3.50162V14.5002Z" fill="#000001"/>
<path id="Vector_35" d="M3.50162 7.49805H2.49756V9.49961H3.50162V7.49805Z" fill="#000001"/>
<path id="Vector_36" d="M2.4975 9.49976H1.5V14.5004H2.4975V9.49976Z" fill="#000001"/>
</g>
</g>
</svg>
