<svg width="24" height="24" viewBox="0 0 24 24" fill="none" xmlns="http://www.w3.org/2000/svg">
<g id="business-products-boat-success">
<g id="Group">
<path id="Vector" d="M22.5001 19.501H20.4985V20.4985H22.5001V19.501Z" fill="#000001"/>
<path id="Vector_2" d="M21.496 3.50146H20.4985V4.49896H21.496V3.50146Z" fill="#000001"/>
<path id="Vector_3" d="M20.4986 18.4968H17.4995V19.5009H20.4986V18.4968Z" fill="#000001"/>
<path id="Vector_4" d="M20.4985 2.49756H19.501V3.50162H20.4985V2.49756Z" fill="#000001"/>
<path id="Vector_5" d="M17.4994 20.4985V21.5026H13.4963V20.4985H10.4972V21.5026H6.50062V20.4985H3.495V21.5026H1.5V22.5001H22.5V21.5026H20.4984V20.4985H17.4994Z" fill="#000001"/>
<path id="Vector_6" d="M20.4982 4.49902H16.4951V5.49652H20.4982V4.49902Z" fill="#000001"/>
<path id="Vector_7" d="M19.5011 1.5H17.4995V2.4975H19.5011V1.5Z" fill="#000001"/>
<path id="Vector_8" d="M17.4992 2.49756H16.4951V3.50162H17.4992V2.49756Z" fill="#000001"/>
<path id="Vector_9" d="M17.4992 19.501H13.4961V20.4985H17.4992V19.501Z" fill="#000001"/>
<path id="Vector_10" d="M16.4955 10.4971H15.498V11.5011H16.4955V10.4971Z" fill="#000001"/>
<path id="Vector_11" d="M16.4955 3.50146H15.498V4.49896H16.4955V3.50146Z" fill="#000001"/>
<path id="Vector_12" d="M15.498 9.49976H14.5005V10.4973H15.498V9.49976Z" fill="#000001"/>
<path id="Vector_13" d="M14.5002 8.5022H13.4961V9.4997H14.5002V8.5022Z" fill="#000001"/>
<path id="Vector_14" d="M13.496 7.49805H12.4985V8.50211H13.496V7.49805Z" fill="#000001"/>
<path id="Vector_15" d="M12.4987 6.50073H11.4946V7.49823H12.4987V6.50073Z" fill="#000001"/>
<path id="Vector_16" d="M13.4961 18.4968H10.4971V19.5009H13.4961V18.4968Z" fill="#000001"/>
<path id="Vector_17" d="M11.4946 7.49805H10.4971V8.50211H11.4946V7.49805Z" fill="#000001"/>
<path id="Vector_18" d="M10.4971 19.501H6.50049V20.4985H10.4971V19.501Z" fill="#000001"/>
<path id="Vector_19" d="M10.497 8.5022H9.49951V9.4997H10.497V8.5022Z" fill="#000001"/>
<path id="Vector_20" d="M9.49967 9.49976H8.49561V10.4973H9.49967V9.49976Z" fill="#000001"/>
<path id="Vector_21" d="M9.49967 4.49902H8.49561V6.50059H9.49967V4.49902Z" fill="#000001"/>
<path id="Vector_22" d="M8.49555 10.4971H7.49805V11.5011H8.49555V10.4971Z" fill="#000001"/>
<path id="Vector_23" d="M8.49568 6.50073H2.49756V7.49823H8.49568V6.50073Z" fill="#000001"/>
<path id="Vector_24" d="M8.49549 3.50146H6.50049V4.49896H8.49549V3.50146Z" fill="#000001"/>
<path id="Vector_25" d="M6.50074 18.4968H3.49512V19.5009H6.50074V18.4968Z" fill="#000001"/>
<path id="Vector_26" d="M19.5011 13.5029V14.5004H20.4986V12.4988H17.4995V11.5013H16.4954V12.4988H12.4989V9.49976H11.4948V12.4988H7.49824V11.5013H6.50074V12.4988H3.49512V14.5004H4.49918V13.5029H19.5011Z" fill="#000001"/>
<path id="Vector_27" d="M6.50074 2.49756H3.49512V3.50162H6.50074V2.49756Z" fill="#000001"/>
<path id="Vector_28" d="M21.4959 16.5018H20.4984V15.4977H19.5009V14.5002H18.4969V15.4977H17.4994V16.5018H16.4953V17.4993H14.5003V16.5018H13.4963V15.4977H10.4972V16.5018H9.49969V17.4993H7.49813V16.5018H6.50062V15.4977H5.49656V14.5002H4.49906V15.4977H3.495V16.5018H2.4975V17.4993H1.5V18.4968H3.495V17.4993H6.50062V18.4968H10.4972V17.4993H13.4963V18.4968H17.4994V17.4993H20.4984V18.4968H22.5V17.4993H21.4959V16.5018Z" fill="#000001"/>
<path id="Vector_29" d="M3.495 19.501H1.5V20.4985H3.495V19.501Z" fill="#000001"/>
<path id="Vector_30" d="M3.49506 3.50146H2.49756V4.49896H3.49506V3.50146Z" fill="#000001"/>
<path id="Vector_31" d="M2.4975 4.49902H1.5V6.50059H2.4975V4.49902Z" fill="#000001"/>
</g>
</g>
</svg>
