<svg width="24" height="24" viewBox="0 0 24 24" fill="none" xmlns="http://www.w3.org/2000/svg">
<g id="business-product-piggy-bank">
<g id="Group">
<path id="Vector" d="M21.5027 13.9983H20.4987V12H19.5012V14.0016H16.5021V14.9991H15.498V19.0022H16.5021V19.9997H17.4996V21.0037H18.5037V19.9997H20.4987V19.0022H21.5027V18.0047H22.5002V14.9991H21.5027V13.9983ZM18.5037 18.0014H17.4996V16.0031H18.5037V18.0014ZM20.4987 18.0014H19.5012V16.0031H20.4987V18.0014Z" fill="#000001"/>
<path id="Vector_2" d="M19.5009 10.999H18.5034V11.9965H19.5009V10.999Z" fill="#000001"/>
<path id="Vector_3" d="M18.5036 11.9966H17.4995V13.0006H18.5036V11.9966Z" fill="#000001"/>
<path id="Vector_4" d="M18.5036 8.99756H17.4995V10.9991H18.5036V8.99756Z" fill="#000001"/>
<path id="Vector_5" d="M17.4996 8H15.498V8.9975H17.4996V8Z" fill="#000001"/>
<path id="Vector_6" d="M17.4995 3.99707H16.502V5.00113H17.4995V3.99707Z" fill="#000001"/>
<path id="Vector_7" d="M17.4996 21.0005H15.498V21.998H17.4996V21.0005Z" fill="#000001"/>
<path id="Vector_8" d="M15.4976 19.9963H9.49951V21.0004H15.4976V19.9963Z" fill="#000001"/>
<path id="Vector_9" d="M15.498 11.9966H14.5005V13.0006H15.498V11.9966Z" fill="#000001"/>
<path id="Vector_10" d="M14.5004 6.99609H13.5029V8.00016H14.5004V6.99609Z" fill="#000001"/>
<path id="Vector_11" d="M14.5001 3.99695H15.4976V2.99945H14.5001V2.00195H13.5026V2.99945H12.4985V3.99695H13.5026V5.00102H14.5001V3.99695Z" fill="#000001"/>
<path id="Vector_12" d="M15.4976 10.9991V8.99756H14.5001V10.0016H13.5026V8.99756H12.4985V10.9991H15.4976Z" fill="#000001"/>
<path id="Vector_13" d="M12.4986 8H10.4971V8.9975H12.4986V8Z" fill="#000001"/>
<path id="Vector_14" d="M12.499 5.00098H11.5015V5.99848H12.499V5.00098Z" fill="#000001"/>
<path id="Vector_15" d="M10.497 3.99707H9.49951V6.99613H10.497V3.99707Z" fill="#000001"/>
<path id="Vector_16" d="M10.4971 10.9991V8.99756H9.49961V10.0016H7.49805V10.9991H10.4971Z" fill="#000001"/>
<path id="Vector_17" d="M9.49945 6.99609H8.50195V8.00016H9.49945V6.99609Z" fill="#000001"/>
<path id="Vector_18" d="M9.49945 2.99951H8.50195V3.99701H9.49945V2.99951Z" fill="#000001"/>
<path id="Vector_19" d="M9.49961 21.0005H7.49805V21.998H9.49961V21.0005Z" fill="#000001"/>
<path id="Vector_20" d="M7.49799 18.9988H6.50049V21.0003H7.49799V18.9988Z" fill="#000001"/>
<path id="Vector_21" d="M7.49799 10.999H6.50049V11.9965H7.49799V10.999Z" fill="#000001"/>
<path id="Vector_22" d="M8.50199 8H5.50293V8.9975H8.50199V8Z" fill="#000001"/>
<path id="Vector_23" d="M8.50199 3.99707H5.50293V6.99613H8.50199V3.99707Z" fill="#000001"/>
<path id="Vector_24" d="M8.50199 2.00195H5.50293V2.99945H8.50199V2.00195Z" fill="#000001"/>
<path id="Vector_25" d="M6.50043 18.0012H5.50293V18.9987H6.50043V18.0012Z" fill="#000001"/>
<path id="Vector_26" d="M6.50043 11.9966H5.50293V13.0006H6.50043V11.9966Z" fill="#000001"/>
<path id="Vector_27" d="M5.50309 13.0007H4.49902V18.0014H5.50309V13.0007Z" fill="#000001"/>
<path id="Vector_28" d="M5.50309 6.99609H4.49902V8.00016H5.50309V6.99609Z" fill="#000001"/>
<path id="Vector_29" d="M5.50309 2.99951H4.49902V3.99701H5.50309V2.99951Z" fill="#000001"/>
<path id="Vector_30" d="M4.49896 10.0017H3.50146V10.9992H4.49896V10.0017Z" fill="#000001"/>
<path id="Vector_31" d="M4.49896 3.99707H3.50146V6.99613H4.49896V3.99707Z" fill="#000001"/>
<path id="Vector_32" d="M3.50162 10.999H2.49756V11.9965H3.50162V10.999Z" fill="#000001"/>
<path id="Vector_33" d="M3.50162 8.99756H2.49756V10.0016H3.50162V8.99756Z" fill="#000001"/>
<path id="Vector_34" d="M3.50162 2.00195H2.49756V2.99945H3.50162V2.00195Z" fill="#000001"/>
<path id="Vector_35" d="M2.4975 10.0017H1.5V10.9992H2.4975V10.0017Z" fill="#000001"/>
<path id="Vector_36" d="M2.4975 5.99854H1.5V6.99604H2.4975V5.99854Z" fill="#000001"/>
</g>
</g>
</svg>
