<svg width="24" height="24" viewBox="0 0 24 24" fill="none" xmlns="http://www.w3.org/2000/svg">
<g id="business-products-deal-handshake">
<g id="Group">
<path id="Vector" d="M22.4999 6.50073H21.5024V7.49823H22.4999V6.50073Z" fill="#000001"/>
<path id="Vector_2" d="M19.501 11.5012V12.4987H17.506V13.5028H19.501V19.5009H15.5044V20.4984H19.501V21.5025H22.5V11.5012H19.501Z" fill="#000001"/>
<path id="Vector_3" d="M21.5024 7.49805H20.5049V8.50211H21.5024V7.49805Z" fill="#000001"/>
<path id="Vector_4" d="M20.505 6.50073H19.501V7.49823H20.505V6.50073Z" fill="#000001"/>
<path id="Vector_5" d="M19.5009 7.49805H18.5034V8.50211H19.5009V7.49805Z" fill="#000001"/>
<path id="Vector_6" d="M19.5009 2.50415H18.5034V3.50165H19.5009V2.50415Z" fill="#000001"/>
<path id="Vector_7" d="M18.5034 6.50073H17.5059V7.49823H18.5034V6.50073Z" fill="#000001"/>
<path id="Vector_8" d="M17.506 11.5012H16.502V12.4987H17.506V11.5012Z" fill="#000001"/>
<path id="Vector_9" d="M16.5019 10.5037H15.5044V11.5012H16.5019V10.5037Z" fill="#000001"/>
<path id="Vector_10" d="M15.5044 16.502H14.5004V18.5035H12.5054V20.4985H13.5029V19.501H15.5044V16.502Z" fill="#000001"/>
<path id="Vector_11" d="M14.5004 15.5044H13.5029V16.5019H14.5004V15.5044Z" fill="#000001"/>
<path id="Vector_12" d="M14.5004 3.50146H13.5029V4.49896H14.5004V3.50146Z" fill="#000001"/>
<path id="Vector_13" d="M13.5029 14.5002H12.5054V15.5043H13.5029V14.5002Z" fill="#000001"/>
<path id="Vector_14" d="M13.5029 12.4988H12.5054V13.5028H13.5029V12.4988Z" fill="#000001"/>
<path id="Vector_15" d="M15.5046 9.49976H11.5015V10.5038H15.5046V9.49976Z" fill="#000001"/>
<path id="Vector_16" d="M13.5029 4.49902H12.5054V5.50309H13.5029V4.49902Z" fill="#000001"/>
<path id="Vector_17" d="M13.5029 2.50415H12.5054V3.50165H13.5029V2.50415Z" fill="#000001"/>
<path id="Vector_18" d="M12.5055 17.4993H11.5015V18.5033H12.5055V17.4993Z" fill="#000001"/>
<path id="Vector_19" d="M12.5055 13.5029H11.5015V14.5004H12.5055V13.5029Z" fill="#000001"/>
<path id="Vector_20" d="M12.5055 3.50146H11.5015V4.49896H12.5055V3.50146Z" fill="#000001"/>
<path id="Vector_21" d="M10.5039 21.5026H7.50488V22.5001H11.5014V21.5026H12.5055V20.4985H10.5039V21.5026Z" fill="#000001"/>
<path id="Vector_22" d="M11.5014 10.5037H10.5039V11.5012H11.5014V10.5037Z" fill="#000001"/>
<path id="Vector_23" d="M10.5036 19.501H9.49951V20.4985H10.5036V19.501Z" fill="#000001"/>
<path id="Vector_24" d="M11.5011 14.5002H9.49951V15.5043H11.5011V14.5002Z" fill="#000001"/>
<path id="Vector_25" d="M10.5036 11.5012H9.49951V12.4987H10.5036V11.5012Z" fill="#000001"/>
<path id="Vector_26" d="M10.5035 9.49976H8.50195V10.5038H10.5035V9.49976Z" fill="#000001"/>
<path id="Vector_27" d="M9.49945 18.5034H8.50195V19.5009H9.49945V18.5034Z" fill="#000001"/>
<path id="Vector_28" d="M9.49945 12.4988H8.50195V14.5003H9.49945V12.4988Z" fill="#000001"/>
<path id="Vector_29" d="M9.49945 5.50317H8.50195V6.50067H9.49945V5.50317Z" fill="#000001"/>
<path id="Vector_30" d="M8.50238 10.5037H7.50488V11.5012H8.50238V10.5037Z" fill="#000001"/>
<path id="Vector_31" d="M7.50455 20.4985H6.50049V21.5026H7.50455V20.4985Z" fill="#000001"/>
<path id="Vector_32" d="M7.50455 11.5012H6.50049V12.4987H7.50455V11.5012Z" fill="#000001"/>
<path id="Vector_33" d="M4.50562 19.5009V13.5028H6.50062V12.4987H4.50562V11.5012H1.5V21.5025H4.50562V20.4984H6.50062V19.5009H4.50562Z" fill="#000001"/>
<path id="Vector_34" d="M6.50043 1.5H5.50293V2.50406H6.50043V1.5Z" fill="#000001"/>
<path id="Vector_35" d="M4.50547 9.49979V8.5023H5.50297V7.49823H4.50547V6.50073H3.50141V7.49823H2.50391V8.5023H3.50141V9.49979H4.50547Z" fill="#000001"/>
</g>
</g>
</svg>
