<svg width="24" height="24" viewBox="0 0 24 24" fill="none" xmlns="http://www.w3.org/2000/svg">
<g id="business-products-climb-top">
<g id="Group">
<path id="Vector" d="M22.4999 20.4985H21.5024V22.5001H22.4999V20.4985Z" fill="#000001"/>
<path id="Vector_2" d="M22.4999 8.5022H21.5024V9.4997H22.4999V8.5022Z" fill="#000001"/>
<path id="Vector_3" d="M21.5024 18.5034H20.5049V20.4984H21.5024V18.5034Z" fill="#000001"/>
<path id="Vector_4" d="M21.5024 7.49805H20.5049V8.50211H21.5024V7.49805Z" fill="#000001"/>
<path id="Vector_5" d="M20.505 16.502H19.501V18.5035H20.505V16.502Z" fill="#000001"/>
<path id="Vector_6" d="M21.5025 9.49976H18.5034V10.5038H21.5025V9.49976Z" fill="#000001"/>
<path id="Vector_7" d="M20.505 6.50073H19.501V7.49823H20.505V6.50073Z" fill="#000001"/>
<path id="Vector_8" d="M18.5032 14.5003V12.4988H17.5057V10.5038H16.5016V8.50219H15.5041V7.49813H14.5001V5.50312H18.5032V4.49906H17.5057V3.50156H16.5016V4.49906H14.5001V2.50406H15.5041V1.5H13.5026V7.49813H12.5051V8.50219H11.501V10.5038H10.5035V12.4988H9.49945V14.5003H8.50195V16.5019H10.5035V17.4994H13.5026V16.5019H16.5016V15.5044H18.5032V16.5019H19.5007V14.5003H18.5032ZM12.5051 16.5019H11.501V15.5044H12.5051V16.5019ZM15.5041 15.5044H14.5001V14.5003H13.5026V13.5028H14.5001V14.5003H15.5041V15.5044ZM15.5041 11.5012H14.5001V9.49969H13.5026V8.50219H14.5001V9.49969H15.5041V11.5012ZM17.5057 14.5003H16.5016V13.5028H17.5057V14.5003Z" fill="#000001"/>
<path id="Vector_9" d="M19.5009 7.49805H18.5034V8.50211H19.5009V7.49805Z" fill="#000001"/>
<path id="Vector_10" d="M18.5034 8.5022H17.5059V9.4997H18.5034V8.5022Z" fill="#000001"/>
<path id="Vector_11" d="M16.5019 2.50415H15.5044V3.50165H16.5019V2.50415Z" fill="#000001"/>
<path id="Vector_12" d="M8.50238 16.502H7.50488V18.5035H8.50238V16.502Z" fill="#000001"/>
<path id="Vector_13" d="M8.50238 5.50317H7.50488V6.50067H8.50238V5.50317Z" fill="#000001"/>
<path id="Vector_14" d="M7.50455 18.5034H6.50049V20.4984H7.50455V18.5034Z" fill="#000001"/>
<path id="Vector_15" d="M7.50455 4.49902H6.50049V5.50309H7.50455V4.49902Z" fill="#000001"/>
<path id="Vector_16" d="M6.50043 20.4985H5.50293V22.5001H6.50043V20.4985Z" fill="#000001"/>
<path id="Vector_17" d="M6.50043 17.4993H5.50293V18.5033H6.50043V17.4993Z" fill="#000001"/>
<path id="Vector_18" d="M7.50453 6.50073H2.50391V7.49823H7.50453V6.50073Z" fill="#000001"/>
<path id="Vector_19" d="M6.50086 3.50146H4.50586V4.49896H6.50086V3.50146Z" fill="#000001"/>
<path id="Vector_20" d="M5.50336 16.502H4.50586V17.4995H5.50336V16.502Z" fill="#000001"/>
<path id="Vector_21" d="M4.50553 17.4993H3.50146V18.5033H4.50553V17.4993Z" fill="#000001"/>
<path id="Vector_22" d="M4.50547 4.49902H2.50391V5.50309H4.50547V4.49902Z" fill="#000001"/>
<path id="Vector_23" d="M3.50141 18.5034H2.50391V20.4984H3.50141V18.5034Z" fill="#000001"/>
<path id="Vector_24" d="M2.50406 20.4985H1.5V22.5001H2.50406V20.4985Z" fill="#000001"/>
<path id="Vector_25" d="M2.50406 5.50317H1.5V6.50067H2.50406V5.50317Z" fill="#000001"/>
</g>
</g>
</svg>
