<svg width="24" height="24" viewBox="0 0 24 24" fill="none" xmlns="http://www.w3.org/2000/svg">
<g id="business-products-cash-user-man-message">
<g id="Group">
<path id="Vector" d="M22.4999 2.50415H21.5024V12.4988H22.4999V2.50415Z" fill="#000001"/>
<path id="Vector_2" d="M21.5027 1.5H10.5039V2.50406H21.5027V1.5Z" fill="#000001"/>
<path id="Vector_3" d="M21.5024 12.4988H17.5059V13.5028H21.5024V12.4988Z" fill="#000001"/>
<path id="Vector_4" d="M18.5034 8.5022H17.5059V10.5038H18.5034V8.5022Z" fill="#000001"/>
<path id="Vector_5" d="M18.5034 5.50317H17.5059V6.50067H18.5034V5.50317Z" fill="#000001"/>
<path id="Vector_6" d="M17.506 13.5029H16.502V14.5004H17.506V13.5029Z" fill="#000001"/>
<path id="Vector_7" d="M16.5019 14.5002H15.5044V15.5043H16.5019V14.5002Z" fill="#000001"/>
<path id="Vector_8" d="M15.5046 11.5012V12.4987H16.5021V11.5012H17.5061V10.5037H16.5021V8.50209H17.5061V7.49803H16.5021V5.50303H17.5061V4.49896H16.5021V3.50146H15.5046V4.49896H14.5005V5.50303H15.5046V7.49803H14.5005V8.50209H15.5046V10.5037H14.5005V11.5012H15.5046Z" fill="#000001"/>
<path id="Vector_9" d="M13.5029 13.5029H12.5054V16.502H15.5044V15.5045H13.5029V13.5029Z" fill="#000001"/>
<path id="Vector_10" d="M14.5004 9.49976H13.5029V10.5038H14.5004V9.49976Z" fill="#000001"/>
<path id="Vector_11" d="M14.5004 5.50317H13.5029V7.49817H14.5004V5.50317Z" fill="#000001"/>
<path id="Vector_12" d="M13.503 21.5024H11.5015V22.4999H13.503V21.5024Z" fill="#000001"/>
<path id="Vector_13" d="M11.5011 20.4985H9.49951V21.5026H11.5011V20.4985Z" fill="#000001"/>
<path id="Vector_14" d="M10.5036 18.5034H9.49951V19.5009H10.5036V18.5034Z" fill="#000001"/>
<path id="Vector_15" d="M10.5036 2.50415H9.49951V8.50228H10.5036V2.50415Z" fill="#000001"/>
<path id="Vector_16" d="M4.50586 19.501V20.4985H6.50086V22.5H7.50492V20.4985H9.49992V19.501H4.50586Z" fill="#000001"/>
<path id="Vector_17" d="M9.49945 16.502H8.50195V17.4995H9.49945V16.502Z" fill="#000001"/>
<path id="Vector_18" d="M9.49945 14.5002H8.50195V15.5043H9.49945V14.5002Z" fill="#000001"/>
<path id="Vector_19" d="M8.50205 17.4993H6.50049V18.5033H8.50205V17.4993Z" fill="#000001"/>
<path id="Vector_20" d="M5.50336 14.5002H4.50586V15.5043H5.50336V14.5002Z" fill="#000001"/>
<path id="Vector_21" d="M4.50553 18.5034H3.50146V19.5009H4.50553V18.5034Z" fill="#000001"/>
<path id="Vector_22" d="M4.50547 20.4985H2.50391V21.5026H4.50547V20.4985Z" fill="#000001"/>
<path id="Vector_23" d="M3.50141 13.5029H4.50547V12.4988H9.49953V13.5029H10.5036V18.5035H11.5011V11.5013H10.5036V10.5038H9.49953V9.49976H4.50547V10.5038H3.50141V11.5013H2.50391V18.5035H3.50141V13.5029Z" fill="#000001"/>
<path id="Vector_24" d="M2.50406 21.5024H1.5V22.4999H2.50406V21.5024Z" fill="#000001"/>
</g>
</g>
</svg>
