<svg width="24" height="24" viewBox="0 0 24 24" fill="none" xmlns="http://www.w3.org/2000/svg">
<g id="business-products-bag-money">
<g id="Group">
<path id="Vector" d="M20.5021 13.5029H19.498V18.5036H20.5021V13.5029Z" fill="#000001"/>
<path id="Vector_2" d="M19.498 18.5034H18.5005V20.4984H19.498V18.5034Z" fill="#000001"/>
<path id="Vector_3" d="M19.498 11.5012H18.5005V13.5028H19.498V11.5012Z" fill="#000001"/>
<path id="Vector_4" d="M18.5004 10.5037H17.5029V11.5012H18.5004V10.5037Z" fill="#000001"/>
<path id="Vector_5" d="M18.5006 20.4985H16.499V21.5026H18.5006V20.4985Z" fill="#000001"/>
<path id="Vector_6" d="M17.5031 9.49976H16.499V10.5038H17.5031V9.49976Z" fill="#000001"/>
<path id="Vector_7" d="M16.499 4.49906H17.503V1.5H15.5015V2.4975H16.499V4.49906Z" fill="#000001"/>
<path id="Vector_8" d="M16.499 8.5022H15.5015V9.4997H16.499V8.5022Z" fill="#000001"/>
<path id="Vector_9" d="M16.499 4.49902H15.5015V5.50309H16.499V4.49902Z" fill="#000001"/>
<path id="Vector_10" d="M16.4987 21.5024H7.50146V22.4999H16.4987V21.5024Z" fill="#000001"/>
<path id="Vector_11" d="M9.49646 10.5037V11.5012H8.49896V12.4987H7.50146V17.4993H8.49896V18.5033H9.49646V19.5008H14.4971V18.5033H15.5012V17.4993H16.4987V12.4987H15.5012V11.5012H14.4971V10.5037H9.49646ZM14.4971 16.5018H13.4996V17.4993H12.5021V18.5033H11.498V17.4993H10.5005V16.5018H13.4996V15.4977H10.5005V14.5002H9.49646V13.5027H10.5005V12.4987H11.498V11.5012H12.5021V12.4987H13.4996V13.5027H10.5005V14.5002H13.4996V15.4977H14.4971V16.5018Z" fill="#000001"/>
<path id="Vector_12" d="M15.5011 7.49805H14.4971V8.50211H15.5011V7.49805Z" fill="#000001"/>
<path id="Vector_13" d="M15.5011 5.50317H14.4971V6.50067H15.5011V5.50317Z" fill="#000001"/>
<path id="Vector_14" d="M15.5011 2.49756H14.4971V3.50162H15.5011V2.49756Z" fill="#000001"/>
<path id="Vector_15" d="M14.4975 3.50146H13.5V4.49896H14.4975V3.50146Z" fill="#000001"/>
<path id="Vector_16" d="M13.4999 2.49756H12.5024V3.50162H13.4999V2.49756Z" fill="#000001"/>
<path id="Vector_17" d="M12.5021 1.5H11.498V2.4975H12.5021V1.5Z" fill="#000001"/>
<path id="Vector_18" d="M14.4972 6.50073H9.49658V7.49823H14.4972V6.50073Z" fill="#000001"/>
<path id="Vector_19" d="M11.498 2.49756H10.5005V3.50162H11.498V2.49756Z" fill="#000001"/>
<path id="Vector_20" d="M10.5006 3.50146H9.49658V4.49896H10.5006V3.50146Z" fill="#000001"/>
<path id="Vector_21" d="M9.49652 7.49805H8.49902V8.50211H9.49652V7.49805Z" fill="#000001"/>
<path id="Vector_22" d="M9.49652 5.50317H8.49902V6.50067H9.49652V5.50317Z" fill="#000001"/>
<path id="Vector_23" d="M9.49652 2.49756H8.49902V3.50162H9.49652V2.49756Z" fill="#000001"/>
<path id="Vector_24" d="M8.49896 8.5022H7.50146V9.4997H8.49896V8.5022Z" fill="#000001"/>
<path id="Vector_25" d="M8.49896 4.49902H7.50146V5.50309H8.49896V4.49902Z" fill="#000001"/>
<path id="Vector_26" d="M7.50156 20.4985H5.5V21.5026H7.50156V20.4985Z" fill="#000001"/>
<path id="Vector_27" d="M7.50162 9.49976H6.49756V10.5038H7.50162V9.49976Z" fill="#000001"/>
<path id="Vector_28" d="M8.49912 2.4975V1.5H6.49756V4.49906H7.50162V2.4975H8.49912Z" fill="#000001"/>
<path id="Vector_29" d="M6.4975 10.5037H5.5V11.5012H6.4975V10.5037Z" fill="#000001"/>
<path id="Vector_30" d="M5.49994 18.5034H4.50244V20.4984H5.49994V18.5034Z" fill="#000001"/>
<path id="Vector_31" d="M5.49994 11.5012H4.50244V13.5028H5.49994V11.5012Z" fill="#000001"/>
<path id="Vector_32" d="M4.5026 13.5029H3.49854V18.5036H4.5026V13.5029Z" fill="#000001"/>
</g>
</g>
</svg>
