<svg width="24" height="24" viewBox="0 0 24 24" fill="none" xmlns="http://www.w3.org/2000/svg">
<g id="business-products-wallet-money">
<g id="Group">
<path id="Vector" d="M21.496 11.4978H20.4985V8.49878H19.501V11.4978H17.4995V12.5019H16.502V14.4969H17.4995V15.501H19.501V19.4975H20.4985V15.501H21.496V14.4969H22.5001V12.5019H21.496V11.4978ZM19.501 13.4994H18.497V12.5019H19.501V13.4994Z" fill="#000001"/>
<path id="Vector_2" d="M19.5011 19.4976H18.4971V20.5016H19.5011V19.4976Z" fill="#000001"/>
<path id="Vector_3" d="M19.5011 7.50146H18.4971V8.49896H19.5011V7.50146Z" fill="#000001"/>
<path id="Vector_4" d="M18.4968 20.5017H3.50146V21.4992H18.4968V20.5017Z" fill="#000001"/>
<path id="Vector_5" d="M16.5021 3.49829H14.5005V4.50235H16.5021V3.49829Z" fill="#000001"/>
<path id="Vector_6" d="M14.5001 4.5022H12.4985V5.4997H14.5001V4.5022Z" fill="#000001"/>
<path id="Vector_7" d="M12.499 3.49829H11.5015V4.50235H12.499V3.49829Z" fill="#000001"/>
<path id="Vector_8" d="M11.5011 2.50073H9.49951V3.49823H11.5011V2.50073Z" fill="#000001"/>
<path id="Vector_9" d="M9.49961 3.49829H7.49805V4.50235H9.49961V3.49829Z" fill="#000001"/>
<path id="Vector_10" d="M7.49814 4.5022H5.49658V5.4997H7.49814V4.5022Z" fill="#000001"/>
<path id="Vector_11" d="M6.50064 8.49878H5.49658V19.4975H6.50064V8.49878Z" fill="#000001"/>
<path id="Vector_12" d="M18.4968 7.50126V6.4972H17.4993V4.5022H16.5018V6.4972H12.4987V5.4997H11.5012V6.4972H5.49646V5.4997H4.49896V6.4972H3.50146V7.50126H18.4968Z" fill="#000001"/>
<path id="Vector_13" d="M3.50162 19.4976H2.49756V20.5016H3.50162V19.4976Z" fill="#000001"/>
<path id="Vector_14" d="M3.50162 7.50146H2.49756V8.49896H3.50162V7.50146Z" fill="#000001"/>
<path id="Vector_15" d="M2.4975 8.49878H1.5V19.4975H2.4975V8.49878Z" fill="#000001"/>
</g>
</g>
</svg>
