<svg width="24" height="24" viewBox="0 0 24 24" fill="none" xmlns="http://www.w3.org/2000/svg">
<g id="business-product-startup-2">
<g id="Group">
<path id="Vector" d="M19.9995 7.49805V8.50211H19.002V9.49961H19.9995V10.5037H20.997V9.49961H22.001V8.50211H20.997V7.49805H19.9995Z" fill="#000001"/>
<path id="Vector_2" d="M20.997 18.5034H19.9995V19.5009H20.997V18.5034Z" fill="#000001"/>
<path id="Vector_3" d="M17.998 17.4993H17.0005V18.5034H17.998V19.5009H19.0021V14.5002H17.998V17.4993Z" fill="#000001"/>
<path id="Vector_4" d="M19.0021 4.49902H17.998V5.50309H19.0021V4.49902Z" fill="#000001"/>
<path id="Vector_5" d="M17.998 13.5029H17.0005V14.5004H17.998V13.5029Z" fill="#000001"/>
<path id="Vector_6" d="M14.9987 4.49906V3.50156H14.0012V2.4975H12.9971V1.5H9.99803V2.4975H9.00053V3.50156H7.99646V4.49906H6.99896V12.4988H6.00146V13.5028H6.99896V16.5019H6.00146V17.4994H7.99646V6.50062H14.9987V17.4994H17.0002V16.5019H16.0027V13.5028H17.0002V12.4988H16.0027V4.49906H14.9987Z" fill="#000001"/>
<path id="Vector_7" d="M14.0011 19.501H12.9971V21.5025H14.0011V19.501Z" fill="#000001"/>
<path id="Vector_8" d="M14.9988 17.4993H7.99658V18.5033H14.9988V17.4993Z" fill="#000001"/>
<path id="Vector_9" d="M12.9975 13.5029H12V14.5004H12.9975V13.5029Z" fill="#000001"/>
<path id="Vector_10" d="M12.9975 8.5022H12V9.4997H12.9975V8.5022Z" fill="#000001"/>
<path id="Vector_11" d="M11.9999 19.501H11.0024V22.5H11.9999V19.501Z" fill="#000001"/>
<path id="Vector_12" d="M11.9999 14.5002H11.0024V15.4977H11.9999V14.5002Z" fill="#000001"/>
<path id="Vector_13" d="M11.9999 12.4988H11.0024V13.5028H11.9999V12.4988Z" fill="#000001"/>
<path id="Vector_14" d="M11.9999 9.49976H11.0024V10.5038H11.9999V9.49976Z" fill="#000001"/>
<path id="Vector_15" d="M11.9999 7.49805H11.0024V8.50211H11.9999V7.49805Z" fill="#000001"/>
<path id="Vector_16" d="M11.0021 13.5029H9.99805V14.5004H11.0021V13.5029Z" fill="#000001"/>
<path id="Vector_17" d="M11.0021 8.5022H9.99805V9.4997H11.0021V8.5022Z" fill="#000001"/>
<path id="Vector_18" d="M9.99799 19.501H9.00049V21.5025H9.99799V19.501Z" fill="#000001"/>
<path id="Vector_19" d="M6.00162 13.5029H4.99756V14.5004H6.00162V13.5029Z" fill="#000001"/>
<path id="Vector_20" d="M4.9975 14.5002H4V19.5009H4.9975V18.5034H6.00156V17.4993H4.9975V14.5002Z" fill="#000001"/>
<path id="Vector_21" d="M4.9975 4.49902H4V5.50309H4.9975V4.49902Z" fill="#000001"/>
<path id="Vector_22" d="M3.99994 9.49976H3.00244V10.5038H3.99994V9.49976Z" fill="#000001"/>
<path id="Vector_23" d="M3.99994 5.50317H3.00244V6.50067H3.99994V5.50317Z" fill="#000001"/>
<path id="Vector_24" d="M3.99994 3.50146H3.00244V4.49896H3.99994V3.50146Z" fill="#000001"/>
<path id="Vector_25" d="M3.0026 20.4985H1.99854V21.5026H3.0026V20.4985Z" fill="#000001"/>
<path id="Vector_26" d="M3.0026 4.49902H1.99854V5.50309H3.0026V4.49902Z" fill="#000001"/>
</g>
</g>
</svg>
