<svg width="24" height="24" viewBox="0 0 24 24" fill="none" xmlns="http://www.w3.org/2000/svg">
<g id="business-product-report-present-grahp">
<g id="Group">
<path id="Vector" d="M13.4963 3.50162V2.49756H12.4988V3.50162H11.5012V2.49756H10.4972V3.50162H1.5V4.49912H2.4975V5.50318H3.50156V15.4979H4.49906V5.50318H19.5009V15.4979H20.4984V5.50318H21.4959V4.49912H22.5V3.50162H13.4963Z" fill="#000001"/>
<path id="Vector_2" d="M19.5011 15.4978H18.4971V16.5019H19.5011V15.4978Z" fill="#000001"/>
<path id="Vector_3" d="M5.49658 16.502V17.4995H11.5013V20.4985H12.4988V17.4995H18.4969V16.502H5.49658Z" fill="#000001"/>
<path id="Vector_4" d="M7.49799 13.5029V12.4989H8.49549V11.5014H7.49799V6.50073H6.50049V14.5004H17.4992V13.5029H7.49799Z" fill="#000001"/>
<path id="Vector_5" d="M16.5021 7.49805H15.498V8.50211H16.5021V7.49805Z" fill="#000001"/>
<path id="Vector_6" d="M15.498 8.5022H14.5005V9.4997H15.498V8.5022Z" fill="#000001"/>
<path id="Vector_7" d="M14.5002 9.49976H13.4961V10.5038H14.5002V9.49976Z" fill="#000001"/>
<path id="Vector_8" d="M13.496 20.4985H12.4985V21.5026H13.496V20.4985Z" fill="#000001"/>
<path id="Vector_9" d="M13.496 10.5037H12.4985V11.5012H13.496V10.5037Z" fill="#000001"/>
<path id="Vector_10" d="M12.499 21.5024H11.5015V22.4999H12.499V21.5024Z" fill="#000001"/>
<path id="Vector_11" d="M12.499 11.5012H11.5015V12.4987H12.499V11.5012Z" fill="#000001"/>
<path id="Vector_12" d="M12.499 1.5H11.5015V2.4975H12.499V1.5Z" fill="#000001"/>
<path id="Vector_13" d="M11.5011 20.4985H10.4971V21.5026H11.5011V20.4985Z" fill="#000001"/>
<path id="Vector_14" d="M11.5011 10.5037H10.4971V11.5012H11.5011V10.5037Z" fill="#000001"/>
<path id="Vector_15" d="M10.497 9.49976H9.49951V10.5038H10.497V9.49976Z" fill="#000001"/>
<path id="Vector_16" d="M9.49967 10.5037H8.49561V11.5012H9.49967V10.5037Z" fill="#000001"/>
<path id="Vector_17" d="M5.49652 15.4978H4.49902V16.5019H5.49652V15.4978Z" fill="#000001"/>
</g>
</g>
</svg>
