<svg width="24" height="24" viewBox="0 0 24 24" fill="none" xmlns="http://www.w3.org/2000/svg">
<g id="business-products-data-file-bars">
<g id="Group">
<path id="Vector" d="M19.5008 5.49656H16.5018V2.4975H17.4993V1.5H3.50146V22.5H20.4983V4.49906H19.5008V5.49656ZM19.5008 21.5025H4.49896V2.4975H15.4977V6.50062H19.5008V21.5025Z" fill="#000001"/>
<path id="Vector_2" d="M19.5009 3.50146H18.5034V4.49896H19.5009V3.50146Z" fill="#000001"/>
<path id="Vector_3" d="M18.5036 2.49756H17.4995V3.50162H18.5036V2.49756Z" fill="#000001"/>
<path id="Vector_4" d="M15.4976 16.5019H14.5001V10.4972H12.4986V16.5019H11.5011V12.4988H9.49949V16.5019H6.50043V14.5003H7.49793V13.5028H6.50043V11.5013H7.49793V10.4972H6.50043V8.5022H5.50293V17.4994H18.5032V16.5019H17.4992V11.5013H15.4976V16.5019Z" fill="#000001"/>
</g>
</g>
</svg>
