<svg width="24" height="24" viewBox="0 0 24 24" fill="none" xmlns="http://www.w3.org/2000/svg">
<g id="business-prodect-diamond">
<g id="Group">
<path id="Vector" d="M22.5002 15.4978H21.4961V16.5019H22.5002V15.4978Z" fill="#000001"/>
<path id="Vector_2" d="M21.4959 10.5037H17.4994V6.50059H18.4969V5.50309H17.4994V4.49902H6.50062V5.50309H5.49656V6.50059H4.49906V7.49809H3.50156V8.50215H2.4975V9.49965H1.5V12.4987H2.4975V11.5012H7.49813V13.5028H8.49562V15.4978H9.49969V17.4993H10.4972V19.5009H11.5012V11.5012H15.4978V13.5028H14.5003V15.4978H13.4963V17.4993H12.4988V19.5009H11.5012V20.4984H10.4972V21.5025H11.5012V22.5H12.4988V21.5025H13.4963V20.4984H14.5003V19.5009H15.4978V18.5034H16.5019V17.4993H17.4994V16.5018H18.4969V15.4978H19.5009V14.5003H20.4984V13.5028H21.4959V12.4987H22.5V9.49965H21.4959V10.5037ZM15.4978 10.5037H8.49562V9.49965H7.49813V5.50309H11.5012V6.50059H12.4988V7.49809H13.4963V8.50215H14.5003V9.49965H15.4978V10.5037Z" fill="#000001"/>
<path id="Vector_3" d="M21.496 18.5034H20.4985V19.5009H21.496V18.5034Z" fill="#000001"/>
<path id="Vector_4" d="M21.496 8.5022H20.4985V9.4997H21.496V8.5022Z" fill="#000001"/>
<path id="Vector_5" d="M20.4985 19.501H19.501V20.4985H20.4985V19.501Z" fill="#000001"/>
<path id="Vector_6" d="M20.4985 17.4993H19.501V18.5033H20.4985V17.4993Z" fill="#000001"/>
<path id="Vector_7" d="M20.4985 7.49805H19.501V8.50211H20.4985V7.49805Z" fill="#000001"/>
<path id="Vector_8" d="M19.5009 3.50162H18.4968V4.49912H19.5009V5.50318H20.4984V4.49912H21.4959V3.50162H20.4984V2.49756H19.5009V3.50162Z" fill="#000001"/>
<path id="Vector_9" d="M19.5009 18.5034H18.4968V19.5009H19.5009V18.5034Z" fill="#000001"/>
<path id="Vector_10" d="M19.5009 6.50073H18.4968V7.49823H19.5009V6.50073Z" fill="#000001"/>
<path id="Vector_11" d="M17.4995 21.5024H16.502V22.4999H17.4995V21.5024Z" fill="#000001"/>
<path id="Vector_12" d="M17.4995 1.5H16.502V2.4975H17.4995V1.5Z" fill="#000001"/>
<path id="Vector_13" d="M11.5011 6.50073H10.4971V7.49823H11.5011V6.50073Z" fill="#000001"/>
<path id="Vector_14" d="M11.5011 2.49756H10.4971V3.50162H11.5011V2.49756Z" fill="#000001"/>
<path id="Vector_15" d="M10.4973 19.501H9.49976V20.4985H10.4973V19.501Z" fill="#000001"/>
<path id="Vector_16" d="M10.4973 7.49805H9.49976V8.50211H10.4973V7.49805Z" fill="#000001"/>
<path id="Vector_17" d="M9.49967 18.5034H8.49561V19.5009H9.49967V18.5034Z" fill="#000001"/>
<path id="Vector_18" d="M9.49967 8.5022H8.49561V9.4997H9.49967V8.5022Z" fill="#000001"/>
<path id="Vector_19" d="M8.49555 20.4985H7.49805V21.5026H8.49555V20.4985Z" fill="#000001"/>
<path id="Vector_20" d="M8.49555 17.4993H7.49805V18.5033H8.49555V17.4993Z" fill="#000001"/>
<path id="Vector_21" d="M7.49823 16.502H6.50073V17.4995H7.49823V16.502Z" fill="#000001"/>
<path id="Vector_22" d="M6.50064 15.4978H5.49658V16.5019H6.50064V15.4978Z" fill="#000001"/>
<path id="Vector_23" d="M5.49652 14.5002H4.49902V15.4977H5.49652V14.5002Z" fill="#000001"/>
<path id="Vector_24" d="M5.49652 3.50146H4.49902V4.49896H5.49652V3.50146Z" fill="#000001"/>
<path id="Vector_25" d="M3.50162 17.4993V18.5033H2.49756V19.5008H3.50162V20.4983H4.49912V19.5008H5.49662V18.5033H4.49912V17.4993H3.50162Z" fill="#000001"/>
<path id="Vector_26" d="M4.49896 13.5029H3.50146V14.5004H4.49896V13.5029Z" fill="#000001"/>
<path id="Vector_27" d="M4.49896 4.49902H3.50146V5.50309H4.49896V4.49902Z" fill="#000001"/>
<path id="Vector_28" d="M4.49896 2.49756H3.50146V3.50162H4.49896V2.49756Z" fill="#000001"/>
<path id="Vector_29" d="M3.50162 12.4988H2.49756V13.5028H3.50162V12.4988Z" fill="#000001"/>
<path id="Vector_30" d="M3.50162 3.50146H2.49756V4.49896H3.50162V3.50146Z" fill="#000001"/>
<path id="Vector_31" d="M2.4975 15.4978H1.5V16.5019H2.4975V15.4978Z" fill="#000001"/>
</g>
</g>
</svg>
