<svg width="24" height="24" viewBox="0 0 24 24" fill="none" xmlns="http://www.w3.org/2000/svg">
<g id="business-products-money">
<g id="Group">
<path id="Vector" d="M21.4959 5.50309V4.49902H2.4975V5.50309H1.5V18.5034H2.4975V19.5009H21.4959V18.5034H22.5V5.50309H21.4959ZM21.4959 16.5018H20.4984V17.4993H19.5009V18.5034H4.49906V17.4993H3.50156V16.5018H2.4975V7.50465H3.50156V6.50059H4.49906V5.50309H19.5009V6.50059H20.4984V7.50465H21.4959V16.5018Z" fill="#000001"/>
<path id="Vector_2" d="M17.4995 9.49976H16.502V14.5004H17.4995V9.49976Z" fill="#000001"/>
<path id="Vector_3" d="M16.5021 14.5002H15.498V15.5043H16.5021V14.5002Z" fill="#000001"/>
<path id="Vector_4" d="M16.5021 8.5022H15.498V9.4997H16.5021V8.5022Z" fill="#000001"/>
<path id="Vector_5" d="M15.498 15.5044H14.5005V16.5019H15.498V15.5044Z" fill="#000001"/>
<path id="Vector_6" d="M15.498 7.50464H14.5005V8.50214H15.498V7.50464Z" fill="#000001"/>
<path id="Vector_7" d="M14.5002 12.4988H13.4961V13.5028H14.5002V12.4988Z" fill="#000001"/>
<path id="Vector_8" d="M14.5001 16.502H9.49951V17.4995H14.5001V16.502Z" fill="#000001"/>
<path id="Vector_9" d="M13.4961 11.5012H10.4971V12.4987H13.4961V11.5012Z" fill="#000001"/>
<path id="Vector_10" d="M10.4971 13.5027V14.5002H11.5011V15.5042H12.4986V14.5002H13.4961V13.5027H10.4971Z" fill="#000001"/>
<path id="Vector_11" d="M13.4961 10.5038V9.4997H12.4986V8.5022H11.5011V9.4997H10.4971V10.5038H13.4961Z" fill="#000001"/>
<path id="Vector_12" d="M14.5001 6.50049H9.49951V7.50455H14.5001V6.50049Z" fill="#000001"/>
<path id="Vector_13" d="M10.497 10.5037H9.49951V11.5012H10.497V10.5037Z" fill="#000001"/>
<path id="Vector_14" d="M9.49967 15.5044H8.49561V16.5019H9.49967V15.5044Z" fill="#000001"/>
<path id="Vector_15" d="M9.49967 7.50464H8.49561V8.50214H9.49967V7.50464Z" fill="#000001"/>
<path id="Vector_16" d="M8.49555 14.5002H7.49805V15.5043H8.49555V14.5002Z" fill="#000001"/>
<path id="Vector_17" d="M8.49555 8.5022H7.49805V9.4997H8.49555V8.5022Z" fill="#000001"/>
<path id="Vector_18" d="M7.49799 9.49976H6.50049V14.5004H7.49799V9.49976Z" fill="#000001"/>
</g>
</g>
</svg>
