<svg width="24" height="24" viewBox="0 0 24 24" fill="none" xmlns="http://www.w3.org/2000/svg">
<g id="business-products-cash-shield">
<g id="Group">
<path id="Vector" d="M20.4985 4.50562H19.501V15.5044H20.4985V4.50562Z" fill="#000001"/>
<path id="Vector_2" d="M19.5009 15.5044H18.5034V17.506H19.5009V15.5044Z" fill="#000001"/>
<path id="Vector_3" d="M18.5036 17.5059H17.4995V18.5034H18.5036V17.5059Z" fill="#000001"/>
<path id="Vector_4" d="M18.5036 5.50317H17.4995V15.5044H18.5036V5.50317Z" fill="#000001"/>
<path id="Vector_5" d="M19.5011 3.50146H17.4995V4.50553H19.5011V3.50146Z" fill="#000001"/>
<path id="Vector_6" d="M17.4995 18.5034H16.502V19.5009H17.4995V18.5034Z" fill="#000001"/>
<path id="Vector_7" d="M17.4995 15.5044H16.502V17.506H17.4995V15.5044Z" fill="#000001"/>
<path id="Vector_8" d="M16.5019 19.501H15.5044V20.505H16.5019V19.501Z" fill="#000001"/>
<path id="Vector_9" d="M16.5019 17.5059H15.5044V18.5034H16.5019V17.5059Z" fill="#000001"/>
<path id="Vector_10" d="M17.4994 4.50562H15.5044V5.50312H17.4994V4.50562Z" fill="#000001"/>
<path id="Vector_11" d="M17.4994 2.50415H15.5044V3.50165H17.4994V2.50415Z" fill="#000001"/>
<path id="Vector_12" d="M15.5045 20.5049H13.5029V21.5024H15.5045V20.5049Z" fill="#000001"/>
<path id="Vector_13" d="M15.5045 18.5034H13.5029V19.5009H15.5045V18.5034Z" fill="#000001"/>
<path id="Vector_14" d="M14.5004 12.5054H13.5029V14.5004H14.5004V12.5054Z" fill="#000001"/>
<path id="Vector_15" d="M14.5004 9.49976H13.5029V10.5038H14.5004V9.49976Z" fill="#000001"/>
<path id="Vector_16" d="M10.5034 9.49964H11.5009V11.5012H10.5034V12.5053H11.5009V14.5003H10.5034V15.5043H11.5009V16.5018H12.4984V15.5043H13.5025V14.5003H12.4984V12.5053H13.5025V11.5012H12.4984V9.49964H13.5025V8.50214H12.4984V7.50464H11.5009V8.50214H10.5034V9.49964Z" fill="#000001"/>
<path id="Vector_17" d="M13.5025 21.5024H10.5034V22.4999H13.5025V21.5024Z" fill="#000001"/>
<path id="Vector_18" d="M13.5025 19.501H10.5034V20.505H13.5025V19.501Z" fill="#000001"/>
<path id="Vector_19" d="M10.5035 20.5049H8.50195V21.5024H10.5035V20.5049Z" fill="#000001"/>
<path id="Vector_20" d="M10.5035 18.5034H8.50195V19.5009H10.5035V18.5034Z" fill="#000001"/>
<path id="Vector_21" d="M10.5036 13.5029H9.49951V14.5004H10.5036V13.5029Z" fill="#000001"/>
<path id="Vector_22" d="M10.5036 9.49976H9.49951V11.5013H10.5036V9.49976Z" fill="#000001"/>
<path id="Vector_23" d="M15.5041 3.50146H8.50195V4.50553H15.5041V3.50146Z" fill="#000001"/>
<path id="Vector_24" d="M15.5041 1.5H8.50195V2.50406H15.5041V1.5Z" fill="#000001"/>
<path id="Vector_25" d="M8.50211 19.501H7.49805V20.505H8.50211V19.501Z" fill="#000001"/>
<path id="Vector_26" d="M8.50211 17.5059H7.49805V18.5034H8.50211V17.5059Z" fill="#000001"/>
<path id="Vector_27" d="M8.50205 4.50562H6.50049V5.50312H8.50205V4.50562Z" fill="#000001"/>
<path id="Vector_28" d="M8.50205 2.50415H6.50049V3.50165H8.50205V2.50415Z" fill="#000001"/>
<path id="Vector_29" d="M7.49799 18.5034H6.50049V19.5009H7.49799V18.5034Z" fill="#000001"/>
<path id="Vector_30" d="M7.49799 15.5044H6.50049V17.506H7.49799V15.5044Z" fill="#000001"/>
<path id="Vector_31" d="M6.50043 17.5059H5.50293V18.5034H6.50043V17.5059Z" fill="#000001"/>
<path id="Vector_32" d="M6.50043 5.50317H5.50293V15.5044H6.50043V5.50317Z" fill="#000001"/>
<path id="Vector_33" d="M6.50059 3.50146H4.49902V4.50553H6.50059V3.50146Z" fill="#000001"/>
<path id="Vector_34" d="M5.50309 15.5044H4.49902V17.506H5.50309V15.5044Z" fill="#000001"/>
<path id="Vector_35" d="M4.49896 4.50562H3.50146V15.5044H4.49896V4.50562Z" fill="#000001"/>
</g>
</g>
</svg>
