<svg width="24" height="24" viewBox="0 0 24 24" fill="none" xmlns="http://www.w3.org/2000/svg">
<g id="business-products-bag">
<g id="Group">
<path id="Vector" d="M21.998 6.99951H21.0005V11.0026H21.998V6.99951Z" fill="#000001"/>
<path id="Vector_2" d="M21.0002 6.00195H19.9961V6.99945H21.0002V6.00195Z" fill="#000001"/>
<path id="Vector_3" d="M19.9965 19.9998H18.999V21.0038H19.9965V19.9998Z" fill="#000001"/>
<path id="Vector_4" d="M18.999 11.9999H19.9965V19.9996H21.0006V11.0024H18.999V11.9999Z" fill="#000001"/>
<path id="Vector_5" d="M18.9986 12H16.9971V13.0041H18.9986V12Z" fill="#000001"/>
<path id="Vector_6" d="M18.9988 21.0037H5.00098V22.0012H18.9988V21.0037Z" fill="#000001"/>
<path id="Vector_7" d="M16.9974 13.0042H15.0024V14.0016H16.9974V13.0042Z" fill="#000001"/>
<path id="Vector_8" d="M10.9991 14.9991V17.0007H13.0007V14.9991H15.0022V14.0016H13.0007V13.0042H10.9991V14.0016H8.99756V14.9991H10.9991Z" fill="#000001"/>
<path id="Vector_9" d="M16.9973 1.99878H6.99609V3.00284H16.9973V1.99878Z" fill="#000001"/>
<path id="Vector_10" d="M8.99766 13.0042H6.99609V14.0016H8.99766V13.0042Z" fill="#000001"/>
<path id="Vector_11" d="M6.99598 12H5.00098V13.0041H6.99598V12Z" fill="#000001"/>
<path id="Vector_12" d="M19.9964 6.00199V5.00449H18.0014V3.00293H16.9974V5.00449H6.99613V3.00293H5.99863V5.00449H3.99707V6.00199H19.9964Z" fill="#000001"/>
<path id="Vector_13" d="M5.00113 19.9998H3.99707V21.0038H5.00113V19.9998Z" fill="#000001"/>
<path id="Vector_14" d="M3.99701 11.9999H5.00107V11.0024H2.99951V19.9996H3.99701V11.9999Z" fill="#000001"/>
<path id="Vector_15" d="M3.99701 6.00195H2.99951V6.99945H3.99701V6.00195Z" fill="#000001"/>
<path id="Vector_16" d="M2.99945 6.99951H2.00195V11.0026H2.99945V6.99951Z" fill="#000001"/>
</g>
</g>
</svg>
