<svg width="24" height="24" viewBox="0 0 24 24" fill="none" xmlns="http://www.w3.org/2000/svg">
<g id="Business-Products-treasure">
<g id="Group">
<path id="Vector" d="M2.50098 10.5036V19.5008H3.49848V11.5011H16.4988V19.5008H3.49848V20.4983H20.5019V19.5008H17.5029V11.5011H20.5019V19.5008H21.4994V6.50049H20.5019V9.49955H19.4979V10.5036H6.49754V9.49955H5.50004V10.5036H2.50098Z" fill="#000001"/>
<path id="Vector_2" d="M20.5021 5.50293H19.498V6.50043H20.5021V5.50293Z" fill="#000001"/>
<path id="Vector_3" d="M19.498 12.4985H18.5005V18.5032H19.498V12.4985Z" fill="#000001"/>
<path id="Vector_4" d="M19.498 8.5022H18.5005V9.4997H19.498V8.5022Z" fill="#000001"/>
<path id="Vector_5" d="M19.498 4.49902H18.5005V5.50309H19.498V4.49902Z" fill="#000001"/>
<path id="Vector_6" d="M18.5004 7.49805H17.5029V8.50211H18.5004V7.49805Z" fill="#000001"/>
<path id="Vector_7" d="M18.5004 5.50293H17.5029V6.50043H18.5004V5.50293Z" fill="#000001"/>
<path id="Vector_8" d="M10.5006 14.5001H9.49658V18.5032H14.4972V12.4985H10.5006V14.5001ZM13.4997 15.4976V17.4992H10.5006V15.4976H13.4997Z" fill="#000001"/>
<path id="Vector_9" d="M9.49652 12.4985H8.49902V13.5026H9.49652V12.4985Z" fill="#000001"/>
<path id="Vector_10" d="M7.5015 12.4985H4.50244V18.5032H8.499V14.5001H7.5015V12.4985ZM7.5015 17.4992H5.50322V15.4976H7.50479L7.5015 17.4992Z" fill="#000001"/>
<path id="Vector_11" d="M18.5003 3.50146H4.50244V4.49896H18.5003V3.50146Z" fill="#000001"/>
<path id="Vector_12" d="M5.49994 8.5022H4.50244V9.4997H5.49994V8.5022Z" fill="#000001"/>
<path id="Vector_13" d="M17.5029 7.49793V6.50043H3.49848V5.50293H2.50098V7.49793H3.49848V8.50199H4.50254V7.49793H17.5029Z" fill="#000001"/>
<path id="Vector_14" d="M4.5026 4.49902H3.49854V5.50309H4.5026V4.49902Z" fill="#000001"/>
</g>
</g>
</svg>
