<svg width="24" height="24" viewBox="0 0 24 24" fill="none" xmlns="http://www.w3.org/2000/svg">
<g id="business-money-coin-currency">
<g id="Group">
<path id="Vector" d="M13.4994 5.49985H15.501V6.49735H16.4985V7.50142H17.5025V9.50298H18.5V14.497H17.5025V16.4986H16.4985V17.5027H15.501V18.5002H13.4994V19.4977H8.49878V20.5017H15.501V19.4977H17.5025V18.5002H18.5V17.5027H19.5041V16.4986H20.5016V14.497H21.4991V9.50298H20.5016V7.50142H19.5041V6.49735H18.5V5.49985H17.5025V4.50235H15.501V3.49829H8.49878V4.50235H13.4994V5.49985Z" fill="#000001"/>
<path id="Vector_2" d="M17.5026 9.50293H16.4985V14.497H17.5026V9.50293Z" fill="#000001"/>
<path id="Vector_3" d="M16.4985 14.4971H15.501V15.5011H16.4985V14.4971Z" fill="#000001"/>
<path id="Vector_4" d="M16.4985 8.49902H15.501V9.50309H16.4985V8.49902Z" fill="#000001"/>
<path id="Vector_5" d="M15.5012 15.5012H14.5037V16.4987H15.5012V15.5012Z" fill="#000001"/>
<path id="Vector_6" d="M15.5012 7.50146H14.5037V8.49896H15.5012V7.50146Z" fill="#000001"/>
<path id="Vector_7" d="M14.5036 16.4985H13.4995V17.5026H14.5036V16.4985Z" fill="#000001"/>
<path id="Vector_8" d="M14.5036 6.49731H13.4995V7.50138H14.5036V6.49731Z" fill="#000001"/>
<path id="Vector_9" d="M13.4994 17.5027H8.49878V18.5002H13.4994V17.5027Z" fill="#000001"/>
<path id="Vector_10" d="M13.4995 12.502H12.502V14.497H13.4995V12.502Z" fill="#000001"/>
<path id="Vector_11" d="M13.4995 9.50293H12.502V10.5004H13.4995V9.50293Z" fill="#000001"/>
<path id="Vector_12" d="M13.4994 5.49976H8.49878V6.49726H13.4994V5.49976Z" fill="#000001"/>
<path id="Vector_13" d="M10.5004 15.5012V16.4987H11.4979V15.5012H12.502V14.4971H11.4979V12.5021H12.502V11.498H11.4979V9.50303H12.502V8.49896H11.4979V7.50146H10.5004V8.49896H9.50293V9.50303H10.5004V11.498H9.50293V12.5021H10.5004V14.4971H9.50293V15.5012H10.5004Z" fill="#000001"/>
<path id="Vector_14" d="M9.50284 13.4995H8.49878V14.497H9.50284V13.4995Z" fill="#000001"/>
<path id="Vector_15" d="M9.50284 9.50293H8.49878V11.4979H9.50284V9.50293Z" fill="#000001"/>
<path id="Vector_16" d="M8.49891 18.5002H6.50391V19.4977H8.49891V18.5002Z" fill="#000001"/>
<path id="Vector_17" d="M8.49896 16.4985H7.50146V17.5026H8.49896V16.4985Z" fill="#000001"/>
<path id="Vector_18" d="M8.49896 6.49731H7.50146V7.50138H8.49896V6.49731Z" fill="#000001"/>
<path id="Vector_19" d="M8.49891 4.50244H6.50391V5.49994H8.49891V4.50244Z" fill="#000001"/>
<path id="Vector_20" d="M7.50141 15.5012H6.50391V16.4987H7.50141V15.5012Z" fill="#000001"/>
<path id="Vector_21" d="M7.50141 7.50146H6.50391V8.49896H7.50141V7.50146Z" fill="#000001"/>
<path id="Vector_22" d="M6.50382 17.5027H5.49976V18.5002H6.50382V17.5027Z" fill="#000001"/>
<path id="Vector_23" d="M6.50382 14.4971H5.49976V15.5011H6.50382V14.4971Z" fill="#000001"/>
<path id="Vector_24" d="M6.50382 8.49902H5.49976V9.50309H6.50382V8.49902Z" fill="#000001"/>
<path id="Vector_25" d="M6.50382 5.49976H5.49976V6.49726H6.50382V5.49976Z" fill="#000001"/>
<path id="Vector_26" d="M5.4997 16.4985H4.5022V17.5026H5.4997V16.4985Z" fill="#000001"/>
<path id="Vector_27" d="M5.4997 9.50293H4.5022V14.497H5.4997V9.50293Z" fill="#000001"/>
<path id="Vector_28" d="M5.4997 6.49731H4.5022V7.50138H5.4997V6.49731Z" fill="#000001"/>
<path id="Vector_29" d="M4.50235 14.4971H3.49829V16.4986H4.50235V14.4971Z" fill="#000001"/>
<path id="Vector_30" d="M4.50235 7.50146H3.49829V9.50303H4.50235V7.50146Z" fill="#000001"/>
<path id="Vector_31" d="M3.49823 9.50293H2.50073V14.497H3.49823V9.50293Z" fill="#000001"/>
</g>
</g>
</svg>
