<svg width="24" height="24" viewBox="0 0 24 24" fill="none" xmlns="http://www.w3.org/2000/svg">
<g id="business-products-network-user">
<g id="Group">
<path id="Vector" d="M21.998 11.5012H21.0005V17.4993H21.998V11.5012Z" fill="#000001"/>
<path id="Vector_2" d="M21.0004 10.5037H20.0029V11.5012H21.0004V10.5037Z" fill="#000001"/>
<path id="Vector_3" d="M20.003 13.5029H18.9989V15.4979H15.9999V13.5029H15.0024V17.4995H13.9983V18.5036H15.0024V22.5001H17.0039V19.5011H18.0014V22.5001H20.003V18.5036H21.0005V17.4995H20.003V13.5029Z" fill="#000001"/>
<path id="Vector_4" d="M20.0028 9.49976H18.9988V10.5038H20.0028V9.49976Z" fill="#000001"/>
<path id="Vector_5" d="M20.0028 7.49805H18.9988V8.50211H20.0028V7.49805Z" fill="#000001"/>
<path id="Vector_6" d="M18.0014 10.5037H17.0039V13.5027H18.0014V10.5037Z" fill="#000001"/>
<path id="Vector_7" d="M18.9988 8.5022H15.9998V9.4997H18.9988V8.5022Z" fill="#000001"/>
<path id="Vector_8" d="M15.9997 9.49976H15.0022V10.5038H15.9997V9.49976Z" fill="#000001"/>
<path id="Vector_9" d="M15.9997 7.49805H15.0022V8.50211H15.9997V7.49805Z" fill="#000001"/>
<path id="Vector_10" d="M15.0024 10.5037H13.9983V11.5012H15.0024V10.5037Z" fill="#000001"/>
<path id="Vector_11" d="M15.9999 5.50312V4.49906H18.9989V5.50312H20.003V7.49813H21.0005V3.50156H20.003V2.4975H18.9989V1.5H15.9999V2.4975H15.0024V3.50156H13.9983V7.49813H15.0024V5.50312H15.9999Z" fill="#000001"/>
<path id="Vector_12" d="M13.9982 11.5012H13.0007V17.4993H13.9982V11.5012Z" fill="#000001"/>
<path id="Vector_13" d="M13.0007 19.501H12.0032V20.4985H13.0007V19.501Z" fill="#000001"/>
<path id="Vector_14" d="M13.0007 3.50146H12.0032V4.49896H13.0007V3.50146Z" fill="#000001"/>
<path id="Vector_15" d="M12.0033 18.5034H10.0017V19.5009H12.0033V18.5034Z" fill="#000001"/>
<path id="Vector_16" d="M12.0033 4.49902H10.0017V5.50309H12.0033V4.49902Z" fill="#000001"/>
<path id="Vector_17" d="M13.0008 1.5H10.0017V2.4975H13.0008V1.5Z" fill="#000001"/>
<path id="Vector_18" d="M13.0008 21.5024H10.0017V22.4999H13.0008V21.5024Z" fill="#000001"/>
<path id="Vector_19" d="M4.00342 16.5018V18.5034H5.00092V17.4993H8.99748V18.5034H10.0015V17.4993H10.999V16.5018H7.99998V14.5002H7.00248V16.5018H4.00342Z" fill="#000001"/>
<path id="Vector_20" d="M10.0016 2.49756H8V3.50162H10.0016V2.49756Z" fill="#000001"/>
<path id="Vector_21" d="M10.0016 20.4985H8V21.5026H10.0016V20.4985Z" fill="#000001"/>
<path id="Vector_22" d="M8.0001 3.50146H5.99854V4.49896H8.0001V3.50146Z" fill="#000001"/>
<path id="Vector_23" d="M8.0001 19.501H5.99854V20.4985H8.0001V19.501Z" fill="#000001"/>
<path id="Vector_24" d="M5.99848 18.5034H5.00098V19.5009H5.99848V18.5034Z" fill="#000001"/>
<path id="Vector_25" d="M4.00342 7.49817H7.00248V9.49974H7.99998V7.49817H13.0006V6.50067H10.0015V5.50317H8.99748V6.50067H5.00092V5.50317H4.00342V7.49817Z" fill="#000001"/>
<path id="Vector_26" d="M5.99848 4.49902H5.00098V5.50309H5.99848V4.49902Z" fill="#000001"/>
<path id="Vector_27" d="M4.00357 14.5002H2.99951V16.5018H4.00357V14.5002Z" fill="#000001"/>
<path id="Vector_28" d="M4.00357 7.49805H2.99951V9.49961H4.00357V7.49805Z" fill="#000001"/>
<path id="Vector_29" d="M5.99852 11.5013H2.99945V9.49976H2.00195V14.5004H2.99945V12.4988H5.99852V14.5004H7.00258V12.4988H10.9991V11.5013H7.00258V9.49976H5.99852V11.5013Z" fill="#000001"/>
</g>
</g>
</svg>
