<svg width="24" height="24" viewBox="0 0 24 24" fill="none" xmlns="http://www.w3.org/2000/svg">
<g id="business-products-performance-money-increase">
<g id="Group">
<path id="Vector" d="M21.5024 15.5043H20.5049V16.5018H21.5024V17.4993H22.4999V14.5002H21.5024V15.5043Z" fill="#000001"/>
<path id="Vector_2" d="M21.5024 17.4993H20.5049V18.5033H21.5024V17.4993Z" fill="#000001"/>
<path id="Vector_3" d="M21.5024 13.5029H20.5049V14.5004H21.5024V13.5029Z" fill="#000001"/>
<path id="Vector_4" d="M20.5051 16.502H16.502V17.4995H20.5051V16.502Z" fill="#000001"/>
<path id="Vector_5" d="M20.5051 12.4988H16.502V13.5028H20.5051V12.4988Z" fill="#000001"/>
<path id="Vector_6" d="M20.5051 18.5034H16.502V19.5009H20.5051V18.5034Z" fill="#000001"/>
<path id="Vector_7" d="M16.5019 13.5029H15.5044V14.5004H16.5019V13.5029Z" fill="#000001"/>
<path id="Vector_8" d="M14.5004 16.5019H13.5029V17.4994H14.5004V18.5035H13.5029V19.501H14.5004V20.4985H15.5045V15.5044H14.5004V16.5019Z" fill="#000001"/>
<path id="Vector_9" d="M14.5004 20.4985H13.5029V21.5026H14.5004V20.4985Z" fill="#000001"/>
<path id="Vector_10" d="M14.5004 14.5002H13.5029V15.5043H14.5004V14.5002Z" fill="#000001"/>
<path id="Vector_11" d="M13.5026 21.5024H8.50195V22.4999H13.5026V21.5024Z" fill="#000001"/>
<path id="Vector_12" d="M13.5026 19.501H8.50195V20.4985H13.5026V19.501Z" fill="#000001"/>
<path id="Vector_13" d="M13.5026 17.4993H8.50195V18.5033H13.5026V17.4993Z" fill="#000001"/>
<path id="Vector_14" d="M13.5026 13.5029H8.50195V14.5004H13.5026V13.5029Z" fill="#000001"/>
<path id="Vector_15" d="M8.50195 11.5012V12.4987H10.5035V10.5037H9.49945V11.5012H8.50195Z" fill="#000001"/>
<path id="Vector_16" d="M9.49945 9.49976H8.50195V10.5038H9.49945V9.49976Z" fill="#000001"/>
<path id="Vector_17" d="M8.50238 20.4985H7.50488V21.5026H8.50238V20.4985Z" fill="#000001"/>
<path id="Vector_18" d="M8.50205 19.501V18.5035H7.50455V17.4994H8.50205V16.5019H7.50455V15.5044H6.50049V20.4985H7.50455V19.501H8.50205Z" fill="#000001"/>
<path id="Vector_19" d="M8.50238 14.5002H7.50488V15.5043H8.50238V14.5002Z" fill="#000001"/>
<path id="Vector_20" d="M8.50209 12.4988H3.50146V13.5028H8.50209V12.4988Z" fill="#000001"/>
<path id="Vector_21" d="M20.5048 7.49813V1.5H14.5001V2.50406H15.5042V3.50156H16.5017V4.49906H15.5042V5.50312H13.5026V4.49906H12.5051V3.50156H11.5011V2.50406H9.49949V3.50156H8.50199V4.49906H7.50449V5.50312H6.50043V6.50062H5.50293V7.49813H7.50449V6.50062H8.50199V5.50312H9.49949V4.49906H11.5011V5.50312H12.5051V6.50062H13.5026V7.49813H15.5042V6.50062H16.5017V5.50312H18.5032V6.50062H19.5007V7.49813H20.5048Z" fill="#000001"/>
<path id="Vector_22" d="M8.50209 8.5022H3.50146V9.4997H8.50209V8.5022Z" fill="#000001"/>
<path id="Vector_23" d="M5.50303 19.501H3.50146V20.4985H5.50303V19.501Z" fill="#000001"/>
<path id="Vector_24" d="M5.50303 16.502H3.50146V17.4995H5.50303V16.502Z" fill="#000001"/>
<path id="Vector_25" d="M5.50303 14.5002H3.50146V15.5043H5.50303V14.5002Z" fill="#000001"/>
<path id="Vector_26" d="M3.50141 18.5034H2.50391V19.5009H3.50141V18.5034Z" fill="#000001"/>
<path id="Vector_27" d="M3.50141 9.49976H2.50391V10.5038H3.50141V9.49976Z" fill="#000001"/>
<path id="Vector_28" d="M2.50406 12.4987H3.50156V11.5012H2.50406V10.5037H1.5V18.5033H2.50406V16.5018H3.50156V15.5043H2.50406V14.5002H3.50156V13.5027H2.50406V12.4987Z" fill="#000001"/>
</g>
</g>
</svg>
