<svg width="24" height="24" viewBox="0 0 24 24" fill="none" xmlns="http://www.w3.org/2000/svg">
<g id="business-products-factory">
<g id="Group">
<path id="Vector" d="M22.5002 7.50146H21.4961V21.4993H22.5002V7.50146Z" fill="#000001"/>
<path id="Vector_2" d="M21.4961 2.50073H18.4971V7.50136H19.5011V3.49823H20.4986V7.50136H21.4961V2.50073Z" fill="#000001"/>
<path id="Vector_3" d="M20.4985 17.5027H19.501V18.5002H20.4985V17.5027Z" fill="#000001"/>
<path id="Vector_4" d="M20.4985 13.4995H19.501V14.497H20.4985V13.4995Z" fill="#000001"/>
<path id="Vector_5" d="M20.4985 9.50293H19.501V10.5004H20.4985V9.50293Z" fill="#000001"/>
<path id="Vector_6" d="M17.4996 9.50303H15.498V10.5005H17.4996V21.4993H18.4971V7.50146H17.4996V9.50303Z" fill="#000001"/>
<path id="Vector_7" d="M16.5021 3.49829H15.498V4.50235H16.5021V3.49829Z" fill="#000001"/>
<path id="Vector_8" d="M16.5021 13.4995H14.5005V15.5011H16.5021V13.4995Z" fill="#000001"/>
<path id="Vector_9" d="M15.4977 2.50073H13.4961V3.49823H15.4977V2.50073Z" fill="#000001"/>
<path id="Vector_10" d="M15.4977 10.5005H13.4961V11.498H15.4977V10.5005Z" fill="#000001"/>
<path id="Vector_11" d="M13.4965 17.5027H11.5015V19.4977H13.4965V17.5027Z" fill="#000001"/>
<path id="Vector_12" d="M13.4965 11.4978H11.5015V12.5019H13.4965V11.4978Z" fill="#000001"/>
<path id="Vector_13" d="M13.4965 3.49829H11.5015V4.50235H13.4965V3.49829Z" fill="#000001"/>
<path id="Vector_14" d="M11.5011 2.50073H10.4971V3.49823H11.5011V2.50073Z" fill="#000001"/>
<path id="Vector_15" d="M10.4972 9.50293H8.49561V10.5004H9.49967V21.4992H10.4972V13.4995H11.5012V12.502H10.4972V9.50293Z" fill="#000001"/>
<path id="Vector_16" d="M8.49555 5.49976H7.49805V6.49726H8.49555V5.49976Z" fill="#000001"/>
<path id="Vector_17" d="M8.49549 13.4995H6.50049V15.5011H8.49549V13.4995Z" fill="#000001"/>
<path id="Vector_18" d="M8.49549 10.5005H6.50049V11.498H8.49549V10.5005Z" fill="#000001"/>
<path id="Vector_19" d="M7.49814 4.5022H5.49658V5.4997H7.49814V4.5022Z" fill="#000001"/>
<path id="Vector_20" d="M6.50059 11.4978H4.49902V12.5019H6.50059V11.4978Z" fill="#000001"/>
<path id="Vector_21" d="M5.49646 17.5027H3.50146V19.4977H5.49646V17.5027Z" fill="#000001"/>
<path id="Vector_22" d="M5.49646 5.49976H3.50146V6.49726H5.49646V5.49976Z" fill="#000001"/>
<path id="Vector_23" d="M4.49912 12.502H2.49756V13.4995H4.49912V12.502Z" fill="#000001"/>
<path id="Vector_24" d="M3.50162 4.5022H2.49756V5.4997H3.50162V4.5022Z" fill="#000001"/>
<path id="Vector_25" d="M2.4975 13.4995H1.5V21.4992H2.4975V13.4995Z" fill="#000001"/>
</g>
</g>
</svg>
