<svg width="24" height="24" viewBox="0 0 24 24" fill="none" xmlns="http://www.w3.org/2000/svg">
<g id="business-products-cash-search">
<g id="Group">
<path id="Vector" d="M21.0038 17.0007H19.9998V15.9966H19.0023V14.9991H18.0048V12.9976H17.0007V14.9991H16.0032V15.9966H14.9991V17.0007H13.0042V17.9982H14.9991V19.0022H16.0032V19.9997H17.0007V20.9972H18.0048V22.0013H21.0038V20.9972H22.0013V17.9982H21.0038V17.0007ZM21.0038 19.9997H19.9998V19.0022H19.0023V17.9982H18.0048V17.0007H19.0023V17.9982H19.9998V19.0022H21.0038V19.9997Z" fill="#000001"/>
<path id="Vector_2" d="M19.0021 7.99683H18.0046V12.9975H19.0021V7.99683Z" fill="#000001"/>
<path id="Vector_3" d="M18.0048 6.00195H17.0007V7.99695H18.0048V6.00195Z" fill="#000001"/>
<path id="Vector_4" d="M17.0007 4.9978H16.0032V6.00187H17.0007V4.9978Z" fill="#000001"/>
<path id="Vector_5" d="M16.0031 7.99683H14.999V12.9975H16.0031V7.99683Z" fill="#000001"/>
<path id="Vector_6" d="M16.0031 4.00024H14.999V4.99774H16.0031V4.00024Z" fill="#000001"/>
<path id="Vector_7" d="M14.9992 12.9976H14.0017V14.0016H14.9992V12.9976Z" fill="#000001"/>
<path id="Vector_8" d="M14.9992 6.99951H14.0017V7.99701H14.9992V6.99951Z" fill="#000001"/>
<path id="Vector_9" d="M14.0016 14.0017H13.0042V14.9992H14.0016V14.0017Z" fill="#000001"/>
<path id="Vector_10" d="M14.0016 6.00195H13.0042V6.99945H14.0016V6.00195Z" fill="#000001"/>
<path id="Vector_11" d="M14.9991 2.99634H13.0042V4.0004H14.9991V2.99634Z" fill="#000001"/>
<path id="Vector_12" d="M13.004 14.999H8.00342V15.9965H13.004V14.999Z" fill="#000001"/>
<path id="Vector_13" d="M13.0041 10.9958H12V11.9999H13.0041V10.9958Z" fill="#000001"/>
<path id="Vector_14" d="M13.004 17.998H8.00342V19.0021H13.004V17.998Z" fill="#000001"/>
<path id="Vector_15" d="M9.00098 12V12.9975H10.005V14.0016H11.0025V12.9975H12V12H9.00098Z" fill="#000001"/>
<path id="Vector_16" d="M12 9.00107V7.99701H11.0025V6.99951H10.005V7.99701H9.00098V9.00107H12Z" fill="#000001"/>
<path id="Vector_17" d="M12 9.99854H9.00098V10.996H12V9.99854Z" fill="#000001"/>
<path id="Vector_18" d="M13.004 4.9978H8.00342V6.00187H13.004V4.9978Z" fill="#000001"/>
<path id="Vector_19" d="M13.004 1.99878H8.00342V2.99628H13.004V1.99878Z" fill="#000001"/>
<path id="Vector_20" d="M9.00092 9.00098H8.00342V9.99848H9.00092V9.00098Z" fill="#000001"/>
<path id="Vector_21" d="M8.00352 17.0007H6.00195V17.9982H8.00352V17.0007Z" fill="#000001"/>
<path id="Vector_22" d="M8.00357 14.0017H6.99951V14.9992H8.00357V14.0017Z" fill="#000001"/>
<path id="Vector_23" d="M8.00357 6.00195H6.99951V6.99945H8.00357V6.00195Z" fill="#000001"/>
<path id="Vector_24" d="M8.00352 2.99634H6.00195V4.0004H8.00352V2.99634Z" fill="#000001"/>
<path id="Vector_25" d="M6.99945 12.9976H6.00195V14.0016H6.99945V12.9976Z" fill="#000001"/>
<path id="Vector_26" d="M6.99945 6.99951H6.00195V7.99701H6.99945V6.99951Z" fill="#000001"/>
<path id="Vector_27" d="M6.00189 15.9966H5.00439V17.0006H6.00189V15.9966Z" fill="#000001"/>
<path id="Vector_28" d="M6.00189 7.99683H5.00439V12.9975H6.00189V7.99683Z" fill="#000001"/>
<path id="Vector_29" d="M6.00189 4.00024H5.00439V4.99774H6.00189V4.00024Z" fill="#000001"/>
<path id="Vector_30" d="M5.00431 14.999H4.00024V15.9965H5.00431V14.999Z" fill="#000001"/>
<path id="Vector_31" d="M5.00431 4.9978H4.00024V6.00187H5.00431V4.9978Z" fill="#000001"/>
<path id="Vector_32" d="M4.00043 12.9976H3.00293V14.9991H4.00043V12.9976Z" fill="#000001"/>
<path id="Vector_33" d="M4.00043 6.00195H3.00293V7.99695H4.00043V6.00195Z" fill="#000001"/>
<path id="Vector_34" d="M3.00284 7.99683H1.99878V12.9975H3.00284V7.99683Z" fill="#000001"/>
</g>
</g>
</svg>
