<svg width="24" height="24" viewBox="0 0 24 24" fill="none" xmlns="http://www.w3.org/2000/svg">
<g id="business-product-scale">
<g id="Group">
<path id="Vector" d="M17.0006 11.5013V9.49976H16.0031V11.5013H14.999V13.5029H16.0031V14.5004H17.0006V15.4979H19.9996V14.5004H20.9971V13.5029H22.0012V11.5013H20.9971V9.49976H19.9996V11.5013H17.0006Z" fill="#000001"/>
<path id="Vector_2" d="M19.9997 7.49805H19.0022V9.49961H19.9997V7.49805Z" fill="#000001"/>
<path id="Vector_3" d="M17.9982 7.49803H19.0022V4.49896H19.9997V3.50146H17.9982V4.49896H16.0032V5.50303H17.9982V7.49803Z" fill="#000001"/>
<path id="Vector_4" d="M17.9982 7.49805H17.0007V9.49961H17.9982V7.49805Z" fill="#000001"/>
<path id="Vector_5" d="M9.99839 21.5026V20.4985H9.00089V21.5026H7.99683V22.5001H17.0006V21.5026H16.0031V20.4985H14.999V21.5026H9.99839Z" fill="#000001"/>
<path id="Vector_6" d="M16.0033 5.50317H14.0017V6.50067H16.0033V5.50317Z" fill="#000001"/>
<path id="Vector_7" d="M14.0016 2.49756H12.9976V3.50162H14.0016V2.49756Z" fill="#000001"/>
<path id="Vector_8" d="M12.0001 19.5008H9.99854V20.4983H14.9992V19.5008H12.9976V7.49803H14.0017V6.50053H12.9976V3.50146H12.0001V7.49803H9.99854V8.50209H12.0001V19.5008Z" fill="#000001"/>
<path id="Vector_9" d="M12.9975 1.5H12V2.4975H12.9975V1.5Z" fill="#000001"/>
<path id="Vector_10" d="M11.9999 2.49756H11.0024V3.50162H11.9999V2.49756Z" fill="#000001"/>
<path id="Vector_11" d="M9.99839 8.5022H7.99683V9.4997H9.99839V8.5022Z" fill="#000001"/>
<path id="Vector_12" d="M4.00034 16.5018V14.5002H3.00284V16.5018H1.99878V18.5034H3.00284V19.5009H4.00034V20.4984H6.9994V19.5009H7.9969V18.5034H9.00097V16.5018H7.9969V14.5002H6.9994V16.5018H4.00034Z" fill="#000001"/>
<path id="Vector_13" d="M6.99945 12.4988H6.00195V14.5003H6.99945V12.4988Z" fill="#000001"/>
<path id="Vector_14" d="M7.99695 9.49976H6.00195V10.5038H7.99695V9.49976Z" fill="#000001"/>
<path id="Vector_15" d="M4.99774 12.4988H4.00024V14.5003H4.99774V12.4988Z" fill="#000001"/>
<path id="Vector_16" d="M6.00181 12.4987V10.5037H4.00024V11.5012H4.99774V12.4987H6.00181Z" fill="#000001"/>
</g>
</g>
</svg>
