<svg width="24" height="24" viewBox="0 0 24 24" fill="none" xmlns="http://www.w3.org/2000/svg">
<g id="business-product-check">
<g id="Group">
<path id="Vector" d="M21.499 11.5044H20.5015V12.5019H21.499V11.5044Z" fill="#000001"/>
<path id="Vector_2" d="M20.5016 12.502H19.4976V13.4995H20.5016V12.502Z" fill="#000001"/>
<path id="Vector_3" d="M20.5016 10.5005H19.4976V11.5046H20.5016V10.5005Z" fill="#000001"/>
<path id="Vector_4" d="M19.4975 13.4995H18.5V14.5036H19.4975V13.4995Z" fill="#000001"/>
<path id="Vector_5" d="M19.4975 9.50293H18.5V10.5004H19.4975V9.50293Z" fill="#000001"/>
<path id="Vector_6" d="M17.5022 17.5027H14.4966V18.5002H18.4997V14.5037H17.5022V17.5027Z" fill="#000001"/>
<path id="Vector_7" d="M11.4975 12.5019H10.5V11.5044H9.49598V10.5003H8.49848V11.5044H7.50098V12.5019H8.49848V13.4994H9.49598V14.5035H10.5V15.501H11.4975V14.5035H12.5016V13.4994H13.4991V12.5019H14.4966V11.5044H15.5007V10.5003H16.4982V9.50284H15.5007V8.49878H14.4966V9.50284H13.4991V10.5003H12.5016V11.5044H11.4975V12.5019Z" fill="#000001"/>
<path id="Vector_8" d="M17.5022 6.50382V9.50288H18.4997V5.49976H14.4966V6.50382H17.5022Z" fill="#000001"/>
<path id="Vector_9" d="M14.4965 18.5H13.499V19.5041H14.4965V18.5Z" fill="#000001"/>
<path id="Vector_10" d="M14.4965 4.5022H13.499V5.4997H14.4965V4.5022Z" fill="#000001"/>
<path id="Vector_11" d="M13.4995 19.5042H12.502V20.5017H13.4995V19.5042Z" fill="#000001"/>
<path id="Vector_12" d="M13.4995 3.50488H12.502V4.50238H13.4995V3.50488Z" fill="#000001"/>
<path id="Vector_13" d="M12.5016 20.5017H11.4976V21.4992H12.5016V20.5017Z" fill="#000001"/>
<path id="Vector_14" d="M12.5016 2.50073H11.4976V3.50479H12.5016V2.50073Z" fill="#000001"/>
<path id="Vector_15" d="M11.4975 19.5042H10.5V20.5017H11.4975V19.5042Z" fill="#000001"/>
<path id="Vector_16" d="M11.4975 3.50488H10.5V4.50238H11.4975V3.50488Z" fill="#000001"/>
<path id="Vector_17" d="M10.5002 18.5H9.49609V19.5041H10.5002V18.5Z" fill="#000001"/>
<path id="Vector_18" d="M10.5002 4.5022H9.49609V5.4997H10.5002V4.5022Z" fill="#000001"/>
<path id="Vector_19" d="M6.49701 17.5027V14.5037H5.49951V18.5002H9.49607V17.5027H6.49701Z" fill="#000001"/>
<path id="Vector_20" d="M6.49701 6.50382H9.49607V5.49976H5.49951V9.50288H6.49701V6.50382Z" fill="#000001"/>
<path id="Vector_21" d="M5.49945 13.4995H4.50195V14.5036H5.49945V13.4995Z" fill="#000001"/>
<path id="Vector_22" d="M5.49945 9.50293H4.50195V10.5004H5.49945V9.50293Z" fill="#000001"/>
<path id="Vector_23" d="M4.50211 12.502H3.49805V13.4995H4.50211V12.502Z" fill="#000001"/>
<path id="Vector_24" d="M4.50211 10.5005H3.49805V11.5046H4.50211V10.5005Z" fill="#000001"/>
<path id="Vector_25" d="M3.49799 11.5044H2.50049V12.5019H3.49799V11.5044Z" fill="#000001"/>
</g>
</g>
</svg>
