<svg width="24" height="24" viewBox="0 0 24 24" fill="none" xmlns="http://www.w3.org/2000/svg">
<g id="business-product-startup-1">
<g id="Group">
<path id="Vector" d="M22.5001 20.4985H20.4985V21.5026H22.5001V20.4985Z" fill="#000001"/>
<path id="Vector_2" d="M20.4985 21.5024H19.501V22.4999H20.4985V21.5024Z" fill="#000001"/>
<path id="Vector_3" d="M19.5011 14.5003H18.4971V15.4978H19.5011V16.5018H20.4986V11.5012H19.5011V14.5003Z" fill="#000001"/>
<path id="Vector_4" d="M19.5011 20.4985H17.4995V21.5026H19.5011V20.4985Z" fill="#000001"/>
<path id="Vector_5" d="M19.5011 10.5037H18.4971V11.5012H19.5011V10.5037Z" fill="#000001"/>
<path id="Vector_6" d="M17.4996 19.501H15.498V20.4985H17.4996V19.501Z" fill="#000001"/>
<path id="Vector_7" d="M16.502 15.4979H17.4995V14.5004H18.497V13.5029H17.4995V10.5039H18.497V9.49979H17.4995V6.50073H16.502V15.4979Z" fill="#000001"/>
<path id="Vector_8" d="M15.498 21.5024H14.5005V22.4999H15.498V21.5024Z" fill="#000001"/>
<path id="Vector_9" d="M15.498 13.5029H14.5005V14.5004H15.498V13.5029Z" fill="#000001"/>
<path id="Vector_10" d="M15.498 11.5012H14.5005V12.4987H15.498V11.5012Z" fill="#000001"/>
<path id="Vector_11" d="M14.5002 19.501H13.4961V21.5025H14.5002V19.501Z" fill="#000001"/>
<path id="Vector_12" d="M14.5002 17.4993H10.4971V18.5033H14.5002V17.4993Z" fill="#000001"/>
<path id="Vector_13" d="M14.5002 2.49756H13.4961V3.50162H14.5002V2.49756Z" fill="#000001"/>
<path id="Vector_14" d="M13.4965 1.5H11.5015V2.4975H13.4965V1.5Z" fill="#000001"/>
<path id="Vector_15" d="M14.5002 7.49823H13.4961V6.50073H11.5011V7.49823H12.4986V8.5023H11.5011V7.49823H10.4971V9.49979H11.5011V10.5039H13.4961V9.49979H14.5002V7.49823Z" fill="#000001"/>
<path id="Vector_16" d="M11.5011 19.501H10.4971V21.5025H11.5011V19.501Z" fill="#000001"/>
<path id="Vector_17" d="M8.49561 16.5019H9.49967V17.4994H10.4972V16.5019H14.5003V17.4994H15.4978V16.5019H16.5019V15.4978H8.49561V16.5019Z" fill="#000001"/>
<path id="Vector_18" d="M11.5011 2.49756H10.4971V3.50162H11.5011V2.49756Z" fill="#000001"/>
<path id="Vector_19" d="M10.497 21.5024H9.49951V22.4999H10.497V21.5024Z" fill="#000001"/>
<path id="Vector_20" d="M9.49961 19.501H7.49805V20.4985H9.49961V19.501Z" fill="#000001"/>
<path id="Vector_21" d="M10.4972 4.49896V3.50146H9.49967V4.49896H8.49561V6.50053H9.49967V5.50303H15.4978V6.50053H16.5019V4.49896H15.4978V3.50146H14.5003V4.49896H10.4972Z" fill="#000001"/>
<path id="Vector_22" d="M8.49549 6.50073H7.49799V9.49979H6.50049V10.5039H7.49799V13.5029H6.50049V14.5004H7.49799V15.4979H8.49549V6.50073Z" fill="#000001"/>
<path id="Vector_23" d="M7.49814 20.4985H5.49658V21.5026H7.49814V20.4985Z" fill="#000001"/>
<path id="Vector_24" d="M6.50064 10.5037H5.49658V11.5012H6.50064V10.5037Z" fill="#000001"/>
<path id="Vector_25" d="M5.49652 21.5024H4.49902V22.4999H5.49652V21.5024Z" fill="#000001"/>
<path id="Vector_26" d="M5.49652 11.5012H4.49902V16.5018H5.49652V15.4978H6.50059V14.5003H5.49652V11.5012Z" fill="#000001"/>
<path id="Vector_27" d="M4.49912 20.4985H2.49756V21.5026H4.49912V20.4985Z" fill="#000001"/>
<path id="Vector_28" d="M2.4975 21.5024H1.5V22.4999H2.4975V21.5024Z" fill="#000001"/>
</g>
</g>
</svg>
