<svg width="24" height="24" viewBox="0 0 24 24" fill="none" xmlns="http://www.w3.org/2000/svg">
<g id="business-product-price-tag">
<g id="Group">
<path id="Vector" d="M22.5002 13.5029H21.4961V14.5004H22.5002V13.5029Z" fill="#000001"/>
<path id="Vector_2" d="M21.496 14.5002H20.4985V15.4977H21.496V14.5002Z" fill="#000001"/>
<path id="Vector_3" d="M21.496 12.4988H20.4985V13.5028H21.496V12.4988Z" fill="#000001"/>
<path id="Vector_4" d="M20.4985 15.4978H19.501V16.5019H20.4985V15.4978Z" fill="#000001"/>
<path id="Vector_5" d="M20.4985 11.5012H19.501V12.4987H20.4985V11.5012Z" fill="#000001"/>
<path id="Vector_6" d="M19.5011 16.502H18.4971V17.4995H19.5011V16.502Z" fill="#000001"/>
<path id="Vector_7" d="M19.5011 10.5037H18.4971V11.5012H19.5011V10.5037Z" fill="#000001"/>
<path id="Vector_8" d="M18.497 17.4993H17.4995V18.5033H18.497V17.4993Z" fill="#000001"/>
<path id="Vector_9" d="M18.497 9.49976H17.4995V10.5038H18.497V9.49976Z" fill="#000001"/>
<path id="Vector_10" d="M17.4995 18.5034H16.502V19.5009H17.4995V18.5034Z" fill="#000001"/>
<path id="Vector_11" d="M17.4995 8.5022H16.502V9.4997H17.4995V8.5022Z" fill="#000001"/>
<path id="Vector_12" d="M16.5021 19.501H15.498V20.4985H16.5021V19.501Z" fill="#000001"/>
<path id="Vector_13" d="M16.5021 15.4978H15.498V16.5019H16.5021V15.4978Z" fill="#000001"/>
<path id="Vector_14" d="M16.5021 12.4988H15.498V14.5003H16.5021V12.4988Z" fill="#000001"/>
<path id="Vector_15" d="M16.5021 7.49805H15.498V8.50211H16.5021V7.49805Z" fill="#000001"/>
<path id="Vector_16" d="M15.498 20.4985H14.5005V21.5026H15.498V20.4985Z" fill="#000001"/>
<path id="Vector_17" d="M15.498 14.5002H14.5005V15.4977H15.498V14.5002Z" fill="#000001"/>
<path id="Vector_18" d="M15.4977 11.5012H13.4961V12.4987H15.4977V11.5012Z" fill="#000001"/>
<path id="Vector_19" d="M15.498 6.50073H14.5005V7.49823H15.498V6.50073Z" fill="#000001"/>
<path id="Vector_20" d="M14.5002 21.5024H13.4961V22.4999H14.5002V21.5024Z" fill="#000001"/>
<path id="Vector_21" d="M14.5002 13.5029H13.4961V14.5004H14.5002V13.5029Z" fill="#000001"/>
<path id="Vector_22" d="M14.5002 5.50317H13.4961V6.50067H14.5002V5.50317Z" fill="#000001"/>
<path id="Vector_23" d="M13.496 20.4985H12.4985V21.5026H13.496V20.4985Z" fill="#000001"/>
<path id="Vector_24" d="M14.5001 15.4978H12.4985V16.5019H14.5001V15.4978Z" fill="#000001"/>
<path id="Vector_25" d="M13.496 12.4988H12.4985V13.5028H13.496V12.4988Z" fill="#000001"/>
<path id="Vector_26" d="M13.4965 9.49976H11.5015V10.5038H13.4965V9.49976Z" fill="#000001"/>
<path id="Vector_27" d="M13.496 4.49902H12.4985V5.50309H13.496V4.49902Z" fill="#000001"/>
<path id="Vector_28" d="M12.499 19.501H11.5015V20.4985H12.499V19.501Z" fill="#000001"/>
<path id="Vector_29" d="M12.499 11.5012H11.5015V12.4987H12.499V11.5012Z" fill="#000001"/>
<path id="Vector_30" d="M12.499 3.50146H11.5015V4.49896H12.499V3.50146Z" fill="#000001"/>
<path id="Vector_31" d="M11.5011 18.5034H10.4971V19.5009H11.5011V18.5034Z" fill="#000001"/>
<path id="Vector_32" d="M12.4986 13.5029H10.4971V14.5004H12.4986V13.5029Z" fill="#000001"/>
<path id="Vector_33" d="M11.5011 10.5037H10.4971V11.5012H11.5011V10.5037Z" fill="#000001"/>
<path id="Vector_34" d="M10.497 17.4993H9.49951V18.5033H10.497V17.4993Z" fill="#000001"/>
<path id="Vector_35" d="M10.497 11.5012H9.49951V13.5028H10.497V11.5012Z" fill="#000001"/>
<path id="Vector_36" d="M10.497 9.49976H9.49951V10.5038H10.497V9.49976Z" fill="#000001"/>
<path id="Vector_37" d="M9.49967 16.502H8.49561V17.4995H9.49967V16.502Z" fill="#000001"/>
<path id="Vector_38" d="M8.49555 15.4978H7.49805V16.5019H8.49555V15.4978Z" fill="#000001"/>
<path id="Vector_39" d="M7.49809 6.50059H6.50059V7.49809H5.49652V6.50059H4.49902V8.50215H8.49559V4.49902H6.50059V5.50309H7.49809V6.50059Z" fill="#000001"/>
<path id="Vector_40" d="M7.49799 14.5002H6.50049V15.4977H7.49799V14.5002Z" fill="#000001"/>
<path id="Vector_41" d="M6.50064 13.5029H5.49658V14.5004H6.50064V13.5029Z" fill="#000001"/>
<path id="Vector_42" d="M6.50064 5.50317H5.49658V6.50067H6.50064V5.50317Z" fill="#000001"/>
<path id="Vector_43" d="M11.5012 2.49756H4.49902V3.50162H11.5012V2.49756Z" fill="#000001"/>
<path id="Vector_44" d="M5.49652 12.4988H4.49902V13.5028H5.49652V12.4988Z" fill="#000001"/>
<path id="Vector_45" d="M5.49652 4.49902H4.49902V5.50309H5.49652V4.49902Z" fill="#000001"/>
<path id="Vector_46" d="M4.49896 11.5012H3.50146V12.4987H4.49896V11.5012Z" fill="#000001"/>
<path id="Vector_47" d="M4.49896 3.50146H3.50146V4.49896H4.49896V3.50146Z" fill="#000001"/>
<path id="Vector_48" d="M3.50162 4.49902H2.49756V11.5012H3.50162V4.49902Z" fill="#000001"/>
<path id="Vector_49" d="M3.50162 2.49756H2.49756V3.50162H3.50162V2.49756Z" fill="#000001"/>
<path id="Vector_50" d="M2.4975 1.5H1.5V2.4975H2.4975V1.5Z" fill="#000001"/>
</g>
</g>
</svg>
