<svg width="24" height="24" viewBox="0 0 24 24" fill="none" xmlns="http://www.w3.org/2000/svg">
<g id="change-clean-energy">
<g id="Group">
<path id="Vector" d="M22.4999 12.5054H21.5024V15.5044H22.4999V12.5054Z" fill="#000001"/>
<path id="Vector_2" d="M22.5001 1.5H16.502V3.50156H17.4995V2.50406H21.5026V3.50156H22.5001V1.5Z" fill="#000001"/>
<path id="Vector_3" d="M21.5026 15.5044H20.4985V17.4994H21.5026V15.5044Z" fill="#000001"/>
<path id="Vector_4" d="M21.5026 3.50146H20.4985V4.49896H21.5026V3.50146Z" fill="#000001"/>
<path id="Vector_5" d="M20.4985 8.5022H19.501V9.4997H20.4985V8.5022Z" fill="#000001"/>
<path id="Vector_6" d="M20.4985 4.49902H19.501V5.50309H20.4985V4.49902Z" fill="#000001"/>
<path id="Vector_7" d="M20.4984 17.4993H18.5034V18.5033H20.4984V17.4993Z" fill="#000001"/>
<path id="Vector_8" d="M19.5009 9.49976H18.5034V10.5038H19.5009V9.49976Z" fill="#000001"/>
<path id="Vector_9" d="M18.5033 6.50067H17.4993V7.50474H20.4983V8.50224H21.5024V6.50067H19.5008V5.50317H18.5033V6.50067Z" fill="#000001"/>
<path id="Vector_10" d="M18.5033 10.5037H17.4993V11.5012H18.5033V10.5037Z" fill="#000001"/>
<path id="Vector_11" d="M15.4978 22.5V19.501H18.5034V18.5035H15.4978V15.5044H14.5003V16.5019H13.5028V17.4994H12.4987V18.5035H11.5012V19.501H12.4987V20.505H13.5028V21.5025H14.5003V22.5H15.4978Z" fill="#000001"/>
<path id="Vector_12" d="M17.4995 11.5012H16.502V12.5053H17.4995V11.5012Z" fill="#000001"/>
<path id="Vector_13" d="M16.5019 12.5054H15.4978V13.5029H16.5019V12.5054Z" fill="#000001"/>
<path id="Vector_14" d="M16.502 8.50214H14.5004V7.50464H13.5029V9.49964H15.4979V10.5037H16.502V8.50214Z" fill="#000001"/>
<path id="Vector_15" d="M16.5019 3.50146H15.4978V5.50303H16.5019V3.50146Z" fill="#000001"/>
<path id="Vector_16" d="M15.4977 10.5037H14.5002V12.5052H15.4977V10.5037Z" fill="#000001"/>
<path id="Vector_17" d="M15.4977 5.50317H14.5002V7.50474H15.4977V5.50317Z" fill="#000001"/>
<path id="Vector_18" d="M14.5004 12.5054H13.5029V14.5004H15.4979V13.5029H14.5004V12.5054Z" fill="#000001"/>
<path id="Vector_19" d="M9.4997 17.4994H10.5038V13.5029H11.5013V12.5054H8.5022V13.5029H9.4997V17.4994Z" fill="#000001"/>
<path id="Vector_20" d="M9.4997 17.4993H8.5022V18.5033H9.4997V17.4993Z" fill="#000001"/>
<path id="Vector_21" d="M8.50211 18.5034H7.49805V19.5009H8.50211V18.5034Z" fill="#000001"/>
<path id="Vector_22" d="M8.5023 13.5029H6.50073V14.5004H8.5023V13.5029Z" fill="#000001"/>
<path id="Vector_23" d="M7.49817 16.502H5.50317V17.4995H7.49817V16.502Z" fill="#000001"/>
<path id="Vector_24" d="M8.50224 6.50071V9.49978H9.49974V8.50228H10.5038V7.50478H11.5013V6.50071H12.4988V5.50321H11.5013V4.49915H10.5038V3.50165H9.49974V2.50415H8.50224V5.50321H5.50317V6.50071H8.50224Z" fill="#000001"/>
<path id="Vector_25" d="M7.49809 19.501H4.49902V20.505H7.49809V19.501Z" fill="#000001"/>
<path id="Vector_26" d="M6.50059 14.5002H4.49902V15.5043H6.50059V14.5002Z" fill="#000001"/>
<path id="Vector_27" d="M5.50309 17.4993H4.49902V18.5033H5.50309V17.4993Z" fill="#000001"/>
<path id="Vector_28" d="M5.50303 6.50073H3.50146V7.50479H5.50303V6.50073Z" fill="#000001"/>
<path id="Vector_29" d="M4.49896 18.5034H3.50146V19.5009H4.49896V18.5034Z" fill="#000001"/>
<path id="Vector_30" d="M4.49896 15.5044H3.50146V16.5019H4.49896V15.5044Z" fill="#000001"/>
<path id="Vector_31" d="M3.50162 16.502H2.49756V18.5035H3.50162V16.502Z" fill="#000001"/>
<path id="Vector_32" d="M3.50162 7.50464H2.49756V9.49964H3.50162V7.50464Z" fill="#000001"/>
<path id="Vector_33" d="M3.50156 19.501H1.5V20.505H3.50156V19.501Z" fill="#000001"/>
<path id="Vector_34" d="M2.4975 9.49976H1.5V12.5054H2.4975V9.49976Z" fill="#000001"/>
</g>
</g>
</svg>
