<svg width="24" height="24" viewBox="0 0 24 24" fill="none" xmlns="http://www.w3.org/2000/svg">
<g id="chat-email">
<g id="Group">
<path id="Vector" d="M22.5002 2.50415H21.4961V12.5054H22.5002V2.50415Z" fill="#000001"/>
<path id="Vector_2" d="M20.4985 14.5004H19.501V15.5044H21.496V12.5054H20.4985V14.5004Z" fill="#000001"/>
<path id="Vector_3" d="M19.5011 13.5029H18.4971V14.5004H19.5011V13.5029Z" fill="#000001"/>
<path id="Vector_4" d="M20.4986 9.49976H17.4995V10.5038H20.4986V9.49976Z" fill="#000001"/>
<path id="Vector_5" d="M20.4986 7.50464H17.4995V8.50214H20.4986V7.50464Z" fill="#000001"/>
<path id="Vector_6" d="M20.4986 5.50317H18.4971V6.50067H20.4986V5.50317Z" fill="#000001"/>
<path id="Vector_7" d="M20.4987 3.50146H15.498V4.50553H20.4987V3.50146Z" fill="#000001"/>
<path id="Vector_8" d="M18.497 12.5054H17.4995V13.5029H18.497V12.5054Z" fill="#000001"/>
<path id="Vector_9" d="M16.5021 11.5013V8.5022H15.498V18.5034H16.5021V12.5053H17.4996V11.5013H16.5021Z" fill="#000001"/>
<path id="Vector_10" d="M17.4992 5.50317H9.49951V6.50067H17.4992V5.50317Z" fill="#000001"/>
<path id="Vector_11" d="M15.498 18.5034H11.5015V19.5009H15.498V18.5034Z" fill="#000001"/>
<path id="Vector_12" d="M14.5005 3.50146H11.5015V4.50553H14.5005V3.50146Z" fill="#000001"/>
<path id="Vector_13" d="M4.49902 10.5037V16.5018H13.4962V10.5037H4.49902ZM12.4987 12.5052H11.5012V13.5027H10.4971V14.5002H7.49809V13.5027H6.50059V12.5052H5.49652V11.5012H6.50059V12.5052H7.49809V13.5027H10.4971V12.5052H11.5012V11.5012H12.4987V12.5052Z" fill="#000001"/>
<path id="Vector_14" d="M10.497 21.5025H9.49951V22.5H11.5011V19.501H10.497V21.5025Z" fill="#000001"/>
<path id="Vector_15" d="M10.497 3.50146H9.49951V4.50553H10.497V3.50146Z" fill="#000001"/>
<path id="Vector_16" d="M21.4959 1.5H8.49561V2.50406H21.4959V1.5Z" fill="#000001"/>
<path id="Vector_17" d="M9.49967 20.5049H8.49561V21.5024H9.49967V20.5049Z" fill="#000001"/>
<path id="Vector_18" d="M8.49555 19.501H7.49805V20.505H8.49555V19.501Z" fill="#000001"/>
<path id="Vector_19" d="M7.49818 18.5034H2.49756V19.5009H7.49818V18.5034Z" fill="#000001"/>
<path id="Vector_20" d="M15.4979 8.50228V7.50478H8.49568V2.50415H7.49818V7.50478H2.49756V8.50228H15.4979Z" fill="#000001"/>
<path id="Vector_21" d="M2.4975 8.5022H1.5V18.5034H2.4975V8.5022Z" fill="#000001"/>
</g>
</g>
</svg>
