<svg width="24" height="24" viewBox="0 0 24 24" fill="none" xmlns="http://www.w3.org/2000/svg">
<g id="coding-apps-websites-shield-lock">
<g id="Group">
<path id="Vector" d="M18.5035 4.49896V5.50303H19.501V15.5043H20.4985V4.49896H19.501V3.50146H17.4994V4.49896H18.5035Z" fill="#000001"/>
<path id="Vector_2" d="M19.5009 15.5044H18.5034V17.4994H19.5009V15.5044Z" fill="#000001"/>
<path id="Vector_3" d="M18.5035 17.4993H17.4994V18.5033H18.5035V17.4993Z" fill="#000001"/>
<path id="Vector_4" d="M18.5035 5.50317H17.4994V15.5044H18.5035V5.50317Z" fill="#000001"/>
<path id="Vector_5" d="M17.4995 18.5034H16.502V19.5009H17.4995V18.5034Z" fill="#000001"/>
<path id="Vector_6" d="M17.4995 15.5044H16.502V17.4994H17.4995V15.5044Z" fill="#000001"/>
<path id="Vector_7" d="M16.5019 19.501H15.5044V20.505H16.5019V19.501Z" fill="#000001"/>
<path id="Vector_8" d="M16.5019 17.4993H15.5044V18.5033H16.5019V17.4993Z" fill="#000001"/>
<path id="Vector_9" d="M17.4994 4.49902H15.5044V5.50309H17.4994V4.49902Z" fill="#000001"/>
<path id="Vector_10" d="M17.4994 2.50415H15.5044V3.50165H17.4994V2.50415Z" fill="#000001"/>
<path id="Vector_11" d="M15.5044 20.5049H13.5028V21.5024H15.5044V20.5049Z" fill="#000001"/>
<path id="Vector_12" d="M15.5044 18.5034H13.5028V19.5009H15.5044V18.5034Z" fill="#000001"/>
<path id="Vector_13" d="M10.5038 10.5038V8.5022H9.4997V10.5038H8.5022V15.5044H9.4997V16.5019H14.5003V15.5044H15.5044V10.5038H14.5003V8.5022H13.5028V10.5038H10.5038ZM12.4988 13.5028H11.5013V11.5013H12.4988V13.5028Z" fill="#000001"/>
<path id="Vector_14" d="M13.5028 21.5024H10.5038V22.4999H13.5028V21.5024Z" fill="#000001"/>
<path id="Vector_15" d="M13.5028 19.501H10.5038V20.505H13.5028V19.501Z" fill="#000001"/>
<path id="Vector_16" d="M13.5028 7.50464H10.5038V8.50214H13.5028V7.50464Z" fill="#000001"/>
<path id="Vector_17" d="M10.5038 20.5049H8.5022V21.5024H10.5038V20.5049Z" fill="#000001"/>
<path id="Vector_18" d="M10.5038 18.5034H8.5022V19.5009H10.5038V18.5034Z" fill="#000001"/>
<path id="Vector_19" d="M15.5044 3.50146H8.5022V4.49896H15.5044V3.50146Z" fill="#000001"/>
<path id="Vector_20" d="M15.5044 1.5H8.5022V2.50406H15.5044V1.5Z" fill="#000001"/>
<path id="Vector_21" d="M8.50223 19.501H7.49817V20.505H8.50223V19.501Z" fill="#000001"/>
<path id="Vector_22" d="M8.50223 17.4993H7.49817V18.5033H8.50223V17.4993Z" fill="#000001"/>
<path id="Vector_23" d="M8.50217 4.49902H6.50061V5.50309H8.50217V4.49902Z" fill="#000001"/>
<path id="Vector_24" d="M8.50217 2.50415H6.50061V3.50165H8.50217V2.50415Z" fill="#000001"/>
<path id="Vector_25" d="M7.49811 18.5034H6.50061V19.5009H7.49811V18.5034Z" fill="#000001"/>
<path id="Vector_26" d="M7.49811 15.5044H6.50061V17.4994H7.49811V15.5044Z" fill="#000001"/>
<path id="Vector_27" d="M6.50067 17.4993H5.50317V18.5033H6.50067V17.4993Z" fill="#000001"/>
<path id="Vector_28" d="M6.50067 5.50317H5.50317V15.5044H6.50067V5.50317Z" fill="#000001"/>
<path id="Vector_29" d="M6.50071 3.50146H4.49915V4.49896H6.50071V3.50146Z" fill="#000001"/>
<path id="Vector_30" d="M5.50321 15.5044H4.49915V17.4994H5.50321V15.5044Z" fill="#000001"/>
<path id="Vector_31" d="M4.49909 4.49902H3.50159V15.5043H4.49909V4.49902Z" fill="#000001"/>
</g>
</g>
</svg>
