<svg width="24" height="24" viewBox="0 0 24 24" fill="none" xmlns="http://www.w3.org/2000/svg">
<g id="coding-apps-websites-dinosaur-error">
<g id="Group">
<path id="Vector" d="M22.4999 17.9998H21.5024V18.9973H22.4999V17.9998Z" fill="#000001"/>
<path id="Vector_2" d="M22.5001 10.9976V8.99604H21.5026V10.0001H20.4985V7.99854H19.501V12.0017H18.4969V10.9976H17.4994V12.9992H19.501V15.9982H14.5004V17.0023H22.5001V15.9982H20.4985V10.9976H22.5001Z" fill="#000001"/>
<path id="Vector_3" d="M22.5 2.00049H20.4984V2.99799H22.5V2.00049Z" fill="#000001"/>
<path id="Vector_4" d="M19.5009 17.9998H18.4968V18.9973H19.5009V17.9998Z" fill="#000001"/>
<path id="Vector_5" d="M19.501 4.00195H17.4994V4.99945H19.501V4.00195Z" fill="#000001"/>
<path id="Vector_6" d="M15.4979 17.9998H14.5004V18.9973H15.4979V17.9998Z" fill="#000001"/>
<path id="Vector_7" d="M14.5003 7.99857H11.5012V8.99607H14.5003V10.0001H15.4978V4.99951H14.5003V7.99857Z" fill="#000001"/>
<path id="Vector_8" d="M10.4971 12.0017H8.50215V12.9992H10.4971V13.9967H8.50215V12.9992H7.49809V17.0023H10.4971V17.9998H7.49809V18.9973H4.49902V20.0047H5.50309V21.9997H7.49809V21.0022H6.50059V20.0047H9.49965V19.0006H10.4971V20.0047H12.4987V19.0006H11.5012V15.004H12.4987V16.0015H13.5028V14H11.5012V11.0009H14.5003V10.0034H10.4971V12.0017ZM10.4971 15.9983H8.50215V15.0008H10.4971V15.9983Z" fill="#000001"/>
<path id="Vector_9" d="M10.4972 2.00049H8.5022V2.99799H10.4972V2.00049Z" fill="#000001"/>
<path id="Vector_10" d="M8.50223 5.99707H7.49817V7.99863H8.50223V5.99707Z" fill="#000001"/>
<path id="Vector_11" d="M14.5003 4.00195H6.50061V4.99945H14.5003V4.00195Z" fill="#000001"/>
<path id="Vector_12" d="M7.49811 17.0024H6.50061V17.9999H7.49811V17.0024Z" fill="#000001"/>
<path id="Vector_13" d="M6.50067 4.99951H5.50317V12.0017H6.50067V4.99951Z" fill="#000001"/>
<path id="Vector_14" d="M5.50309 12.0017H4.49902V15.0008H5.50309V12.0017Z" fill="#000001"/>
<path id="Vector_15" d="M4.49909 17.9998H3.50159V18.9973H4.49909V17.9998Z" fill="#000001"/>
<path id="Vector_16" d="M4.49909 15.0007H3.50159V15.9982H4.49909V15.0007Z" fill="#000001"/>
<path id="Vector_17" d="M3.50162 17.0024H2.49756V17.9999H3.50162V17.0024Z" fill="#000001"/>
<path id="Vector_18" d="M3.50156 4.99951H1.5V5.99701H3.50156V4.99951Z" fill="#000001"/>
<path id="Vector_19" d="M2.4975 15.0008H3.50156V13.9968H2.4975V12.9993H1.5V17.0024H2.4975V15.0008Z" fill="#000001"/>
</g>
</g>
</svg>
