<svg width="24" height="24" viewBox="0 0 24 24" fill="none" xmlns="http://www.w3.org/2000/svg">
<g id="coding-apps-websites">
<g id="Group">
<path id="Vector" d="M22.4999 2.50415H21.5024V21.5026H22.4999V2.50415Z" fill="#000001"/>
<path id="Vector_2" d="M21.5026 21.5024H2.49756V22.4999H21.5026V21.5024Z" fill="#000001"/>
<path id="Vector_3" d="M20.4985 3.50146H3.50159V20.5049H20.4985V3.50146ZM11.5013 5.50303H12.4988V9.49959H11.5013V5.50303ZM7.49815 5.50303H10.4972V9.49959H7.49815V5.50303ZM5.50315 5.50303H6.50065V9.49959H5.50315V5.50303ZM5.50315 10.5037H8.50221V14.5002H5.50315V10.5037ZM9.49971 18.5033H8.50221V19.5008H7.49815V18.5033H8.50221V16.5018H7.49815V15.5043H8.50221V16.5018H9.49971V18.5033ZM9.49971 10.5037H10.4972V14.5002H9.49971V10.5037ZM13.5028 19.5008H10.4972V18.5033H13.5028V19.5008ZM11.5013 14.5002V10.5037H14.5003V14.5002H11.5013ZM16.5019 16.5018H15.4978V18.5033H16.5019V19.5008H15.4978V18.5033H14.5003V16.5018H15.4978V15.5043H16.5019V16.5018ZM16.5019 14.5002H15.4978V10.5037H16.5019V14.5002ZM16.5019 9.49959H13.5028V5.50303H16.5019V9.49959ZM18.4969 14.5002H17.4994V10.5037H18.4969V14.5002ZM18.4969 9.49959H17.4994V5.50303H18.4969V9.49959Z" fill="#000001"/>
<path id="Vector_4" d="M15.4979 6.50073H14.5004V8.5023H15.4979V6.50073Z" fill="#000001"/>
<path id="Vector_5" d="M13.5028 11.5012H12.4988V13.5028H13.5028V11.5012Z" fill="#000001"/>
<path id="Vector_6" d="M9.4997 6.50073H8.5022V8.5023H9.4997V6.50073Z" fill="#000001"/>
<path id="Vector_7" d="M7.49811 11.5012H6.50061V13.5028H7.49811V11.5012Z" fill="#000001"/>
<path id="Vector_8" d="M21.5026 1.5H2.49756V2.50406H21.5026V1.5Z" fill="#000001"/>
<path id="Vector_9" d="M2.4975 2.50415H1.5V21.5026H2.4975V2.50415Z" fill="#000001"/>
</g>
</g>
</svg>
