<svg width="24" height="24" viewBox="0 0 24 24" fill="none" xmlns="http://www.w3.org/2000/svg">
<g id="coding-apps-websites-firewall">
<g id="Group">
<path id="Vector" d="M22.5 14.5002H20.4984V16.5018H22.5V14.5002Z" fill="#000001"/>
<path id="Vector_2" d="M22.5 20.5049H20.4984V22.4999H22.5V20.5049Z" fill="#000001"/>
<path id="Vector_3" d="M22.5 17.5059H17.4994V19.5009H22.5V17.5059Z" fill="#000001"/>
<path id="Vector_4" d="M21.5025 7.50464H20.4984V8.50214H21.5025V7.50464Z" fill="#000001"/>
<path id="Vector_5" d="M19.5009 11.5013H20.4984V8.5022H18.4968V9.4997H19.5009V11.5013Z" fill="#000001"/>
<path id="Vector_6" d="M19.5009 11.5012H18.4968V12.5053H19.5009V11.5012Z" fill="#000001"/>
<path id="Vector_7" d="M19.501 20.5049H14.5004V22.4999H19.501V20.5049Z" fill="#000001"/>
<path id="Vector_8" d="M18.4969 9.49976H17.4994V10.5038H18.4969V9.49976Z" fill="#000001"/>
<path id="Vector_9" d="M18.4968 4.50553H19.5009V3.50146H16.5018V4.50553H17.4993V7.50459H18.4968V4.50553Z" fill="#000001"/>
<path id="Vector_10" d="M18.4968 12.5054H16.5018V13.5029H18.4968V12.5054Z" fill="#000001"/>
<path id="Vector_11" d="M17.4993 7.50464H16.5018V9.49964H17.4993V7.50464Z" fill="#000001"/>
<path id="Vector_12" d="M16.5019 4.50562H15.4978V5.50312H16.5019V4.50562Z" fill="#000001"/>
<path id="Vector_13" d="M16.5019 17.5059H10.4972V19.5009H16.5019V17.5059Z" fill="#000001"/>
<path id="Vector_14" d="M19.5009 14.5002H13.5028V16.5018H19.5009V14.5002Z" fill="#000001"/>
<path id="Vector_15" d="M15.4979 7.50464H14.5004V8.50214H15.4979V7.50464Z" fill="#000001"/>
<path id="Vector_16" d="M15.4979 5.50317H14.5004V6.50067H15.4979V5.50317Z" fill="#000001"/>
<path id="Vector_17" d="M14.5003 4.50562H13.5028V5.50312H14.5003V4.50562Z" fill="#000001"/>
<path id="Vector_18" d="M12.4988 6.50073V7.50479H11.5013V8.5023H10.4972V9.49979H11.5013V10.5039H10.4972V9.49979H8.5022V10.5039H9.4997V12.5054H10.4972V13.5029H14.5003V12.5054H15.4978V9.49979H14.5003V8.5023H13.5028V9.49979H12.4988V8.5023H13.5028V6.50073H12.4988ZM13.5028 10.5039H14.5003V11.5014H13.5028V10.5039ZM12.4988 12.5054H11.5013V11.5014H12.4988V12.5054Z" fill="#000001"/>
<path id="Vector_19" d="M14.5003 2.50406V1.5H11.5012V2.50406H12.4987V4.50562H13.5028V2.50406H14.5003Z" fill="#000001"/>
<path id="Vector_20" d="M13.5029 20.5049H7.49817V22.4999H13.5029V20.5049Z" fill="#000001"/>
<path id="Vector_21" d="M12.4987 14.5002H6.50061V16.5018H12.4987V14.5002Z" fill="#000001"/>
<path id="Vector_22" d="M11.5013 2.50415H10.4972V5.50321H11.5013V2.50415Z" fill="#000001"/>
<path id="Vector_23" d="M10.4971 5.50317H9.49963V6.50067H10.4971V5.50317Z" fill="#000001"/>
<path id="Vector_24" d="M9.4997 4.50562H8.5022V5.50312H9.4997V4.50562Z" fill="#000001"/>
<path id="Vector_25" d="M9.49965 17.5059H4.49902V19.5009H9.49965V17.5059Z" fill="#000001"/>
<path id="Vector_26" d="M8.50223 5.50317H7.49817V8.50224H8.50223V5.50317Z" fill="#000001"/>
<path id="Vector_27" d="M8.50223 3.50146H7.49817V4.50553H8.50223V3.50146Z" fill="#000001"/>
<path id="Vector_28" d="M8.50217 12.5054H6.50061V13.5029H8.50217V12.5054Z" fill="#000001"/>
<path id="Vector_29" d="M7.49811 8.5022H6.50061V9.4997H7.49811V8.5022Z" fill="#000001"/>
<path id="Vector_30" d="M7.49811 4.50562H6.50061V5.50312H7.49811V4.50562Z" fill="#000001"/>
<path id="Vector_31" d="M6.50067 11.5012H5.50317V12.5053H6.50067V11.5012Z" fill="#000001"/>
<path id="Vector_32" d="M6.50063 20.5049H1.5V22.4999H6.50063V20.5049Z" fill="#000001"/>
<path id="Vector_33" d="M3.50159 7.50464V8.50214H4.49909V11.5012H5.50315V8.50214H6.50065V7.50464H3.50159Z" fill="#000001"/>
<path id="Vector_34" d="M3.50156 17.5059H1.5V19.5009H3.50156V17.5059Z" fill="#000001"/>
<path id="Vector_35" d="M5.50312 14.5002H1.5V16.5018H5.50312V14.5002Z" fill="#000001"/>
<path id="Vector_36" d="M3.50162 6.50073H2.49756V7.50479H3.50162V6.50073Z" fill="#000001"/>
</g>
</g>
</svg>
