<svg width="24" height="24" viewBox="0 0 24 24" fill="none" xmlns="http://www.w3.org/2000/svg">
<g id="coding-apps-websites-programming-bug">
<g id="Group">
<path id="Vector" d="M20.4985 13.5028V11.5013H18.4969V9.4997H17.4994V8.5022H16.5019V9.4997H12.4988V10.5038H13.5028V11.5013H14.5003V13.5028H13.5028V14.5003H12.4988V21.5025H14.5003V20.505H15.4978V19.5009H17.4994V18.5034H18.4969V20.505H19.501V16.5019H18.4969V12.5053H19.501V14.5003H22.5V13.5028H20.4985ZM14.5003 19.5009H13.5028V18.5034H14.5003V19.5009ZM17.4994 16.5019H16.5019V17.5059H15.4978V16.5019H14.5003V15.5044H15.4978V14.5003H16.5019V15.5044H17.4994V16.5019ZM17.4994 11.5013H16.5019V10.5038H17.4994V11.5013Z" fill="#000001"/>
<path id="Vector_2" d="M19.501 5.50312H21.5025V4.50562H18.4969V7.50468H17.4994V8.50218H19.501V5.50312Z" fill="#000001"/>
<path id="Vector_3" d="M18.4969 20.5049H17.4994V22.4999H18.4969V20.5049Z" fill="#000001"/>
<path id="Vector_4" d="M16.5019 15.5044H15.4978V16.5019H16.5019V15.5044Z" fill="#000001"/>
<path id="Vector_5" d="M16.5019 5.50317H15.4979V7.50474H8.50223V5.50317H7.49817V8.50224H16.5019V5.50317Z" fill="#000001"/>
<path id="Vector_6" d="M16.5019 1.5H15.4978V2.50406H16.5019V1.5Z" fill="#000001"/>
<path id="Vector_7" d="M15.4979 4.50562H14.5004V5.50312H15.4979V4.50562Z" fill="#000001"/>
<path id="Vector_8" d="M15.4979 2.50415H14.5004V3.50165H15.4979V2.50415Z" fill="#000001"/>
<path id="Vector_9" d="M13.5028 11.5012H12.4988V13.5028H13.5028V11.5012Z" fill="#000001"/>
<path id="Vector_10" d="M13.5028 5.50317H12.4988V6.50067H13.5028V5.50317Z" fill="#000001"/>
<path id="Vector_11" d="M11.5013 11.5012H10.4972V13.5028H11.5013V11.5012Z" fill="#000001"/>
<path id="Vector_12" d="M11.5013 5.50317H10.4972V6.50067H11.5013V5.50317Z" fill="#000001"/>
<path id="Vector_13" d="M14.5003 3.50146H9.49963V4.50553H14.5003V3.50146Z" fill="#000001"/>
<path id="Vector_14" d="M9.4997 4.50562H8.5022V5.50312H9.4997V4.50562Z" fill="#000001"/>
<path id="Vector_15" d="M9.4997 2.50415H8.5022V3.50165H9.4997V2.50415Z" fill="#000001"/>
<path id="Vector_16" d="M8.50223 15.5044H7.49817V16.5019H8.50223V15.5044Z" fill="#000001"/>
<path id="Vector_17" d="M8.50223 1.5H7.49817V2.50406H8.50223V1.5Z" fill="#000001"/>
<path id="Vector_18" d="M6.50062 9.4997H5.50312V11.5013H3.50156V13.5028H1.5V14.5003H4.49906V12.5053H5.50312V16.5019H4.49906V20.505H5.50312V18.5034H6.50062V19.5009H8.50219V20.505H9.49969V21.5025H11.5012V14.5003H10.4972V13.5028H9.49969V11.5013H10.4972V10.5038H11.5012V9.4997H7.49813V8.5022H6.50062V9.4997ZM10.4972 18.5034V19.5009H9.49969V18.5034H10.4972ZM8.50219 14.5003V15.5044H9.49969V16.5019H8.50219V17.5059H7.49813V16.5019H6.50062V15.5044H7.49813V14.5003H8.50219ZM7.49813 11.5013H6.50062V10.5038H7.49813V11.5013Z" fill="#000001"/>
<path id="Vector_19" d="M6.50067 20.5049H5.50317V22.4999H6.50067V20.5049Z" fill="#000001"/>
<path id="Vector_20" d="M5.50318 7.50468V4.50562H2.49756V5.50312H4.49912V8.50218H6.50068V7.50468H5.50318Z" fill="#000001"/>
</g>
</g>
</svg>
