<svg width="24" height="24" viewBox="0 0 24 24" fill="none" xmlns="http://www.w3.org/2000/svg">
<g id="coding-apps-websites-module">
<g id="Group">
<path id="Vector" d="M21.0004 8.49902H19.9963V15.5012H21.0004V8.49902Z" fill="#000001"/>
<path id="Vector_2" d="M19.9964 15.5012H18.9989V16.4987H19.9964V15.5012Z" fill="#000001"/>
<path id="Vector_3" d="M19.9964 7.50146H18.9989V8.49896H19.9964V7.50146Z" fill="#000001"/>
<path id="Vector_4" d="M18.9989 8.49902H16.9973V9.49652H18.9989V8.49902Z" fill="#000001"/>
<path id="Vector_5" d="M18.9989 16.4985H16.9973V17.5026H18.9989V16.4985Z" fill="#000001"/>
<path id="Vector_6" d="M18.0014 7.50132V6.49726H16.9974V5.49976H15.0024V6.49726H13.9983V7.50132H15.0024V8.49882H16.9974V7.50132H18.0014Z" fill="#000001"/>
<path id="Vector_7" d="M16.9973 9.49634H15.0023V10.5004H16.9973V9.49634Z" fill="#000001"/>
<path id="Vector_8" d="M16.9973 17.5027H15.0023V18.5002H16.9973V17.5027Z" fill="#000001"/>
<path id="Vector_9" d="M13.0007 20.5018V19.4977H15.0023V18.5002H13.0007V11.498H10.9991V12.5021H11.9966V19.4977H10.9991V20.5018H13.0007Z" fill="#000001"/>
<path id="Vector_10" d="M15.0023 10.5005H13.0007V11.498H15.0023V10.5005Z" fill="#000001"/>
<path id="Vector_11" d="M13.0008 9.49646H13.9983V8.49896H13.0008V7.50146H10.9992V8.49896H10.0017V9.49646H10.9992V10.5005H13.0008V9.49646Z" fill="#000001"/>
<path id="Vector_12" d="M10.9992 3.49829V4.50235H10.0017V5.49985H10.9992V6.49735H13.0008V5.49985H13.9983V4.50235H13.0008V3.49829H10.9992Z" fill="#000001"/>
<path id="Vector_13" d="M10.9992 18.5002H8.99768V19.4977H10.9992V18.5002Z" fill="#000001"/>
<path id="Vector_14" d="M10.9992 10.5005H8.99768V11.498H10.9992V10.5005Z" fill="#000001"/>
<path id="Vector_15" d="M8.99769 17.5027H7.00269V18.5002H8.99769V17.5027Z" fill="#000001"/>
<path id="Vector_16" d="M8.9976 7.50132H10.0017V6.49726H8.9976V5.49976H7.0026V6.49726H5.99854V7.50132H7.0026V8.49882H8.9976V7.50132Z" fill="#000001"/>
<path id="Vector_17" d="M8.99769 9.49634H7.00269V10.5004H8.99769V9.49634Z" fill="#000001"/>
<path id="Vector_18" d="M7.00266 16.4985H5.0011V17.5026H7.00266V16.4985Z" fill="#000001"/>
<path id="Vector_19" d="M7.00266 8.49902H5.0011V9.49652H7.00266V8.49902Z" fill="#000001"/>
<path id="Vector_20" d="M5.00113 15.5012H3.99707V16.4987H5.00113V15.5012Z" fill="#000001"/>
<path id="Vector_21" d="M5.00113 7.50146H3.99707V8.49896H5.00113V7.50146Z" fill="#000001"/>
<path id="Vector_22" d="M3.99701 8.49902H2.99951V15.5012H3.99701V8.49902Z" fill="#000001"/>
</g>
</g>
</svg>
