<svg width="24" height="24" viewBox="0 0 24 24" fill="none" xmlns="http://www.w3.org/2000/svg">
<g id="coding-apps-websites-404-error">
<g id="Group">
<path id="Vector" d="M22.4999 4.50244H21.5024V5.49994H22.4999V4.50244Z" fill="#000001"/>
<path id="Vector_2" d="M21.5025 11.498H19.501V12.5021H20.4985V15.5012H18.4969V14.5037H17.4994V16.4987H20.4985V19.5043H21.5025V16.4987H22.5V15.5012H21.5025V11.498Z" fill="#000001"/>
<path id="Vector_3" d="M21.5025 7.50146H20.4985V8.49896H19.501V9.50303H20.4985V10.5005H21.5025V9.50303H22.5V8.49896H21.5025V7.50146Z" fill="#000001"/>
<path id="Vector_4" d="M19.5009 12.502H18.4968V14.5035H19.5009V12.502Z" fill="#000001"/>
<path id="Vector_5" d="M18.4969 5.49976H17.4994V6.50382H18.4969V5.49976Z" fill="#000001"/>
<path id="Vector_6" d="M17.4993 9.50293H16.5018V11.4979H17.4993V9.50293Z" fill="#000001"/>
<path id="Vector_7" d="M9.49967 18.5001V13.4995H8.50217V16.4986H7.49811V17.5026H6.50061V19.5042H7.49811V20.5017H16.5019V19.5042H17.4994V17.5026H16.5019V16.4986H15.4978V13.4995H14.5003V18.5001H9.49967Z" fill="#000001"/>
<path id="Vector_8" d="M16.5019 11.498H15.4978V12.5021H16.5019V11.498Z" fill="#000001"/>
<path id="Vector_9" d="M16.5019 8.49902H15.4978V9.50309H16.5019V8.49902Z" fill="#000001"/>
<path id="Vector_10" d="M15.4979 3.49829H14.5004V4.50235H15.4979V3.49829Z" fill="#000001"/>
<path id="Vector_11" d="M14.5003 12.502H13.5028V13.4995H14.5003V12.502Z" fill="#000001"/>
<path id="Vector_12" d="M14.5003 8.49902H13.5028V9.50309H14.5003V8.49902Z" fill="#000001"/>
<path id="Vector_13" d="M13.5028 14.5037H12.4988V15.5012H13.5028V14.5037Z" fill="#000001"/>
<path id="Vector_14" d="M13.5028 16.4985H10.4972V17.5026H13.5028V16.4985Z" fill="#000001"/>
<path id="Vector_15" d="M13.5028 11.498H10.4972V12.5021H13.5028V11.498Z" fill="#000001"/>
<path id="Vector_16" d="M11.5013 14.5037H10.4972V15.5012H11.5013V14.5037Z" fill="#000001"/>
<path id="Vector_17" d="M10.4971 6.50391V7.50141H9.49963V8.49891H10.4971V9.50297H11.5012V8.49891H12.4987V7.50141H11.5012V6.50391H10.4971Z" fill="#000001"/>
<path id="Vector_18" d="M10.4971 12.502H9.49963V13.4995H10.4971V12.502Z" fill="#000001"/>
<path id="Vector_19" d="M9.49973 9.50293H7.49817V10.5004H9.49973V9.50293Z" fill="#000001"/>
<path id="Vector_20" d="M8.50223 11.498H7.49817V12.5021H8.50223V11.498Z" fill="#000001"/>
<path id="Vector_21" d="M8.50223 3.49829H7.49817V4.50235H8.50223V3.49829Z" fill="#000001"/>
<path id="Vector_22" d="M7.49811 10.5005H6.50061V11.498H7.49811V10.5005Z" fill="#000001"/>
<path id="Vector_23" d="M3.50156 11.498V12.5021H4.49906V15.5012H2.4975V14.5037H1.5V16.4987H4.49906V18.5002H5.50312V16.4987H6.50062V15.5012H5.50312V11.498H3.50156Z" fill="#000001"/>
<path id="Vector_24" d="M6.50067 7.50146H5.50317V8.49896H6.50067V7.50146Z" fill="#000001"/>
<path id="Vector_25" d="M3.50162 12.502H2.49756V14.5035H3.50162V12.502Z" fill="#000001"/>
<path id="Vector_26" d="M2.4975 4.50244V5.49994H1.5V6.504H2.4975V7.5015H3.50156V6.504H4.49906V5.49994H3.50156V4.50244H2.4975Z" fill="#000001"/>
</g>
</g>
</svg>
