<svg width="24" height="24" viewBox="0 0 24 24" fill="none" xmlns="http://www.w3.org/2000/svg">
<g id="coding-apps-websites-browser-bugs-2">
<g id="Group">
<path id="Vector" d="M2.4975 16.4954H21.4959V18.4969H22.5V2.49756H21.4959V15.4979H2.4975V2.49756H1.5V18.4969H2.4975V16.4954Z" fill="#000001"/>
<path id="Vector_2" d="M2.49756 18.4968V19.4943H8.50225V20.4984H9.49975V19.4943H14.5004V20.4984H15.4979V19.4943H21.496V18.4968H2.49756Z" fill="#000001"/>
<path id="Vector_3" d="M16.5019 5.49658H15.4978V7.49814H16.5019V5.49658Z" fill="#000001"/>
<path id="Vector_4" d="M8.50223 21.496V20.4985H7.49817V22.5001H16.5019V20.4985H15.4979V21.496H8.50223Z" fill="#000001"/>
<path id="Vector_5" d="M13.4962 6.49418V4.49918H14.5003V3.49512H12.4987V5.49668H11.5012V3.49512H9.49963V4.49918H10.4971V6.49418H13.4962Z" fill="#000001"/>
<path id="Vector_6" d="M8.50217 12.4988H7.49811V14.5004H8.50217V13.4963H10.4972V14.5004H13.4962V13.4963H15.4978V14.5004H16.5019V12.4988H15.4978V10.4973H17.4994V9.49977H15.4978V7.4982H14.5003V6.49414H13.4962V7.4982H10.4972V6.49414H9.49967V7.4982H8.50217V9.49977H6.50061V10.4973H8.50217V12.4988ZM9.49967 9.49977H14.5003V10.4973H12.4987V13.4963H11.5012V10.4973H9.49967V9.49977Z" fill="#000001"/>
<path id="Vector_7" d="M8.50223 5.49658H7.49817V7.49814H8.50223V5.49658Z" fill="#000001"/>
<path id="Vector_8" d="M21.496 1.5H2.49756V2.4975H21.496V1.5Z" fill="#000001"/>
</g>
</g>
</svg>
