<svg width="24" height="24" viewBox="0 0 24 24" fill="none" xmlns="http://www.w3.org/2000/svg">
<g id="coding-apps-websites-search-bug">
<g id="Group">
<path id="Vector" d="M20.9988 17.0007H19.9948V16.0032H18.9973V14.9991H17.9998V13.0042H16.9957V14.9991H16.0015V16.0032H15.004V17.0007H13.0024V17.9982H15.004V19.0023H16.0015V19.9998H16.999V21.0038H18.0031V22.0013H21.0021V21.0038H21.9996V17.9982H21.0021L20.9988 17.0007ZM20.9988 19.9998H19.9948V19.0023H18.9973V17.9982H17.9998V17.0007H18.9973V17.9982H19.9948V19.0023H20.9988V19.9998Z" fill="#000001"/>
<path id="Vector_2" d="M18.9973 8.00342H17.9998V13.004H18.9973V8.00342Z" fill="#000001"/>
<path id="Vector_3" d="M17.9998 6.00195H16.9957V8.00352H17.9998V6.00195Z" fill="#000001"/>
<path id="Vector_4" d="M16.9957 4.9978H15.9982V6.00187H16.9957V4.9978Z" fill="#000001"/>
<path id="Vector_5" d="M15.9982 4.00024H15.0007V4.99774H15.9982V4.00024Z" fill="#000001"/>
<path id="Vector_6" d="M15.0006 6.00195H13.9966V8.00352H15.0006V6.00195Z" fill="#000001"/>
<path id="Vector_7" d="M13.9966 14.9992H15.0006V13.0042H13.9966V11.0026H16.0014V9.99857H13.9999V8.00357H13.0024V6.99951H11.9983V8.00357H8.99923V6.99951H7.99517V8.00357H6.99439V9.99857H4.99939V11.0026H6.99439V13.0042H5.99689V14.9992H6.99439V14.0017H8.99595V14.9992H11.9983V14.0017H13.9999L13.9966 14.9992ZM12.9991 11.0026H10.9975V14.0017H10V11.0026H7.99517V9.99857H12.9958L12.9991 11.0026Z" fill="#000001"/>
<path id="Vector_8" d="M15.0007 3.00293H12.9991V4.00043H15.0007V3.00293Z" fill="#000001"/>
<path id="Vector_9" d="M12.9992 17.998H7.99854V19.0021H12.9992V17.998Z" fill="#000001"/>
<path id="Vector_10" d="M11.9951 6.99937V6.00187H12.9992V4.9978H10.9976V6.00187H10.0001V4.9978H7.99854V6.00187H8.99604V6.99937H11.9951Z" fill="#000001"/>
<path id="Vector_11" d="M12.9992 1.99878H7.99854V3.00284H12.9992V1.99878Z" fill="#000001"/>
<path id="Vector_12" d="M7.99851 17.0007H5.99695V17.9982H7.99851V17.0007Z" fill="#000001"/>
<path id="Vector_13" d="M7.99851 3.00293H5.99695V4.00043H7.99851V3.00293Z" fill="#000001"/>
<path id="Vector_14" d="M6.99445 6.00195H5.99695V8.00352H6.99445V6.00195Z" fill="#000001"/>
<path id="Vector_15" d="M5.99689 16.0032H4.99939V17.0007H5.99689V16.0032Z" fill="#000001"/>
<path id="Vector_16" d="M5.99689 4.00024H4.99939V4.99774H5.99689V4.00024Z" fill="#000001"/>
<path id="Vector_17" d="M4.99942 14.999H3.99536V16.0031H4.99942V14.999Z" fill="#000001"/>
<path id="Vector_18" d="M4.99942 4.9978H3.99536V6.00187H4.99942V4.9978Z" fill="#000001"/>
<path id="Vector_19" d="M3.99542 13.0042H2.99792V14.9991H3.99542V13.0042Z" fill="#000001"/>
<path id="Vector_20" d="M3.99542 6.00195H2.99792V8.00352H3.99542V6.00195Z" fill="#000001"/>
<path id="Vector_21" d="M2.99787 8.00342H2.00037V13.004H2.99787V8.00342Z" fill="#000001"/>
</g>
</g>
</svg>
