<svg width="24" height="24" viewBox="0 0 24 24" fill="none" xmlns="http://www.w3.org/2000/svg">
<g id="coding-apps-websites-constuction">
<g id="Group">
<path id="Vector" d="M8.5022 13.4963V18.497H11.5013V22.5001H12.4988V18.497H18.5034V22.5001H19.5009V18.497H22.5V13.4963H8.5022ZM12.4988 16.502H11.5013V17.4995H9.4997V16.502H10.5038V15.4979H11.5013V14.5004H13.5028V15.4979H12.4988V16.502ZM16.5019 16.502H15.4978V17.4995H13.5028V16.502H14.5003V15.4979H15.4978V14.5004H17.4994V15.4979H16.5019V16.502ZM21.5025 15.4979H20.4984V16.502H19.5009V17.4995H17.4994V16.502H18.5034V15.4979H19.5009V14.5004H21.5025V15.4979Z" fill="#000001"/>
<path id="Vector_2" d="M16.5019 9.49976H15.4978V10.4973H16.5019V9.49976Z" fill="#000001"/>
<path id="Vector_3" d="M16.5019 7.49805H15.4978V8.50211H16.5019V7.49805Z" fill="#000001"/>
<path id="Vector_4" d="M15.4979 8.5022H14.5004V9.4997H15.4979V8.5022Z" fill="#000001"/>
<path id="Vector_5" d="M14.5003 9.49976H13.5028V10.4973H14.5003V9.49976Z" fill="#000001"/>
<path id="Vector_6" d="M14.5003 7.49805H13.5028V8.50211H14.5003V7.49805Z" fill="#000001"/>
<path id="Vector_7" d="M13.5028 11.5012H12.4988V12.4987H13.5028V11.5012Z" fill="#000001"/>
<path id="Vector_8" d="M12.4987 10.4971H9.49963V11.5011H12.4987V10.4971Z" fill="#000001"/>
<path id="Vector_9" d="M9.4997 11.5012H8.5022V12.4987H9.4997V11.5012Z" fill="#000001"/>
<path id="Vector_10" d="M8.50223 9.49976H7.49817V10.4973H8.50223V9.49976Z" fill="#000001"/>
<path id="Vector_11" d="M8.50223 7.49805H7.49817V8.50211H8.50223V7.49805Z" fill="#000001"/>
<path id="Vector_12" d="M8.50223 3.50146H7.49817V4.49896H8.50223V3.50146Z" fill="#000001"/>
<path id="Vector_13" d="M3.50156 19.5008V17.4993H2.4975V19.5008H1.5V22.4999H8.50219V19.5008H7.49813V17.4993H6.50062V19.5008H3.50156ZM7.49813 20.4983V21.5024H2.4975V20.4983H7.49813Z" fill="#000001"/>
<path id="Vector_14" d="M7.49811 8.5022H6.50061V9.4997H7.49811V8.5022Z" fill="#000001"/>
<path id="Vector_15" d="M6.50067 9.49976H5.50317V10.4973H6.50067V9.49976Z" fill="#000001"/>
<path id="Vector_16" d="M6.50067 7.49805H5.50317V8.50211H6.50067V7.49805Z" fill="#000001"/>
<path id="Vector_17" d="M6.50067 3.50146H5.50317V4.49896H6.50067V3.50146Z" fill="#000001"/>
<path id="Vector_18" d="M4.49909 16.5019V15.4978H3.50159V17.4994H6.50065V15.4978H5.50315V16.5019H4.49909Z" fill="#000001"/>
<path id="Vector_19" d="M5.50309 14.5002H4.49902V15.4977H5.50309V14.5002Z" fill="#000001"/>
<path id="Vector_20" d="M4.49909 3.50146H3.50159V4.49896H4.49909V3.50146Z" fill="#000001"/>
<path id="Vector_21" d="M19.501 1.5H2.49756V2.4975H19.501V1.5Z" fill="#000001"/>
<path id="Vector_22" d="M20.4984 9.49975V2.49756H19.5009V5.49662H2.4975V2.49756H1.5V16.5019H2.4975V6.50068H19.5009V9.49975H20.4984Z" fill="#000001"/>
</g>
</g>
</svg>
