<svg width="24" height="24" viewBox="0 0 24 24" fill="none" xmlns="http://www.w3.org/2000/svg">
<g id="coding-apps-websites-database">
<g id="Group">
<path id="Vector" d="M19.9997 19.501H21.0038V18.5035H22.0013V5.50317H21.0038V6.50067H19.9997V7.49817H17.0006V8.50224H6.99939V9.49974H16.0031V14.5004H17.0006V13.5029H19.9997V12.4988H21.0038V13.5029H19.9997V14.5004H17.0006V15.4979H16.0031V20.4985H6.99939V21.5025H17.0006V20.4985H19.9997V19.501Z" fill="#000001"/>
<path id="Vector_2" d="M21.0038 4.49902H19.0022V5.50309H21.0038V4.49902Z" fill="#000001"/>
<path id="Vector_3" d="M19.0022 3.50171H16.0032V4.49921H19.0022V3.50171Z" fill="#000001"/>
<path id="Vector_4" d="M16.0031 14.5005H6.99939V15.498H16.0031V14.5005Z" fill="#000001"/>
<path id="Vector_5" d="M11.0025 17.4995H8.00342V18.5036H11.0025V17.4995Z" fill="#000001"/>
<path id="Vector_6" d="M11.0025 11.5012H8.00342V12.4987H11.0025V11.5012Z" fill="#000001"/>
<path id="Vector_7" d="M16.0031 2.49756H8.00342V3.50162H16.0031V2.49756Z" fill="#000001"/>
<path id="Vector_8" d="M6.99943 19.501H4.00037V20.4985H6.99943V19.501Z" fill="#000001"/>
<path id="Vector_9" d="M6.99943 13.5029H4.00037V14.5004H6.99943V13.5029Z" fill="#000001"/>
<path id="Vector_10" d="M6.99943 7.49829H4.00037V8.50235H6.99943V7.49829Z" fill="#000001"/>
<path id="Vector_11" d="M8.00343 3.50171H4.9978V4.49921H8.00343V3.50171Z" fill="#000001"/>
<path id="Vector_12" d="M6.00193 15.4978H4.00037V17.4994H6.00193V15.4978Z" fill="#000001"/>
<path id="Vector_13" d="M6.00193 9.49976H4.00037V11.5013H6.00193V9.49976Z" fill="#000001"/>
<path id="Vector_14" d="M4.99781 4.49902H3.00281V5.50309H4.99781V4.49902Z" fill="#000001"/>
<path id="Vector_15" d="M4.00031 18.5034H3.00281V19.5009H4.00031V18.5034Z" fill="#000001"/>
<path id="Vector_16" d="M3.00284 13.5029H4.00034V12.4988H3.00284V7.49817H4.00034V6.50067H3.00284V5.50317H1.99878V18.5035H3.00284V13.5029Z" fill="#000001"/>
</g>
</g>
</svg>
