<svg width="24" height="24" viewBox="0 0 24 24" fill="none" xmlns="http://www.w3.org/2000/svg">
<g id="coding-apps-websites-music-player">
<g id="Group">
<path id="Vector" d="M22.4999 2.50415H21.5024V21.5026H22.4999V2.50415Z" fill="#000001"/>
<path id="Vector_2" d="M21.5026 21.5024H2.49756V22.4999H21.5026V21.5024Z" fill="#000001"/>
<path id="Vector_3" d="M19.5009 17.5059H18.4968V18.5034H19.5009V17.5059Z" fill="#000001"/>
<path id="Vector_4" d="M3.50159 3.50146V14.5002H20.4985V3.50146H3.50159ZM19.501 13.5027H4.49909V4.50553H19.501V13.5027Z" fill="#000001"/>
<path id="Vector_5" d="M18.4969 18.5034H17.4994V19.5009H18.4969V18.5034Z" fill="#000001"/>
<path id="Vector_6" d="M18.4969 16.502H17.4994V17.506H18.4969V16.502Z" fill="#000001"/>
<path id="Vector_7" d="M17.4994 9.49964H18.4969V8.50214H17.4994V7.50464H16.5019V10.5037H15.4978V11.5012H17.4994V9.49964Z" fill="#000001"/>
<path id="Vector_8" d="M16.5019 16.502H15.4978V19.501H16.5019V16.502Z" fill="#000001"/>
<path id="Vector_9" d="M13.5028 7.50474H12.4987V8.50224H14.5003V5.50317H11.5012V6.50067H13.5028V7.50474Z" fill="#000001"/>
<path id="Vector_10" d="M12.4988 16.5019H11.5013V15.5044H10.4972V20.505H11.5013V19.501H12.4988V18.5035H13.5028V17.506H12.4988V16.5019Z" fill="#000001"/>
<path id="Vector_11" d="M11.5012 6.50073H10.4971V8.5023H9.49963V9.49979H11.5012V6.50073Z" fill="#000001"/>
<path id="Vector_12" d="M8.50223 16.502H7.49817V19.501H8.50223V16.502Z" fill="#000001"/>
<path id="Vector_13" d="M7.49817 7.50464H6.50067V10.5037H5.50317V11.5012H7.49817V7.50464Z" fill="#000001"/>
<path id="Vector_14" d="M6.50067 18.5034H5.50317V19.5009H6.50067V18.5034Z" fill="#000001"/>
<path id="Vector_15" d="M6.50067 16.502H5.50317V17.506H6.50067V16.502Z" fill="#000001"/>
<path id="Vector_16" d="M5.50309 17.5059H4.49902V18.5034H5.50309V17.5059Z" fill="#000001"/>
<path id="Vector_17" d="M21.5026 1.5H2.49756V2.50406H21.5026V1.5Z" fill="#000001"/>
<path id="Vector_18" d="M2.4975 2.50415H1.5V21.5026H2.4975V2.50415Z" fill="#000001"/>
</g>
</g>
</svg>
