<svg width="24" height="24" viewBox="0 0 24 24" fill="none" xmlns="http://www.w3.org/2000/svg">
<g id="coding-apps-websites-android">
<g id="Group">
<path id="Vector" d="M21.5025 11.5012H20.4984V16.5018H21.5025V11.5012Z" fill="#000001"/>
<path id="Vector_2" d="M19.5008 17.5059H20.4983V16.5019H19.5008V11.5013H20.4983V10.5038H19.5008V8.5022H18.4968V10.5038H5.50303V8.5022H4.49896V10.5038H3.50146V11.5013H4.49896V16.5019H3.50146V17.5059H4.49896V18.5034H5.50303V11.5013H18.4968V18.5034H19.5008V17.5059Z" fill="#000001"/>
<path id="Vector_3" d="M19.5009 1.5H18.4968V2.50406H19.5009V1.5Z" fill="#000001"/>
<path id="Vector_4" d="M18.4968 18.5034H17.4993V19.5009H18.4968V18.5034Z" fill="#000001"/>
<path id="Vector_5" d="M18.4968 6.50073H17.4993V8.5023H18.4968V6.50073Z" fill="#000001"/>
<path id="Vector_6" d="M18.4968 2.50415H17.4993V3.50165H18.4968V2.50415Z" fill="#000001"/>
<path id="Vector_7" d="M17.4993 5.50317H16.5018V6.50067H17.4993V5.50317Z" fill="#000001"/>
<path id="Vector_8" d="M17.4993 3.50146H16.5018V4.50553H17.4993V3.50146Z" fill="#000001"/>
<path id="Vector_9" d="M15.4978 21.5025H16.5019V20.505H17.4994V19.501H15.4978V21.5025Z" fill="#000001"/>
<path id="Vector_10" d="M16.5018 4.50562H14.5002V5.50312H16.5018V4.50562Z" fill="#000001"/>
<path id="Vector_11" d="M15.4978 21.5024H13.5028V22.4999H15.4978V21.5024Z" fill="#000001"/>
<path id="Vector_12" d="M10.4971 19.501V21.5025H11.5011V20.505H12.4986V21.5025H13.5027V19.501H10.4971Z" fill="#000001"/>
<path id="Vector_13" d="M14.5003 3.50146H9.49963V4.50553H14.5003V3.50146Z" fill="#000001"/>
<path id="Vector_14" d="M10.4971 21.5024H8.50208V22.4999H10.4971V21.5024Z" fill="#000001"/>
<path id="Vector_15" d="M16.5018 9.49979V7.50479H15.4977V6.50073H8.50211V7.50479H7.49805V9.49979H16.5018ZM13.5027 7.50479H14.5002V8.5023H13.5027V7.50479ZM9.49961 7.50479H10.4971V8.5023H9.49961V7.50479Z" fill="#000001"/>
<path id="Vector_16" d="M9.49961 4.50562H7.49805V5.50312H9.49961V4.50562Z" fill="#000001"/>
<path id="Vector_17" d="M6.50061 19.501V20.505H7.49811V21.5025H8.50217V19.501H6.50061Z" fill="#000001"/>
<path id="Vector_18" d="M7.49811 5.50317H6.50061V6.50067H7.49811V5.50317Z" fill="#000001"/>
<path id="Vector_19" d="M7.49811 3.50146H6.50061V4.50553H7.49811V3.50146Z" fill="#000001"/>
<path id="Vector_20" d="M6.50055 18.5034H5.50305V19.5009H6.50055V18.5034Z" fill="#000001"/>
<path id="Vector_21" d="M6.50055 6.50073H5.50305V8.5023H6.50055V6.50073Z" fill="#000001"/>
<path id="Vector_22" d="M6.50055 2.50415H5.50305V3.50165H6.50055V2.50415Z" fill="#000001"/>
<path id="Vector_23" d="M5.50309 1.5H4.49902V2.50406H5.50309V1.5Z" fill="#000001"/>
<path id="Vector_24" d="M3.5015 11.5012H2.49744V16.5018H3.5015V11.5012Z" fill="#000001"/>
</g>
</g>
</svg>
