<svg width="24" height="24" viewBox="0 0 24 24" fill="none" xmlns="http://www.w3.org/2000/svg">
<g id="coding-apps-websites-plugin">
<g id="Group">
<path id="Vector" d="M21.5025 5.50317H20.505V6.50067H19.501V7.50474H20.505V8.50224H21.5025V7.50474H22.5V6.50067H21.5025V5.50317Z" fill="#000001"/>
<path id="Vector_2" d="M21.5025 13.5028H20.505V12.5053H18.5034V8.5022H11.5012V12.5053H4.49906V13.5028H3.50156V14.5003H2.50406V15.5044H1.5V16.5019H4.49906V22.5H19.5009V16.5019H22.5V14.5003H21.5025V13.5028ZM12.4988 9.4997H17.4994V12.5053H12.4988V9.4997ZM13.5028 21.5025H5.50312V16.5019H12.4988V15.5044H13.5028V21.5025ZM18.5034 21.5025H14.5003V13.5028H18.5034V21.5025Z" fill="#000001"/>
<path id="Vector_3" d="M15.5044 3.50146H14.5004V4.50553H15.5044V3.50146Z" fill="#000001"/>
<path id="Vector_4" d="M12.4988 1.5V6.50062H17.4994V5.50312H16.5019V4.50562H15.5044V5.50312H13.5028V3.50156H14.5003V2.50406H13.5028V1.5H12.4988Z" fill="#000001"/>
<path id="Vector_5" d="M10.5037 6.50073H9.49963V9.49979H10.5037V6.50073Z" fill="#000001"/>
<path id="Vector_6" d="M9.4997 9.49976H8.5022V10.5038H9.4997V9.49976Z" fill="#000001"/>
<path id="Vector_7" d="M9.4997 5.50317H8.5022V6.50067H9.4997V5.50317Z" fill="#000001"/>
<path id="Vector_8" d="M8.50224 10.5037H5.50317V11.5012H8.50224V10.5037Z" fill="#000001"/>
<path id="Vector_9" d="M8.50224 4.50562H5.50317V5.50312H8.50224V4.50562Z" fill="#000001"/>
<path id="Vector_10" d="M5.50309 9.49976H4.49902V10.5038H5.50309V9.49976Z" fill="#000001"/>
<path id="Vector_11" d="M5.50309 5.50317H4.49902V6.50067H5.50309V5.50317Z" fill="#000001"/>
<path id="Vector_12" d="M4.49909 6.50073H3.50159V9.49979H4.49909V6.50073Z" fill="#000001"/>
<path id="Vector_13" d="M3.50153 2.50415H2.50403V3.50165H3.50153V2.50415Z" fill="#000001"/>
</g>
</g>
</svg>
