<svg width="24" height="24" viewBox="0 0 24 24" fill="none" xmlns="http://www.w3.org/2000/svg">
<g id="coding-apps-websites-live-status">
<g id="Group">
<path id="Vector" d="M2.4975 21.4991H21.5025V20.5016H22.5V13.4995H21.5025V12.502H2.4975V13.4995H1.5V20.5016H2.4975V21.4991ZM18.4969 14.5035H20.4984V16.5051H18.4969V14.5035ZM13.5028 14.5035H16.5019V15.501H14.5003V16.5051H16.5019V17.5026H14.5003V18.5001H16.5019V19.5041H13.5028V14.5035ZM9.49969 14.5035H10.4972V18.5001H11.5012V14.5035H12.4988V18.5001H11.5012V19.5041H10.4972V18.5001H9.49969V14.5035ZM7.49813 14.5035H8.50219V19.5041H7.49813V14.5035ZM3.50156 14.5035H4.49906V18.5001H6.50062V19.5041H3.50156V14.5035Z" fill="#000001"/>
<path id="Vector_2" d="M19.5009 6.50391H18.4968V7.50141H19.5009V6.50391Z" fill="#000001"/>
<path id="Vector_3" d="M18.4969 5.49976H17.4994V6.50382H18.4969V5.49976Z" fill="#000001"/>
<path id="Vector_4" d="M17.4993 8.49878H16.5018V9.50284H17.4993V8.49878Z" fill="#000001"/>
<path id="Vector_5" d="M16.5019 7.50146H15.4978V8.49896H16.5019V7.50146Z" fill="#000001"/>
<path id="Vector_6" d="M17.4994 4.5022H15.4978V5.4997H17.4994V4.5022Z" fill="#000001"/>
<path id="Vector_7" d="M15.4978 6.50391H13.5028V7.50141H15.4978V6.50391Z" fill="#000001"/>
<path id="Vector_8" d="M14.5003 9.50293H13.5028V10.5004H14.5003V9.50293Z" fill="#000001"/>
<path id="Vector_9" d="M15.4978 3.50488H13.5028V4.50238H15.4978V3.50488Z" fill="#000001"/>
<path id="Vector_10" d="M13.5028 8.49878H10.4972V9.50284H13.5028V8.49878Z" fill="#000001"/>
<path id="Vector_11" d="M13.5028 5.49976H10.4972V6.50382H13.5028V5.49976Z" fill="#000001"/>
<path id="Vector_12" d="M13.5028 2.50073H10.4972V3.50479H13.5028V2.50073Z" fill="#000001"/>
<path id="Vector_13" d="M10.4971 9.50293H9.49963V10.5004H10.4971V9.50293Z" fill="#000001"/>
<path id="Vector_14" d="M10.4972 3.50488H8.5022V4.50238H10.4972V3.50488Z" fill="#000001"/>
<path id="Vector_15" d="M10.4972 6.50391H8.5022V7.50141H10.4972V6.50391Z" fill="#000001"/>
<path id="Vector_16" d="M8.50223 7.50146H7.49817V8.49896H8.50223V7.50146Z" fill="#000001"/>
<path id="Vector_17" d="M8.50217 4.5022H6.50061V5.4997H8.50217V4.5022Z" fill="#000001"/>
<path id="Vector_18" d="M7.49811 8.49878H6.50061V9.50284H7.49811V8.49878Z" fill="#000001"/>
<path id="Vector_19" d="M6.50067 5.49976H5.50317V6.50382H6.50067V5.49976Z" fill="#000001"/>
<path id="Vector_20" d="M5.50309 6.50391H4.49902V7.50141H5.50309V6.50391Z" fill="#000001"/>
</g>
</g>
</svg>
