<svg width="24" height="24" viewBox="0 0 24 24" fill="none" xmlns="http://www.w3.org/2000/svg">
<g id="coding-apps-websites-programming-browser-bugs-1">
<g id="Group">
<path id="Vector" d="M22.4999 13.4963H21.5024V14.5004H22.4999V13.4963Z" fill="#000001"/>
<path id="Vector_2" d="M21.5025 19.501H20.4984V20.4985H21.5025V19.501Z" fill="#000001"/>
<path id="Vector_3" d="M21.5025 17.4993H20.4984V18.4968H21.5025V17.4993Z" fill="#000001"/>
<path id="Vector_4" d="M19.501 12.4988V11.5013H18.5035V9.49976H17.4994V10.4973H15.4978V11.5013H14.5003V12.4988H13.5028V14.5004H12.4988V15.4979H14.5003V16.5019H15.4978V18.4969H16.5019V17.4994H18.5035V16.5019H19.501V15.4979H20.4985V13.4963H21.5025V12.4988H19.501ZM15.4978 14.5004H14.5003V13.4963H15.4978V14.5004ZM17.4994 16.5019H16.5019V15.4979H17.4994V16.5019ZM17.4994 14.5004H16.5019V13.4963H17.4994V14.5004ZM17.4994 12.4988H16.5019V11.5013H17.4994V12.4988ZM19.501 14.5004H18.5035V13.4963H19.501V14.5004Z" fill="#000001"/>
<path id="Vector_5" d="M20.4985 10.4971H19.501V11.5011H20.4985V10.4971Z" fill="#000001"/>
<path id="Vector_6" d="M20.4984 20.4985H18.5034V21.5026H20.4984V20.4985Z" fill="#000001"/>
<path id="Vector_7" d="M17.4993 18.4968H16.5018V19.5009H17.4993V18.4968Z" fill="#000001"/>
<path id="Vector_8" d="M17.4993 8.5022H16.5018V9.4997H17.4993V8.5022Z" fill="#000001"/>
<path id="Vector_9" d="M16.5019 20.4985H14.5004V21.5026H16.5019V20.4985Z" fill="#000001"/>
<path id="Vector_10" d="M15.4978 9.49976H13.5028V10.4973H15.4978V9.49976Z" fill="#000001"/>
<path id="Vector_11" d="M14.5003 16.502H13.5028V17.4995H14.5003V16.502Z" fill="#000001"/>
<path id="Vector_12" d="M13.5028 10.4971H12.4988V12.4986H13.5028V10.4971Z" fill="#000001"/>
<path id="Vector_13" d="M12.4987 13.4963H11.5012V14.5004H12.4987V13.4963Z" fill="#000001"/>
<path id="Vector_14" d="M12.4988 20.4985H10.5038V21.5026H12.4988V20.4985Z" fill="#000001"/>
<path id="Vector_15" d="M12.4988 17.4993H2.49756V18.4968H12.4988V17.4993Z" fill="#000001"/>
<path id="Vector_16" d="M10.5038 11.5012H3.50159V12.4987H10.5038V11.5012Z" fill="#000001"/>
<path id="Vector_17" d="M10.5038 14.5002H3.50159V15.4977H10.5038V14.5002Z" fill="#000001"/>
<path id="Vector_18" d="M8.50223 3.50146H7.49817V4.49896H8.50223V3.50146Z" fill="#000001"/>
<path id="Vector_19" d="M8.50217 20.4985H6.50061V21.5026H8.50217V20.4985Z" fill="#000001"/>
<path id="Vector_20" d="M6.50067 21.5024H5.50317V22.4999H6.50067V21.5024Z" fill="#000001"/>
<path id="Vector_21" d="M6.50067 3.50146H5.50317V4.49896H6.50067V3.50146Z" fill="#000001"/>
<path id="Vector_22" d="M9.49971 8.5022H3.50159V9.4997H9.49971V8.5022Z" fill="#000001"/>
<path id="Vector_23" d="M4.49909 3.50146H3.50159V4.49896H4.49909V3.50146Z" fill="#000001"/>
<path id="Vector_24" d="M19.501 1.5H2.49756V2.4975H19.501V1.5Z" fill="#000001"/>
<path id="Vector_25" d="M2.4975 6.50068H19.5009V9.49975H20.4984V2.49756H19.5009V5.49662H2.4975V2.49756H1.5V17.4994H2.4975V6.50068Z" fill="#000001"/>
</g>
</g>
</svg>
