<svg width="24" height="24" viewBox="0 0 24 24" fill="none" xmlns="http://www.w3.org/2000/svg">
<g id="coding-apps-websites-phone-tablet">
<g id="Group">
<path id="Vector" d="M22.0013 17.4993H20.9972V18.4968H22.0013V17.4993Z" fill="#000001"/>
<path id="Vector_2" d="M20.9973 16.4954H19.9998V17.4994H20.9973V16.4954Z" fill="#000001"/>
<path id="Vector_3" d="M20.9973 18.4968H19.9998V19.5009H20.9973V18.4968Z" fill="#000001"/>
<path id="Vector_4" d="M19.9997 15.4978H18.9956V16.4953H19.9997V15.4978Z" fill="#000001"/>
<path id="Vector_5" d="M19.9997 19.501H18.9956V20.4985H19.9997V19.501Z" fill="#000001"/>
<path id="Vector_6" d="M18.9957 14.5002H17.9982V15.4977H18.9957V14.5002Z" fill="#000001"/>
<path id="Vector_7" d="M18.9957 18.4968H17.9982V19.5009H18.9957V18.4968Z" fill="#000001"/>
<path id="Vector_8" d="M17.9981 13.4963H17.0006V14.5004H17.9981V13.4963Z" fill="#000001"/>
<path id="Vector_9" d="M17.9981 17.4993H17.0006V18.4968H17.9981V17.4993Z" fill="#000001"/>
<path id="Vector_10" d="M17.0006 12.4988H15.9966V13.4963H17.0006V12.4988Z" fill="#000001"/>
<path id="Vector_11" d="M17.0006 16.4954H15.9966V17.4994H17.0006V16.4954Z" fill="#000001"/>
<path id="Vector_12" d="M14.9991 15.4977V14.5002H14.0016V15.4977H14.9925V16.4952H15.9966V15.4977H14.9991Z" fill="#000001"/>
<path id="Vector_13" d="M2.99628 2.4975H1.99878V21.4959H2.99628V22.5H14.9925V21.4959H15.9966V18.4969H14.9925V20.4984H2.99628V3.495H5.99534V4.49906H11.9935V3.495H14.9925V9.49969H15.9966V2.4975H14.9925V1.5H2.99628V2.4975ZM8.9944 2.4975H10.996V3.495H8.9944V2.4975ZM6.99284 2.4975H7.9969V3.495H6.99284V2.4975Z" fill="#000001"/>
<path id="Vector_14" d="M14.0016 13.4963H12.9976V14.5004H14.0016V13.4963Z" fill="#000001"/>
<path id="Vector_15" d="M14.0016 6.50073H12V8.49573H14.0016V6.50073Z" fill="#000001"/>
<path id="Vector_16" d="M14.9925 11.4946V12.4986H15.9966V11.4946H14.9991V10.4971H12V13.4961H12.9975V11.4946H14.9925Z" fill="#000001"/>
<path id="Vector_17" d="M9.99851 6.50073H7.99695V8.49573H9.99851V6.50073Z" fill="#000001"/>
<path id="Vector_18" d="M9.99851 17.4993V16.4952H10.996V15.4977H9.99851V14.5002H9.00101V15.4977H7.99695V16.4952H9.00101V17.4993H9.99851Z" fill="#000001"/>
<path id="Vector_19" d="M9.99851 10.4971H7.99695V12.4986H9.99851V10.4971Z" fill="#000001"/>
<path id="Vector_20" d="M6.00193 6.50073H4.00037V8.49573H6.00193V6.50073Z" fill="#000001"/>
<path id="Vector_21" d="M6.00193 10.4971H4.00037V12.4986H6.00193V10.4971Z" fill="#000001"/>
<path id="Vector_22" d="M6.00193 14.5002H4.00037V16.4952H6.00193V14.5002Z" fill="#000001"/>
</g>
</g>
</svg>
