<svg width="24" height="24" viewBox="0 0 24 24" fill="none" xmlns="http://www.w3.org/2000/svg">
<g id="coding-apps-websites-favorite-rate">
<g id="Group">
<path id="Vector" d="M22.4999 11.5012H21.5024V18.5034H22.4999V11.5012Z" fill="#000001"/>
<path id="Vector_2" d="M21.5025 18.5034H20.505V19.5009H21.5025V18.5034Z" fill="#000001"/>
<path id="Vector_3" d="M21.5025 10.5037H20.505V11.5012H21.5025V10.5037Z" fill="#000001"/>
<path id="Vector_4" d="M19.5009 21.5025H18.5034V22.5H20.505V19.501H19.5009V21.5025Z" fill="#000001"/>
<path id="Vector_5" d="M18.5034 9.49979H14.5003V8.5023H13.5028V9.49979H11.5012V10.5039H20.505V9.49979H19.5009V6.50073H18.5034V9.49979Z" fill="#000001"/>
<path id="Vector_6" d="M18.5035 20.5049H17.4994V21.5024H18.5035V20.5049Z" fill="#000001"/>
<path id="Vector_7" d="M18.5035 11.5012H16.5019V12.5053H15.5044V11.5012H13.5028V12.5053H12.4988V14.5003H13.5028V15.5043H14.5003V16.5018H15.5044V17.5059H16.5019V16.5018H17.4994V15.5043H18.5035V14.5003H19.501V12.5053H18.5035V11.5012Z" fill="#000001"/>
<path id="Vector_8" d="M18.5035 5.50317H17.4994V6.50067H18.5035V5.50317Z" fill="#000001"/>
<path id="Vector_9" d="M17.4993 19.501H16.5018V20.505H17.4993V19.501Z" fill="#000001"/>
<path id="Vector_10" d="M17.4993 4.50562H16.5018V5.50312H17.4993V4.50562Z" fill="#000001"/>
<path id="Vector_11" d="M16.5018 18.5034H11.5012V19.5009H16.5018V18.5034Z" fill="#000001"/>
<path id="Vector_12" d="M16.5019 3.50146H14.5004V4.50553H16.5019V3.50146Z" fill="#000001"/>
<path id="Vector_13" d="M14.5003 2.50415H12.4988V3.50165H14.5003V2.50415Z" fill="#000001"/>
<path id="Vector_14" d="M14.5003 7.50474V8.50224H15.5043V6.50067H12.4987V5.50317H11.5012V7.50474H14.5003Z" fill="#000001"/>
<path id="Vector_15" d="M11.5013 17.5059H10.5038V18.5034H11.5013V17.5059Z" fill="#000001"/>
<path id="Vector_16" d="M11.5013 10.5037H10.5038V11.5012H11.5013V10.5037Z" fill="#000001"/>
<path id="Vector_17" d="M11.5013 4.50562H10.5038V5.50312H11.5013V4.50562Z" fill="#000001"/>
<path id="Vector_18" d="M10.5037 11.5012H8.50217V12.5053H9.49967V16.5018H6.50061V17.5059H10.5037V11.5012Z" fill="#000001"/>
<path id="Vector_19" d="M10.5037 3.50146H9.49963V4.50553H10.5037V3.50146Z" fill="#000001"/>
<path id="Vector_20" d="M12.4988 1.5H8.5022V2.50406H12.4988V1.5Z" fill="#000001"/>
<path id="Vector_21" d="M9.4997 4.50562H8.5022V5.50312H9.4997V4.50562Z" fill="#000001"/>
<path id="Vector_22" d="M8.50214 12.5054H7.50464V13.5029H8.50214V12.5054Z" fill="#000001"/>
<path id="Vector_23" d="M8.50217 2.50415H6.50061V3.50165H8.50217V2.50415Z" fill="#000001"/>
<path id="Vector_24" d="M7.50467 13.5029H6.50061V14.5004H7.50467V13.5029Z" fill="#000001"/>
<path id="Vector_25" d="M7.50467 9.49976H6.50061V11.5013H7.50467V9.49976Z" fill="#000001"/>
<path id="Vector_26" d="M6.50067 11.5012H5.50317V13.5028H6.50067V11.5012Z" fill="#000001"/>
<path id="Vector_27" d="M6.50067 8.5022H5.50317V9.4997H6.50067V8.5022Z" fill="#000001"/>
<path id="Vector_28" d="M8.50215 7.50474V5.50317H7.50465V6.50067H4.49902V8.50224H5.50309V7.50474H8.50215Z" fill="#000001"/>
<path id="Vector_29" d="M6.50059 3.50146H4.49902V4.50553H6.50059V3.50146Z" fill="#000001"/>
<path id="Vector_30" d="M3.50156 17.506V16.502H2.50406V17.506H1.5V18.5035H6.50062V17.506H3.50156Z" fill="#000001"/>
<path id="Vector_31" d="M4.49909 14.5002H3.50159V16.5018H4.49909V14.5002Z" fill="#000001"/>
<path id="Vector_32" d="M4.49909 4.50562H3.50159V5.50312H4.49909V4.50562Z" fill="#000001"/>
<path id="Vector_33" d="M3.50153 13.5029H2.50403V14.5004H3.50153V13.5029Z" fill="#000001"/>
<path id="Vector_34" d="M3.50153 5.50317H2.50403V6.50067H3.50153V5.50317Z" fill="#000001"/>
<path id="Vector_35" d="M2.50406 6.50073H1.5V13.5029H2.50406V6.50073Z" fill="#000001"/>
</g>
</g>
</svg>
