<svg width="24" height="24" viewBox="0 0 24 24" fill="none" xmlns="http://www.w3.org/2000/svg">
<g id="coding-apps-websites-solves">
<g id="Group">
<path id="Vector" d="M21.0004 8H19.9963V20.0028H21.0004V8Z" fill="#000001"/>
<path id="Vector_2" d="M19.9964 20.0029H18.9989V21.0004H19.9964V20.0029Z" fill="#000001"/>
<path id="Vector_3" d="M19.9964 7.00269H18.9989V8.00019H19.9964V7.00269Z" fill="#000001"/>
<path id="Vector_4" d="M18.9989 21.0005H5.0011V21.998H18.9989V21.0005Z" fill="#000001"/>
<path id="Vector_5" d="M18.9989 5.99854H14.9957V7.0026H18.9989V5.99854Z" fill="#000001"/>
<path id="Vector_6" d="M14.9958 3.99707H13.9983V5.99863H14.9958V3.99707Z" fill="#000001"/>
<path id="Vector_7" d="M13.9982 2.99951H13.0007V3.99701H13.9982V2.99951Z" fill="#000001"/>
<path id="Vector_8" d="M13.0007 2.00195H10.9991V2.99945H13.0007V2.00195Z" fill="#000001"/>
<path id="Vector_9" d="M10.9992 2.99951H9.99512V3.99701H10.9992V2.99951Z" fill="#000001"/>
<path id="Vector_10" d="M9.99518 3.99707H8.99768V5.99863H9.99518V3.99707Z" fill="#000001"/>
<path id="Vector_11" d="M8.00016 13.0007H6.99609V15.0023H8.00016V13.0007Z" fill="#000001"/>
<path id="Vector_12" d="M6.99604 15.0022H5.99854V15.9997H6.99604V15.0022Z" fill="#000001"/>
<path id="Vector_13" d="M6.99604 11.9966H5.99854V13.0006H6.99604V11.9966Z" fill="#000001"/>
<path id="Vector_14" d="M8.99766 5.99854H5.0011V7.0026H8.99766V5.99854Z" fill="#000001"/>
<path id="Vector_15" d="M3.99701 10.9991V8H2.99951V11.9966H5.99857V10.9991H3.99701Z" fill="#000001"/>
<path id="Vector_16" d="M5.00113 20.0029H3.99707V21.0004H5.00113V20.0029Z" fill="#000001"/>
<path id="Vector_17" d="M5.00113 7.00269H3.99707V8.00019H5.00113V7.00269Z" fill="#000001"/>
<path id="Vector_18" d="M3.99701 16.9973H5.99857V15.9998H2.99951V20.0029H3.99701V16.9973Z" fill="#000001"/>
</g>
</g>
</svg>
