<svg width="24" height="24" viewBox="0 0 24 24" fill="none" xmlns="http://www.w3.org/2000/svg">
<g id="coding-apps-websites-programming-browser">
<g id="Group">
<path id="Vector" d="M2.4975 7.49827H21.5025V20.4986H22.5V3.50171H21.5025V6.50077H2.4975V3.50171H1.5V20.4986H2.4975V7.49827Z" fill="#000001"/>
<path id="Vector_2" d="M21.5026 20.4985H2.49756V21.5026H21.5026V20.4985Z" fill="#000001"/>
<path id="Vector_3" d="M4.49902 9.49976V18.5035H19.5009V9.49976H4.49902ZM10.4971 14.5004H9.49965V15.4979H8.50215V16.5019H7.49809V15.4979H8.50215V14.5004H9.49965V13.5029H8.50215V12.4988H7.49809V11.5013H8.50215V12.4988H9.49965V13.5029H10.4971V14.5004ZM16.5018 14.5004H12.4987V13.5029H16.5018V14.5004Z" fill="#000001"/>
<path id="Vector_4" d="M8.50223 4.49902H7.49817V5.50309H8.50223V4.49902Z" fill="#000001"/>
<path id="Vector_5" d="M6.50067 4.49902H5.50317V5.50309H6.50067V4.49902Z" fill="#000001"/>
<path id="Vector_6" d="M4.49909 4.49902H3.50159V5.50309H4.49909V4.49902Z" fill="#000001"/>
<path id="Vector_7" d="M21.5026 2.49756H2.49756V3.50162H21.5026V2.49756Z" fill="#000001"/>
</g>
</g>
</svg>
