<svg width="24" height="24" viewBox="0 0 24 24" fill="none" xmlns="http://www.w3.org/2000/svg">
<g id="coding-apps-websites-setting-computer">
<g id="Group">
<path id="Vector" d="M2.4975 22.0012H21.4959V20.9971H22.5V17.998H21.4959V19.9996H2.4975V17.998H1.5V20.9971H2.4975V22.0012Z" fill="#000001"/>
<path id="Vector_2" d="M21.4959 16.0032H20.4984V17.9982H21.4959V16.0032Z" fill="#000001"/>
<path id="Vector_3" d="M19.501 14.0017V14.9992H17.4994V16.0033H20.4985V14.0017H19.501Z" fill="#000001"/>
<path id="Vector_4" d="M20.4985 11.0024H19.501V11.9999H20.4985V11.0024Z" fill="#000001"/>
<path id="Vector_5" d="M20.4985 7.99701V9.00107H19.501V9.99857H21.496V6.99951H19.501V7.99701H20.4985Z" fill="#000001"/>
<path id="Vector_6" d="M20.4985 4.9978H19.501V6.00187H20.4985V4.9978Z" fill="#000001"/>
<path id="Vector_7" d="M19.5009 12H18.4968V12.9975H19.5009V12Z" fill="#000001"/>
<path id="Vector_8" d="M19.5009 9.99854H18.4968V11.0026H19.5009V9.99854Z" fill="#000001"/>
<path id="Vector_9" d="M19.5009 6.00195H18.4968V6.99945H19.5009V6.00195Z" fill="#000001"/>
<path id="Vector_10" d="M19.5009 4.00024H18.4968V4.99774H19.5009V4.00024Z" fill="#000001"/>
<path id="Vector_11" d="M18.4969 12.9976H17.4994V14.0016H18.4969V12.9976Z" fill="#000001"/>
<path id="Vector_12" d="M18.4969 3.00293H17.4994V4.00043H18.4969V3.00293Z" fill="#000001"/>
<path id="Vector_13" d="M17.4994 12H16.4954V12.9975H17.4994V12Z" fill="#000001"/>
<path id="Vector_14" d="M17.4994 4.00024H16.4954V4.99774H17.4994V4.00024Z" fill="#000001"/>
<path id="Vector_15" d="M15.4978 14.0016H14.5003V12.9976H13.4962V14.9991H16.4953V12.9976H15.4978V14.0016Z" fill="#000001"/>
<path id="Vector_16" d="M16.4953 6.00195H13.4963V6.99945H12.4988V9.99852H13.4963V11.0026H16.4953V9.99852H17.4994V6.99945H16.4953V6.00195ZM16.4953 9.00102H15.4978V9.99852H14.5003V9.00102H13.4963V7.99695H14.5003V6.99945H15.4978V7.99695H16.4953V9.00102Z" fill="#000001"/>
<path id="Vector_17" d="M14.5003 3.00284H15.4978V4.00034H16.4953V1.99878H13.4962V4.00034H14.5003V3.00284Z" fill="#000001"/>
<path id="Vector_18" d="M13.4963 12H12.4988V12.9975H13.4963V12Z" fill="#000001"/>
<path id="Vector_19" d="M13.4963 4.00024H12.4988V4.99774H13.4963V4.00024Z" fill="#000001"/>
<path id="Vector_20" d="M13.4963 17.998H10.4972V19.0021H13.4963V17.998Z" fill="#000001"/>
<path id="Vector_21" d="M12.4987 12.9976H11.5012V14.0016H12.4987V12.9976Z" fill="#000001"/>
<path id="Vector_22" d="M12.4987 3.00293H11.5012V4.00043H12.4987V3.00293Z" fill="#000001"/>
<path id="Vector_23" d="M11.5013 12H10.4972V12.9975H11.5013V12Z" fill="#000001"/>
<path id="Vector_24" d="M11.5013 9.99854H10.4972V11.0026H11.5013V9.99854Z" fill="#000001"/>
<path id="Vector_25" d="M11.5013 6.00195H10.4972V6.99945H11.5013V6.00195Z" fill="#000001"/>
<path id="Vector_26" d="M11.5013 4.00024H10.4972V4.99774H11.5013V4.00024Z" fill="#000001"/>
<path id="Vector_27" d="M10.4971 11.0024H9.49963V11.9999H10.4971V11.0024Z" fill="#000001"/>
<path id="Vector_28" d="M9.49967 9.00107V7.99701H10.4972V6.99951H8.49561V9.99857H10.4972V9.00107H9.49967Z" fill="#000001"/>
<path id="Vector_29" d="M10.4971 4.9978H9.49963V6.00187H10.4971V4.9978Z" fill="#000001"/>
<path id="Vector_30" d="M8.49559 4.00024H4.49902V4.99774H8.49559V4.00024Z" fill="#000001"/>
<path id="Vector_31" d="M8.49565 16.0031V14.9991H4.49909V4.9978H3.50159V16.0031H8.49565Z" fill="#000001"/>
<path id="Vector_32" d="M3.50162 16.0032H2.49756V17.9982H3.50162V16.0032Z" fill="#000001"/>
</g>
</g>
</svg>
