<svg width="24" height="24" viewBox="0 0 24 24" fill="none" xmlns="http://www.w3.org/2000/svg">
<g id="coding-app-website-ui">
<g id="Group">
<path id="Vector" d="M2.4975 6.50068H21.5025V21.496H22.5V2.49756H21.5025V5.49662H2.4975V2.49756H1.5V21.496H2.4975V6.50068Z" fill="#000001"/>
<path id="Vector_2" d="M21.5026 21.4958H2.49756V22.4999H21.5026V21.4958Z" fill="#000001"/>
<path id="Vector_3" d="M19.5009 18.4968H15.4978V19.5009H19.5009V18.4968Z" fill="#000001"/>
<path id="Vector_4" d="M19.5009 16.4954H15.4978V17.4994H19.5009V16.4954Z" fill="#000001"/>
<path id="Vector_5" d="M4.49902 8.49561V14.5003H19.5009V8.49561H4.49902ZM18.4968 13.4962H11.5012V12.4987H10.4971V13.4962H5.49652V9.49967H15.4978V10.4972H16.5018V9.49967H18.4968V13.4962Z" fill="#000001"/>
<path id="Vector_6" d="M15.4978 10.4971H13.5028V11.4946H15.4978V10.4971Z" fill="#000001"/>
<path id="Vector_7" d="M13.5028 11.4946H11.5012V12.4987H13.5028V11.4946Z" fill="#000001"/>
<path id="Vector_8" d="M12.4987 18.4968H4.49902V19.5009H12.4987V18.4968Z" fill="#000001"/>
<path id="Vector_9" d="M12.4987 16.4954H4.49902V17.4994H12.4987V16.4954Z" fill="#000001"/>
<path id="Vector_10" d="M8.50223 3.49512H7.49817V4.49918H8.50223V3.49512Z" fill="#000001"/>
<path id="Vector_11" d="M8.50217 10.4971H6.50061V12.4986H8.50217V10.4971Z" fill="#000001"/>
<path id="Vector_12" d="M6.50064 3.49512H5.49658V4.49918H6.50064V3.49512Z" fill="#000001"/>
<path id="Vector_13" d="M4.49909 3.49512H3.50159V4.49918H4.49909V3.49512Z" fill="#000001"/>
<path id="Vector_14" d="M21.5026 1.5H2.49756V2.4975H21.5026V1.5Z" fill="#000001"/>
</g>
</g>
</svg>
