<svg width="24" height="24" viewBox="0 0 24 24" fill="none" xmlns="http://www.w3.org/2000/svg">
<g id="coding-apps-websites-finder">
<g id="Group">
<path id="Vector" d="M21.998 3.99707H21.0005V20.003H21.998V3.99707Z" fill="#000001"/>
<path id="Vector_2" d="M21.0005 20.0029H19.9965V21.0004H21.0005V20.0029Z" fill="#000001"/>
<path id="Vector_3" d="M21.0005 2.99951H19.9965V3.99701H21.0005V2.99951Z" fill="#000001"/>
<path id="Vector_4" d="M2.99958 21.0004H3.99708V21.9979H19.9965V21.0004H13.9983V18.9988H13.0008V18.0013H15.0024V16.9973H13.0008V16.003H12V13.004H9.00098V11.0024H10.005V10.0049H11.0025V7.9968H12V5.99852H13.0041V2.99945H19.9997V2.00195H3.99708V2.99945H2.99958V3.99695H2.00208V20.0062H2.99958V21.0004ZM5.99864 7.00258H7.0027V8.99758H5.99864V7.00258ZM5.99864 15.0023H7.0027V16.003H7.99692V17.0005H12V18.0046H7.99692V17.0005H7.0027V16.003H5.99864V15.0023Z" fill="#000001"/>
<path id="Vector_5" d="M18.0015 7.00269H16.9974V8.99769H18.0015V7.00269Z" fill="#000001"/>
<path id="Vector_6" d="M16.9974 15.0022H15.9999V15.9997H16.9974V15.0022Z" fill="#000001"/>
<path id="Vector_7" d="M15.9999 15.9998H15.0024V16.9973H15.9999V15.9998Z" fill="#000001"/>
</g>
</g>
</svg>
