<svg width="24" height="24" viewBox="0 0 24 24" fill="none" xmlns="http://www.w3.org/2000/svg">
<g id="coding-apps-websites-conference">
<g id="Group">
<path id="Vector" d="M2.4975 17.4993H21.4959V18.4968H22.5V16.5018H20.4984V5.49652H19.4944V16.5018H18.4969V15.4978H17.4994V16.5018H11.4947V15.4978H10.4972V16.5018H9.49969V5.49652H19.4944V4.49902H4.49906V5.49652H8.49562V9.49965H4.49906V5.49652H3.495V16.5018H1.5V18.4968H2.4975V17.4993ZM4.49906 11.5012H8.49562V15.4978H4.49906V11.5012Z" fill="#000001"/>
<path id="Vector_2" d="M21.496 18.4968H2.49756V19.5009H21.496V18.4968Z" fill="#000001"/>
<path id="Vector_3" d="M17.4994 14.5002H15.4978V15.4977H17.4994V14.5002Z" fill="#000001"/>
<path id="Vector_4" d="M16.4953 12.4988H15.4978V13.4963H16.4953V12.4988Z" fill="#000001"/>
<path id="Vector_5" d="M15.4978 13.4961H13.4962V14.5002H15.4978V13.4961Z" fill="#000001"/>
<path id="Vector_6" d="M13.4962 14.5002H11.4946V15.4977H13.4962V14.5002Z" fill="#000001"/>
<path id="Vector_7" d="M13.4963 12.4988H12.4988V13.4963H13.4963V12.4988Z" fill="#000001"/>
<path id="Vector_8" d="M16.4953 10.4971V12.4987H17.4993V9.49961H16.4953V8.49555H15.4978V7.49805H13.4962V8.49555H12.4987V9.49961H11.4946V12.4987H12.4987V10.4971H16.4953Z" fill="#000001"/>
<path id="Vector_9" d="M7.49814 13.4961H5.49658V14.5002H7.49814V13.4961Z" fill="#000001"/>
<path id="Vector_10" d="M7.49814 7.49805H5.49658V8.49555H7.49814V7.49805Z" fill="#000001"/>
</g>
</g>
</svg>
