<svg width="24" height="24" viewBox="0 0 24 24" fill="none" xmlns="http://www.w3.org/2000/svg">
<g id="coding-apps-websites-mobile">
<g id="Group">
<path id="Vector" d="M21.5025 1.5H15.4978V2.50406H14.5003V8.50219H2.4975V9.49969H14.5003V12.5053H15.4978V16.5019H2.4975V9.49969H1.5V18.5034H2.4975V17.5059H15.4978V18.5034H16.5019V13.5028H21.5025V12.5053H22.5V2.50406H21.5025V1.5ZM17.4994 2.50406H19.5009V3.50156H17.4994V2.50406ZM21.5025 11.5012H15.4978V3.50156H16.5019V4.50562H20.4984V3.50156H21.5025V11.5012Z" fill="#000001"/>
<path id="Vector_2" d="M20.4985 7.50464H19.501V8.50214H20.4985V7.50464Z" fill="#000001"/>
<path id="Vector_3" d="M20.4985 5.50317H19.501V6.50067H20.4985V5.50317Z" fill="#000001"/>
<path id="Vector_4" d="M19.501 8.5022H17.4994V9.4997H19.501V8.5022Z" fill="#000001"/>
<path id="Vector_5" d="M17.4993 7.50464H16.5018V8.50214H17.4993V7.50464Z" fill="#000001"/>
<path id="Vector_6" d="M17.4993 5.50317H16.5018V6.50067H17.4993V5.50317Z" fill="#000001"/>
<path id="Vector_7" d="M2.49756 18.5034V19.5009H6.50068V20.505H7.49818V19.5009H10.4972V20.505H11.5013V19.5009H15.4979V18.5034H2.49756Z" fill="#000001"/>
<path id="Vector_8" d="M14.5003 12.5054H13.5028V13.5029H14.5003V12.5054Z" fill="#000001"/>
<path id="Vector_9" d="M13.5028 13.5029H12.4988V14.5004H13.5028V13.5029Z" fill="#000001"/>
<path id="Vector_10" d="M13.5028 11.5012H12.4988V12.5053H13.5028V11.5012Z" fill="#000001"/>
<path id="Vector_11" d="M12.4987 14.5002H11.5012V15.5043H12.4987V14.5002Z" fill="#000001"/>
<path id="Vector_12" d="M12.4987 10.5037H11.5012V11.5012H12.4987V10.5037Z" fill="#000001"/>
<path id="Vector_13" d="M6.50067 21.5024V20.5049H5.50317V22.4999H12.4988V20.5049H11.5013V21.5024H6.50067Z" fill="#000001"/>
<path id="Vector_14" d="M10.4971 10.5037H9.49963V12.5052H10.4971V10.5037Z" fill="#000001"/>
<path id="Vector_15" d="M9.4997 12.5054H8.5022V13.5029H9.4997V12.5054Z" fill="#000001"/>
<path id="Vector_16" d="M8.50223 13.5029H7.49817V15.5045H8.50223V13.5029Z" fill="#000001"/>
<path id="Vector_17" d="M6.50067 14.5002H5.50317V15.5043H6.50067V14.5002Z" fill="#000001"/>
<path id="Vector_18" d="M6.50067 10.5037H5.50317V11.5012H6.50067V10.5037Z" fill="#000001"/>
<path id="Vector_19" d="M5.50309 13.5029H4.49902V14.5004H5.50309V13.5029Z" fill="#000001"/>
<path id="Vector_20" d="M5.50309 11.5012H4.49902V12.5053H5.50309V11.5012Z" fill="#000001"/>
<path id="Vector_21" d="M4.49909 12.5054H3.50159V13.5029H4.49909V12.5054Z" fill="#000001"/>
</g>
</g>
</svg>
