<svg width="24" height="24" viewBox="0 0 24 24" fill="none" xmlns="http://www.w3.org/2000/svg">
<g id="coding-apps-websites-programming-hold-code">
<g id="Group">
<path id="Vector" d="M22.4999 12.0032H21.5024V17.0038H22.4999V12.0032Z" fill="#000001"/>
<path id="Vector_2" d="M21.5025 17.0039H20.4984V18.9989H21.5025V17.0039Z" fill="#000001"/>
<path id="Vector_3" d="M21.5025 10.0017H20.4984V12.0033H21.5025V10.0017Z" fill="#000001"/>
<path id="Vector_4" d="M20.4985 18.9988H19.501V21.0003H20.4985V18.9988Z" fill="#000001"/>
<path id="Vector_5" d="M20.4985 8.99756H19.501V10.0016H20.4985V8.99756Z" fill="#000001"/>
<path id="Vector_6" d="M19.5009 21.0005H18.4968V21.998H19.5009V21.0005Z" fill="#000001"/>
<path id="Vector_7" d="M19.5009 15.0022H18.4968V17.0038H19.5009V15.0022Z" fill="#000001"/>
<path id="Vector_8" d="M19.5009 12.0032H18.4968V13.9982H19.5009V12.0032Z" fill="#000001"/>
<path id="Vector_9" d="M19.5009 8H18.4968V8.9975H19.5009V8Z" fill="#000001"/>
<path id="Vector_10" d="M18.4969 17.0039H17.4994V18.0014H18.4969V17.0039Z" fill="#000001"/>
<path id="Vector_11" d="M18.4969 8.99756H17.4994V12.0032H18.4969V8.99756Z" fill="#000001"/>
<path id="Vector_12" d="M18.4969 5.00098H17.4994V5.99848H18.4969V5.00098Z" fill="#000001"/>
<path id="Vector_13" d="M17.4993 18.0012H16.5018V18.9987H17.4993V18.0012Z" fill="#000001"/>
<path id="Vector_14" d="M18.4968 13.9983H16.5018V15.0024H18.4968V13.9983Z" fill="#000001"/>
<path id="Vector_15" d="M17.4993 5.99854H16.5018V7.0026H17.4993V5.99854Z" fill="#000001"/>
<path id="Vector_16" d="M17.4993 4.00342H16.5018V5.00092H17.4993V4.00342Z" fill="#000001"/>
<path id="Vector_17" d="M16.5019 15.0022H15.4978V15.9997H16.5019V15.0022Z" fill="#000001"/>
<path id="Vector_18" d="M16.5019 7.00269H15.4978V8.00019H16.5019V7.00269Z" fill="#000001"/>
<path id="Vector_19" d="M16.5019 2.99951H15.4978V4.00357H16.5019V2.99951Z" fill="#000001"/>
<path id="Vector_20" d="M15.4979 21.0005H14.5004V21.998H15.4979V21.0005Z" fill="#000001"/>
<path id="Vector_21" d="M15.4979 15.9998H14.5004V17.0038H15.4979V15.9998Z" fill="#000001"/>
<path id="Vector_22" d="M15.4979 8H14.5004V8.9975H15.4979V8Z" fill="#000001"/>
<path id="Vector_23" d="M15.4979 2.00195H14.5004V2.99945H15.4979V2.00195Z" fill="#000001"/>
<path id="Vector_24" d="M14.5003 17.0039H13.5028V21.0005H14.5003V17.0039Z" fill="#000001"/>
<path id="Vector_25" d="M13.5028 2.00195H12.4988V4.00352H13.5028V2.00195Z" fill="#000001"/>
<path id="Vector_26" d="M12.4987 4.00342H11.5012V7.00248H12.4987V4.00342Z" fill="#000001"/>
<path id="Vector_27" d="M11.5013 7.00269H10.4972V8.99769H11.5013V7.00269Z" fill="#000001"/>
<path id="Vector_28" d="M10.4971 17.0039H9.49963V21.0005H10.4971V17.0039Z" fill="#000001"/>
<path id="Vector_29" d="M9.4997 21.0005H8.5022V21.998H9.4997V21.0005Z" fill="#000001"/>
<path id="Vector_30" d="M9.4997 15.9998H8.5022V17.0038H9.4997V15.9998Z" fill="#000001"/>
<path id="Vector_31" d="M9.4997 8H8.5022V8.9975H9.4997V8Z" fill="#000001"/>
<path id="Vector_32" d="M9.4997 2.00195H8.5022V2.99945H9.4997V2.00195Z" fill="#000001"/>
<path id="Vector_33" d="M8.50223 15.0022H7.49817V15.9997H8.50223V15.0022Z" fill="#000001"/>
<path id="Vector_34" d="M8.50223 7.00269H7.49817V8.00019H8.50223V7.00269Z" fill="#000001"/>
<path id="Vector_35" d="M8.50223 2.99951H7.49817V4.00357H8.50223V2.99951Z" fill="#000001"/>
<path id="Vector_36" d="M7.49811 18.0012H6.50061V18.9987H7.49811V18.0012Z" fill="#000001"/>
<path id="Vector_37" d="M7.49817 13.9983H5.50317V15.0024H7.49817V13.9983Z" fill="#000001"/>
<path id="Vector_38" d="M7.49811 5.99854H6.50061V7.0026H7.49811V5.99854Z" fill="#000001"/>
<path id="Vector_39" d="M7.49811 4.00342H6.50061V5.00092H7.49811V4.00342Z" fill="#000001"/>
<path id="Vector_40" d="M6.50067 17.0039H5.50317V18.0014H6.50067V17.0039Z" fill="#000001"/>
<path id="Vector_41" d="M6.50067 8.99756H5.50317V12.0032H6.50067V8.99756Z" fill="#000001"/>
<path id="Vector_42" d="M6.50067 5.00098H5.50317V5.99848H6.50067V5.00098Z" fill="#000001"/>
<path id="Vector_43" d="M5.50309 21.0005H4.49902V21.998H5.50309V21.0005Z" fill="#000001"/>
<path id="Vector_44" d="M5.50309 15.0022H4.49902V17.0038H5.50309V15.0022Z" fill="#000001"/>
<path id="Vector_45" d="M5.50309 12.0032H4.49902V13.9982H5.50309V12.0032Z" fill="#000001"/>
<path id="Vector_46" d="M5.50309 8H4.49902V8.9975H5.50309V8Z" fill="#000001"/>
<path id="Vector_47" d="M4.49909 18.9988H3.50159V21.0003H4.49909V18.9988Z" fill="#000001"/>
<path id="Vector_48" d="M4.49909 8.99756H3.50159V10.0016H4.49909V8.99756Z" fill="#000001"/>
<path id="Vector_49" d="M3.50162 17.0039H2.49756V18.9989H3.50162V17.0039Z" fill="#000001"/>
<path id="Vector_50" d="M3.50162 10.0017H2.49756V12.0033H3.50162V10.0017Z" fill="#000001"/>
<path id="Vector_51" d="M2.4975 12.0032H1.5V17.0038H2.4975V12.0032Z" fill="#000001"/>
</g>
</g>
</svg>
