<svg width="24" height="24" viewBox="0 0 24 24" fill="none" xmlns="http://www.w3.org/2000/svg">
<g id="computers-devices-electronics-earpod-sound">
<g id="Group">
<path id="Vector" d="M21.499 4.5022H20.5015V11.4978H21.499V4.5022Z" fill="#000001"/>
<path id="Vector_2" d="M20.5016 11.4978H19.4976V12.5019H20.5016V11.4978Z" fill="#000001"/>
<path id="Vector_3" d="M20.5016 3.49829H19.4976V4.50235H20.5016V3.49829Z" fill="#000001"/>
<path id="Vector_4" d="M19.4975 12.502H18.5V13.4995H19.4975V12.502Z" fill="#000001"/>
<path id="Vector_5" d="M19.4975 6.49731H18.5V9.49638H19.4975V6.49731Z" fill="#000001"/>
<path id="Vector_6" d="M19.4975 2.50073H18.5V3.49823H19.4975V2.50073Z" fill="#000001"/>
<path id="Vector_7" d="M18.4999 9.49634H17.5024V10.5004H18.4999V9.49634Z" fill="#000001"/>
<path id="Vector_8" d="M18.4999 5.49976H17.5024V6.49726H18.4999V5.49976Z" fill="#000001"/>
<path id="Vector_9" d="M16.4985 4.5022H15.501V11.4978H16.4985V4.5022Z" fill="#000001"/>
<path id="Vector_10" d="M15.5009 11.4978H14.5034V12.5019H15.5009V11.4978Z" fill="#000001"/>
<path id="Vector_11" d="M15.5009 3.49829H14.5034V4.50235H15.5009V3.49829Z" fill="#000001"/>
<path id="Vector_12" d="M14.5031 12.502H10.5V13.4995H14.5031V12.502Z" fill="#000001"/>
<path id="Vector_13" d="M13.4995 10.5003H14.5035V5.4997H13.4995V4.5022H12.502V11.4978H13.4995V10.5003Z" fill="#000001"/>
<path id="Vector_14" d="M14.5031 2.50073H10.5V3.49823H14.5031V2.50073Z" fill="#000001"/>
<path id="Vector_15" d="M10.4999 11.4978H9.50244V12.5019H10.4999V11.4978Z" fill="#000001"/>
<path id="Vector_16" d="M10.5001 3.49829H8.49854V4.50235H10.5001V3.49829Z" fill="#000001"/>
<path id="Vector_17" d="M9.5026 10.5005H8.49854V11.498H9.5026V10.5005Z" fill="#000001"/>
<path id="Vector_18" d="M8.49848 9.49634H7.50098V10.5004H8.49848V9.49634Z" fill="#000001"/>
<path id="Vector_19" d="M8.49848 4.5022H7.50098V5.4997H8.49848V4.5022Z" fill="#000001"/>
<path id="Vector_20" d="M7.50113 10.5005H6.49707V11.498H7.50113V10.5005Z" fill="#000001"/>
<path id="Vector_21" d="M7.50113 5.49976H6.49707V6.49726H7.50113V5.49976Z" fill="#000001"/>
<path id="Vector_22" d="M6.49701 11.4978H5.49951V20.5016H6.49701V11.4978Z" fill="#000001"/>
<path id="Vector_23" d="M6.49701 6.49731H5.49951V7.50138H6.49701V6.49731Z" fill="#000001"/>
<path id="Vector_24" d="M5.49945 7.50146H4.50195V8.49896H5.49945V7.50146Z" fill="#000001"/>
<path id="Vector_25" d="M5.49961 20.5017H3.49805V21.4992H5.49961V20.5017Z" fill="#000001"/>
<path id="Vector_26" d="M4.50211 8.49878H3.49805V9.49628H4.50211V8.49878Z" fill="#000001"/>
<path id="Vector_27" d="M3.49799 9.49634H2.50049V20.5017H3.49799V9.49634Z" fill="#000001"/>
</g>
</g>
</svg>
