<svg width="24" height="24" viewBox="0 0 24 24" fill="none" xmlns="http://www.w3.org/2000/svg">
<g id="computer-old-electronics-bug">
<g id="Group">
<path id="Vector" d="M21.4994 16.5018H18.5004V15.4977H19.4979V14.5002H4.50254V15.4977H5.50332V16.5018H2.50098V22.4999H21.4994V16.5018ZM6.49754 15.4977H17.4963V16.5018H6.49754V15.4977ZM20.5019 21.5024H3.49848V17.4993H20.5019V21.5024Z" fill="#000001"/>
<path id="Vector_2" d="M20.5021 2.49756H19.498V14.5004H20.5021V2.49756Z" fill="#000001"/>
<path id="Vector_3" d="M16.4986 20.4984H17.4961V19.5009H18.5001V18.4968H13.4995V19.5009H16.4986V20.4984Z" fill="#000001"/>
<path id="Vector_4" d="M15.5011 5.50317H14.4971V6.50067H15.5011V5.50317Z" fill="#000001"/>
<path id="Vector_5" d="M9.49652 5.50317H8.49902V6.50067H9.49652V5.50317Z" fill="#000001"/>
<path id="Vector_6" d="M15.5012 7.49823H14.4971V6.50073H9.49646V7.49823H8.49896V8.5023H7.50146V11.5014H8.49896V9.49979H9.49646V11.5014H10.5005V10.4973H13.4996V11.5014H14.4971V9.49979H15.5012V11.5014H16.4987V8.5023H15.5012V7.49823ZM11.498 8.5023H10.5005V7.49823H11.498V8.5023ZM13.4996 8.5023H12.5021V7.49823H13.4996V8.5023Z" fill="#000001"/>
<path id="Vector_7" d="M5.50342 13.5027H18.5037V3.50146H5.50342V13.5027ZM6.49764 4.49896H17.4964V12.4987H6.49764V4.49896Z" fill="#000001"/>
<path id="Vector_8" d="M6.4975 18.4968H5.5V19.5009H6.4975V18.4968Z" fill="#000001"/>
<path id="Vector_9" d="M19.4978 1.5H4.50244V2.4975H19.4978V1.5Z" fill="#000001"/>
<path id="Vector_10" d="M4.5026 2.49756H3.49854V14.5004H4.5026V2.49756Z" fill="#000001"/>
</g>
</g>
</svg>
