<svg width="24" height="24" viewBox="0 0 24 24" fill="none" xmlns="http://www.w3.org/2000/svg">
<g id="computers-devices-electronics-keyboard-pad">
<g id="Group">
<path id="Vector" d="M20.9975 5.50317H20V21.5025H20.9975V5.50317Z" fill="#000001"/>
<path id="Vector_2" d="M19.9999 21.5024H4.00049V22.4999H19.9999V21.5024Z" fill="#000001"/>
<path id="Vector_3" d="M9.99854 16.502V20.5051H19.0023V16.502H9.99854ZM17.9982 18.5035H17.0007V19.501H14.9992V18.5035H14.0017V17.4995H14.9992V18.5035H17.0007V17.4995H17.9982V18.5035Z" fill="#000001"/>
<path id="Vector_4" d="M14.999 11.5012V15.5043H19.0021V11.5012H14.999ZM17.9981 14.5003H15.9965V12.5053H17.9981V14.5003Z" fill="#000001"/>
<path id="Vector_5" d="M14.999 6.50073V10.5039H19.0021V6.50073H14.999ZM17.9981 9.49979H15.9965V7.50479H17.9981V9.49979Z" fill="#000001"/>
<path id="Vector_6" d="M15.9967 2.50415H9.99854V3.50165H15.9967V2.50415Z" fill="#000001"/>
<path id="Vector_7" d="M14.0017 15.5043V11.5012H9.99854V15.5043H14.0017ZM11.0026 12.5053H12.9976V14.5003H11.0026V12.5053Z" fill="#000001"/>
<path id="Vector_8" d="M14.0017 10.5039V6.50073H9.99854V10.5039H14.0017ZM11.0026 7.50479H12.9976V9.49979H11.0026V7.50479Z" fill="#000001"/>
<path id="Vector_9" d="M9.99848 1.5H9.00098V2.50406H9.99848V1.5Z" fill="#000001"/>
<path id="Vector_10" d="M4.99805 16.502V20.5051H9.00117V16.502H4.99805ZM7.99711 19.501H6.00211V17.4995H7.99711V19.501Z" fill="#000001"/>
<path id="Vector_11" d="M4.99805 11.5012V15.5043H9.00117V11.5012H4.99805ZM7.99711 14.5003H6.00211V12.5053H7.99711V14.5003Z" fill="#000001"/>
<path id="Vector_12" d="M4.99805 6.50073V10.5039H9.00117V6.50073H4.99805ZM7.99711 9.49979H6.00211V7.50479H7.99711V9.49979Z" fill="#000001"/>
<path id="Vector_13" d="M19.9999 5.50303V4.50553H17.0008V3.50146H15.9967V4.50553H4.00049V5.50303H19.9999Z" fill="#000001"/>
<path id="Vector_14" d="M4.00043 5.50317H3.00293V21.5025H4.00043V5.50317Z" fill="#000001"/>
</g>
</g>
</svg>
