<svg width="24" height="24" viewBox="0 0 24 24" fill="none" xmlns="http://www.w3.org/2000/svg">
<g id="computers-devices-electronicscd-disk">
<g id="Group">
<path id="Vector" d="M21.5026 7.49805H20.4985V10.5037H16.502V11.5012H17.4995V12.4987H18.5035V11.5012H19.501V12.4987H20.4985V11.5012H21.5026V12.4987H20.4985V13.5027H21.5026V14.5002H22.5001V9.49961H21.5026V7.49805Z" fill="#000001"/>
<path id="Vector_2" d="M20.4983 15.4977H19.5008V14.5002H18.5033V13.5027H17.4993V14.5002H16.5018V13.5027H15.4977V12.4987H16.5018V11.5012H15.4977V10.5037H14.5002V13.5027H13.5027V14.5002H10.4971V15.4977H13.5027V16.5018H14.5002V18.5033H15.4977V20.4983H14.5002V21.5024H16.5018V20.4983H18.5033V19.5008H19.5008V18.5033H20.4983V16.5018H21.5024V14.5002H20.4983V15.4977Z" fill="#000001"/>
<path id="Vector_3" d="M20.4985 13.5029H19.501V14.5004H20.4985V13.5029Z" fill="#000001"/>
<path id="Vector_4" d="M20.4985 5.50317H19.501V7.49817H20.4985V5.50317Z" fill="#000001"/>
<path id="Vector_5" d="M19.5009 12.4988H18.5034V13.5028H19.5009V12.4988Z" fill="#000001"/>
<path id="Vector_6" d="M19.5009 4.49902H18.5034V5.50309H19.5009V4.49902Z" fill="#000001"/>
<path id="Vector_7" d="M17.4995 12.4988H16.502V13.5028H17.4995V12.4988Z" fill="#000001"/>
<path id="Vector_8" d="M18.5035 3.50146H16.502V4.49896H18.5035V3.50146Z" fill="#000001"/>
<path id="Vector_9" d="M16.5021 2.50415H14.5005V3.50165H16.5021V2.50415Z" fill="#000001"/>
<path id="Vector_10" d="M14.5004 9.49976H13.5029V10.5038H14.5004V9.49976Z" fill="#000001"/>
<path id="Vector_11" d="M14.5001 21.5024H9.49951V22.4999H14.5001V21.5024Z" fill="#000001"/>
<path id="Vector_12" d="M13.5027 10.5037H10.4971V13.5027H13.5027V10.5037ZM12.4986 12.4987H11.5011V11.5012H12.4986V12.4987Z" fill="#000001"/>
<path id="Vector_13" d="M10.497 5.50312H11.5011V2.50406H14.5001V1.5H9.49951V2.50406H10.497V5.50312Z" fill="#000001"/>
<path id="Vector_14" d="M10.497 13.5029H9.49951V14.5004H10.497V13.5029Z" fill="#000001"/>
<path id="Vector_15" d="M9.49961 20.4985H7.49805V21.5026H9.49961V20.4985Z" fill="#000001"/>
<path id="Vector_16" d="M9.49961 10.5038H10.4971V9.49974H13.5027V8.50224H12.4987V5.50317H11.5012V8.50224H10.4971V7.49817H9.49961V9.49974H7.49805V10.5038H8.50211V13.5029H9.49961V10.5038Z" fill="#000001"/>
<path id="Vector_17" d="M9.49945 5.50317H8.50195V7.49817H9.49945V5.50317Z" fill="#000001"/>
<path id="Vector_18" d="M9.49961 17.4993H7.49805V18.5033H9.49961V17.4993Z" fill="#000001"/>
<path id="Vector_19" d="M7.49793 19.501H5.50293V20.4985H7.49793V19.501Z" fill="#000001"/>
<path id="Vector_20" d="M7.49799 16.502H6.50049V17.4995H7.49799V16.502Z" fill="#000001"/>
<path id="Vector_21" d="M7.49793 8.5022H5.50293V9.4997H7.49793V8.5022Z" fill="#000001"/>
<path id="Vector_22" d="M7.49793 5.50321H8.50199V3.50165H9.49949V2.50415H7.49793V3.50165H5.50293V4.49915H7.49793V5.50321Z" fill="#000001"/>
<path id="Vector_23" d="M6.50043 14.5002H5.50293V16.5018H6.50043V14.5002Z" fill="#000001"/>
<path id="Vector_24" d="M5.50309 18.5034H4.49902V19.5009H5.50309V18.5034Z" fill="#000001"/>
<path id="Vector_25" d="M5.50309 4.49902H4.49902V5.50309H5.50309V4.49902Z" fill="#000001"/>
<path id="Vector_26" d="M4.49896 16.502H3.50146V18.5035H4.49896V16.502Z" fill="#000001"/>
<path id="Vector_27" d="M3.50162 14.5002H2.49756V16.5018H3.50162V14.5002Z" fill="#000001"/>
<path id="Vector_28" d="M3.50162 8.50224H5.50318V7.49817H4.49912V5.50317H3.50162V7.49817H2.49756V9.49974H3.50162V8.50224Z" fill="#000001"/>
<path id="Vector_29" d="M2.4975 9.49976H1.5V14.5004H2.4975V9.49976Z" fill="#000001"/>
</g>
</g>
</svg>
