<svg width="24" height="24" viewBox="0 0 24 24" fill="none" xmlns="http://www.w3.org/2000/svg">
<g id="computers-devices-electronics-keyboard-button">
<g id="Group">
<path id="Vector" d="M21.5025 20.4983H20.505V21.5024H13.5028V19.5008H19.5009V12.4987H20.505V11.5012H18.5034V3.50146H17.5059V10.4971H16.5019V11.5012H8.50219V10.4971H7.50469V11.5012H1.5V20.4983H2.50406V19.5008H10.5038V20.4983H11.5012V19.5008H12.5053V20.4983H11.5012V21.5024H3.50156V22.4999H22.5V13.5027H21.5025V20.4983ZM9.50625 18.4968H2.50406V12.4987H9.50625V18.4968ZM11.5012 18.4968V12.4987H18.5034V18.4968H11.5012Z" fill="#000001"/>
<path id="Vector_2" d="M21.5024 12.4988H20.5049V13.5028H21.5024V12.4988Z" fill="#000001"/>
<path id="Vector_3" d="M20.505 19.501H19.501V20.4985H20.505V19.501Z" fill="#000001"/>
<path id="Vector_4" d="M17.506 2.49756H16.502V3.50162H17.506V2.49756Z" fill="#000001"/>
<path id="Vector_5" d="M16.5019 14.5002H15.5044V15.4977H16.5019V14.5002Z" fill="#000001"/>
<path id="Vector_6" d="M16.5019 9.49976H15.5044V10.4973H16.5019V9.49976Z" fill="#000001"/>
<path id="Vector_7" d="M15.5046 13.5029H14.5005V14.5004H15.5046V13.5029Z" fill="#000001"/>
<path id="Vector_8" d="M16.5019 16.5019H13.5029V15.4978H12.5054V17.4994H17.506V15.4978H16.5019V16.5019Z" fill="#000001"/>
<path id="Vector_9" d="M14.5004 14.5002H13.5029V15.4977H14.5004V14.5002Z" fill="#000001"/>
<path id="Vector_10" d="M12.5051 3.50146H11.501V4.49896H10.5035V3.50146H9.50602V4.49896H8.50195V5.50303H9.50602V6.50053H10.5035V7.49803H11.501V6.50053H12.5051V5.50303H13.5026V4.49896H12.5051V3.50146Z" fill="#000001"/>
<path id="Vector_11" d="M15.5042 9.49969V2.4975H16.5017V1.5H6.50049V10.4972H7.50455V9.49969H15.5042ZM7.50455 2.4975H14.5002V8.50219H7.50455V2.4975Z" fill="#000001"/>
<path id="Vector_12" d="M7.50455 14.5002H6.50049V16.5018H7.50455V14.5002Z" fill="#000001"/>
<path id="Vector_13" d="M6.50086 13.5029H4.50586V14.5004H6.50086V13.5029Z" fill="#000001"/>
<path id="Vector_14" d="M6.50086 16.502H4.50586V17.4995H6.50086V16.502Z" fill="#000001"/>
<path id="Vector_15" d="M4.50553 14.5002H3.50146V16.5018H4.50553V14.5002Z" fill="#000001"/>
<path id="Vector_16" d="M3.50141 20.4985H2.50391V21.5026H3.50141V20.4985Z" fill="#000001"/>
</g>
</g>
</svg>
