<svg width="24" height="24" viewBox="0 0 24 24" fill="none" xmlns="http://www.w3.org/2000/svg">
<g id="computers-devices-electronics-flash-drive-1">
<g id="Group">
<path id="Vector" d="M8.50205 1.5V6.50062H7.50455V7.50469H6.50049V20.505H7.50455V8.50219H16.5017V20.505H17.4992V7.50469H16.5017V6.50062H15.5042V1.5H8.50205ZM14.5002 6.50062H9.49955V2.50406H14.5002V6.50062Z" fill="#000001"/>
<path id="Vector_2" d="M16.5019 20.5049H15.5044V21.5024H16.5019V20.5049Z" fill="#000001"/>
<path id="Vector_3" d="M15.5041 21.5024H8.50195V22.4999H15.5041V21.5024Z" fill="#000001"/>
<path id="Vector_4" d="M14.4999 17.4993H13.5024V18.5033H14.4999V17.4993Z" fill="#000001"/>
<path id="Vector_5" d="M14.4999 15.5044H13.5024V16.5019H14.4999V15.5044Z" fill="#000001"/>
<path id="Vector_6" d="M13.5026 3.50146H12.4985V5.50303H13.5026V3.50146Z" fill="#000001"/>
<path id="Vector_7" d="M13.5025 18.5034H10.5034V19.5009H13.5025V18.5034Z" fill="#000001"/>
<path id="Vector_8" d="M11.5009 3.50146H10.5034V5.50303H11.5009V3.50146Z" fill="#000001"/>
<path id="Vector_9" d="M10.5036 17.4993H9.49951V18.5033H10.5036V17.4993Z" fill="#000001"/>
<path id="Vector_10" d="M10.5036 15.5044H9.49951V16.5019H10.5036V15.5044Z" fill="#000001"/>
<path id="Vector_11" d="M8.50189 20.5049H7.50439V21.5024H8.50189V20.5049Z" fill="#000001"/>
</g>
</g>
</svg>
