<svg width="24" height="24" viewBox="0 0 24 24" fill="none" xmlns="http://www.w3.org/2000/svg">
<g id="computers-devices-electronics-click-select-tablet">
<g id="Group">
<path id="Vector" d="M22.4999 15.5044H21.5024V20.505H22.4999V15.5044Z" fill="#000001"/>
<path id="Vector_2" d="M21.5025 1.5H2.50406V2.50406H1.5V14.5003H2.50406V15.5044H7.49813V14.5003H3.50156V2.50406H20.4984V5.50312H19.5009V11.5012H20.4984V12.5053H21.5025V13.5028H22.5V2.50406H21.5025V1.5ZM21.5025 10.5038H20.4984V8.50219H21.5025V10.5038ZM21.5025 7.50469H20.4984V6.50062H21.5025V7.50469Z" fill="#000001"/>
<path id="Vector_3" d="M21.5026 20.5049H20.4985V21.5024H21.5026V20.5049Z" fill="#000001"/>
<path id="Vector_4" d="M21.5026 14.5002H20.4985V15.5043H21.5026V14.5002Z" fill="#000001"/>
<path id="Vector_5" d="M20.4985 21.5024H19.501V22.4999H20.4985V21.5024Z" fill="#000001"/>
<path id="Vector_6" d="M20.4985 13.5029H19.501V14.5004H20.4985V13.5029Z" fill="#000001"/>
<path id="Vector_7" d="M15.498 12.5053V8.5022H14.5005V13.5028H19.5011V12.5053H15.498Z" fill="#000001"/>
<path id="Vector_8" d="M18.5036 14.5002H17.4995V17.4993H18.5036V14.5002Z" fill="#000001"/>
<path id="Vector_9" d="M17.4995 4.50562H16.502V5.50312H17.4995V4.50562Z" fill="#000001"/>
<path id="Vector_10" d="M16.5021 5.50317H15.498V6.50067H16.5021V5.50317Z" fill="#000001"/>
<path id="Vector_11" d="M15.498 14.5002H14.5005V17.4993H15.498V14.5002Z" fill="#000001"/>
<path id="Vector_12" d="M14.5001 7.50464H12.4985V8.50214H14.5001V7.50464Z" fill="#000001"/>
<path id="Vector_13" d="M13.5026 3.50146H12.4985V6.50053H13.5026V3.50146Z" fill="#000001"/>
<path id="Vector_14" d="M12.499 20.5049H11.5015V22.4999H12.499V20.5049Z" fill="#000001"/>
<path id="Vector_15" d="M11.5011 13.5028H9.49951V14.5003H11.5011V16.5019H12.4986V8.5022H11.5011V13.5028Z" fill="#000001"/>
<path id="Vector_16" d="M11.5014 19.501H10.5039V20.505H11.5014V19.501Z" fill="#000001"/>
<path id="Vector_17" d="M10.5036 18.5034H9.49951V19.5009H10.5036V18.5034Z" fill="#000001"/>
<path id="Vector_18" d="M10.5036 5.50317H9.49951V6.50067H10.5036V5.50317Z" fill="#000001"/>
<path id="Vector_19" d="M9.49945 14.5002H8.50195V18.5034H9.49945V14.5002Z" fill="#000001"/>
<path id="Vector_20" d="M9.49945 4.50562H8.50195V5.50312H9.49945V4.50562Z" fill="#000001"/>
</g>
</g>
</svg>
