<svg width="24" height="24" viewBox="0 0 24 24" fill="none" xmlns="http://www.w3.org/2000/svg">
<g id="computers-devices-electronics-webcam">
<g id="Group">
<path id="Vector" d="M19.5009 6.50073H18.5034V11.5014H19.5009V6.50073Z" fill="#000001"/>
<path id="Vector_2" d="M18.5036 20.5049H17.4995V21.5024H18.5036V20.5049Z" fill="#000001"/>
<path id="Vector_3" d="M18.5036 11.5012H17.4995V13.5028H18.5036V11.5012Z" fill="#000001"/>
<path id="Vector_4" d="M18.5036 4.49902H17.4995V6.50059H18.5036V4.49902Z" fill="#000001"/>
<path id="Vector_5" d="M17.4995 19.501H16.502V20.505H17.4995V19.501Z" fill="#000001"/>
<path id="Vector_6" d="M17.4995 13.5029H16.502V14.5004H17.4995V13.5029Z" fill="#000001"/>
<path id="Vector_7" d="M17.4995 3.50146H16.502V4.49896H17.4995V3.50146Z" fill="#000001"/>
<path id="Vector_8" d="M17.4992 21.5024H6.50049V22.4999H17.4992V21.5024Z" fill="#000001"/>
<path id="Vector_9" d="M16.5016 6.50073H15.4976V11.5014H16.5016V6.50073Z" fill="#000001"/>
<path id="Vector_10" d="M16.5021 18.5034H14.5005V19.5009H16.5021V18.5034Z" fill="#000001"/>
<path id="Vector_11" d="M16.5021 14.5002H14.5005V15.5043H16.5021V14.5002Z" fill="#000001"/>
<path id="Vector_12" d="M15.498 11.5012H14.5005V12.4987H15.498V11.5012Z" fill="#000001"/>
<path id="Vector_13" d="M15.498 5.50317H14.5005V6.50067H15.498V5.50317Z" fill="#000001"/>
<path id="Vector_14" d="M16.5021 2.50415H14.5005V3.50165H16.5021V2.50415Z" fill="#000001"/>
<path id="Vector_15" d="M10.497 6.50073V7.50479H9.49951V10.5039H10.497V11.5014H13.5026V10.5039H14.5001V7.50479H13.5026V8.5023H12.4986V7.50479H13.5026V6.50073H10.497Z" fill="#000001"/>
<path id="Vector_16" d="M9.49951 15.5044V16.5019H10.497V17.4994H9.49951V18.5035H14.5001V17.4994H13.5026V16.5019H14.5001V15.5044H9.49951ZM12.4986 17.4994H11.5011V16.5019H12.4986V17.4994Z" fill="#000001"/>
<path id="Vector_17" d="M14.5001 12.4988H9.49951V13.5028H14.5001V12.4988Z" fill="#000001"/>
<path id="Vector_18" d="M14.5001 4.49902H9.49951V5.50309H14.5001V4.49902Z" fill="#000001"/>
<path id="Vector_19" d="M14.5001 1.5H9.49951V2.50406H14.5001V1.5Z" fill="#000001"/>
<path id="Vector_20" d="M9.49961 18.5034H7.49805V19.5009H9.49961V18.5034Z" fill="#000001"/>
<path id="Vector_21" d="M9.49961 14.5002H7.49805V15.5043H9.49961V14.5002Z" fill="#000001"/>
<path id="Vector_22" d="M9.49945 11.5012H8.50195V12.4987H9.49945V11.5012Z" fill="#000001"/>
<path id="Vector_23" d="M9.49945 5.50317H8.50195V6.50067H9.49945V5.50317Z" fill="#000001"/>
<path id="Vector_24" d="M9.49961 2.50415H7.49805V3.50165H9.49961V2.50415Z" fill="#000001"/>
<path id="Vector_25" d="M8.50211 6.50073H7.49805V11.5014H8.50211V6.50073Z" fill="#000001"/>
<path id="Vector_26" d="M7.49799 19.501H6.50049V20.505H7.49799V19.501Z" fill="#000001"/>
<path id="Vector_27" d="M7.49799 13.5029H6.50049V14.5004H7.49799V13.5029Z" fill="#000001"/>
<path id="Vector_28" d="M7.49799 3.50146H6.50049V4.49896H7.49799V3.50146Z" fill="#000001"/>
<path id="Vector_29" d="M6.50043 20.5049H5.50293V21.5024H6.50043V20.5049Z" fill="#000001"/>
<path id="Vector_30" d="M6.50043 11.5012H5.50293V13.5028H6.50043V11.5012Z" fill="#000001"/>
<path id="Vector_31" d="M6.50043 4.49902H5.50293V6.50059H6.50043V4.49902Z" fill="#000001"/>
<path id="Vector_32" d="M5.50309 6.50073H4.49902V11.5014H5.50309V6.50073Z" fill="#000001"/>
</g>
</g>
</svg>
