<svg width="24" height="24" viewBox="0 0 24 24" fill="none" xmlns="http://www.w3.org/2000/svg">
<g id="computers-devices-electronics-battery-charge">
<g id="Group">
<path id="Vector" d="M20.505 8.00357V6.99951H19.501V9.00107H21.5025V12.0001H19.501V14.0017H20.505V13.0042H22.5V8.00357H20.505Z" fill="#000001"/>
<path id="Vector_2" d="M19.5009 14.0017H18.5034V14.9992H19.5009V14.0017Z" fill="#000001"/>
<path id="Vector_3" d="M19.5009 6.00195H18.5034V6.99945H19.5009V6.00195Z" fill="#000001"/>
<path id="Vector_4" d="M18.5035 5.00439H16.502V6.00189H18.5035V5.00439Z" fill="#000001"/>
<path id="Vector_5" d="M18.5035 14.999H12.5054V16.0031H18.5035V14.999Z" fill="#000001"/>
<path id="Vector_6" d="M11.5011 19.0023V14.0017H13.5027V13.0042H14.5002V12.0001H15.5042V6.99949H14.5002V3.00293H13.5027V6.99949H12.5052V3.00293H11.5011V6.99949H10.5036V3.00293H9.50611V6.99949H8.50205V3.00293H7.50455V6.99949H6.50049V12.0001H7.50455V13.0042H8.50205V14.0017H10.5036V19.0023H11.5011ZM12.5052 9.00105H13.5027V9.99855H12.5052V9.00105ZM8.50205 9.00105H9.50611V9.99855H8.50205V9.00105ZM9.50611 13.0042V12.0001H8.50205V11.0026H9.50611V12.0001H12.5052V11.0026H13.5027V12.0001H12.5052V13.0042H9.50611Z" fill="#000001"/>
<path id="Vector_7" d="M13.5029 1.99878H12.5054V3.00284H13.5029V1.99878Z" fill="#000001"/>
<path id="Vector_8" d="M10.5035 19.0022H8.50195V19.9997H10.5035V19.0022Z" fill="#000001"/>
<path id="Vector_9" d="M9.50602 1.99878H8.50195V3.00284H9.50602V1.99878Z" fill="#000001"/>
<path id="Vector_10" d="M8.50238 19.9998H7.50488V21.0038H8.50238V19.9998Z" fill="#000001"/>
<path id="Vector_11" d="M7.50455 21.0037H6.50049V22.0012H7.50455V21.0037Z" fill="#000001"/>
<path id="Vector_12" d="M8.50203 14.999H2.50391V16.0031H8.50203V14.999Z" fill="#000001"/>
<path id="Vector_13" d="M5.50297 5.00439H2.50391V6.00189H5.50297V5.00439Z" fill="#000001"/>
<path id="Vector_14" d="M2.50406 6.00195H1.5V14.9991H2.50406V6.00195Z" fill="#000001"/>
</g>
</g>
</svg>
