<svg width="24" height="24" viewBox="0 0 24 24" fill="none" xmlns="http://www.w3.org/2000/svg">
<g id="computers-devices-electronics-keyboard">
<g id="Group">
<path id="Vector" d="M22.4999 14.5002H21.5024V21.5024H22.4999V14.5002Z" fill="#000001"/>
<path id="Vector_2" d="M21.5023 21.5024H2.50391V22.4999H21.5023V21.5024Z" fill="#000001"/>
<path id="Vector_3" d="M18.5036 17.4995H17.4995V18.5035H19.5011V16.502H18.5036V17.4995Z" fill="#000001"/>
<path id="Vector_4" d="M19.5011 19.501H17.4995V20.505H19.5011V19.501Z" fill="#000001"/>
<path id="Vector_5" d="M17.4995 15.5044H16.502V16.5019H17.4995V15.5044Z" fill="#000001"/>
<path id="Vector_6" d="M17.4995 8.5022H16.502V9.4997H17.4995V8.5022Z" fill="#000001"/>
<path id="Vector_7" d="M16.5021 17.4993H15.498V18.5033H16.5021V17.4993Z" fill="#000001"/>
<path id="Vector_8" d="M16.5021 9.49976H15.498V10.5038H16.5021V9.49976Z" fill="#000001"/>
<path id="Vector_9" d="M16.5021 7.50464H15.498V8.50214H16.5021V7.50464Z" fill="#000001"/>
<path id="Vector_10" d="M16.5018 19.501H7.49805V20.505H16.5018V19.501Z" fill="#000001"/>
<path id="Vector_11" d="M15.498 15.5044H14.5005V16.5019H15.498V15.5044Z" fill="#000001"/>
<path id="Vector_12" d="M15.4976 6.50073H5.50293V7.50479H15.4976V6.50073Z" fill="#000001"/>
<path id="Vector_13" d="M14.5004 17.4993H13.5029V18.5033H14.5004V17.4993Z" fill="#000001"/>
<path id="Vector_14" d="M14.5004 1.5H13.5029V3.50156H14.5004V1.5Z" fill="#000001"/>
<path id="Vector_15" d="M13.5026 15.5044H12.4985V16.5019H13.5026V15.5044Z" fill="#000001"/>
<path id="Vector_16" d="M12.499 17.4993H11.5015V18.5033H12.499V17.4993Z" fill="#000001"/>
<path id="Vector_17" d="M11.5014 15.5044H10.5039V16.5019H11.5014V15.5044Z" fill="#000001"/>
<path id="Vector_18" d="M15.4976 10.5037H9.49951V11.5012H15.4976V10.5037Z" fill="#000001"/>
<path id="Vector_19" d="M10.5036 17.4993H9.49951V18.5033H10.5036V17.4993Z" fill="#000001"/>
<path id="Vector_20" d="M9.49945 15.5044H8.50195V16.5019H9.49945V15.5044Z" fill="#000001"/>
<path id="Vector_21" d="M8.50211 17.4993H7.49805V18.5033H8.50211V17.4993Z" fill="#000001"/>
<path id="Vector_22" d="M7.49799 15.5044H6.50049V16.5019H7.49799V15.5044Z" fill="#000001"/>
<path id="Vector_23" d="M13.5026 3.50146H5.50293V4.50553H13.5026V3.50146Z" fill="#000001"/>
<path id="Vector_24" d="M6.50043 17.4993H5.50293V18.5033H6.50043V17.4993Z" fill="#000001"/>
<path id="Vector_25" d="M6.50059 19.501H4.49902V20.505H6.50059V19.501Z" fill="#000001"/>
<path id="Vector_26" d="M5.50309 15.5044H4.49902V16.5019H5.50309V15.5044Z" fill="#000001"/>
<path id="Vector_27" d="M5.50309 4.50562H4.49902V6.50062H5.50309V4.50562Z" fill="#000001"/>
<path id="Vector_28" d="M4.49896 17.4993H3.50146V18.5033H4.49896V17.4993Z" fill="#000001"/>
<path id="Vector_29" d="M21.5023 14.5003V13.5028H9.49953V11.5012H8.50203V13.5028H2.50391V14.5003H21.5023Z" fill="#000001"/>
<path id="Vector_30" d="M2.50406 14.5002H1.5V21.5024H2.50406V14.5002Z" fill="#000001"/>
</g>
</g>
</svg>
