<svg width="24" height="24" viewBox="0 0 24 24" fill="none" xmlns="http://www.w3.org/2000/svg">
<g id="computers-devices-electronics-tape-cassette">
<g id="Group">
<path id="Vector" d="M22.4999 5.5H21.5024V18.5003H22.4999V5.5Z" fill="#000001"/>
<path id="Vector_2" d="M18.5033 18.5002V17.5027H17.4992V18.5002H6.50047V17.5027H5.50297V18.5002H2.50391V19.4977H21.5023V18.5002H18.5033Z" fill="#000001"/>
<path id="Vector_3" d="M20.505 16.4988H19.501V17.5028H20.505V16.4988Z" fill="#000001"/>
<path id="Vector_4" d="M20.505 6.49756H19.501V7.50162H20.505V6.49756Z" fill="#000001"/>
<path id="Vector_5" d="M19.5012 10.5006H18.5037V9.50635H5.50336V10.5038H4.50586V12.5054H5.50336V13.5029H18.5037V12.5054H19.5012V10.5006ZM8.50242 12.5021H6.50086V10.5006H8.50242V12.5021ZM13.503 11.4981H10.504V10.5006H13.503V11.4981ZM17.4996 12.5021H15.5046V10.5006H17.4996V12.5021Z" fill="#000001"/>
<path id="Vector_6" d="M17.4995 16.4988H16.502V17.5028H17.4995V16.4988Z" fill="#000001"/>
<path id="Vector_7" d="M16.5021 15.5012H7.50488V16.4987H16.5021V15.5012Z" fill="#000001"/>
<path id="Vector_8" d="M16.5021 6.49756H7.50488V7.50162H16.5021V6.49756Z" fill="#000001"/>
<path id="Vector_9" d="M7.50455 16.4988H6.50049V17.5028H7.50455V16.4988Z" fill="#000001"/>
<path id="Vector_10" d="M4.50553 16.4988H3.50146V17.5028H4.50553V16.4988Z" fill="#000001"/>
<path id="Vector_11" d="M4.50553 6.49756H3.50146V7.50162H4.50553V6.49756Z" fill="#000001"/>
<path id="Vector_12" d="M21.5023 4.50244H2.50391V5.49994H21.5023V4.50244Z" fill="#000001"/>
<path id="Vector_13" d="M2.50406 5.5H1.5V18.5003H2.50406V5.5Z" fill="#000001"/>
</g>
</g>
</svg>
