<svg width="24" height="24" viewBox="0 0 24 24" fill="none" xmlns="http://www.w3.org/2000/svg">
<g id="computers-devices-electronics-laptop">
<g id="Group">
<path id="Vector" d="M21.4959 18.9989H2.4975V16.9973H1.5V19.9964H2.4975V21.0004H21.4959V19.9964H22.5V16.9973H21.4959V18.9989Z" fill="#000001"/>
<path id="Vector_2" d="M21.496 14.9958H20.4985V16.9974H21.496V14.9958Z" fill="#000001"/>
<path id="Vector_3" d="M14.5002 8.99756H13.4961V9.99506H14.5002V8.99756Z" fill="#000001"/>
<path id="Vector_4" d="M13.4961 16.9973H10.4971V17.9948H13.4961V16.9973Z" fill="#000001"/>
<path id="Vector_5" d="M12.499 8.99756H11.5015V9.99506H12.499V8.99756Z" fill="#000001"/>
<path id="Vector_6" d="M10.497 8.99756H9.49951V9.99506H10.497V8.99756Z" fill="#000001"/>
<path id="Vector_7" d="M19.5009 2.99951H4.49902V3.99701H19.5009V2.99951Z" fill="#000001"/>
<path id="Vector_8" d="M20.4983 14.9958V3.99707H19.5008V13.9983H4.49896V3.99707H3.50146V14.9958H20.4983Z" fill="#000001"/>
<path id="Vector_9" d="M3.50162 14.9958H2.49756V16.9974H3.50162V14.9958Z" fill="#000001"/>
</g>
</g>
</svg>
