<svg width="24" height="24" viewBox="0 0 24 24" fill="none" xmlns="http://www.w3.org/2000/svg">
<g id="computers-devices-electronics-monitor">
<g id="Group">
<path id="Vector" d="M21.5025 15.4979H2.4975V2.49756H1.5V18.4969H2.4975V19.4944H8.50219V20.4985H9.49969V19.4944H14.5003V20.4985H15.4978V19.4944H21.5025V18.4969H22.5V2.49756H21.5025V15.4979Z" fill="#000001"/>
<path id="Vector_2" d="M16.5021 7.49809H17.4996V6.49402H18.4971V5.49652H17.4996V4.49902H16.5021V5.49652H15.498V6.49402H16.5021V7.49809Z" fill="#000001"/>
<path id="Vector_3" d="M8.50211 21.496V20.4985H7.49805V22.5001H16.5018V20.4985H15.4977V21.496H8.50211Z" fill="#000001"/>
<path id="Vector_4" d="M15.498 8.49561H14.5005V9.49967H15.498V8.49561Z" fill="#000001"/>
<path id="Vector_5" d="M15.4976 11.4946H8.50195V12.4987H15.4976V11.4946Z" fill="#000001"/>
<path id="Vector_6" d="M9.49945 8.49561H8.50195V9.49967H9.49945V8.49561Z" fill="#000001"/>
<path id="Vector_7" d="M21.5026 1.5H2.49756V2.4975H21.5026V1.5Z" fill="#000001"/>
</g>
</g>
</svg>
