<svg width="24" height="24" viewBox="0 0 24 24" fill="none" xmlns="http://www.w3.org/2000/svg">
<g id="computers-devices-electronics-mouse">
<g id="Group">
<path id="Vector" d="M9.00107 12.4987V13.5027H12.9976V12.4987H14.0017V13.5027H17.9983V12.4987H19.0023V19.5008H19.9998V8.50209H19.0023V7.50459H17.9983V6.50053H17.0008V5.50303H14.0017V3.50146H12.9976V5.50303H9.99857V6.50053H9.00107V7.50459H7.99701V8.50209H6.99951V19.5008H7.99701V12.4987H9.00107ZM12.0001 7.50459H12.9976V6.50053H14.0017V7.50459H14.9992V9.49959H14.0017V10.5037H12.9976V9.49959H12.0001V7.50459Z" fill="#000001"/>
<path id="Vector_2" d="M19.0026 19.501H17.9985V20.505H19.0026V19.501Z" fill="#000001"/>
<path id="Vector_3" d="M17.9985 16.502H17.001V18.5035H17.9985V16.502Z" fill="#000001"/>
<path id="Vector_4" d="M17.9981 20.5049H15.9966V21.5024H17.9981V20.5049Z" fill="#000001"/>
<path id="Vector_5" d="M17.0006 18.5034H15.9966V19.5009H17.0006V18.5034Z" fill="#000001"/>
<path id="Vector_6" d="M15.997 19.501H14.002V20.505H15.997V19.501Z" fill="#000001"/>
<path id="Vector_7" d="M15.9967 21.5024H10.9961V22.4999H15.9967V21.5024Z" fill="#000001"/>
<path id="Vector_8" d="M12.9977 2.50415H10.9961V3.50165H12.9977V2.50415Z" fill="#000001"/>
<path id="Vector_9" d="M10.996 20.5049H9.00098V21.5024H10.996V20.5049Z" fill="#000001"/>
<path id="Vector_10" d="M10.996 3.50146H9.00098V4.49896H10.996V3.50146Z" fill="#000001"/>
<path id="Vector_11" d="M9.00113 19.501H7.99707V20.505H9.00113V19.501Z" fill="#000001"/>
<path id="Vector_12" d="M9.00113 4.49902H7.99707V5.50309H9.00113V4.49902Z" fill="#000001"/>
<path id="Vector_13" d="M7.99711 5.50317H4.99805V6.50067H7.99711V5.50317Z" fill="#000001"/>
<path id="Vector_14" d="M6.99945 1.5H6.00195V2.50406H6.99945V1.5Z" fill="#000001"/>
<path id="Vector_15" d="M6.00211 2.50415H4.99805V3.50165H6.00211V2.50415Z" fill="#000001"/>
<path id="Vector_16" d="M4.99799 3.50146H4.00049V5.50303H4.99799V3.50146Z" fill="#000001"/>
</g>
</g>
</svg>
