<svg width="24" height="24" viewBox="0 0 24 24" fill="none" xmlns="http://www.w3.org/2000/svg">
<g id="computers-devices-electronics-mobile-qr-scan">
<g id="Group">
<path id="Vector" d="M6.00211 22.5H17.9984V21.5025H19.0024V2.4975H17.9984V1.5H6.00211V2.4975H4.99805V21.5025H6.00211V22.5ZM12.0002 2.4975H14.0018V3.50156H12.0002V2.4975ZM9.99867 2.4975H11.0027V3.50156H9.99867V2.4975ZM6.00211 3.50156H9.00117V4.49906H14.9993V3.50156H17.9984V20.4984H6.00211V3.50156Z" fill="#000001"/>
<path id="Vector_2" d="M15.997 11.5012H14.9995V12.4987H15.997V11.5012Z" fill="#000001"/>
<path id="Vector_3" d="M14.002 14.5004V15.4979H15.997V13.5029H14.9995V14.5004H14.002Z" fill="#000001"/>
<path id="Vector_4" d="M14.9995 12.4988H14.002V13.5028H14.9995V12.4988Z" fill="#000001"/>
<path id="Vector_5" d="M14.002 8.50211H14.9995V10.4971H15.997V7.49805H14.002V8.50211Z" fill="#000001"/>
<path id="Vector_6" d="M12 9.49976V11.5013H14.0016V10.4973H12.9975V9.49976H12Z" fill="#000001"/>
<path id="Vector_7" d="M12.9975 12.4988H12V13.5028H12.9975V12.4988Z" fill="#000001"/>
<path id="Vector_8" d="M12.9979 7.49805H11.0029V8.50211H12.9979V7.49805Z" fill="#000001"/>
<path id="Vector_9" d="M12.9979 14.5002H11.0029V15.4977H12.9979V14.5002Z" fill="#000001"/>
<path id="Vector_10" d="M11.0026 11.5012H9.99854V13.5028H11.0026V11.5012Z" fill="#000001"/>
<path id="Vector_11" d="M11.0026 9.49976H9.99854V10.4973H11.0026V9.49976Z" fill="#000001"/>
<path id="Vector_12" d="M9.00113 13.5029H7.99707V15.4979H9.99863V14.5004H9.00113V13.5029Z" fill="#000001"/>
<path id="Vector_13" d="M9.00113 11.5012H7.99707V12.4987H9.00113V11.5012Z" fill="#000001"/>
<path id="Vector_14" d="M9.00113 8.50211H9.99863V7.49805H7.99707V10.4971H9.00113V8.50211Z" fill="#000001"/>
</g>
</g>
</svg>
