<svg width="24" height="24" viewBox="0 0 24 24" fill="none" xmlns="http://www.w3.org/2000/svg">
<g id="computers-devices-electronics-desktop">
<g id="Group">
<path id="Vector" d="M22.0011 2.50415H20.9971V14.5004H22.0011V2.50415Z" fill="#000001"/>
<path id="Vector_2" d="M2.99604 21.5024V20.5049H1.99854V22.4999H22.001V20.5049H20.997V21.5024H2.99604Z" fill="#000001"/>
<path id="Vector_3" d="M20.997 19.501H19.9995V20.505H20.997V19.501Z" fill="#000001"/>
<path id="Vector_4" d="M19.9995 18.5034H19.002V19.5009H19.9995V18.5034Z" fill="#000001"/>
<path id="Vector_5" d="M6.00172 16.5018V17.4993H17.998V16.5018H14.9989V15.5043H20.997V14.5002H2.99609V15.5043H9.00078V16.5018H6.00172ZM9.99828 15.5043H14.0014V16.5018H9.99828V15.5043Z" fill="#000001"/>
<path id="Vector_6" d="M19.0021 17.4993H17.998V18.5033H19.0021V17.4993Z" fill="#000001"/>
<path id="Vector_7" d="M19.9994 3.50146H4V13.5027H19.9994V3.50146ZM19.0019 12.4987H4.9975V4.49896H19.0019V12.4987Z" fill="#000001"/>
<path id="Vector_8" d="M17.998 19.501H17.0005V20.505H17.998V19.501Z" fill="#000001"/>
<path id="Vector_9" d="M17.0006 18.5034H15.9966V19.5009H17.0006V18.5034Z" fill="#000001"/>
<path id="Vector_10" d="M14.0011 8.50224H14.9986V9.49974H15.9961V8.50224H17.0002V7.50474H17.9977V6.50067H17.0002V5.50317H15.9961V6.50067H14.9986V5.50317H14.0011V6.50067H12.9971V7.50474H14.0011V8.50224Z" fill="#000001"/>
<path id="Vector_11" d="M14.999 19.501H14.0015V20.505H14.999V19.501Z" fill="#000001"/>
<path id="Vector_12" d="M14.0011 18.5034H12.9971V19.5009H14.0011V18.5034Z" fill="#000001"/>
<path id="Vector_13" d="M11.9997 19.501H10.9956V20.505H11.9997V19.501Z" fill="#000001"/>
<path id="Vector_14" d="M10.9955 18.5034H9.99805V19.5009H10.9955V18.5034Z" fill="#000001"/>
<path id="Vector_15" d="M9.99799 19.501H9.00049V20.505H9.99799V19.501Z" fill="#000001"/>
<path id="Vector_16" d="M7.99652 18.5034H6.99902V19.5009H7.99652V18.5034Z" fill="#000001"/>
<path id="Vector_17" d="M6.99896 19.501H6.00146V20.505H6.99896V19.501Z" fill="#000001"/>
<path id="Vector_18" d="M6.00162 17.4993H4.99756V18.5033H6.00162V17.4993Z" fill="#000001"/>
<path id="Vector_19" d="M4.9975 18.5034H4V19.5009H4.9975V18.5034Z" fill="#000001"/>
<path id="Vector_20" d="M20.997 1.5H2.99609V2.50406H20.997V1.5Z" fill="#000001"/>
<path id="Vector_21" d="M4.00016 19.501H2.99609V20.505H4.00016V19.501Z" fill="#000001"/>
<path id="Vector_22" d="M2.99604 2.50415H1.99854V14.5004H2.99604V2.50415Z" fill="#000001"/>
</g>
</g>
</svg>
