<svg width="24" height="24" viewBox="0 0 24 24" fill="none" xmlns="http://www.w3.org/2000/svg">
<g id="computers-devices-electronics-vintage-mac">
<g id="Group">
<path id="Vector" d="M20.4985 3.50146H19.501V19.5008H20.4985V3.50146Z" fill="#000001"/>
<path id="Vector_2" d="M19.5006 2.49756H18.4966V3.50162H19.5006V2.49756Z" fill="#000001"/>
<path id="Vector_3" d="M4.49902 19.501V20.4985H5.49652V21.5025H6.50059V20.4985H17.4993V21.5025H18.4968V20.4985H19.5009V19.501H4.49902Z" fill="#000001"/>
<path id="Vector_4" d="M18.497 4.49902H17.4995V13.5028H18.497V4.49902Z" fill="#000001"/>
<path id="Vector_5" d="M17.4992 21.5024H6.50049V22.4999H17.4992V21.5024Z" fill="#000001"/>
<path id="Vector_6" d="M17.4992 16.502H13.4961V17.4995H17.4992V16.502Z" fill="#000001"/>
<path id="Vector_7" d="M17.4992 13.5029H6.50049V14.5004H17.4992V13.5029Z" fill="#000001"/>
<path id="Vector_8" d="M12.4985 11.5014H15.4975V10.4973H16.495V7.49823H15.4975V6.50073H12.4985V7.49823H11.501V8.5023H12.4985V9.49979H11.501V10.4973H12.4985V11.5014ZM13.496 7.49823H14.5V8.5023H13.496V7.49823Z" fill="#000001"/>
<path id="Vector_9" d="M10.497 8.5022H9.49951V9.4997H10.497V8.5022Z" fill="#000001"/>
<path id="Vector_10" d="M8.49555 8.5022H7.49805V9.4997H8.49555V8.5022Z" fill="#000001"/>
<path id="Vector_11" d="M17.4992 3.50146H6.50049V4.49896H17.4992V3.50146Z" fill="#000001"/>
<path id="Vector_12" d="M7.49799 16.502H6.50049V17.4995H7.49799V16.502Z" fill="#000001"/>
<path id="Vector_13" d="M18.4969 1.5H5.49658V2.4975H18.4969V1.5Z" fill="#000001"/>
<path id="Vector_14" d="M6.50064 4.49902H5.49658V13.5028H6.50064V4.49902Z" fill="#000001"/>
<path id="Vector_15" d="M5.49652 2.49756H4.49902V3.50162H5.49652V2.49756Z" fill="#000001"/>
<path id="Vector_16" d="M4.49896 3.50146H3.50146V19.5008H4.49896V3.50146Z" fill="#000001"/>
</g>
</g>
</svg>
