<svg width="24" height="24" viewBox="0 0 24 24" fill="none" xmlns="http://www.w3.org/2000/svg">
<g id="computers-devices-electronics-graphic-tablet">
<g id="Group">
<path id="Vector" d="M22.4999 9.49976H21.5024V21.5026H22.4999V9.49976Z" fill="#000001"/>
<path id="Vector_2" d="M21.5026 21.5024H2.49756V22.4999H21.5026V21.5024Z" fill="#000001"/>
<path id="Vector_3" d="M6.50049 10.5037V20.5049H20.4983V10.5037H6.50049ZM19.5008 19.5008H7.49799V11.5012H19.5008V19.5008Z" fill="#000001"/>
<path id="Vector_4" d="M18.5035 16.502H17.4995V17.4995H16.502V18.5035H18.5035V16.502Z" fill="#000001"/>
<path id="Vector_5" d="M17.4995 14.5003H18.5035V12.4988H16.502V13.5028H17.4995V14.5003Z" fill="#000001"/>
<path id="Vector_6" d="M10.497 17.4995H9.49945V16.502H8.50195V18.5035H10.497V17.4995Z" fill="#000001"/>
<path id="Vector_7" d="M9.49945 13.5028H10.497V12.4988H8.50195V14.5003H9.49945V13.5028Z" fill="#000001"/>
<path id="Vector_8" d="M9.49945 3.50146H8.50195V5.50303H9.49945V3.50146Z" fill="#000001"/>
<path id="Vector_9" d="M8.50205 2.50415H6.50049V3.50165H8.50205V2.50415Z" fill="#000001"/>
<path id="Vector_10" d="M8.50199 5.50317H5.50293V6.50067H8.50199V5.50317Z" fill="#000001"/>
<path id="Vector_11" d="M6.50043 1.5H5.50293V2.50406H6.50043V1.5Z" fill="#000001"/>
<path id="Vector_12" d="M5.50303 19.501H3.50146V20.505H5.50303V19.501Z" fill="#000001"/>
<path id="Vector_13" d="M5.50303 17.4993H3.50146V18.5033H5.50303V17.4993Z" fill="#000001"/>
<path id="Vector_14" d="M5.50303 14.5002H3.50146V16.5018H5.50303V14.5002Z" fill="#000001"/>
<path id="Vector_15" d="M5.50303 12.4988H3.50146V13.5028H5.50303V12.4988Z" fill="#000001"/>
<path id="Vector_16" d="M5.50303 10.5037H3.50146V11.5012H5.50303V10.5037Z" fill="#000001"/>
<path id="Vector_17" d="M21.5026 9.49979V8.5023H5.50318V6.50073H4.49912V8.5023H2.49756V9.49979H21.5026Z" fill="#000001"/>
<path id="Vector_18" d="M2.4975 9.49976H1.5V21.5026H2.4975V9.49976Z" fill="#000001"/>
</g>
</g>
</svg>
