<svg width="24" height="24" viewBox="0 0 24 24" fill="none" xmlns="http://www.w3.org/2000/svg">
<g id="computers-devices-electronics-television-vintage">
<g id="Group">
<path id="Vector" d="M22.5002 6.50073H21.4961V19.501H22.5002V6.50073Z" fill="#000001"/>
<path id="Vector_2" d="M2.49756 19.501V20.4985H3.50162V21.5025H4.49912V20.4985H19.501V21.5025H20.4985V20.4985H21.496V19.501H2.49756Z" fill="#000001"/>
<path id="Vector_3" d="M20.4985 12.4988H19.501V13.5028H20.4985V12.4988Z" fill="#000001"/>
<path id="Vector_4" d="M20.4985 10.4971H19.501V11.5011H20.4985V10.4971Z" fill="#000001"/>
<path id="Vector_5" d="M20.4985 8.5022H19.501V9.4997H20.4985V8.5022Z" fill="#000001"/>
<path id="Vector_6" d="M17.4995 14.5002V18.4968H20.4986V14.5002H17.4995ZM19.5011 16.5018H18.497V15.4977H19.5011V16.5018Z" fill="#000001"/>
<path id="Vector_7" d="M19.5009 21.5024H4.49902V22.4999H19.5009V21.5024Z" fill="#000001"/>
<path id="Vector_8" d="M18.497 12.4988H17.4995V13.5028H18.497V12.4988Z" fill="#000001"/>
<path id="Vector_9" d="M18.497 10.4971H17.4995V11.5011H18.497V10.4971Z" fill="#000001"/>
<path id="Vector_10" d="M18.497 8.5022H17.4995V9.4997H18.497V8.5022Z" fill="#000001"/>
<path id="Vector_11" d="M16.4955 8.5022H15.498V17.4994H16.4955V8.5022Z" fill="#000001"/>
<path id="Vector_12" d="M15.4978 17.4993H4.49902V18.4968H15.4978V17.4993Z" fill="#000001"/>
<path id="Vector_13" d="M11.5011 1.5H10.4971V2.4975H11.5011V1.5Z" fill="#000001"/>
<path id="Vector_14" d="M10.497 2.49756H9.49951V3.50162H10.497V2.49756Z" fill="#000001"/>
<path id="Vector_15" d="M9.49967 3.50146H8.49561V4.49896H9.49967V3.50146Z" fill="#000001"/>
<path id="Vector_16" d="M7.49799 3.50146H6.50049V4.49896H7.49799V3.50146Z" fill="#000001"/>
<path id="Vector_17" d="M15.4978 7.49805H4.49902V8.50211H15.4978V7.49805Z" fill="#000001"/>
<path id="Vector_18" d="M6.50064 2.49756H5.49658V3.50162H6.50064V2.49756Z" fill="#000001"/>
<path id="Vector_19" d="M5.49652 1.5H4.49902V2.4975H5.49652V1.5Z" fill="#000001"/>
<path id="Vector_20" d="M4.49896 8.5022H3.50146V17.4994H4.49896V8.5022Z" fill="#000001"/>
<path id="Vector_21" d="M21.496 6.50059V5.50309H8.49568V4.49902H7.49818V5.50309H2.49756V6.50059H21.496Z" fill="#000001"/>
<path id="Vector_22" d="M2.4975 6.50073H1.5V19.501H2.4975V6.50073Z" fill="#000001"/>
</g>
</g>
</svg>
