<svg width="24" height="24" viewBox="0 0 24 24" fill="none" xmlns="http://www.w3.org/2000/svg">
<g id="computers-devices-electronics-harddisk">
<g id="Group">
<path id="Vector" d="M21.5026 2.50415H20.4985V21.5026H21.5026V2.50415Z" fill="#000001"/>
<path id="Vector_2" d="M20.4983 21.5024H3.50146V22.4999H20.4983V21.5024Z" fill="#000001"/>
<path id="Vector_3" d="M19.5009 19.501H18.5034V20.505H19.5009V19.501Z" fill="#000001"/>
<path id="Vector_4" d="M18.5037 15.5043H17.4996V16.5018H16.5021V17.4993H15.498V18.5034H19.5012V14.5002H18.5037V15.5043Z" fill="#000001"/>
<path id="Vector_5" d="M19.5009 3.50146H18.5034V4.49896H19.5009V3.50146Z" fill="#000001"/>
<path id="Vector_6" d="M18.5036 7.50464H17.4995V12.4987H18.5036V7.50464Z" fill="#000001"/>
<path id="Vector_7" d="M17.4995 12.4988H16.502V14.5003H17.4995V12.4988Z" fill="#000001"/>
<path id="Vector_8" d="M17.4995 5.50317H16.502V7.50474H17.4995V5.50317Z" fill="#000001"/>
<path id="Vector_9" d="M16.5021 14.5002H14.5005V15.5043H16.5021V14.5002Z" fill="#000001"/>
<path id="Vector_10" d="M16.5021 8.5022H15.498V10.5038H16.5021V8.5022Z" fill="#000001"/>
<path id="Vector_11" d="M16.5021 4.49902H14.5005V5.50309H16.5021V4.49902Z" fill="#000001"/>
<path id="Vector_12" d="M15.498 7.50464H14.5005V8.50214H15.498V7.50464Z" fill="#000001"/>
<path id="Vector_13" d="M14.5006 6.50073H12.499V7.50479H14.5006V6.50073Z" fill="#000001"/>
<path id="Vector_14" d="M14.5001 3.50146H9.49951V4.49896H14.5001V3.50146Z" fill="#000001"/>
<path id="Vector_15" d="M14.5001 15.5044H9.49951V16.5019H14.5001V15.5044Z" fill="#000001"/>
<path id="Vector_16" d="M13.5031 9.49976H12.499V10.5038H13.5031V9.49976Z" fill="#000001"/>
<path id="Vector_17" d="M12.499 10.5037H11.5015V11.5012H12.499V10.5037Z" fill="#000001"/>
<path id="Vector_18" d="M12.499 8.5022H11.5015V9.4997H12.499V8.5022Z" fill="#000001"/>
<path id="Vector_19" d="M11.5011 9.49976H10.4971V10.5038H11.5011V9.49976Z" fill="#000001"/>
<path id="Vector_20" d="M10.497 12.4988H9.49951V13.5028H10.497V12.4988Z" fill="#000001"/>
<path id="Vector_21" d="M9.49994 13.5029H8.50244V14.5004H9.49994V13.5029Z" fill="#000001"/>
<path id="Vector_22" d="M8.50211 14.5002H7.49805V15.5043H8.50211V14.5002Z" fill="#000001"/>
<path id="Vector_23" d="M9.49961 4.49902H7.49805V5.50309H9.49961V4.49902Z" fill="#000001"/>
<path id="Vector_24" d="M8.50215 16.5019H7.49809V15.5044H6.50059V16.5019H4.49902V18.5035H8.50215V16.5019Z" fill="#000001"/>
<path id="Vector_25" d="M7.49799 12.4988H6.50049V13.5028H7.49799V12.4988Z" fill="#000001"/>
<path id="Vector_26" d="M7.49799 5.50317H6.50049V7.50474H7.49799V5.50317Z" fill="#000001"/>
<path id="Vector_27" d="M6.50092 7.50464H5.50342V12.4987H6.50092V7.50464Z" fill="#000001"/>
<path id="Vector_28" d="M5.50309 19.501H4.49902V20.505H5.50309V19.501Z" fill="#000001"/>
<path id="Vector_29" d="M5.50309 3.50146H4.49902V4.49896H5.50309V3.50146Z" fill="#000001"/>
<path id="Vector_30" d="M20.4983 1.5H3.50146V2.50406H20.4983V1.5Z" fill="#000001"/>
<path id="Vector_31" d="M3.50162 2.50415H2.49756V21.5026H3.50162V2.50415Z" fill="#000001"/>
</g>
</g>
</svg>
