<svg width="24" height="24" viewBox="0 0 24 24" fill="none" xmlns="http://www.w3.org/2000/svg">
<g id="computers-devices-electronicsmicrochip-board">
<g id="Group">
<path id="Vector" d="M1.5 1.5V22.5H22.5V1.5H1.5ZM2.4975 6.50062H5.50312V8.50219H17.4994V6.50062H19.5009V11.5012H18.5034V9.49969H17.4994V10.5038H15.4978V9.49969H14.5003V10.5038H12.4988V9.49969H11.5012V10.5038H9.49969V9.49969H8.50219V10.5038H6.50062V9.49969H5.50312V11.5012H4.49906V7.50469H2.4975V6.50062ZM6.50062 7.50469V6.50062H7.49813V7.50469H6.50062ZM9.49969 7.50469V6.50062H10.4972V7.50469H9.49969ZM12.4988 7.50469V6.50062H13.5028V7.50469H12.4988ZM15.4978 7.50469V6.50062H16.5019V7.50469H15.4978ZM17.4994 11.5012V13.5028H6.50062V11.5012H17.4994ZM2.4975 8.50219H3.50156V14.5003H2.4975V8.50219ZM21.5025 20.505H2.4975V19.5009H6.50062V16.5019H2.4975V15.5044H4.49906V12.4988H5.50312V15.5044H6.50062V14.5003H8.50219V15.5044H9.49969V14.5003H11.5012V15.5044H12.4988V14.5003H14.5003V15.5044H15.4978V14.5003H17.4994V15.5044H18.5034V12.4988H19.5009V13.5028H20.4984V11.5012H21.5025V20.505ZM21.5025 10.5038H20.4984V5.50312H17.4994V4.49906H5.50312V5.50312H2.4975V2.50406H7.49813V3.50156H8.50219V2.50406H9.49969V3.50156H10.4972V2.50406H11.5012V3.50156H12.4988V2.50406H13.5028V3.50156H14.5003V2.50406H15.4978V3.50156H16.5019V2.50406H21.5025V10.5038Z" fill="#000001"/>
<path id="Vector_2" d="M20.4985 16.502H19.501V19.501H20.4985V16.502Z" fill="#000001"/>
<path id="Vector_3" d="M20.4985 3.50146H19.501V4.49896H20.4985V3.50146Z" fill="#000001"/>
<path id="Vector_4" d="M18.5036 16.502H17.4995V19.501H18.5036V16.502Z" fill="#000001"/>
<path id="Vector_5" d="M15.498 16.502H14.5005V17.4995H13.503V16.502H12.499V17.4995H11.5015V19.501H16.5021V17.4995H15.498V16.502Z" fill="#000001"/>
<path id="Vector_6" d="M10.4971 16.502H7.49805V19.501H10.4971V16.502Z" fill="#000001"/>
<path id="Vector_7" d="M4.49896 3.50146H3.50146V4.49896H4.49896V3.50146Z" fill="#000001"/>
</g>
</g>
</svg>
