<svg width="24" height="24" viewBox="0 0 24 24" fill="none" xmlns="http://www.w3.org/2000/svg">
<g id="computers-devices-electronics-chipset">
<g id="Group">
<path id="Vector" d="M19.5009 5.50317H18.5034V18.5035H19.5009V17.4994H22.5V16.5019H19.5009V14.5004H22.5V13.5029H19.5009V10.5038H22.5V9.49974H19.5009V7.50474H22.5V6.50067H19.5009V5.50317Z" fill="#000001"/>
<path id="Vector_2" d="M5.50293 18.5034V19.5009H6.50043V22.5H7.49793V19.5009H9.49949V22.5H10.5036V19.5009H13.5026V22.5H14.5001V19.5009H16.5017V22.5H17.4992V19.5009H18.5032V18.5034H5.50293Z" fill="#000001"/>
<path id="Vector_3" d="M16.5017 6.50073H7.49799V7.50479H6.50049V16.502H7.49799V15.5045H9.49955V14.5004H11.5011V13.5029H12.4986V12.5054H13.5027V11.5014H14.5002V10.5039H15.4977V8.5023H16.5017V16.502H17.4992V7.50479H16.5017V6.50073ZM10.5036 11.5014H8.50205V10.5039H10.5036V11.5014ZM13.5027 9.49979H8.50205V8.5023H13.5027V9.49979Z" fill="#000001"/>
<path id="Vector_4" d="M16.5018 16.502H7.49805V17.4995H16.5018V16.502Z" fill="#000001"/>
<path id="Vector_5" d="M15.498 14.5002H14.5005V15.5043H15.498V14.5002Z" fill="#000001"/>
<path id="Vector_6" d="M13.5026 14.5002H12.4985V15.5043H13.5026V14.5002Z" fill="#000001"/>
<path id="Vector_7" d="M18.5032 5.50312V4.50562H17.4992V1.5H16.5017V4.50562H14.5001V1.5H13.5026V4.50562H10.5036V1.5H9.49949V4.50562H7.49793V1.5H6.50043V4.50562H5.50293V5.50312H18.5032Z" fill="#000001"/>
<path id="Vector_8" d="M5.50312 5.50317H4.49906V6.50067H1.5V7.50474H4.49906V9.49974H1.5V10.5038H4.49906V13.5029H1.5V14.5004H4.49906V16.5019H1.5V17.4994H4.49906V18.5035H5.50312V5.50317Z" fill="#000001"/>
</g>
</g>
</svg>
