<svg width="24" height="24" viewBox="0 0 24 24" fill="none" xmlns="http://www.w3.org/2000/svg">
<g id="computers-devices-electronics-tablet">
<g id="Group">
<path id="Vector" d="M4.49555 1.5V2.50406H3.49805V21.5025H4.49555V22.5H19.4974V21.5025H20.5015V2.50406H19.4974V1.5H4.49555ZM12.4952 21.5025H11.4977V20.505H12.4952V21.5025ZM18.4999 19.5009H5.50289V3.50156H18.5032L18.4999 19.5009Z" fill="#000001"/>
<path id="Vector_2" d="M11.4977 9.49979H12.4952V11.5014H17.4958V6.50073H12.4952V8.5023H11.4977V6.50073H6.49707V11.5014H11.4977V9.49979ZM13.4993 7.50479H16.4983V10.5039H13.4993V7.50479ZM10.5002 10.5039H7.50113V7.50479H10.5002V10.5039Z" fill="#000001"/>
<path id="Vector_3" d="M15.5006 8.5022H14.4966V9.4997H15.5006V8.5022Z" fill="#000001"/>
<path id="Vector_4" d="M14.497 12.4988H13.4995V13.5028H14.497V12.4988Z" fill="#000001"/>
<path id="Vector_5" d="M13.4991 13.5029H11.4976V14.5004H13.4991V13.5029Z" fill="#000001"/>
<path id="Vector_6" d="M9.49604 8.5022H8.49854V9.4997H9.49604V8.5022Z" fill="#000001"/>
</g>
</g>
</svg>
