<svg width="24" height="24" viewBox="0 0 24 24" fill="none" xmlns="http://www.w3.org/2000/svg">
<g id="computers-devices-electronics-memory">
<g id="Group">
<path id="Vector" d="M17.9946 9.49975V13.5029H19.9962V21.5026H21.0003V2.49756H19.9962V9.49975H17.9946ZM19.9962 11.5013H18.9987V10.4972H19.9962V11.5013Z" fill="#000001"/>
<path id="Vector_2" d="M19.9964 21.5024H3.99707V22.4999H19.9964V21.5024Z" fill="#000001"/>
<path id="Vector_3" d="M18.9988 19.501H5.00098V20.4985H18.9988V19.501Z" fill="#000001"/>
<path id="Vector_4" d="M14.9955 13.5029H13.998V14.5004H14.9955V13.5029Z" fill="#000001"/>
<path id="Vector_5" d="M13.9982 15.4978H9.99512V16.5019H13.9982V15.4978Z" fill="#000001"/>
<path id="Vector_6" d="M9.99506 13.5029H8.99756V14.5004H9.99506V13.5029Z" fill="#000001"/>
<path id="Vector_7" d="M7.99687 6.50062H6.99609V7.49813H18.9989V2.4975H19.9964V1.5H6.99609V2.4975H7.99687V6.50062ZM16.9941 3.50156H17.9916V6.50062H16.9941V3.50156ZM14.9925 3.50156H16.0031V6.50062H14.9991L14.9925 3.50156ZM12.9975 3.50156H13.995V6.50062H12.9975V3.50156ZM10.9959 3.50156H12V6.50062H11.0025L10.9959 3.50156ZM8.99438 3.50156H9.99187V6.50062H8.99438V3.50156Z" fill="#000001"/>
<path id="Vector_8" d="M6.99604 2.49756H5.99854V3.50162H6.99604V2.49756Z" fill="#000001"/>
<path id="Vector_9" d="M5.99848 3.50146H5.00098V4.49896H5.99848V3.50146Z" fill="#000001"/>
<path id="Vector_10" d="M5.00113 4.49902H3.99707V5.50309H5.00113V4.49902Z" fill="#000001"/>
<path id="Vector_11" d="M3.99701 13.5029H5.00107V9.49974H3.99701V5.50317H2.99951V21.5025H3.99701V13.5029Z" fill="#000001"/>
</g>
</g>
</svg>
