<svg width="24" height="24" viewBox="0 0 24 24" fill="none" xmlns="http://www.w3.org/2000/svg">
<g id="computer-old-electronics">
<g id="Group">
<path id="Vector" d="M21.4994 16.5018H18.5004V15.4977H19.4979V14.5002H4.50254V15.4977H5.50332V16.5018H2.50098V22.4999H21.4994V16.5018ZM6.49754 15.4977H17.4963V16.5018H6.49754V15.4977ZM20.5019 21.5024H3.49848V17.4993H20.5019V21.5024Z" fill="#000001"/>
<path id="Vector_2" d="M20.5021 2.49756H19.498V14.5004H20.5021V2.49756Z" fill="#000001"/>
<path id="Vector_3" d="M18.5001 18.4968H13.4995V19.5009H18.5001V18.4968Z" fill="#000001"/>
<path id="Vector_4" d="M14.497 8.5022H13.4995V9.4997H14.497V8.5022Z" fill="#000001"/>
<path id="Vector_5" d="M14.497 6.50073H13.4995V7.49823H14.497V6.50073Z" fill="#000001"/>
<path id="Vector_6" d="M13.4996 9.49976H10.5005V10.4973H13.4996V9.49976Z" fill="#000001"/>
<path id="Vector_7" d="M10.5006 8.5022H9.49658V9.4997H10.5006V8.5022Z" fill="#000001"/>
<path id="Vector_8" d="M10.5006 6.50073H9.49658V7.49823H10.5006V6.50073Z" fill="#000001"/>
<path id="Vector_9" d="M5.50342 13.5027H18.5037V3.50146H5.50342V13.5027ZM6.49764 4.49896H17.4964V12.4987H6.49764V4.49896Z" fill="#000001"/>
<path id="Vector_10" d="M7.50156 18.4968H5.5V20.4984H7.50156V18.4968Z" fill="#000001"/>
<path id="Vector_11" d="M19.4978 1.5H4.50244V2.4975H19.4978V1.5Z" fill="#000001"/>
<path id="Vector_12" d="M4.5026 2.49756H3.49854V14.5004H4.5026V2.49756Z" fill="#000001"/>
</g>
</g>
</svg>
