<svg width="24" height="24" viewBox="0 0 24 24" fill="none" xmlns="http://www.w3.org/2000/svg">
<g id="computers-devices-electronics-keyboard-wireless">
<g id="Group">
<path id="Vector" d="M22.4999 15.0022H21.5024V18.9988H22.4999V15.0022Z" fill="#000001"/>
<path id="Vector_2" d="M21.5026 18.9988H20.4985V21.0003H21.5026V18.9988Z" fill="#000001"/>
<path id="Vector_3" d="M21.5026 13.0007H20.4985V15.0023H21.5026V13.0007Z" fill="#000001"/>
<path id="Vector_4" d="M20.4985 15.9998H19.501V16.9973H20.4985V15.9998Z" fill="#000001"/>
<path id="Vector_5" d="M20.4985 5.99854H19.501V7.0026H20.4985V5.99854Z" fill="#000001"/>
<path id="Vector_6" d="M20.4983 21.0005H3.50146V21.998H20.4983V21.0005Z" fill="#000001"/>
<path id="Vector_7" d="M19.5009 13.9983H18.5034V15.0024H19.5009V13.9983Z" fill="#000001"/>
<path id="Vector_8" d="M19.5009 5.00098H18.5034V5.99848H19.5009V5.00098Z" fill="#000001"/>
<path id="Vector_9" d="M19.5011 18.0012H17.4995V18.9987H19.5011V18.0012Z" fill="#000001"/>
<path id="Vector_10" d="M18.5036 15.9998H17.4995V16.9973H18.5036V15.9998Z" fill="#000001"/>
<path id="Vector_11" d="M18.5036 8H17.4995V8.9975H18.5036V8Z" fill="#000001"/>
<path id="Vector_12" d="M17.4995 13.9983H16.502V15.0024H17.4995V13.9983Z" fill="#000001"/>
<path id="Vector_13" d="M17.4996 7.00269H15.498V8.00019H17.4996V7.00269Z" fill="#000001"/>
<path id="Vector_14" d="M18.5035 4.00342H16.502V5.00092H18.5035V4.00342Z" fill="#000001"/>
<path id="Vector_15" d="M16.5021 15.9998H15.498V16.9973H16.5021V15.9998Z" fill="#000001"/>
<path id="Vector_16" d="M16.5018 18.0012H7.49805V20.0028H16.5018V18.0012Z" fill="#000001"/>
<path id="Vector_17" d="M15.498 13.9983H14.5005V15.0024H15.498V13.9983Z" fill="#000001"/>
<path id="Vector_18" d="M15.4979 5.99854H13.5029V7.0026H15.4979V5.99854Z" fill="#000001"/>
<path id="Vector_19" d="M16.5021 2.99951H14.5005V4.00357H16.5021V2.99951Z" fill="#000001"/>
<path id="Vector_20" d="M14.5004 15.9998H13.5029V16.9973H14.5004V15.9998Z" fill="#000001"/>
<path id="Vector_21" d="M14.5004 8.99756H13.5029V10.0016H14.5004V8.99756Z" fill="#000001"/>
<path id="Vector_22" d="M13.5026 13.9983H12.4985V15.0024H13.5026V13.9983Z" fill="#000001"/>
<path id="Vector_23" d="M13.503 8H10.5039V8.9975H13.503V8Z" fill="#000001"/>
<path id="Vector_24" d="M13.503 5.00098H10.5039V5.99848H13.503V5.00098Z" fill="#000001"/>
<path id="Vector_25" d="M12.499 15.9998H11.5015V16.9973H12.499V15.9998Z" fill="#000001"/>
<path id="Vector_26" d="M11.5014 13.9983H10.5039V15.0024H11.5014V13.9983Z" fill="#000001"/>
<path id="Vector_27" d="M14.5001 2.00195H9.49951V2.99945H14.5001V2.00195Z" fill="#000001"/>
<path id="Vector_28" d="M10.5036 15.9998H9.49951V16.9973H10.5036V15.9998Z" fill="#000001"/>
<path id="Vector_29" d="M10.5036 8.99756H9.49951V10.0016H10.5036V8.99756Z" fill="#000001"/>
<path id="Vector_30" d="M9.49945 13.9983H8.50195V15.0024H9.49945V13.9983Z" fill="#000001"/>
<path id="Vector_31" d="M10.5035 5.99854H8.50195V7.0026H10.5035V5.99854Z" fill="#000001"/>
<path id="Vector_32" d="M9.49961 2.99951H7.49805V4.00357H9.49961V2.99951Z" fill="#000001"/>
<path id="Vector_33" d="M8.50211 15.9998H7.49805V16.9973H8.50211V15.9998Z" fill="#000001"/>
<path id="Vector_34" d="M7.49799 13.9983H6.50049V15.0024H7.49799V13.9983Z" fill="#000001"/>
<path id="Vector_35" d="M8.50205 7.00269H6.50049V8.00019H8.50205V7.00269Z" fill="#000001"/>
<path id="Vector_36" d="M7.49793 4.00342H5.50293V5.00092H7.49793V4.00342Z" fill="#000001"/>
<path id="Vector_37" d="M6.50043 15.9998H5.50293V16.9973H6.50043V15.9998Z" fill="#000001"/>
<path id="Vector_38" d="M6.50043 8H5.50293V8.9975H6.50043V8Z" fill="#000001"/>
<path id="Vector_39" d="M6.50059 18.0012H4.49902V18.9987H6.50059V18.0012Z" fill="#000001"/>
<path id="Vector_40" d="M5.50309 13.9983H4.49902V15.0024H5.50309V13.9983Z" fill="#000001"/>
<path id="Vector_41" d="M20.4983 12.0032H3.50146V13.0007H20.4983V12.0032Z" fill="#000001"/>
<path id="Vector_42" d="M5.50309 5.00098H4.49902V5.99848H5.50309V5.00098Z" fill="#000001"/>
<path id="Vector_43" d="M4.49896 15.9998H3.50146V16.9973H4.49896V15.9998Z" fill="#000001"/>
<path id="Vector_44" d="M4.49896 5.99854H3.50146V7.0026H4.49896V5.99854Z" fill="#000001"/>
<path id="Vector_45" d="M3.50141 18.9988H2.50391V21.0003H3.50141V18.9988Z" fill="#000001"/>
<path id="Vector_46" d="M3.50141 13.0007H2.50391V15.0023H3.50141V13.0007Z" fill="#000001"/>
<path id="Vector_47" d="M2.50406 15.0022H1.5V18.9988H2.50406V15.0022Z" fill="#000001"/>
</g>
</g>
</svg>
