<svg width="24" height="24" viewBox="0 0 24 24" fill="none" xmlns="http://www.w3.org/2000/svg">
<g id="computers-devices-electronics-flash-drive-2">
<g id="Group">
<path id="Vector" d="M8.49912 6.50071V2.50415H7.50162V6.50071H6.49756V20.5051H7.50162V7.50478H16.4988V20.5051H17.5029V6.50071H16.4988V2.50415H15.5013V6.50071H8.49912Z" fill="#000001"/>
<path id="Vector_2" d="M16.499 20.5049H15.5015V21.5024H16.499V20.5049Z" fill="#000001"/>
<path id="Vector_3" d="M15.5011 11.5012H14.4971V13.5028H15.5011V11.5012Z" fill="#000001"/>
<path id="Vector_4" d="M15.5012 21.5024H8.49902V22.4999H15.5012V21.5024Z" fill="#000001"/>
<path id="Vector_5" d="M14.497 13.5029H13.4995V14.5004H14.497V13.5029Z" fill="#000001"/>
<path id="Vector_6" d="M12.5021 8.5022H11.498V14.5003H10.5005V17.4994H13.4996V14.5003H12.5021V8.5022Z" fill="#000001"/>
<path id="Vector_7" d="M14.4975 3.50146H9.50342V4.49896H14.4975V3.50146Z" fill="#000001"/>
<path id="Vector_8" d="M10.5009 13.5029H9.50342V14.5004H10.5009V13.5029Z" fill="#000001"/>
<path id="Vector_9" d="M15.5012 1.5H8.49902V2.50406H15.5012V1.5Z" fill="#000001"/>
<path id="Vector_10" d="M9.50309 10.5037H8.49902V13.5027H9.50309V10.5037Z" fill="#000001"/>
<path id="Vector_11" d="M8.49896 20.5049H7.50146V21.5024H8.49896V20.5049Z" fill="#000001"/>
</g>
</g>
</svg>
