<svg width="24" height="24" viewBox="0 0 24 24" fill="none" xmlns="http://www.w3.org/2000/svg">
<g id="computers-devices-electronics-board">
<g id="Group">
<path id="Vector" d="M22.5001 16.502H20.4985V18.5035H22.5001V16.502Z" fill="#000001"/>
<path id="Vector_2" d="M20.4985 18.5034H19.501V19.5009H20.4985V18.5034Z" fill="#000001"/>
<path id="Vector_3" d="M20.4984 12.4989V9.49979H21.5025V6.50073H18.5034V9.49979H19.5009V12.4989H20.4984Z" fill="#000001"/>
<path id="Vector_4" d="M19.5009 19.501H18.5034V20.505H19.5009V19.501Z" fill="#000001"/>
<path id="Vector_5" d="M19.5009 12.4988H18.5034V13.5028H19.5009V12.4988Z" fill="#000001"/>
<path id="Vector_6" d="M18.5036 20.5049H17.4995V22.4999H18.5036V20.5049Z" fill="#000001"/>
<path id="Vector_7" d="M18.5036 13.5029H17.4995V14.5004H18.5036V13.5029Z" fill="#000001"/>
<path id="Vector_8" d="M17.4995 14.5002H16.502V15.5043H17.4995V14.5002Z" fill="#000001"/>
<path id="Vector_9" d="M16.5021 15.5044H15.498V22.5H16.5021V15.5044Z" fill="#000001"/>
<path id="Vector_10" d="M16.5021 12.4988V4.49906H17.4996V1.5H14.5005V4.49906H15.498V12.4988H16.5021ZM15.498 2.50406H16.5021V3.50156H15.498V2.50406Z" fill="#000001"/>
<path id="Vector_11" d="M15.498 12.4988H14.5005V13.5028H15.498V12.4988Z" fill="#000001"/>
<path id="Vector_12" d="M14.5004 13.5029H13.5029V22.5001H14.5004V13.5029Z" fill="#000001"/>
<path id="Vector_13" d="M10.4971 11.5013H11.5011V22.5H12.4986V11.5013H13.5027V8.5022H10.4971V11.5013Z" fill="#000001"/>
<path id="Vector_14" d="M10.497 13.5029H9.49951V22.5001H10.497V13.5029Z" fill="#000001"/>
<path id="Vector_15" d="M9.49945 12.4988H8.50195V13.5028H9.49945V12.4988Z" fill="#000001"/>
<path id="Vector_16" d="M8.50211 17.4993H7.49805V22.4999H8.50211V17.4993Z" fill="#000001"/>
<path id="Vector_17" d="M8.50205 7.50465H9.49955V4.49902H6.50049V7.50465H7.49799V12.4987H8.50205V7.50465Z" fill="#000001"/>
<path id="Vector_18" d="M7.49799 16.502H6.50049V17.4995H7.49799V16.502Z" fill="#000001"/>
<path id="Vector_19" d="M6.50043 20.5049H5.50293V22.4999H6.50043V20.5049Z" fill="#000001"/>
<path id="Vector_20" d="M6.50043 15.5044H5.50293V16.5019H6.50043V15.5044Z" fill="#000001"/>
<path id="Vector_21" d="M6.50053 14.5003V11.5012H3.50146V14.5003H4.49896V15.5043H5.50303V14.5003H6.50053ZM4.49896 13.5028V12.4987H5.50303V13.5028H4.49896Z" fill="#000001"/>
<path id="Vector_22" d="M5.50309 19.501H4.49902V20.505H5.50309V19.501Z" fill="#000001"/>
<path id="Vector_23" d="M4.49896 18.5034H3.50146V19.5009H4.49896V18.5034Z" fill="#000001"/>
<path id="Vector_24" d="M3.50156 16.502H1.5V18.5035H3.50156V16.502Z" fill="#000001"/>
</g>
</g>
</svg>
