<svg width="24" height="24" viewBox="0 0 24 24" fill="none" xmlns="http://www.w3.org/2000/svg">
<g id="computers-devices-electronics-smart-watch">
<g id="Group">
<path id="Vector" d="M17.998 16.5018V11.5012H19.0021V9.49961H17.998V7.49805H17.0005V16.5018H17.998Z" fill="#000001"/>
<path id="Vector_2" d="M17.0002 16.502H15.9961V17.4995H17.0002V16.502Z" fill="#000001"/>
<path id="Vector_3" d="M17.0002 6.50073H15.9961V7.49823H17.0002V6.50073Z" fill="#000001"/>
<path id="Vector_4" d="M15.9965 9.49976H14.999V14.5004H15.9965V9.49976Z" fill="#000001"/>
<path id="Vector_5" d="M14.0012 22.5V21.5025H14.9987V20.4985H15.9962V19.501H6.99902V20.4985H7.99652V21.5025H9.00059V22.5H14.0012Z" fill="#000001"/>
<path id="Vector_6" d="M15.9962 17.4993H6.99902V18.4968H15.9962V17.4993Z" fill="#000001"/>
<path id="Vector_7" d="M14.999 14.5002H14.0015V15.4977H14.999V14.5002Z" fill="#000001"/>
<path id="Vector_8" d="M14.999 8.5022H14.0015V9.4997H14.999V8.5022Z" fill="#000001"/>
<path id="Vector_9" d="M14.0011 10.4971H12.9971V13.5027H14.0011V10.4971Z" fill="#000001"/>
<path id="Vector_10" d="M14.0015 7.49805H11.0024V8.50211H14.0015V7.49805Z" fill="#000001"/>
<path id="Vector_11" d="M14.0011 15.4978H9.00049V16.5019H14.0011V15.4978Z" fill="#000001"/>
<path id="Vector_12" d="M12.9974 9.49976H11.0024V10.4973H12.9974V9.49976Z" fill="#000001"/>
<path id="Vector_13" d="M12.9971 13.5029H9.99805V14.5004H12.9971V13.5029Z" fill="#000001"/>
<path id="Vector_14" d="M11.9999 11.5012H11.0024V12.4987H11.9999V11.5012Z" fill="#000001"/>
<path id="Vector_15" d="M9.00064 14.5002H7.99658V15.4977H9.00064V14.5002Z" fill="#000001"/>
<path id="Vector_16" d="M15.9962 5.50317H6.99902V6.50067H15.9962V5.50317Z" fill="#000001"/>
<path id="Vector_17" d="M9.00059 1.5V2.4975H7.99652V3.50156H6.99902V4.49906H15.9962V3.50156H14.9987V2.4975H14.0012V1.5H9.00059Z" fill="#000001"/>
<path id="Vector_18" d="M6.99896 16.502H6.00146V17.4995H6.99896V16.502Z" fill="#000001"/>
<path id="Vector_19" d="M6.99896 6.50073H6.00146V7.49823H6.99896V6.50073Z" fill="#000001"/>
<path id="Vector_20" d="M6.00162 7.49805H4.99756V16.5018H6.00162V7.49805Z" fill="#000001"/>
</g>
</g>
</svg>
