<svg width="24" height="24" viewBox="0 0 24 24" fill="none" xmlns="http://www.w3.org/2000/svg">
<g id="computers-devices-electronics-graphic-tablet-draw">
<g id="Group">
<path id="Vector" d="M22.4999 5.00122H21.5024V18.999H22.4999V5.00122Z" fill="#000001"/>
<path id="Vector_2" d="M21.5026 18.999H2.49756V20.0031H21.5026V18.999Z" fill="#000001"/>
<path id="Vector_3" d="M20.4987 3.99707H18.5037V5.00113H17.4996V5.99863H16.5021V7.0027H15.498V8.00019H14.5005V8.9977H13.503V10.0018H12.499V10.9993H11.5015V13.0008H13.503V11.9968H14.5005V10.9993H15.498V10.0018H16.5021V8.9977H17.4996V8.00019H18.5037V7.0027H19.5012V5.99863H20.4987V3.99707Z" fill="#000001"/>
<path id="Vector_4" d="M11.5011 13.0007H10.4971V13.9982H11.5011V13.0007Z" fill="#000001"/>
<path id="Vector_5" d="M10.497 8.9978H9.49951V10.0019H10.497V8.9978Z" fill="#000001"/>
<path id="Vector_6" d="M10.4971 13.9983H7.49805V15.0024H10.4971V13.9983Z" fill="#000001"/>
<path id="Vector_7" d="M9.49945 10.0017H8.50195V10.9992H9.49945V10.0017Z" fill="#000001"/>
<path id="Vector_8" d="M9.49961 8.00024H7.49805V8.99774H9.49961V8.00024Z" fill="#000001"/>
<path id="Vector_9" d="M8.50211 10.9993H7.49805V11.9968H8.50211V10.9993Z" fill="#000001"/>
<path id="Vector_10" d="M7.49799 11.9968H6.50049V13.9984H7.49799V11.9968Z" fill="#000001"/>
<path id="Vector_11" d="M7.49799 8.9978H6.50049V10.0019H7.49799V8.9978Z" fill="#000001"/>
<path id="Vector_12" d="M6.50043 10.0017H5.50293V10.9992H6.50043V10.0017Z" fill="#000001"/>
<path id="Vector_13" d="M4.49896 7.0026H14.5002V5.99854H3.50146V18.0013H20.4983V8.0001H19.5008V16.9973H4.49896V7.0026Z" fill="#000001"/>
<path id="Vector_14" d="M16.5019 3.99707H2.49756V5.00113H16.5019V3.99707Z" fill="#000001"/>
<path id="Vector_15" d="M2.4975 5.00122H1.5V18.999H2.4975V5.00122Z" fill="#000001"/>
</g>
</g>
</svg>
