<svg width="24" height="24" viewBox="0 0 24 24" fill="none" xmlns="http://www.w3.org/2000/svg">
<g id="construction-building-real-eastate">
<g id="Group">
<path id="Vector" d="M20.4981 13.5011V10.502H19.5006V11.4995H17.4991V10.502H16.5016V13.5011H14.5V12.5036H15.4975V11.4995H14.5V9.50781H13.5025V11.5028H9.49937V10.5053H8.50187V13.5044H7.4978V22.5016H8.50187V14.4986H10.5034V16.5002H13.5025V14.4986H16.5016V15.5027H19.5006V14.4986H21.5022V22.5016H22.5003V13.5011H20.4981ZM13.5025 13.5011H12.4984V15.5027H11.5009V13.5011H9.49937V12.5036H13.5025V13.5011ZM19.5006 13.5011H18.5031V14.4986H17.4991V12.5036H19.5006V13.5011Z" fill="#000001"/>
<path id="Vector_2" d="M19.5006 17.5039H17.499V19.4989H19.5006V17.5039Z" fill="#000001"/>
<path id="Vector_3" d="M17.4991 20.5029H15.4976V22.4979H17.4991V20.5029Z" fill="#000001"/>
<path id="Vector_4" d="M15.4974 17.5039H13.5024V19.4989H15.4974V17.5039Z" fill="#000001"/>
<path id="Vector_5" d="M13.5025 20.5029H11.501V22.4979H13.5025V20.5029Z" fill="#000001"/>
<path id="Vector_6" d="M11.5011 17.5039H9.49951V19.4989H11.5011V17.5039Z" fill="#000001"/>
<path id="Vector_7" d="M19.5007 7.50273V9.5043H20.4982V7.50273H21.5023V6.49867H20.4982V5.50117H19.5007V6.49867H7.49788V5.50117H19.5007V4.50367H6.50038V2.50211H5.50288V4.50367H4.49882V2.50211H5.50288V1.49805H3.50132V4.50367H1.49976V5.50117H2.49726V7.50273H3.50132V5.50117H6.50038V7.50273H19.5007Z" fill="#000001"/>
<path id="Vector_8" d="M3.50122 7.50293V22.4982H4.49872V8.50043H5.50278V22.4982H6.50028V7.50293H3.50122Z" fill="#000001"/>
</g>
</g>
</svg>
