<svg width="24" height="24" viewBox="0 0 24 24" fill="none" xmlns="http://www.w3.org/2000/svg">
<g id="content-files-archive-books-3">
<g id="Group">
<path id="Vector" d="M20.505 10.5038V7.49813H19.5009V8.50219H17.5059V6.50062H18.5034V5.50312H16.5019V3.50156H15.5044V1.5H4.50562V2.4975H2.50406V10.5038H1.5V22.5H22.5V10.5038H20.505ZM16.5019 6.50062V9.49969H19.5009V10.5038H11.5012V6.50062H16.5019ZM3.50156 3.50156H4.50562V10.5038H3.50156V3.50156ZM7.50469 13.5028H6.50062V14.5003H4.50562V13.5028H3.50156V12.4988H7.50469V13.5028ZM7.50469 10.5038H5.50312V2.4975H14.5003V3.50156H7.50469V10.5038ZM8.50219 4.49906H15.5044V5.50312H10.5038V10.5038H8.50219V4.49906ZM21.5025 21.5025H9.50625V11.5012H21.5025V21.5025Z" fill="#000001"/>
<path id="Vector_2" d="M20.505 16.502H19.501V17.4995H20.505V16.502Z" fill="#000001"/>
<path id="Vector_3" d="M20.5049 19.501H14.5002V20.4985H20.5049V19.501Z" fill="#000001"/>
<path id="Vector_4" d="M19.5009 6.50073H18.5034V7.49823H19.5009V6.50073Z" fill="#000001"/>
<path id="Vector_5" d="M18.5035 17.4993H16.502V18.5033H18.5035V17.4993Z" fill="#000001"/>
<path id="Vector_6" d="M15.5043 16.502H14.5002V17.4995H15.5043V16.502Z" fill="#000001"/>
</g>
</g>
</svg>
