<svg width="24" height="24" viewBox="0 0 24 24" fill="none" xmlns="http://www.w3.org/2000/svg">
<g id="content-files-book">
<g id="Group">
<path id="Vector" d="M4.00024 2.4975H19.9996V3.50156H5.00431V4.49906H19.9996V5.50312H4.00024V6.50062H5.00431V21.5025H4.00024V22.5H21.0037V21.5025H6.00181V6.50062H21.0037V21.5025H22.0012V5.50312H21.0037V2.4975H22.0012V1.5H4.00024V2.4975Z" fill="#000001"/>
<path id="Vector_2" d="M18.0048 17.4993H17.0007V18.5033H18.0048V17.4993Z" fill="#000001"/>
<path id="Vector_3" d="M18.0047 9.4997H17.0006V8.5022H10.005V9.4997H9.00092V10.5038H8.00342V17.4994H9.00092V13.5028H10.005V12.4988H11.0025V11.5013H16.0031V12.4988H17.0006V13.5028H18.0047V17.4994H19.0022V10.5038H18.0047V9.4997Z" fill="#000001"/>
<path id="Vector_4" d="M17.0008 18.5034H10.0051V19.5009H17.0008V18.5034Z" fill="#000001"/>
<path id="Vector_5" d="M16.0031 15.4978H14.999V16.5019H16.0031V15.4978Z" fill="#000001"/>
<path id="Vector_6" d="M16.0031 13.5029H14.999V14.5004H16.0031V13.5029Z" fill="#000001"/>
<path id="Vector_7" d="M14.9991 16.502H12V17.4995H14.9991V16.502Z" fill="#000001"/>
<path id="Vector_8" d="M11.9999 15.4978H11.0024V16.5019H11.9999V15.4978Z" fill="#000001"/>
<path id="Vector_9" d="M11.9999 13.5029H11.0024V14.5004H11.9999V13.5029Z" fill="#000001"/>
<path id="Vector_10" d="M10.005 17.4993H9.00098V18.5033H10.005V17.4993Z" fill="#000001"/>
<path id="Vector_11" d="M4.00043 20.4985H3.00293V21.5026H4.00043V20.4985Z" fill="#000001"/>
<path id="Vector_12" d="M4.00043 2.49756H3.00293V3.50162H4.00043V2.49756Z" fill="#000001"/>
<path id="Vector_13" d="M3.00284 5.50303H4.00034V4.49896H3.00284V3.50146H1.99878V20.4983H3.00284V5.50303Z" fill="#000001"/>
</g>
</g>
</svg>
