<svg width="24" height="24" viewBox="0 0 24 24" fill="none" xmlns="http://www.w3.org/2000/svg">
<g id="content-files-favorite-book">
<g id="Group">
<path id="Vector" d="M21.0004 2.49756H20.0029V16.5019H6.00513V17.4994H20.0029V20.4985H21.0004V2.49756Z" fill="#000001"/>
<path id="Vector_2" d="M20.003 20.4985H11.0059V21.5026H20.003V20.4985Z" fill="#000001"/>
<path id="Vector_3" d="M15.0022 13.5029H12.0032V14.5004H15.0022V13.5029Z" fill="#000001"/>
<path id="Vector_4" d="M10.0017 22.5V19.5009H19.0055V18.5034H7.00269V19.5009H8.00019V21.5025H9.00425V22.5H10.0017Z" fill="#000001"/>
<path id="Vector_5" d="M17.0039 11.5012H10.0017V12.4987H17.0039V11.5012Z" fill="#000001"/>
<path id="Vector_6" d="M11.0058 8.50215H12.0033V9.49965H13.0008V10.5037H14.0048V9.49965H15.0023V8.50215H15.9998V7.49809H17.0039V5.50309H15.9998V4.49902H14.0048V5.50309H13.0008V4.49902H11.0058V5.50309H10.0017V7.49809H11.0058V8.50215Z" fill="#000001"/>
<path id="Vector_7" d="M7.00263 3.50146H6.00513V15.4977H7.00263V3.50146Z" fill="#000001"/>
<path id="Vector_8" d="M20.0029 1.5H5.00098V2.4975H20.0029V1.5Z" fill="#000001"/>
<path id="Vector_9" d="M7.00254 20.4985H5.00098V21.5026H7.00254V20.4985Z" fill="#000001"/>
<path id="Vector_10" d="M6.00504 17.4993H5.00098V18.5033H6.00504V17.4993Z" fill="#000001"/>
<path id="Vector_11" d="M5.00116 2.49756H4.00366V3.50162H5.00116V2.49756Z" fill="#000001"/>
<path id="Vector_12" d="M4.00357 3.50146H2.99951V19.5008H4.00357V20.4983H5.00107V18.5033H4.00357V3.50146Z" fill="#000001"/>
</g>
</g>
</svg>
