<svg width="24" height="24" viewBox="0 0 24 24" fill="none" xmlns="http://www.w3.org/2000/svg">
<g id="content-files-books-1">
<g id="Group">
<path id="Vector" d="M1.99878 15.9966V19.0023H4.00034V17.9982H3.00284V17.0007H4.00034V17.9982H6.0019V19.0023H8.00347V19.9998H9.00097V20.9973H8.00347V22.0013H11.0025V20.9973H10.005V19.9998H11.0025V19.0023H13.0041V17.9982H14.9991V17.0007H17.0007V15.9966H19.0022V14.9991H21.0038V15.9966H22.0013V12.9976H21.0038V12.0001H19.0022V9.99852H19.9997V6.00195H19.0022V6.99945H18.0047V7.99695H19.0022V9.00102H18.0047V9.99852H16.0032V11.0026H14.0016V12.0001H12V12.9976H10.005V14.0016H9.00097V12.9976H8.00347V12.0001H6.0019V11.0026H4.00034V9.99852H3.00284V9.00102H4.00034V9.99852H6.0019V11.0026H8.00347V12.0001H12V11.0026H14.0016V9.99852H16.0032V9.00102H18.0047V7.99695H14.9991V9.00102H13.0041V9.99852H11.0025V11.0026H9.00097V9.99852H6.9994V9.00102H5.0044V7.99695H3.00284V6.99945H1.99878V11.0026H3.00284V12.0001H1.99878V14.9991H3.00284V15.9966H1.99878ZM3.00284 12.9976H4.00034V12.0001H5.0044V12.9976H6.9994V14.0016H8.00347V14.9991H11.0025V14.0016H13.0041V12.9976H14.9991V12.0001H17.0007V11.0026H18.0047V12.9976H16.0032V14.0016H14.0016V14.9991H12V15.9966H10.005V17.0007H8.00347V15.9966H6.0019V14.9991H4.00034V14.0016H3.00284V12.9976Z" fill="#000001"/>
<path id="Vector_2" d="M21.0038 15.9966H19.0022V17.0006H21.0038V15.9966Z" fill="#000001"/>
<path id="Vector_3" d="M19.0023 17.0007H17.0007V17.9982H19.0023V17.0007Z" fill="#000001"/>
<path id="Vector_4" d="M19.0023 4.9978H17.0007V6.00187H19.0023V4.9978Z" fill="#000001"/>
<path id="Vector_5" d="M17.0006 17.998H14.999V19.0021H17.0006V17.998Z" fill="#000001"/>
<path id="Vector_6" d="M17.0006 4.00024H14.999V4.99774H17.0006V4.00024Z" fill="#000001"/>
<path id="Vector_7" d="M14.9991 19.0022H13.0042V19.9997H14.9991V19.0022Z" fill="#000001"/>
<path id="Vector_8" d="M14.9991 2.99634H13.0042V4.0004H14.9991V2.99634Z" fill="#000001"/>
<path id="Vector_9" d="M13.004 1.99878H11.0024V2.99628H13.004V1.99878Z" fill="#000001"/>
<path id="Vector_10" d="M13.004 19.9998H11.0024V20.9973H13.004V19.9998Z" fill="#000001"/>
<path id="Vector_11" d="M11.0025 2.99634H9.00098V4.0004H11.0025V2.99634Z" fill="#000001"/>
<path id="Vector_12" d="M9.00107 4.00024H6.99951V4.99774H9.00107V4.00024Z" fill="#000001"/>
<path id="Vector_13" d="M8.00352 19.9998H6.00195V20.9973H8.00352V19.9998Z" fill="#000001"/>
<path id="Vector_14" d="M8.00352 9.00093H12.0001V7.99687H14.0016V6.99937H16.0032V6.00187H13.0041V4.9978H10.0051V6.00187H8.00352V6.99937H6.00195V7.99687H8.00352V9.00093Z" fill="#000001"/>
<path id="Vector_15" d="M6.99939 4.9978H5.00439V6.00187H6.99939V4.9978Z" fill="#000001"/>
<path id="Vector_16" d="M6.00181 19.0022H4.00024V19.9997H6.00181V19.0022Z" fill="#000001"/>
<path id="Vector_17" d="M5.00449 6.00195H3.00293V6.99945H5.00449V6.00195Z" fill="#000001"/>
</g>
</g>
</svg>
