<svg width="24" height="24" viewBox="0 0 24 24" fill="none" xmlns="http://www.w3.org/2000/svg">
<g id="content-files-notepad">
<g id="Group">
<path id="Vector" d="M10.0016 1.5V2.4975H8V3.50156H10.0016V4.49906H10.9991V3.50156H13.0006V4.49906H13.9981V3.50156H15.9997V4.49906H17.0038V3.50156H18.0013V5.50312H18.9988V4.49906H20.0028V21.5025H9.00406V22.5H21.0003V21.5025H21.9978V4.49906H21.0003V3.50156H20.0028V2.4975H17.0038V1.5H15.9997V2.4975H13.9981V1.5H13.0006V2.4975H10.9991V1.5H10.0016Z" fill="#000001"/>
<path id="Vector_2" d="M18.0014 5.50317H17.0039V7.49817H18.0014V5.50317Z" fill="#000001"/>
<path id="Vector_3" d="M15.9998 9.49961H18.9988V8.50211H17.0038V7.49805H15.9998V9.49961Z" fill="#000001"/>
<path id="Vector_4" d="M15.0024 11.5013H13.9983V13.5029H15.0024V12.4988H18.9989V11.5013H15.9999V9.49976H15.0024V11.5013Z" fill="#000001"/>
<path id="Vector_5" d="M13.0007 15.4979H18.9989V14.5004H13.9982V13.5029H13.0007V15.4979Z" fill="#000001"/>
<path id="Vector_6" d="M13.0007 9.49976H12.0032V10.5038H13.0007V9.49976Z" fill="#000001"/>
<path id="Vector_7" d="M13.0007 7.49805H12.0032V8.50211H13.0007V7.49805Z" fill="#000001"/>
<path id="Vector_8" d="M18.9989 17.4993H10.0017V18.5033H18.9989V17.4993Z" fill="#000001"/>
<path id="Vector_9" d="M12.0032 10.5037H9.00415V11.5012H12.0032V10.5037Z" fill="#000001"/>
<path id="Vector_10" d="M10.0017 7.49805H9.00415V8.50211H10.0017V7.49805Z" fill="#000001"/>
<path id="Vector_11" d="M9.0042 16.5019H13.0008V15.4978H2.99951V16.5019H8.00014V21.5025H9.0042V16.5019Z" fill="#000001"/>
<path id="Vector_12" d="M9.00406 9.49976H8V10.5038H9.00406V9.49976Z" fill="#000001"/>
<path id="Vector_13" d="M8.00019 3.50146H7.00269V5.50303H8.00019V3.50146Z" fill="#000001"/>
<path id="Vector_14" d="M7.0026 5.50317H5.99854V7.49817H7.0026V5.50317Z" fill="#000001"/>
<path id="Vector_15" d="M5.99848 7.49805H5.00098V9.49961H5.99848V7.49805Z" fill="#000001"/>
<path id="Vector_16" d="M5.00092 9.49976H4.00342V11.5013H5.00092V9.49976Z" fill="#000001"/>
<path id="Vector_17" d="M4.00357 11.5012H2.99951V13.5028H4.00357V11.5012Z" fill="#000001"/>
<path id="Vector_18" d="M2.99945 13.5029H2.00195V15.4979H2.99945V13.5029Z" fill="#000001"/>
</g>
</g>
</svg>
