<svg width="24" height="24" viewBox="0 0 24 24" fill="none" xmlns="http://www.w3.org/2000/svg">
<g id="content-files-folder-open">
<g id="Group">
<path id="Vector" d="M21.496 3.50156H20.4985V2.50406H19.501V1.5H5.49662V9.50625H2.49756V10.5038H7.49818V9.50625H6.50068V2.50406H17.4994V6.50062H21.496V16.5019H20.4985V18.5034H21.496V21.5025H22.5001V4.50562H21.496V3.50156Z" fill="#000001"/>
<path id="Vector_2" d="M21.496 21.5024H6.50073V22.4999H21.496V21.5024Z" fill="#000001"/>
<path id="Vector_3" d="M20.4985 14.5002H19.501V16.5018H20.4985V14.5002Z" fill="#000001"/>
<path id="Vector_4" d="M19.5009 12.5054H18.4968V14.5004H19.5009V12.5054Z" fill="#000001"/>
<path id="Vector_5" d="M18.4969 11.5012H8.5022V12.5053H18.4969V11.5012Z" fill="#000001"/>
<path id="Vector_6" d="M15.4977 6.50073H14.5002V7.5048H15.4977V6.50073Z" fill="#000001"/>
<path id="Vector_7" d="M14.5003 8.5022H11.5012V9.50626H14.5003V8.5022Z" fill="#000001"/>
<path id="Vector_8" d="M11.5011 6.50073H10.4971V7.5048H11.5011V6.50073Z" fill="#000001"/>
<path id="Vector_9" d="M8.50211 10.5037H7.49805V11.5012H8.50211V10.5037Z" fill="#000001"/>
<path id="Vector_10" d="M6.50064 19.501H5.49658V21.5025H6.50064V19.501Z" fill="#000001"/>
<path id="Vector_11" d="M5.49652 17.5059H4.49902V19.5009H5.49652V17.5059Z" fill="#000001"/>
<path id="Vector_12" d="M4.49896 15.5044H3.50146V17.506H4.49896V15.5044Z" fill="#000001"/>
<path id="Vector_13" d="M3.50162 13.5029H2.49756V15.5045H3.50162V13.5029Z" fill="#000001"/>
<path id="Vector_14" d="M2.4975 10.5037H1.5V13.5027H2.4975V10.5037Z" fill="#000001"/>
</g>
</g>
</svg>
