<svg width="24" height="24" viewBox="0 0 24 24" fill="none" xmlns="http://www.w3.org/2000/svg">
<g id="content-files-books-2">
<g id="Group">
<path id="Vector" d="M14.5003 16.4969V15.4994H13.5028V16.4969H8.50219V15.4994H7.50469V12.5004H8.50219V11.4963H13.5028V12.5004H14.5003V11.4963H21.5025V12.5004H22.5V10.4988H18.5034V9.50459H17.5059V10.5021H11.5012V9.50459H10.5038V8.50053H11.5012V7.49975H17.5059V8.49725H18.5034V5.50146H17.5059V6.49896H11.5012V5.50146H10.5038V6.49896H2.50406V7.50303H1.5V10.5021H2.50406V11.4996H3.50156V12.5037H4.50562V11.4996H6.50062V12.5037H5.50312V15.5027H6.50062V16.5002H4.50562V15.5027H3.50156V16.5002H2.50406V17.5043H1.5V20.5033H2.50406V21.5008H22.5V19.4993H21.5025V20.5033H13.5028V19.4993H12.5053V18.5018H13.5028V17.5043H21.5025V18.5018H22.5V15.5027H21.5025V16.5002L14.5003 16.4969ZM5.50312 9.50459H3.50156V8.50053H5.50312V9.50459ZM10.5038 18.5018H9.50625V19.4993H10.5038V20.5033H9.50625V19.4993H8.50219V18.5018H9.50625V17.5043H10.5038V18.5018Z" fill="#000001"/>
<path id="Vector_2" d="M21.5024 12.5002H20.5049V15.4993H21.5024V12.5002Z" fill="#000001"/>
<path id="Vector_3" d="M21.5024 18.4983H14.5002V19.4958H21.5024V18.4983Z" fill="#000001"/>
<path id="Vector_4" d="M19.501 14.4954H15.5044V15.4994H19.501V14.4954Z" fill="#000001"/>
<path id="Vector_5" d="M19.501 12.5002H15.5044V13.4977H19.501V12.5002Z" fill="#000001"/>
<path id="Vector_6" d="M17.506 8.49707H12.5054V9.50113H17.506V8.49707Z" fill="#000001"/>
<path id="Vector_7" d="M17.506 4.50049H12.5054V5.49799H17.506V4.50049Z" fill="#000001"/>
<path id="Vector_8" d="M13.5029 12.5002H12.5054V15.4993H13.5029V12.5002Z" fill="#000001"/>
<path id="Vector_9" d="M10.5038 4.50049H9.50635V5.49799H10.5038V4.50049Z" fill="#000001"/>
<path id="Vector_10" d="M5.50303 4.50049H3.50146V5.49799H5.50303V4.50049Z" fill="#000001"/>
<path id="Vector_11" d="M10.5038 3.49652V4.50059H11.5013V3.49652H17.506V4.50059H18.5035V2.49902H2.50415V3.49652H10.5038Z" fill="#000001"/>
<path id="Vector_12" d="M3.50165 12.5002H2.50415V15.4993H3.50165V12.5002Z" fill="#000001"/>
<path id="Vector_13" d="M2.50406 3.49658H1.5V6.49564H2.50406V3.49658Z" fill="#000001"/>
</g>
</g>
</svg>
