<svg width="24" height="24" viewBox="0 0 24 24" fill="none" xmlns="http://www.w3.org/2000/svg">
<g id="content-files-close-book-bookmark">
<g id="Group">
<path id="Vector" d="M4.00024 2.4975H19.9996V3.50156H19.0021V4.49906H19.9996V6.50062H21.0037V21.5025H22.0012V5.50312H21.0037V2.4975H22.0012V1.5H4.00024V2.4975Z" fill="#000001"/>
<path id="Vector_2" d="M6.00181 21.5025V6.50067H11.9999V5.50317H4.00024V6.50067H5.00431V21.5025H4.00024V22.5H21.0037V21.5025H6.00181Z" fill="#000001"/>
<path id="Vector_3" d="M18.0047 8.50209H17.0006V5.50303H16.0031V4.49896H17.0006V3.50146H12V4.49896H13.0041V5.50303H14.0016V15.4977H14.9991V14.5002H16.0031V13.5027H17.0006V14.5002H18.0047V15.4977H19.0022V5.50303H18.0047V8.50209Z" fill="#000001"/>
<path id="Vector_4" d="M18.0048 4.49902H17.0007V5.50309H18.0048V4.49902Z" fill="#000001"/>
<path id="Vector_5" d="M11.0025 3.50146H5.00439V4.49896H11.0025V3.50146Z" fill="#000001"/>
<path id="Vector_6" d="M4.00043 20.4985H3.00293V21.5026H4.00043V20.4985Z" fill="#000001"/>
<path id="Vector_7" d="M4.00043 2.49756H3.00293V3.50162H4.00043V2.49756Z" fill="#000001"/>
<path id="Vector_8" d="M3.00284 5.50303H4.00034V4.49896H3.00284V3.50146H1.99878V20.4983H3.00284V5.50303Z" fill="#000001"/>
</g>
</g>
</svg>
