<svg width="24" height="24" viewBox="0 0 24 24" fill="none" xmlns="http://www.w3.org/2000/svg">
<g id="content-files-quill-ink">
<g id="Group">
<path id="Vector" d="M19.5041 3.50156H20.5016V2.4975H21.4991V1.5H15.501V2.4975H19.5041V3.50156Z" fill="#000001"/>
<path id="Vector_2" d="M19.5041 3.50146H18.5V4.49896H19.5041V3.50146Z" fill="#000001"/>
<path id="Vector_3" d="M18.5002 4.49902H17.5027V5.50309H18.5002V4.49902Z" fill="#000001"/>
<path id="Vector_4" d="M17.5026 5.50317H16.5051V6.50067H17.5026V5.50317Z" fill="#000001"/>
<path id="Vector_5" d="M16.505 6.50073H15.501V8.5023H16.505V6.50073Z" fill="#000001"/>
<path id="Vector_6" d="M16.505 3.50146H15.501V4.49896H16.505V3.50146Z" fill="#000001"/>
<path id="Vector_7" d="M15.5012 8.5022H14.5037V9.4997H15.5012V8.5022Z" fill="#000001"/>
<path id="Vector_8" d="M15.5012 4.49902H14.5037V5.50309H15.5012V4.49902Z" fill="#000001"/>
<path id="Vector_9" d="M15.5011 2.49756H13.4995V3.50162H15.5011V2.49756Z" fill="#000001"/>
<path id="Vector_10" d="M14.5036 5.50317H13.4995V6.50067H14.5036V5.50317Z" fill="#000001"/>
<path id="Vector_11" d="M14.5035 9.49976H12.502V10.5038H14.5035V9.49976Z" fill="#000001"/>
<path id="Vector_12" d="M13.4995 6.50073H12.502V7.49823H13.4995V6.50073Z" fill="#000001"/>
<path id="Vector_13" d="M13.4995 3.50146H12.502V4.49896H13.4995V3.50146Z" fill="#000001"/>
<path id="Vector_14" d="M3.50479 22.5001H12.502V21.5026H13.4995V17.4995H12.502V18.5035H7.50136V17.4995H5.50308V16.502H3.50479V17.4995H2.50073V21.5026H3.50479V22.5001ZM4.50229 18.5035H5.50308V20.4985H7.50464V21.5026H5.50308V20.4985H4.50229V18.5035Z" fill="#000001"/>
<path id="Vector_15" d="M12.5019 7.49805H11.5044V8.50211H12.5019V7.49805Z" fill="#000001"/>
<path id="Vector_16" d="M12.5019 4.49902H11.5044V5.50309H12.5019V4.49902Z" fill="#000001"/>
<path id="Vector_17" d="M12.5021 16.502H10.5005V17.4995H12.5021V16.502Z" fill="#000001"/>
<path id="Vector_18" d="M12.5019 10.5038H10.5004V9.4997H9.50287V8.5022H8.50537V11.5013H12.5019V10.5038Z" fill="#000001"/>
<path id="Vector_19" d="M11.5046 8.5022H10.5005V9.4997H11.5046V8.5022Z" fill="#000001"/>
<path id="Vector_20" d="M11.5046 5.50317H10.5005V6.50067H11.5046V5.50317Z" fill="#000001"/>
<path id="Vector_21" d="M10.5004 6.50073H9.50293V8.5023H10.5004V6.50073Z" fill="#000001"/>
<path id="Vector_22" d="M6.50376 14.5003H9.50282V16.5018H10.5003V14.5003H11.5044V13.5028H8.50532V11.5012H7.50126V13.5028H4.5022V14.5003H5.4997V16.5018H6.50376V14.5003Z" fill="#000001"/>
</g>
</g>
</svg>
