<svg width="24" height="24" viewBox="0 0 24 24" fill="none" xmlns="http://www.w3.org/2000/svg">
<g id="content-files-book-library">
<g id="Group">
<path id="Vector" d="M2.50406 21.5025H7.50469V22.5H8.50219V21.5025H15.5044V22.5H16.5019V21.5025H21.5025V22.5H22.5V1.5H1.5V22.5H2.50406V21.5025ZM16.5019 9.49969H17.5059V8.50219H18.5034V7.49813H19.5009V8.50219H20.505V9.49969H21.5025V13.5028H16.5019V9.49969ZM15.5044 20.4984H9.50625V15.4978H15.5044V20.4984ZM11.5012 14.5003V12.4988H12.5053V14.5003H11.5012ZM15.5044 14.5003H14.5003V11.5012H13.5028V10.5038H15.5044V14.5003ZM14.5003 2.4975H15.5044V5.50312H14.5003V2.4975ZM14.5003 6.50062H15.5044V9.49969H14.5003V6.50062ZM12.5053 2.4975H13.5028V3.50156H12.5053V2.4975ZM12.5053 4.49906H13.5028V5.50312H12.5053V4.49906ZM12.5053 6.50062H13.5028V9.49969H12.5053V6.50062ZM12.5053 11.5012H11.5012V10.5038H12.5053V11.5012ZM10.5038 2.4975H11.5012V5.50312H10.5038V2.4975ZM10.5038 6.50062H11.5012V9.49969H10.5038V6.50062ZM8.50219 2.4975H9.50625V5.50312H8.50219V2.4975ZM2.50406 2.4975H5.50312V3.50156H6.50062V5.50312H4.50562V4.49906H3.50156V5.50312H2.50406V2.4975ZM2.50406 6.50062H8.50219V7.49813H9.50625V9.49969H7.50469V8.50219H6.50062V9.49969H2.50406V6.50062ZM2.50406 10.5038H10.5038V14.5003H7.50469V13.5028H6.50062V12.4988H9.50625V11.5012H4.50562V12.4988H2.50406V10.5038ZM2.50406 13.5028H3.50156V14.5003H2.50406V13.5028ZM2.50406 15.4978H8.50219V20.4984H2.50406V15.4978Z" fill="#000001"/>
<path id="Vector_2" d="M20.5049 10.5038V9.4997H19.5009V8.5022H18.5034V9.4997H17.5059V10.5038H20.5049Z" fill="#000001"/>
<path id="Vector_3" d="M11.5012 16.502H10.5037V19.501H11.5012V16.502Z" fill="#000001"/>
<path id="Vector_4" d="M8.50214 7.49805H7.50464V8.50211H8.50214V7.49805Z" fill="#000001"/>
<path id="Vector_5" d="M7.50479 16.502H6.50073V19.501H7.50479V16.502Z" fill="#000001"/>
<path id="Vector_6" d="M5.50312 3.50146H4.50562V4.49896H5.50312V3.50146Z" fill="#000001"/>
</g>
</g>
</svg>
