<svg width="24" height="24" viewBox="0 0 24 24" fill="none" xmlns="http://www.w3.org/2000/svg">
<g id="content-files-sticky-notepad-1">
<g id="Group">
<path id="Vector" d="M19.501 18.5002V19.5043H22.5V14.5037H21.5025V18.5002H19.501Z" fill="#000001"/>
<path id="Vector_2" d="M21.5024 8.49878H20.5049V14.5035H21.5024V8.49878Z" fill="#000001"/>
<path id="Vector_3" d="M19.501 19.5042H12.5054V20.5017H19.501V19.5042Z" fill="#000001"/>
<path id="Vector_4" d="M18.5034 9.50293H17.5059V16.4986H11.5012V17.5026H18.5034V9.50293Z" fill="#000001"/>
<path id="Vector_5" d="M5.50312 21.4991H12.5053V20.5016H6.50062V18.5001H11.5012V17.5026H2.50406V12.502H1.5V18.5001H5.50312V21.4991Z" fill="#000001"/>
<path id="Vector_6" d="M12.5053 14.5037H8.5022V15.5012H12.5053V14.5037Z" fill="#000001"/>
<path id="Vector_7" d="M14.5003 12.502H8.5022V13.4995H14.5003V12.502Z" fill="#000001"/>
<path id="Vector_8" d="M12.5053 10.5005H8.5022V11.5046H12.5053V10.5005Z" fill="#000001"/>
<path id="Vector_9" d="M14.5003 8.49878H8.5022V9.50284H14.5003V8.49878Z" fill="#000001"/>
<path id="Vector_10" d="M6.50062 12.502H4.50562V14.5035H6.50062V12.502Z" fill="#000001"/>
<path id="Vector_11" d="M6.50062 8.49878H4.50562V10.5003H6.50062V8.49878Z" fill="#000001"/>
<path id="Vector_12" d="M3.50165 4.50229H6.50071V6.50386H13.5029V4.50229H18.5035V9.50292H19.501V8.49886H20.5051V4.50229H19.501V3.49823H13.5029V2.50073H6.50071V3.49823H2.50415V12.502H3.50165V4.50229Z" fill="#000001"/>
</g>
</g>
</svg>
