<svg width="24" height="24" viewBox="0 0 24 24" fill="none" xmlns="http://www.w3.org/2000/svg">
<g id="content-files-open-book">
<g id="Group">
<path id="Vector" d="M21.5026 6.99927H20.4985V19.0021H21.5026V6.99927Z" fill="#000001"/>
<path id="Vector_2" d="M20.4984 19.0022H18.5034V19.9997H20.4984V19.0022Z" fill="#000001"/>
<path id="Vector_3" d="M18.5035 17.998H16.502V19.0021H18.5035V17.998Z" fill="#000001"/>
<path id="Vector_4" d="M16.502 17.0005H13.5029V17.998H16.502V17.0005Z" fill="#000001"/>
<path id="Vector_5" d="M17.4996 12H14.5005V12.9975H17.4996V12Z" fill="#000001"/>
<path id="Vector_6" d="M17.4996 9.00098H14.5005V9.99848H17.4996V9.00098Z" fill="#000001"/>
<path id="Vector_7" d="M17.4996 6.00171H14.5005V6.99921H17.4996V6.00171Z" fill="#000001"/>
<path id="Vector_8" d="M18.5036 4.00024H13.5029V4.99774H18.5036V4.00024Z" fill="#000001"/>
<path id="Vector_9" d="M14.5004 9.99829H13.5029V11.0024H14.5004V9.99829Z" fill="#000001"/>
<path id="Vector_10" d="M14.5004 6.99927H13.5029V8.00333H14.5004V6.99927Z" fill="#000001"/>
<path id="Vector_11" d="M13.5028 4.9978H12.4988V6.00187H13.5028V4.9978Z" fill="#000001"/>
<path id="Vector_12" d="M13.503 17.998H10.5039V19.0021H13.503V17.998Z" fill="#000001"/>
<path id="Vector_13" d="M11.5014 4.9978H10.5039V6.00187H11.5014V4.9978Z" fill="#000001"/>
<path id="Vector_14" d="M10.5039 17.0005H7.49829V17.998H10.5039V17.0005Z" fill="#000001"/>
<path id="Vector_15" d="M10.5038 9.99829H9.49976V11.0024H10.5038V9.99829Z" fill="#000001"/>
<path id="Vector_16" d="M10.5038 6.99927H9.49976V8.00333H10.5038V6.99927Z" fill="#000001"/>
<path id="Vector_17" d="M9.49979 12H6.50073V12.9975H9.49979V12Z" fill="#000001"/>
<path id="Vector_18" d="M9.49979 9.00098H6.50073V9.99848H9.49979V9.00098Z" fill="#000001"/>
<path id="Vector_19" d="M9.49979 6.00171H6.50073V6.99921H9.49979V6.00171Z" fill="#000001"/>
<path id="Vector_20" d="M10.5038 4.00024H5.50317V4.99774H10.5038V4.00024Z" fill="#000001"/>
<path id="Vector_21" d="M7.49817 17.998H5.50317V19.0021H7.49817V17.998Z" fill="#000001"/>
<path id="Vector_22" d="M10.5039 14.9991V14.0016H7.49827V14.9991H5.50327V4.9978H4.49921V6.00187H3.50171V6.99937H4.49921V17.0006H7.49827V16.0031H10.5039V17.0006H13.503V16.0031H16.502V17.0006H19.5011V6.99937H20.4986V6.00187H19.5011V4.9978H18.5036V14.9991H16.502V14.0016H13.503V14.9991H12.4989V6.00187H11.5014V14.9991H10.5039Z" fill="#000001"/>
<path id="Vector_23" d="M5.50327 19.0022H3.50171V19.9997H5.50327V19.0022Z" fill="#000001"/>
<path id="Vector_24" d="M3.50162 6.99927H2.49756V19.0021H3.50162V6.99927Z" fill="#000001"/>
</g>
</g>
</svg>
