<svg width="24" height="24" viewBox="0 0 24 24" fill="none" xmlns="http://www.w3.org/2000/svg">
<g id="content-files-open-book-bookmark">
<g id="Group">
<path id="Vector" d="M22.4999 4.5022H21.5024V19.4975H22.4999V4.5022Z" fill="#000001"/>
<path id="Vector_2" d="M21.5024 19.4976H14.5002V20.5016H21.5024V19.4976Z" fill="#000001"/>
<path id="Vector_3" d="M18.5034 4.5022H17.5059V5.4997H18.5034V4.5022Z" fill="#000001"/>
<path id="Vector_4" d="M18.5035 10.5005H16.502V11.498H18.5035V10.5005Z" fill="#000001"/>
<path id="Vector_5" d="M18.5036 14.4971H13.5029V15.5011H18.5036V14.4971Z" fill="#000001"/>
<path id="Vector_6" d="M18.5036 12.502H13.5029V13.4995H18.5036V12.502Z" fill="#000001"/>
<path id="Vector_7" d="M15.5045 10.5005H13.5029V11.498H15.5045V10.5005Z" fill="#000001"/>
<path id="Vector_8" d="M17.5061 8.49878H13.5029V9.50284H17.5061V8.49878Z" fill="#000001"/>
<path id="Vector_9" d="M18.5036 6.49731H13.5029V7.50138H18.5036V6.49731Z" fill="#000001"/>
<path id="Vector_10" d="M16.502 4.5022H13.5029V5.4997H16.502V4.5022Z" fill="#000001"/>
<path id="Vector_11" d="M19.501 2.50073H12.5054V3.49823H19.501V2.50073Z" fill="#000001"/>
<path id="Vector_12" d="M14.5004 20.5017H9.50635V21.4992H14.5004V20.5017Z" fill="#000001"/>
<path id="Vector_13" d="M10.5038 10.5005H9.50635V11.498H10.5038V10.5005Z" fill="#000001"/>
<path id="Vector_14" d="M10.5038 8.49878H9.50635V9.50284H10.5038V8.49878Z" fill="#000001"/>
<path id="Vector_15" d="M10.5038 6.49731H9.50635V7.50138H10.5038V6.49731Z" fill="#000001"/>
<path id="Vector_16" d="M10.5038 4.5022H9.50635V5.4997H10.5038V4.5022Z" fill="#000001"/>
<path id="Vector_17" d="M9.50634 19.4976H2.50415V20.5016H9.50634V19.4976Z" fill="#000001"/>
<path id="Vector_18" d="M10.5037 14.4971H7.50464V15.5011H10.5037V14.4971Z" fill="#000001"/>
<path id="Vector_19" d="M10.5039 12.502H6.50073V13.4995H10.5039V12.502Z" fill="#000001"/>
<path id="Vector_20" d="M6.50067 14.4971H5.50317V15.5011H6.50067V14.4971Z" fill="#000001"/>
<path id="Vector_21" d="M5.50312 11.4979H6.50062V10.5004H7.50468V11.4979H8.50218V3.49823H11.5012V2.50073H4.50562V3.49823H5.50312V11.4979Z" fill="#000001"/>
<path id="Vector_22" d="M3.50165 18.5002H10.5038V19.4977H13.5029V18.5002H20.5051V4.50235H21.5026V3.49829H19.501V17.5027H12.5054V3.49829H11.5013V17.5027H4.50571V3.49829H2.50415V4.50235H3.50165V18.5002Z" fill="#000001"/>
<path id="Vector_23" d="M2.50406 4.5022H1.5V19.4975H2.50406V4.5022Z" fill="#000001"/>
</g>
</g>
</svg>
