<svg width="24" height="24" viewBox="0 0 24 24" fill="none" xmlns="http://www.w3.org/2000/svg">
<g id="content-files-sticky-notepad-2">
<g id="Group">
<path id="Vector" d="M22.4999 14.999H21.5024V15.9965H22.4999V14.999Z" fill="#000001"/>
<path id="Vector_2" d="M6.50071 15.9965V12.9974H5.50321V4.00024H4.50571V4.99774H2.50415V6.00181H3.50165V12.9974H4.50571V15.9965H5.50321V17.0006H6.50071V17.9981H15.5045V19.0021H16.502V17.0006H18.5035V20.9971H19.501V17.0006H21.5026V15.9965H6.50071Z" fill="#000001"/>
<path id="Vector_3" d="M21.5025 14.0017H19.501V14.9992H21.5025V14.0017Z" fill="#000001"/>
<path id="Vector_4" d="M19.5009 4.00024H18.5034V14.0015H19.5009V4.00024Z" fill="#000001"/>
<path id="Vector_5" d="M18.5035 20.9973H5.50317V22.0014H18.5035V20.9973Z" fill="#000001"/>
<path id="Vector_6" d="M16.5019 6.99951H15.5044V9.00107H16.5019V6.99951Z" fill="#000001"/>
<path id="Vector_7" d="M15.5043 9.00098H14.5002V9.99848H15.5043V9.00098Z" fill="#000001"/>
<path id="Vector_8" d="M15.5045 6.00195H13.5029V6.99945H15.5045V6.00195Z" fill="#000001"/>
<path id="Vector_9" d="M15.5045 14.0017H13.5029V14.9992H15.5045V14.0017Z" fill="#000001"/>
<path id="Vector_10" d="M14.5004 9.99854H13.5029V11.0026H14.5004V9.99854Z" fill="#000001"/>
<path id="Vector_11" d="M13.5029 12.9976H12.5054V14.0016H13.5029V12.9976Z" fill="#000001"/>
<path id="Vector_12" d="M13.5029 11.0024H12.5054V11.9999H13.5029V11.0024Z" fill="#000001"/>
<path id="Vector_13" d="M13.5029 6.99951H12.5054V7.99701H13.5029V6.99951Z" fill="#000001"/>
<path id="Vector_14" d="M12.5053 12H11.5012V12.9975H12.5053V12Z" fill="#000001"/>
<path id="Vector_15" d="M12.5053 7.99683H11.5012V9.00089H12.5053V7.99683Z" fill="#000001"/>
<path id="Vector_16" d="M11.5012 11.0024H10.5037V11.9999H11.5012V11.0024Z" fill="#000001"/>
<path id="Vector_17" d="M11.5012 6.99951H10.5037V7.99701H11.5012V6.99951Z" fill="#000001"/>
<path id="Vector_18" d="M11.5013 12.9976H9.50635V14.0016H11.5013V12.9976Z" fill="#000001"/>
<path id="Vector_19" d="M10.5038 9.99854H9.50635V11.0026H10.5038V9.99854Z" fill="#000001"/>
<path id="Vector_20" d="M10.5038 6.00195H8.5022V6.99945H10.5038V6.00195Z" fill="#000001"/>
<path id="Vector_21" d="M9.50626 9.00098H8.5022V9.99848H9.50626V9.00098Z" fill="#000001"/>
<path id="Vector_22" d="M8.50214 6.99951H7.50464V9.00107H8.50214V6.99951Z" fill="#000001"/>
<path id="Vector_23" d="M8.50224 4.00034V4.99784H15.5044V4.00034H18.5035V2.99628H15.5044V1.99878H8.50224V2.99628H5.50317V4.00034H8.50224Z" fill="#000001"/>
<path id="Vector_24" d="M15.5045 19.9997V19.0022H2.50415V19.9997H4.50571V20.9972H5.50321V19.9997H15.5045Z" fill="#000001"/>
<path id="Vector_25" d="M2.50406 6.00195H1.5V19.0023H2.50406V6.00195Z" fill="#000001"/>
</g>
</g>
</svg>
