<svg width="24" height="24" viewBox="0 0 24 24" fill="none" xmlns="http://www.w3.org/2000/svg">
<g id="content-files-pencil-ruler">
<g id="Group">
<path id="Vector" d="M21.4992 11.5012H20.5017V17.4993H21.4992V11.5012Z" fill="#000001"/>
<path id="Vector_2" d="M20.5017 17.4993H19.5042V18.5033H20.5017V17.4993Z" fill="#000001"/>
<path id="Vector_3" d="M20.5017 10.5037H19.5042V11.5012H20.5017V10.5037Z" fill="#000001"/>
<path id="Vector_4" d="M19.5041 12.4988H18.5V16.5019H19.5041V12.4988Z" fill="#000001"/>
<path id="Vector_5" d="M19.5042 19.5009V18.5034H17.5026V17.4994H18.5001V16.5019H17.5026V12.4988H18.5001V11.5013H17.5026V10.5038H19.5042V9.4997H17.5026V8.5022H16.5051V19.5009H19.5042Z" fill="#000001"/>
<path id="Vector_6" d="M16.5052 19.501H14.5037V20.4985H16.5052V19.501Z" fill="#000001"/>
<path id="Vector_7" d="M14.5035 20.4985H12.502V21.5026H14.5035V20.4985Z" fill="#000001"/>
<path id="Vector_8" d="M14.5035 4.49912V3.50162H13.4994V2.49756H12.5019V3.50162H11.5044V4.49912H14.5035Z" fill="#000001"/>
<path id="Vector_9" d="M12.5019 15.4978H11.5044V16.5019H12.5019V15.4978Z" fill="#000001"/>
<path id="Vector_10" d="M12.5019 13.5029H11.5044V14.5004H12.5019V13.5029Z" fill="#000001"/>
<path id="Vector_11" d="M12.5021 21.5024H7.50146V22.4999H12.5021V21.5024Z" fill="#000001"/>
<path id="Vector_12" d="M11.5044 16.502H8.50537V17.4995H11.5044V16.502Z" fill="#000001"/>
<path id="Vector_13" d="M8.50547 9.49965H6.50391V10.5037H13.4995V9.49965H15.5011V8.50215H16.5052V7.49809H15.5011V4.49902H14.5036V5.50309H11.5045V4.49902H10.5005V6.50059H8.50547V9.49965ZM13.4995 6.50059H14.5036V8.50215H13.4995V6.50059ZM11.5045 6.50059H12.502V9.49965H11.5045V6.50059Z" fill="#000001"/>
<path id="Vector_14" d="M8.50553 15.4978H7.50146V16.5019H8.50553V15.4978Z" fill="#000001"/>
<path id="Vector_15" d="M8.50553 13.5029H7.50146V14.5004H8.50553V13.5029Z" fill="#000001"/>
<path id="Vector_16" d="M8.50553 4.49902H7.50146V6.50059H8.50553V4.49902Z" fill="#000001"/>
<path id="Vector_17" d="M7.50132 20.4985H5.49976V21.5026H7.50132V20.4985Z" fill="#000001"/>
<path id="Vector_18" d="M7.50126 8.50211V7.49805H5.4997V8.50211H4.5022V9.49961H6.50376V8.50211H7.50126Z" fill="#000001"/>
<path id="Vector_19" d="M7.50141 2.49756H6.50391V4.49912H7.50141V2.49756Z" fill="#000001"/>
<path id="Vector_20" d="M6.50376 1.5H4.5022V2.4975H6.50376V1.5Z" fill="#000001"/>
<path id="Vector_21" d="M5.49988 19.501H3.50488V20.4985H5.49988V19.501Z" fill="#000001"/>
<path id="Vector_22" d="M4.50238 2.49756H3.50488V3.50162H4.50238V2.49756Z" fill="#000001"/>
<path id="Vector_23" d="M3.50479 8.50224H4.50229V6.50067H5.49979V5.50317H3.50479V7.49817H2.50073V19.501H3.50479V8.50224Z" fill="#000001"/>
<path id="Vector_24" d="M3.50479 3.50146H2.50073V5.50303H3.50479V3.50146Z" fill="#000001"/>
</g>
</g>
</svg>
