<svg width="24" height="24" viewBox="0 0 24 24" fill="none" xmlns="http://www.w3.org/2000/svg">
<g id="content-files-pencil-brush">
<g id="Group">
<path id="Vector" d="M21.5025 16.0032H20.505V17.0007H18.5035V19.0022H16.5019V21.0038H15.5044V22.0013H22.5V21.0038H21.5025V16.0032Z" fill="#000001"/>
<path id="Vector_2" d="M21.5024 5.00439H20.5049V6.99939H21.5024V5.00439Z" fill="#000001"/>
<path id="Vector_3" d="M20.505 14.999H19.501V16.0031H20.505V14.999Z" fill="#000001"/>
<path id="Vector_4" d="M20.505 6.99951H19.501V8.00357H20.505V6.99951Z" fill="#000001"/>
<path id="Vector_5" d="M20.505 4.00024H19.501V5.00431H20.505V4.00024Z" fill="#000001"/>
<path id="Vector_6" d="M19.5009 8.00342H18.5034V9.00092H19.5009V8.00342Z" fill="#000001"/>
<path id="Vector_7" d="M19.5009 3.00293H18.5034V4.00043H19.5009V3.00293Z" fill="#000001"/>
<path id="Vector_8" d="M18.5034 9.00098H17.5059V10.005H18.5034V9.00098Z" fill="#000001"/>
<path id="Vector_9" d="M18.5034 6.99951H17.5059V8.00357H18.5034V6.99951Z" fill="#000001"/>
<path id="Vector_10" d="M18.5035 1.99878H16.502V3.00284H18.5035V1.99878Z" fill="#000001"/>
<path id="Vector_11" d="M19.501 14.0017H16.502V14.9992H19.501V14.0017Z" fill="#000001"/>
<path id="Vector_12" d="M17.506 10.0051H16.502V11.0026H17.506V10.0051Z" fill="#000001"/>
<path id="Vector_13" d="M17.506 6.00195H16.502V6.99945H17.506V6.00195Z" fill="#000001"/>
<path id="Vector_14" d="M16.5019 14.999H15.5044V16.0031H16.5019V14.999Z" fill="#000001"/>
<path id="Vector_15" d="M16.5019 13.0042H15.5044V14.0016H16.5019V13.0042Z" fill="#000001"/>
<path id="Vector_16" d="M16.5019 11.0024H15.5044V11.9999H16.5019V11.0024Z" fill="#000001"/>
<path id="Vector_17" d="M16.5019 6.99951H15.5044V8.00357H16.5019V6.99951Z" fill="#000001"/>
<path id="Vector_18" d="M16.5019 5.00439H15.5044V6.00189H16.5019V5.00439Z" fill="#000001"/>
<path id="Vector_19" d="M16.5019 3.00293H15.5044V4.00043H16.5019V3.00293Z" fill="#000001"/>
<path id="Vector_20" d="M15.5043 19.9998H14.5002V21.0038H15.5043V19.9998Z" fill="#000001"/>
<path id="Vector_21" d="M15.5043 16.0032H14.5002V17.0007H15.5043V16.0032Z" fill="#000001"/>
<path id="Vector_22" d="M15.5043 12H14.5002V13.0041H15.5043V12Z" fill="#000001"/>
<path id="Vector_23" d="M15.5043 8.00342H14.5002V9.00092H15.5043V8.00342Z" fill="#000001"/>
<path id="Vector_24" d="M15.5043 4.00024H14.5002V5.00431H15.5043V4.00024Z" fill="#000001"/>
<path id="Vector_25" d="M14.5004 17.0007H13.5029V19.9998H14.5004V17.0007Z" fill="#000001"/>
<path id="Vector_26" d="M14.5004 13.0042H13.5029V14.0016H14.5004V13.0042Z" fill="#000001"/>
<path id="Vector_27" d="M14.5004 9.00098H13.5029V10.005H14.5004V9.00098Z" fill="#000001"/>
<path id="Vector_28" d="M14.5004 5.00439H13.5029V6.00189H14.5004V5.00439Z" fill="#000001"/>
<path id="Vector_29" d="M13.5029 16.0032H12.5054V17.0007H13.5029V16.0032Z" fill="#000001"/>
<path id="Vector_30" d="M13.5029 14.0017H12.5054V14.9992H13.5029V14.0017Z" fill="#000001"/>
<path id="Vector_31" d="M13.5029 10.0051H12.5054V11.0026H13.5029V10.0051Z" fill="#000001"/>
<path id="Vector_32" d="M13.5029 6.00195H12.5054V6.99945H13.5029V6.00195Z" fill="#000001"/>
<path id="Vector_33" d="M12.5053 14.999H11.5012V16.0031H12.5053V14.999Z" fill="#000001"/>
<path id="Vector_34" d="M12.5053 11.0024H11.5012V11.9999H12.5053V11.0024Z" fill="#000001"/>
<path id="Vector_35" d="M12.5053 6.99951H11.5012V8.00357H12.5053V6.99951Z" fill="#000001"/>
<path id="Vector_36" d="M11.5012 16.0032H10.5037V17.0007H11.5012V16.0032Z" fill="#000001"/>
<path id="Vector_37" d="M11.5012 12H10.5037V13.0041H11.5012V12Z" fill="#000001"/>
<path id="Vector_38" d="M11.5012 8.00342H10.5037V9.00092H11.5012V8.00342Z" fill="#000001"/>
<path id="Vector_39" d="M10.5038 17.0007H9.50635V18.0048H10.5038V17.0007Z" fill="#000001"/>
<path id="Vector_40" d="M10.5038 13.0042H9.50635V14.0016H10.5038V13.0042Z" fill="#000001"/>
<path id="Vector_41" d="M10.5038 9.00098H9.50635V10.005H10.5038V9.00098Z" fill="#000001"/>
<path id="Vector_42" d="M10.5038 6.99951H9.50635V8.00357H10.5038V6.99951Z" fill="#000001"/>
<path id="Vector_43" d="M9.50626 18.0046H8.5022V19.0021H9.50626V18.0046Z" fill="#000001"/>
<path id="Vector_44" d="M9.50626 14.0017H8.5022V14.9992H9.50626V14.0017Z" fill="#000001"/>
<path id="Vector_45" d="M9.50626 10.0051H8.5022V11.0026H9.50626V10.0051Z" fill="#000001"/>
<path id="Vector_46" d="M9.50626 6.00195H8.5022V6.99945H9.50626V6.00195Z" fill="#000001"/>
<path id="Vector_47" d="M8.50214 19.0022H7.50464V19.9997H8.50214V19.0022Z" fill="#000001"/>
<path id="Vector_48" d="M8.50214 14.999H7.50464V16.0031H8.50214V14.999Z" fill="#000001"/>
<path id="Vector_49" d="M8.50214 11.0024H7.50464V11.9999H8.50214V11.0024Z" fill="#000001"/>
<path id="Vector_50" d="M8.50214 5.00439H7.50464V6.00189H8.50214V5.00439Z" fill="#000001"/>
<path id="Vector_51" d="M7.50479 19.9998H6.50073V21.0038H7.50479V19.9998Z" fill="#000001"/>
<path id="Vector_52" d="M7.50479 16.0032H6.50073V17.0007H7.50479V16.0032Z" fill="#000001"/>
<path id="Vector_53" d="M7.50479 12H6.50073V13.0041H7.50479V12Z" fill="#000001"/>
<path id="Vector_54" d="M7.50479 10.0051H6.50073V11.0026H7.50479V10.0051Z" fill="#000001"/>
<path id="Vector_55" d="M7.50479 4.00024H6.50073V5.00431H7.50479V4.00024Z" fill="#000001"/>
<path id="Vector_56" d="M6.50067 19.0022H5.50317V19.9997H6.50067V19.0022Z" fill="#000001"/>
<path id="Vector_57" d="M6.50067 17.0007H5.50317V18.0048H6.50067V17.0007Z" fill="#000001"/>
<path id="Vector_58" d="M6.50067 13.0042H5.50317V14.0016H6.50067V13.0042Z" fill="#000001"/>
<path id="Vector_59" d="M6.50067 9.00098H5.50317V10.005H6.50067V9.00098Z" fill="#000001"/>
<path id="Vector_60" d="M6.50067 3.00293H5.50317V4.00043H6.50067V3.00293Z" fill="#000001"/>
<path id="Vector_61" d="M4.50562 19.9998H3.50156V19.0023H2.50406V17.0007H1.5V22.0014H6.50062V21.0039H4.50562V19.9998Z" fill="#000001"/>
<path id="Vector_62" d="M5.50312 18.0046H4.50562V19.0021H5.50312V18.0046Z" fill="#000001"/>
<path id="Vector_63" d="M5.50312 14.0017H4.50562V14.9992H5.50312V14.0017Z" fill="#000001"/>
<path id="Vector_64" d="M5.50312 8.00342H4.50562V9.00092H5.50312V8.00342Z" fill="#000001"/>
<path id="Vector_65" d="M5.50303 1.99878H3.50146V3.00284H5.50303V1.99878Z" fill="#000001"/>
<path id="Vector_66" d="M4.50553 17.0007H3.50146V18.0048H4.50553V17.0007Z" fill="#000001"/>
<path id="Vector_67" d="M4.50553 14.999H3.50146V16.0031H4.50553V14.999Z" fill="#000001"/>
<path id="Vector_68" d="M4.50553 6.99951H3.50146V8.00357H4.50553V6.99951Z" fill="#000001"/>
<path id="Vector_69" d="M3.50165 16.0032H2.50415V17.0007H3.50165V16.0032Z" fill="#000001"/>
<path id="Vector_70" d="M3.50165 6.00195H2.50415V6.99945H3.50165V6.00195Z" fill="#000001"/>
<path id="Vector_71" d="M3.50165 3.00293H2.50415V4.00043H3.50165V3.00293Z" fill="#000001"/>
<path id="Vector_72" d="M2.50406 4.00024H1.5V6.00181H2.50406V4.00024Z" fill="#000001"/>
</g>
</g>
</svg>
