<svg width="24" height="24" viewBox="0 0 24 24" fill="none" xmlns="http://www.w3.org/2000/svg">
<g id="content-files-note-book">
<g id="Group">
<path id="Vector" d="M20.0048 21.5026V13.5029H21.9998V3.50162H20.0048V2.49756H19.0007V21.5026H20.0048ZM20.0048 4.49912H21.0023V6.50068H20.0048V4.49912ZM20.0048 7.49818H21.0023V9.49975H20.0048V7.49818ZM20.0048 10.5038H21.0023V12.4988H20.0048V10.5038Z" fill="#000001"/>
<path id="Vector_2" d="M18.9973 21.5024H4.00195V22.4999H18.9973V21.5024Z" fill="#000001"/>
<path id="Vector_3" d="M17.0024 17.4993H15.9983V18.5033H17.0024V17.4993Z" fill="#000001"/>
<path id="Vector_4" d="M17.0025 19.501H13.9968V20.4985H17.0025V19.501Z" fill="#000001"/>
<path id="Vector_5" d="M16.0017 12.4988V11.5013H17.0058V6.50067H16.0017V5.50317H7.99544V6.50067H7.00122V11.5013H7.99544V12.4988H16.0017ZM9.00278 7.49817H15.0009V8.50224H9.00278V7.49817ZM9.00278 9.49974H15.0009V10.5038H9.00278V9.49974Z" fill="#000001"/>
<path id="Vector_6" d="M15.0009 17.4993H13.9968V18.5033H15.0009V17.4993Z" fill="#000001"/>
<path id="Vector_7" d="M18.9973 1.5H4.00195V2.4975H18.9973V1.5Z" fill="#000001"/>
<path id="Vector_8" d="M4.99955 19.501V18.5035H4.00205V15.4979H4.99955V14.5004H4.00205V12.4988H4.99955V11.5013H4.00205V9.49975H4.99955V8.50225H4.00205V5.50318H4.99955V4.49912H4.00205V2.49756H2.99799V4.49912H2.00049V5.50318H2.99799V8.50225H2.00049V9.49975H2.99799V11.5013H2.00049V12.4988H2.99799V14.5004H2.00049V15.4979H2.99799V18.5035H2.00049V19.501H2.99799V21.5026H4.00205V19.501H4.99955Z" fill="#000001"/>
</g>
</g>
</svg>
