<svg width="24" height="24" viewBox="0 0 24 24" fill="none" xmlns="http://www.w3.org/2000/svg">
<g id="content-files-draw-content">
<g id="Group">
<path id="Vector" d="M22.0012 18.0046H21.0037V19.0021H22.0012V18.0046Z" fill="#000001"/>
<path id="Vector_2" d="M21.0038 17.0007H19.9998V18.0048H21.0038V17.0007Z" fill="#000001"/>
<path id="Vector_3" d="M21.0038 10.0051H19.9998V12.0001H21.0038V10.0051Z" fill="#000001"/>
<path id="Vector_4" d="M21.0037 19.0022H18.0046V19.9997H21.0037V19.0022Z" fill="#000001"/>
<path id="Vector_5" d="M19.9997 16.0032H19.0022V17.0007H19.9997V16.0032Z" fill="#000001"/>
<path id="Vector_6" d="M19.0022 11.0026H18.0047V10.0051H17.0006V11.0026H16.0031V12.0001H14.9991V13.0042H14.0016V14.0017H13.0041V14.9992H12V16.0033H13.0041V17.0008H14.0016V18.0048H14.9991V17.0008H16.0031V16.0033H17.0006V14.9992H18.0047V14.0017H19.0022V13.0042H19.9997V12.0001H19.0022V11.0026Z" fill="#000001"/>
<path id="Vector_7" d="M19.9996 9.00098H18.0046V10.005H19.9996V9.00098Z" fill="#000001"/>
<path id="Vector_8" d="M18.0047 19.9998H16.0032V21.0038H18.0047V19.9998Z" fill="#000001"/>
<path id="Vector_9" d="M16.0031 9.00098H14.999V10.005H16.0031V9.00098Z" fill="#000001"/>
<path id="Vector_10" d="M16.0031 5.00439H14.999V6.00189H16.0031V5.00439Z" fill="#000001"/>
<path id="Vector_11" d="M16.0031 21.0037H5.00439V22.0012H16.0031V21.0037Z" fill="#000001"/>
<path id="Vector_12" d="M14.9992 8.00342H14.0017V9.00092H14.9992V8.00342Z" fill="#000001"/>
<path id="Vector_13" d="M14.9992 6.00195H14.0017V6.99945H14.9992V6.00195Z" fill="#000001"/>
<path id="Vector_14" d="M11.9999 16.0032H11.0024V19.0022H14.0015V18.0047H11.9999V16.0032Z" fill="#000001"/>
<path id="Vector_15" d="M13.004 12.0001V11.0026H14.0015V10.0051H11.0024V11.0026H11.9999V12.0001H13.004Z" fill="#000001"/>
<path id="Vector_16" d="M13.0041 5.00439H12V6.00189H13.0041V5.00439Z" fill="#000001"/>
<path id="Vector_17" d="M9.00092 14.9992V14.0017H8.00342V16.0033H11.0025V14.9992H9.00092Z" fill="#000001"/>
<path id="Vector_18" d="M11.0026 13.0042H10.0051V14.0016H11.0026V13.0042Z" fill="#000001"/>
<path id="Vector_19" d="M10.005 18.0046H8.00342V19.0021H10.005V18.0046Z" fill="#000001"/>
<path id="Vector_20" d="M9.00107 12.0001V11.0026H10.0051V10.0051H6.99951V11.0026H8.00357V12.0001H9.00107Z" fill="#000001"/>
<path id="Vector_21" d="M14.0017 8.00337V6.99931H12.0001V6.00181H11.0026V6.99931H10.0051V4.00024H9.00107V6.99931H8.00357V6.00181H6.99951V8.00337H14.0017Z" fill="#000001"/>
<path id="Vector_22" d="M8.00352 17.0007H6.00195V18.0048H8.00352V17.0007Z" fill="#000001"/>
<path id="Vector_23" d="M6.99945 8.00342H6.00195V9.00092H6.99945V8.00342Z" fill="#000001"/>
<path id="Vector_24" d="M6.99945 5.00439H6.00195V6.00189H6.99945V5.00439Z" fill="#000001"/>
<path id="Vector_25" d="M6.00189 9.00098H5.00439V17.0007H6.00189V9.00098Z" fill="#000001"/>
<path id="Vector_26" d="M6.00189 6.99951H5.00439V8.00357H6.00189V6.99951Z" fill="#000001"/>
<path id="Vector_27" d="M5.00431 18.0046H4.00024V21.0037H5.00431V18.0046Z" fill="#000001"/>
<path id="Vector_28" d="M5.00431 6.00195H4.00024V6.99945H5.00431V6.00195Z" fill="#000001"/>
<path id="Vector_29" d="M4.00043 14.0017H3.00293V18.0048H4.00043V14.0017Z" fill="#000001"/>
<path id="Vector_30" d="M3.00284 3.00284H17.0007V8.00347H18.0047V1.99878H1.99878V14.0016H3.00284V3.00284Z" fill="#000001"/>
</g>
</g>
</svg>
