<svg width="24" height="24" viewBox="0 0 24 24" fill="none" xmlns="http://www.w3.org/2000/svg">
<g id="content-files-note">
<g id="Group">
<path id="Vector" d="M20.4985 4.50391H19.501V21.5008H20.4985V4.50391Z" fill="#000001"/>
<path id="Vector_2" d="M19.5011 3.49976H18.4971V4.50382H19.5011V3.49976Z" fill="#000001"/>
<path id="Vector_3" d="M18.497 2.50244H17.4995V3.49994H18.497V2.50244Z" fill="#000001"/>
<path id="Vector_4" d="M18.4957 6.49882H17.4982V5.5046H16.5007V4.50382H15.4966V3.49976H3.50171V22.5015H18.4957V6.49882ZM17.4982 21.5007H4.49921V4.50382H13.4964V8.50038H17.4995L17.4982 21.5007Z" fill="#000001"/>
<path id="Vector_5" d="M17.4996 1.49829H4.49927V2.50235H17.4996V1.49829Z" fill="#000001"/>
<path id="Vector_6" d="M15.4979 18.5017H6.50073V19.4992H15.4979V18.5017Z" fill="#000001"/>
<path id="Vector_7" d="M15.4979 14.4985H6.50073V15.5026H15.4979V14.4985Z" fill="#000001"/>
<path id="Vector_8" d="M15.4979 10.502H6.50073V11.4995H15.4979V10.502Z" fill="#000001"/>
<path id="Vector_9" d="M10.4973 6.49902H6.50073V7.50309H10.4973V6.49902Z" fill="#000001"/>
</g>
</g>
</svg>
