<svg width="24" height="24" viewBox="0 0 24 24" fill="none" xmlns="http://www.w3.org/2000/svg">
<g id="content-files-pdf">
<g id="Group">
<path id="Vector" d="M20.4958 5.50312H17.4955V2.50078H18.4995V1.5H4.49646V9.50625H3.49896V10.5038H4.49646V12.5053H3.49896V10.5038H2.50146V18.5034H3.49896V19.5009H4.49646V22.5H21.4986V4.50234H20.4945L20.4958 5.50312ZM5.50053 13.4995H8.49959V16.4986H6.49803V18.5002H5.50053V13.4995ZM20.4958 21.4992H5.50053V19.4977H17.4955V18.5002H18.4995V13.4995H17.4955V12.502H5.50053V2.50078H16.4993V6.49734H20.4958V21.4992ZM12.4962 14.497V17.5027H11.4987V18.5002H9.49709V13.4995H11.4987V14.497H12.4962ZM16.4993 15.5011V16.4986H14.4977V18.5002H13.5002V13.4995H16.4993V14.497H14.4977V15.5011H16.4993Z" fill="#000001"/>
<path id="Vector_2" d="M20.4958 3.49829H19.4983V4.50235H20.4958V3.49829Z" fill="#000001"/>
<path id="Vector_3" d="M19.4982 2.50073H18.5007V3.49823H19.4982V2.50073Z" fill="#000001"/>
<path id="Vector_4" d="M11.4987 14.4971H10.5012V17.5027H11.4987V14.4971Z" fill="#000001"/>
<path id="Vector_5" d="M7.50211 14.4971H6.49805V15.5011H7.50211V14.4971Z" fill="#000001"/>
</g>
</g>
</svg>
