<svg width="24" height="24" viewBox="0 0 24 24" fill="none" xmlns="http://www.w3.org/2000/svg">
<g id="content-files-typing-machine">
<g id="Group">
<path id="Vector" d="M20.5049 18.5033V19.5008H21.5024V21.5024H22.4999V17.4993H21.5024V18.5033H20.5049Z" fill="#000001"/>
<path id="Vector_2" d="M21.5024 15.4978H20.5049V17.4994H21.5024V15.4978Z" fill="#000001"/>
<path id="Vector_3" d="M21.5026 21.5024H2.50415V22.4999H21.5026V21.5024Z" fill="#000001"/>
<path id="Vector_4" d="M20.505 13.5029H19.501V15.4979H20.505V13.5029Z" fill="#000001"/>
<path id="Vector_5" d="M20.5049 19.501H3.50146V20.4985H20.5049V19.501Z" fill="#000001"/>
<path id="Vector_6" d="M18.5034 13.5029H19.5009V10.5038H20.505V9.49976H18.5034V13.5029Z" fill="#000001"/>
<path id="Vector_7" d="M17.5059 3.50162V4.49912H19.5009V2.49756H18.5034V3.50162H17.5059Z" fill="#000001"/>
<path id="Vector_8" d="M13.5027 11.5012H10.5037V12.4987H13.5027V11.5012Z" fill="#000001"/>
<path id="Vector_9" d="M16.5019 2.4975V3.50156H17.5059V2.4975H18.5034V1.5H8.5022V2.4975H16.5019Z" fill="#000001"/>
<path id="Vector_10" d="M19.5009 18.5036V16.502H18.5034V14.5004H17.5059V13.5029H6.50062V14.5004H5.50312V16.502H4.50562V18.5036H19.5009ZM17.5059 17.4995H16.5019V16.502H17.5059V17.4995ZM15.5044 14.5004H16.5019V15.4979H15.5044V14.5004ZM15.5044 17.4995H14.5003V16.502H15.5044V17.4995ZM13.5028 14.5004H14.5003V15.4979H13.5028V14.5004ZM13.5028 17.4995H10.5037V16.502H13.5028V17.4995ZM11.5012 14.5004H12.5053V15.4979H11.5012V14.5004ZM9.50624 14.5004H10.5037V15.4979H9.50624V14.5004ZM9.50624 17.4995H8.50218V16.502H9.50624V17.4995ZM7.50468 14.5004H8.50218V15.4979H7.50468V14.5004ZM6.50062 16.502H7.50468V17.4995H6.50062V16.502Z" fill="#000001"/>
<path id="Vector_11" d="M5.50321 9.49975H4.50571V8.50225H5.50321V9.49975H6.50071V8.50225H9.50634V9.49975H8.50228V10.5038H15.5045V9.49975H14.5004V8.50225H17.506V9.49975H18.5035V8.50225H20.5051V9.49975H21.5026V7.49818H19.501V6.50068H18.5035V7.49818H16.502V6.50068H18.5035V5.50318H16.502V3.50162H15.5045V7.49818H8.50228V2.49756H7.50478V5.50318H5.50321V6.50068H7.50478V7.49818H5.50321V6.50068H4.50571V7.49818H2.50415V8.50225H3.50165V10.5038H4.50571V13.5029H5.50321V9.49975Z" fill="#000001"/>
<path id="Vector_12" d="M4.50553 13.5029H3.50146V15.4979H4.50553V13.5029Z" fill="#000001"/>
<path id="Vector_13" d="M3.50165 15.4978H2.50415V17.4994H3.50165V15.4978Z" fill="#000001"/>
<path id="Vector_14" d="M2.50406 19.5008H3.50156V18.5033H2.50406V17.4993H1.5V21.5024H2.50406V19.5008Z" fill="#000001"/>
<path id="Vector_15" d="M2.50406 5.50317H1.5V7.49817H2.50406V5.50317Z" fill="#000001"/>
</g>
</g>
</svg>
