<svg width="24" height="24" viewBox="0 0 24 24" fill="none" xmlns="http://www.w3.org/2000/svg">
<g id="content-files-archive-books-1">
<g id="Group">
<path id="Vector" d="M20.505 5.50312V1.5H10.5038V2.4975H6.50062V3.50156H3.50156V10.5038H2.50406V12.4988H1.5V22.5H22.5V5.50312H20.505ZM6.50062 21.5025H2.50406V15.4978H6.50062V21.5025ZM6.50062 14.5003H4.50562V4.49906H6.50062V14.5003ZM7.50469 3.50156H10.5038V4.49906H8.50219V14.5003H7.50469V3.50156ZM10.5038 5.50312V14.5003H9.50625V5.50312H10.5038ZM11.5012 21.5025H7.50469V15.4978H11.5012V21.5025ZM21.5025 21.5025H12.5053V14.5003H11.5012V2.4975H19.5009V5.50312H16.5019V6.50062H21.5025V21.5025Z" fill="#000001"/>
<path id="Vector_2" d="M19.5009 15.4978H18.5034V16.5019H19.5009V15.4978Z" fill="#000001"/>
<path id="Vector_3" d="M19.5009 13.5029H18.5034V14.5004H19.5009V13.5029Z" fill="#000001"/>
<path id="Vector_4" d="M18.5035 16.502H16.502V17.4995H18.5035V16.502Z" fill="#000001"/>
<path id="Vector_5" d="M16.5019 15.4978H15.5044V16.5019H16.5019V15.4978Z" fill="#000001"/>
<path id="Vector_6" d="M16.5019 13.5029H15.5044V14.5004H16.5019V13.5029Z" fill="#000001"/>
<path id="Vector_7" d="M16.5019 6.50073H15.5044V8.5023H16.5019V6.50073Z" fill="#000001"/>
<path id="Vector_8" d="M15.5043 8.5022H14.5002V10.5038H15.5043V8.5022Z" fill="#000001"/>
<path id="Vector_9" d="M14.5004 10.5037H13.5029V12.4987H14.5004V10.5037Z" fill="#000001"/>
<path id="Vector_10" d="M14.5004 3.50146H13.5029V4.49896H14.5004V3.50146Z" fill="#000001"/>
<path id="Vector_11" d="M13.5029 12.4988H12.5054V14.5003H13.5029V12.4988Z" fill="#000001"/>
<path id="Vector_12" d="M10.5038 17.4993H8.5022V19.5008H10.5038V17.4993Z" fill="#000001"/>
<path id="Vector_13" d="M5.50303 17.4993H3.50146V19.5008H5.50303V17.4993Z" fill="#000001"/>
</g>
</g>
</svg>
