<svg width="24" height="24" viewBox="0 0 24 24" fill="none" xmlns="http://www.w3.org/2000/svg">
<g id="content-files-pen">
<g id="Group">
<path id="Vector" d="M21.5026 2.4975H20.5051V1.5H18.5035V2.4975H14.5004V3.50156H13.5029V4.49906H12.5054V5.50312H11.5013V6.50062H10.5038V7.49813H9.50635V8.50219H11.5013V7.49813H12.5054V6.50062H13.5029V5.50312H14.5004V4.49906H15.5045V5.50312H14.5004V6.50062H15.5045V7.49813H16.502V8.50219H17.506V9.49969H18.5035V8.50219H19.501V7.49813H20.5051V6.50062H21.5026V5.50312H22.5001V3.50156H21.5026V2.4975Z" fill="#000001"/>
<path id="Vector_2" d="M17.506 9.49976H16.502V10.5038H17.506V9.49976Z" fill="#000001"/>
<path id="Vector_3" d="M16.5019 10.5037H15.5044V11.5012H16.5019V10.5037Z" fill="#000001"/>
<path id="Vector_4" d="M15.5043 11.5012H14.5002V12.4987H15.5043V11.5012Z" fill="#000001"/>
<path id="Vector_5" d="M14.5004 12.4988H13.5029V13.5028H14.5004V12.4988Z" fill="#000001"/>
<path id="Vector_6" d="M14.5004 6.50073H13.5029V7.49823H14.5004V6.50073Z" fill="#000001"/>
<path id="Vector_7" d="M13.5029 13.5029H12.5054V14.5004H13.5029V13.5029Z" fill="#000001"/>
<path id="Vector_8" d="M13.5029 7.49805H12.5054V8.50211H13.5029V7.49805Z" fill="#000001"/>
<path id="Vector_9" d="M12.5053 14.5002H11.5012V15.4977H12.5053V14.5002Z" fill="#000001"/>
<path id="Vector_10" d="M12.5053 8.5022H11.5012V9.4997H12.5053V8.5022Z" fill="#000001"/>
<path id="Vector_11" d="M11.5012 15.4978H10.5037V16.5019H11.5012V15.4978Z" fill="#000001"/>
<path id="Vector_12" d="M11.5012 9.49976H10.5037V10.5038H11.5012V9.49976Z" fill="#000001"/>
<path id="Vector_13" d="M10.5038 10.5037H9.50635V11.5012H10.5038V10.5037Z" fill="#000001"/>
<path id="Vector_14" d="M8.5022 20.4985H9.50626V17.4995H10.5038V16.502H8.5022V20.4985Z" fill="#000001"/>
<path id="Vector_15" d="M9.50626 11.5012H8.5022V12.4987H9.50626V11.5012Z" fill="#000001"/>
<path id="Vector_16" d="M8.50214 15.4978H7.50464V16.5019H8.50214V15.4978Z" fill="#000001"/>
<path id="Vector_17" d="M8.50214 12.4988H7.50464V13.5028H8.50214V12.4988Z" fill="#000001"/>
<path id="Vector_18" d="M8.5023 20.4985H6.50073V21.5026H8.5023V20.4985Z" fill="#000001"/>
<path id="Vector_19" d="M6.50062 17.4993H4.50562V19.5008H6.50062V17.4993Z" fill="#000001"/>
<path id="Vector_20" d="M3.50156 21.5024V20.4983H2.50406V17.4993H1.5V22.4999H6.50062V21.5024H3.50156Z" fill="#000001"/>
<path id="Vector_21" d="M7.50459 15.4979V13.5029H6.50053V14.5004H3.50146V15.4979H7.50459Z" fill="#000001"/>
<path id="Vector_22" d="M4.50553 19.501H3.50146V20.4985H4.50553V19.501Z" fill="#000001"/>
<path id="Vector_23" d="M3.50165 15.4978H2.50415V17.4994H3.50165V15.4978Z" fill="#000001"/>
</g>
</g>
</svg>
