<svg width="24" height="24" viewBox="0 0 24 24" fill="none" xmlns="http://www.w3.org/2000/svg">
<g id="content-files-phone-book">
<g id="Group">
<path id="Vector" d="M4.00024 2.4975H19.9996V3.50156H5.00431V4.49906H19.9996V5.50312H4.00024V6.50062H5.00431V21.5025H4.00024V22.5H21.0037V21.5025H6.00181V6.50062H21.0037V21.5025H22.0012V5.50312H21.0037V2.4975H22.0012V1.5H4.00024V2.4975Z" fill="#000001"/>
<path id="Vector_2" d="M18.0048 9.49976H8.00357V10.5038H6.99951V12.4988H10.0051V11.5013H16.0033V12.4988H19.0023V10.5038H18.0048V9.49976Z" fill="#000001"/>
<path id="Vector_3" d="M17.0006 14.5003H16.0031V13.5028H14.999V12.4988H14.0015V13.5028H12V12.4988H11.0025V13.5028H10.005V14.5003H9.00092V15.4978H8.00342V18.5035H9.00092V19.501H17.0006V18.5035H18.0047V15.4978H17.0006V14.5003ZM14.999 17.4994H14.0015V18.5035H12V17.4994H11.0025V15.4978H12V14.5003H14.0015V15.4978H14.999V17.4994Z" fill="#000001"/>
<path id="Vector_4" d="M14.0016 15.4978H12V17.4994H14.0016V15.4978Z" fill="#000001"/>
<path id="Vector_5" d="M4.00043 20.4985H3.00293V21.5026H4.00043V20.4985Z" fill="#000001"/>
<path id="Vector_6" d="M4.00043 2.49756H3.00293V3.50162H4.00043V2.49756Z" fill="#000001"/>
<path id="Vector_7" d="M3.00284 5.50303H4.00034V4.49896H3.00284V3.50146H1.99878V20.4983H3.00284V5.50303Z" fill="#000001"/>
</g>
</g>
</svg>
