<svg width="24" height="24" viewBox="0 0 24 24" fill="none" xmlns="http://www.w3.org/2000/svg">
<g id="content-files-archive-books-2">
<g id="Group">
<path id="Vector" d="M21.5025 19.5009H17.5059V2.4975H21.5025V1.5H4.50562V2.4975H16.5019V7.49813H13.5028V8.50219H16.5019V11.5012H15.5044V12.4988H13.5028V11.5012H12.5053V12.4988H9.50625V10.5038H8.50219V12.4988H3.50156V10.5038H2.50406V12.4988H1.5V19.5009H2.50406V13.5028H11.5012V19.5009H2.50406V20.4984H3.50156V22.5H4.50562V20.4984H16.5019V22.5H17.5059V20.4984H21.5025V22.5H22.5V2.4975H21.5025V19.5009Z" fill="#000001"/>
<path id="Vector_2" d="M12.5053 4.49902H8.5022V5.50309H12.5053V4.49902Z" fill="#000001"/>
<path id="Vector_3" d="M8.50224 15.4978H5.50317V16.5019H8.50224V15.4978Z" fill="#000001"/>
<path id="Vector_4" d="M4.50553 2.49756H3.50146V6.50068H4.50553V2.49756Z" fill="#000001"/>
<path id="Vector_5" d="M7.50469 8.50211V10.5037H8.50219V9.49961H11.5012V11.5012H12.5053V10.5037H14.5003V11.5012H15.5044V9.49961H12.5053V8.50211H8.50219V7.49805H1.5V10.5037H2.50406V8.50211H7.50469Z" fill="#000001"/>
</g>
</g>
</svg>
