<svg width="24" height="24" viewBox="0 0 24 24" fill="none" xmlns="http://www.w3.org/2000/svg">
<g id="content-files-write-note">
<g id="Group">
<path id="Vector" d="M22.4999 19.501H21.5024V20.4985H22.4999V19.501Z" fill="#000001"/>
<path id="Vector_2" d="M22.4999 2.49756H21.5024V16.5019H22.4999V2.49756Z" fill="#000001"/>
<path id="Vector_3" d="M21.5024 20.4985H20.5049V21.5026H21.5024V20.4985Z" fill="#000001"/>
<path id="Vector_4" d="M21.5024 18.5034H20.5049V19.5009H21.5024V18.5034Z" fill="#000001"/>
<path id="Vector_5" d="M21.5026 1.5H2.50415V2.4975H21.5026V1.5Z" fill="#000001"/>
<path id="Vector_6" d="M20.505 21.5024H19.501V22.4999H20.505V21.5024Z" fill="#000001"/>
<path id="Vector_7" d="M20.505 17.4993H19.501V18.5033H20.505V17.4993Z" fill="#000001"/>
<path id="Vector_8" d="M20.505 14.5002H19.501V15.4977H20.505V14.5002Z" fill="#000001"/>
<path id="Vector_9" d="M20.5051 11.5012H16.502V12.4987H20.5051V11.5012Z" fill="#000001"/>
<path id="Vector_10" d="M19.5009 20.4985H18.5034V21.5026H19.5009V20.4985Z" fill="#000001"/>
<path id="Vector_11" d="M19.5009 16.502H18.5034V17.4995H19.5009V16.502Z" fill="#000001"/>
<path id="Vector_12" d="M18.5034 19.501H17.5059V20.4985H18.5034V19.501Z" fill="#000001"/>
<path id="Vector_13" d="M18.5034 15.4978H17.5059V16.5019H18.5034V15.4978Z" fill="#000001"/>
<path id="Vector_14" d="M17.506 18.5034H16.502V19.5009H17.506V18.5034Z" fill="#000001"/>
<path id="Vector_15" d="M17.506 14.5002H16.502V15.4977H17.506V14.5002Z" fill="#000001"/>
<path id="Vector_16" d="M16.5019 17.4993H15.5044V18.5033H16.5019V17.4993Z" fill="#000001"/>
<path id="Vector_17" d="M16.5019 13.5029H15.5044V14.5004H16.5019V13.5029Z" fill="#000001"/>
<path id="Vector_18" d="M15.5043 16.502H14.5002V17.4995H15.5043V16.502Z" fill="#000001"/>
<path id="Vector_19" d="M15.5043 12.4988H14.5002V13.5028H15.5043V12.4988Z" fill="#000001"/>
<path id="Vector_20" d="M14.5004 15.4978H13.5029V16.5019H14.5004V15.4978Z" fill="#000001"/>
<path id="Vector_21" d="M13.5029 14.5002H12.5054V15.4977H13.5029V14.5002Z" fill="#000001"/>
<path id="Vector_22" d="M20.505 4.49902H11.5012V5.50309H20.505V4.49902Z" fill="#000001"/>
<path id="Vector_23" d="M14.5003 12.4987V11.5012H11.5012V14.5003H12.5053V12.4987H14.5003Z" fill="#000001"/>
<path id="Vector_24" d="M20.505 7.49805H11.5012V8.50211H20.505V7.49805Z" fill="#000001"/>
<path id="Vector_25" d="M10.5037 3.50146H3.50146V10.5037H10.5037V3.50146ZM9.50943 6.50053H8.50537V5.50368H7.50459V8.50275H8.50209V9.50025H5.50631V8.50275H6.50381V5.50368H5.50631V6.50118H4.50553V4.49896H9.50943V6.50053Z" fill="#000001"/>
<path id="Vector_26" d="M9.50615 11.5012H3.50146V12.4987H9.50615V11.5012Z" fill="#000001"/>
<path id="Vector_27" d="M9.5062 20.4985V17.4995H12.5053V16.502H8.50214V19.501H7.50464V20.4985H9.5062Z" fill="#000001"/>
<path id="Vector_28" d="M9.50615 14.5002H3.50146V15.4977H9.50615V14.5002Z" fill="#000001"/>
<path id="Vector_29" d="M7.5048 18.5034H6.50073V19.5009H7.5048V18.5034Z" fill="#000001"/>
<path id="Vector_30" d="M6.50067 17.4993H5.50317V18.5033H6.50067V17.4993Z" fill="#000001"/>
<path id="Vector_31" d="M5.50321 16.502H2.50415V17.4995H5.50321V16.502Z" fill="#000001"/>
<path id="Vector_32" d="M2.50406 2.49756H1.5V16.5019H2.50406V2.49756Z" fill="#000001"/>
</g>
</g>
</svg>
