<svg width="24" height="24" viewBox="0 0 24 24" fill="none" xmlns="http://www.w3.org/2000/svg">
<g id="content-files-newspaper">
<g id="Group">
<path id="Vector" d="M22.4999 7.00269H21.4958V20.003H22.4999V7.00269Z" fill="#000001"/>
<path id="Vector_2" d="M21.496 20.0029H20.4985V21.0004H21.496V20.0029Z" fill="#000001"/>
<path id="Vector_3" d="M20.4985 9.00415H19.501V18.9988H20.4985V9.00415Z" fill="#000001"/>
<path id="Vector_4" d="M19.5008 20.0029H18.4968V21.0004H3.50146V21.9979H20.4983V21.0004H19.5008V20.0029Z" fill="#000001"/>
<path id="Vector_5" d="M17.4993 20.0029H18.4968V7.00264H21.4958V5.99857H18.4968V2.99951H17.4993V20.0029Z" fill="#000001"/>
<path id="Vector_6" d="M16.5019 18.9988H5.49658V20.0028H16.5019V18.9988Z" fill="#000001"/>
<path id="Vector_7" d="M16.502 10.999H13.4963V13.9981H16.502V10.999Z" fill="#000001"/>
<path id="Vector_8" d="M12.4988 10.999H9.49976V12.0031H12.4988V10.999Z" fill="#000001"/>
<path id="Vector_9" d="M12.4988 13.0007H9.49976V13.9982H12.4988V13.0007Z" fill="#000001"/>
<path id="Vector_10" d="M16.5018 17.0039H3.50146V18.0014H16.5018V17.0039Z" fill="#000001"/>
<path id="Vector_11" d="M16.5018 15.0022H3.50146V15.9997H16.5018V15.0022Z" fill="#000001"/>
<path id="Vector_12" d="M8.50209 13.0007H3.50146V13.9982H8.50209V13.0007Z" fill="#000001"/>
<path id="Vector_13" d="M8.50209 10.999H3.50146V12.0031H8.50209V10.999Z" fill="#000001"/>
<path id="Vector_14" d="M16.5018 10.0017V5.00439H3.50146V10.005L16.5018 10.0017ZM4.49896 5.99861H8.50209V7.00268H7.49803V8.00018H6.50053V9.00752H4.49896V5.99861Z" fill="#000001"/>
<path id="Vector_15" d="M17.4994 2.00195H2.49756V2.99945H17.4994V2.00195Z" fill="#000001"/>
<path id="Vector_16" d="M3.50162 20.0029H2.49756V21.0004H3.50162V20.0029Z" fill="#000001"/>
<path id="Vector_17" d="M2.4975 2.99951H1.5V20.0029H2.4975V2.99951Z" fill="#000001"/>
</g>
</g>
</svg>
