<svg width="24" height="24" viewBox="0 0 24 24" fill="none" xmlns="http://www.w3.org/2000/svg">
<g id="design-color-spray">
<g id="Group">
<path id="Vector" d="M21.0004 11.5012H19.9963V12.4987H21.0004V11.5012Z" fill="#000001"/>
<path id="Vector_2" d="M21.0004 9.49976H19.9963V10.4973H21.0004V9.49976Z" fill="#000001"/>
<path id="Vector_3" d="M21.0004 7.49805H19.9963V8.49555H21.0004V7.49805Z" fill="#000001"/>
<path id="Vector_4" d="M21.0004 5.49658H19.9963V6.50064H21.0004V5.49658Z" fill="#000001"/>
<path id="Vector_5" d="M21.0004 3.49512H19.9963V4.49918H21.0004V3.49512Z" fill="#000001"/>
<path id="Vector_6" d="M21.0004 1.5H19.9963V2.4975H21.0004V1.5Z" fill="#000001"/>
<path id="Vector_7" d="M18.999 10.4971H18.0015V11.5011H18.999V10.4971Z" fill="#000001"/>
<path id="Vector_8" d="M18.999 8.49561H18.0015V9.49967H18.999V8.49561Z" fill="#000001"/>
<path id="Vector_9" d="M18.999 6.50073H18.0015V7.49823H18.999V6.50073Z" fill="#000001"/>
<path id="Vector_10" d="M18.999 4.49902H18.0015V5.49652H18.999V4.49902Z" fill="#000001"/>
<path id="Vector_11" d="M18.999 2.49756H18.0015V3.49506H18.999V2.49756Z" fill="#000001"/>
<path id="Vector_12" d="M16.9973 9.49976H15.9998V10.4973H16.9973V9.49976Z" fill="#000001"/>
<path id="Vector_13" d="M16.9973 7.49805H15.9998V8.49555H16.9973V7.49805Z" fill="#000001"/>
<path id="Vector_14" d="M16.9973 5.49658H15.9998V6.50064H16.9973V5.49658Z" fill="#000001"/>
<path id="Vector_15" d="M16.9973 3.49512H15.9998V4.49918H16.9973V3.49512Z" fill="#000001"/>
<path id="Vector_16" d="M3.99701 12.4987V11.5012H2.99951V22.5H3.99701V13.4962H13.9983V15.4978H8.99764V16.4953H13.0008V17.4993H11.9967V18.4968H10.9992V19.5009H9.99514V20.4984H8.99764V21.4959H13.9983V22.5H14.9958V11.5012H13.9983V12.4987H3.99701Z" fill="#000001"/>
<path id="Vector_17" d="M14.9958 8.49561H13.9983V9.49967H14.9958V8.49561Z" fill="#000001"/>
<path id="Vector_18" d="M14.9958 6.50073H13.9983V7.49823H14.9958V6.50073Z" fill="#000001"/>
<path id="Vector_19" d="M14.9958 4.49902H13.9983V5.49652H14.9958V4.49902Z" fill="#000001"/>
<path id="Vector_20" d="M13.9982 10.4971H13.0007V11.5011H13.9982V10.4971Z" fill="#000001"/>
<path id="Vector_21" d="M13.0006 9.49976H11.9966V10.4973H13.0006V9.49976Z" fill="#000001"/>
<path id="Vector_22" d="M9.99524 4.49902H8.00024V5.49652H9.99524V4.49902Z" fill="#000001"/>
<path id="Vector_23" d="M8.99774 16.4954H8.00024V20.4985H8.99774V16.4954Z" fill="#000001"/>
<path id="Vector_24" d="M8.0001 8.49564V5.49658H6.99604V8.49564H5.99854V9.49971H11.9967V8.49564H10.9992V7.49814H13.0007V6.50064H10.9992V5.49658H9.9951V8.49564H8.0001Z" fill="#000001"/>
<path id="Vector_25" d="M5.99848 9.49976H5.00098V10.4973H5.99848V9.49976Z" fill="#000001"/>
<path id="Vector_26" d="M5.00113 10.4971H3.99707V11.5011H5.00113V10.4971Z" fill="#000001"/>
</g>
</g>
</svg>
