<svg width="24" height="24" viewBox="0 0 24 24" fill="none" xmlns="http://www.w3.org/2000/svg">
<g id="design-hilight">
<g id="Group">
<path id="Vector" d="M21.5025 4.50235H20.4985V3.49829H15.5044V4.50235H19.501V5.49985H20.4985V6.49735H21.5025V10.5005H22.5V5.49985H21.5025V4.50235Z" fill="#000001"/>
<path id="Vector_2" d="M21.5026 10.5005H20.4985V11.498H21.5026V10.5005Z" fill="#000001"/>
<path id="Vector_3" d="M20.4985 11.498H19.501V12.5021H20.4985V11.498Z" fill="#000001"/>
<path id="Vector_4" d="M19.5009 12.502H18.5034V13.4995H19.5009V12.502Z" fill="#000001"/>
<path id="Vector_5" d="M18.5033 13.4995H17.4993V14.497H18.5033V13.4995Z" fill="#000001"/>
<path id="Vector_6" d="M18.5034 7.50138H17.4993V6.49731H16.5018V7.50138H15.5043V8.49888H14.5003V9.50294H13.5028V10.5004H12.4987V11.4979H11.5012V12.502H12.4987V13.4995H13.5028V14.497H14.5003V13.4995H15.5043V12.502H16.5018V11.4979H17.4993V10.5004H18.5034V9.50294H19.5009V8.49888H18.5034V7.50138Z" fill="#000001"/>
<path id="Vector_7" d="M17.4995 14.4971H16.502V15.5011H17.4995V14.4971Z" fill="#000001"/>
<path id="Vector_8" d="M16.5019 15.5012H15.5044V16.4987H16.5019V15.5012Z" fill="#000001"/>
<path id="Vector_9" d="M15.5043 4.50244H14.5002V5.49994H15.5043V4.50244Z" fill="#000001"/>
<path id="Vector_10" d="M15.5045 16.4985H13.5029V17.5026H15.5045V16.4985Z" fill="#000001"/>
<path id="Vector_11" d="M14.5004 5.49976H13.5029V6.49726H14.5004V5.49976Z" fill="#000001"/>
<path id="Vector_12" d="M13.5028 15.5012H12.4988V16.4987H13.5028V15.5012Z" fill="#000001"/>
<path id="Vector_13" d="M13.5028 6.49731H12.4988V7.50138H13.5028V6.49731Z" fill="#000001"/>
<path id="Vector_14" d="M13.5028 17.5027H11.5012V18.5002H13.5028V17.5027Z" fill="#000001"/>
<path id="Vector_15" d="M12.4987 14.4971H11.5012V15.5011H12.4987V14.4971Z" fill="#000001"/>
<path id="Vector_16" d="M12.4987 7.50146H11.5012V8.49896H12.4987V7.50146Z" fill="#000001"/>
<path id="Vector_17" d="M11.5012 18.5002H10.5037V19.4977H11.5012V18.5002Z" fill="#000001"/>
<path id="Vector_18" d="M11.5012 13.4995H10.5037V14.497H11.5012V13.4995Z" fill="#000001"/>
<path id="Vector_19" d="M11.5012 8.49902H10.5037V9.50309H11.5012V8.49902Z" fill="#000001"/>
<path id="Vector_20" d="M10.5038 17.5027H9.49976V18.5002H10.5038V17.5027Z" fill="#000001"/>
<path id="Vector_21" d="M10.5038 12.502H9.49976V13.4995H10.5038V12.502Z" fill="#000001"/>
<path id="Vector_22" d="M10.5038 9.50293H9.49976V10.5004H10.5038V9.50293Z" fill="#000001"/>
<path id="Vector_23" d="M9.4997 16.4985H8.5022V17.5026H9.4997V16.4985Z" fill="#000001"/>
<path id="Vector_24" d="M9.4997 10.5005H8.5022V12.5021H9.4997V10.5005Z" fill="#000001"/>
<path id="Vector_25" d="M6.50067 18.5002V17.5027H5.50317V19.4977H9.49974V18.5002H6.50067Z" fill="#000001"/>
<path id="Vector_26" d="M8.50214 15.5012H7.50464V16.4987H8.50214V15.5012Z" fill="#000001"/>
<path id="Vector_27" d="M8.50214 12.502H7.50464V14.497H8.50214V12.502Z" fill="#000001"/>
<path id="Vector_28" d="M7.50479 16.4985H6.50073V17.5026H7.50479V16.4985Z" fill="#000001"/>
<path id="Vector_29" d="M7.50479 14.4971H6.50073V15.5011H7.50479V14.4971Z" fill="#000001"/>
<path id="Vector_30" d="M5.50312 19.4976H1.5V20.5016H5.50312V19.4976Z" fill="#000001"/>
</g>
</g>
</svg>
