<svg width="24" height="24" viewBox="0 0 24 24" fill="none" xmlns="http://www.w3.org/2000/svg">
<g id="design-crop-edit-picture">
<g id="Group">
<path id="Vector" d="M20.4984 17.4994V3.50156H6.50062V1.5H3.50156V3.50156H1.5V6.50062H3.50156V20.4984H17.4994V22.5H20.4984V20.4984H22.5V17.4994H20.4984ZM21.5025 19.5009H19.5009V21.5025H18.5034V19.5009H4.49906V5.50312H2.50406V4.49906H4.49906V2.4975H5.50312V4.49906H19.5009V18.5034H21.5025V19.5009Z" fill="#000001"/>
<path id="Vector_2" d="M5.50317 5.50317V18.5035H18.5035V5.50317H5.50317ZM17.4994 11.5013H14.5004V12.4988H17.4994V17.4994H14.5004V16.5019H13.5029V17.4994H6.50067V16.5019H7.50474V15.4979H6.50067V6.50067H17.4994V11.5013Z" fill="#000001"/>
<path id="Vector_3" d="M14.5004 12.4988H13.5029V13.5028H14.5004V12.4988Z" fill="#000001"/>
<path id="Vector_4" d="M13.5028 13.5029H12.4988V14.5004H13.5028V13.5029Z" fill="#000001"/>
<path id="Vector_5" d="M13.5028 15.4978H12.4988V16.5019H13.5028V15.4978Z" fill="#000001"/>
<path id="Vector_6" d="M12.4987 14.5002H11.5012V15.4977H12.4987V14.5002Z" fill="#000001"/>
<path id="Vector_7" d="M8.50214 11.5012H10.5037V10.4971H11.5012V8.50211H10.5037V7.49805H8.50214V8.50211H7.50464V10.4971H8.50214V11.5012Z" fill="#000001"/>
<path id="Vector_8" d="M11.5013 13.5029H8.5022V14.5004H11.5013V13.5029Z" fill="#000001"/>
<path id="Vector_9" d="M8.50214 14.5002H7.50464V15.4977H8.50214V14.5002Z" fill="#000001"/>
</g>
</g>
</svg>
