<svg width="24" height="24" viewBox="0 0 24 24" fill="none" xmlns="http://www.w3.org/2000/svg">
<g id="design-half-circle-ruler">
<g id="Group">
<path id="Vector" d="M21.5025 11.4978H20.4985V13.4994H19.501V14.4969H21.5025V17.4959H22.5V13.4994H21.5025V11.4978Z" fill="#000001"/>
<path id="Vector_2" d="M20.4985 16.4985H19.501V17.496H16.5019V16.4985H15.4979V17.496H12.4988V16.4985H11.5013V17.496H8.50225V16.4985H7.49818V17.496H4.49912V16.4985H3.50162V17.496H2.49756V18.5001H21.5026V17.496H20.4985V16.4985Z" fill="#000001"/>
<path id="Vector_3" d="M20.4985 9.49634H19.501V11.4979H20.4985V9.49634Z" fill="#000001"/>
<path id="Vector_4" d="M19.5009 8.49878H18.4968V9.49628H19.5009V8.49878Z" fill="#000001"/>
<path id="Vector_5" d="M18.4968 9.49634H17.4993V10.5004H18.4968V9.49634Z" fill="#000001"/>
<path id="Vector_6" d="M18.4968 7.50122H17.4993V8.49872H18.4968V7.50122Z" fill="#000001"/>
<path id="Vector_7" d="M16.502 11.4978H15.4979V13.4994H8.5023V11.4978H7.49823V13.4994H6.50073V14.4969H17.4995V13.4994H16.502V11.4978Z" fill="#000001"/>
<path id="Vector_8" d="M17.4994 6.49731H15.4978V7.50138H17.4994V6.49731Z" fill="#000001"/>
<path id="Vector_9" d="M15.4977 10.5005H14.5002V11.498H15.4977V10.5005Z" fill="#000001"/>
<path id="Vector_10" d="M15.4977 7.50122H14.5002V8.49872H15.4977V7.50122Z" fill="#000001"/>
<path id="Vector_11" d="M14.5004 9.49634H9.49976V10.5004H14.5004V9.49634Z" fill="#000001"/>
<path id="Vector_12" d="M11.5013 6.49726V8.49882H12.4988V6.49726H15.4978V5.49976H8.5022V6.49726H11.5013Z" fill="#000001"/>
<path id="Vector_13" d="M9.4997 10.5005H8.5022V11.498H9.4997V10.5005Z" fill="#000001"/>
<path id="Vector_14" d="M9.4997 7.50122H8.5022V8.49872H9.4997V7.50122Z" fill="#000001"/>
<path id="Vector_15" d="M8.5023 6.49731H6.50073V7.50138H8.5023V6.49731Z" fill="#000001"/>
<path id="Vector_16" d="M6.50067 9.49634H5.50317V10.5004H6.50067V9.49634Z" fill="#000001"/>
<path id="Vector_17" d="M6.50067 7.50122H5.50317V8.49872H6.50067V7.50122Z" fill="#000001"/>
<path id="Vector_18" d="M5.50309 8.49878H4.49902V9.49628H5.50309V8.49878Z" fill="#000001"/>
<path id="Vector_19" d="M4.49896 9.49634H3.50146V11.4979H4.49896V9.49634Z" fill="#000001"/>
<path id="Vector_20" d="M2.4975 14.4969H4.49906V13.4994H3.50156V11.4978H2.4975V13.4994H1.5V17.4959H2.4975V14.4969Z" fill="#000001"/>
</g>
</g>
</svg>
