<svg width="24" height="24" viewBox="0 0 24 24" fill="none" xmlns="http://www.w3.org/2000/svg">
<g id="design-ink-pen">
<g id="Group">
<path id="Vector" d="M22.4999 2.49756H21.5024V4.49912H22.4999V2.49756Z" fill="#000001"/>
<path id="Vector_2" d="M21.5026 4.49902H20.4985V5.49652H21.5026V4.49902Z" fill="#000001"/>
<path id="Vector_3" d="M21.5025 1.5H19.501V2.4975H21.5025V1.5Z" fill="#000001"/>
<path id="Vector_4" d="M20.4985 5.49658H19.501V6.50064H20.4985V5.49658Z" fill="#000001"/>
<path id="Vector_5" d="M19.5009 6.50073H18.5034V8.49573H19.5009V6.50073Z" fill="#000001"/>
<path id="Vector_6" d="M19.5009 2.49756H18.5034V3.50162H19.5009V2.49756Z" fill="#000001"/>
<path id="Vector_7" d="M18.5033 8.49561H17.4993V9.49967H18.5033V8.49561Z" fill="#000001"/>
<path id="Vector_8" d="M18.5033 3.50146H17.4993V4.49896H18.5033V3.50146Z" fill="#000001"/>
<path id="Vector_9" d="M17.4995 9.49976H16.502V10.4973H17.4995V9.49976Z" fill="#000001"/>
<path id="Vector_10" d="M17.4994 4.49902H15.5044V5.49652H17.4994V4.49902Z" fill="#000001"/>
<path id="Vector_11" d="M16.5019 10.4971H15.5044V11.5011H16.5019V10.4971Z" fill="#000001"/>
<path id="Vector_12" d="M15.5043 11.5012H14.5002V12.4987H15.5043V11.5012Z" fill="#000001"/>
<path id="Vector_13" d="M15.5043 5.49658H14.5002V6.50064H15.5043V5.49658Z" fill="#000001"/>
<path id="Vector_14" d="M14.5004 12.4988H13.5029V13.4963H14.5004V12.4988Z" fill="#000001"/>
<path id="Vector_15" d="M14.5004 6.50073H13.5029V7.49823H14.5004V6.50073Z" fill="#000001"/>
<path id="Vector_16" d="M13.5028 13.4963H12.4988V14.5004H13.5028V13.4963Z" fill="#000001"/>
<path id="Vector_17" d="M13.5028 7.49805H12.4988V8.49555H13.5028V7.49805Z" fill="#000001"/>
<path id="Vector_18" d="M12.4987 8.49561H11.5012V9.49967H12.4987V8.49561Z" fill="#000001"/>
<path id="Vector_19" d="M11.5012 13.4962H10.5037V12.4987H9.49965V11.5012H8.50215V12.4987H7.50465V13.4962H4.49902V14.5003H8.50215V15.4978H9.49965V19.5009H10.5037V16.4953H11.5012V15.4978H12.4987V14.5003H11.5012V13.4962Z" fill="#000001"/>
<path id="Vector_20" d="M11.5012 9.49976H10.5037V10.4973H11.5012V9.49976Z" fill="#000001"/>
<path id="Vector_21" d="M10.5038 10.4971H9.49976V11.5011H10.5038V10.4971Z" fill="#000001"/>
<path id="Vector_22" d="M8.50215 20.4985H4.49902V21.496H9.49965V19.501H8.50215V20.4985Z" fill="#000001"/>
<path id="Vector_23" d="M5.50317 15.4978V18.4969H8.50224V15.4978H5.50317ZM7.50474 17.4994H6.50067V16.4953H7.50474V17.4994Z" fill="#000001"/>
<path id="Vector_24" d="M5.50309 18.4968H4.49902V19.5009H5.50309V18.4968Z" fill="#000001"/>
<path id="Vector_25" d="M4.49896 19.501H3.50146V20.4985H4.49896V19.501Z" fill="#000001"/>
<path id="Vector_26" d="M3.50156 20.4985H2.50406V19.501H1.5V22.5H4.49906V21.496H3.50156V20.4985Z" fill="#000001"/>
<path id="Vector_27" d="M3.50165 15.4977H4.49915V14.5002H2.50415V19.5009H3.50165V15.4977Z" fill="#000001"/>
</g>
</g>
</svg>
