<svg width="24" height="24" viewBox="0 0 24 24" fill="none" xmlns="http://www.w3.org/2000/svg">
<g id="design-pencil">
<g id="Group">
<path id="Vector" d="M16.4987 7.49805H15.5012V13.5027H16.4987V7.49805Z" fill="#000001"/>
<path id="Vector_2" d="M9.50631 3.50162V2.49756H8.50225V3.50162H7.50146V17.4994H8.49896V9.49975H13.4996V17.4994H14.4971V7.49818H15.5012V6.50068H14.4971V3.50162H13.4996V2.49756H12.5021V3.50162H9.50631ZM13.5029 4.49912V5.50318H8.50225V4.49912H13.5029Z" fill="#000001"/>
<path id="Vector_3" d="M8.49902 17.4993V19.5008H9.50309V18.5033H12.5021V19.5008H13.4996V17.4993H8.49902Z" fill="#000001"/>
<path id="Vector_4" d="M12.5021 19.501H11.498V20.4985H12.5021V19.501Z" fill="#000001"/>
<path id="Vector_5" d="M12.502 1.5H9.50293V2.4975H12.502V1.5Z" fill="#000001"/>
<path id="Vector_6" d="M11.498 20.4985H10.5005V22.5001H11.498V20.4985Z" fill="#000001"/>
<path id="Vector_7" d="M10.5004 19.501H9.50293V20.4985H10.5004V19.501Z" fill="#000001"/>
</g>
</g>
</svg>
