<svg width="24" height="24" viewBox="0 0 24 24" fill="none" xmlns="http://www.w3.org/2000/svg">
<g id="design-stamp">
<g id="Group">
<path id="Vector" d="M22.4999 16.4954H21.5024V20.4985H22.4999V16.4954Z" fill="#000001"/>
<path id="Vector_2" d="M21.5026 20.4985H20.4985V21.496H21.5026V20.4985Z" fill="#000001"/>
<path id="Vector_3" d="M21.5026 15.4978H20.4985V16.4953H21.5026V15.4978Z" fill="#000001"/>
<path id="Vector_4" d="M20.4984 21.4958H11.5012V22.4999H20.4984V21.4958Z" fill="#000001"/>
<path id="Vector_5" d="M19.5009 18.4968H18.5034V19.5009H19.5009V18.4968Z" fill="#000001"/>
<path id="Vector_6" d="M19.5009 16.4954H18.5034V17.4994H19.5009V16.4954Z" fill="#000001"/>
<path id="Vector_7" d="M18.5034 19.501H14.5002V20.4985H18.5034V19.501Z" fill="#000001"/>
<path id="Vector_8" d="M14.5004 18.4968H13.5029V19.5009H14.5004V18.4968Z" fill="#000001"/>
<path id="Vector_9" d="M13.5029 11.5011V12.4986H14.5004V18.4968H15.5045V15.4977H20.4986V14.5002H15.5045V10.4971H14.5004V11.5011H13.5029Z" fill="#000001"/>
<path id="Vector_10" d="M14.5004 9.49976H13.5029V10.4973H14.5004V9.49976Z" fill="#000001"/>
<path id="Vector_11" d="M13.5027 10.4971H3.50146V11.5011H13.5027V10.4971Z" fill="#000001"/>
<path id="Vector_12" d="M13.5027 20.4985V19.501H3.50146V20.4985H10.5037V21.496H11.5012V20.4985H13.5027Z" fill="#000001"/>
<path id="Vector_13" d="M10.5039 1.5H6.50073V2.4975H10.5039V1.5Z" fill="#000001"/>
<path id="Vector_14" d="M13.5027 13.4963H12.4987V12.4988H4.49896V13.4963H3.50146V17.4994H4.49896V18.4969H12.4987V17.4994H13.5027V13.4963ZM5.50303 13.4963H6.50053V14.5003H5.50303V13.4963ZM11.5012 16.4953H10.5037V17.4994H6.50053V16.4953H5.50303V15.4978H6.50053V16.4953H10.5037V15.4978H11.5012V16.4953ZM11.5012 14.5003H10.5037V13.4963H11.5012V14.5003Z" fill="#000001"/>
<path id="Vector_15" d="M13.5027 9.49975V8.49568H11.5012V2.49756H10.5037V8.49568H6.50053V2.49756H5.50303V8.49568H3.50146V9.49975H13.5027Z" fill="#000001"/>
<path id="Vector_16" d="M3.50165 18.4968H2.50415V19.5009H3.50165V18.4968Z" fill="#000001"/>
<path id="Vector_17" d="M3.50165 9.49976H2.50415V10.4973H3.50165V9.49976Z" fill="#000001"/>
<path id="Vector_18" d="M2.50406 12.4986H3.50156V11.5011H2.50406V10.4971H1.5V18.4968H2.50406V12.4986Z" fill="#000001"/>
</g>
</g>
</svg>
