<svg width="24" height="24" viewBox="0 0 24 24" fill="none" xmlns="http://www.w3.org/2000/svg">
<g id="design-color-brush-paint">
<g id="Group">
<path id="Vector" d="M22.4999 2.49756H21.5024V5.49662H22.4999V2.49756Z" fill="#000001"/>
<path id="Vector_2" d="M21.5026 5.49658H20.4985V7.49814H21.5026V5.49658Z" fill="#000001"/>
<path id="Vector_3" d="M21.5025 1.5H19.501V2.4975H21.5025V1.5Z" fill="#000001"/>
<path id="Vector_4" d="M20.4985 7.49805H19.501V9.49961H20.4985V7.49805Z" fill="#000001"/>
<path id="Vector_5" d="M19.5009 9.49976H18.4968V11.5013H19.5009V9.49976Z" fill="#000001"/>
<path id="Vector_6" d="M19.5009 2.49756H18.4968V4.49912H19.5009V2.49756Z" fill="#000001"/>
<path id="Vector_7" d="M18.4968 11.5012H17.4993V13.4962H18.4968V11.5012Z" fill="#000001"/>
<path id="Vector_8" d="M18.4968 4.49902H17.4993V6.50059H18.4968V4.49902Z" fill="#000001"/>
<path id="Vector_9" d="M17.4995 16.502H16.502V19.501H17.4995V16.502Z" fill="#000001"/>
<path id="Vector_10" d="M17.4995 13.4963H16.502V15.4979H17.4995V13.4963Z" fill="#000001"/>
<path id="Vector_11" d="M17.4995 6.50073H16.502V8.5023H17.4995V6.50073Z" fill="#000001"/>
<path id="Vector_12" d="M16.5019 8.5022H15.4978V10.4972H16.5019V8.5022Z" fill="#000001"/>
<path id="Vector_13" d="M15.4979 18.497H14.5004V19.501H13.5029V18.497H12.4988V17.4995H11.5013V18.497H10.4972V16.502H9.49975V19.501H8.50225V20.4985H7.49818V21.496H2.49756V22.5001H13.5029V21.496H15.4979V20.4985H16.5019V19.501H15.4979V18.497Z" fill="#000001"/>
<path id="Vector_14" d="M16.5018 15.4978H14.5002V16.5019H16.5018V15.4978Z" fill="#000001"/>
<path id="Vector_15" d="M15.4977 10.4971H14.5002V12.4986H15.4977V10.4971Z" fill="#000001"/>
<path id="Vector_16" d="M14.5003 15.4978V12.4988H13.5028V14.5003H11.5012V15.4978H14.5003Z" fill="#000001"/>
<path id="Vector_17" d="M11.5011 15.4978H10.4971V16.5019H11.5011V15.4978Z" fill="#000001"/>
<path id="Vector_18" d="M11.5011 9.49976H10.4971V10.4973H11.5011V9.49976Z" fill="#000001"/>
<path id="Vector_19" d="M10.4973 10.4971H9.49976V11.5011H10.4973V10.4971Z" fill="#000001"/>
<path id="Vector_20" d="M10.4972 8.5022H2.49756V9.4997H10.4972V8.5022Z" fill="#000001"/>
<path id="Vector_21" d="M8.50211 16.502H7.49805V17.4995H8.50211V16.502Z" fill="#000001"/>
<path id="Vector_22" d="M9.49979 11.5012H6.50073V12.4987H9.49979V11.5012Z" fill="#000001"/>
<path id="Vector_23" d="M7.49823 17.4993H6.50073V18.4968H7.49823V17.4993Z" fill="#000001"/>
<path id="Vector_24" d="M7.49809 15.4978H4.49902V16.5019H7.49809V15.4978Z" fill="#000001"/>
<path id="Vector_25" d="M6.50059 12.4988H4.49902V13.4963H6.50059V12.4988Z" fill="#000001"/>
<path id="Vector_26" d="M6.50053 18.4968H3.50146V19.5009H6.50053V18.4968Z" fill="#000001"/>
<path id="Vector_27" d="M4.49896 13.4963H3.50146V15.4979H4.49896V13.4963Z" fill="#000001"/>
<path id="Vector_28" d="M3.50162 19.501H2.49756V20.4985H3.50162V19.501Z" fill="#000001"/>
<path id="Vector_29" d="M2.4975 20.4985H1.5V21.496H2.4975V20.4985Z" fill="#000001"/>
</g>
</g>
</svg>
