<svg width="24" height="24" viewBox="0 0 24 24" fill="none" xmlns="http://www.w3.org/2000/svg">
<g id="design-ruler">
<g id="Group">
<path id="Vector" d="M22.4999 2.50415H21.4958V7.50478H22.4999V2.50415Z" fill="#000001"/>
<path id="Vector_2" d="M8.50219 7.50469V2.50406H9.49969V3.50156H10.4972V2.50406H12.4988V4.50562H13.4963V2.50406H15.4978V3.50156H16.5019V2.50406H18.4969V4.50562H19.5009V2.50406H21.4959V1.5H5.49656V2.50406H7.49813V7.50469H2.4975V5.50312H1.5V21.5025H2.4975V19.5009H4.49906V18.5034H2.4975V16.5019H3.50156V15.5044H2.4975V13.5028H4.49906V12.5053H2.4975V10.5038H3.50156V9.50625H2.4975V8.50219H7.49813V21.5025H8.50219V8.50219H21.4959V7.50469H8.50219Z" fill="#000001"/>
<path id="Vector_3" d="M7.49818 21.5024H2.49756V22.4999H7.49818V21.5024Z" fill="#000001"/>
<path id="Vector_4" d="M5.49652 2.50415H4.49902V3.50165H5.49652V2.50415Z" fill="#000001"/>
<path id="Vector_5" d="M4.49896 3.50146H3.50146V4.50553H4.49896V3.50146Z" fill="#000001"/>
<path id="Vector_6" d="M3.50162 4.50562H2.49756V5.50312H3.50162V4.50562Z" fill="#000001"/>
</g>
</g>
</svg>
