<svg width="24" height="24" viewBox="0 0 24 24" fill="none" xmlns="http://www.w3.org/2000/svg">
<g id="design-artboard-shapes">
<g id="Group">
<path id="Vector" d="M22.5001 3.50146H20.4985V4.49896H22.5001V3.50146Z" fill="#000001"/>
<path id="Vector_2" d="M22.5001 19.501H20.4985V20.4985H22.5001V19.501Z" fill="#000001"/>
<path id="Vector_3" d="M20.4985 1.5H19.501V3.50156H20.4985V1.5Z" fill="#000001"/>
<path id="Vector_4" d="M20.4985 20.4985H19.501V22.5001H20.4985V20.4985Z" fill="#000001"/>
<path id="Vector_5" d="M19.5009 4.49902H4.49902V19.5009H19.5009V4.49902ZM18.5034 18.5034H5.50309V5.50309H18.5034V18.5034Z" fill="#000001"/>
<path id="Vector_6" d="M10.5037 17.4993H17.4993V10.4971H10.5037V17.4993ZM11.5012 11.5011H16.5018V16.5018H11.5012V11.5011Z" fill="#000001"/>
<path id="Vector_7" d="M7.50479 13.5029H8.5023V14.5004H9.49979V9.49979H14.5004V8.5023H13.5029V7.49823H12.4989V6.50073H8.5023V7.49823H7.50479V8.5023H6.50073V12.4989H7.50479V13.5029Z" fill="#000001"/>
<path id="Vector_8" d="M4.49896 1.5H3.50146V3.50156H4.49896V1.5Z" fill="#000001"/>
<path id="Vector_9" d="M4.49896 20.4985H3.50146V22.5001H4.49896V20.4985Z" fill="#000001"/>
<path id="Vector_10" d="M3.50156 3.50146H1.5V4.49896H3.50156V3.50146Z" fill="#000001"/>
<path id="Vector_11" d="M3.50156 19.501H1.5V20.4985H3.50156V19.501Z" fill="#000001"/>
</g>
</g>
</svg>
