<svg width="24" height="24" viewBox="0 0 24 24" fill="none" xmlns="http://www.w3.org/2000/svg">
<g id="design-color-bucket">
<g id="Group">
<path id="Vector" d="M19.4976 9.49965H18.5001V5.49652H17.5026V6.50059H15.501V5.49652H8.49882V6.50059H6.49726V5.49652H5.49976V8.49559H6.49726V9.49965H7.50132V10.4971H13.4994V11.5012H6.49726V12.4987H14.4969V15.4978H16.4985V13.4962H17.5026V12.4987H18.5001V10.4971H19.4976V19.5009H20.5016V4.49902H19.4976V9.49965Z" fill="#000001"/>
<path id="Vector_2" d="M19.4977 19.501H18.5002V20.4985H19.4977V19.501Z" fill="#000001"/>
<path id="Vector_3" d="M19.4977 3.50146H18.5002V4.49896H19.4977V3.50146Z" fill="#000001"/>
<path id="Vector_4" d="M18.5002 20.4985H17.5027V21.496H18.5002V20.4985Z" fill="#000001"/>
<path id="Vector_5" d="M18.5002 2.49756H17.5027V3.50162H18.5002V2.49756Z" fill="#000001"/>
<path id="Vector_6" d="M17.5026 4.49902H16.4985V5.49652H17.5026V4.49902Z" fill="#000001"/>
<path id="Vector_7" d="M17.5026 21.4958H6.49731V22.4999H17.5026V21.4958Z" fill="#000001"/>
<path id="Vector_8" d="M11.498 16.4954H10.5005V18.4969H11.498V16.4954Z" fill="#000001"/>
<path id="Vector_9" d="M9.50309 15.4978H8.49902V19.5009H9.50309V15.4978Z" fill="#000001"/>
<path id="Vector_10" d="M16.4987 3.50146H7.50146V4.49896H16.4987V3.50146Z" fill="#000001"/>
<path id="Vector_11" d="M17.5026 1.5H6.49731V2.4975H17.5026V1.5Z" fill="#000001"/>
<path id="Vector_12" d="M7.50138 14.5002H6.49731V18.4968H7.50138V14.5002Z" fill="#000001"/>
<path id="Vector_13" d="M7.50138 4.49902H6.49731V5.49652H7.50138V4.49902Z" fill="#000001"/>
<path id="Vector_14" d="M6.49726 20.4985H5.49976V21.496H6.49726V20.4985Z" fill="#000001"/>
<path id="Vector_15" d="M6.49726 10.4971H5.49976V11.5011H6.49726V10.4971Z" fill="#000001"/>
<path id="Vector_16" d="M6.49726 2.49756H5.49976V3.50162H6.49726V2.49756Z" fill="#000001"/>
<path id="Vector_17" d="M5.49994 19.501H4.50244V20.4985H5.49994V19.501Z" fill="#000001"/>
<path id="Vector_18" d="M5.49994 3.50146H4.50244V4.49896H5.49994V3.50146Z" fill="#000001"/>
<path id="Vector_19" d="M4.50235 10.4971H5.49985V9.49965H4.50235V4.49902H3.49829V19.5009H4.50235V10.4971Z" fill="#000001"/>
</g>
</g>
</svg>
