<svg width="24" height="24" viewBox="0 0 24 24" fill="none" xmlns="http://www.w3.org/2000/svg">
<g id="design-color-palette-sample">
<g id="Group">
<path id="Vector" d="M22.0014 13.4963H20.9973V21.496H22.0014V13.4963Z" fill="#000001"/>
<path id="Vector_2" d="M22.0014 8.5022H20.9973V9.4997H22.0014V8.5022Z" fill="#000001"/>
<path id="Vector_3" d="M20.9973 9.49976H19.9998V10.4973H20.9973V9.49976Z" fill="#000001"/>
<path id="Vector_4" d="M20.9973 7.49805H19.9998V8.50211H20.9973V7.49805Z" fill="#000001"/>
<path id="Vector_5" d="M20.9972 21.4958H4.9978V22.4999H20.9972V21.4958Z" fill="#000001"/>
<path id="Vector_6" d="M19.9997 10.4971H18.9956V11.5011H19.9997V10.4971Z" fill="#000001"/>
<path id="Vector_7" d="M19.9997 6.50073H18.9956V7.49823H19.9997V6.50073Z" fill="#000001"/>
<path id="Vector_8" d="M19.9996 14.5002H14.999V20.4984H19.9996V14.5002ZM18.9956 19.5009H15.9965V15.4977H18.9956V19.5009Z" fill="#000001"/>
<path id="Vector_9" d="M17.9981 12.4988H17.0006V11.5013H17.9981V10.4972H18.9956V9.49971H19.9996V8.50221H18.9956V7.49814H17.9981V6.50064H17.0006V5.49658H15.9965V6.50064H14.999V7.49814H14.0015V8.50221H12.9974V9.49971H14.0015V10.4972H14.999V11.5013H15.9965V12.4988H12.9974V11.5013H11.9999V10.4972H10.9959V11.5013H9.99837V12.4988H9.00087V11.5013H7.99681V12.4988H4.00024V14.5003H4.99774V13.4963H20.9971V12.4988H18.9956V11.5013H17.9981V12.4988Z" fill="#000001"/>
<path id="Vector_10" d="M18.9955 5.49658H17.998V6.50064H18.9955V5.49658Z" fill="#000001"/>
<path id="Vector_11" d="M17.9982 4.49902H17.0007V5.49652H17.9982V4.49902Z" fill="#000001"/>
<path id="Vector_12" d="M17.0006 3.50146H15.9966V4.49896H17.0006V3.50146Z" fill="#000001"/>
<path id="Vector_13" d="M15.9965 4.49902H14.999V5.49652H15.9965V4.49902Z" fill="#000001"/>
<path id="Vector_14" d="M14.9992 5.49658H14.0017V6.50064H14.9992V5.49658Z" fill="#000001"/>
<path id="Vector_15" d="M14.0016 6.50073H12.9976V7.49823H14.0016V6.50073Z" fill="#000001"/>
<path id="Vector_16" d="M14.0016 14.5002H9.00098V20.4984H14.0016V14.5002ZM12.9975 19.5009H9.99848V15.4977H12.9975V19.5009Z" fill="#000001"/>
<path id="Vector_17" d="M10.9958 9.49975H11.9999V8.50225H12.9974V7.49818H11.9999V2.49756H10.9958V9.49975Z" fill="#000001"/>
<path id="Vector_18" d="M10.996 9.49976H9.99854V10.4973H10.996V9.49976Z" fill="#000001"/>
<path id="Vector_19" d="M9.99848 10.4971H9.00098V11.5011H9.99848V10.4971Z" fill="#000001"/>
<path id="Vector_20" d="M4.00024 9.49976V11.5013H4.99774V10.4973H9.00087V9.49976H4.00024Z" fill="#000001"/>
<path id="Vector_21" d="M7.99701 16.502H6.99951V18.497H7.99701V16.502Z" fill="#000001"/>
<path id="Vector_22" d="M6.99937 15.4978H4.9978V16.5019H6.99937V15.4978Z" fill="#000001"/>
<path id="Vector_23" d="M6.99937 18.4968H4.9978V19.5009H6.99937V18.4968Z" fill="#000001"/>
<path id="Vector_24" d="M9.99837 8.50209V3.50146H4.00024V8.50209H9.99837ZM4.99774 4.49896H9.00087V7.49803H4.99774V4.49896Z" fill="#000001"/>
<path id="Vector_25" d="M4.99774 20.4985H4.00024V21.496H4.99774V20.4985Z" fill="#000001"/>
<path id="Vector_26" d="M4.99774 16.502H4.00024V18.497H4.99774V16.502Z" fill="#000001"/>
<path id="Vector_27" d="M10.996 1.5H2.99634V2.4975H10.996V1.5Z" fill="#000001"/>
<path id="Vector_28" d="M4.0004 19.501H2.99634V20.4985H4.0004V19.501Z" fill="#000001"/>
<path id="Vector_29" d="M2.99628 15.4979H4.00034V14.5004H2.99628V2.49756H1.99878V19.501H2.99628V15.4979Z" fill="#000001"/>
</g>
</g>
</svg>
