<svg width="24" height="24" viewBox="0 0 24 24" fill="none" xmlns="http://www.w3.org/2000/svg">
<g id="design-drawing-board">
<g id="Group">
<path id="Vector" d="M21.4991 18.4968H20.5016V21.4959H19.5041V19.5009H18.5V22.5H21.4991V18.4968Z" fill="#000001"/>
<path id="Vector_2" d="M20.5017 14.5002H19.5042V18.4968H20.5017V14.5002Z" fill="#000001"/>
<path id="Vector_3" d="M18.5002 16.4954H17.5027V19.501H18.5002V16.4954Z" fill="#000001"/>
<path id="Vector_4" d="M17.5026 12.4988H18.5001V14.5003H19.5042V11.5012H18.5001V6.50062H19.5042V2.4975H12.502V1.5H11.5045V2.4975H4.50229V6.50062H5.50308V3.50156H16.5084V6.50062H15.5043V11.5012H14.5068V15.4978H3.50479V11.5012H2.50073V16.4953H4.50229V19.5009H5.50308V16.4953H6.50714V19.5009H5.50308V21.4959H4.50229V19.5009H3.50479V22.5H6.50386V20.4984H12.502V22.5H15.501V19.5009H14.5035V21.4959H13.4995V19.5009H7.50136V18.4969H13.4995V19.5009H14.5035V16.4953H15.501V19.5009H16.5051V16.4953H17.5026V12.4988ZM13.4995 17.4994H7.50136V16.4953H13.4995V17.4994Z" fill="#000001"/>
<path id="Vector_5" d="M14.5036 8.49561H13.4995V10.4972H14.5036V8.49561Z" fill="#000001"/>
<path id="Vector_6" d="M13.4995 10.4971H12.502V12.4986H13.4995V10.4971Z" fill="#000001"/>
<path id="Vector_7" d="M13.4995 7.49805H12.502V8.49555H13.4995V7.49805Z" fill="#000001"/>
<path id="Vector_8" d="M13.4995 4.49902H12.502V5.49652H13.4995V4.49902Z" fill="#000001"/>
<path id="Vector_9" d="M12.5021 12.4988H7.50146V13.4963H12.5021V12.4988Z" fill="#000001"/>
<path id="Vector_10" d="M11.5046 8.49561H10.5005V9.49967H11.5046V8.49561Z" fill="#000001"/>
<path id="Vector_11" d="M10.5004 10.4971H9.50293V11.5011H10.5004V10.4971Z" fill="#000001"/>
<path id="Vector_12" d="M8.50553 8.49561H7.50146V9.49967H8.50553V8.49561Z" fill="#000001"/>
<path id="Vector_13" d="M12.502 7.49809V5.49652H11.5045V6.50059H10.5005V4.49902H9.50297V6.50059H8.50547V5.49652H7.50141V6.50059H6.50391V7.49809H12.502Z" fill="#000001"/>
<path id="Vector_14" d="M7.50141 10.4971H6.50391V12.4986H7.50141V10.4971Z" fill="#000001"/>
<path id="Vector_15" d="M7.50141 4.49902H6.50391V5.49652H7.50141V4.49902Z" fill="#000001"/>
<path id="Vector_16" d="M6.50382 7.49805H5.49976V10.4971H6.50382V7.49805Z" fill="#000001"/>
<path id="Vector_17" d="M4.50238 6.50073H3.50488V11.5014H4.50238V6.50073Z" fill="#000001"/>
</g>
</g>
</svg>
