<svg width="24" height="24" viewBox="0 0 24 24" fill="none" xmlns="http://www.w3.org/2000/svg">
<g id="design-dropper-1">
<g id="Group">
<path id="Vector" d="M15.5011 6.50062V7.49813H16.5051V8.49562H17.5026V9.49969H19.5042V8.49562H20.5017V6.50062H19.5042V5.49656H20.5017V4.49906H21.4992V2.4975H20.5017V1.5H18.5001V2.4975H17.5026V3.50156H16.5051V2.4975H14.5036V3.50156H13.4995V5.49656H14.5036V6.50062H15.5011Z" fill="#000001"/>
<path id="Vector_2" d="M16.505 8.49561H15.501V9.49967H16.505V8.49561Z" fill="#000001"/>
<path id="Vector_3" d="M15.5012 9.49976H14.5037V10.4973H15.5012V9.49976Z" fill="#000001"/>
<path id="Vector_4" d="M14.5036 6.50073H13.4995V7.49823H14.5036V6.50073Z" fill="#000001"/>
<path id="Vector_5" d="M11.5046 10.4973V9.49976H10.5005V10.4973H9.50303V11.5013H8.50553V12.4988H7.50146V15.4979H10.5005V14.5004H11.5046V13.4963H12.5021V12.4988H13.4996V11.5013H14.5037V10.4973H11.5046Z" fill="#000001"/>
<path id="Vector_6" d="M13.4995 7.49805H12.502V8.49555H13.4995V7.49805Z" fill="#000001"/>
<path id="Vector_7" d="M12.5019 8.49561H11.5044V9.49967H12.5019V8.49561Z" fill="#000001"/>
<path id="Vector_8" d="M6.50386 20.4985H4.50229V21.496H2.50073V22.5H11.5045V21.496H9.50292V20.4985H7.50136V19.501H6.50386V20.4985Z" fill="#000001"/>
<path id="Vector_9" d="M7.50141 16.4954H6.50391V18.4969H7.50141V16.4954Z" fill="#000001"/>
</g>
</g>
</svg>
