<svg width="24" height="24" viewBox="0 0 24 24" fill="none" xmlns="http://www.w3.org/2000/svg">
<g id="design-color-bucket-brush">
<g id="Group">
<path id="Vector" d="M21.5026 15.9965H11.5013V14.999H10.5038V19.9996H9.49976V22.0012H21.5026V20.9971H22.5001V14.999H21.5026V15.9965ZM13.5029 19.9996H12.4988V17.0006H13.5029V19.9996ZM16.5019 19.0021H15.5044V17.0006H16.5019V19.0021ZM18.5035 19.0021H17.4994V17.0006H18.5035V19.0021ZM20.4985 19.9996H19.501V17.0006H20.4985V19.9996Z" fill="#000001"/>
<path id="Vector_2" d="M21.5025 14.0017H19.501V14.9992H21.5025V14.0017Z" fill="#000001"/>
<path id="Vector_3" d="M19.5009 12.9976H18.5034V14.0016H19.5009V12.9976Z" fill="#000001"/>
<path id="Vector_4" d="M19.5009 6.00195H18.5034V9.00102H19.5009V6.00195Z" fill="#000001"/>
<path id="Vector_5" d="M18.5033 9.00098H17.4993V12.9975H18.5033V9.00098Z" fill="#000001"/>
<path id="Vector_6" d="M17.4994 6.99951H15.5044V9.00107H17.4994V6.99951Z" fill="#000001"/>
<path id="Vector_7" d="M15.5043 9.00098H14.5002V12.9975H15.5043V9.00098Z" fill="#000001"/>
<path id="Vector_8" d="M18.5034 6.00181V4.99774H15.5043V4.00024H14.5002V6.00181H18.5034Z" fill="#000001"/>
<path id="Vector_9" d="M14.5004 12.9976H13.5029V14.0016H14.5004V12.9976Z" fill="#000001"/>
<path id="Vector_10" d="M14.5003 6.00195H13.5028V7.99695H12.4988V9.00102H14.5003V6.00195Z" fill="#000001"/>
<path id="Vector_11" d="M13.5028 14.0017H11.5012V14.9992H13.5028V14.0017Z" fill="#000001"/>
<path id="Vector_12" d="M11.5012 4.99774V4.00024H5.50303V4.99774H3.50146V6.00181H4.49896V6.99931H5.50303V7.99681H11.5012V6.99931H12.4987V6.00181H13.5027V4.99774H11.5012Z" fill="#000001"/>
<path id="Vector_13" d="M14.5003 3.00293H12.4988V4.00043H14.5003V3.00293Z" fill="#000001"/>
<path id="Vector_14" d="M4.49902 9.00098V9.99848H10.5037V11.0025H11.5012V9.99848H12.4987V9.00098H4.49902Z" fill="#000001"/>
<path id="Vector_15" d="M10.5038 11.0024H8.5022V11.9999H10.5038V11.0024Z" fill="#000001"/>
<path id="Vector_16" d="M8.5023 12H6.50073V12.9975H8.5023V12Z" fill="#000001"/>
<path id="Vector_17" d="M12.4987 1.99878H4.49902V3.00284H12.4987V1.99878Z" fill="#000001"/>
<path id="Vector_18" d="M9.49965 17.998H4.49902V19.0021H9.49965V17.998Z" fill="#000001"/>
<path id="Vector_19" d="M6.50053 12.9976H3.50146V14.0016H6.50053V12.9976Z" fill="#000001"/>
<path id="Vector_20" d="M4.49896 17.0007H3.50146V17.9982H4.49896V17.0007Z" fill="#000001"/>
<path id="Vector_21" d="M4.49896 7.99683H3.50146V9.00089H4.49896V7.99683Z" fill="#000001"/>
<path id="Vector_22" d="M4.49915 3.00293H2.50415V4.00043H4.49915V3.00293Z" fill="#000001"/>
<path id="Vector_23" d="M3.50165 15.9966H2.50415V17.0006H3.50165V15.9966Z" fill="#000001"/>
<path id="Vector_24" d="M2.50406 11.9999V7.99681H3.50156V6.99931H2.50406V4.00024H1.5V15.9965H2.50406V12.9974H3.50156V11.9999H2.50406Z" fill="#000001"/>
</g>
</g>
</svg>
