<svg width="24" height="24" viewBox="0 0 24 24" fill="none" xmlns="http://www.w3.org/2000/svg">
<g id="design-color-tube-pastel">
<g id="Group">
<path id="Vector" d="M20.0046 18.5002V20.4952H21.0021V6.49739H20.0046V5.50317H19.0006V6.50067H15.004V5.50317H13.9999V6.50067H13.0024V20.4985H13.9999V18.5035L20.0046 18.5002ZM19.0006 15.4946H18.0031V14.4971H16.0015V15.4946H15.004V14.4971H16.0015V13.4996H18.0031V14.4971H19.0006V15.4946ZM15.004 12.4955V11.498H16.0015V12.4955H15.004ZM19.0006 12.4955H18.0031V11.498H19.0006V12.4955ZM13.9999 7.49489H20.0046V9.49646H13.9999V7.49489Z" fill="#000001"/>
<path id="Vector_2" d="M20.0013 20.4951H13.9966V21.4992H20.0013V20.4951Z" fill="#000001"/>
<path id="Vector_3" d="M18.9973 3.49829H17.9998V5.49985H18.9973V3.49829Z" fill="#000001"/>
<path id="Vector_4" d="M17.9996 2.50073H15.998V3.49823H17.9996V2.50073Z" fill="#000001"/>
<path id="Vector_5" d="M15.9982 3.49829H15.0007V5.49985H15.9982V3.49829Z" fill="#000001"/>
<path id="Vector_6" d="M9.99999 18.5002V20.4952H10.9975V6.49739H9.99999V5.50317H9.00249V6.50067H4.99937V5.50317H4.00187V6.50067H2.9978V20.4985H4.00187V18.5035L9.99999 18.5002ZM9.00249 14.4971H7.99515V15.4946H5.99687V14.4971H4.99937V13.4996H5.99687V14.4971H7.99515V13.4996H8.99921L9.00249 14.4971ZM4.99937 12.4955V11.498H5.99687V12.4955H4.99937ZM9.00249 12.4955H7.99515V11.498H8.99921L9.00249 12.4955ZM4.00187 7.49489H9.99999V9.49646H4.00187V7.49489Z" fill="#000001"/>
<path id="Vector_7" d="M10.0001 20.4951H4.00195V21.4992H10.0001V20.4951Z" fill="#000001"/>
<path id="Vector_8" d="M9.0026 3.49829H7.99854V5.49985H9.0026V3.49829Z" fill="#000001"/>
<path id="Vector_9" d="M7.99839 2.50073H5.99683V3.49823H7.99839V2.50073Z" fill="#000001"/>
<path id="Vector_10" d="M5.99677 3.49829H4.99927V5.49985H5.99677V3.49829Z" fill="#000001"/>
</g>
</g>
</svg>
