<svg width="24" height="24" viewBox="0 0 24 24" fill="none" xmlns="http://www.w3.org/2000/svg">
<g id="design-dropper-2">
<g id="Group">
<path id="Vector" d="M21.5026 3.50156H20.4986V2.4975H19.5011V1.5H16.502V2.4975H15.5045V3.50156H14.5004V4.49906H13.5029V5.49656H14.5004V6.50062H15.5045V7.49813H16.502V8.49562H17.4995V9.49969H18.5036V10.4972H19.5011V9.49969H20.4986V8.49562H21.5026V7.49813H22.5001V4.49906H21.5026V3.50156ZM21.5026 6.50062H20.4986V7.49813H19.5011V8.49562H18.5036V7.49813H19.5011V6.50062H20.4986V5.49656H19.5011V4.49906H20.4986V5.49656H21.5026V6.50062Z" fill="#000001"/>
<path id="Vector_2" d="M20.4985 10.4971H19.501V13.4961H20.4985V10.4971Z" fill="#000001"/>
<path id="Vector_3" d="M19.501 13.4963H16.502V14.5004H19.501V13.4963Z" fill="#000001"/>
<path id="Vector_4" d="M16.5019 12.4988H15.5044V13.4963H16.5019V12.4988Z" fill="#000001"/>
<path id="Vector_5" d="M15.5043 13.4963H14.5002V14.5004H15.5043V13.4963Z" fill="#000001"/>
<path id="Vector_6" d="M15.5043 11.5012H14.5002V12.4987H15.5043V11.5012Z" fill="#000001"/>
<path id="Vector_7" d="M14.5004 14.5002H13.5029V15.4977H14.5004V14.5002Z" fill="#000001"/>
<path id="Vector_8" d="M14.5004 10.4971H13.5029V11.5011H14.5004V10.4971Z" fill="#000001"/>
<path id="Vector_9" d="M13.5028 15.4978H12.4988V16.4953H13.5028V15.4978Z" fill="#000001"/>
<path id="Vector_10" d="M13.5028 9.49976H12.4988V10.4973H13.5028V9.49976Z" fill="#000001"/>
<path id="Vector_11" d="M12.4987 16.4954H11.5012V17.4994H12.4987V16.4954Z" fill="#000001"/>
<path id="Vector_12" d="M12.4987 8.49561H11.5012V9.49967H12.4987V8.49561Z" fill="#000001"/>
<path id="Vector_13" d="M13.5027 3.50146H10.5037V4.49896H13.5027V3.50146Z" fill="#000001"/>
<path id="Vector_14" d="M11.5012 17.4993H10.5037V18.4968H11.5012V17.4993Z" fill="#000001"/>
<path id="Vector_15" d="M11.5012 7.49805H10.5037V8.49555H11.5012V7.49805Z" fill="#000001"/>
<path id="Vector_16" d="M10.5038 18.4968H9.49976V19.5009H10.5038V18.4968Z" fill="#000001"/>
<path id="Vector_17" d="M10.5038 11.5012H9.49976V12.4987H10.5038V11.5012Z" fill="#000001"/>
<path id="Vector_18" d="M10.5038 8.49561H9.49976V9.49967H10.5038V8.49561Z" fill="#000001"/>
<path id="Vector_19" d="M10.5038 4.49902H9.49976V7.49809H10.5038V4.49902Z" fill="#000001"/>
<path id="Vector_20" d="M9.4997 12.4988H8.5022V13.4963H9.4997V12.4988Z" fill="#000001"/>
<path id="Vector_21" d="M9.4997 9.49976H8.5022V10.4973H9.4997V9.49976Z" fill="#000001"/>
<path id="Vector_22" d="M9.49974 19.501H5.50317V20.4985H9.49974V19.501Z" fill="#000001"/>
<path id="Vector_23" d="M8.50214 13.4963H7.50464V14.5004H8.50214V13.4963Z" fill="#000001"/>
<path id="Vector_24" d="M8.50214 10.4971H7.50464V11.5011H8.50214V10.4971Z" fill="#000001"/>
<path id="Vector_25" d="M7.50479 14.5002H6.50073V15.4977H7.50479V14.5002Z" fill="#000001"/>
<path id="Vector_26" d="M7.50479 11.5012H6.50073V12.4987H7.50479V11.5012Z" fill="#000001"/>
<path id="Vector_27" d="M6.50067 15.4978H5.50317V17.4994H6.50067V15.4978Z" fill="#000001"/>
<path id="Vector_28" d="M6.50067 12.4988H5.50317V13.4963H6.50067V12.4988Z" fill="#000001"/>
<path id="Vector_29" d="M5.50309 20.4985H4.49902V21.496H5.50309V20.4985Z" fill="#000001"/>
<path id="Vector_30" d="M5.50309 13.4963H4.49902V14.5004H5.50309V13.4963Z" fill="#000001"/>
<path id="Vector_31" d="M4.49896 21.4958H3.50146V22.4999H4.49896V21.4958Z" fill="#000001"/>
<path id="Vector_32" d="M4.49896 14.5002H3.50146V18.4968H4.49896V14.5002Z" fill="#000001"/>
<path id="Vector_33" d="M3.50165 20.4985H2.50415V21.496H3.50165V20.4985Z" fill="#000001"/>
<path id="Vector_34" d="M3.50165 18.4968H2.50415V19.5009H3.50165V18.4968Z" fill="#000001"/>
<path id="Vector_35" d="M2.50406 19.501H1.5V20.4985H2.50406V19.501Z" fill="#000001"/>
</g>
</g>
</svg>
