<svg width="24" height="24" viewBox="0 0 24 24" fill="none" xmlns="http://www.w3.org/2000/svg">
<g id="design-color-painting-palette">
<g id="Group">
<path id="Vector" d="M22.0012 6.99951H21.0037V12.0001H22.0012V6.99951Z" fill="#000001"/>
<path id="Vector_2" d="M21.0038 12H19.9998V14.0016H21.0038V12Z" fill="#000001"/>
<path id="Vector_3" d="M21.0038 4.9978H19.9998V6.99937H21.0038V4.9978Z" fill="#000001"/>
<path id="Vector_4" d="M19.9997 14.0017H19.0022V14.9992H19.9997V14.0017Z" fill="#000001"/>
<path id="Vector_5" d="M19.9997 4.00024H19.0022V4.99774H19.9997V4.00024Z" fill="#000001"/>
<path id="Vector_6" d="M19.0021 14.999H17.998V16.0031H19.0021V14.999Z" fill="#000001"/>
<path id="Vector_7" d="M19.0021 9.00098H17.998V12.9975H19.0021V9.00098Z" fill="#000001"/>
<path id="Vector_8" d="M17.9982 16.0032H17.0007V17.0007H17.9982V16.0032Z" fill="#000001"/>
<path id="Vector_9" d="M17.9982 12.9976H17.0007V14.0016H17.9982V12.9976Z" fill="#000001"/>
<path id="Vector_10" d="M19.0023 3.00293H17.0007V4.00043H19.0023V3.00293Z" fill="#000001"/>
<path id="Vector_11" d="M17.0007 17.0007H16.0032V17.9982H17.0007V17.0007Z" fill="#000001"/>
<path id="Vector_12" d="M17.0007 14.0017H16.0032V14.9992H17.0007V14.0017Z" fill="#000001"/>
<path id="Vector_13" d="M17.9981 8.00342H14.999V9.00092H17.9981V8.00342Z" fill="#000001"/>
<path id="Vector_14" d="M16.0031 17.998H14.999V19.0021H16.0031V17.998Z" fill="#000001"/>
<path id="Vector_15" d="M14.9992 19.0022H14.0017V19.9997H14.9992V19.0022Z" fill="#000001"/>
<path id="Vector_16" d="M16.0031 14.999H12V16.0031H16.0031V14.999Z" fill="#000001"/>
<path id="Vector_17" d="M14.9992 9.00098H14.0017V9.99848H14.9992V9.00098Z" fill="#000001"/>
<path id="Vector_18" d="M14.0016 6.99931H16.0032V6.00181H17.0007V4.99774H16.0032V4.00024H14.0016V4.99774H13.0042V6.00181H14.0016V6.99931Z" fill="#000001"/>
<path id="Vector_19" d="M14.0016 19.9998H13.0042V20.9973H14.0016V19.9998Z" fill="#000001"/>
<path id="Vector_20" d="M14.0016 9.99854H13.0042V11.0026H14.0016V9.99854Z" fill="#000001"/>
<path id="Vector_21" d="M13.0041 11.0024H12V11.9999H13.0041V11.0024Z" fill="#000001"/>
<path id="Vector_22" d="M13.0042 20.9973H6.99951V22.0014H13.0042V20.9973Z" fill="#000001"/>
<path id="Vector_23" d="M11.9999 12H11.0024V14.9991H11.9999V12Z" fill="#000001"/>
<path id="Vector_24" d="M17.0007 1.99878H9.99854V3.00284H17.0007V1.99878Z" fill="#000001"/>
<path id="Vector_25" d="M11.0025 16.0032H9.00092V17.0007H8.00342V19.0022H9.00092V19.9997H11.0025V19.0022H12V17.0007H11.0025V16.0032Z" fill="#000001"/>
<path id="Vector_26" d="M9.99842 3.00293H8.00342V4.00043H9.99842V3.00293Z" fill="#000001"/>
<path id="Vector_27" d="M8.00357 9.99852H9.99857V9.00102H11.0026V6.99945H9.99857V6.00195H8.00357V6.99945H6.99951V9.00102H8.00357V9.99852Z" fill="#000001"/>
<path id="Vector_28" d="M5.00431 14.999H6.99931V14.0015H8.00337V11.9999H6.99931V11.0024H5.00431V11.9999H4.00024V14.0015H5.00431V14.999Z" fill="#000001"/>
<path id="Vector_29" d="M8.00352 4.00024H6.00195V4.99774H8.00352V4.00024Z" fill="#000001"/>
<path id="Vector_30" d="M6.99945 19.9998H6.00195V20.9973H6.99945V19.9998Z" fill="#000001"/>
<path id="Vector_31" d="M6.00181 19.0022H4.00024V19.9997H6.00181V19.0022Z" fill="#000001"/>
<path id="Vector_32" d="M6.00189 4.9978H5.00439V6.00187H6.00189V4.9978Z" fill="#000001"/>
<path id="Vector_33" d="M5.00431 6.00195H4.00024V8.00352H5.00431V6.00195Z" fill="#000001"/>
<path id="Vector_34" d="M4.00043 17.0007H3.00293V19.0023H4.00043V17.0007Z" fill="#000001"/>
<path id="Vector_35" d="M4.00043 8.00342H3.00293V9.99842H4.00043V8.00342Z" fill="#000001"/>
<path id="Vector_36" d="M3.00284 9.99854H1.99878V17.0007H3.00284V9.99854Z" fill="#000001"/>
</g>
</g>
</svg>
