<svg width="24" height="24" viewBox="0 0 24 24" fill="none" xmlns="http://www.w3.org/2000/svg">
<g id="design-vectors-pen-new-anchor">
<g id="Group">
<path id="Vector" d="M20.5017 9.49967H19.5042V8.49561H18.5001V9.49967H17.5026V10.4972H16.5051V11.5012H17.5026V12.4987H18.5001V13.4962H19.5042V12.4987H20.5017V11.5012H21.4992V10.4972H20.5017V9.49967Z" fill="#000001"/>
<path id="Vector_2" d="M17.5026 8.49561H16.5051V9.49967H17.5026V8.49561Z" fill="#000001"/>
<path id="Vector_3" d="M16.505 14.5002H15.501V18.4968H16.505V14.5002Z" fill="#000001"/>
<path id="Vector_4" d="M16.505 7.49805H15.501V8.49555H16.505V7.49805Z" fill="#000001"/>
<path id="Vector_5" d="M15.5012 18.4968H14.5037V19.5009H15.5012V18.4968Z" fill="#000001"/>
<path id="Vector_6" d="M15.5012 13.4963H14.5037V14.5004H15.5012V13.4963Z" fill="#000001"/>
<path id="Vector_7" d="M15.5012 6.50073H14.5037V7.49823H15.5012V6.50073Z" fill="#000001"/>
<path id="Vector_8" d="M14.5036 11.5012H13.4995V13.4962H14.5036V11.5012Z" fill="#000001"/>
<path id="Vector_9" d="M14.5036 5.49658H13.4995V6.50064H14.5036V5.49658Z" fill="#000001"/>
<path id="Vector_10" d="M14.5036 4.49906V3.50156H13.4995V2.4975H12.502V1.5H11.5045V2.4975H10.5004V3.50156H9.50293V4.49906H10.5004V5.49656H11.5045V6.50062H12.502V5.49656H13.4995V4.49906H14.5036Z" fill="#000001"/>
<path id="Vector_11" d="M9.50287 19.501V21.496H8.50537V22.5H15.501V21.496H14.5035V19.501H9.50287Z" fill="#000001"/>
<path id="Vector_12" d="M13.4995 9.49976H12.502V11.5013H13.4995V9.49976Z" fill="#000001"/>
<path id="Vector_13" d="M11.5045 14.5003H10.5004V15.4978H9.50293V16.4953H10.5004V17.4993H11.5045V18.4968H12.502V17.4993H13.4995V16.4953H14.5036V15.4978H13.4995V14.5003H12.502V11.5012H11.5045V14.5003Z" fill="#000001"/>
<path id="Vector_14" d="M12.5019 8.49561H11.5044V9.49967H12.5019V8.49561Z" fill="#000001"/>
<path id="Vector_15" d="M11.5046 9.49976H10.5005V11.5013H11.5046V9.49976Z" fill="#000001"/>
<path id="Vector_16" d="M10.5004 11.5012H9.50293V13.4962H10.5004V11.5012Z" fill="#000001"/>
<path id="Vector_17" d="M10.5004 5.49658H9.50293V6.50064H10.5004V5.49658Z" fill="#000001"/>
<path id="Vector_18" d="M9.50287 18.4968H8.50537V19.5009H9.50287V18.4968Z" fill="#000001"/>
<path id="Vector_19" d="M9.50287 13.4963H8.50537V14.5004H9.50287V13.4963Z" fill="#000001"/>
<path id="Vector_20" d="M9.50287 6.50073H8.50537V7.49823H9.50287V6.50073Z" fill="#000001"/>
<path id="Vector_21" d="M8.50553 14.5002H7.50146V18.4968H8.50553V14.5002Z" fill="#000001"/>
<path id="Vector_22" d="M8.50553 7.49805H7.50146V8.49555H8.50553V7.49805Z" fill="#000001"/>
<path id="Vector_23" d="M7.50141 8.49561H6.50391V9.49967H7.50141V8.49561Z" fill="#000001"/>
<path id="Vector_24" d="M5.49979 8.49561H4.50229V9.49967H3.50479V10.4972H2.50073V11.5012H3.50479V12.4987H4.50229V13.4962H5.49979V12.4987H6.50386V11.5012H7.50136V10.4972H6.50386V9.49967H5.49979V8.49561Z" fill="#000001"/>
</g>
</g>
</svg>
