<svg width="24" height="24" viewBox="0 0 24 24" fill="none" xmlns="http://www.w3.org/2000/svg">
<g id="design-layer">
<g id="Group">
<path id="Vector" d="M21.998 6.99951H21.0005V7.99701H21.998V6.99951Z" fill="#000001"/>
<path id="Vector_2" d="M21.0003 7.99683H18.9988V9.00089H21.0003V7.99683Z" fill="#000001"/>
<path id="Vector_3" d="M21.0003 6.00195H18.9988V6.99945H21.0003V6.00195Z" fill="#000001"/>
<path id="Vector_4" d="M16.9973 17.0006V17.9981H15.0023V19.0022H13.0007V19.9997H10.9991V19.0022H8.99758V17.9981H7.00258V17.0006H5.00102V15.9966H2.00195V17.0006H2.99945V17.9981H5.00102V19.0022H7.00258V19.9997H8.99758V20.9972H10.9991V22.0013H13.0007V20.9972H15.0023V19.9997H16.9973V19.0022H18.9988V17.9981H21.0004V17.0006H21.9979V15.9966H18.9988V17.0006H16.9973Z" fill="#000001"/>
<path id="Vector_5" d="M16.9973 14.0016V14.9991H15.0023V15.9966H13.0007V17.0007H10.9991V15.9966H8.99758V14.9991H7.00258V14.0016H5.00102V12.9976H2.00195V14.0016H2.99945V14.9991H5.00102V15.9966H7.00258V17.0007H8.99758V17.9982H10.9991V19.0022H13.0007V17.9982H15.0023V17.0007H16.9973V15.9966H18.9988V14.9991H21.0004V14.0016H21.9979V12.9976H18.9988V14.0016H16.9973Z" fill="#000001"/>
<path id="Vector_6" d="M16.9973 11.0026V12.0001H15.0023V12.9976H13.0007V14.0017H10.9991V12.9976H8.99758V12.0001H7.00258V11.0026H5.00102V9.99854H2.00195V11.0026H2.99945V12.0001H5.00102V12.9976H7.00258V14.0017H8.99758V14.9992H10.9991V15.9967H13.0007V14.9992H15.0023V14.0017H16.9973V12.9976H18.9988V12.0001H21.0004V11.0026H21.9979V9.99854H18.9988V11.0026H16.9973Z" fill="#000001"/>
<path id="Vector_7" d="M18.9989 9.00098H16.9973V9.99848H18.9989V9.00098Z" fill="#000001"/>
<path id="Vector_8" d="M18.9989 4.9978H16.9973V6.00187H18.9989V4.9978Z" fill="#000001"/>
<path id="Vector_9" d="M16.9972 9.99854H15.0022V11.0026H16.9972V9.99854Z" fill="#000001"/>
<path id="Vector_10" d="M16.9972 4.00024H15.0022V4.99774H16.9972V4.00024Z" fill="#000001"/>
<path id="Vector_11" d="M15.0023 11.0024H13.0007V11.9999H15.0023V11.0024Z" fill="#000001"/>
<path id="Vector_12" d="M15.0023 3.00293H13.0007V4.00043H15.0023V3.00293Z" fill="#000001"/>
<path id="Vector_13" d="M13.0006 12H10.999V12.9975H13.0006V12Z" fill="#000001"/>
<path id="Vector_14" d="M13.0006 1.99878H10.999V3.00284H13.0006V1.99878Z" fill="#000001"/>
<path id="Vector_15" d="M10.9991 11.0024H8.99756V11.9999H10.9991V11.0024Z" fill="#000001"/>
<path id="Vector_16" d="M10.9991 3.00293H8.99756V4.00043H10.9991V3.00293Z" fill="#000001"/>
<path id="Vector_17" d="M8.99769 9.99854H7.00269V11.0026H8.99769V9.99854Z" fill="#000001"/>
<path id="Vector_18" d="M8.99769 4.00024H7.00269V4.99774H8.99769V4.00024Z" fill="#000001"/>
<path id="Vector_19" d="M7.00254 9.00098H5.00098V9.99848H7.00254V9.00098Z" fill="#000001"/>
<path id="Vector_20" d="M7.00254 4.9978H5.00098V6.00187H7.00254V4.9978Z" fill="#000001"/>
<path id="Vector_21" d="M5.00107 7.99683H2.99951V9.00089H5.00107V7.99683Z" fill="#000001"/>
<path id="Vector_22" d="M5.00107 6.00195H2.99951V6.99945H5.00107V6.00195Z" fill="#000001"/>
<path id="Vector_23" d="M2.99945 6.99951H2.00195V7.99701H2.99945V6.99951Z" fill="#000001"/>
</g>
</g>
</svg>
