<svg width="24" height="24" viewBox="0 0 24 24" fill="none" xmlns="http://www.w3.org/2000/svg">
<g id="design-magic-wand">
<g id="Group">
<path id="Vector" d="M21.4991 8.49878H18.5V9.49628H21.4991V8.49878Z" fill="#000001"/>
<path id="Vector_2" d="M20.5016 13.4995H19.4976V14.497H20.5016V13.4995Z" fill="#000001"/>
<path id="Vector_3" d="M20.5016 3.49829H19.4976V4.49579H20.5016V3.49829Z" fill="#000001"/>
<path id="Vector_4" d="M19.4975 12.4954H18.5V13.4994H19.4975V12.4954Z" fill="#000001"/>
<path id="Vector_5" d="M19.4975 4.49585H18.5V5.49991H19.4975V4.49585Z" fill="#000001"/>
<path id="Vector_6" d="M18.5002 11.4978H17.5027V12.4953H18.5002V11.4978Z" fill="#000001"/>
<path id="Vector_7" d="M18.5002 5.49976H17.5027V6.49726H18.5002V5.49976Z" fill="#000001"/>
<path id="Vector_8" d="M12.5019 11.498H13.4994V12.4955H14.5034V11.498H15.5009V10.5005H16.4984V8.49896H15.5009V7.50146H13.4994V8.49896H12.5019V9.49646H11.4978V10.5005H12.5019V11.498Z" fill="#000001"/>
<path id="Vector_9" d="M15.5012 2.50073H14.5037V5.49979H15.5012V2.50073Z" fill="#000001"/>
<path id="Vector_10" d="M13.4995 12.4954H12.502V13.4994H13.4995V12.4954Z" fill="#000001"/>
<path id="Vector_11" d="M12.5019 13.4995H11.4978V14.497H12.5019V13.4995Z" fill="#000001"/>
<path id="Vector_12" d="M12.5019 5.49976H11.4978V6.49726H12.5019V5.49976Z" fill="#000001"/>
<path id="Vector_13" d="M11.498 14.4971H10.5005V15.5011H11.498V14.4971Z" fill="#000001"/>
<path id="Vector_14" d="M11.498 10.5005H10.5005V11.498H11.498V10.5005Z" fill="#000001"/>
<path id="Vector_15" d="M11.498 4.49585H10.5005V5.49991H11.498V4.49585Z" fill="#000001"/>
<path id="Vector_16" d="M10.5004 15.501H9.50293V16.4985H10.5004V15.501Z" fill="#000001"/>
<path id="Vector_17" d="M10.5004 11.4978H9.50293V12.4953H10.5004V11.4978Z" fill="#000001"/>
<path id="Vector_18" d="M10.5004 3.49829H9.50293V4.49579H10.5004V3.49829Z" fill="#000001"/>
<path id="Vector_19" d="M9.50284 16.4985H8.49878V17.496H9.50284V16.4985Z" fill="#000001"/>
<path id="Vector_20" d="M9.50284 12.4954H8.49878V13.4994H9.50284V12.4954Z" fill="#000001"/>
<path id="Vector_21" d="M8.49896 17.4961H7.50146V18.5002H8.49896V17.4961Z" fill="#000001"/>
<path id="Vector_22" d="M8.49896 13.4995H7.50146V14.497H8.49896V13.4995Z" fill="#000001"/>
<path id="Vector_23" d="M7.50141 18.5H6.50391V19.4975H7.50141V18.5Z" fill="#000001"/>
<path id="Vector_24" d="M7.50141 14.4971H6.50391V15.5011H7.50141V14.4971Z" fill="#000001"/>
<path id="Vector_25" d="M6.50382 19.4976H5.49976V20.4951H6.50382V19.4976Z" fill="#000001"/>
<path id="Vector_26" d="M6.50382 15.501H5.49976V16.4985H6.50382V15.501Z" fill="#000001"/>
<path id="Vector_27" d="M5.4997 16.4985H4.5022V17.496H5.4997V16.4985Z" fill="#000001"/>
<path id="Vector_28" d="M5.49985 20.4951H3.49829V21.4992H5.49985V20.4951Z" fill="#000001"/>
<path id="Vector_29" d="M4.50235 17.4961H3.49829V18.5002H4.50235V17.4961Z" fill="#000001"/>
<path id="Vector_30" d="M3.49823 18.5H2.50073V20.495H3.49823V18.5Z" fill="#000001"/>
</g>
</g>
</svg>
