<svg width="24" height="24" viewBox="0 0 24 24" fill="none" xmlns="http://www.w3.org/2000/svg">
<g id="ecology-wood-plant-grow">
<g id="Group">
<path id="Vector" d="M22.5001 20.9973H20.4985V22.0014H22.5001V20.9973Z" fill="#000001"/>
<path id="Vector_2" d="M21.5026 17.998H20.4985V19.0021H21.5026V17.998Z" fill="#000001"/>
<path id="Vector_3" d="M20.4985 19.9998H19.501V20.9973H20.4985V19.9998Z" fill="#000001"/>
<path id="Vector_4" d="M20.4983 17.9982V17.0007H19.5008V9.99854H18.4968V14.0017H17.4993V14.9992H18.4968V19.9998H19.5008V17.9982H20.4983Z" fill="#000001"/>
<path id="Vector_5" d="M18.4968 9.00098H17.4993V9.99848H18.4968V9.00098Z" fill="#000001"/>
<path id="Vector_6" d="M17.4995 11.0024H16.502V12.9974H17.4995V11.0024Z" fill="#000001"/>
<path id="Vector_7" d="M17.4994 7.99683H15.4978V9.00089H17.4994V7.99683Z" fill="#000001"/>
<path id="Vector_8" d="M17.4995 14.999H6.50073V15.9965H17.4995V14.999Z" fill="#000001"/>
<path id="Vector_9" d="M16.5019 9.99854H15.4978V11.0026H16.5019V9.99854Z" fill="#000001"/>
<path id="Vector_10" d="M16.5018 12.9976H7.49805V14.0016H16.5018V12.9976Z" fill="#000001"/>
<path id="Vector_11" d="M14.5004 20.9973H13.4963V22.0014H14.5004V20.9973Z" fill="#000001"/>
<path id="Vector_12" d="M14.5004 17.998H13.4963V19.9996H14.5004V17.998Z" fill="#000001"/>
<path id="Vector_13" d="M14.5003 11.0024H12.4988V11.9999H14.5003V11.0024Z" fill="#000001"/>
<path id="Vector_14" d="M11.5011 17.0007H10.4971V20.9973H11.5011V17.0007Z" fill="#000001"/>
<path id="Vector_15" d="M10.4973 20.9973H9.49976V22.0014H10.4973V20.9973Z" fill="#000001"/>
<path id="Vector_16" d="M10.4973 7.9969V12H11.5013V7.9969H14.5004V6.9994H15.4979V6.0019H16.5019V4.99784H17.4994V1.99878H13.4963V3.00284H12.4988V4.00034H11.5013V4.99784H10.4973V6.9994H9.49976V7.9969H10.4973ZM12.4988 4.99784H13.4963V4.00034H14.5004V3.00284H15.4979V4.00034H14.5004V4.99784H13.4963V6.0019H12.4988V4.99784Z" fill="#000001"/>
<path id="Vector_17" d="M9.49961 9.99854H7.49805V11.0026H9.49961V9.99854Z" fill="#000001"/>
<path id="Vector_18" d="M8.50211 17.998H7.49805V19.9996H8.50211V17.998Z" fill="#000001"/>
<path id="Vector_19" d="M8.5023 7.99683H6.50073V9.00089H8.5023V7.99683Z" fill="#000001"/>
<path id="Vector_20" d="M7.49823 11.0024H6.50073V12.9974H7.49823V11.0024Z" fill="#000001"/>
<path id="Vector_21" d="M5.49662 14.0017V9.99854H4.49912V17.9982H2.49756V19.0023H4.49912V19.9998H5.49662V14.9992H6.50068V14.0017H5.49662Z" fill="#000001"/>
<path id="Vector_22" d="M6.50064 9.00098H5.49658V9.99848H6.50064V9.00098Z" fill="#000001"/>
<path id="Vector_23" d="M5.49658 3.00293V6.00199H6.50064V6.99949H9.49971V4.99793H7.49814V4.00043H6.50064V3.00293H5.49658Z" fill="#000001"/>
<path id="Vector_24" d="M4.49896 19.9998H3.50146V20.9973H4.49896V19.9998Z" fill="#000001"/>
<path id="Vector_25" d="M3.50162 20.9973H2.49756V22.0014H3.50162V20.9973Z" fill="#000001"/>
<path id="Vector_26" d="M2.4975 17.0007H1.5V17.9982H2.4975V17.0007Z" fill="#000001"/>
</g>
</g>
</svg>
