<svg width="24" height="24" viewBox="0 0 24 24" fill="none" xmlns="http://www.w3.org/2000/svg">
<g id="ecology-growth-plant">
<g id="Group">
<path id="Vector" d="M21.5026 17.4993H22.5001V11.5012H21.5026V12.5053H20.4985V13.5028H21.5026V17.4993Z" fill="#000001"/>
<path id="Vector_2" d="M21.5026 17.4993H20.4985V18.5033H21.5026V17.4993Z" fill="#000001"/>
<path id="Vector_3" d="M20.4985 18.5034H19.501V19.5009H20.4985V18.5034Z" fill="#000001"/>
<path id="Vector_4" d="M20.4985 15.5044H19.501V16.5019H20.4985V15.5044Z" fill="#000001"/>
<path id="Vector_5" d="M19.5008 16.502H17.4993V17.4995H19.5008V16.502Z" fill="#000001"/>
<path id="Vector_6" d="M19.5008 19.501H17.4993V20.505H19.5008V19.501Z" fill="#000001"/>
<path id="Vector_7" d="M20.4985 13.5029H16.502V14.5004H20.4985V13.5029Z" fill="#000001"/>
<path id="Vector_8" d="M19.501 4.49906H20.4985V3.50156H21.5026V2.50406H20.4985V1.5H19.501V2.50406H18.5035V1.5H17.4995V2.50406H16.502V3.50156H17.4995V4.49906H18.5035V5.50312H19.501V4.49906Z" fill="#000001"/>
<path id="Vector_9" d="M17.4994 17.4993H15.4978V18.5033H17.4994V17.4993Z" fill="#000001"/>
<path id="Vector_10" d="M17.4995 20.5049H13.5029V21.5024H17.4995V20.5049Z" fill="#000001"/>
<path id="Vector_11" d="M16.5018 14.5002H14.5002V15.5043H16.5018V14.5002Z" fill="#000001"/>
<path id="Vector_12" d="M10.5037 14.5002V15.5043H7.49805V16.5018H10.5037V22.4999H11.5012V19.5008H12.4987V20.5049H13.5027V19.5008H15.4977V18.5033H12.4987V17.4993H11.5012V15.5043H12.4987V10.5037H11.5012V14.5002H10.5037Z" fill="#000001"/>
<path id="Vector_13" d="M14.5004 15.5044H13.5029V16.5019H14.5004V15.5044Z" fill="#000001"/>
<path id="Vector_14" d="M16.5019 12.5054V11.5014H17.4994V10.5039H18.5035V9.49979H19.501V7.50479H18.5035V6.50073H16.5019V7.50479H15.4978V6.50073H13.5028V7.50479H12.4988V9.49979H13.5028V10.5039H14.5003V11.5014H15.4978V12.5054H16.5019Z" fill="#000001"/>
<path id="Vector_15" d="M13.5028 16.502H12.4988V17.4995H13.5028V16.502Z" fill="#000001"/>
<path id="Vector_16" d="M11.5012 9.49976H10.5037V10.5038H11.5012V9.49976Z" fill="#000001"/>
<path id="Vector_17" d="M10.5038 12.5054H9.49976V14.5004H10.5038V12.5054Z" fill="#000001"/>
<path id="Vector_18" d="M10.5038 8.5022H9.49976V9.4997H10.5038V8.5022Z" fill="#000001"/>
<path id="Vector_19" d="M9.4997 11.5012H8.5022V12.5053H9.4997V11.5012Z" fill="#000001"/>
<path id="Vector_20" d="M8.5023 10.5037H6.50073V11.5012H8.5023V10.5037Z" fill="#000001"/>
<path id="Vector_21" d="M9.49961 7.50464H7.49805V8.50214H9.49961V7.50464Z" fill="#000001"/>
<path id="Vector_22" d="M7.49817 14.5002H5.50317V15.5043H7.49817V14.5002Z" fill="#000001"/>
<path id="Vector_23" d="M6.50067 9.49976H5.50317V10.5038H6.50067V9.49976Z" fill="#000001"/>
<path id="Vector_24" d="M5.50309 13.5029H4.49902V14.5004H5.50309V13.5029Z" fill="#000001"/>
<path id="Vector_25" d="M5.50309 8.5022H4.49902V9.4997H5.50309V8.5022Z" fill="#000001"/>
<path id="Vector_26" d="M7.49809 6.50073H4.49902V7.50479H7.49809V6.50073Z" fill="#000001"/>
<path id="Vector_27" d="M4.49896 11.5012H3.50146V13.5028H4.49896V11.5012Z" fill="#000001"/>
<path id="Vector_28" d="M4.49896 5.50317H3.50146V6.50067H4.49896V5.50317Z" fill="#000001"/>
<path id="Vector_29" d="M3.50162 9.49976H2.49756V11.5013H3.50162V9.49976Z" fill="#000001"/>
<path id="Vector_30" d="M2.4975 5.50309H3.50156V4.49902H1.5V9.49965H2.4975V5.50309Z" fill="#000001"/>
</g>
</g>
</svg>
