<svg width="24" height="24" viewBox="0 0 24 24" fill="none" xmlns="http://www.w3.org/2000/svg">
<g id="ecology-solar-cell">
<g id="Group">
<path id="Vector" d="M22.4999 11.5012H21.5024V16.5018H22.4999V11.5012Z" fill="#000001"/>
<path id="Vector_2" d="M21.5026 8.5022H20.4985V11.5013H21.5026V8.5022Z" fill="#000001"/>
<path id="Vector_3" d="M2.49756 16.502V17.4995H9.49975V19.501H6.50068V20.5051H10.5038V17.4995H13.5029V20.5051H17.4994V19.501H14.5004V17.4995H21.5026V16.502H2.49756Z" fill="#000001"/>
<path id="Vector_4" d="M20.4985 5.50317H19.501V8.50224H20.4985V5.50317Z" fill="#000001"/>
<path id="Vector_5" d="M19.501 10.5037H16.502V13.5027H17.4995V15.5043H20.4985V12.5052H19.501V10.5037Z" fill="#000001"/>
<path id="Vector_6" d="M19.5009 3.50146H18.5034V5.50303H19.5009V3.50146Z" fill="#000001"/>
<path id="Vector_7" d="M18.5033 2.50415H17.4993V3.50165H18.5033V2.50415Z" fill="#000001"/>
<path id="Vector_8" d="M6.50067 21.5024V20.5049H5.50317V22.4999H18.5035V20.5049H17.4994V21.5024H6.50067Z" fill="#000001"/>
<path id="Vector_9" d="M18.5034 6.50073H15.4978V9.49979H18.5034V6.50073Z" fill="#000001"/>
<path id="Vector_10" d="M17.4993 3.50146H14.5002V5.50303H17.4993V3.50146Z" fill="#000001"/>
<path id="Vector_11" d="M15.4977 10.5037H8.50211V13.5027H7.49805V15.5043H16.5018V13.5027H15.4977V10.5037ZM9.49961 11.5012H10.5037V12.5052H9.49961V11.5012ZM13.5027 14.5002H10.5037V13.5027H13.5027V14.5002ZM14.5002 12.5052H13.5027V11.5012H14.5002V12.5052Z" fill="#000001"/>
<path id="Vector_12" d="M13.5027 3.50146H10.5037V5.50303H13.5027V3.50146Z" fill="#000001"/>
<path id="Vector_13" d="M14.5004 6.50073H9.49976V9.49979H14.5004V6.50073Z" fill="#000001"/>
<path id="Vector_14" d="M17.4995 1.5H6.50073V2.50406H17.4995V1.5Z" fill="#000001"/>
<path id="Vector_15" d="M7.49803 10.5037H4.49896V12.5052H3.50146V15.5043H6.50053V13.5027H7.49803V10.5037Z" fill="#000001"/>
<path id="Vector_16" d="M8.50224 6.50073H5.50317V9.49979H8.50224V6.50073Z" fill="#000001"/>
<path id="Vector_17" d="M9.49979 3.50146H6.50073V5.50303H9.49979V3.50146Z" fill="#000001"/>
<path id="Vector_18" d="M6.50067 2.50415H5.50317V3.50165H6.50067V2.50415Z" fill="#000001"/>
<path id="Vector_19" d="M5.50309 3.50146H4.49902V5.50303H5.50309V3.50146Z" fill="#000001"/>
<path id="Vector_20" d="M4.49896 5.50317H3.50146V8.50224H4.49896V5.50317Z" fill="#000001"/>
<path id="Vector_21" d="M3.50162 8.5022H2.49756V11.5013H3.50162V8.5022Z" fill="#000001"/>
<path id="Vector_22" d="M2.4975 11.5012H1.5V16.5018H2.4975V11.5012Z" fill="#000001"/>
</g>
</g>
</svg>
