<svg width="24" height="24" viewBox="0 0 24 24" fill="none" xmlns="http://www.w3.org/2000/svg">
<g id="ecology-clean-battery">
<g id="Group">
<path id="Vector" d="M20.4985 8.99756V10.0016H21.5026V13.9982H22.5001V8.99756H20.4985Z" fill="#000001"/>
<path id="Vector_2" d="M21.5026 13.9983H20.4985V15.9999H21.5026V13.9983Z" fill="#000001"/>
<path id="Vector_3" d="M20.4985 15.9998H19.501V18.0013H20.4985V15.9998Z" fill="#000001"/>
<path id="Vector_4" d="M20.4985 10.0017H19.501V10.9992H20.4985V10.0017Z" fill="#000001"/>
<path id="Vector_5" d="M19.5009 18.0012H18.5034V18.9987H19.5009V18.0012Z" fill="#000001"/>
<path id="Vector_6" d="M19.5009 13.0007H18.5034V13.9982H19.5009V13.0007Z" fill="#000001"/>
<path id="Vector_7" d="M18.5033 13.9983H17.4993V15.0024H18.5033V13.9983Z" fill="#000001"/>
<path id="Vector_8" d="M19.501 10.999H16.502V12.0031H19.501V10.999Z" fill="#000001"/>
<path id="Vector_9" d="M18.5035 18.9988H16.502V20.0028H18.5035V18.9988Z" fill="#000001"/>
<path id="Vector_10" d="M17.4994 15.0022H15.4978V15.9997H17.4994V15.0022Z" fill="#000001"/>
<path id="Vector_11" d="M16.5018 12.0032H14.5002V13.0007H16.5018V12.0032Z" fill="#000001"/>
<path id="Vector_12" d="M13.5028 20.0028V18.9988H11.5012V20.0028H12.4987V21.9978H13.5028V21.0003H16.5018V20.0028H13.5028Z" fill="#000001"/>
<path id="Vector_13" d="M15.4977 15.9998H14.5002V16.9973H15.4977V15.9998Z" fill="#000001"/>
<path id="Vector_14" d="M14.5004 16.9973H13.5029V18.9989H14.5004V16.9973Z" fill="#000001"/>
<path id="Vector_15" d="M14.5004 13.0007H13.5029V13.9982H14.5004V13.0007Z" fill="#000001"/>
<path id="Vector_16" d="M13.5028 13.9983H12.4988V15.0024H13.5028V13.9983Z" fill="#000001"/>
<path id="Vector_17" d="M12.4987 15.0022H11.5012V15.9997H12.4987V15.0022Z" fill="#000001"/>
<path id="Vector_18" d="M11.5012 15.9998H10.5037V18.9988H11.5012V15.9998Z" fill="#000001"/>
<path id="Vector_19" d="M11.5012 10.0017H3.50146V12.0033H11.5012V10.0017Z" fill="#000001"/>
<path id="Vector_20" d="M11.5012 7.00269H3.50146V8.00019H11.5012V7.00269Z" fill="#000001"/>
<path id="Vector_21" d="M10.5037 13.9982H11.5012V13.0007H3.50146V15.0023H10.5037V13.9982Z" fill="#000001"/>
<path id="Vector_22" d="M10.5038 21.0004H2.4975V5.00102H5.50312V2.99945H9.49969V5.00102H12.4988V12.0032H13.5028V3.99695H10.5038V2.00195H4.49906V3.99695H1.5V21.9979H10.5038V21.0004Z" fill="#000001"/>
<path id="Vector_23" d="M9.49959 15.9998H3.50146V18.9988H9.49959V15.9998Z" fill="#000001"/>
</g>
</g>
</svg>
