<svg width="24" height="24" viewBox="0 0 24 24" fill="none" xmlns="http://www.w3.org/2000/svg">
<g id="ecology-nuclear-energy">
<g id="Group">
<path id="Vector" d="M22.0014 8.99756H20.9973V15.0022H22.0014V8.99756Z" fill="#000001"/>
<path id="Vector_2" d="M20.9973 15.0022H19.9998V16.9972H20.9973V15.0022Z" fill="#000001"/>
<path id="Vector_3" d="M20.9973 7.00269H19.9998V8.99769H20.9973V7.00269Z" fill="#000001"/>
<path id="Vector_4" d="M19.9997 16.9973H19.0022V18.9989H19.9997V16.9973Z" fill="#000001"/>
<path id="Vector_5" d="M19.9997 5.00098H19.0022V7.00254H19.9997V5.00098Z" fill="#000001"/>
<path id="Vector_6" d="M19.0023 18.9988H17.0007V20.0028H19.0023V18.9988Z" fill="#000001"/>
<path id="Vector_7" d="M17.9983 7.0026H17.0008V5.99854H15.9967V7.0026H14.9992V8.0001H14.0017V10.0017H14.9992V12.0032H19.0023V8.0001H17.9983V7.0026Z" fill="#000001"/>
<path id="Vector_8" d="M19.0023 3.99707H17.0007V5.00113H19.0023V3.99707Z" fill="#000001"/>
<path id="Vector_9" d="M17.0006 20.0029H14.999V21.0004H17.0006V20.0029Z" fill="#000001"/>
<path id="Vector_10" d="M17.0006 2.99951H14.999V3.99701H17.0006V2.99951Z" fill="#000001"/>
<path id="Vector_11" d="M14.999 15.9997H14.0015V15.0022H9.99839V15.9997H9.00089V16.9972H7.99683V18.0013H9.00089V18.9988H14.999V18.0013H15.9965V16.9972H14.999V15.9997Z" fill="#000001"/>
<path id="Vector_12" d="M14.9991 21.0005H9.00098V21.998H14.9991V21.0005Z" fill="#000001"/>
<path id="Vector_13" d="M9.99854 13.0008H11.0026V13.9983H12.9976V13.0008H14.0017V10.9992H12.9976V10.0017H11.0026V10.9992H9.99854V13.0008Z" fill="#000001"/>
<path id="Vector_14" d="M14.9991 2.00195H9.00098V2.99945H14.9991V2.00195Z" fill="#000001"/>
<path id="Vector_15" d="M9.00107 20.0029H6.99951V21.0004H9.00107V20.0029Z" fill="#000001"/>
<path id="Vector_16" d="M9.00093 10.0017H9.99843V8.0001H9.00093V7.0026H7.99687V5.99854H6.99937V7.0026H6.00187V8.0001H4.9978V12.0032H9.00093V10.0017Z" fill="#000001"/>
<path id="Vector_17" d="M9.00107 2.99951H6.99951V3.99701H9.00107V2.99951Z" fill="#000001"/>
<path id="Vector_18" d="M6.99937 18.9988H4.9978V20.0028H6.99937V18.9988Z" fill="#000001"/>
<path id="Vector_19" d="M6.99937 3.99707H4.9978V5.00113H6.99937V3.99707Z" fill="#000001"/>
<path id="Vector_20" d="M4.99774 16.9973H4.00024V18.9989H4.99774V16.9973Z" fill="#000001"/>
<path id="Vector_21" d="M4.99774 5.00098H4.00024V7.00254H4.99774V5.00098Z" fill="#000001"/>
<path id="Vector_22" d="M4.0004 15.0022H2.99634V16.9972H4.0004V15.0022Z" fill="#000001"/>
<path id="Vector_23" d="M4.0004 7.00269H2.99634V8.99769H4.0004V7.00269Z" fill="#000001"/>
<path id="Vector_24" d="M2.99628 8.99756H1.99878V15.0022H2.99628V8.99756Z" fill="#000001"/>
</g>
</g>
</svg>
