<svg width="24" height="24" viewBox="0 0 24 24" fill="none" xmlns="http://www.w3.org/2000/svg">
<g id="ecology-windmill-2">
<g id="Group">
<path id="Vector" d="M22.0012 4.49902H21.0037V6.50059H22.0012V4.49902Z" fill="#000001"/>
<path id="Vector_2" d="M21.0038 3.50146H19.9998V4.49896H21.0038V3.50146Z" fill="#000001"/>
<path id="Vector_3" d="M19.9997 20.5049H19.0022V22.4999H19.9997V20.5049Z" fill="#000001"/>
<path id="Vector_4" d="M5.0044 17.4993H6.0019V16.5018H9.00097V13.5027H11.0025V22.4999H14.9991V15.5043H12V13.5027H17.0007V17.4993H18.0047V13.5027H21.0038V9.49959H14.0016V12.5052H12V3.50146H8.00347V10.5037H11.0025V12.5052H6.9994V5.50303H6.0019V6.50053H5.0044V7.50459H4.00034V8.50209H6.0019V12.5052H1.99878V16.5018H5.0044V17.4993ZM19.0022 10.5037H19.9997V12.5052H19.0022V10.5037ZM17.0007 10.5037H18.0047V12.5052H17.0007V10.5037ZM14.9991 10.5037H16.0032V12.5052H14.9991V10.5037ZM12 16.5018H14.0016V17.4993H12V16.5018ZM12 18.5033H14.0016V19.5008H12V18.5033ZM12 20.5049H14.0016V21.5024H12V20.5049ZM9.00097 4.49896H11.0025V5.50303H9.00097V4.49896ZM9.00097 6.50053H11.0025V7.50459H9.00097V6.50053ZM9.00097 9.49959V8.50209H11.0025V9.49959H9.00097ZM6.9994 13.5027H8.00347V15.5043H6.9994V13.5027ZM4.00034 15.5043H3.00284V13.5027H4.00034V15.5043ZM5.0044 13.5027H6.0019V15.5043H5.0044V13.5027Z" fill="#000001"/>
<path id="Vector_5" d="M19.9997 5.50317H19.0022V6.50067H19.9997V5.50317Z" fill="#000001"/>
<path id="Vector_6" d="M19.9996 2.50415H18.0046V3.50165H19.9996V2.50415Z" fill="#000001"/>
<path id="Vector_7" d="M19.0021 17.4993H18.0046V20.5049H19.0021V17.4993Z" fill="#000001"/>
<path id="Vector_8" d="M19.0021 4.49902H18.0046V5.50309H19.0021V4.49902Z" fill="#000001"/>
<path id="Vector_9" d="M13.0042 8.50219H19.0023V7.50469H18.0048V6.50062H17.0008V5.50312H16.0033V4.49906H14.9992V3.50156H14.0017V2.50406H13.0042V1.5H10.0051V2.50406H12.0001V3.50156H13.0042V8.50219Z" fill="#000001"/>
<path id="Vector_10" d="M6.00189 3.50146H5.00439V4.49896H6.00189V3.50146Z" fill="#000001"/>
<path id="Vector_11" d="M6.00181 1.5H4.00024V2.50406H6.00181V1.5Z" fill="#000001"/>
<path id="Vector_12" d="M5.00431 17.4993H4.00024V20.5049H5.00431V17.4993Z" fill="#000001"/>
<path id="Vector_13" d="M5.00431 4.49902H4.00024V5.50309H5.00431V4.49902Z" fill="#000001"/>
<path id="Vector_14" d="M4.00043 20.5049H3.00293V22.4999H4.00043V20.5049Z" fill="#000001"/>
<path id="Vector_15" d="M4.00043 2.50415H3.00293V3.50165H4.00043V2.50415Z" fill="#000001"/>
<path id="Vector_16" d="M3.00284 3.50146H1.99878V5.50303H3.00284V3.50146Z" fill="#000001"/>
</g>
</g>
</svg>
