<svg width="24" height="24" viewBox="0 0 24 24" fill="none" xmlns="http://www.w3.org/2000/svg">
<g id="ecology-global-warming-globe-fire">
<g id="Group">
<path id="Vector" d="M22.4999 8.5022H21.5024V9.4997H22.4999V8.5022Z" fill="#000001"/>
<path id="Vector_2" d="M21.5025 7.50469V5.50312H22.5V4.49906H20.4984V5.50312H19.5009V6.50062H18.5034V7.50469H17.4994V4.49906H16.5019V2.50406H15.4978V4.49906H14.5003V6.50062H13.5028V5.50312H12.4988V3.50156H13.5028V1.5H11.5012V2.50406H10.5038V3.50156H9.49969V5.50312H8.50219V6.50062H7.49813V4.49906H6.50062V3.50156H5.50312V2.50406H3.50156V3.50156H4.49906V6.50062H3.50156V8.50219H4.49906V9.49969H2.4975V8.50219H1.5V11.5012H2.4975V13.5028H3.50156V12.5053H4.49906V10.5038H5.50312V6.50062H6.50062V7.50469H7.49813V8.50219H9.49969V7.50469H10.5038V5.50312H11.5012V7.50469H15.4978V6.50062H16.5019V9.49969H18.5034V12.5053H19.5009V14.5003H20.4984V12.5053H21.5025V9.49969H20.4984V7.50469H21.5025Z" fill="#000001"/>
<path id="Vector_3" d="M20.4985 2.50415H19.501V3.50165H20.4985V2.50415Z" fill="#000001"/>
<path id="Vector_4" d="M19.5009 3.50146H18.5034V4.49896H19.5009V3.50146Z" fill="#000001"/>
<path id="Vector_5" d="M18.5033 1.5H17.4993V2.50406H18.5033V1.5Z" fill="#000001"/>
<path id="Vector_6" d="M17.4995 17.4993H16.502V19.5008H17.4995V17.4993Z" fill="#000001"/>
<path id="Vector_7" d="M16.502 14.5003H17.4995V17.4993H18.5035V13.5028H17.4995V11.5012H16.502V14.5003Z" fill="#000001"/>
<path id="Vector_8" d="M16.5019 19.501H15.4978V20.505H16.5019V19.501Z" fill="#000001"/>
<path id="Vector_9" d="M16.5019 14.5002H15.4978V15.5043H16.5019V14.5002Z" fill="#000001"/>
<path id="Vector_10" d="M16.5019 10.5037H15.4978V11.5012H16.5019V10.5037Z" fill="#000001"/>
<path id="Vector_11" d="M15.4977 17.4993H14.5002V19.5008H15.4977V17.4993Z" fill="#000001"/>
<path id="Vector_12" d="M15.4977 13.5029H14.5002V14.5004H15.4977V13.5029Z" fill="#000001"/>
<path id="Vector_13" d="M15.4979 20.5049H13.5029V21.5024H15.4979V20.5049Z" fill="#000001"/>
<path id="Vector_14" d="M14.5004 16.502H13.5029V17.4995H14.5004V16.502Z" fill="#000001"/>
<path id="Vector_15" d="M14.5004 12.5054H13.5029V13.5029H14.5004V12.5054Z" fill="#000001"/>
<path id="Vector_16" d="M15.4979 9.49976H13.5029V10.5038H15.4979V9.49976Z" fill="#000001"/>
<path id="Vector_17" d="M13.5028 15.5044H11.5012V16.5019H13.5028V15.5044Z" fill="#000001"/>
<path id="Vector_18" d="M13.5028 10.5037H12.4988V12.5052H13.5028V10.5037Z" fill="#000001"/>
<path id="Vector_19" d="M11.5013 19.501H10.5038V21.5025H9.49976V22.5H13.5029V21.5025H11.5013V19.501Z" fill="#000001"/>
<path id="Vector_20" d="M12.4987 17.4993H11.5012V19.5008H12.4987V17.4993Z" fill="#000001"/>
<path id="Vector_21" d="M11.5012 16.502H10.5037V17.4995H11.5012V16.502Z" fill="#000001"/>
<path id="Vector_22" d="M10.5038 12.5054H9.49976V14.5004H10.5038V12.5054Z" fill="#000001"/>
<path id="Vector_23" d="M9.49961 20.5049H7.49805V21.5024H9.49961V20.5049Z" fill="#000001"/>
<path id="Vector_24" d="M9.4997 14.5002H8.5022V15.5043H9.4997V14.5002Z" fill="#000001"/>
<path id="Vector_25" d="M9.4997 11.5012H8.5022V12.5053H9.4997V11.5012Z" fill="#000001"/>
<path id="Vector_26" d="M7.49805 9.4997V10.5038H9.49961V11.5013H10.5037V9.4997H13.5027V8.5022H9.49961V9.4997H7.49805Z" fill="#000001"/>
<path id="Vector_27" d="M8.50211 15.5044H7.49805V16.5019H8.50211V15.5044Z" fill="#000001"/>
<path id="Vector_28" d="M8.50211 2.50415H7.49805V3.50165H8.50211V2.50415Z" fill="#000001"/>
<path id="Vector_29" d="M7.49823 19.501H6.50073V20.505H7.49823V19.501Z" fill="#000001"/>
<path id="Vector_30" d="M7.49823 14.5002H6.50073V15.5043H7.49823V14.5002Z" fill="#000001"/>
<path id="Vector_31" d="M7.49823 10.5037H6.50073V11.5012H7.49823V10.5037Z" fill="#000001"/>
<path id="Vector_32" d="M7.49823 1.5H6.50073V2.50406H7.49823V1.5Z" fill="#000001"/>
<path id="Vector_33" d="M6.50067 17.4993H5.50317V19.5008H6.50067V17.4993Z" fill="#000001"/>
<path id="Vector_34" d="M5.50309 14.5003H6.50059V11.5012H5.50309V13.5028H4.49902V17.4993H5.50309V14.5003Z" fill="#000001"/>
<path id="Vector_35" d="M3.50162 4.49902H2.49756V5.50309H3.50162V4.49902Z" fill="#000001"/>
<path id="Vector_36" d="M2.4975 3.50146H1.5V4.49896H2.4975V3.50146Z" fill="#000001"/>
</g>
</g>
</svg>
