<svg width="24" height="24" viewBox="0 0 24 24" fill="none" xmlns="http://www.w3.org/2000/svg">
<g id="ecology-organic-sun-growth">
<g id="Group">
<path id="Vector" d="M21.5025 20.505H17.4994V18.5034H19.5009V17.4994H17.4994V16.5019H18.5034V15.5044H17.4994V13.5028H19.5009V12.5053H17.4994V11.5013H16.5019V12.5053H14.5003V13.5028H16.5019V15.5044H15.4978V16.5019H16.5019V17.4994H14.5003V18.5034H16.5019V20.505H7.49813V18.5034H9.49969V17.4994H7.49813V16.5019H8.50219V15.5044H7.49813V13.5028H9.49969V12.5053H7.49813V11.5013H8.50219V10.5038H7.49813V8.5022H6.50062V10.5038H5.50312V11.5013H6.50062V12.5053H4.49906V13.5028H6.50062V15.5044H5.50312V16.5019H6.50062V17.4994H4.49906V18.5034H6.50062V20.505H2.4975V21.5025H1.5V22.5H22.5V21.5025H21.5025V20.505Z" fill="#000001"/>
<path id="Vector_2" d="M19.5009 17.4993H20.4984V14.5002H18.5034V15.5043H19.5009V17.4993Z" fill="#000001"/>
<path id="Vector_3" d="M19.5009 12.5054H20.4984V9.49976H18.5034V10.5038H19.5009V12.5054Z" fill="#000001"/>
<path id="Vector_4" d="M20.4985 4.49902H19.501V5.50309H20.4985V4.49902Z" fill="#000001"/>
<path id="Vector_5" d="M19.5009 6.50073H18.5034V7.50479H19.5009V6.50073Z" fill="#000001"/>
<path id="Vector_6" d="M19.5009 2.50415H18.5034V3.50165H19.5009V2.50415Z" fill="#000001"/>
<path id="Vector_7" d="M18.5033 10.5037H17.4993V11.5012H18.5033V10.5037Z" fill="#000001"/>
<path id="Vector_8" d="M17.4995 7.50464H16.502V8.50214H17.4995V7.50464Z" fill="#000001"/>
<path id="Vector_9" d="M17.4995 1.5H16.502V2.50406H17.4995V1.5Z" fill="#000001"/>
<path id="Vector_10" d="M16.5019 10.5037H15.4978V11.5012H16.5019V10.5037Z" fill="#000001"/>
<path id="Vector_11" d="M18.5034 3.50146H15.4978V6.50053H18.5034V3.50146Z" fill="#000001"/>
<path id="Vector_12" d="M15.4977 6.50073H14.5002V7.50479H15.4977V6.50073Z" fill="#000001"/>
<path id="Vector_13" d="M15.4977 2.50415H14.5002V3.50165H15.4977V2.50415Z" fill="#000001"/>
<path id="Vector_14" d="M15.4979 15.5043V14.5002H13.5029V17.4993H14.5004V15.5043H15.4979Z" fill="#000001"/>
<path id="Vector_15" d="M15.4979 10.5038V9.49976H13.5029V12.5054H14.5004V10.5038H15.4979Z" fill="#000001"/>
<path id="Vector_16" d="M14.5004 4.49902H13.5029V5.50309H14.5004V4.49902Z" fill="#000001"/>
<path id="Vector_17" d="M9.4997 17.4993H10.5038V14.5002H8.5022V15.5043H9.4997V17.4993Z" fill="#000001"/>
<path id="Vector_18" d="M9.4997 12.5054H10.5038V9.49976H8.5022V10.5038H9.4997V12.5054Z" fill="#000001"/>
<path id="Vector_19" d="M9.4997 6.50073H8.5022V7.50479H9.4997V6.50073Z" fill="#000001"/>
<path id="Vector_20" d="M8.50211 7.50464H7.49805V8.50214H8.50211V7.50464Z" fill="#000001"/>
<path id="Vector_21" d="M6.50067 7.50464H5.50317V8.50214H6.50067V7.50464Z" fill="#000001"/>
<path id="Vector_22" d="M5.50309 6.50073H4.49902V7.50479H5.50309V6.50073Z" fill="#000001"/>
<path id="Vector_23" d="M5.50303 15.5043V14.5002H3.50146V17.4993H4.49896V15.5043H5.50303Z" fill="#000001"/>
<path id="Vector_24" d="M5.50303 10.5038V9.49976H3.50146V12.5054H4.49896V10.5038H5.50303Z" fill="#000001"/>
</g>
</g>
</svg>
