<svg width="24" height="24" viewBox="0 0 24 24" fill="none" xmlns="http://www.w3.org/2000/svg">
<g id="ecology-clean-car-cable-charge">
<g id="Group">
<path id="Vector" d="M22.4999 12.5054H21.5024V17.4994H22.4999V12.5054Z" fill="#000001"/>
<path id="Vector_2" d="M21.5024 1.5H20.4983V3.50156H19.5008V1.5H18.5033V3.50156H17.4993V7.50469H18.5033V8.50219H19.5008V11.5012H20.4983V8.50219H21.5024V7.50469H22.4999V3.50156H21.5024V1.5ZM21.5024 6.50062H20.4983V5.50312H19.5008V4.49906H21.5024V6.50062Z" fill="#000001"/>
<path id="Vector_3" d="M21.5026 11.5012H20.4985V12.5053H21.5026V11.5012Z" fill="#000001"/>
<path id="Vector_4" d="M20.4985 15.5044H19.501V20.505H20.4985V18.5035H21.5025V17.4994H20.4985V15.5044Z" fill="#000001"/>
<path id="Vector_5" d="M18.5033 19.501H17.4993V21.5025H19.5008V20.505H18.5033V19.501Z" fill="#000001"/>
<path id="Vector_6" d="M18.5033 11.5012H17.4993V13.5028H18.5033V11.5012Z" fill="#000001"/>
<path id="Vector_7" d="M17.4994 18.5034H15.4978V19.5009H17.4994V18.5034Z" fill="#000001"/>
<path id="Vector_8" d="M17.4995 10.5037H16.502V11.5012H17.4995V10.5037Z" fill="#000001"/>
<path id="Vector_9" d="M17.4994 21.5024H15.4978V22.4999H17.4994V21.5024Z" fill="#000001"/>
<path id="Vector_10" d="M14.5002 19.501V20.505H8.50211V19.501H7.49805V21.5025H15.4977V19.501H14.5002Z" fill="#000001"/>
<path id="Vector_11" d="M11.5013 16.502H9.49976V17.4995H11.5013V16.502Z" fill="#000001"/>
<path id="Vector_12" d="M9.4997 10.5037H8.5022V11.5012H9.4997V10.5037Z" fill="#000001"/>
<path id="Vector_13" d="M8.50211 11.5012H7.49805V13.5028H8.50211V11.5012Z" fill="#000001"/>
<path id="Vector_14" d="M7.49817 18.5034H5.50317V19.5009H7.49817V18.5034Z" fill="#000001"/>
<path id="Vector_15" d="M7.49817 21.5024H5.50317V22.4999H7.49817V21.5024Z" fill="#000001"/>
<path id="Vector_16" d="M19.5009 15.5044V13.5029H18.5034V14.5004H13.5028V10.5038H16.5018V9.49976H9.49965V10.5038H12.4987V14.5004H7.49809V13.5029H6.50059V14.5004H4.49902V15.5044H19.5009Z" fill="#000001"/>
<path id="Vector_17" d="M4.49912 19.501V20.505H2.49756V21.5025H5.50318V19.501H4.49912Z" fill="#000001"/>
<path id="Vector_18" d="M4.49912 15.5044H2.49756V16.5019H4.49912V15.5044Z" fill="#000001"/>
<path id="Vector_19" d="M2.4975 16.502H1.5V20.5051H2.4975V16.502Z" fill="#000001"/>
</g>
</g>
</svg>
