<svg width="24" height="24" viewBox="0 0 24 24" fill="none" xmlns="http://www.w3.org/2000/svg">
<g id="ecology-gmo-food-fruit">
<g id="Group">
<path id="Vector" d="M22.4999 3.99707H21.5024V5.00113H22.4999V3.99707Z" fill="#000001"/>
<path id="Vector_2" d="M21.5026 8.99756H20.4985V10.0016H21.5026V8.99756Z" fill="#000001"/>
<path id="Vector_3" d="M21.5026 2.99951H20.4985V3.99701H21.5026V2.99951Z" fill="#000001"/>
<path id="Vector_4" d="M20.4985 3.99707H19.501V5.00113H20.4985V3.99707Z" fill="#000001"/>
<path id="Vector_5" d="M20.4985 2.00195H19.501V2.99945H20.4985V2.00195Z" fill="#000001"/>
<path id="Vector_6" d="M20.4984 8.99769V8.00019H19.5009V7.00269H18.5034V8.99769H20.4984Z" fill="#000001"/>
<path id="Vector_7" d="M19.5009 5.00098H18.5034V5.99848H19.5009V5.00098Z" fill="#000001"/>
<path id="Vector_8" d="M18.5033 8.99756H17.4993V10.0016H18.5033V8.99756Z" fill="#000001"/>
<path id="Vector_9" d="M18.5033 5.99854H17.4993V7.0026H18.5033V5.99854Z" fill="#000001"/>
<path id="Vector_10" d="M17.4995 13.0007H16.502V18.0014H17.4995V13.0007Z" fill="#000001"/>
<path id="Vector_11" d="M17.4994 5.00113H16.5019V3.99707H15.4978V5.99863H17.4994V5.00113Z" fill="#000001"/>
<path id="Vector_12" d="M16.5019 18.0012H15.4978V18.9987H16.5019V18.0012Z" fill="#000001"/>
<path id="Vector_13" d="M15.4977 8.99769H14.5002V10.0017H13.5027V10.9992H12.4987V13.0008H11.5012V10.9992H12.4987V10.0017H13.5027V8.99769H14.5002V7.00269H13.5027V8.00019H12.4987V8.99769H11.5012V10.0017H10.5037V13.9983H14.5002V13.0008H15.4977V12.0033H16.5018V10.9992H17.4993V10.0017H15.4977V8.99769Z" fill="#000001"/>
<path id="Vector_14" d="M15.4977 18.9988H14.5002V20.0028H15.4977V18.9988Z" fill="#000001"/>
<path id="Vector_15" d="M15.4977 5.99854H14.5002V7.0026H15.4977V5.99854Z" fill="#000001"/>
<path id="Vector_16" d="M15.4977 2.99951H14.5002V3.99701H15.4977V2.99951Z" fill="#000001"/>
<path id="Vector_17" d="M14.5003 20.0029H12.4988V21.0004H14.5003V20.0029Z" fill="#000001"/>
<path id="Vector_18" d="M12.4989 21.0005H6.50073V21.998H12.4989V21.0005Z" fill="#000001"/>
<path id="Vector_19" d="M10.5037 8.00004V5.00098H9.49961V8.00004H7.49805V8.99754H11.5012V8.00004H10.5037Z" fill="#000001"/>
<path id="Vector_20" d="M10.5038 13.9983H9.49976V15.0024H10.5038V13.9983Z" fill="#000001"/>
<path id="Vector_21" d="M9.4997 15.0022H8.5022V15.9997H9.4997V15.0022Z" fill="#000001"/>
<path id="Vector_22" d="M9.4997 10.999H8.5022V12.0031H9.4997V10.999Z" fill="#000001"/>
<path id="Vector_23" d="M9.49979 3.99707H6.50073V5.00113H9.49979V3.99707Z" fill="#000001"/>
<path id="Vector_24" d="M8.50211 15.9998H7.49805V16.9973H8.50211V15.9998Z" fill="#000001"/>
<path id="Vector_25" d="M8.50211 10.0017H7.49805V10.9992H8.50211V10.0017Z" fill="#000001"/>
<path id="Vector_26" d="M9.49979 18.0012H6.50073V18.9987H9.49979V18.0012Z" fill="#000001"/>
<path id="Vector_27" d="M6.50059 20.0029H4.49902V21.0004H6.50059V20.0029Z" fill="#000001"/>
<path id="Vector_28" d="M6.50067 15.0022H5.50317V18.0013H6.50067V15.0022Z" fill="#000001"/>
<path id="Vector_29" d="M4.49906 12.0031H7.49813V10.9991H5.50312V10.0016H4.49906V8.9975H2.4975V8H1.5V10.0016H3.50156V10.9991H4.49906V12.0031Z" fill="#000001"/>
<path id="Vector_30" d="M8.50209 5.99854H3.50146V7.0026H8.50209V5.99854Z" fill="#000001"/>
<path id="Vector_31" d="M4.49896 18.9988H3.50146V20.0028H4.49896V18.9988Z" fill="#000001"/>
<path id="Vector_32" d="M3.50162 18.0012H2.49756V18.9987H3.50162V18.0012Z" fill="#000001"/>
<path id="Vector_33" d="M3.50162 10.999H2.49756V12.0031H3.50162V10.999Z" fill="#000001"/>
<path id="Vector_34" d="M3.50162 7.00269H2.49756V8.00019H3.50162V7.00269Z" fill="#000001"/>
<path id="Vector_35" d="M2.4975 12.0032H1.5V18.0013H2.4975V12.0032Z" fill="#000001"/>
</g>
</g>
</svg>
