<svg width="24" height="24" viewBox="0 0 24 24" fill="none" xmlns="http://www.w3.org/2000/svg">
<g id="ecology-tree">
<g id="Group">
<path id="Vector" d="M19.9997 14.5002H18.9956V17.4993H19.9997V14.5002Z" fill="#000001"/>
<path id="Vector_2" d="M18.9955 13.4963H17.998V14.5004H18.9955V13.4963Z" fill="#000001"/>
<path id="Vector_3" d="M18.9955 17.4993H17.0005V18.4968H18.9955V17.4993Z" fill="#000001"/>
<path id="Vector_4" d="M17.998 10.4971H17.0005V13.4961H17.998V10.4971Z" fill="#000001"/>
<path id="Vector_5" d="M17.0006 14.5002H15.9966V15.4977H17.0006V14.5002Z" fill="#000001"/>
<path id="Vector_6" d="M17.0006 7.49805H15.9966V10.4971H17.0006V7.49805Z" fill="#000001"/>
<path id="Vector_7" d="M12.9974 18.497V17.4995H13.9949V16.4954H12.9974V13.4963H10.9958V16.4954H9.00083V17.4995H10.9958V18.497H6.99927V19.501H10.9958V22.5001H12.9974V19.501H17.0005V18.497H12.9974Z" fill="#000001"/>
<path id="Vector_8" d="M15.9965 13.4963H14.999V14.5004H15.9965V13.4963Z" fill="#000001"/>
<path id="Vector_9" d="M15.9965 4.49902H14.999V7.49809H15.9965V4.49902Z" fill="#000001"/>
<path id="Vector_10" d="M14.9989 15.4978H13.9949V16.4953H14.9989V15.4978Z" fill="#000001"/>
<path id="Vector_11" d="M14.9989 9.49976H12.9973V10.4973H14.9989V9.49976Z" fill="#000001"/>
<path id="Vector_12" d="M14.9989 3.50146H13.9949V4.49896H14.9989V3.50146Z" fill="#000001"/>
<path id="Vector_13" d="M13.9948 2.49756H12.9973V3.50162H13.9948V2.49756Z" fill="#000001"/>
<path id="Vector_14" d="M12.9975 8.49561H12V9.49967H12.9975V8.49561Z" fill="#000001"/>
<path id="Vector_15" d="M12.9975 5.49658H12V6.50064H12.9975V5.49658Z" fill="#000001"/>
<path id="Vector_16" d="M12.9974 1.5H10.9958V2.4975H12.9974V1.5Z" fill="#000001"/>
<path id="Vector_17" d="M11.9999 6.50073H9.99829V7.49823H11.9999V6.50073Z" fill="#000001"/>
<path id="Vector_18" d="M10.9958 10.4971H9.99829V11.5011H10.9958V10.4971Z" fill="#000001"/>
<path id="Vector_19" d="M10.9958 2.49756H9.99829V3.50162H10.9958V2.49756Z" fill="#000001"/>
<path id="Vector_20" d="M9.99848 3.50146H9.00098V4.49896H9.99848V3.50146Z" fill="#000001"/>
<path id="Vector_21" d="M9.00089 15.4978H7.99683V16.4953H9.00089V15.4978Z" fill="#000001"/>
<path id="Vector_22" d="M9.99839 11.5012H7.99683V12.4987H9.99839V11.5012Z" fill="#000001"/>
<path id="Vector_23" d="M9.00089 4.49902H7.99683V7.49809H9.00089V4.49902Z" fill="#000001"/>
<path id="Vector_24" d="M7.99677 7.49805H6.99927V10.4971H7.99677V7.49805Z" fill="#000001"/>
<path id="Vector_25" d="M6.99937 17.4993H4.9978V18.4968H6.99937V17.4993Z" fill="#000001"/>
<path id="Vector_26" d="M6.99942 10.4971H5.99536V13.4961H6.99942V10.4971Z" fill="#000001"/>
<path id="Vector_27" d="M5.9953 13.4963H4.9978V14.5004H5.9953V13.4963Z" fill="#000001"/>
<path id="Vector_28" d="M4.99774 14.5002H4.00024V17.4993H4.99774V14.5002Z" fill="#000001"/>
</g>
</g>
</svg>
