<svg width="24" height="24" viewBox="0 0 24 24" fill="none" xmlns="http://www.w3.org/2000/svg">
<g id="ecology-global-warming-globe">
<g id="Group">
<path id="Vector" d="M21.5025 15.5043H19.501V14.5002H18.5035V16.5018H15.4978V17.4993H14.5003V18.5034H12.4988V20.5049H16.5019V19.5009H21.5025V18.5034H22.5V16.5018H21.5025V15.5043Z" fill="#000001"/>
<path id="Vector_2" d="M18.5033 4.49902H17.4993V5.50309H18.5033V4.49902Z" fill="#000001"/>
<path id="Vector_3" d="M17.4995 20.5049H16.502V21.5024H17.4995V20.5049Z" fill="#000001"/>
<path id="Vector_4" d="M18.5035 13.5029H16.502V14.5004H18.5035V13.5029Z" fill="#000001"/>
<path id="Vector_5" d="M17.4995 7.50464H16.502V11.5012H17.4995V7.50464Z" fill="#000001"/>
<path id="Vector_6" d="M17.4995 5.50317H16.502V6.50067H17.4995V5.50317Z" fill="#000001"/>
<path id="Vector_7" d="M17.4995 3.50146H16.502V4.49896H17.4995V3.50146Z" fill="#000001"/>
<path id="Vector_8" d="M16.5019 11.5012H15.4978V13.5028H16.5019V11.5012Z" fill="#000001"/>
<path id="Vector_9" d="M16.5019 6.50073H15.4978V7.50479H16.5019V6.50073Z" fill="#000001"/>
<path id="Vector_10" d="M16.5019 4.49902H15.4978V5.50309H16.5019V4.49902Z" fill="#000001"/>
<path id="Vector_11" d="M16.5019 21.5024H9.49976V22.4999H16.5019V21.5024Z" fill="#000001"/>
<path id="Vector_12" d="M15.4977 7.50464H14.5002V8.50214H15.4977V7.50464Z" fill="#000001"/>
<path id="Vector_13" d="M15.4977 5.50317H14.5002V6.50067H15.4977V5.50317Z" fill="#000001"/>
<path id="Vector_14" d="M14.5004 8.5022H13.5029V9.4997H14.5004V8.5022Z" fill="#000001"/>
<path id="Vector_15" d="M14.5004 6.50073H13.5029V7.50479H14.5004V6.50073Z" fill="#000001"/>
<path id="Vector_16" d="M13.5028 9.49976H12.4988V10.5038H13.5028V9.49976Z" fill="#000001"/>
<path id="Vector_17" d="M13.5028 7.50464H12.4988V8.50214H13.5028V7.50464Z" fill="#000001"/>
<path id="Vector_18" d="M12.4987 10.5037H11.5012V11.5012H12.4987V10.5037Z" fill="#000001"/>
<path id="Vector_19" d="M12.4987 8.5022H11.5012V9.4997H12.4987V8.5022Z" fill="#000001"/>
<path id="Vector_20" d="M11.5013 9.49976H9.49976V10.5038H11.5013V9.49976Z" fill="#000001"/>
<path id="Vector_21" d="M9.4997 20.5049H8.5022V21.5024H9.4997V20.5049Z" fill="#000001"/>
<path id="Vector_22" d="M11.5013 16.5019V15.5044H10.5038V14.5004H12.4988V12.5054H9.49974V13.5029H6.50067V14.5004H5.50317V15.5044H7.49817V16.5019H11.5013Z" fill="#000001"/>
<path id="Vector_23" d="M9.4997 4.49902H8.5022V5.50309H9.4997V4.49902Z" fill="#000001"/>
<path id="Vector_24" d="M10.5037 2.50406V4.49906H11.5012V6.50062H13.5027V5.50312H14.5002V4.49906H15.4977V3.50156H14.5002V2.50406H12.4987V1.5H7.49805V2.50406H10.5037Z" fill="#000001"/>
<path id="Vector_25" d="M8.50215 19.501H4.49902V20.505H8.50215V19.501Z" fill="#000001"/>
<path id="Vector_26" d="M8.50211 7.50464H7.49805V8.50214H8.50211V7.50464Z" fill="#000001"/>
<path id="Vector_27" d="M8.5023 5.50317H6.50073V6.50067H8.5023V5.50317Z" fill="#000001"/>
<path id="Vector_28" d="M7.49817 2.50415H5.50317V3.50165H7.49817V2.50415Z" fill="#000001"/>
<path id="Vector_29" d="M5.50309 13.5029H4.49902V14.5004H5.50309V13.5029Z" fill="#000001"/>
<path id="Vector_30" d="M5.50309 3.50146H4.49902V4.49896H5.50309V3.50146Z" fill="#000001"/>
<path id="Vector_31" d="M4.49912 18.5034H2.49756V19.5009H4.49912V18.5034Z" fill="#000001"/>
<path id="Vector_32" d="M7.49818 16.502H2.49756V17.4995H7.49818V16.502Z" fill="#000001"/>
<path id="Vector_33" d="M5.50318 11.5012V12.5053H7.49818V9.49965H6.50068V8.50215H5.50318V6.50059H4.49912V4.49902H3.50162V6.50059H2.49756V11.5012H3.50162V13.5028H4.49912V11.5012H5.50318Z" fill="#000001"/>
<path id="Vector_34" d="M2.4975 17.4993H1.5V18.5033H2.4975V17.4993Z" fill="#000001"/>
</g>
</g>
</svg>
