<svg width="24" height="24" viewBox="0 0 24 24" fill="none" xmlns="http://www.w3.org/2000/svg">
<g id="ecology-cactus">
<g id="Group">
<path id="Vector" d="M21.4992 9.49976H20.5017V13.4963H21.4992V9.49976Z" fill="#000001"/>
<path id="Vector_2" d="M20.5016 13.4963H19.4976V14.5004H20.5016V13.4963Z" fill="#000001"/>
<path id="Vector_3" d="M20.5016 8.49561H18.5V9.49967H20.5016V8.49561Z" fill="#000001"/>
<path id="Vector_4" d="M19.4975 14.5002H18.5V15.4977H19.4975V14.5002Z" fill="#000001"/>
<path id="Vector_5" d="M19.4975 11.5012H18.5V12.4987H19.4975V11.5012Z" fill="#000001"/>
<path id="Vector_6" d="M18.5002 13.4963H17.4961V14.5004H18.5002V13.4963Z" fill="#000001"/>
<path id="Vector_7" d="M18.5002 9.49976H17.4961V11.5013H18.5002V9.49976Z" fill="#000001"/>
<path id="Vector_8" d="M14.497 4.49896V5.49646H13.4995V7.49803H14.497V8.49553H15.5011V22.4999H16.4986V16.4952H18.5001V15.4977H16.4986V12.4987H17.4961V11.5012H16.4986V7.49803H17.4961V5.49646H16.4986V6.50053H15.5011V5.49646H16.4986V3.50146H15.5011V4.49896H14.497Z" fill="#000001"/>
<path id="Vector_9" d="M15.5011 2.49756H14.4971V3.50162H15.5011V2.49756Z" fill="#000001"/>
<path id="Vector_10" d="M14.497 17.4993H13.4995V19.5008H14.497V17.4993Z" fill="#000001"/>
<path id="Vector_11" d="M14.497 12.4988H13.4995V14.5003H14.497V12.4988Z" fill="#000001"/>
<path id="Vector_12" d="M14.4969 1.5H11.4978V2.4975H14.4969V1.5Z" fill="#000001"/>
<path id="Vector_13" d="M12.4953 20.4985H11.4978V21.496H12.4953V20.4985Z" fill="#000001"/>
<path id="Vector_14" d="M12.4953 14.5002H11.4978V16.4952H12.4953V14.5002Z" fill="#000001"/>
<path id="Vector_15" d="M12.4953 9.49976H11.4978V11.5013H12.4953V9.49976Z" fill="#000001"/>
<path id="Vector_16" d="M12.4953 4.49902H11.4978V5.49652H12.4953V4.49902Z" fill="#000001"/>
<path id="Vector_17" d="M11.498 2.49756H10.5005V3.50162H11.498V2.49756Z" fill="#000001"/>
<path id="Vector_18" d="M10.5004 18.4968H9.49634V22.5H10.5004V18.4968Z" fill="#000001"/>
<path id="Vector_19" d="M10.5004 6.50073H9.49634V13.4964H10.5004V6.50073Z" fill="#000001"/>
<path id="Vector_20" d="M10.5004 5.49662V3.50162H9.49638V4.49912H8.49888V3.50162H9.49638V2.49756H7.50138V3.50162H6.49731V5.49662H7.50138V6.50068H9.49638V5.49662H10.5004Z" fill="#000001"/>
<path id="Vector_21" d="M9.49628 13.4963H8.49878V14.5004H9.49628V13.4963Z" fill="#000001"/>
<path id="Vector_22" d="M8.49896 15.4978H7.50146V16.4953H8.49896V15.4978Z" fill="#000001"/>
<path id="Vector_23" d="M8.49896 12.4988H7.50146V13.4963H8.49896V12.4988Z" fill="#000001"/>
<path id="Vector_24" d="M9.49638 17.4993H6.49731V18.4968H9.49638V17.4993Z" fill="#000001"/>
<path id="Vector_25" d="M7.50138 8.49561H6.49731V12.4987H7.50138V8.49561Z" fill="#000001"/>
<path id="Vector_26" d="M6.49726 16.4954H5.49976V17.4994H6.49726V16.4954Z" fill="#000001"/>
<path id="Vector_27" d="M6.49726 13.4963H5.49976V14.5004H6.49726V13.4963Z" fill="#000001"/>
<path id="Vector_28" d="M6.49735 7.49805H3.49829V8.49555H6.49735V7.49805Z" fill="#000001"/>
<path id="Vector_29" d="M5.49991 15.4978H4.49585V16.4953H5.49991V15.4978Z" fill="#000001"/>
<path id="Vector_30" d="M5.49991 10.4971H4.49585V12.4986H5.49991V10.4971Z" fill="#000001"/>
<path id="Vector_31" d="M4.49579 14.5002H3.49829V15.4977H4.49579V14.5002Z" fill="#000001"/>
<path id="Vector_32" d="M3.49823 8.49561H2.50073V14.5003H3.49823V8.49561Z" fill="#000001"/>
</g>
</g>
</svg>
