<svg width="24" height="24" viewBox="0 0 24 24" fill="none" xmlns="http://www.w3.org/2000/svg">
<g id="ecology-global-house">
<g id="Group">
<path id="Vector" d="M19.5009 12.4988V11.5012H20.4984V10.4972H17.4994V11.5012H18.5034V12.4988H13.5028V8.50219H15.5044V7.49813H14.5003V6.50062H13.5028V5.49656H12.4988V4.49906H11.5012V3.50156H10.5038V2.4975H9.49969V1.5H8.50219V2.4975H7.49813V3.50156H6.50062V4.49906H5.50312V5.49656H4.49906V6.50062H3.50156V7.49813H2.50406V8.50219H4.49906V12.4988H1.5V14.5003H2.50406V13.4963H3.50156V14.5003H4.49906V16.5019H5.50312V17.4994H7.49813V16.5019H8.50219V15.4978H9.49969V13.4963H11.5012V14.5003H13.5028V15.4978H15.5044V16.5019H16.5019V17.4994H18.5034V16.5019H19.5009V14.5003H20.4984V13.4963H21.5025V14.5003H22.5V12.4988H19.5009ZM12.4988 12.4988H11.5012V8.50219H10.5038V12.4988H7.49813V11.5012H8.50219V10.4972H7.49813V8.50219H6.50062V12.4988H5.50312V6.50062H6.50062V5.49656H7.49813V4.49906H8.50219V3.50156H9.49969V4.49906H10.5038V5.49656H11.5012V6.50062H12.4988V12.4988Z" fill="#000001"/>
<path id="Vector_2" d="M21.5026 14.5002H20.4985V16.5018H21.5026V14.5002Z" fill="#000001"/>
<path id="Vector_3" d="M21.5026 5.49658H20.4985V10.4972H21.5026V5.49658Z" fill="#000001"/>
<path id="Vector_4" d="M20.4985 16.502H19.501V18.497H20.4985V16.502Z" fill="#000001"/>
<path id="Vector_5" d="M19.5009 18.4968H18.5034V19.5009H19.5009V18.4968Z" fill="#000001"/>
<path id="Vector_6" d="M20.4983 4.49902H17.4993V5.49652H20.4983V4.49902Z" fill="#000001"/>
<path id="Vector_7" d="M15.5043 19.5008V18.4968H14.5002V17.4993H11.5012V18.4968H9.49961V19.5008H8.50211V20.4983H7.49805V21.4958H9.49961V22.4999H14.5002V21.4958H16.5018V20.4983H18.5034V19.5008H15.5043Z" fill="#000001"/>
<path id="Vector_8" d="M17.4995 5.49658H16.502V10.4972H17.4995V5.49658Z" fill="#000001"/>
<path id="Vector_9" d="M10.5037 7.49805H7.49805V8.50211H10.5037V7.49805Z" fill="#000001"/>
<path id="Vector_10" d="M7.49817 19.501H5.50317V20.4985H7.49817V19.501Z" fill="#000001"/>
<path id="Vector_11" d="M5.50309 18.4968H4.49902V19.5009H5.50309V18.4968Z" fill="#000001"/>
<path id="Vector_12" d="M4.49896 16.502H3.50146V18.497H4.49896V16.502Z" fill="#000001"/>
<path id="Vector_13" d="M3.50165 14.5002H2.50415V16.5018H3.50165V14.5002Z" fill="#000001"/>
</g>
</g>
</svg>
