<svg width="24" height="24" viewBox="0 0 24 24" fill="none" xmlns="http://www.w3.org/2000/svg">
<g id="ecology-plant-growth-soil-nature">
<g id="Group">
<path id="Vector" d="M22.4999 18.4968H21.5024V21.4959H22.4999V18.4968Z" fill="#000001"/>
<path id="Vector_2" d="M21.5026 17.4993H20.4985V18.4968H21.5026V17.4993Z" fill="#000001"/>
<path id="Vector_3" d="M20.4985 9.49965H21.5025V5.49652H22.5V4.49902H19.501V5.49652H20.4985V9.49965Z" fill="#000001"/>
<path id="Vector_4" d="M21.5026 21.4958H2.49756V22.4999H21.5026V21.4958Z" fill="#000001"/>
<path id="Vector_5" d="M20.4985 9.49976H19.501V10.4973H20.4985V9.49976Z" fill="#000001"/>
<path id="Vector_6" d="M19.5009 19.501H18.4968V20.4985H19.5009V19.501Z" fill="#000001"/>
<path id="Vector_7" d="M20.4983 16.4954H17.4993V17.4994H20.4983V16.4954Z" fill="#000001"/>
<path id="Vector_8" d="M19.5009 10.4971H18.4968V11.5011H19.5009V10.4971Z" fill="#000001"/>
<path id="Vector_9" d="M19.5008 5.49658H17.4993V6.50064H19.5008V5.49658Z" fill="#000001"/>
<path id="Vector_10" d="M18.497 8.49561H16.502V9.49967H18.497V8.49561Z" fill="#000001"/>
<path id="Vector_11" d="M17.4995 17.4993H16.502V18.4968H17.4995V17.4993Z" fill="#000001"/>
<path id="Vector_12" d="M17.4994 6.50073H15.4978V7.49823H17.4994V6.50073Z" fill="#000001"/>
<path id="Vector_13" d="M16.5019 15.4978H15.4978V17.4994H16.5019V15.4978Z" fill="#000001"/>
<path id="Vector_14" d="M18.4969 11.5012H15.4978V12.4987H18.4969V11.5012Z" fill="#000001"/>
<path id="Vector_15" d="M16.5019 9.49976H15.4978V10.4973H16.5019V9.49976Z" fill="#000001"/>
<path id="Vector_16" d="M15.4977 10.4971H14.5002V11.5011H15.4977V10.4971Z" fill="#000001"/>
<path id="Vector_17" d="M15.4977 7.49805H14.5002V8.49555H15.4977V7.49805Z" fill="#000001"/>
<path id="Vector_18" d="M15.4979 18.4968H13.4963V20.4984H15.4979V18.4968Z" fill="#000001"/>
<path id="Vector_19" d="M15.4979 14.5002H13.4963V15.4977H15.4979V14.5002Z" fill="#000001"/>
<path id="Vector_20" d="M14.5004 8.49561H13.4963V10.4972H14.5004V8.49561Z" fill="#000001"/>
<path id="Vector_21" d="M13.4963 16.4954H12.4988V17.4994H13.4963V16.4954Z" fill="#000001"/>
<path id="Vector_22" d="M13.4961 13.4962H12.4986V12.4987H14.5002V11.5012H12.4986V7.49805H11.5011V9.49961H10.4971V10.4971H11.5011V13.4962H10.4971V14.5002H13.4961V13.4962Z" fill="#000001"/>
<path id="Vector_23" d="M11.5011 5.49658H10.4971V7.49814H11.5011V5.49658Z" fill="#000001"/>
<path id="Vector_24" d="M11.5013 16.4954H9.49976V18.4969H11.5013V16.4954Z" fill="#000001"/>
<path id="Vector_25" d="M10.4972 14.5002H8.5022V15.4977H10.4972V14.5002Z" fill="#000001"/>
<path id="Vector_26" d="M10.4973 8.49561H9.49976V9.49967H10.4973V8.49561Z" fill="#000001"/>
<path id="Vector_27" d="M10.4973 4.49902H9.49976V5.49652H10.4973V4.49902Z" fill="#000001"/>
<path id="Vector_28" d="M10.4971 10.4971H7.49805V11.5011H10.4971V10.4971Z" fill="#000001"/>
<path id="Vector_29" d="M9.4997 7.49805H8.5022V8.49555H9.4997V7.49805Z" fill="#000001"/>
<path id="Vector_30" d="M9.4997 3.50146H8.5022V4.49896H9.4997V3.50146Z" fill="#000001"/>
<path id="Vector_31" d="M8.50211 19.501H7.49805V20.4985H8.50211V19.501Z" fill="#000001"/>
<path id="Vector_32" d="M8.50211 15.4978H7.49805V17.4994H8.50211V15.4978Z" fill="#000001"/>
<path id="Vector_33" d="M8.50211 6.50073H7.49805V7.49823H8.50211V6.50073Z" fill="#000001"/>
<path id="Vector_34" d="M7.49823 17.4993H6.50073V18.4968H7.49823V17.4993Z" fill="#000001"/>
<path id="Vector_35" d="M7.49823 9.49976H6.50073V10.4973H7.49823V9.49976Z" fill="#000001"/>
<path id="Vector_36" d="M7.49823 5.49658H6.50073V6.50064H7.49823V5.49658Z" fill="#000001"/>
<path id="Vector_37" d="M8.5023 2.49756H6.50073V3.50162H8.5023V2.49756Z" fill="#000001"/>
<path id="Vector_38" d="M6.50064 8.49561H5.49658V9.49967H6.50064V8.49561Z" fill="#000001"/>
<path id="Vector_39" d="M6.50064 4.49902H5.49658V5.49652H6.50064V4.49902Z" fill="#000001"/>
<path id="Vector_40" d="M5.49652 19.501H4.49902V20.4985H5.49652V19.501Z" fill="#000001"/>
<path id="Vector_41" d="M6.50053 16.4954H3.50146V17.4994H6.50053V16.4954Z" fill="#000001"/>
<path id="Vector_42" d="M5.49652 6.50073H4.49902V8.49573H5.49652V6.50073Z" fill="#000001"/>
<path id="Vector_43" d="M4.49896 4.49902H3.50146V6.50059H4.49896V4.49902Z" fill="#000001"/>
<path id="Vector_44" d="M6.50068 1.5H2.49756V2.4975H6.50068V1.5Z" fill="#000001"/>
<path id="Vector_45" d="M3.50162 17.4993H2.49756V18.4968H3.50162V17.4993Z" fill="#000001"/>
<path id="Vector_46" d="M3.50162 3.50146H2.49756V4.49896H3.50162V3.50146Z" fill="#000001"/>
<path id="Vector_47" d="M2.4975 18.4968H1.5V21.4959H2.4975V18.4968Z" fill="#000001"/>
<path id="Vector_48" d="M2.4975 2.49756H1.5V3.50162H2.4975V2.49756Z" fill="#000001"/>
</g>
</g>
</svg>
