<svg width="24" height="24" viewBox="0 0 24 24" fill="none" xmlns="http://www.w3.org/2000/svg">
<g id="ecology-renewable-energy-wind-turbine">
<g id="Group">
<path id="Vector" d="M21.5024 16.5019H17.4993V17.4994H22.4999V15.5044H21.5024V16.5019Z" fill="#000001"/>
<path id="Vector_2" d="M21.5026 14.5002H20.4985V15.5043H21.5026V14.5002Z" fill="#000001"/>
<path id="Vector_3" d="M21.5025 6.50073H19.501V7.50479H21.5025V6.50073Z" fill="#000001"/>
<path id="Vector_4" d="M21.5025 3.50146H19.501V4.49896H21.5025V3.50146Z" fill="#000001"/>
<path id="Vector_5" d="M20.4984 13.5029H18.5034V14.5004H20.4984V13.5029Z" fill="#000001"/>
<path id="Vector_6" d="M19.5008 7.50464H17.4993V8.50214H19.5008V7.50464Z" fill="#000001"/>
<path id="Vector_7" d="M19.5008 4.49902H17.4993V5.50309H19.5008V4.49902Z" fill="#000001"/>
<path id="Vector_8" d="M17.4994 15.5044H15.4978V16.5019H17.4994V15.5044Z" fill="#000001"/>
<path id="Vector_9" d="M18.5035 12.5054H16.502V13.5029H18.5035V12.5054Z" fill="#000001"/>
<path id="Vector_10" d="M17.4994 6.50073H15.4978V7.50479H17.4994V6.50073Z" fill="#000001"/>
<path id="Vector_11" d="M17.4994 3.50146H15.4978V4.49896H17.4994V3.50146Z" fill="#000001"/>
<path id="Vector_12" d="M15.4979 14.5002H13.5029V15.5043H15.4979V14.5002Z" fill="#000001"/>
<path id="Vector_13" d="M15.4979 7.50464H13.5029V8.50214H15.4979V7.50464Z" fill="#000001"/>
<path id="Vector_14" d="M15.4979 4.49902H13.5029V5.50309H15.4979V4.49902Z" fill="#000001"/>
<path id="Vector_15" d="M16.5019 12.5053V11.5012H12.4988V13.5028H10.5038V14.5003H11.5013V18.5034H10.5038V19.5009H9.49976V22.5H14.5004V19.5009H13.5029V18.5034H12.4988V14.5003H13.5029V12.5053H16.5019Z" fill="#000001"/>
<path id="Vector_16" d="M12.4987 7.50464H11.5012V10.5037H10.5037V11.5012H12.4987V7.50464Z" fill="#000001"/>
<path id="Vector_17" d="M11.5012 5.50317H10.5037V7.50474H11.5012V5.50317Z" fill="#000001"/>
<path id="Vector_18" d="M10.5038 14.5002H9.49976V15.5043H10.5038V14.5002Z" fill="#000001"/>
<path id="Vector_19" d="M10.5038 11.5012H9.4997V12.5053H8.5022V13.5028H10.5038V11.5012Z" fill="#000001"/>
<path id="Vector_20" d="M9.4997 9.4997V8.5022H8.5022V10.5038H10.5038V9.4997H9.4997Z" fill="#000001"/>
<path id="Vector_21" d="M10.5038 3.50146H9.49976V5.50303H10.5038V3.50146Z" fill="#000001"/>
<path id="Vector_22" d="M9.4997 15.5044H8.5022V17.4994H9.4997V15.5044Z" fill="#000001"/>
<path id="Vector_23" d="M9.4997 2.50415H8.5022V3.50165H9.4997V2.50415Z" fill="#000001"/>
<path id="Vector_24" d="M8.50211 17.4993H7.49805V18.5033H8.50211V17.4993Z" fill="#000001"/>
<path id="Vector_25" d="M8.5023 13.5029H6.50073V14.5004H8.5023V13.5029Z" fill="#000001"/>
<path id="Vector_26" d="M8.50211 6.50073H7.49805V8.5023H8.50211V6.50073Z" fill="#000001"/>
<path id="Vector_27" d="M7.49823 2.50406H8.5023V1.5H6.50073V6.50062H7.49823V2.50406Z" fill="#000001"/>
<path id="Vector_28" d="M7.49817 18.5034H5.50317V19.5009H7.49817V18.5034Z" fill="#000001"/>
<path id="Vector_29" d="M6.50067 14.5002H5.50317V15.5043H6.50067V14.5002Z" fill="#000001"/>
<path id="Vector_30" d="M7.49817 10.5037H5.50317V11.5012H7.49817V10.5037Z" fill="#000001"/>
<path id="Vector_31" d="M5.50309 15.5044H4.49902V16.5019H5.50309V15.5044Z" fill="#000001"/>
<path id="Vector_32" d="M5.50303 9.49976H3.50146V10.5038H5.50303V9.49976Z" fill="#000001"/>
<path id="Vector_33" d="M5.50303 6.50073H3.50146V7.50479H5.50303V6.50073Z" fill="#000001"/>
<path id="Vector_34" d="M3.50162 17.4993H2.49756V20.5049H5.50318V19.5008H3.50162V17.4993Z" fill="#000001"/>
<path id="Vector_35" d="M4.49896 16.502H3.50146V17.4995H4.49896V16.502Z" fill="#000001"/>
<path id="Vector_36" d="M3.50156 10.5037H1.5V11.5012H3.50156V10.5037Z" fill="#000001"/>
<path id="Vector_37" d="M3.50156 7.50464H1.5V8.50214H3.50156V7.50464Z" fill="#000001"/>
</g>
</g>
</svg>
