<svg width="24" height="24" viewBox="0 0 24 24" fill="none" xmlns="http://www.w3.org/2000/svg">
<g id="ecology-windmill-1">
<g id="Group">
<path id="Vector" d="M22.4999 17.4993H21.5024V18.5033H22.4999V17.4993Z" fill="#000001"/>
<path id="Vector_2" d="M22.4999 4.49902H21.5024V5.50309H22.4999V4.49902Z" fill="#000001"/>
<path id="Vector_3" d="M21.5026 18.5034H20.4985V19.5009H21.5026V18.5034Z" fill="#000001"/>
<path id="Vector_4" d="M21.5026 16.502H20.4985V17.4995H21.5026V16.502Z" fill="#000001"/>
<path id="Vector_5" d="M21.5026 5.50317H20.4985V6.50067H21.5026V5.50317Z" fill="#000001"/>
<path id="Vector_6" d="M21.5026 3.50146H20.4985V4.49896H21.5026V3.50146Z" fill="#000001"/>
<path id="Vector_7" d="M20.4985 19.501H19.501V20.505H20.4985V19.501Z" fill="#000001"/>
<path id="Vector_8" d="M20.4985 15.5044H19.501V16.5019H20.4985V15.5044Z" fill="#000001"/>
<path id="Vector_9" d="M20.4985 6.50073H19.501V7.50479H20.4985V6.50073Z" fill="#000001"/>
<path id="Vector_10" d="M20.4985 2.50415H19.501V3.50165H20.4985V2.50415Z" fill="#000001"/>
<path id="Vector_11" d="M19.5009 16.502H18.5034V17.4995H19.5009V16.502Z" fill="#000001"/>
<path id="Vector_12" d="M19.5009 14.5002H18.5034V15.5043H19.5009V14.5002Z" fill="#000001"/>
<path id="Vector_13" d="M19.5009 7.50464H18.5034V8.50214H19.5009V7.50464Z" fill="#000001"/>
<path id="Vector_14" d="M19.5009 5.50317H18.5034V6.50067H19.5009V5.50317Z" fill="#000001"/>
<path id="Vector_15" d="M19.5009 1.5H18.5034V2.50406H19.5009V1.5Z" fill="#000001"/>
<path id="Vector_16" d="M18.5033 17.4993H17.4993V22.4999H18.5033V21.5024H19.5008V20.5049H18.5033V17.4993Z" fill="#000001"/>
<path id="Vector_17" d="M18.5033 8.5022H17.4993V9.4997H18.5033V8.5022Z" fill="#000001"/>
<path id="Vector_18" d="M18.5033 4.49902H17.4993V5.50309H18.5033V4.49902Z" fill="#000001"/>
<path id="Vector_19" d="M18.5033 2.50415H17.4993V3.50165H18.5033V2.50415Z" fill="#000001"/>
<path id="Vector_20" d="M16.5018 8.50215H15.4978V7.50465H14.5003V6.50059H13.5028V5.50309H12.4987V4.49902H11.5012V5.50309H10.5037V6.50059H9.49965V7.50465H8.50215V8.50215H7.49809V9.49965H6.50059V10.5037H5.50309V11.5012H4.49902V12.5053H6.50059V13.5028H5.50309V14.5003H6.50059V17.4993H7.49809V16.5018H16.5018V17.4993H17.4993V14.5003H18.5034V13.5028H17.4993V12.5053H19.5009V11.5012H18.5034V10.5037H17.4993V9.49965H16.5018V8.50215ZM8.50215 15.5043H7.49809V14.5003H8.50215V15.5043ZM10.5037 15.5043H9.49965V14.5003H10.5037V15.5043ZM12.4987 15.5043H11.5012V14.5003H12.4987V15.5043ZM14.5003 15.5043H13.5028V14.5003H14.5003V15.5043ZM16.5018 15.5043H15.4978V14.5003H16.5018V15.5043ZM16.5018 13.5028H7.49809V12.5053H16.5018V13.5028Z" fill="#000001"/>
<path id="Vector_21" d="M17.4995 7.50464H16.502V8.50214H17.4995V7.50464Z" fill="#000001"/>
<path id="Vector_22" d="M17.4995 3.50146H16.502V4.49896H17.4995V3.50146Z" fill="#000001"/>
<path id="Vector_23" d="M16.5019 6.50073H15.4978V7.50479H16.5019V6.50073Z" fill="#000001"/>
<path id="Vector_24" d="M16.5019 4.49902H15.4978V5.50309H16.5019V4.49902Z" fill="#000001"/>
<path id="Vector_25" d="M15.4977 5.50317H14.5002V6.50067H15.4977V5.50317Z" fill="#000001"/>
<path id="Vector_26" d="M10.5038 17.4993V18.5033H9.49976V22.4999H14.5004V18.5033H13.5029V17.4993H10.5038ZM11.5013 21.5024H10.5038V20.5049H11.5013V21.5024Z" fill="#000001"/>
<path id="Vector_27" d="M9.4997 5.50317H8.5022V6.50067H9.4997V5.50317Z" fill="#000001"/>
<path id="Vector_28" d="M8.50211 6.50073H7.49805V7.50479H8.50211V6.50073Z" fill="#000001"/>
<path id="Vector_29" d="M8.50211 4.49902H7.49805V5.50309H8.50211V4.49902Z" fill="#000001"/>
<path id="Vector_30" d="M7.49823 7.50464H6.50073V8.50214H7.49823V7.50464Z" fill="#000001"/>
<path id="Vector_31" d="M7.49823 3.50146H6.50073V4.49896H7.49823V3.50146Z" fill="#000001"/>
<path id="Vector_32" d="M5.50309 20.5049H4.49902V21.5024H5.50309V22.4999H6.50059V17.4993H5.50309V20.5049Z" fill="#000001"/>
<path id="Vector_33" d="M6.50067 8.5022H5.50317V9.4997H6.50067V8.5022Z" fill="#000001"/>
<path id="Vector_34" d="M6.50067 4.49902H5.50317V5.50309H6.50067V4.49902Z" fill="#000001"/>
<path id="Vector_35" d="M6.50067 2.50415H5.50317V3.50165H6.50067V2.50415Z" fill="#000001"/>
<path id="Vector_36" d="M5.50309 16.502H4.49902V17.4995H5.50309V16.502Z" fill="#000001"/>
<path id="Vector_37" d="M5.50309 14.5002H4.49902V15.5043H5.50309V14.5002Z" fill="#000001"/>
<path id="Vector_38" d="M5.50309 7.50464H4.49902V8.50214H5.50309V7.50464Z" fill="#000001"/>
<path id="Vector_39" d="M5.50309 5.50317H4.49902V6.50067H5.50309V5.50317Z" fill="#000001"/>
<path id="Vector_40" d="M5.50309 1.5H4.49902V2.50406H5.50309V1.5Z" fill="#000001"/>
<path id="Vector_41" d="M4.49896 19.501H3.50146V20.505H4.49896V19.501Z" fill="#000001"/>
<path id="Vector_42" d="M4.49896 15.5044H3.50146V16.5019H4.49896V15.5044Z" fill="#000001"/>
<path id="Vector_43" d="M4.49896 6.50073H3.50146V7.50479H4.49896V6.50073Z" fill="#000001"/>
<path id="Vector_44" d="M4.49896 2.50415H3.50146V3.50165H4.49896V2.50415Z" fill="#000001"/>
<path id="Vector_45" d="M3.50162 18.5034H2.49756V19.5009H3.50162V18.5034Z" fill="#000001"/>
<path id="Vector_46" d="M3.50162 16.502H2.49756V17.4995H3.50162V16.502Z" fill="#000001"/>
<path id="Vector_47" d="M3.50162 5.50317H2.49756V6.50067H3.50162V5.50317Z" fill="#000001"/>
<path id="Vector_48" d="M3.50162 3.50146H2.49756V4.49896H3.50162V3.50146Z" fill="#000001"/>
<path id="Vector_49" d="M2.4975 17.4993H1.5V18.5033H2.4975V17.4993Z" fill="#000001"/>
<path id="Vector_50" d="M2.4975 4.49902H1.5V5.50309H2.4975V4.49902Z" fill="#000001"/>
</g>
</g>
</svg>
