<svg width="24" height="24" viewBox="0 0 24 24" fill="none" xmlns="http://www.w3.org/2000/svg">
<g id="ecology-renewable-energy-solar-panel">
<g id="Group">
<path id="Vector" d="M22.0013 18.5034H21.0038V16.5018H19.9997V14.5003H19.0022V12.5053H18.0047V11.5012H9.00096V12.5053H8.00346V14.5003H6.99939V16.5018H6.00189V18.5034H5.00439V20.505H12V22.5H13.0041V20.505H14.0016V22.5H14.9991V20.505H22.0013V18.5034ZM19.9997 19.5009H6.99939V17.4993H8.00346V15.5043H9.00096V14.5003H10.005V12.5053H17.0006V14.5003H18.0047V15.5043H19.0022V17.4993H19.9997V19.5009Z" fill="#000001"/>
<path id="Vector_2" d="M18.0048 16.502H14.0017V18.5035H19.0023V17.4995H18.0048V16.502Z" fill="#000001"/>
<path id="Vector_3" d="M16.0033 13.5029H14.0017V15.5045H17.0008V14.5004H16.0033V13.5029Z" fill="#000001"/>
<path id="Vector_4" d="M13.0041 6.50073H12V7.50479H13.0041V6.50073Z" fill="#000001"/>
<path id="Vector_5" d="M11.9999 2.50415H11.0024V3.50165H11.9999V2.50415Z" fill="#000001"/>
<path id="Vector_6" d="M13.0042 15.5045V13.5029H11.0026V14.5004H10.0051V15.5045H13.0042Z" fill="#000001"/>
<path id="Vector_7" d="M11.0026 5.50317H10.0051V8.50224H11.0026V5.50317Z" fill="#000001"/>
<path id="Vector_8" d="M10.005 8.5022H9.00098V9.4997H10.005V8.5022Z" fill="#000001"/>
<path id="Vector_9" d="M10.005 4.49902H9.00098V5.50309H10.005V4.49902Z" fill="#000001"/>
<path id="Vector_10" d="M13.004 18.5035V16.502H9.00092V17.4995H8.00342V18.5035H13.004Z" fill="#000001"/>
<path id="Vector_11" d="M9.00102 9.49976H6.00195V10.5038H9.00102V9.49976Z" fill="#000001"/>
<path id="Vector_12" d="M9.00102 3.50146H6.00195V4.49896H9.00102V3.50146Z" fill="#000001"/>
<path id="Vector_13" d="M8.00357 1.5H6.99951V2.50406H8.00357V1.5Z" fill="#000001"/>
<path id="Vector_14" d="M6.00189 8.5022H5.00439V9.4997H6.00189V8.5022Z" fill="#000001"/>
<path id="Vector_15" d="M6.00189 4.49902H5.00439V5.50309H6.00189V4.49902Z" fill="#000001"/>
<path id="Vector_16" d="M5.00431 5.50317H4.00024V8.50224H5.00431V5.50317Z" fill="#000001"/>
<path id="Vector_17" d="M4.00043 10.5037H3.00293V11.5012H4.00043V10.5037Z" fill="#000001"/>
<path id="Vector_18" d="M4.00043 2.50415H3.00293V3.50165H4.00043V2.50415Z" fill="#000001"/>
<path id="Vector_19" d="M3.00284 6.50073H1.99878V7.50479H3.00284V6.50073Z" fill="#000001"/>
</g>
</g>
</svg>
