<svg width="24" height="24" viewBox="0 0 24 24" fill="none" xmlns="http://www.w3.org/2000/svg">
<g id="ecology-bush">
<g id="Group">
<path id="Vector" d="M22.4999 12.9973H21.5024V15.9964H22.4999V12.9973Z" fill="#000001"/>
<path id="Vector_2" d="M21.5026 15.9966H20.4985V17.9981H21.5026V15.9966Z" fill="#000001"/>
<path id="Vector_3" d="M21.5026 12H20.4985V12.9975H21.5026V12Z" fill="#000001"/>
<path id="Vector_4" d="M20.4985 9.99829H19.501V11.9999H20.4985V9.99829Z" fill="#000001"/>
<path id="Vector_5" d="M20.4984 17.998H18.4968V18.9955H20.4984V17.998Z" fill="#000001"/>
<path id="Vector_6" d="M19.5009 7.99683H18.4968V9.99839H19.5009V7.99683Z" fill="#000001"/>
<path id="Vector_7" d="M18.4968 15.9966H17.4993V17.0006H18.4968V15.9966Z" fill="#000001"/>
<path id="Vector_8" d="M18.497 12H17.4995V12.9975H16.502V13.995H17.4995V14.9991H18.497V13.995H19.501V12.9975H18.497V12Z" fill="#000001"/>
<path id="Vector_9" d="M18.4968 6.99927H17.4993V7.99677H18.4968V6.99927Z" fill="#000001"/>
<path id="Vector_10" d="M18.4969 18.9956H5.49658V19.9997H18.4969V18.9956Z" fill="#000001"/>
<path id="Vector_11" d="M17.4995 9.00098H16.502V9.99848H17.4995V9.00098Z" fill="#000001"/>
<path id="Vector_12" d="M17.4994 17.0005H15.4978V17.998H17.4994V17.0005Z" fill="#000001"/>
<path id="Vector_13" d="M16.502 7.99683H13.4963V9.00089H16.502V7.99683Z" fill="#000001"/>
<path id="Vector_14" d="M17.4994 5.99536H15.4978V6.99942H17.4994V5.99536Z" fill="#000001"/>
<path id="Vector_15" d="M14.5004 12.9973H13.4963V13.9948H14.5004V12.9973Z" fill="#000001"/>
<path id="Vector_16" d="M15.4979 4.9978H13.4963V5.9953H15.4979V4.9978Z" fill="#000001"/>
<path id="Vector_17" d="M12.4986 14.999H11.5011V15.9965H10.4971V17.0006H11.5011V17.9981H12.4986V17.0006H13.4961V15.9965H12.4986V14.999Z" fill="#000001"/>
<path id="Vector_18" d="M12.4987 5.99536H11.5012V6.99942H12.4987V5.99536Z" fill="#000001"/>
<path id="Vector_19" d="M13.4961 4.00024H10.4971V4.99774H13.4961V4.00024Z" fill="#000001"/>
<path id="Vector_20" d="M10.4973 12H11.5013V10.996H12.4988V9.99848H11.5013V9.00098H10.4973V9.99848H9.49976V10.996H10.4973V12Z" fill="#000001"/>
<path id="Vector_21" d="M10.4972 4.9978H8.5022V5.9953H10.4972V4.9978Z" fill="#000001"/>
<path id="Vector_22" d="M9.4997 14.999H8.5022V15.9965H9.4997V14.999Z" fill="#000001"/>
<path id="Vector_23" d="M8.5023 9.00098H6.50073V9.99848H8.5023V9.00098Z" fill="#000001"/>
<path id="Vector_24" d="M8.5023 5.99536H6.50073V6.99942H8.5023V5.99536Z" fill="#000001"/>
<path id="Vector_25" d="M7.49823 17.0005H6.50073V17.998H7.49823V17.0005Z" fill="#000001"/>
<path id="Vector_26" d="M6.50059 12.9973H5.49652V13.9948H4.49902V14.9989H5.49652V15.9964H6.50059V14.9989H7.49809V13.9948H6.50059V12.9973Z" fill="#000001"/>
<path id="Vector_27" d="M6.50064 6.99927H5.49658V7.99677H6.50064V6.99927Z" fill="#000001"/>
<path id="Vector_28" d="M5.49646 17.998H3.50146V18.9955H5.49646V17.998Z" fill="#000001"/>
<path id="Vector_29" d="M5.49652 7.99683H4.49902V9.00089H5.49652V7.99683Z" fill="#000001"/>
<path id="Vector_30" d="M4.49896 9.00098H3.50146V12H4.49896V9.00098Z" fill="#000001"/>
<path id="Vector_31" d="M3.50162 15.9966H2.49756V17.9981H3.50162V15.9966Z" fill="#000001"/>
<path id="Vector_32" d="M3.50162 12H2.49756V12.9975H3.50162V12Z" fill="#000001"/>
<path id="Vector_33" d="M2.4975 12.9973H1.5V15.9964H2.4975V12.9973Z" fill="#000001"/>
</g>
</g>
</svg>
