<svg width="24" height="24" viewBox="0 0 24 24" fill="none" xmlns="http://www.w3.org/2000/svg">
<g id="ecology-leaf-bug">
<g id="Group">
<path id="Vector" d="M22.4999 2.49756H21.5024V12.4988H22.4999V2.49756Z" fill="#000001"/>
<path id="Vector_2" d="M21.5026 12.4988H20.4985V14.5003H21.5026V12.4988Z" fill="#000001"/>
<path id="Vector_3" d="M21.5025 1.5H19.501V2.4975H21.5025V1.5Z" fill="#000001"/>
<path id="Vector_4" d="M20.4985 14.5002H19.501V16.4952H20.4985V14.5002Z" fill="#000001"/>
<path id="Vector_5" d="M19.5009 16.4954H18.4968V17.4994H19.5009V16.4954Z" fill="#000001"/>
<path id="Vector_6" d="M19.5009 2.49756H18.4968V3.50162H19.5009V2.49756Z" fill="#000001"/>
<path id="Vector_7" d="M18.4968 17.4993H17.4993V18.4968H18.4968V17.4993Z" fill="#000001"/>
<path id="Vector_8" d="M18.4968 8.49561H17.4993V9.49967H18.4968V8.49561Z" fill="#000001"/>
<path id="Vector_9" d="M18.4968 3.50146H17.4993V4.49896H18.4968V3.50146Z" fill="#000001"/>
<path id="Vector_10" d="M17.4995 9.49976H16.502V10.4973H17.4995V9.49976Z" fill="#000001"/>
<path id="Vector_11" d="M17.4994 18.4968H15.4978V19.5009H17.4994V18.4968Z" fill="#000001"/>
<path id="Vector_12" d="M16.5019 10.4971H15.4978V11.5011H16.5019V10.4971Z" fill="#000001"/>
<path id="Vector_13" d="M15.4979 11.5012H13.4963V12.4987H15.4979V11.5012Z" fill="#000001"/>
<path id="Vector_14" d="M15.4979 19.501H13.4963V20.4985H15.4979V19.501Z" fill="#000001"/>
<path id="Vector_15" d="M13.4962 12.4988H11.5012V13.4963H13.4962V12.4988Z" fill="#000001"/>
<path id="Vector_16" d="M13.4963 20.4985H5.49658V21.496H13.4963V20.4985Z" fill="#000001"/>
<path id="Vector_17" d="M12.4988 7.49805H9.4997V8.49555H10.4972V9.49961H9.4997V8.49555H8.5022V10.4971H9.4997V11.5012H12.4988V10.4971H11.5013V9.49961H12.4988V10.4971H13.4963V8.49555H12.4988V7.49805Z" fill="#000001"/>
<path id="Vector_18" d="M11.5013 13.4963H9.49976V14.5004H11.5013V13.4963Z" fill="#000001"/>
<path id="Vector_19" d="M9.49961 14.5002H7.49805V15.4977H9.49961V14.5002Z" fill="#000001"/>
<path id="Vector_20" d="M12.4987 6.50059V5.49652H17.4993V4.49902H11.5012V5.49652H7.49805V6.50059H12.4987Z" fill="#000001"/>
<path id="Vector_21" d="M7.49823 15.4978H6.50073V16.4953H7.49823V15.4978Z" fill="#000001"/>
<path id="Vector_22" d="M7.49814 6.50073H5.49658V7.49823H7.49814V6.50073Z" fill="#000001"/>
<path id="Vector_23" d="M6.50064 16.4954H5.49658V17.4994H6.50064V16.4954Z" fill="#000001"/>
<path id="Vector_24" d="M5.49652 19.501H4.49902V20.4985H5.49652V19.501Z" fill="#000001"/>
<path id="Vector_25" d="M5.49652 17.4993H4.49902V18.4968H5.49652V17.4993Z" fill="#000001"/>
<path id="Vector_26" d="M5.49652 7.49805H4.49902V8.49555H5.49652V7.49805Z" fill="#000001"/>
<path id="Vector_27" d="M4.49896 18.4968H3.50146V19.5009H4.49896V18.4968Z" fill="#000001"/>
<path id="Vector_28" d="M4.49896 8.49561H3.50146V9.49967H4.49896V8.49561Z" fill="#000001"/>
<path id="Vector_29" d="M3.50162 19.501H2.49756V20.4985H3.50162V19.501Z" fill="#000001"/>
<path id="Vector_30" d="M3.50162 17.4993H2.49756V18.4968H3.50162V17.4993Z" fill="#000001"/>
<path id="Vector_31" d="M3.50162 9.49976H2.49756V11.5013H3.50162V9.49976Z" fill="#000001"/>
<path id="Vector_32" d="M2.4975 20.4985H1.5V22.5001H2.4975V20.4985Z" fill="#000001"/>
<path id="Vector_33" d="M2.4975 11.5012H1.5V17.4993H2.4975V11.5012Z" fill="#000001"/>
</g>
</g>
</svg>
