<svg width="24" height="24" viewBox="0 0 24 24" fill="none" xmlns="http://www.w3.org/2000/svg">
<g id="email-mailbox-close">
<g id="Group">
<path id="Vector" d="M21.0006 7.49805H19.9966V15.4977H21.0006V7.49805Z" fill="#000001"/>
<path id="Vector_2" d="M19.9965 6.50073H18.999V7.49823H19.9965V6.50073Z" fill="#000001"/>
<path id="Vector_3" d="M3.99701 16.5019H9.99514V22.5H10.9992V16.5019H13.9983V22.5H14.9958V16.5019H19.9964V15.4978H10.9992V7.49813H9.99514V6.50062H13.9983V9.49969H14.9958V6.50062H18.9989V5.49656H14.9958V4.49906H17.9948V1.5H13.9983V5.49656H4.99451V6.50062H3.99701V7.49813H2.99951V15.4978H3.99701V16.5019ZM14.9958 2.4975H16.9973V3.50156H14.9958V2.4975ZM3.99701 8.49562H4.99451V7.49813H6.99607V8.49562H4.99451V13.4963H3.99701V8.49562Z" fill="#000001"/>
</g>
</g>
</svg>
