<svg width="24" height="24" viewBox="0 0 24 24" fill="none" xmlns="http://www.w3.org/2000/svg">
<g id="email-mailbox">
<g id="Group">
<path id="Vector" d="M3.49848 18.5035H8.4991V21.5026H9.4966V18.5035H15.5013V21.5026H16.4988V18.5035H20.5019V21.5026H21.4994V6.50068H20.5019V17.4994H9.4966V6.50068H8.4991V4.49912H7.5016V3.50162H18.5004V2.49756H5.50004V3.50162H4.49598V4.49912H3.49848V6.50068H4.49598V5.50318H5.50004V4.49912H6.49754V5.50318H5.50004V6.50068H4.49598V16.5019H3.49848V6.50068H2.50098V21.5026H3.49848V18.5035Z" fill="#000001"/>
<path id="Vector_2" d="M20.5021 4.49902H19.498V6.50059H20.5021V4.49902Z" fill="#000001"/>
<path id="Vector_3" d="M19.498 3.50171H18.5005V4.49921H19.498V3.50171Z" fill="#000001"/>
<path id="Vector_4" d="M17.4962 9.49976H12.5021V10.5038H11.498V14.5004H12.5021V11.5013H13.4996V10.5038H16.4987V11.5013H17.4962V14.5004H18.5002V10.5038H17.4962V9.49976Z" fill="#000001"/>
<path id="Vector_5" d="M11.498 7.49817H17.4961V6.50067H18.5002V5.50317H10.5005V6.50067H11.498V7.49817Z" fill="#000001"/>
<path id="Vector_6" d="M17.4965 14.5005H12.5024V15.498H17.4965V14.5005Z" fill="#000001"/>
<path id="Vector_7" d="M16.499 11.5012H15.5015V12.4987H16.499V11.5012Z" fill="#000001"/>
<path id="Vector_8" d="M15.5011 12.4988H14.4971V13.5028H15.5011V12.4988Z" fill="#000001"/>
<path id="Vector_9" d="M14.497 11.5012H13.4995V12.4987H14.497V11.5012Z" fill="#000001"/>
</g>
</g>
</svg>
