<svg width="24" height="24" viewBox="0 0 24 24" fill="none" xmlns="http://www.w3.org/2000/svg">
<g id="email-envelope">
<g id="Group">
<path id="Vector" d="M21.496 7.50141H20.4985V8.50547H21.496V9.50297H20.4985V10.5005H21.496V11.5045H20.4985V12.502H21.496V13.4995H20.4985V14.5036H21.496V15.5011H20.4985V16.5052H21.496V17.5027H22.5001V6.50391H21.496V7.50141Z" fill="#000001"/>
<path id="Vector_2" d="M19.501 16.5051H18.4969V17.5026H17.4994V16.5051H16.5019V17.5026H15.4979V16.5051H14.5004V17.5026H13.4963V16.5051H12.4988V17.5026H11.5013V16.5051H10.4972V17.5026H9.49975V16.5051H8.49568V17.5026H7.49818V16.5051H6.50068V17.5026H5.49662V16.5051H4.49912V17.5026H2.49756V18.5001H21.496V17.5026H19.501V16.5051Z" fill="#000001"/>
<path id="Vector_3" d="M18.4971 8.50537H16.5021V9.50287H15.498V11.5044H16.5021V12.5019H18.4971V11.5044H19.5012V9.50287H18.4971V8.50537Z" fill="#000001"/>
<path id="Vector_4" d="M10.4971 14.5034H4.49902V15.5009H10.4971V14.5034Z" fill="#000001"/>
<path id="Vector_5" d="M8.49559 12.502H4.49902V13.4995H8.49559V12.502Z" fill="#000001"/>
<path id="Vector_6" d="M4.49912 7.50132H5.49662V6.50382H6.50068V7.50132H7.49818V6.50382H8.49568V7.50132H9.49975V6.50382H10.4972V7.50132H11.5013V6.50382H12.4988V7.50132H13.4963V6.50382H14.5004V7.50132H15.4979V6.50382H16.5019V7.50132H17.4994V6.50382H18.4969V7.50132H19.501V6.50382H21.496V5.49976H2.49756V6.50382H4.49912V7.50132Z" fill="#000001"/>
<path id="Vector_7" d="M3.50156 16.5052V15.5011H2.4975V14.5036H3.50156V13.4995H2.4975V12.502H3.50156V11.5045H2.4975V10.5005H3.50156V9.50297H2.4975V8.50547H3.50156V7.50141H2.4975V6.50391H1.5V17.5027H2.4975V16.5052H3.50156Z" fill="#000001"/>
</g>
</g>
</svg>
