<svg width="24" height="24" viewBox="0 0 24 24" fill="none" xmlns="http://www.w3.org/2000/svg">
<g id="email-mail-chat">
<g id="Group">
<path id="Vector" d="M16.0031 11.5011V12.4986H14.0015V13.5027H8.00342V14.5002H11.0025V15.4977H12V16.5017H13.004V17.4992H17.0006V18.4967H18.0047V19.5008H19.0022V20.4983H19.9997V16.5017H21.0037V15.4977H22.0012V11.5011H21.0037V10.4971H19.9997V9.49955H18.0047V6.50049H17.0006V11.5011H16.0031Z" fill="#000001"/>
<path id="Vector_2" d="M17.0004 5.49658H16.0029V6.50064H17.0004V5.49658Z" fill="#000001"/>
<path id="Vector_3" d="M14.9989 8.5022H13.0039V10.4972H14.9989V8.5022Z" fill="#000001"/>
<path id="Vector_4" d="M16.003 4.49902H14.0015V5.49652H16.003V4.49902Z" fill="#000001"/>
<path id="Vector_5" d="M11.0021 8.5022H9.00049V10.4972H11.0021V8.5022Z" fill="#000001"/>
<path id="Vector_6" d="M8.00309 14.5002H6.99902V15.4977H8.00309V14.5002Z" fill="#000001"/>
<path id="Vector_7" d="M14.0012 3.50146H6.00146V4.49896H14.0012V3.50146Z" fill="#000001"/>
<path id="Vector_8" d="M6.00189 13.5027H5.00439V17.4992H6.00189V16.5017H6.99939V15.4977H6.00189V13.5027Z" fill="#000001"/>
<path id="Vector_9" d="M6.99939 8.5022H5.00439V10.4972H6.99939V8.5022Z" fill="#000001"/>
<path id="Vector_10" d="M6.00156 4.49902H4V5.49652H6.00156V4.49902Z" fill="#000001"/>
<path id="Vector_11" d="M5.00406 12.4985H4V13.5026H5.00406V12.4985Z" fill="#000001"/>
<path id="Vector_12" d="M3.99994 11.5012H3.00244V12.4987H3.99994V11.5012Z" fill="#000001"/>
<path id="Vector_13" d="M3.99994 5.49658H3.00244V6.50064H3.99994V5.49658Z" fill="#000001"/>
<path id="Vector_14" d="M3.0026 6.50049H1.99854V11.5011H3.0026V6.50049Z" fill="#000001"/>
</g>
</g>
</svg>
