<svg width="24" height="24" viewBox="0 0 24 24" fill="none" xmlns="http://www.w3.org/2000/svg">
<g id="email-mailbox-open">
<g id="Group">
<path id="Vector" d="M22.5002 7.49805H21.4961V15.4977H22.5002V7.49805Z" fill="#000001"/>
<path id="Vector_2" d="M21.496 6.50073H20.4985V7.49823H21.496V6.50073Z" fill="#000001"/>
<path id="Vector_3" d="M12.4987 15.4978V7.49813H11.5012V6.50062H15.4977V9.49969H16.4952V6.50062H20.4983V5.50312H16.4952V4.49906H19.5008V1.5H15.4977V5.50312H6.50053V6.50062H5.49646V7.49813H4.49896V15.4978H3.50146V16.5019H10.4971V17.4994H11.5012V22.5H12.4987V16.5019H15.4977V22.5H16.4952V16.5019H21.4958V15.4978H12.4987ZM16.4952 2.4975H18.4968V3.50156H16.4952V2.4975ZM11.5012 13.5028H10.4971V14.5003H11.5012V15.4978H6.50053V9.49969H11.5012V13.5028Z" fill="#000001"/>
<path id="Vector_4" d="M10.497 12.4988H9.49951V13.5028H10.497V12.4988Z" fill="#000001"/>
<path id="Vector_5" d="M10.497 17.4993H8.50195V18.4968H10.497V17.4993Z" fill="#000001"/>
<path id="Vector_6" d="M8.50211 11.5011V10.4971H7.49805V11.5011H8.49555V12.4986H9.49961V11.5011H8.50211Z" fill="#000001"/>
<path id="Vector_7" d="M8.50211 18.4968H7.49805V19.5009H8.50211V18.4968Z" fill="#000001"/>
<path id="Vector_8" d="M7.49818 19.501H2.49756V20.4985H7.49818V19.501Z" fill="#000001"/>
<path id="Vector_9" d="M3.50162 16.502H2.49756V17.4995H3.50162V16.502Z" fill="#000001"/>
<path id="Vector_10" d="M2.4975 17.4993H1.5V19.5008H2.4975V17.4993Z" fill="#000001"/>
</g>
</g>
</svg>
