<svg width="24" height="24" viewBox="0 0 24 24" fill="none" xmlns="http://www.w3.org/2000/svg">
<g id="email-forward-mail">
<g id="Group">
<path id="Vector" d="M21.4959 13.5028H20.4984V12.5053H19.5009V11.5012H18.4969V12.5053H17.4994V13.5028H15.4978V14.5003H14.5003V16.5018H9.49969V15.5043H8.49562V14.5003H7.49813V13.5028H6.50062V11.5012H4.49906V12.5053H3.50156V13.5028H2.4975V14.5003H1.5V21.5025H2.4975V16.5018H8.49562V17.4993H9.49969V18.5034H14.5003V17.4993H15.4978V16.5018H21.4959V21.5025H22.5V14.5003H21.4959V13.5028Z" fill="#000001"/>
<path id="Vector_2" d="M21.496 6.50073H20.4985V7.50479H21.496V6.50073Z" fill="#000001"/>
<path id="Vector_3" d="M21.496 21.5024H2.49756V22.4999H21.496V21.5024Z" fill="#000001"/>
<path id="Vector_4" d="M20.4985 7.50464H19.501V8.50214H20.4985V7.50464Z" fill="#000001"/>
<path id="Vector_5" d="M20.4985 5.50317H19.501V6.50067H20.4985V5.50317Z" fill="#000001"/>
<path id="Vector_6" d="M19.5011 8.5022H18.4971V9.4997H19.5011V8.5022Z" fill="#000001"/>
<path id="Vector_7" d="M19.5011 4.50562H18.4971V5.50312H19.5011V4.50562Z" fill="#000001"/>
<path id="Vector_8" d="M18.497 9.49976H17.4995V10.5038H18.497V9.49976Z" fill="#000001"/>
<path id="Vector_9" d="M18.497 3.50146H17.4995V4.50553H18.497V3.50146Z" fill="#000001"/>
<path id="Vector_10" d="M17.4995 10.5037H16.502V11.5012H17.4995V10.5037Z" fill="#000001"/>
<path id="Vector_11" d="M17.4995 2.50415H16.502V3.50165H17.4995V2.50415Z" fill="#000001"/>
<path id="Vector_12" d="M16.5021 18.5034H15.498V19.5009H16.5021V18.5034Z" fill="#000001"/>
<path id="Vector_13" d="M15.4976 9.49976H12.4985V10.5038H14.5001V12.5054H16.5017V11.5013H15.4976V9.49976Z" fill="#000001"/>
<path id="Vector_14" d="M15.4978 19.501H8.49561V20.505H15.4978V19.501Z" fill="#000001"/>
<path id="Vector_15" d="M10.4971 14.5004V15.5045H13.4961V13.5029H12.4986V14.5004H10.4971Z" fill="#000001"/>
<path id="Vector_16" d="M12.499 10.5037H11.5015V13.5027H12.499V10.5037Z" fill="#000001"/>
<path id="Vector_17" d="M14.5002 1.5V4.50562H10.4971V5.50312H15.4977V2.50406H16.5018V1.5H14.5002Z" fill="#000001"/>
<path id="Vector_18" d="M10.497 13.5029H9.49951V14.5004H10.497V13.5029Z" fill="#000001"/>
<path id="Vector_19" d="M10.497 5.50317H9.49951V6.50067H10.497V5.50317Z" fill="#000001"/>
<path id="Vector_20" d="M9.49967 11.5012H8.49561V13.5028H9.49967V11.5012Z" fill="#000001"/>
<path id="Vector_21" d="M9.49967 6.50073H8.49561V7.50479H9.49967V6.50073Z" fill="#000001"/>
<path id="Vector_22" d="M8.49555 18.5034H7.49805V19.5009H8.49555V18.5034Z" fill="#000001"/>
<path id="Vector_23" d="M8.49555 7.50464H7.49805V11.5012H8.49555V7.50464Z" fill="#000001"/>
</g>
</g>
</svg>
