<svg width="24" height="24" viewBox="0 0 24 24" fill="none" xmlns="http://www.w3.org/2000/svg">
<g id="email-envelope-open">
<g id="Group">
<path id="Vector" d="M21.496 10.4973H20.4985V11.5013H21.496V20.4985H22.5001V9.49976H21.496V10.4973Z" fill="#000001"/>
<path id="Vector_2" d="M21.496 8.5022H20.4985V9.4997H21.496V8.5022Z" fill="#000001"/>
<path id="Vector_3" d="M19.501 21.5026H4.49912V20.4985H2.49756V21.5026H3.50162V22.5001H20.4985V21.5026H21.496V20.4985H19.501V21.5026Z" fill="#000001"/>
<path id="Vector_4" d="M20.4985 7.49805H19.501V8.50211H20.4985V7.49805Z" fill="#000001"/>
<path id="Vector_5" d="M19.5011 19.501H18.4971V20.4985H19.5011V19.501Z" fill="#000001"/>
<path id="Vector_6" d="M3.50146 11.5012V12.4987H5.49646V13.5028H7.49803V14.5003H9.49959V15.4978H14.5002V14.5003H16.4952V13.5028H18.4968V12.4987H20.4983V11.5012H3.50146Z" fill="#000001"/>
<path id="Vector_7" d="M19.5011 6.50073H18.4971V7.49823H19.5011V6.50073Z" fill="#000001"/>
<path id="Vector_8" d="M18.497 18.4968H17.4995V19.5009H18.497V18.4968Z" fill="#000001"/>
<path id="Vector_9" d="M18.497 5.50317H17.4995V6.50067H18.497V5.50317Z" fill="#000001"/>
<path id="Vector_10" d="M17.4992 17.4993H16.4951V18.4968H17.4992V17.4993Z" fill="#000001"/>
<path id="Vector_11" d="M17.4992 4.49902H16.4951V5.50309H17.4992V4.49902Z" fill="#000001"/>
<path id="Vector_12" d="M16.4955 16.502H15.498V17.4995H16.4955V16.502Z" fill="#000001"/>
<path id="Vector_13" d="M16.4955 3.50146H15.498V4.49896H16.4955V3.50146Z" fill="#000001"/>
<path id="Vector_14" d="M15.498 15.4978H14.5005V16.5019H15.498V15.4978Z" fill="#000001"/>
<path id="Vector_15" d="M15.498 2.49756H14.5005V3.50162H15.498V2.49756Z" fill="#000001"/>
<path id="Vector_16" d="M14.5001 1.5H9.49951V2.4975H14.5001V1.5Z" fill="#000001"/>
<path id="Vector_17" d="M9.49967 15.4978H8.49561V16.5019H9.49967V15.4978Z" fill="#000001"/>
<path id="Vector_18" d="M9.49967 2.49756H8.49561V3.50162H9.49967V2.49756Z" fill="#000001"/>
<path id="Vector_19" d="M8.49555 16.502H7.49805V17.4995H8.49555V16.502Z" fill="#000001"/>
<path id="Vector_20" d="M8.49555 3.50146H7.49805V4.49896H8.49555V3.50146Z" fill="#000001"/>
<path id="Vector_21" d="M7.49799 17.4993H6.50049V18.4968H7.49799V17.4993Z" fill="#000001"/>
<path id="Vector_22" d="M7.49799 4.49902H6.50049V5.50309H7.49799V4.49902Z" fill="#000001"/>
<path id="Vector_23" d="M6.50064 18.4968H5.49658V19.5009H6.50064V18.4968Z" fill="#000001"/>
<path id="Vector_24" d="M6.50064 5.50317H5.49658V6.50067H6.50064V5.50317Z" fill="#000001"/>
<path id="Vector_25" d="M5.49652 19.501H4.49902V20.4985H5.49652V19.501Z" fill="#000001"/>
<path id="Vector_26" d="M5.49652 6.50073H4.49902V7.49823H5.49652V6.50073Z" fill="#000001"/>
<path id="Vector_27" d="M4.49896 7.49805H3.50146V8.50211H4.49896V7.49805Z" fill="#000001"/>
<path id="Vector_28" d="M3.50162 8.5022H2.49756V9.4997H3.50162V8.5022Z" fill="#000001"/>
<path id="Vector_29" d="M2.4975 11.5013H3.50156V10.4973H2.4975V9.49976H1.5V20.4985H2.4975V11.5013Z" fill="#000001"/>
</g>
</g>
</svg>
