<svg width="24" height="24" viewBox="0 0 24 24" fill="none" xmlns="http://www.w3.org/2000/svg">
<g id="email-envelope-close">
<g id="Group">
<path id="Vector" d="M22.5002 5.50293H21.4961V18.4967H22.5002V5.50293Z" fill="#000001"/>
<path id="Vector_2" d="M21.496 18.4968H20.4985V19.5009H21.496V18.4968Z" fill="#000001"/>
<path id="Vector_3" d="M21.496 4.49902H20.4985V5.50309H21.496V4.49902Z" fill="#000001"/>
<path id="Vector_4" d="M20.4985 6.50049H19.501V8.50205H20.4985V6.50049Z" fill="#000001"/>
<path id="Vector_5" d="M20.4983 19.5007H3.50146V20.4982H20.4983V19.5007Z" fill="#000001"/>
<path id="Vector_6" d="M19.5011 16.5017H18.4971V17.4992H19.5011V16.5017Z" fill="#000001"/>
<path id="Vector_7" d="M19.5011 8.5022H18.4971V9.4997H19.5011V8.5022Z" fill="#000001"/>
<path id="Vector_8" d="M18.497 15.4978H17.4995V16.5019H18.497V15.4978Z" fill="#000001"/>
<path id="Vector_9" d="M18.497 9.49951H17.4995V10.497H18.497V9.49951Z" fill="#000001"/>
<path id="Vector_10" d="M17.4992 14.5002H16.4951V15.4977H17.4992V14.5002Z" fill="#000001"/>
<path id="Vector_11" d="M17.4992 10.4971H16.4951V11.5011H17.4992V10.4971Z" fill="#000001"/>
<path id="Vector_12" d="M16.4955 13.5027H15.498V14.5002H16.4955V13.5027Z" fill="#000001"/>
<path id="Vector_13" d="M16.4955 11.5012H15.498V12.4987H16.4955V11.5012Z" fill="#000001"/>
<path id="Vector_14" d="M15.4977 12.4985H13.4961V13.5026H15.4977V12.4985Z" fill="#000001"/>
<path id="Vector_15" d="M13.4961 13.5027H10.4971V14.5002H13.4961V13.5027Z" fill="#000001"/>
<path id="Vector_16" d="M10.4972 12.4985H8.49561V13.5026H10.4972V12.4985Z" fill="#000001"/>
<path id="Vector_17" d="M8.49555 13.5027H7.49805V14.5002H8.49555V13.5027Z" fill="#000001"/>
<path id="Vector_18" d="M8.49555 11.5012H7.49805V12.4987H8.49555V11.5012Z" fill="#000001"/>
<path id="Vector_19" d="M7.49799 14.5002H6.50049V15.4977H7.49799V14.5002Z" fill="#000001"/>
<path id="Vector_20" d="M7.49799 10.4971H6.50049V11.5011H7.49799V10.4971Z" fill="#000001"/>
<path id="Vector_21" d="M6.50064 15.4978H5.49658V16.5019H6.50064V15.4978Z" fill="#000001"/>
<path id="Vector_22" d="M6.50064 9.49951H5.49658V10.497H6.50064V9.49951Z" fill="#000001"/>
<path id="Vector_23" d="M5.49652 16.5017H4.49902V17.4992H5.49652V16.5017Z" fill="#000001"/>
<path id="Vector_24" d="M5.49652 8.5022H4.49902V9.4997H5.49652V8.5022Z" fill="#000001"/>
<path id="Vector_25" d="M20.4983 3.50146H3.50146V4.49896H20.4983V3.50146Z" fill="#000001"/>
<path id="Vector_26" d="M4.49896 6.50049H3.50146V8.50205H4.49896V6.50049Z" fill="#000001"/>
<path id="Vector_27" d="M3.50162 18.4968H2.49756V19.5009H3.50162V18.4968Z" fill="#000001"/>
<path id="Vector_28" d="M3.50162 4.49902H2.49756V5.50309H3.50162V4.49902Z" fill="#000001"/>
<path id="Vector_29" d="M2.4975 5.50293H1.5V18.4967H2.4975V5.50293Z" fill="#000001"/>
</g>
</g>
</svg>
