<svg width="24" height="24" viewBox="0 0 24 24" fill="none" xmlns="http://www.w3.org/2000/svg">
<g id="email-tray">
<g id="Group">
<path id="Vector" d="M21.4959 13.5029H20.4984V11.5013H19.5009V10.5038H18.4969V2.50415H17.4994V3.50165H16.5019V4.50571H17.4994V10.5038H11.5012V6.50071H15.4978V5.50321H6.50062V6.50071H10.4972V10.5038H9.49969V11.5013H8.49562V16.502H7.49813V17.4995H8.49562V18.5035H15.4978V17.4995H9.49969V12.5054H10.4972V11.5013H18.4969V12.5054H19.5009V15.5045H16.5019V16.502H21.4959V17.4995H16.5019V18.5035H15.4978V19.501H8.49562V18.5035H7.49813V17.4995H2.4975V16.502H7.49813V15.5045H4.49906V4.50571H5.49656V3.50165H4.49906V2.50415H3.50156V13.5029H2.4975V14.5004H1.5V21.5026H2.4975V22.5001H21.4959V21.5026H22.5V14.5004H21.4959V13.5029Z" fill="#000001"/>
<path id="Vector_2" d="M18.497 12.5054H17.4995V13.5029H18.497V12.5054Z" fill="#000001"/>
<path id="Vector_3" d="M17.4995 13.5029H16.502V14.5004H17.4995V13.5029Z" fill="#000001"/>
<path id="Vector_4" d="M16.5021 16.502H15.498V17.4995H16.5021V16.502Z" fill="#000001"/>
<path id="Vector_5" d="M16.5017 14.5002H12.4985V15.5043H16.5017V14.5002Z" fill="#000001"/>
<path id="Vector_6" d="M16.5021 4.50562H15.498V5.50312H16.5021V4.50562Z" fill="#000001"/>
<path id="Vector_7" d="M12.499 13.5029H11.5015V14.5004H12.499V13.5029Z" fill="#000001"/>
<path id="Vector_8" d="M11.5011 12.5054H10.4971V13.5029H11.5011V12.5054Z" fill="#000001"/>
<path id="Vector_9" d="M6.50064 4.50562H5.49658V5.50312H6.50064V4.50562Z" fill="#000001"/>
<path id="Vector_10" d="M17.4993 1.5H4.49902V2.50406H17.4993V1.5Z" fill="#000001"/>
</g>
</g>
</svg>
