<svg width="24" height="24" viewBox="0 0 24 24" fill="none" xmlns="http://www.w3.org/2000/svg">
<g id="email-chat-think">
<g id="Group">
<path id="Vector" d="M3.0026 21.9978H4.0001V21.0003H4.9976V20.0028H4.0001V18.9988H3.0026V20.0028H1.99854V21.0003H3.0026V21.9978Z" fill="#000001"/>
<path id="Vector_2" d="M6.00162 8H4.99756V12.0031H6.00162V8Z" fill="#000001"/>
<path id="Vector_3" d="M6.99906 18.9988V18.0013H7.99656V15.9997H6.99906V15.0022H4.9975V15.9997H4V18.0013H4.9975V18.9988H6.99906Z" fill="#000001"/>
<path id="Vector_4" d="M6.99896 12.0032H6.00146V13.0007H6.99896V12.0032Z" fill="#000001"/>
<path id="Vector_5" d="M6.99896 5.99854H6.00146V8.0001H6.99896V5.99854Z" fill="#000001"/>
<path id="Vector_6" d="M7.99652 13.0007H6.99902V13.9982H7.99652V13.0007Z" fill="#000001"/>
<path id="Vector_7" d="M7.99652 3.99707H6.99902V5.99863H7.99652V3.99707Z" fill="#000001"/>
<path id="Vector_8" d="M9.99814 13.9983H7.99658V15.0024H9.99814V13.9983Z" fill="#000001"/>
<path id="Vector_9" d="M9.99799 8.99756H9.00049V10.0016H9.99799V8.99756Z" fill="#000001"/>
<path id="Vector_10" d="M9.99814 2.99951H7.99658V3.99701H9.99814V2.99951Z" fill="#000001"/>
<path id="Vector_11" d="M17.0002 2.00195H9.99805V2.99945H17.0002V2.00195Z" fill="#000001"/>
<path id="Vector_12" d="M14.0011 8.99756H12.9971V10.0016H14.0011V8.99756Z" fill="#000001"/>
<path id="Vector_13" d="M17.0002 15.0022H9.99805V15.9997H17.0002V15.0022Z" fill="#000001"/>
<path id="Vector_14" d="M19.0021 13.9983H17.0005V15.0024H19.0021V13.9983Z" fill="#000001"/>
<path id="Vector_15" d="M17.998 8.99756H17.0005V10.0016H17.998V8.99756Z" fill="#000001"/>
<path id="Vector_16" d="M19.0021 2.99951H17.0005V3.99701H19.0021V2.99951Z" fill="#000001"/>
<path id="Vector_17" d="M19.9995 13.0007H19.002V13.9982H19.9995V13.0007Z" fill="#000001"/>
<path id="Vector_18" d="M19.9995 3.99707H19.002V5.00113H19.9995V3.99707Z" fill="#000001"/>
<path id="Vector_19" d="M20.997 10.999H19.9995V13.0006H20.997V10.999Z" fill="#000001"/>
<path id="Vector_20" d="M20.997 5.00098H19.9995V7.00254H20.997V5.00098Z" fill="#000001"/>
<path id="Vector_21" d="M22.0011 7.00269H20.9971V10.9992H22.0011V7.00269Z" fill="#000001"/>
</g>
</g>
</svg>
