<svg width="24" height="24" viewBox="0 0 24 24" fill="none" xmlns="http://www.w3.org/2000/svg">
<g id="email-mail-open-address">
<g id="Group">
<path id="Vector" d="M21.5025 9.49974V8.50224H20.4984V7.49817H19.5009V5.50317H18.5034V13.5029H19.5009V12.4988H20.4984V11.5013H21.5025V20.4985H22.5V9.49974H21.5025Z" fill="#000001"/>
<path id="Vector_2" d="M21.5026 20.4985H20.4985V21.5026H21.5026V20.4985Z" fill="#000001"/>
<path id="Vector_3" d="M20.4983 21.5024H3.50146V22.4999H20.4983V21.5024Z" fill="#000001"/>
<path id="Vector_4" d="M18.5036 13.5029H17.4995V14.5004H18.5036V13.5029Z" fill="#000001"/>
<path id="Vector_5" d="M17.4995 18.5034H16.502V19.5009H17.4995V18.5034Z" fill="#000001"/>
<path id="Vector_6" d="M17.4995 14.5002H16.502V15.4977H17.4995V14.5002Z" fill="#000001"/>
<path id="Vector_7" d="M16.5021 17.4993H15.498V18.5033H16.5021V17.4993Z" fill="#000001"/>
<path id="Vector_8" d="M16.5021 15.4978H15.498V16.5019H16.5021V15.4978Z" fill="#000001"/>
<path id="Vector_9" d="M16.5021 8.5022H15.498V11.5013H16.5021V8.5022Z" fill="#000001"/>
<path id="Vector_10" d="M15.498 7.49805H14.5005V8.50211H15.498V7.49805Z" fill="#000001"/>
<path id="Vector_11" d="M15.4976 16.502H8.50195V17.4995H15.4976V16.502Z" fill="#000001"/>
<path id="Vector_12" d="M15.4979 11.5012H13.5029V12.4987H15.4979V11.5012Z" fill="#000001"/>
<path id="Vector_13" d="M13.503 8.5022H10.5039V9.4997H12.4989V11.5013H13.503V8.5022Z" fill="#000001"/>
<path id="Vector_14" d="M12.4989 11.5012H10.5039V12.4987H12.4989V11.5012Z" fill="#000001"/>
<path id="Vector_15" d="M14.5001 6.50073H9.49951V7.49823H14.5001V6.50073Z" fill="#000001"/>
<path id="Vector_16" d="M14.5001 13.5029H9.49951V14.5004H14.5001V13.5029Z" fill="#000001"/>
<path id="Vector_17" d="M10.5036 9.49976H9.49951V11.5013H10.5036V9.49976Z" fill="#000001"/>
<path id="Vector_18" d="M9.49945 12.4988H8.50195V13.5028H9.49945V12.4988Z" fill="#000001"/>
<path id="Vector_19" d="M9.49945 7.49805H8.50195V8.50211H9.49945V7.49805Z" fill="#000001"/>
<path id="Vector_20" d="M8.50211 17.4993H7.49805V18.5033H8.50211V17.4993Z" fill="#000001"/>
<path id="Vector_21" d="M8.50211 15.4978H7.49805V16.5019H8.50211V15.4978Z" fill="#000001"/>
<path id="Vector_22" d="M8.50211 8.5022H7.49805V12.4988H8.50211V8.5022Z" fill="#000001"/>
<path id="Vector_23" d="M7.49799 18.5034H6.50049V19.5009H7.49799V18.5034Z" fill="#000001"/>
<path id="Vector_24" d="M7.49799 14.5002H6.50049V15.4977H7.49799V14.5002Z" fill="#000001"/>
<path id="Vector_25" d="M18.5032 5.50312V4.49906H16.5017V3.50156H15.4976V2.4975H14.5001V1.5H9.49949V2.4975H8.50199V3.50156H7.49793V4.49906H5.50293V5.50312H18.5032Z" fill="#000001"/>
<path id="Vector_26" d="M6.50043 13.5029H5.50293V14.5004H6.50043V13.5029Z" fill="#000001"/>
<path id="Vector_27" d="M3.50162 20.4985H2.49756V21.5026H3.50162V20.4985Z" fill="#000001"/>
<path id="Vector_28" d="M2.4975 11.5013H3.50156V12.4988H4.49906V13.5029H5.50312V5.50317H4.49906V7.49817H3.50156V8.50224H2.4975V9.49974H1.5V20.4985H2.4975V11.5013Z" fill="#000001"/>
</g>
</g>
</svg>
