<svg width="24" height="24" viewBox="0 0 24 24" fill="none" xmlns="http://www.w3.org/2000/svg">
<g id="email-emoji-smile-smart">
<g id="Group">
<path id="Vector" d="M22.4999 9.49976H21.5024V14.5004H22.4999V9.49976Z" fill="#000001"/>
<path id="Vector_2" d="M21.5026 14.5002H20.4985V16.4952H21.5026V14.5002Z" fill="#000001"/>
<path id="Vector_3" d="M20.4985 16.4954H19.501V18.4969H20.4985V16.4954Z" fill="#000001"/>
<path id="Vector_4" d="M20.4985 5.49658H19.501V7.49814H20.4985V5.49658Z" fill="#000001"/>
<path id="Vector_5" d="M19.5009 18.4968H18.5034V19.4943H19.5009V18.4968Z" fill="#000001"/>
<path id="Vector_6" d="M19.5009 4.49902H18.5034V5.49652H19.5009V4.49902Z" fill="#000001"/>
<path id="Vector_7" d="M18.5035 19.4944H16.502V20.4984H18.5035V19.4944Z" fill="#000001"/>
<path id="Vector_8" d="M18.5035 3.49512H16.502V4.49918H18.5035V3.49512Z" fill="#000001"/>
<path id="Vector_9" d="M16.5021 20.4985H14.5005V21.496H16.5021V20.4985Z" fill="#000001"/>
<path id="Vector_10" d="M16.5021 2.49756H14.5005V3.49506H16.5021V2.49756Z" fill="#000001"/>
<path id="Vector_11" d="M14.5001 21.4958H9.49951V22.4999H14.5001V21.4958Z" fill="#000001"/>
<path id="Vector_12" d="M14.5005 16.4954H10.5039V17.4994H14.5005V16.4954Z" fill="#000001"/>
<path id="Vector_13" d="M14.5001 1.5H9.49951V2.4975H14.5001V1.5Z" fill="#000001"/>
<path id="Vector_14" d="M10.5036 15.4978H9.49951V16.4953H10.5036V15.4978Z" fill="#000001"/>
<path id="Vector_15" d="M9.49961 20.4985H7.49805V21.496H9.49961V20.4985Z" fill="#000001"/>
<path id="Vector_16" d="M9.49961 2.49756H7.49805V3.49506H9.49961V2.49756Z" fill="#000001"/>
<path id="Vector_17" d="M7.49793 19.4944H5.50293V20.4984H7.49793V19.4944Z" fill="#000001"/>
<path id="Vector_18" d="M7.49793 3.49512H5.50293V4.49918H7.49793V3.49512Z" fill="#000001"/>
<path id="Vector_19" d="M5.50309 18.4968H4.49902V19.4943H5.50309V18.4968Z" fill="#000001"/>
<path id="Vector_20" d="M5.50309 4.49902H4.49902V5.49652H5.50309V4.49902Z" fill="#000001"/>
<path id="Vector_21" d="M4.49896 16.4954H3.50146V18.4969H4.49896V16.4954Z" fill="#000001"/>
<path id="Vector_22" d="M3.50141 11.4946H4.49891V12.4987H5.50297V13.4962H9.49953V12.4987H10.5036V11.4946H11.5011V10.4971H13.5027V11.4946H14.5002V12.4987H15.4977V13.4962H19.5008V12.4987H20.4983V9.49961H21.5023V7.49805H20.4983V8.49555H3.50141V7.49805H2.50391V9.49961H3.50141V11.4946Z" fill="#000001"/>
<path id="Vector_23" d="M4.49896 5.49658H3.50146V7.49814H4.49896V5.49658Z" fill="#000001"/>
<path id="Vector_24" d="M3.50141 14.5002H2.50391V16.4952H3.50141V14.5002Z" fill="#000001"/>
<path id="Vector_25" d="M2.50406 9.49976H1.5V14.5004H2.50406V9.49976Z" fill="#000001"/>
</g>
</g>
</svg>
