<svg width="24" height="24" viewBox="0 0 24 24" fill="none" xmlns="http://www.w3.org/2000/svg">
<g id="email-stamp-mail">
<g id="Group">
<path id="Vector" d="M21.0037 19.0021H17.998V19.9996H22.0012V14.999H21.0037V19.0021Z" fill="#000001"/>
<path id="Vector_2" d="M22.0009 9.99829H21.0034V13.0039H22.0009V9.99829Z" fill="#000001"/>
<path id="Vector_3" d="M21.0037 8.00337H22.0012V4.00024H17.998V4.99774H21.0037V8.00337Z" fill="#000001"/>
<path id="Vector_4" d="M21.0036 13.0039H19.9995V14.9989H21.0036V13.0039Z" fill="#000001"/>
<path id="Vector_5" d="M21.0036 8.00342H19.9995V9.99842H21.0036V8.00342Z" fill="#000001"/>
<path id="Vector_6" d="M17.9979 17.998H16.0029V19.0021H17.9979V17.998Z" fill="#000001"/>
<path id="Vector_7" d="M19.0019 6.99927H4.99756V17.0005H19.0019V6.99927ZM13.0038 16.003H6.00162V14.0015H6.99912V13.004H8.00318V11.9999H9.99818V13.004H11.0022V14.0015H11.9997V14.999H13.0038V16.003ZM13.0038 9.00083H14.0013V8.00333H16.0029V9.00083H17.0004V11.0024H16.0029V11.9999H14.0013V11.0024H13.0038V9.00083ZM17.9979 16.003H14.0013V14.999H14.9988V14.0015H16.0029V13.004H17.9979V16.003Z" fill="#000001"/>
<path id="Vector_8" d="M17.9979 4.9978H16.0029V6.00187H17.9979V4.9978Z" fill="#000001"/>
<path id="Vector_9" d="M16.003 19.0022H13.0039V19.9997H16.003V19.0022Z" fill="#000001"/>
<path id="Vector_10" d="M16.003 4.00024H13.0039V4.99774H16.003V4.00024Z" fill="#000001"/>
<path id="Vector_11" d="M13.004 17.998H11.0024V19.0021H13.004V17.998Z" fill="#000001"/>
<path id="Vector_12" d="M13.004 4.9978H11.0024V6.00187H13.004V4.9978Z" fill="#000001"/>
<path id="Vector_13" d="M11.0025 19.0022H8.00342V19.9997H11.0025V19.0022Z" fill="#000001"/>
<path id="Vector_14" d="M11.0025 4.00024H8.00342V4.99774H11.0025V4.00024Z" fill="#000001"/>
<path id="Vector_15" d="M8.00303 17.998H6.00146V19.0021H8.00303V17.998Z" fill="#000001"/>
<path id="Vector_16" d="M8.00303 4.9978H6.00146V6.00187H8.00303V4.9978Z" fill="#000001"/>
<path id="Vector_17" d="M6.00166 19.0021H3.0026V14.999H1.99854V19.9996H6.00166V19.0021Z" fill="#000001"/>
<path id="Vector_18" d="M3.99994 13.0039H3.00244V14.9989H3.99994V13.0039Z" fill="#000001"/>
<path id="Vector_19" d="M3.99994 8.00342H3.00244V9.99842H3.99994V8.00342Z" fill="#000001"/>
<path id="Vector_20" d="M3.0026 9.99829H1.99854V13.0039H3.0026V9.99829Z" fill="#000001"/>
<path id="Vector_21" d="M3.0026 4.99774H6.00166V4.00024H1.99854V8.00337H3.0026V4.99774Z" fill="#000001"/>
</g>
</g>
</svg>
