<svg width="24" height="24" viewBox="0 0 24 24" fill="none" xmlns="http://www.w3.org/2000/svg">
<g id="entertainment-events-hobbies-card-game-card-club">
<g id="Group">
<path id="Vector" d="M21.4992 5.50317H20.4951V9.49974H21.4992V5.50317Z" fill="#000001"/>
<path id="Vector_2" d="M20.4951 9.49951H19.4976V12.4986H20.4951V9.49951Z" fill="#000001"/>
<path id="Vector_3" d="M19.4975 12.4985H18.5V16.5017H19.4975V12.4985Z" fill="#000001"/>
<path id="Vector_4" d="M18.5002 16.502H17.4961V20.4985H18.5002V16.502Z" fill="#000001"/>
<path id="Vector_5" d="M16.4984 5.50318H20.495V4.49912H16.4984V2.49756H15.4944V21.5026H17.4959V20.4985H16.4984V5.50318Z" fill="#000001"/>
<path id="Vector_6" d="M15.4945 21.5024H3.49829V22.4999H15.4945V21.5024Z" fill="#000001"/>
<path id="Vector_7" d="M14.497 18.4971H13.4995V20.4986H14.497V18.4971Z" fill="#000001"/>
<path id="Vector_8" d="M10.5004 7.49805H8.49888V9.49961H6.49731V11.5012H8.49888V12.4987H7.49481V13.5027H11.4979V12.4987H10.5004V11.5012H12.4954V9.49961H10.5004V7.49805Z" fill="#000001"/>
<path id="Vector_9" d="M5.49991 3.50146H4.49585V5.50303H5.49991V3.50146Z" fill="#000001"/>
<path id="Vector_10" d="M15.4945 1.5H3.49829V2.4975H15.4945V1.5Z" fill="#000001"/>
<path id="Vector_11" d="M3.49823 2.49756H2.50073V21.5026H3.49823V2.49756Z" fill="#000001"/>
</g>
</g>
</svg>
