<svg width="24" height="24" viewBox="0 0 24 24" fill="none" xmlns="http://www.w3.org/2000/svg">
<g id="entertainment-events-hobbies-film-camrea">
<g id="Group">
<path id="Vector" d="M22.4999 8H21.4958V15.9997H22.4999V8Z" fill="#000001"/>
<path id="Vector_2" d="M21.496 16H16.4954V16.9975H21.496V16Z" fill="#000001"/>
<path id="Vector_3" d="M20.4984 8.99756H19.4944V10.0016H20.4984V8.99756Z" fill="#000001"/>
<path id="Vector_4" d="M18.4968 8.99756H17.4993V10.0016H18.4968V8.99756Z" fill="#000001"/>
<path id="Vector_5" d="M16.4953 16.9976H15.4978V18.0016H16.4953V16.9976Z" fill="#000001"/>
<path id="Vector_6" d="M16.4953 8.99756H15.4978V10.0016H16.4953V8.99756Z" fill="#000001"/>
<path id="Vector_7" d="M2.4975 21.0004H11.4947V20.0062H12.4988V19.0022H15.4978V18.0047H12.4988V7.99686H21.4959V7.00264H12.4988V5.99857H11.4947V5.00107H9.49969V2.99951H4.49906V5.00107H2.4975V5.99857H1.5V20.0062H2.4975V21.0004ZM5.49656 4.00357H8.49562V5.00107H5.49656V4.00357ZM2.4975 16.9973H4.49906V16.0031H2.4975V10.005H4.49906V9.00092H2.4975V7.99686H11.4947V17.9981H2.4975V16.9973Z" fill="#000001"/>
<path id="Vector_8" d="M14.4938 16H13.4963V16.9975H14.4938V16Z" fill="#000001"/>
<path id="Vector_9" d="M14.4938 8.99756H13.4963V10.0016H14.4938V8.99756Z" fill="#000001"/>
<path id="Vector_10" d="M10.4973 12.0034H9.49976V16.9975H10.4973V12.0034Z" fill="#000001"/>
<path id="Vector_11" d="M10.4973 8.99756H9.49976V10.0016H10.4973V8.99756Z" fill="#000001"/>
<path id="Vector_12" d="M8.49555 15.0024H7.49805V16.9974H8.49555V15.0024Z" fill="#000001"/>
<path id="Vector_13" d="M5.49652 10.0015H4.49902V15.9996H5.49652V10.0015Z" fill="#000001"/>
</g>
</g>
</svg>
