<svg width="24" height="24" viewBox="0 0 24 24" fill="none" xmlns="http://www.w3.org/2000/svg">
<g id="entertainment-events-hobbies-game-machines-arcade-1">
<g id="Group">
<path id="Vector" d="M22.4999 5.50317H21.4958V22.5H22.4999V5.50317Z" fill="#000001"/>
<path id="Vector_2" d="M21.496 4.49902H20.4985V5.50309H21.496V4.49902Z" fill="#000001"/>
<path id="Vector_3" d="M20.4984 3.50146H19.4944V4.49896H20.4984V3.50146Z" fill="#000001"/>
<path id="Vector_4" d="M19.4943 2.49756H18.4968V3.50162H19.4943V2.49756Z" fill="#000001"/>
<path id="Vector_5" d="M3.49506 1.5V5.50312H4.49912V6.50062H5.49662V15.4978H4.49912V16.5019H3.49506V17.4994H2.49756V18.4969H15.4979V22.5H16.4954V17.4994H17.4994V16.5019H18.4969V15.4978H19.4944V6.50062H18.4969V5.50312H17.4994V2.4975H18.4969V1.5H3.49506ZM8.49568 2.4975H16.4954V4.49906H8.49568V2.4975ZM6.49412 2.4975H7.49818V4.49906H6.49412V2.4975ZM4.49912 4.49906V2.4975H5.49662V4.49906H4.49912ZM7.49818 16.5019H6.49412V17.4994H5.49662V16.5019H6.49412V15.4978H7.49818V16.5019ZM10.4972 16.5019H9.49975V17.4994H8.49568V16.5019H9.49975V15.4978H10.4972V16.5019ZM15.4979 17.4994H12.4988V16.5019H15.4979V17.4994ZM16.4954 14.5003H8.49568V8.50219H16.4954V14.5003ZM17.4994 7.49813H6.49412V6.50062H17.4994V7.49813Z" fill="#000001"/>
<path id="Vector_6" d="M15.4977 11.5015H14.4937V12.499H15.4977V11.5015Z" fill="#000001"/>
<path id="Vector_7" d="M14.4938 9.49951H13.4963V10.497H14.4938V9.49951Z" fill="#000001"/>
<path id="Vector_8" d="M14.4937 22.5001V20.4985H11.4946V22.5001H12.4987V21.5026H13.4962V22.5001H14.4937Z" fill="#000001"/>
<path id="Vector_9" d="M14.4936 12.4985H10.4971V13.5026H14.4936V12.4985Z" fill="#000001"/>
<path id="Vector_10" d="M11.4946 9.49951H10.4971V10.497H11.4946V9.49951Z" fill="#000001"/>
<path id="Vector_11" d="M10.4973 11.5015H9.49976V12.499H10.4973V11.5015Z" fill="#000001"/>
<path id="Vector_12" d="M2.4975 18.4971H1.5V22.5002H2.4975V18.4971Z" fill="#000001"/>
</g>
</g>
</svg>
