<svg width="24" height="24" viewBox="0 0 24 24" fill="none" xmlns="http://www.w3.org/2000/svg">
<g id="entertainment-events-hobbies-game-machines-arcade-2">
<g id="Group">
<path id="Vector" d="M21.4959 4.49906H20.4984V3.50156H19.4944V2.4975H18.4969V1.5H3.495V5.50312H4.49906V6.50062H5.49656V5.50312H17.4994V6.50062H18.4969V16.5019H17.4994V17.4994H16.4953V18.4969H3.495V17.4994H2.4975V18.4969H1.5V22.5H2.4975V19.5009H15.4978V22.5H22.5V5.50312H21.4959V4.49906ZM5.49656 4.49906H4.49906V2.4975H5.49656V4.49906ZM7.49813 4.49906H6.49406V2.4975H7.49813V4.49906ZM16.4953 4.49906H8.49562V2.4975H16.4953V4.49906ZM21.4959 11.5012H20.4984V6.50062H19.4944V5.50312H18.4969V4.49906H17.4994V3.50156H18.4969V4.49906H19.4944V5.50312H20.4984V6.50062H21.4959V11.5012Z" fill="#000001"/>
<path id="Vector_2" d="M15.4977 11.5015H14.4937V12.499H15.4977V11.5015Z" fill="#000001"/>
<path id="Vector_3" d="M15.4978 16.502H12.4988V17.4995H15.4978V16.502Z" fill="#000001"/>
<path id="Vector_4" d="M14.4938 9.49951H13.4963V10.497H14.4938V9.49951Z" fill="#000001"/>
<path id="Vector_5" d="M14.4937 22.5001V20.4985H11.4946V22.5001H12.4987V21.5026H13.4962V22.5001H14.4937Z" fill="#000001"/>
<path id="Vector_6" d="M14.4936 12.4985H10.4971V13.5026H14.4936V12.4985Z" fill="#000001"/>
<path id="Vector_7" d="M11.4946 9.49951H10.4971V10.497H11.4946V9.49951Z" fill="#000001"/>
<path id="Vector_8" d="M10.4973 11.5015H9.49976V12.499H10.4973V11.5015Z" fill="#000001"/>
<path id="Vector_9" d="M9.49967 16.502H8.49561V17.4995H9.49967V16.502Z" fill="#000001"/>
<path id="Vector_10" d="M17.4993 15.4977V7.49805H7.49805V15.4977H17.4993ZM8.49555 8.50211H16.4952V14.5002H8.49555V8.50211Z" fill="#000001"/>
<path id="Vector_11" d="M7.4982 16.502H6.49414V17.4995H7.4982V16.502Z" fill="#000001"/>
<path id="Vector_12" d="M6.49408 6.50049H5.49658V15.4977H6.49408V6.50049Z" fill="#000001"/>
<path id="Vector_13" d="M5.49652 15.498H4.49902V16.5021H5.49652V15.498Z" fill="#000001"/>
<path id="Vector_14" d="M4.49918 16.502H3.49512V17.4995H4.49918V16.502Z" fill="#000001"/>
</g>
</g>
</svg>
