<svg width="24" height="24" viewBox="0 0 24 24" fill="none" xmlns="http://www.w3.org/2000/svg">
<g id="entertainment-events-hobbies-popcorn">
<g id="Group">
<path id="Vector" d="M21.4992 6.50049H20.4951V9.49955H21.4992V6.50049Z" fill="#000001"/>
<path id="Vector_2" d="M20.4951 9.49951H19.4976V10.497H20.4951V9.49951Z" fill="#000001"/>
<path id="Vector_3" d="M20.4952 5.50293H17.4961V6.50043H20.4952V5.50293Z" fill="#000001"/>
<path id="Vector_4" d="M16.4987 10.497V11.5011H17.4962V17.4992H16.4987V21.5023H15.4946V12.4986H16.4987V11.5011H12.4955V12.4986H13.4996V21.5023H11.498V11.5011H10.5005V10.497H8.49897V11.5011H9.49647V21.5023H8.49897V17.4992H7.49491V12.4986H8.49897V11.5011H6.49741V9.49951H4.49585V10.497H5.49991V17.4992H6.49741V21.5023H7.49491V22.4998H17.4962V21.5023H18.5002V17.4992H19.4977V10.497H16.4987Z" fill="#000001"/>
<path id="Vector_5" d="M18.5002 8.50195H17.4961V9.49945H18.5002V8.50195Z" fill="#000001"/>
<path id="Vector_6" d="M17.496 6.50049H16.4985V7.49799H17.496V6.50049Z" fill="#000001"/>
<path id="Vector_7" d="M16.4984 4.49902H15.4944V6.50059H16.4984V4.49902Z" fill="#000001"/>
<path id="Vector_8" d="M15.4946 7.49805H14.4971V8.50211H15.4946V7.49805Z" fill="#000001"/>
<path id="Vector_9" d="M15.4946 3.50146H14.4971V4.49896H15.4946V3.50146Z" fill="#000001"/>
<path id="Vector_10" d="M14.4969 2.49756H12.4954V3.50162H14.4969V2.49756Z" fill="#000001"/>
<path id="Vector_11" d="M14.4969 8.50195H12.4954V9.49945H14.4969V8.50195Z" fill="#000001"/>
<path id="Vector_12" d="M12.4953 10.4971H11.4978V11.5011H12.4953V10.4971Z" fill="#000001"/>
<path id="Vector_13" d="M12.4953 7.49805H11.4978V8.50211H12.4953V7.49805Z" fill="#000001"/>
<path id="Vector_14" d="M12.4953 3.50146H11.4978V4.49896H12.4953V3.50146Z" fill="#000001"/>
<path id="Vector_15" d="M11.498 2.49756H10.5005V3.50162H11.498V2.49756Z" fill="#000001"/>
<path id="Vector_16" d="M9.49628 5.50293H8.49878V6.50043H9.49628V5.50293Z" fill="#000001"/>
<path id="Vector_17" d="M10.5005 1.5H7.49487V2.4975H10.5005V1.5Z" fill="#000001"/>
<path id="Vector_18" d="M8.49894 8.50195H7.49487V9.49945H8.49894V8.50195Z" fill="#000001"/>
<path id="Vector_19" d="M8.49888 4.49902H6.49731V5.50309H8.49888V4.49902Z" fill="#000001"/>
<path id="Vector_20" d="M7.49476 2.49756H5.49976V3.50162H7.49476V2.49756Z" fill="#000001"/>
<path id="Vector_21" d="M6.49726 5.50293H5.49976V6.50043H6.49726V5.50293Z" fill="#000001"/>
<path id="Vector_22" d="M5.49985 3.50146H3.49829V4.49896H5.49985V3.50146Z" fill="#000001"/>
<path id="Vector_23" d="M4.49579 7.49805H3.49829V9.49961H4.49579V7.49805Z" fill="#000001"/>
<path id="Vector_24" d="M3.49823 4.49902H2.50073V7.49809H3.49823V4.49902Z" fill="#000001"/>
</g>
</g>
</svg>
