<svg width="24" height="24" viewBox="0 0 24 24" fill="none" xmlns="http://www.w3.org/2000/svg">
<g id="entertainment-events-hobbies-ticket">
<g id="Group">
<path id="Vector" d="M22.4999 17.4995H21.4958V21.5026H22.4999V17.4995Z" fill="#000001"/>
<path id="Vector_2" d="M22.4999 9.49951H21.4958V13.5026H22.4999V9.49951Z" fill="#000001"/>
<path id="Vector_3" d="M21.496 16.502H20.4985V17.4995H21.496V16.502Z" fill="#000001"/>
<path id="Vector_4" d="M21.496 13.5029H20.4985V14.5004H21.496V13.5029Z" fill="#000001"/>
<path id="Vector_5" d="M17.4994 21.5027V18.4971H16.4954V21.5027H2.49756V22.5002H21.496V21.5027H17.4994Z" fill="#000001"/>
<path id="Vector_6" d="M20.4984 14.5005H19.4944V16.5021H20.4984V14.5005Z" fill="#000001"/>
<path id="Vector_7" d="M19.4943 3.50146H18.4968V5.50303H19.4943V3.50146Z" fill="#000001"/>
<path id="Vector_8" d="M18.4968 5.50293H17.4993V7.49793H18.4968V5.50293Z" fill="#000001"/>
<path id="Vector_9" d="M18.4968 2.49756H17.4993V3.50162H18.4968V2.49756Z" fill="#000001"/>
<path id="Vector_10" d="M17.4994 14.5005H16.4954V16.5021H17.4994V14.5005Z" fill="#000001"/>
<path id="Vector_11" d="M17.4994 1.5H15.4978V2.4975H17.4994V1.5Z" fill="#000001"/>
<path id="Vector_12" d="M15.4979 2.49756H13.4963V3.50162H15.4979V2.49756Z" fill="#000001"/>
<path id="Vector_13" d="M14.4938 12.4985H6.49414V13.5026H10.4973V14.5001H9.49977V15.4976H8.4957V16.5017H7.4982V17.4992H6.49414V18.4967H14.4938V17.4992H15.4979V13.5026H14.4938V12.4985Z" fill="#000001"/>
<path id="Vector_14" d="M14.4938 5.50293H13.4963V7.49793H14.4938V5.50293Z" fill="#000001"/>
<path id="Vector_15" d="M12.4987 5.50303H13.4962V3.50146H11.4946V4.49896H12.4987V5.50303Z" fill="#000001"/>
<path id="Vector_16" d="M11.4948 4.49902H9.49976V5.50309H11.4948V4.49902Z" fill="#000001"/>
<path id="Vector_17" d="M9.49961 5.50293H7.49805V6.50043H9.49961V5.50293Z" fill="#000001"/>
<path id="Vector_18" d="M7.49814 6.50049H5.49658V7.49799H7.49814V6.50049Z" fill="#000001"/>
<path id="Vector_19" d="M6.49408 13.5029H5.49658V17.4995H6.49408V13.5029Z" fill="#000001"/>
<path id="Vector_20" d="M4.49918 14.5005H3.49512V16.5021H4.49918V14.5005Z" fill="#000001"/>
<path id="Vector_21" d="M16.4954 9.49955V12.4986H17.4994V9.49955H21.496V8.50205H19.4944V7.49799H18.4969V8.50205H15.4979V7.49799H14.4938V8.50205H12.4988V6.50049H10.4972V7.49799H8.49568V8.50205H5.49662V7.49799H3.49506V8.50205H2.49756V9.49955H16.4954Z" fill="#000001"/>
<path id="Vector_22" d="M3.49506 16.502H2.49756V17.4995H3.49506V16.502Z" fill="#000001"/>
<path id="Vector_23" d="M3.49506 13.5029H2.49756V14.5004H3.49506V13.5029Z" fill="#000001"/>
<path id="Vector_24" d="M2.4975 17.4995H1.5V21.5026H2.4975V17.4995Z" fill="#000001"/>
<path id="Vector_25" d="M2.4975 9.49951H1.5V13.5026H2.4975V9.49951Z" fill="#000001"/>
</g>
</g>
</svg>
