<svg width="24" height="24" viewBox="0 0 24 24" fill="none" xmlns="http://www.w3.org/2000/svg">
<g id="entertainment-events-hobbies-video-movie-producer-director-chair">
<g id="Group">
<path id="Vector" d="M20.5312 9.50635V11.4751H18.4968V12.5251H20.5312V14.4938H21.5156V10.4907H22.5V9.50635H20.5312Z" fill="#000001"/>
<path id="Vector_2" d="M20.4656 14.4937H19.4812V15.478H20.4656V14.4937Z" fill="#000001"/>
<path id="Vector_3" d="M19.4812 3.46875H18.4968V9.44063H19.4812V3.46875Z" fill="#000001"/>
<path id="Vector_4" d="M4.5188 15.478V16.528H6.48755V17.5124H7.47192V16.528H16.4625V17.5124H17.5125V16.528H19.4813V15.478H4.5188Z" fill="#000001"/>
<path id="Vector_5" d="M17.4468 21.5156H15.478V22.5H17.4468V21.5156Z" fill="#000001"/>
<path id="Vector_6" d="M16.4624 17.5127H14.4937V18.4971H16.4624V17.5127Z" fill="#000001"/>
<path id="Vector_7" d="M15.5437 20.4658H13.5093V21.4502H15.5437V20.4658Z" fill="#000001"/>
<path id="Vector_8" d="M12.5251 18.4971V19.4814H11.4751V18.4971H9.50635V19.4814H10.4907V20.4658H13.5095V19.4814H14.4938V18.4971H12.5251Z" fill="#000001"/>
<path id="Vector_9" d="M10.4907 8.52168H11.4751V7.47168H12.5251V8.52168H13.5095V6.4873H14.4938V5.50293H12.5251V4.51855H11.4751V5.50293H9.50635V6.4873H10.4907V8.52168Z" fill="#000001"/>
<path id="Vector_10" d="M10.5563 20.4658H8.52197V21.4502H10.5563V20.4658Z" fill="#000001"/>
<path id="Vector_11" d="M9.44067 17.5127H7.47192V18.4971H9.44067V17.5127Z" fill="#000001"/>
<path id="Vector_12" d="M8.4563 21.5156H6.48755V22.5H8.4563V21.5156Z" fill="#000001"/>
<path id="Vector_13" d="M18.4969 3.46875V2.48438H16.4625V1.5H15.4782V2.48438H8.52192V1.5H7.47192V2.48438H5.50317V3.46875H18.4969Z" fill="#000001"/>
<path id="Vector_14" d="M18.4969 13.5093V12.5249H16.5282V10.5562H18.4969V9.57178H5.50317V10.5562H7.53755V12.5249H5.50317V13.5093H18.4969ZM8.52192 10.4905H15.5438V12.4593H8.52192V10.4905Z" fill="#000001"/>
<path id="Vector_15" d="M5.50317 3.46875H4.5188V9.44063H5.50317V3.46875Z" fill="#000001"/>
<path id="Vector_16" d="M4.45312 14.4937H3.46875V15.478H4.45312V14.4937Z" fill="#000001"/>
<path id="Vector_17" d="M3.46875 12.5251H5.50312V11.4751H3.46875V9.50635H1.5V10.4907H2.48437V14.4938H3.46875V12.5251Z" fill="#000001"/>
</g>
</g>
</svg>
