<svg width="24" height="24" viewBox="0 0 24 24" fill="none" xmlns="http://www.w3.org/2000/svg">
<g id="entertainment-events-hobbies-record-player">
<g id="Group">
<path id="Vector" d="M22.4999 3.50146H21.4958V20.4983H22.4999V3.50146Z" fill="#000001"/>
<path id="Vector_2" d="M21.496 20.4985H20.4985V21.5026H21.496V20.4985Z" fill="#000001"/>
<path id="Vector_3" d="M21.496 2.49756H20.4985V3.50162H21.496V2.49756Z" fill="#000001"/>
<path id="Vector_4" d="M20.4986 21.5024H3.49512V22.4999H20.4986V21.5024Z" fill="#000001"/>
<path id="Vector_5" d="M19.4943 18.4971H18.4968V20.4986H19.4943V18.4971Z" fill="#000001"/>
<path id="Vector_6" d="M17.4993 4.49902V8.50215H18.4968V14.5003H19.4943V8.50215H20.4983V4.49902H17.4993ZM19.4943 7.49809H18.4968V5.50309H19.4943V7.49809Z" fill="#000001"/>
<path id="Vector_7" d="M18.4968 14.5005H17.4993V15.498H18.4968V14.5005Z" fill="#000001"/>
<path id="Vector_8" d="M17.4994 18.4971H16.4954V20.4986H17.4994V18.4971Z" fill="#000001"/>
<path id="Vector_9" d="M16.4954 13.5028H17.4995V9.49965H16.4954V7.49809H15.4979V6.50059H14.4939V5.50309H12.4989V4.49902H8.49574V5.50309H6.49418V6.50059H5.49668V7.49809H4.49918V9.49965H3.49512V13.5028H4.49918V15.4978H5.49668V16.5018H6.49418V17.4993H8.49574V18.4968H12.4989V17.4993H14.4939V16.5018H11.4948V15.4978H14.4939V16.5018H17.4995V15.4978H16.4954V13.5028ZM11.4948 12.4987H9.4998V10.4971H11.4948V12.4987ZM15.4979 10.4971H14.4939V8.50215H13.4964V7.49809H11.4948V6.50059H13.4964V7.49809H14.4939V8.50215H15.4979V10.4971Z" fill="#000001"/>
<path id="Vector_10" d="M7.4982 19.501H6.49414V20.4985H7.4982V19.501Z" fill="#000001"/>
<path id="Vector_11" d="M5.49652 19.501H4.49902V20.4985H5.49652V19.501Z" fill="#000001"/>
<path id="Vector_12" d="M20.4986 1.5H3.49512V2.4975H20.4986V1.5Z" fill="#000001"/>
<path id="Vector_13" d="M3.49506 20.4985H2.49756V21.5026H3.49506V20.4985Z" fill="#000001"/>
<path id="Vector_14" d="M3.49506 2.49756H2.49756V3.50162H3.49506V2.49756Z" fill="#000001"/>
<path id="Vector_15" d="M2.4975 3.50146H1.5V20.4983H2.4975V3.50146Z" fill="#000001"/>
</g>
</g>
</svg>
