<svg width="24" height="24" viewBox="0 0 24 24" fill="none" xmlns="http://www.w3.org/2000/svg">
<g id="entertainment-events-hobbies-chess-pawn">
<g id="Group">
<path id="Vector" d="M19.4975 18.9956H18.5V20.9972H19.4975V18.9956Z" fill="#000001"/>
<path id="Vector_2" d="M18.5001 20.9971H5.49976V22.0011H18.5001V20.9971Z" fill="#000001"/>
<path id="Vector_3" d="M16.4985 14.999H15.501V15.9965H16.4985V14.999Z" fill="#000001"/>
<path id="Vector_4" d="M16.4985 9.00098H15.501V9.99848H16.4985V9.00098Z" fill="#000001"/>
<path id="Vector_5" d="M15.5009 14.0015H14.4968V14.999H15.5009V14.0015Z" fill="#000001"/>
<path id="Vector_6" d="M10.5003 14.0017V10.996H13.4994V14.0017H14.4969V10.996H15.501V9.99854H8.49878V10.996H9.50284V14.0017H10.5003Z" fill="#000001"/>
<path id="Vector_7" d="M15.5009 9.00097V7.9969H14.4968V6.9994H15.5009V4.00034H14.4968V2.99628H13.4993V1.99878H10.5002V2.99628H9.50602V4.00034H8.50195V6.9994H9.50602V7.9969H8.50195V9.00097H15.5009ZM11.4977 4.00034H12.5018V4.99784H13.4993V6.0019H12.5018V4.99784H11.4977V4.00034Z" fill="#000001"/>
<path id="Vector_8" d="M9.50284 14.0015H8.49878V14.999H9.50284V14.0015Z" fill="#000001"/>
<path id="Vector_9" d="M8.49872 14.999H7.50122V15.9965H8.49872V14.999Z" fill="#000001"/>
<path id="Vector_10" d="M8.49872 9.00098H7.50122V9.99848H8.49872V9.00098Z" fill="#000001"/>
<path id="Vector_11" d="M7.50132 17.9981V15.9966H6.49726V17.9981H5.49976V18.9956H18.5001V17.9981H17.5026V15.9966H16.4985V17.9981H7.50132Z" fill="#000001"/>
<path id="Vector_12" d="M5.4997 18.9956H4.5022V20.9972H5.4997V18.9956Z" fill="#000001"/>
</g>
</g>
</svg>
