<svg width="24" height="24" viewBox="0 0 24 24" fill="none" xmlns="http://www.w3.org/2000/svg">
<g id="entertainment-events-hobbies-board-game-dice">
<g id="Group">
<path id="Vector" d="M13.0008 22.0013V21.0038H14.9958V19.9998H16.9974V19.0023H18.999V17.9982H19.9965V17.0007H21.0005V6.99945H19.9965V6.00195H18.999V6.99945H16.9974V8.00352H14.9958V9.00102H13.0008V9.99852H10.9993V11.0026H12V21.0038H11.0025V22.0013H13.0008ZM16.9974 9.99852H18.999V11.0026H16.9974V9.99852ZM13.9983 16.0032H16.0032V17.9982H14.0016L13.9983 16.0032Z" fill="#000001"/>
<path id="Vector_2" d="M18.9989 5.00439H16.9973V6.00189H18.9989V5.00439Z" fill="#000001"/>
<path id="Vector_3" d="M16.9974 4.00024H14.9958V5.00431H16.9974V4.00024Z" fill="#000001"/>
<path id="Vector_4" d="M14.9957 3.00293H13.0007V4.00043H14.9957V3.00293Z" fill="#000001"/>
<path id="Vector_5" d="M13.0008 6.00195H10.9993V8.00352H13.0008V6.00195Z" fill="#000001"/>
<path id="Vector_6" d="M13.0008 1.99878H10.9993V3.00284H13.0008V1.99878Z" fill="#000001"/>
<path id="Vector_7" d="M10.9991 19.9995H8.99756V21.0036H10.9991V19.9995Z" fill="#000001"/>
<path id="Vector_8" d="M10.9991 9.00098H8.99756V9.99848H10.9991V9.00098Z" fill="#000001"/>
<path id="Vector_9" d="M10.9991 3.00293H8.99756V4.00043H10.9991V3.00293Z" fill="#000001"/>
<path id="Vector_10" d="M10.9991 16.0029H8.99756V17.9979H10.9991V16.0029Z" fill="#000001"/>
<path id="Vector_11" d="M10.9991 12H8.99756V14.0016H10.9991V12Z" fill="#000001"/>
<path id="Vector_12" d="M8.99766 19.0024H6.99609V19.9999H8.99766V19.0024Z" fill="#000001"/>
<path id="Vector_13" d="M8.99766 8.00342H6.99609V9.00092H8.99766V8.00342Z" fill="#000001"/>
<path id="Vector_14" d="M8.99766 4.00024H6.99609V5.00431H8.99766V4.00024Z" fill="#000001"/>
<path id="Vector_15" d="M6.99598 17.998H5.00098V19.0021H6.99598V17.998Z" fill="#000001"/>
<path id="Vector_16" d="M6.99598 6.99951H5.00098V8.00357H6.99598V6.99951Z" fill="#000001"/>
<path id="Vector_17" d="M6.99598 5.00439H5.00098V6.00189H6.99598V5.00439Z" fill="#000001"/>
<path id="Vector_18" d="M6.99598 14.0015H5.00098V16.003H6.99598V14.0015Z" fill="#000001"/>
<path id="Vector_19" d="M6.99598 9.99854H5.00098V12.0001H6.99598V9.99854Z" fill="#000001"/>
<path id="Vector_20" d="M5.00113 17.0005H3.99707V17.998H5.00113V17.0005Z" fill="#000001"/>
<path id="Vector_21" d="M5.00113 6.00195H3.99707V6.99945H5.00113V6.00195Z" fill="#000001"/>
<path id="Vector_22" d="M3.99701 6.99951H2.99951V17.0008H3.99701V6.99951Z" fill="#000001"/>
</g>
</g>
</svg>
