<svg width="24" height="24" viewBox="0 0 24 24" fill="none" xmlns="http://www.w3.org/2000/svg">
<g id="entertainment-events-hobbies-horror-ghost">
<g id="Group">
<path id="Vector" d="M22.0014 14.5005H20.9973V17.4996H22.0014V14.5005Z" fill="#000001"/>
<path id="Vector_2" d="M20.9972 1.5H19.9997V2.4975H18.9956V3.50156H19.9997V4.49906H20.9972V3.50156H22.0012V2.4975H20.9972V1.5Z" fill="#000001"/>
<path id="Vector_3" d="M20.9973 8.50195H19.9998V14.5001H20.9973V8.50195Z" fill="#000001"/>
<path id="Vector_4" d="M20.9972 17.4995H18.9956V18.497H20.9972V17.4995Z" fill="#000001"/>
<path id="Vector_5" d="M19.9997 6.50049H18.9956V8.50205H19.9997V6.50049Z" fill="#000001"/>
<path id="Vector_6" d="M18.9955 18.4971H17.998V19.5011H18.9955V18.4971Z" fill="#000001"/>
<path id="Vector_7" d="M18.9955 15.498H17.998V17.4996H18.9955V15.498Z" fill="#000001"/>
<path id="Vector_8" d="M18.9955 5.50293H17.998V6.50043H18.9955V5.50293Z" fill="#000001"/>
<path id="Vector_9" d="M17.9982 19.501H17.0007V20.4985H17.9982V19.501Z" fill="#000001"/>
<path id="Vector_10" d="M17.9981 8.50195H17.0006V9.49945H15.9966V10.497H17.0006V11.501H17.9981V10.497H18.9956V9.49945H17.9981V8.50195Z" fill="#000001"/>
<path id="Vector_11" d="M17.9981 4.49902H15.9966V5.50309H17.9981V4.49902Z" fill="#000001"/>
<path id="Vector_12" d="M17.0006 20.4985H14.999V21.5026H17.0006V20.4985Z" fill="#000001"/>
<path id="Vector_13" d="M12.9976 11.5015V14.5005H15.9966V11.5015H12.9976ZM14.9991 13.503H13.9951V12.499H14.9991V13.503Z" fill="#000001"/>
<path id="Vector_14" d="M14.999 21.5024H7.99683V22.4999H14.999V21.5024Z" fill="#000001"/>
<path id="Vector_15" d="M12.9975 15.498H12V17.4996H12.9975V15.498Z" fill="#000001"/>
<path id="Vector_16" d="M15.9965 3.50146H10.9958V4.49896H15.9965V3.50146Z" fill="#000001"/>
<path id="Vector_17" d="M10.996 11.501H12.0001V10.497H12.9976V9.49945H12.0001V8.50195H10.996V9.49945H9.99854V10.497H10.996V11.501Z" fill="#000001"/>
<path id="Vector_18" d="M12.0001 17.4995H9.99854V18.497H12.0001V17.4995Z" fill="#000001"/>
<path id="Vector_19" d="M10.996 4.49902H9.00098V5.50309H10.996V4.49902Z" fill="#000001"/>
<path id="Vector_20" d="M9.99848 15.498H9.00098V17.4996H9.99848V15.498Z" fill="#000001"/>
<path id="Vector_21" d="M9.00089 5.50293H7.99683V6.50043H9.00089V5.50293Z" fill="#000001"/>
<path id="Vector_22" d="M9.00089 1.5H7.99683V2.4975H9.00089V1.5Z" fill="#000001"/>
<path id="Vector_23" d="M7.99692 20.4985H5.99536V21.5026H7.99692V20.4985Z" fill="#000001"/>
<path id="Vector_24" d="M7.99701 6.50049H6.99951V8.50205H7.99701V6.50049Z" fill="#000001"/>
<path id="Vector_25" d="M6.99942 8.50195H5.99536V14.5001H6.99942V8.50195Z" fill="#000001"/>
<path id="Vector_26" d="M5.9953 19.501H4.9978V20.4985H5.9953V19.501Z" fill="#000001"/>
<path id="Vector_27" d="M5.9953 4.49902H4.9978V7.49809H5.9953V4.49902Z" fill="#000001"/>
<path id="Vector_28" d="M4.99774 18.4971H4.00024V19.5011H4.99774V18.4971Z" fill="#000001"/>
<path id="Vector_29" d="M5.99524 14.5005H4.00024V15.498H5.99524V14.5005Z" fill="#000001"/>
<path id="Vector_30" d="M4.9979 3.50146H2.99634V4.49896H4.9979V3.50146Z" fill="#000001"/>
<path id="Vector_31" d="M4.0004 17.4995H2.99634V18.497H4.0004V17.4995Z" fill="#000001"/>
<path id="Vector_32" d="M4.0004 13.5029H2.99634V14.5004H4.0004V13.5029Z" fill="#000001"/>
<path id="Vector_33" d="M4.99784 7.49805H1.99878V8.50211H4.99784V7.49805Z" fill="#000001"/>
<path id="Vector_34" d="M4.0004 5.50293H2.99634V6.50043H4.0004V5.50293Z" fill="#000001"/>
<path id="Vector_35" d="M2.99628 14.5005H1.99878V17.4996H2.99628V14.5005Z" fill="#000001"/>
<path id="Vector_36" d="M2.99628 10.4971H1.99878V11.5011H2.99628V10.4971Z" fill="#000001"/>
<path id="Vector_37" d="M2.99628 4.49902H1.99878V5.50309H2.99628V4.49902Z" fill="#000001"/>
</g>
</g>
</svg>
