<svg width="24" height="24" viewBox="0 0 24 24" fill="none" xmlns="http://www.w3.org/2000/svg">
<g id="entertainment-events-hobbies-reward-winner-talent">
<g id="Group">
<path id="Vector" d="M16.5019 13.4961V10.4971H7.49813V13.4961H1.5V22.4999H22.5V13.4961H16.5019ZM7.49813 21.4958H2.50406V14.5002H7.49813V21.4958ZM15.4978 21.4958H8.50219V11.5011H15.4978V21.4958ZM21.5025 21.4958H16.5019V14.5002H21.5025V21.4958Z" fill="#000001"/>
<path id="Vector_2" d="M20.4983 15.498H17.4993V16.5021H19.5008V17.4996H17.4993V18.4971H19.5008V19.5012H17.4993V20.4987H20.4983V15.498Z" fill="#000001"/>
<path id="Vector_3" d="M20.4984 5.49658H18.5034V6.50064H20.4984V5.49658Z" fill="#000001"/>
<path id="Vector_4" d="M18.5033 1.5H17.4993V2.4975H18.5033V1.5Z" fill="#000001"/>
<path id="Vector_5" d="M17.4995 2.49756H16.502V3.50162H17.4995V2.49756Z" fill="#000001"/>
<path id="Vector_6" d="M13.5027 16.5017H12.4987V12.4985H10.5037V13.496H11.5012V16.5017H10.5037V17.4992H13.5027V16.5017Z" fill="#000001"/>
<path id="Vector_7" d="M12.4987 1.5H11.5012V3.50156H12.4987V1.5Z" fill="#000001"/>
<path id="Vector_8" d="M7.49805 4.49902V8.49559H8.50211V9.49965H15.4977V8.49559H16.5018V4.49902H15.4977V5.49652H14.5002V6.50059H13.5027V5.49652H12.4987V4.49902H11.5012V5.49652H10.5037V6.50059H9.49961V5.49652H8.50211V4.49902H7.49805ZM13.5027 7.49809H14.5002V8.49559H13.5027V7.49809ZM11.5012 7.49809H12.4987V8.49559H11.5012V7.49809ZM9.49961 7.49809H10.5037V8.49559H9.49961V7.49809Z" fill="#000001"/>
<path id="Vector_9" d="M7.49823 2.49756H6.50073V3.50162H7.49823V2.49756Z" fill="#000001"/>
<path id="Vector_10" d="M6.50067 1.5H5.50317V2.4975H6.50067V1.5Z" fill="#000001"/>
<path id="Vector_11" d="M6.50053 19.5012H4.49896V18.4971H6.50053V15.498H3.50146V16.5021H5.50303V17.4996H3.50146V20.4987H6.50053V19.5012Z" fill="#000001"/>
<path id="Vector_12" d="M5.50303 5.49658H3.50146V6.50064H5.50303V5.49658Z" fill="#000001"/>
</g>
</g>
</svg>
