<svg width="24" height="24" viewBox="0 0 24 24" fill="none" xmlns="http://www.w3.org/2000/svg">
<g id="entertainment-events-hobbies-bomb">
<g id="Group">
<path id="Vector" d="M22.5001 5.50317H20.4985V6.50067H22.5001V5.50317Z" fill="#000001"/>
<path id="Vector_2" d="M21.496 8.50195H20.4985V9.49945H21.496V8.50195Z" fill="#000001"/>
<path id="Vector_3" d="M21.496 2.49756H20.4985V3.50162H21.496V2.49756Z" fill="#000001"/>
<path id="Vector_4" d="M20.4984 7.49805H19.4944V8.50211H20.4984V7.49805Z" fill="#000001"/>
<path id="Vector_5" d="M20.4984 3.50146H19.4944V4.49896H20.4984V3.50146Z" fill="#000001"/>
<path id="Vector_6" d="M18.4968 5.50317H17.4993V7.49817H18.4968V5.50317Z" fill="#000001"/>
<path id="Vector_7" d="M18.4968 1.5H17.4993V3.50156H18.4968V1.5Z" fill="#000001"/>
<path id="Vector_8" d="M17.4993 7.49805H14.4937V8.50211H17.4993V7.49805Z" fill="#000001"/>
<path id="Vector_9" d="M16.4953 3.50146H15.4978V4.49896H16.4953V3.50146Z" fill="#000001"/>
<path id="Vector_10" d="M15.4977 2.49756H14.4937V3.50162H15.4977V2.49756Z" fill="#000001"/>
<path id="Vector_11" d="M14.4938 6.50073H13.4963V7.49823H14.4938V6.50073Z" fill="#000001"/>
<path id="Vector_12" d="M13.4963 5.50317H12.4988V6.50067H13.4963V5.50317Z" fill="#000001"/>
<path id="Vector_13" d="M12.4988 4.49902H9.49976V5.50309H12.4988V4.49902Z" fill="#000001"/>
<path id="Vector_14" d="M8.49562 7.49817H6.49406V9.49974H4.49906V10.4972H3.495V11.5013H2.4975V13.5029H1.5V17.4994H2.4975V19.501H3.495V20.4985H4.49906V21.5025H6.49406V22.5H11.4947V21.5025H13.4963V20.4985H14.4937V19.501H15.4978V17.4994H16.4953V13.5029H15.4978V11.5013H14.4937V10.4972H13.4963V9.49974H11.4947V7.49817H9.49969V5.50317H8.49562V7.49817ZM11.4947 11.5013H12.4988V12.4988H13.4963V13.5029H14.4937V17.4994H13.4963V13.5029H12.4988V12.4988H11.4947V11.5013ZM11.4947 18.4969H12.4988V19.501H11.4947V18.4969Z" fill="#000001"/>
</g>
</g>
</svg>
