<svg width="24" height="24" viewBox="0 0 24 24" fill="none" xmlns="http://www.w3.org/2000/svg">
<g id="entertainment-events-hobbies-glasses-3d">
<g id="Group">
<path id="Vector" d="M2.99628 12.5016H20.9972V19.4972H22.0013V10.5H20.9972V11.4975H18.9957V10.5H17.9982V11.4975H5.99534V10.5H4.99784V11.4975H2.99628V10.5H1.99878V19.4972H2.99628V12.5016Z" fill="#000001"/>
<path id="Vector_2" d="M20.9973 9.49609H19.9998V10.5002H20.9973V9.49609Z" fill="#000001"/>
<path id="Vector_3" d="M20.9973 19.4976H13.9951V20.5016H20.9973V19.4976Z" fill="#000001"/>
<path id="Vector_4" d="M19.9997 8.49854H18.9956V9.49604H19.9997V8.49854Z" fill="#000001"/>
<path id="Vector_5" d="M12.9976 13.4995V16.4986H13.9951V17.4961H14.9991V18.5001H19.9997V13.4995H12.9976ZM18.9957 17.4961H17.9982V16.4986H17.0007V15.5011H15.9966V14.497H18.9957V17.4961Z" fill="#000001"/>
<path id="Vector_6" d="M18.9955 7.50098H17.998V8.49848H18.9955V7.50098Z" fill="#000001"/>
<path id="Vector_7" d="M17.9982 9.49609H17.0007V10.5002H17.9982V9.49609Z" fill="#000001"/>
<path id="Vector_8" d="M17.9982 6.49707H17.0007V7.50113H17.9982V6.49707Z" fill="#000001"/>
<path id="Vector_9" d="M17.0006 8.49854H15.9966V9.49604H17.0006V8.49854Z" fill="#000001"/>
<path id="Vector_10" d="M17.0006 5.49951H15.9966V6.49701H17.0006V5.49951Z" fill="#000001"/>
<path id="Vector_11" d="M15.9965 7.50098H14.999V8.49848H15.9965V7.50098Z" fill="#000001"/>
<path id="Vector_12" d="M15.9965 4.50195H14.999V5.49945H15.9965V4.50195Z" fill="#000001"/>
<path id="Vector_13" d="M14.9992 6.49707H13.9951V7.50113H14.9992V6.49707Z" fill="#000001"/>
<path id="Vector_14" d="M14.9992 3.49805H13.9951V4.50211H14.9992V3.49805Z" fill="#000001"/>
<path id="Vector_15" d="M13.9951 18.5H12.9976V19.4975H13.9951V18.5Z" fill="#000001"/>
<path id="Vector_16" d="M13.9951 4.50195H12.9976V6.49695H13.9951V4.50195Z" fill="#000001"/>
<path id="Vector_17" d="M12.9974 17.4961H10.9958V18.5002H12.9974V17.4961Z" fill="#000001"/>
<path id="Vector_18" d="M10.996 18.5H9.99854V19.4975H10.996V18.5Z" fill="#000001"/>
<path id="Vector_19" d="M10.996 4.50195H9.99854V6.49695H10.996V4.50195Z" fill="#000001"/>
<path id="Vector_20" d="M4.00024 13.4995V18.5001H9.00087V17.4961H9.99837V16.4986H10.9959V13.4995H4.00024ZM7.99681 15.5011H6.99931V16.4986H5.99524V17.4961H4.99774V14.497H7.99681V15.5011Z" fill="#000001"/>
<path id="Vector_21" d="M9.99848 6.49707H9.00098V7.50113H9.99848V6.49707Z" fill="#000001"/>
<path id="Vector_22" d="M9.99848 3.49805H9.00098V4.50211H9.99848V3.49805Z" fill="#000001"/>
<path id="Vector_23" d="M9.99853 19.4976H2.99634V20.5016H9.99853V19.4976Z" fill="#000001"/>
<path id="Vector_24" d="M9.00089 7.50098H7.99683V8.49848H9.00089V7.50098Z" fill="#000001"/>
<path id="Vector_25" d="M9.00089 4.50195H7.99683V5.49945H9.00089V4.50195Z" fill="#000001"/>
<path id="Vector_26" d="M7.99701 8.49854H6.99951V9.49604H7.99701V8.49854Z" fill="#000001"/>
<path id="Vector_27" d="M7.99701 5.49951H6.99951V6.49701H7.99701V5.49951Z" fill="#000001"/>
<path id="Vector_28" d="M6.99942 9.49609H5.99536V10.5002H6.99942V9.49609Z" fill="#000001"/>
<path id="Vector_29" d="M6.99942 6.49707H5.99536V7.50113H6.99942V6.49707Z" fill="#000001"/>
<path id="Vector_30" d="M5.9953 7.50098H4.9978V8.49848H5.9953V7.50098Z" fill="#000001"/>
<path id="Vector_31" d="M4.99774 8.49854H4.00024V9.49604H4.99774V8.49854Z" fill="#000001"/>
<path id="Vector_32" d="M4.0004 9.49609H2.99634V10.5002H4.0004V9.49609Z" fill="#000001"/>
</g>
</g>
</svg>
