<svg width="24" height="24" viewBox="0 0 24 24" fill="none" xmlns="http://www.w3.org/2000/svg">
<g id="entertainment-events-hobbies-chess-knight">
<g id="Group">
<path id="Vector" d="M19.9997 18.9956H19.0022V20.9972H19.9997V18.9956Z" fill="#000001"/>
<path id="Vector_2" d="M19.0021 7.99683H18.0046V9.99839H19.0021V7.99683Z" fill="#000001"/>
<path id="Vector_3" d="M19.002 20.9971H6.00171V22.0011H19.002V20.9971Z" fill="#000001"/>
<path id="Vector_4" d="M18.0045 9.99854H17.0005V10.996H18.0045V9.99854Z" fill="#000001"/>
<path id="Vector_5" d="M18.0045 6.99951H17.0005V7.99701H18.0045V6.99951Z" fill="#000001"/>
<path id="Vector_6" d="M17.0007 12.9976H16.0032V14.9991H17.0007V12.9976Z" fill="#000001"/>
<path id="Vector_7" d="M17.0007 6.00195H16.0032V6.99945H17.0007V6.00195Z" fill="#000001"/>
<path id="Vector_8" d="M14.0015 10.9961V12.0002H14.999V12.9977H16.003V12.0002H17.0005V10.9961H14.0015Z" fill="#000001"/>
<path id="Vector_9" d="M16.0031 7.99683H14.999V9.00089H16.0031V7.99683Z" fill="#000001"/>
<path id="Vector_10" d="M16.0031 4.00024H14.999V6.00181H16.0031V4.00024Z" fill="#000001"/>
<path id="Vector_11" d="M14.999 2.99634H14.0015V4.0004H14.999V2.99634Z" fill="#000001"/>
<path id="Vector_12" d="M14.0014 9.99854H13.0039V10.996H14.0014V9.99854Z" fill="#000001"/>
<path id="Vector_13" d="M14.0014 6.00195H13.0039V6.99945H14.0014V6.00195Z" fill="#000001"/>
<path id="Vector_14" d="M14.0014 1.99878H13.0039V2.99628H14.0014V1.99878Z" fill="#000001"/>
<path id="Vector_15" d="M13.0041 9.00098H12V9.99848H13.0041V9.00098Z" fill="#000001"/>
<path id="Vector_16" d="M13.0041 4.9978H12V6.00187H13.0041V4.9978Z" fill="#000001"/>
<path id="Vector_17" d="M11.9999 6.00195H11.0024V6.99945H11.9999V6.00195Z" fill="#000001"/>
<path id="Vector_18" d="M13.004 2.99634H11.0024V4.0004H13.004V2.99634Z" fill="#000001"/>
<path id="Vector_19" d="M11.0024 1.99878H10.0049V2.99628H11.0024V1.99878Z" fill="#000001"/>
<path id="Vector_20" d="M9.00087 14.9991H10.0049V12.9976H9.00087V12.0001H8.00337V6.99946H9.00087V6.00196H10.0049V2.99634H8.00337V4.0004H6.00181V4.9979H5.00431V6.00196H4.00024V12.0001H5.00431V12.9976H6.00181V14.0016H8.00337V15.9967H9.00087V14.9991ZM6.99931 12.0001H6.00181V10.996H6.99931V12.0001ZM6.99931 9.00103H5.00431V7.99696H6.99931V9.00103ZM6.99931 6.00196V4.9979H8.00337V6.00196H6.99931Z" fill="#000001"/>
<path id="Vector_21" d="M19.002 18.9956V17.9981H18.0045V14.999H17.0005V17.9981H8.00327V15.9965H6.99921V17.9981H6.00171V18.9956H19.002Z" fill="#000001"/>
<path id="Vector_22" d="M6.00189 18.9956H5.00439V20.9972H6.00189V18.9956Z" fill="#000001"/>
</g>
</g>
</svg>
