<svg width="24" height="24" viewBox="0 0 24 24" fill="none" xmlns="http://www.w3.org/2000/svg">
<g id="entertainment-events-hobbies-video-camera-film-1">
<g id="Group">
<path id="Vector" d="M20.4985 10.4971V11.5011H21.496V20.4983H20.4985V21.5024H22.5001V10.4971H20.4985Z" fill="#000001"/>
<path id="Vector_2" d="M20.4984 19.501H19.4944V20.4985H20.4984V19.501Z" fill="#000001"/>
<path id="Vector_3" d="M20.4984 11.5015H19.4944V12.499H20.4984V11.5015Z" fill="#000001"/>
<path id="Vector_4" d="M20.4984 4.49902H19.4944V8.50215H20.4984V4.49902Z" fill="#000001"/>
<path id="Vector_5" d="M18.4968 18.4971V13.503H19.4943V12.499H18.4968V11.5015H17.4993V20.4987H18.4968V19.5012H19.4943V18.4971H18.4968Z" fill="#000001"/>
<path id="Vector_6" d="M19.4943 8.50195H18.4968V9.49945H19.4943V8.50195Z" fill="#000001"/>
<path id="Vector_7" d="M19.4943 3.50146H18.4968V4.49896H19.4943V3.50146Z" fill="#000001"/>
<path id="Vector_8" d="M18.4968 9.49951H17.4993V10.497H18.4968V9.49951Z" fill="#000001"/>
<path id="Vector_9" d="M18.4968 2.49756H17.4993V3.50162H18.4968V2.49756Z" fill="#000001"/>
<path id="Vector_10" d="M17.4994 20.4985H16.4954V21.5026H17.4994V20.4985Z" fill="#000001"/>
<path id="Vector_11" d="M17.4995 10.4971H13.4963V11.5011H17.4995V10.4971Z" fill="#000001"/>
<path id="Vector_12" d="M16.4954 21.5024H3.49512V22.4999H16.4954V21.5024Z" fill="#000001"/>
<path id="Vector_13" d="M16.4952 12.4985H14.4937V14.5001H16.4952V12.4985Z" fill="#000001"/>
<path id="Vector_14" d="M17.4995 1.5H13.4963V2.4975H17.4995V1.5Z" fill="#000001"/>
<path id="Vector_15" d="M13.4963 8.50209H14.4938V9.49959H16.4953V8.50209H17.4994V7.49803H18.4969V5.50303H17.4994V4.49896H16.4953V3.50146H14.4938V4.49896H13.4963V5.50303H12.4988V7.49803H13.4963V8.50209ZM14.4938 5.50303H16.4953V7.49803H14.4938V5.50303Z" fill="#000001"/>
<path id="Vector_16" d="M12.4987 9.49945V8.50195H11.4947V9.49945H10.4972V8.50195H9.49967V9.49945H8.49561V10.497H13.4962V9.49945H12.4987Z" fill="#000001"/>
<path id="Vector_17" d="M13.4963 2.49756H12.4988V3.50162H13.4963V2.49756Z" fill="#000001"/>
<path id="Vector_18" d="M11.4948 18.4971H10.4973V17.4996H8.49574V18.4971H7.49824V17.4996H5.49668V18.4971H4.49918V15.498H3.49512V19.5012H4.49918V20.4987H11.4948V19.5012H12.4989V15.498H11.4948V18.4971Z" fill="#000001"/>
<path id="Vector_19" d="M12.4987 3.50146H11.4946V4.49896H12.4987V3.50146Z" fill="#000001"/>
<path id="Vector_20" d="M11.4946 4.49902H10.4971V8.50215H11.4946V4.49902Z" fill="#000001"/>
<path id="Vector_21" d="M10.4973 3.50146H9.49976V4.49896H10.4973V3.50146Z" fill="#000001"/>
<path id="Vector_22" d="M9.49967 2.49756H8.49561V3.50162H9.49967V2.49756Z" fill="#000001"/>
<path id="Vector_23" d="M8.49559 10.4971H4.49902V11.5011H8.49559V10.4971Z" fill="#000001"/>
<path id="Vector_24" d="M11.4946 14.5005H4.49902V15.498H11.4946V14.5005Z" fill="#000001"/>
<path id="Vector_25" d="M8.49559 1.5H4.49902V2.4975H8.49559V1.5Z" fill="#000001"/>
<path id="Vector_26" d="M4.49918 8.50209H5.49668V9.49959H7.49824V8.50209H8.49574V7.49803H9.4998V5.50303H8.49574V4.49896H7.49824V3.50146H5.49668V4.49896H4.49918V5.50303H3.49512V7.49803H4.49918V8.50209ZM5.49668 5.50303H7.49824V7.49803H5.49668V5.50303Z" fill="#000001"/>
<path id="Vector_27" d="M4.49918 9.49951H3.49512V10.497H4.49918V9.49951Z" fill="#000001"/>
<path id="Vector_28" d="M4.49918 2.49756H3.49512V3.50162H4.49918V2.49756Z" fill="#000001"/>
<path id="Vector_29" d="M3.49506 20.4985H2.49756V21.5026H3.49506V20.4985Z" fill="#000001"/>
<path id="Vector_30" d="M3.49506 10.4971H2.49756V11.5011H3.49506V10.4971Z" fill="#000001"/>
<path id="Vector_31" d="M3.49506 8.50195H2.49756V9.49945H3.49506V8.50195Z" fill="#000001"/>
<path id="Vector_32" d="M3.49506 3.50146H2.49756V4.49896H3.49506V3.50146Z" fill="#000001"/>
<path id="Vector_33" d="M2.4975 11.5015H1.5V20.4987H2.4975V11.5015Z" fill="#000001"/>
<path id="Vector_34" d="M2.4975 4.49902H1.5V8.50215H2.4975V4.49902Z" fill="#000001"/>
</g>
</g>
</svg>
