<svg width="24" height="24" viewBox="0 0 24 24" fill="none" xmlns="http://www.w3.org/2000/svg">
<g id="entertainment-events-hobbies-game-pool-snooker-ball">
<g id="Group">
<path id="Vector" d="M21.4959 7.49809H20.4984V5.50309H19.4944V6.50059H18.4969V5.50309H16.4953V4.49902H14.4937V5.50309H15.4978V6.50059H16.4953V11.5012H15.4978V12.4987H14.4937V13.5028H9.49969V12.4987H8.49562V11.5012H7.49813V6.50059H8.49562V5.50309H9.49969V4.49902H7.49813V5.50309H5.49656V6.50059H4.49906V5.50309H3.495V7.49809H2.4975V9.49965H1.5V14.5003H2.4975V16.5018H3.495V18.4968H4.49906V16.5018H5.49656V15.4978H6.49406V14.5003H17.4994V15.4978H18.4969V16.5018H19.4944V18.4968H20.4984V16.5018H21.4959V14.5003H22.5V9.49965H21.4959V7.49809Z" fill="#000001"/>
<path id="Vector_2" d="M19.4943 18.4971H18.4968V19.5011H19.4943V18.4971Z" fill="#000001"/>
<path id="Vector_3" d="M19.4943 4.49902H18.4968V5.50309H19.4943V4.49902Z" fill="#000001"/>
<path id="Vector_4" d="M18.4969 19.501H16.4954V20.4985H18.4969V19.501Z" fill="#000001"/>
<path id="Vector_5" d="M18.4969 3.50146H16.4954V4.49896H18.4969V3.50146Z" fill="#000001"/>
<path id="Vector_6" d="M16.4952 20.4985H14.4937V21.5026H16.4952V20.4985Z" fill="#000001"/>
<path id="Vector_7" d="M16.4952 2.49756H14.4937V3.50162H16.4952V2.49756Z" fill="#000001"/>
<path id="Vector_8" d="M14.4938 9.49951H13.4963V11.5011H14.4938V9.49951Z" fill="#000001"/>
<path id="Vector_9" d="M14.4938 6.50049H13.4963V8.50205H14.4938V6.50049Z" fill="#000001"/>
<path id="Vector_10" d="M14.4938 3.50146H9.49976V4.49896H14.4938V3.50146Z" fill="#000001"/>
<path id="Vector_11" d="M14.4938 21.5024H9.49976V22.4999H14.4938V21.5024Z" fill="#000001"/>
<path id="Vector_12" d="M13.4961 11.5015H10.4971V12.499H13.4961V11.5015Z" fill="#000001"/>
<path id="Vector_13" d="M13.4961 8.50195H10.4971V9.49945H13.4961V8.50195Z" fill="#000001"/>
<path id="Vector_14" d="M13.4961 5.50293H10.4971V6.50043H13.4961V5.50293Z" fill="#000001"/>
<path id="Vector_15" d="M14.4938 1.5H9.49976V2.4975H14.4938V1.5Z" fill="#000001"/>
<path id="Vector_16" d="M10.4973 9.49951H9.49976V11.5011H10.4973V9.49951Z" fill="#000001"/>
<path id="Vector_17" d="M10.4973 6.50049H9.49976V8.50205H10.4973V6.50049Z" fill="#000001"/>
<path id="Vector_18" d="M9.49961 20.4985H7.49805V21.5026H9.49961V20.4985Z" fill="#000001"/>
<path id="Vector_19" d="M9.49961 2.49756H7.49805V3.50162H9.49961V2.49756Z" fill="#000001"/>
<path id="Vector_20" d="M7.49814 19.501H5.49658V20.4985H7.49814V19.501Z" fill="#000001"/>
<path id="Vector_21" d="M7.49814 3.50146H5.49658V4.49896H7.49814V3.50146Z" fill="#000001"/>
<path id="Vector_22" d="M5.49652 18.4971H4.49902V19.5011H5.49652V18.4971Z" fill="#000001"/>
<path id="Vector_23" d="M5.49652 4.49902H4.49902V5.50309H5.49652V4.49902Z" fill="#000001"/>
</g>
</g>
</svg>
