<svg width="24" height="24" viewBox="0 0 24 24" fill="none" xmlns="http://www.w3.org/2000/svg">
<g id="entertainment-events-hobbies-film-roll">
<g id="Group">
<path id="Vector" d="M22.5001 19.501H20.4985V20.4985H22.5001V19.501Z" fill="#000001"/>
<path id="Vector_2" d="M20.4984 20.4985H19.4944V21.5026H20.4984V20.4985Z" fill="#000001"/>
<path id="Vector_3" d="M20.4984 6.50073H19.4944V15.4979H20.4984V6.50073Z" fill="#000001"/>
<path id="Vector_4" d="M19.4943 15.498H18.4968V17.4996H19.4943V15.498Z" fill="#000001"/>
<path id="Vector_5" d="M19.4943 4.49902H18.4968V6.50059H19.4943V4.49902Z" fill="#000001"/>
<path id="Vector_6" d="M19.4943 21.5024H17.4993V22.4999H19.4943V21.5024Z" fill="#000001"/>
<path id="Vector_7" d="M18.4968 17.4995H17.4993V18.497H18.4968V17.4995Z" fill="#000001"/>
<path id="Vector_8" d="M18.4968 3.50146H17.4993V4.49896H18.4968V3.50146Z" fill="#000001"/>
<path id="Vector_9" d="M17.4994 18.4971H15.4978V19.5011H16.4953V21.5027H17.4994V18.4971Z" fill="#000001"/>
<path id="Vector_10" d="M16.4954 15.4976H17.4995V13.5026H16.4954V12.4985H14.4938V13.5026H13.4963V15.4976H14.4938V16.5017H16.4954V15.4976Z" fill="#000001"/>
<path id="Vector_11" d="M17.4994 2.49756H15.4978V3.50162H17.4994V2.49756Z" fill="#000001"/>
<path id="Vector_12" d="M14.4938 9.49974H16.4954V8.50224H17.4995V6.50067H16.4954V5.50317H14.4938V6.50067H13.4963V8.50224H14.4938V9.49974Z" fill="#000001"/>
<path id="Vector_13" d="M15.4979 19.501H6.49414V20.4985H15.4979V19.501Z" fill="#000001"/>
<path id="Vector_14" d="M12.4988 9.49951H9.49976V12.4986H12.4988V9.49951Z" fill="#000001"/>
<path id="Vector_15" d="M15.4979 1.5H6.49414V2.4975H15.4979V1.5Z" fill="#000001"/>
<path id="Vector_16" d="M7.49809 12.4985H5.49652V13.5026H4.49902V15.4976H5.49652V16.5017H7.49809V15.4976H8.49559V13.5026H7.49809V12.4985Z" fill="#000001"/>
<path id="Vector_17" d="M7.49809 5.50317H5.49652V6.50067H4.49902V8.50224H5.49652V9.49974H7.49809V8.50224H8.49559V6.50067H7.49809V5.50317Z" fill="#000001"/>
<path id="Vector_18" d="M6.49402 18.4971H4.49902V19.5011H6.49402V18.4971Z" fill="#000001"/>
<path id="Vector_19" d="M6.49402 2.49756H4.49902V3.50162H6.49402V2.49756Z" fill="#000001"/>
<path id="Vector_20" d="M4.49918 17.4995H3.49512V18.497H4.49918V17.4995Z" fill="#000001"/>
<path id="Vector_21" d="M4.49918 3.50146H3.49512V4.49896H4.49918V3.50146Z" fill="#000001"/>
<path id="Vector_22" d="M3.49506 15.498H2.49756V17.4996H3.49506V15.498Z" fill="#000001"/>
<path id="Vector_23" d="M3.49506 4.49902H2.49756V6.50059H3.49506V4.49902Z" fill="#000001"/>
<path id="Vector_24" d="M2.4975 6.50073H1.5V15.4979H2.4975V6.50073Z" fill="#000001"/>
</g>
</g>
</svg>
