<svg width="24" height="24" viewBox="0 0 24 24" fill="none" xmlns="http://www.w3.org/2000/svg">
<g id="entertainment-events-hobbies-film-player">
<g id="Group">
<path id="Vector" d="M1.5 4.00024V19.9996H22.5V4.00024H1.5ZM6.49406 18.9956H2.4975V4.99774H6.49406V18.9956ZM16.4953 18.9956H7.49813V4.99774H16.4953V18.9956ZM21.4959 18.9956H17.4994V4.99774H21.4959V18.9956Z" fill="#000001"/>
<path id="Vector_2" d="M20.4984 14.999H18.4968V17.0006H20.4984V14.999Z" fill="#000001"/>
<path id="Vector_3" d="M20.4984 10.9961H18.4968V12.9977H20.4984V10.9961Z" fill="#000001"/>
<path id="Vector_4" d="M20.4984 6.99927H18.4968V9.00083H20.4984V6.99927Z" fill="#000001"/>
<path id="Vector_5" d="M11.4948 14.0015H12.4988V12.9975H13.4963V12H14.4938V10.9959H13.4963V9.99839H12.4988V9.00089H11.4948V7.99683H9.49976V14.999H11.4948V14.0015Z" fill="#000001"/>
<path id="Vector_6" d="M5.49668 14.999H3.49512V17.0006H5.49668V14.999Z" fill="#000001"/>
<path id="Vector_7" d="M5.49668 10.9961H3.49512V12.9977H5.49668V10.9961Z" fill="#000001"/>
<path id="Vector_8" d="M5.49668 6.99927H3.49512V9.00083H5.49668V6.99927Z" fill="#000001"/>
</g>
</g>
</svg>
