<svg width="24" height="24" viewBox="0 0 24 24" fill="none" xmlns="http://www.w3.org/2000/svg">
<g id="entertainment-events-hobbies-video-camera-film-3">
<g id="Group">
<path id="Vector" d="M22.4999 9.00049H21.4958V14.9986H22.4999V9.00049Z" fill="#000001"/>
<path id="Vector_2" d="M22.4999 3.00244H21.4958V5.004H22.4999V3.00244Z" fill="#000001"/>
<path id="Vector_3" d="M21.4959 8.00342H19.4944V9.00092H21.4959V8.00342Z" fill="#000001"/>
<path id="Vector_4" d="M21.4959 14.999H19.4944V16.0031H21.4959V14.999Z" fill="#000001"/>
<path id="Vector_5" d="M21.4958 5.00439H17.4993V6.00189H21.4958V5.00439Z" fill="#000001"/>
<path id="Vector_6" d="M19.4943 14.0015H18.4968V14.999H19.4943V14.0015Z" fill="#000001"/>
<path id="Vector_7" d="M19.4943 9.00049H18.4968V9.99799H19.4943V9.00049Z" fill="#000001"/>
<path id="Vector_8" d="M21.4958 1.99854H17.4993V3.0026H21.4958V1.99854Z" fill="#000001"/>
<path id="Vector_9" d="M15.4978 3.00244V3.99994H16.4953V5.004H17.4994V3.00244H15.4978Z" fill="#000001"/>
<path id="Vector_10" d="M15.4978 17.9977H16.4953V14.0011H18.4969V9.99799H16.4953V9.00049H15.4978V17.9977ZM16.4953 11.0021H17.4994V13.0036H16.4953V11.0021Z" fill="#000001"/>
<path id="Vector_11" d="M15.4977 4H14.4937V5.00406H15.4977V4Z" fill="#000001"/>
<path id="Vector_12" d="M2.49756 17.998V19.0021H7.49818V19.9996H8.49568V22.0012H9.49975V19.9996H10.4972V19.0021H15.4979V17.998H2.49756Z" fill="#000001"/>
<path id="Vector_13" d="M13.4963 8.00346H12.4988V6.00189H11.4947V8.00346H10.4972V6.99939H9.49975V8.00346H5.49662V6.99939H4.49912V8.00346H3.49506V6.00189H2.49756V9.00096H15.4979V8.00346H14.4938V5.00439H13.4963V8.00346Z" fill="#000001"/>
<path id="Vector_14" d="M13.4963 14.0015H12.4988V14.999H13.4963V14.0015Z" fill="#000001"/>
<path id="Vector_15" d="M12.4987 21.0034H11.4946V22.0009H12.4987V21.0034Z" fill="#000001"/>
<path id="Vector_16" d="M13.4961 16.0029H10.4971V17.0004H13.4961V16.0029Z" fill="#000001"/>
<path id="Vector_17" d="M11.4946 19.9995H10.4971V21.0036H11.4946V19.9995Z" fill="#000001"/>
<path id="Vector_18" d="M11.4946 14.0015H10.4971V14.999H11.4946V14.0015Z" fill="#000001"/>
<path id="Vector_19" d="M11.4946 5.00439H10.4971V6.00189H11.4946V5.00439Z" fill="#000001"/>
<path id="Vector_20" d="M9.49971 6.00146H5.49658V6.99896H9.49971V6.00146Z" fill="#000001"/>
<path id="Vector_21" d="M7.4982 19.9995H6.49414V21.0036H7.4982V19.9995Z" fill="#000001"/>
<path id="Vector_22" d="M8.49574 9.99805H3.49512V14.0012H8.49574V9.99805ZM6.49418 11.9996H5.49668V13.0037H4.49918V11.0021H6.49418V11.9996Z" fill="#000001"/>
<path id="Vector_23" d="M6.49408 21.0034H5.49658V22.0009H6.49408V21.0034Z" fill="#000001"/>
<path id="Vector_24" d="M10.4971 4H4.49902V5.00406H10.4971V4Z" fill="#000001"/>
<path id="Vector_25" d="M4.49918 5.00439H3.49512V6.00189H4.49918V5.00439Z" fill="#000001"/>
<path id="Vector_26" d="M2.4975 9.00049H1.5V17.9977H2.4975V9.00049Z" fill="#000001"/>
</g>
</g>
</svg>
