<svg width="24" height="24" viewBox="0 0 24 24" fill="none" xmlns="http://www.w3.org/2000/svg">
<g id="entertainment-events-hobbies-chess-rook">
<g id="Group">
<path id="Vector" d="M19.4975 18.4971H18.5V20.4986H19.4975V18.4971Z" fill="#000001"/>
<path id="Vector_2" d="M18.5001 20.4985H5.49976V21.5026H18.5001V20.4985Z" fill="#000001"/>
<path id="Vector_3" d="M16.4985 14.5005H15.501V15.498H16.4985V14.5005Z" fill="#000001"/>
<path id="Vector_4" d="M15.5009 13.5029H14.4968V14.5004H15.5009V13.5029Z" fill="#000001"/>
<path id="Vector_5" d="M10.5004 13.5029V8.50225H13.4995V13.5029H14.497V8.50225H16.4986V7.49818H17.5026V2.49756H15.5011V3.50162H13.4995V2.49756H10.5004V3.50162H8.49888V2.49756H6.49731V7.49818H7.50138V8.50225H9.50622V13.5029H10.5004ZM9.50622 5.50318H14.5003V6.50068H9.50622V5.50318Z" fill="#000001"/>
<path id="Vector_6" d="M9.50284 13.5029H8.49878V14.5004H9.50284V13.5029Z" fill="#000001"/>
<path id="Vector_7" d="M8.49872 14.5005H7.50122V15.498H8.49872V14.5005Z" fill="#000001"/>
<path id="Vector_8" d="M7.50132 17.4996V15.498H6.49726V17.4996H5.49976V18.4971H18.5001V17.4996H17.5026V15.498H16.4985V17.4996H7.50132Z" fill="#000001"/>
<path id="Vector_9" d="M5.4997 18.4971H4.5022V20.4986H5.4997V18.4971Z" fill="#000001"/>
</g>
</g>
</svg>
