<svg width="24" height="24" viewBox="0 0 24 24" fill="none" xmlns="http://www.w3.org/2000/svg">
<g id="food-drink-hamburger">
<g id="Group">
<path id="Vector" d="M21.496 14.0016H20.4985V12.9975H19.4944V14.0016H18.4969V14.9991H16.4954V14.0016H15.4979V12.9975H12.4988V14.0016H10.4972V14.9991H7.49818V14.0016H6.49412V12.9975H3.49506V14.0016H2.49756V14.9991H3.49506V17.9981H4.49912V15.9966H19.4944V17.9981H20.4985V15.9966H21.496V14.9991H22.5001V12H21.496V14.0016Z" fill="#000001"/>
<path id="Vector_2" d="M19.4943 17.998H18.4968V19.0021H19.4943V17.998Z" fill="#000001"/>
<path id="Vector_3" d="M19.4943 6.99927H18.4968V7.99677H19.4943V6.99927Z" fill="#000001"/>
<path id="Vector_4" d="M18.4969 6.00171H17.4994V6.99921H18.4969V6.00171Z" fill="#000001"/>
<path id="Vector_5" d="M18.4969 19.0022H5.49658V19.9997H18.4969V19.0022Z" fill="#000001"/>
<path id="Vector_6" d="M16.4953 6.99927H15.4978V7.99677H16.4953V6.99927Z" fill="#000001"/>
<path id="Vector_7" d="M17.4994 4.9978H15.4978V6.00187H17.4994V4.9978Z" fill="#000001"/>
<path id="Vector_8" d="M14.5003 7.99683H13.4962V9.00089H14.5003V7.99683Z" fill="#000001"/>
<path id="Vector_9" d="M14.5003 6.00171H13.4962V6.99921H14.5003V6.00171Z" fill="#000001"/>
<path id="Vector_10" d="M12.4987 6.99927H11.4946V7.99677H12.4987V6.99927Z" fill="#000001"/>
<path id="Vector_11" d="M10.4971 7.99683H9.49963V9.00089H10.4971V7.99683Z" fill="#000001"/>
<path id="Vector_12" d="M10.4971 6.00171H9.49963V6.99921H10.4971V6.00171Z" fill="#000001"/>
<path id="Vector_13" d="M15.4978 4.00024H8.49561V4.99774H15.4978V4.00024Z" fill="#000001"/>
<path id="Vector_14" d="M8.49567 6.99927H7.49817V7.99677H8.49567V6.99927Z" fill="#000001"/>
<path id="Vector_15" d="M8.49558 4.9978H6.49402V6.00187H8.49558V4.9978Z" fill="#000001"/>
<path id="Vector_16" d="M6.49408 6.00171H5.49658V6.99921H6.49408V6.00171Z" fill="#000001"/>
<path id="Vector_17" d="M5.49652 17.998H4.49902V19.0021H5.49652V17.998Z" fill="#000001"/>
<path id="Vector_18" d="M5.49652 6.99927H4.49902V7.99677H5.49652V6.99927Z" fill="#000001"/>
<path id="Vector_19" d="M21.496 12V10.9959H20.4985V7.99683H19.4944V10.9959H4.49912V7.99683H3.49506V10.9959H2.49756V12H21.496Z" fill="#000001"/>
<path id="Vector_20" d="M2.4975 12H1.5V14.0016H2.4975V12Z" fill="#000001"/>
</g>
</g>
</svg>
