<svg width="24" height="24" viewBox="0 0 24 24" fill="none" xmlns="http://www.w3.org/2000/svg">
<g id="food-drink-milk">
<g id="Group">
<path id="Vector" d="M21.998 8.49878H21.0005V20.5016H21.998V8.49878Z" fill="#000001"/>
<path id="Vector_2" d="M21.0005 7.50146H19.9965V8.49896H21.0005V7.50146Z" fill="#000001"/>
<path id="Vector_3" d="M2.99958 19.5041H13.0008V20.5016H2.99958V21.4991H21.0005V20.5016H13.9983V8.49878H13.0008V9.50612H2.99958V8.50206H2.00208V20.5049H2.99958V19.5041ZM2.99958 10.5003H6.99614V11.4978H7.99692V12.5019H8.99442V13.4994H9.99848V12.5019H10.996V13.4994H12V12.5019H13.0041V18.5H10.005V17.5025H7.99692V15.501H6.99614V16.4985H5.99864V15.501H5.00114V14.5035H3.99708V15.501H2.99958V10.5003Z" fill="#000001"/>
<path id="Vector_4" d="M19.9964 17.5027H18.9989V18.5002H19.9964V17.5027Z" fill="#000001"/>
<path id="Vector_5" d="M19.9964 15.501H18.9989V16.4985H19.9964V15.501Z" fill="#000001"/>
<path id="Vector_6" d="M19.9964 6.50391H18.9989V7.50141H19.9964V6.50391Z" fill="#000001"/>
<path id="Vector_7" d="M19.9965 13.4995H15.0024V14.5036H19.9965V13.4995Z" fill="#000001"/>
<path id="Vector_8" d="M19.9965 11.4978H15.0024V12.5019H19.9965V11.4978Z" fill="#000001"/>
<path id="Vector_9" d="M18.999 5.49976H18.0015V6.50382H18.999V5.49976Z" fill="#000001"/>
<path id="Vector_10" d="M18.0015 17.5027H15.0024V18.5002H18.0015V17.5027Z" fill="#000001"/>
<path id="Vector_11" d="M18.0015 15.501H15.0024V16.4985H18.0015V15.501Z" fill="#000001"/>
<path id="Vector_12" d="M16.9974 5.49976H15.9999V6.50382H16.9974V5.49976Z" fill="#000001"/>
<path id="Vector_13" d="M15.9999 6.50391H15.0024V7.50141H15.9999V6.50391Z" fill="#000001"/>
<path id="Vector_14" d="M15.0024 7.50146H13.9983V8.49896H15.0024V7.50146Z" fill="#000001"/>
<path id="Vector_15" d="M15.0023 5.49976H6.99609V6.50382H15.0023V5.49976Z" fill="#000001"/>
<path id="Vector_16" d="M6.99616 3.49823H16.9974V5.49979H18.0015V2.50073H5.99866V5.49979H6.99616V3.49823Z" fill="#000001"/>
<path id="Vector_17" d="M5.9986 5.49976H5.0011V6.50382H5.9986V5.49976Z" fill="#000001"/>
<path id="Vector_18" d="M5.00113 6.50391H3.99707V7.50141H5.00113V6.50391Z" fill="#000001"/>
<path id="Vector_19" d="M3.99713 7.50146H2.99963V8.49896H3.99713V7.50146Z" fill="#000001"/>
</g>
</g>
</svg>
