<svg width="24" height="24" viewBox="0 0 24 24" fill="none" xmlns="http://www.w3.org/2000/svg">
<g id="food-drink-pizza">
<g id="Group">
<path id="Vector" d="M21.4959 7.00264H19.4944V5.99857H17.4994V5.00107H15.4978V3.99701H13.4963V2.99951H11.4947V3.99701H10.4972V7.00264H13.4963V8.00014H15.4978V8.99764H17.4994V10.0017H19.4944V10.9992H20.4984V10.0017H21.4959V13.0008H22.5V8.00014H21.4959V7.00264Z" fill="#000001"/>
<path id="Vector_2" d="M21.4959 13.0007H19.4944V13.9982H21.4959V13.0007Z" fill="#000001"/>
<path id="Vector_3" d="M19.4944 13.9983H17.4994V15.0024H19.4944V13.9983Z" fill="#000001"/>
<path id="Vector_4" d="M19.4944 10.9993H17.4994V11.9968H19.4944V10.9993Z" fill="#000001"/>
<path id="Vector_5" d="M17.4994 15.0024H15.4978V15.9999H17.4994V15.0024Z" fill="#000001"/>
<path id="Vector_6" d="M17.4994 11.9966H15.4978V13.0006H17.4994V11.9966Z" fill="#000001"/>
<path id="Vector_7" d="M15.4978 10.0017H13.4962V11.9967H15.4978V10.0017Z" fill="#000001"/>
<path id="Vector_8" d="M15.4978 15.9998H13.4962V16.9973H15.4978V15.9998Z" fill="#000001"/>
<path id="Vector_9" d="M15.4978 13.0007H13.4962V13.9982H15.4978V13.0007Z" fill="#000001"/>
<path id="Vector_10" d="M13.4962 16.9973H11.4946V18.0014H13.4962V16.9973Z" fill="#000001"/>
<path id="Vector_11" d="M13.4962 13.9983H11.4946V15.0024H13.4962V13.9983Z" fill="#000001"/>
<path id="Vector_12" d="M12.4987 10.9993H11.4946V11.9968H12.4987V10.9993Z" fill="#000001"/>
<path id="Vector_13" d="M12.4988 8.00024H10.4972V10.0018H12.4988V8.00024Z" fill="#000001"/>
<path id="Vector_14" d="M11.4946 18.0015H9.49963V18.999H11.4946V18.0015Z" fill="#000001"/>
<path id="Vector_15" d="M11.4946 15.0024H9.49963V15.9999H11.4946V15.0024Z" fill="#000001"/>
<path id="Vector_16" d="M10.4972 10.9993H8.49561V13.0008H10.4972V10.9993Z" fill="#000001"/>
<path id="Vector_17" d="M10.4971 7.00269H9.49963V8.00019H10.4971V7.00269Z" fill="#000001"/>
<path id="Vector_18" d="M9.49967 13.9983H8.49561V15.0024H9.49967V13.9983Z" fill="#000001"/>
<path id="Vector_19" d="M9.49967 8.00024H8.49561V8.99774H9.49967V8.00024Z" fill="#000001"/>
<path id="Vector_20" d="M9.49973 18.9988H7.49817V20.0028H9.49973V18.9988Z" fill="#000001"/>
<path id="Vector_21" d="M9.49973 15.9998H7.49817V16.9973H9.49973V15.9998Z" fill="#000001"/>
<path id="Vector_22" d="M8.49567 8.99756H7.49817V10.0016H8.49567V8.99756Z" fill="#000001"/>
<path id="Vector_23" d="M7.49814 13.9983H5.49658V15.9999H7.49814V13.9983Z" fill="#000001"/>
<path id="Vector_24" d="M7.49808 11.9966H6.49402V13.0006H7.49808V11.9966Z" fill="#000001"/>
<path id="Vector_25" d="M7.49808 10.0017H6.49402V10.9992H7.49808V10.0017Z" fill="#000001"/>
<path id="Vector_26" d="M7.49812 20.0029H3.495V21.0004H7.49812V20.0029Z" fill="#000001"/>
<path id="Vector_27" d="M7.49814 16.9973H5.49658V18.0014H7.49814V16.9973Z" fill="#000001"/>
<path id="Vector_28" d="M6.49408 10.9993H5.49658V11.9968H6.49408V10.9993Z" fill="#000001"/>
<path id="Vector_29" d="M5.49652 11.9966H4.49902V13.0006H5.49652V11.9966Z" fill="#000001"/>
<path id="Vector_30" d="M5.49662 18.999V18.0015H2.49756V20.003H3.49506V18.999H5.49662Z" fill="#000001"/>
<path id="Vector_31" d="M4.49906 15.0024H3.495V15.9999H4.49906V15.0024Z" fill="#000001"/>
<path id="Vector_32" d="M4.49906 13.0007H3.495V13.9982H4.49906V13.0007Z" fill="#000001"/>
<path id="Vector_33" d="M3.49506 13.9983H2.49756V15.0024H3.49506V13.9983Z" fill="#000001"/>
<path id="Vector_34" d="M2.4975 15.0024H1.5V18.0015H2.4975V15.0024Z" fill="#000001"/>
</g>
</g>
</svg>
