<svg width="24" height="24" viewBox="0 0 24 24" fill="none" xmlns="http://www.w3.org/2000/svg">
<g id="food-drink-coffee-cup">
<g id="Group">
<path id="Vector" d="M18.5034 8.5023H5.50309V6.50073H4.49902V9.49979H5.50309V15.4979H6.50059V19.501H7.50465V18.5035H16.5018V19.501H17.4993V15.4979H18.5034V9.49979H19.5009V6.50073H18.5034V8.5023ZM16.5018 17.4995H7.50465V16.502H16.5018V17.4995ZM16.5018 14.5004H15.5043V15.4979H14.5003V14.5004H13.5028V15.4979H12.4987V14.5004H11.5012V15.4979H10.5037V14.5004H9.49965V15.4979H8.50215V14.5004H7.50465V13.5029H8.50215V14.5004H9.49965V13.5029H10.5037V14.5004H11.5012V13.5029H12.4987V14.5004H13.5028V13.5029H14.5003V14.5004H15.5043V13.5029H16.5018V14.5004ZM17.4993 12.4989H6.50059V11.5014H17.4993V12.4989ZM17.4993 10.5039H6.50059V9.49979H17.4993V10.5039Z" fill="#000001"/>
<path id="Vector_2" d="M17.4993 1.5H14.5002V2.4975H17.4993V1.5Z" fill="#000001"/>
<path id="Vector_3" d="M15.5043 21.5025H8.50214V19.501H7.50464V22.5H16.5018V19.501H15.5043V21.5025Z" fill="#000001"/>
<path id="Vector_4" d="M14.5003 2.49756H13.5028V3.50162H14.5003V2.49756Z" fill="#000001"/>
<path id="Vector_5" d="M13.5028 3.50146H6.50061V4.49896H13.5028V3.50146Z" fill="#000001"/>
<path id="Vector_6" d="M18.5034 6.50068V2.49756H17.4993V5.50318H6.50055V4.49912H5.50305V6.50068H18.5034Z" fill="#000001"/>
</g>
</g>
</svg>
