<svg width="24" height="24" viewBox="0 0 24 24" fill="none" xmlns="http://www.w3.org/2000/svg">
<g id="food-drink-desert-cupcake">
<g id="Group">
<path id="Vector" d="M22.5 8.00342H21.496V12H22.5V8.00342Z" fill="#000001"/>
<path id="Vector_2" d="M21.4959 12H20.4984V13.0041H21.4959V12Z" fill="#000001"/>
<path id="Vector_3" d="M21.4959 6.00195H20.4984V8.00352H21.4959V6.00195Z" fill="#000001"/>
<path id="Vector_4" d="M20.4984 5.00439H19.4944V6.00189H20.4984V5.00439Z" fill="#000001"/>
<path id="Vector_5" d="M17.4994 13.0041V12H16.4953V13.0041H15.4978V14.9991H13.4962V14.0016H11.4947V14.9991H10.4972V17.0006H8.49562V16.0031H7.49812V14.9991H6.49406V14.0016H3.495V14.9991H4.49906V17.0006H5.49656V19.9997H6.49406V21.0037H7.49812V22.0012H17.4994V21.0037H18.4969V19.9997H19.4944V17.0006H20.4984V13.0041H17.4994ZM9.49968 19.9997H8.49562V18.0047H9.49968V19.9997ZM13.4962 19.9997H12.4987V16.0031H13.4962V19.9997ZM17.4994 19.9997H16.4953V18.0047H17.4994V19.9997Z" fill="#000001"/>
<path id="Vector_6" d="M20.4984 9.99854H18.4968V11.0026H20.4984V9.99854Z" fill="#000001"/>
<path id="Vector_7" d="M19.4943 4.00024H18.4968V5.00431H19.4943V4.00024Z" fill="#000001"/>
<path id="Vector_8" d="M17.4994 6.99951H16.4954V9.00107H17.4994V6.99951Z" fill="#000001"/>
<path id="Vector_9" d="M18.4969 3.00293H16.4954V4.00043H18.4969V3.00293Z" fill="#000001"/>
<path id="Vector_10" d="M15.4979 5.00439H14.5004V6.00189H15.4979V5.00439Z" fill="#000001"/>
<path id="Vector_11" d="M14.5003 4.00024H13.4962V5.00431H14.5003V4.00024Z" fill="#000001"/>
<path id="Vector_12" d="M14.5003 9.00098H12.4988V9.99848H14.5003V9.00098Z" fill="#000001"/>
<path id="Vector_13" d="M16.4953 1.99878H10.4972V3.00284H16.4953V1.99878Z" fill="#000001"/>
<path id="Vector_14" d="M12.4988 12H10.4972V13.0041H12.4988V12Z" fill="#000001"/>
<path id="Vector_15" d="M10.4971 8.00346H11.4946V6.99939H12.4987V6.00189H11.4946V5.00439H9.49964V6.00189H8.49558V6.99939H7.49808V8.00346H8.49558V9.00096H7.49808V8.00346H6.49402V9.99846H7.49808V11.0025H8.49558V9.99846H9.49964V9.00096H10.4971V8.00346Z" fill="#000001"/>
<path id="Vector_16" d="M10.4972 3.00293H7.49817V4.00043H10.4972V3.00293Z" fill="#000001"/>
<path id="Vector_17" d="M8.49567 13.0042H7.49817V14.0016H8.49567V13.0042Z" fill="#000001"/>
<path id="Vector_18" d="M7.49808 12H6.49402V13.0041H7.49808V12Z" fill="#000001"/>
<path id="Vector_19" d="M7.49814 4.00024H5.49658V5.00431H7.49814V4.00024Z" fill="#000001"/>
<path id="Vector_20" d="M5.49652 5.00439H4.49902V6.00189H5.49652V5.00439Z" fill="#000001"/>
<path id="Vector_21" d="M4.49906 9.99854H3.495V12.0001H4.49906V9.99854Z" fill="#000001"/>
<path id="Vector_22" d="M4.49906 6.00195H3.495V8.00352H4.49906V6.00195Z" fill="#000001"/>
<path id="Vector_23" d="M3.49506 13.0042H2.49756V14.0016H3.49506V13.0042Z" fill="#000001"/>
<path id="Vector_24" d="M3.49506 8.00342H2.49756V9.00092H3.49506V8.00342Z" fill="#000001"/>
<path id="Vector_25" d="M2.4975 9.00098H1.5V13.0041H2.4975V9.00098Z" fill="#000001"/>
</g>
</g>
</svg>
