<svg width="24" height="24" viewBox="0 0 24 24" fill="none" xmlns="http://www.w3.org/2000/svg">
<g id="food-drink-desert-icecream">
<g id="Group">
<path id="Vector" d="M5.99701 15.4978H6.99451V7.49813H7.99529V6.50062H10.9944V7.49813H11.9984V8.50219H14V7.49813H15.004V6.50062H16.0015V7.49813H16.999V15.4978H18.0031V6.50062H19.0006V4.49906H18.0031V3.50156H16.999V2.4975H16.0015V1.5H7.99529V2.4975H6.99451V3.50156H5.99701V4.49906H4.99951V6.50062H5.99701V15.4978ZM11.9984 2.4975H14V3.50156H15.004V4.49906H16.0015V5.50312H15.004V4.49906H14V3.50156H11.9984V2.4975Z" fill="#000001"/>
<path id="Vector_2" d="M16.9958 15.4978H15.9983V16.5019H16.9958V15.4978Z" fill="#000001"/>
<path id="Vector_3" d="M7.99854 16.502V17.4995H10.0001V21.5026H10.9976V17.4995H12.9992V21.5026H13.9967V17.4995H15.9982V16.502H7.99854Z" fill="#000001"/>
<path id="Vector_4" d="M15.0008 12.4988H13.9967V13.5028H15.0008V12.4988Z" fill="#000001"/>
<path id="Vector_5" d="M13.9966 10.4971H12.9991V11.5011H13.9966V10.4971Z" fill="#000001"/>
<path id="Vector_6" d="M13.9967 13.5029H10.0001V14.5004H13.9967V13.5029Z" fill="#000001"/>
<path id="Vector_7" d="M12.9992 21.5024H10.9977V22.4999H12.9992V21.5024Z" fill="#000001"/>
<path id="Vector_8" d="M10.9976 10.4971H10.0001V11.5011H10.9976V10.4971Z" fill="#000001"/>
<path id="Vector_9" d="M10.0002 12.4988H8.99609V13.5028H10.0002V12.4988Z" fill="#000001"/>
<path id="Vector_10" d="M7.99857 15.4978H6.99451V16.5019H7.99857V15.4978Z" fill="#000001"/>
</g>
</g>
</svg>
