<svg width="24" height="24" viewBox="0 0 24 24" fill="none" xmlns="http://www.w3.org/2000/svg">
<g id="food-drink-desert-cake-pond">
<g id="Group">
<path id="Vector" d="M21.4959 12.4988H20.4984V13.5029H21.4959V16.5019H2.4975V13.5029H3.495V12.4988H2.4975V9.49976H1.5V20.4985H2.4975V18.5035H21.4959V20.4985H22.5V9.49976H21.4959V12.4988Z" fill="#000001"/>
<path id="Vector_2" d="M21.4959 20.4985H20.4984V21.5026H21.4959V20.4985Z" fill="#000001"/>
<path id="Vector_3" d="M21.4959 8.5022H20.4984V9.4997H21.4959V8.5022Z" fill="#000001"/>
<path id="Vector_4" d="M20.4984 10.4971H19.4944V11.5011H20.4984V10.4971Z" fill="#000001"/>
<path id="Vector_5" d="M20.4984 21.5024H3.495V22.4999H20.4984V21.5024Z" fill="#000001"/>
<path id="Vector_6" d="M20.4985 13.5029H17.4994V14.5004H20.4985V13.5029Z" fill="#000001"/>
<path id="Vector_7" d="M17.4994 12.4988H16.4954V13.5028H17.4994V12.4988Z" fill="#000001"/>
<path id="Vector_8" d="M16.4953 1.5H15.4978V2.4975H16.4953V1.5Z" fill="#000001"/>
<path id="Vector_9" d="M15.4979 9.49976H14.5004V10.4973H15.4979V9.49976Z" fill="#000001"/>
<path id="Vector_10" d="M16.4953 13.5029H12.4988V14.5004H16.4953V13.5029Z" fill="#000001"/>
<path id="Vector_11" d="M12.4987 12.4988H11.4946V13.5028H12.4987V12.4988Z" fill="#000001"/>
<path id="Vector_12" d="M12.4987 1.5H11.4946V2.4975H12.4987V1.5Z" fill="#000001"/>
<path id="Vector_13" d="M9.49967 9.49976H8.49561V10.4973H9.49967V9.49976Z" fill="#000001"/>
<path id="Vector_14" d="M11.4947 13.5029H7.49817V14.5004H11.4947V13.5029Z" fill="#000001"/>
<path id="Vector_15" d="M8.49567 1.5H7.49817V2.4975H8.49567V1.5Z" fill="#000001"/>
<path id="Vector_16" d="M7.49808 12.4988H6.49402V13.5028H7.49808V12.4988Z" fill="#000001"/>
<path id="Vector_17" d="M20.4984 8.50209V7.49803H16.4953V3.50146H15.4978V7.49803H12.4987V3.50146H11.4947V7.49803H8.49562V3.50146H7.49812V7.49803H3.495V8.50209H20.4984Z" fill="#000001"/>
<path id="Vector_18" d="M6.49406 13.5029H3.495V14.5004H6.49406V13.5029Z" fill="#000001"/>
<path id="Vector_19" d="M4.49906 10.4971H3.495V11.5011H4.49906V10.4971Z" fill="#000001"/>
<path id="Vector_20" d="M3.49506 20.4985H2.49756V21.5026H3.49506V20.4985Z" fill="#000001"/>
<path id="Vector_21" d="M3.49506 8.5022H2.49756V9.4997H3.49506V8.5022Z" fill="#000001"/>
</g>
</g>
</svg>
