<svg width="24" height="24" viewBox="0 0 24 24" fill="none" xmlns="http://www.w3.org/2000/svg">
<g id="food-drink-sushi">
<g id="Group">
<path id="Vector" d="M19.4977 12.4988V13.5029H20.4952V17.4994H21.4992V9.49976H20.4952V12.4988H19.4977Z" fill="#000001"/>
<path id="Vector_2" d="M20.4952 17.4993H19.4977V18.5033H20.4952V17.4993Z" fill="#000001"/>
<path id="Vector_3" d="M20.4952 8.5022H19.4977V9.4997H20.4952V8.5022Z" fill="#000001"/>
<path id="Vector_4" d="M3.49835 21.5026H4.49585V22.5001H11.498V21.5026H12.4955V20.4986H13.4996V19.5011H19.4977V18.5036H13.4996V14.5004H19.4977V13.5029H12.4955V16.502H11.498V17.4995H4.49585V16.502H3.49835V13.5029H2.50085V20.4986H3.49835V21.5026ZM8.49898 20.4986H10.5005V18.5036H11.498V20.4986H10.5005V21.5026H8.49898V20.4986Z" fill="#000001"/>
<path id="Vector_5" d="M15.5012 11.5013H13.4996V12.4988H18.5003V11.5013H19.4978V10.4973H18.5003V9.49976H13.4996V10.4973H15.5012V11.5013Z" fill="#000001"/>
<path id="Vector_6" d="M13.4995 10.4971H12.4955V11.5011H13.4995V10.4971Z" fill="#000001"/>
<path id="Vector_7" d="M12.4955 6.50053H11.498V7.49803H4.49585V8.50209H11.498V9.49959H12.4955V8.50209H19.4977V7.49803H13.4996V3.50146H12.4955V6.50053Z" fill="#000001"/>
<path id="Vector_8" d="M12.4955 12.4988H11.498V13.5028H12.4955V12.4988Z" fill="#000001"/>
<path id="Vector_9" d="M12.4955 2.49756H11.498V3.50162H12.4955V2.49756Z" fill="#000001"/>
<path id="Vector_10" d="M11.498 14.5002H10.5005V15.4977H11.498V14.5002Z" fill="#000001"/>
<path id="Vector_11" d="M11.498 4.49902H10.5005V5.50309H11.498V4.49902Z" fill="#000001"/>
<path id="Vector_12" d="M7.49488 15.4979H5.49988V16.502H10.5005V15.4979H8.49894V14.5004H10.5005V13.5029H5.49988V14.5004H7.49488V15.4979Z" fill="#000001"/>
<path id="Vector_13" d="M7.49488 5.50303H5.49988V6.50053H10.5005V5.50303H8.49894V4.49896H10.5005V3.50146H5.49988V4.49896H7.49488V5.50303Z" fill="#000001"/>
<path id="Vector_14" d="M11.498 12.4988V9.49976H10.5005V11.5013H4.49585V12.4988H11.498Z" fill="#000001"/>
<path id="Vector_15" d="M11.498 1.5H4.49585V2.4975H11.498V1.5Z" fill="#000001"/>
<path id="Vector_16" d="M5.49991 14.5002H4.49585V15.4977H5.49991V14.5002Z" fill="#000001"/>
<path id="Vector_17" d="M5.49991 4.49902H4.49585V5.50309H5.49991V4.49902Z" fill="#000001"/>
<path id="Vector_18" d="M4.49591 12.4988H3.49841V13.5028H4.49591V12.4988Z" fill="#000001"/>
<path id="Vector_19" d="M4.49591 10.4971H3.49841V11.5011H4.49591V10.4971Z" fill="#000001"/>
<path id="Vector_20" d="M4.49591 2.49756H3.49841V3.50162H4.49591V2.49756Z" fill="#000001"/>
<path id="Vector_21" d="M3.49835 7.49803H4.49585V6.50053H3.49835V3.50146H2.50085V10.4971H3.49835V7.49803Z" fill="#000001"/>
</g>
</g>
</svg>
