<svg width="24" height="24" viewBox="0 0 24 24" fill="none" xmlns="http://www.w3.org/2000/svg">
<g id="food-drink-fruit-cherry">
<g id="Group">
<path id="Vector" d="M20.9971 14.5002H19.9996V19.5009H20.9971V14.5002Z" fill="#000001"/>
<path id="Vector_2" d="M19.9997 19.501H19.0022V20.4985H19.9997V19.501Z" fill="#000001"/>
<path id="Vector_3" d="M19.9997 13.5029H19.0022V14.5004H19.9997V13.5029Z" fill="#000001"/>
<path id="Vector_4" d="M19.0022 20.4985H17.9982V21.5026H19.0022V20.4985Z" fill="#000001"/>
<path id="Vector_5" d="M19.0022 12.4988H17.9982V13.5028H19.0022V12.4988Z" fill="#000001"/>
<path id="Vector_6" d="M17.9981 21.5024H12.9974V22.4999H17.9981V21.5024Z" fill="#000001"/>
<path id="Vector_7" d="M14.9991 18.5034H14.0016V19.5009H14.9991V18.5034Z" fill="#000001"/>
<path id="Vector_8" d="M14.0016 5.50312V4.49906H14.9991V11.5012H12V13.5028H12.9975V12.4988H17.9982V11.5012H16.0032V5.50312H17.9982V4.49906H19.0022V3.50156H19.9997V1.5H17.0007V2.4975H16.0032V3.50156H14.9991V2.4975H14.0016V1.5H9.00098V3.50156H9.99848V4.49906H12.9975V5.50312H14.0016Z" fill="#000001"/>
<path id="Vector_9" d="M12.9975 20.4985H12V21.5026H12.9975V20.4985Z" fill="#000001"/>
<path id="Vector_10" d="M12.9975 15.4978H12V18.5034H12.9975V15.4978Z" fill="#000001"/>
<path id="Vector_11" d="M12.9975 5.50317H12V6.50067H12.9975V5.50317Z" fill="#000001"/>
<path id="Vector_12" d="M11.0025 19.5009V14.5002H9.99839V19.5009H6.00183V20.4984H12V19.5009H11.0025Z" fill="#000001"/>
<path id="Vector_13" d="M11.9999 13.5029H11.0024V14.5004H11.9999V13.5029Z" fill="#000001"/>
<path id="Vector_14" d="M11.9999 10.4971H11.0024V11.5011H11.9999V10.4971Z" fill="#000001"/>
<path id="Vector_15" d="M11.9999 6.50073H11.0024V7.49823H11.9999V6.50073Z" fill="#000001"/>
<path id="Vector_16" d="M11.0025 7.49805H9.99841V8.50211H11.0025V7.49805Z" fill="#000001"/>
<path id="Vector_17" d="M11.0025 10.4972V9.4997H9.99839V8.5022H9.00089V9.4997H6.00183V10.4972H11.0025Z" fill="#000001"/>
<path id="Vector_18" d="M6.99933 16.502H6.00183V17.4995H6.99933V16.502Z" fill="#000001"/>
<path id="Vector_19" d="M6.00187 18.5034H4.9978V19.5009H6.00187V18.5034Z" fill="#000001"/>
<path id="Vector_20" d="M6.00187 13.5029H4.9978V16.502H6.00187V13.5029Z" fill="#000001"/>
<path id="Vector_21" d="M6.00187 10.4971H4.9978V11.5011H6.00187V10.4971Z" fill="#000001"/>
<path id="Vector_22" d="M4.99787 17.4993H4.00037V18.5033H4.99787V17.4993Z" fill="#000001"/>
<path id="Vector_23" d="M4.99787 11.5012H4.00037V12.4987H4.99787V11.5012Z" fill="#000001"/>
<path id="Vector_24" d="M4.00031 12.4988H3.00281V17.4994H4.00031V12.4988Z" fill="#000001"/>
</g>
</g>
</svg>
