<svg width="24" height="24" viewBox="0 0 24 24" fill="none" xmlns="http://www.w3.org/2000/svg">
<g id="food-drink-fish-bone">
<g id="Group">
<path id="Vector" d="M22.5 13.4995H21.496V15.5011H22.5V13.4995Z" fill="#000001"/>
<path id="Vector_2" d="M22.5 8.49878H21.496V10.5003H22.5V8.49878Z" fill="#000001"/>
<path id="Vector_3" d="M21.4959 12.502H20.4984V13.4995H21.4959V12.502Z" fill="#000001"/>
<path id="Vector_4" d="M21.4959 10.5005H20.4984V11.498H21.4959V10.5005Z" fill="#000001"/>
<path id="Vector_5" d="M21.4959 7.50122H19.4944V8.49872H21.4959V7.50122Z" fill="#000001"/>
<path id="Vector_6" d="M21.4959 15.501H19.4944V16.4985H21.4959V15.501Z" fill="#000001"/>
<path id="Vector_7" d="M20.4984 11.4978H19.4944V12.5019H20.4984V11.4978Z" fill="#000001"/>
<path id="Vector_8" d="M19.4943 14.4968H18.4968V15.5009H19.4943V14.4968Z" fill="#000001"/>
<path id="Vector_9" d="M19.4943 8.49878H18.4968V9.49628H19.4943V8.49878Z" fill="#000001"/>
<path id="Vector_10" d="M18.4969 9.49632H17.4994V11.4979H15.4978V9.49632H14.5003V11.4979H12.4988V7.50132H11.4947V11.4979H9.49971V5.49976H5.49658V6.49726H8.49564V17.5026H5.49658V18.5001H9.49971V12.5019H11.4947V16.4985H12.4988V12.5019H14.5003V14.4969H15.4978V12.5019H17.4994V14.4969H18.4969V9.49632Z" fill="#000001"/>
<path id="Vector_11" d="M6.49402 11.4978H4.49902V13.4994H6.49402V11.4978Z" fill="#000001"/>
<path id="Vector_12" d="M5.49656 16.4985H3.495V17.5026H5.49656V16.4985Z" fill="#000001"/>
<path id="Vector_13" d="M5.49656 6.49731H3.495V7.50138H5.49656V6.49731Z" fill="#000001"/>
<path id="Vector_14" d="M3.49506 14.4968H2.49756V16.4984H3.49506V14.4968Z" fill="#000001"/>
<path id="Vector_15" d="M3.49506 7.50122H2.49756V9.49622H3.49506V7.50122Z" fill="#000001"/>
<path id="Vector_16" d="M2.4975 9.49634H1.5V14.497H2.4975V9.49634Z" fill="#000001"/>
</g>
</g>
</svg>
