<svg width="24" height="24" viewBox="0 0 24 24" fill="none" xmlns="http://www.w3.org/2000/svg">
<g id="food-drink-rice-ball">
<g id="Group">
<path id="Vector" d="M21.998 15.9998H21.0005V18.9988H21.998V15.9998Z" fill="#000001"/>
<path id="Vector_2" d="M21.0005 18.9988H19.9965V20.0028H21.0005V18.9988Z" fill="#000001"/>
<path id="Vector_3" d="M21.0005 13.0007H19.9965V15.9998H21.0005V13.0007Z" fill="#000001"/>
<path id="Vector_4" d="M19.9964 17.0039H18.9989V18.0014H19.9964V17.0039Z" fill="#000001"/>
<path id="Vector_5" d="M19.9964 10.9993H18.9989V13.0008H19.9964V10.9993Z" fill="#000001"/>
<path id="Vector_6" d="M18.0014 15.0024H16.9974V13.9983H6.99613V15.0024H5.99863V20.003H3.99707V21.0005H19.9964V20.003H18.0014V15.0024Z" fill="#000001"/>
<path id="Vector_7" d="M18.999 8.99756H18.0015V10.9991H18.999V8.99756Z" fill="#000001"/>
<path id="Vector_8" d="M18.0015 12.0032H16.9974V13.0007H18.0015V12.0032Z" fill="#000001"/>
<path id="Vector_9" d="M18.0015 7.00269H16.9974V8.99769H18.0015V7.00269Z" fill="#000001"/>
<path id="Vector_10" d="M16.9974 5.99854H15.9999V7.0026H16.9974V5.99854Z" fill="#000001"/>
<path id="Vector_11" d="M15.9999 5.00098H15.0024V5.99848H15.9999V5.00098Z" fill="#000001"/>
<path id="Vector_12" d="M15.0024 10.9993H13.9983V12.0033H15.0024V10.9993Z" fill="#000001"/>
<path id="Vector_13" d="M15.0024 4.00366H13.9983V5.00116H15.0024V4.00366Z" fill="#000001"/>
<path id="Vector_14" d="M13.9984 12.0032H13.0009V13.0007H13.9984V12.0032Z" fill="#000001"/>
<path id="Vector_15" d="M13.9984 5.99854H13.0009V7.0026H13.9984V5.99854Z" fill="#000001"/>
<path id="Vector_16" d="M13.0008 7.00269H11.9967V8.00019H13.0008V7.00269Z" fill="#000001"/>
<path id="Vector_17" d="M13.9983 2.99951H10.0017V4.00357H13.9983V2.99951Z" fill="#000001"/>
<path id="Vector_18" d="M10.0017 12.0032H8.99768V13.0007H10.0017V12.0032Z" fill="#000001"/>
<path id="Vector_19" d="M10.0017 8.00024H8.99768V8.99774H10.0017V8.00024Z" fill="#000001"/>
<path id="Vector_20" d="M10.0017 4.00366H8.99768V5.00116H10.0017V4.00366Z" fill="#000001"/>
<path id="Vector_21" d="M8.99774 10.9993H8.00024V12.0033H8.99774V10.9993Z" fill="#000001"/>
<path id="Vector_22" d="M8.99774 5.00098H8.00024V5.99848H8.99774V5.00098Z" fill="#000001"/>
<path id="Vector_23" d="M8.00016 5.99854H6.99609V7.0026H8.00016V5.99854Z" fill="#000001"/>
<path id="Vector_24" d="M6.99616 7.00269H5.99866V8.99769H6.99616V7.00269Z" fill="#000001"/>
<path id="Vector_25" d="M5.9986 8.99756H5.0011V10.9991H5.9986V8.99756Z" fill="#000001"/>
<path id="Vector_26" d="M5.00113 17.0039H3.99707V18.0014H5.00113V17.0039Z" fill="#000001"/>
<path id="Vector_27" d="M5.00113 10.9993H3.99707V13.0008H5.00113V10.9993Z" fill="#000001"/>
<path id="Vector_28" d="M3.99713 18.9988H2.99963V20.0028H3.99713V18.9988Z" fill="#000001"/>
<path id="Vector_29" d="M3.99713 13.0007H2.99963V15.9998H3.99713V13.0007Z" fill="#000001"/>
<path id="Vector_30" d="M2.99958 15.9998H2.00208V18.9988H2.99958V15.9998Z" fill="#000001"/>
</g>
</g>
</svg>
