<svg width="24" height="24" viewBox="0 0 24 24" fill="none" xmlns="http://www.w3.org/2000/svg">
<g id="food-drink-egg">
<g id="Group">
<path id="Vector" d="M22.5 9.99512H21.496V15.9998H22.5V9.99512Z" fill="#000001"/>
<path id="Vector_2" d="M21.4959 8.99756H20.4984V9.99506H21.4959V8.99756Z" fill="#000001"/>
<path id="Vector_3" d="M21.4959 15.9998H19.4944V16.9973H21.4959V15.9998Z" fill="#000001"/>
<path id="Vector_4" d="M20.4984 8H19.4944V8.9975H20.4984V8Z" fill="#000001"/>
<path id="Vector_5" d="M19.4944 16.9973H16.4954V18.0014H19.4944V16.9973Z" fill="#000001"/>
<path id="Vector_6" d="M19.4944 6.99609H16.4954V8.00016H19.4944V6.99609Z" fill="#000001"/>
<path id="Vector_7" d="M16.4954 15.9998H14.5004V16.9973H16.4954V15.9998Z" fill="#000001"/>
<path id="Vector_8" d="M16.4953 5.99854H15.4978V6.99604H16.4953V5.99854Z" fill="#000001"/>
<path id="Vector_9" d="M13.4962 10.9991H12.4987V9.995H10.4971V8.9975H12.4987V8H8.49558V8.9975H7.49808V9.995H6.49402V13.0006H7.49808V13.9981H8.49558V14.9956H12.4987V13.9981H13.4962V13.0006H14.5003V9.995H13.4962V10.9991Z" fill="#000001"/>
<path id="Vector_10" d="M14.5003 16.9973H11.4946V18.0014H14.5003V16.9973Z" fill="#000001"/>
<path id="Vector_11" d="M13.4963 8.99756H12.4988V9.99506H13.4963V8.99756Z" fill="#000001"/>
<path id="Vector_12" d="M15.4978 5.00098H10.4972V5.99848H15.4978V5.00098Z" fill="#000001"/>
<path id="Vector_13" d="M11.4947 18.0012H7.49817V18.9987H11.4947V18.0012Z" fill="#000001"/>
<path id="Vector_14" d="M10.4972 5.99854H7.49817V6.99604H10.4972V5.99854Z" fill="#000001"/>
<path id="Vector_15" d="M7.49814 16.9973H5.49658V18.0014H7.49814V16.9973Z" fill="#000001"/>
<path id="Vector_16" d="M7.49808 6.99609H6.49402V8.00016H7.49808V6.99609Z" fill="#000001"/>
<path id="Vector_17" d="M6.49402 8H4.49902V8.9975H6.49402V8Z" fill="#000001"/>
<path id="Vector_18" d="M5.49656 15.9998H3.495V16.9973H5.49656V15.9998Z" fill="#000001"/>
<path id="Vector_19" d="M4.49906 8.99756H3.495V9.99506H4.49906V8.99756Z" fill="#000001"/>
<path id="Vector_20" d="M3.49506 14.9956H2.49756V15.9997H3.49506V14.9956Z" fill="#000001"/>
<path id="Vector_21" d="M3.49506 9.99512H2.49756V11.9967H3.49506V9.99512Z" fill="#000001"/>
<path id="Vector_22" d="M2.4975 11.9966H1.5V14.9956H2.4975V11.9966Z" fill="#000001"/>
</g>
</g>
</svg>
