<svg width="24" height="24" viewBox="0 0 24 24" fill="none" xmlns="http://www.w3.org/2000/svg">
<g id="food-drink-coffee">
<g id="Group">
<path id="Vector" d="M22.0013 11.5012H20.9972V14.5003H22.0013V11.5012Z" fill="#000001"/>
<path id="Vector_2" d="M20.9973 14.5002H19.9998V15.4977H20.9973V14.5002Z" fill="#000001"/>
<path id="Vector_3" d="M20.9973 10.5037H19.9998V11.5012H20.9973V10.5037Z" fill="#000001"/>
<path id="Vector_4" d="M19.9997 18.5034H19.0022V19.5009H19.9997V18.5034Z" fill="#000001"/>
<path id="Vector_5" d="M19.9997 12.4988H19.0022V13.5028H19.9997V12.4988Z" fill="#000001"/>
<path id="Vector_6" d="M19.9997 9.49976H17.0006V10.5038H19.9997V9.49976Z" fill="#000001"/>
<path id="Vector_7" d="M19.0022 19.501H17.9982V20.4985H19.0022V19.501Z" fill="#000001"/>
<path id="Vector_8" d="M19.0022 17.4993H17.9982V18.5033H19.0022V17.4993Z" fill="#000001"/>
<path id="Vector_9" d="M17.0006 15.4978V16.5019H15.9966V17.4994H17.9981V16.5019H19.9997V15.4978H17.0006Z" fill="#000001"/>
<path id="Vector_10" d="M17.0006 11.5012V14.5003H19.0022V13.5028H17.9981V12.4987H19.0022V11.5012H17.0006Z" fill="#000001"/>
<path id="Vector_11" d="M17.9981 20.4985H15.9966V21.5026H17.9981V20.4985Z" fill="#000001"/>
<path id="Vector_12" d="M17.0006 8.5022H15.9966V9.4997H17.0006V8.5022Z" fill="#000001"/>
<path id="Vector_13" d="M15.9966 17.4993H14.0016V18.5033H15.9966V17.4993Z" fill="#000001"/>
<path id="Vector_14" d="M15.9966 7.49805H12.9976V8.50211H15.9966V7.49805Z" fill="#000001"/>
<path id="Vector_15" d="M15.9966 21.5024H6.00195V22.4999H15.9966V21.5024Z" fill="#000001"/>
<path id="Vector_16" d="M6.99945 9.49976V10.5038H6.00195V11.5013H6.99945V12.4988H14.9991V11.5013H15.9966V10.5038H14.9991V9.49976H6.99945Z" fill="#000001"/>
<path id="Vector_17" d="M14.9991 2.49756H14.0016V4.49912H14.9991V2.49756Z" fill="#000001"/>
<path id="Vector_18" d="M14.0016 1.5H12V2.4975H14.0016V1.5Z" fill="#000001"/>
<path id="Vector_19" d="M14.0016 4.49902H12.9976V5.50309H14.0016V4.49902Z" fill="#000001"/>
<path id="Vector_20" d="M12 2.49756H10.996V3.50162H12V2.49756Z" fill="#000001"/>
<path id="Vector_21" d="M12 6.50073H10.996V8.5023H12V6.50073Z" fill="#000001"/>
<path id="Vector_22" d="M10.996 1.5H9.00098V2.4975H10.996V1.5Z" fill="#000001"/>
<path id="Vector_23" d="M10.9959 5.50317H9.99841V6.50067H10.9959V5.50317Z" fill="#000001"/>
<path id="Vector_24" d="M9.99848 4.49902H9.00098V5.50309H9.99848V4.49902Z" fill="#000001"/>
<path id="Vector_25" d="M14.0016 18.5034H7.99695V19.5009H14.0016V18.5034Z" fill="#000001"/>
<path id="Vector_26" d="M9.00101 2.49756H7.99695V4.49912H9.00101V2.49756Z" fill="#000001"/>
<path id="Vector_27" d="M9.99852 7.49805H6.00195V8.50211H9.99852V7.49805Z" fill="#000001"/>
<path id="Vector_28" d="M7.99695 17.4993H6.00195V18.5033H7.99695V17.4993Z" fill="#000001"/>
<path id="Vector_29" d="M6.00193 20.4985H4.00037V21.5026H6.00193V20.4985Z" fill="#000001"/>
<path id="Vector_30" d="M6.00193 15.4978H4.99787V16.5019H4.00037V17.4994H6.00193V15.4978Z" fill="#000001"/>
<path id="Vector_31" d="M6.00187 8.5022H4.9978V9.4997H6.00187V8.5022Z" fill="#000001"/>
<path id="Vector_32" d="M4.99787 9.49976H4.00037V15.4979H4.99787V9.49976Z" fill="#000001"/>
<path id="Vector_33" d="M4.0004 19.501H2.99634V20.4985H4.0004V19.501Z" fill="#000001"/>
<path id="Vector_34" d="M4.0004 17.4993H2.99634V18.5033H4.0004V17.4993Z" fill="#000001"/>
<path id="Vector_35" d="M2.99628 18.5034H1.99878V19.5009H2.99628V18.5034Z" fill="#000001"/>
</g>
</g>
</svg>
