<svg width="24" height="24" viewBox="0 0 24 24" fill="none" xmlns="http://www.w3.org/2000/svg">
<g id="food-drink-desert-cake">
<g id="Group">
<path id="Vector" d="M19.501 7.99695V6.99945H18.4969V7.99695H17.4994V9.00102H20.4985V10.996H17.4994V12.0001H14.5004V12.9976H11.5013V14.0016H8.50225V14.9991H5.49662V15.9966H3.50162V14.0016H5.49662V12.9976H3.50162V12.0001H2.49756V22.0013H5.49662V20.9973H3.50162V19.0023H5.49662V17.9982H8.50225V17.0007H11.5013V15.9966H14.5004V14.9991H17.4994V14.0016H20.4985V14.9991H19.501V15.9966H21.5026V6.00195H20.4985V7.99695H19.501Z" fill="#000001"/>
<path id="Vector_2" d="M20.4985 4.9978H18.4969V6.00187H20.4985V4.9978Z" fill="#000001"/>
<path id="Vector_3" d="M19.501 15.9966H17.4994V17.0006H19.501V15.9966Z" fill="#000001"/>
<path id="Vector_4" d="M18.497 6.00195H16.502V6.99945H18.497V6.00195Z" fill="#000001"/>
<path id="Vector_5" d="M18.497 4.00024H16.502V4.99774H18.497V4.00024Z" fill="#000001"/>
<path id="Vector_6" d="M17.4994 17.0007H14.5004V17.9982H17.4994V17.0007Z" fill="#000001"/>
<path id="Vector_7" d="M17.4994 9.00098H14.5004V9.99848H17.4994V9.00098Z" fill="#000001"/>
<path id="Vector_8" d="M16.5019 4.9978H14.5004V6.00187H16.5019V4.9978Z" fill="#000001"/>
<path id="Vector_9" d="M16.5019 2.99634H14.5004V4.0004H16.5019V2.99634Z" fill="#000001"/>
<path id="Vector_10" d="M14.5003 4.00024H12.4988V4.99774H14.5003V4.00024Z" fill="#000001"/>
<path id="Vector_11" d="M14.5003 1.99878H12.4988V2.99628H14.5003V1.99878Z" fill="#000001"/>
<path id="Vector_12" d="M14.5004 17.998H11.5013V19.0021H14.5004V17.998Z" fill="#000001"/>
<path id="Vector_13" d="M14.5004 9.99854H11.5013V10.996H14.5004V9.99854Z" fill="#000001"/>
<path id="Vector_14" d="M12.4988 2.99634H11.5013V4.0004H12.4988V2.99634Z" fill="#000001"/>
<path id="Vector_15" d="M11.5013 19.0022H8.5022V19.9997H11.5013V19.0022Z" fill="#000001"/>
<path id="Vector_16" d="M11.5013 10.9958H8.5022V11.9999H11.5013V10.9958Z" fill="#000001"/>
<path id="Vector_17" d="M8.50223 4.0004V4.9979H7.49817V7.99696H8.50223V9.00103H11.5013V7.99696H12.4988V4.9979H11.5013V4.0004H10.4972V2.99634H9.49973V4.0004H8.50223ZM10.4972 4.9979V6.00196H11.5013V6.99946H10.4972V6.00196H9.49973V4.9979H10.4972Z" fill="#000001"/>
<path id="Vector_18" d="M9.49973 1.99878H7.49817V2.99628H9.49973V1.99878Z" fill="#000001"/>
<path id="Vector_19" d="M8.50221 19.9998H5.49658V20.9973H8.50221V19.9998Z" fill="#000001"/>
<path id="Vector_20" d="M8.50221 12H5.49658V12.9975H8.50221V12Z" fill="#000001"/>
<path id="Vector_21" d="M7.49823 7.99683H6.50073V9.00089H7.49823V7.99683Z" fill="#000001"/>
<path id="Vector_22" d="M6.50064 9.00098H5.49658V9.99848H6.50064V9.00098Z" fill="#000001"/>
<path id="Vector_23" d="M5.49665 9.99854H4.49915V10.996H5.49665V9.99854Z" fill="#000001"/>
<path id="Vector_24" d="M4.49909 10.9958H3.50159V11.9999H4.49909V10.9958Z" fill="#000001"/>
</g>
</g>
</svg>
