<svg width="24" height="24" viewBox="0 0 24 24" fill="none" xmlns="http://www.w3.org/2000/svg">
<g id="food-drink-desert-donut">
<g id="Group">
<path id="Vector" d="M22.5 8.49878H21.496V12.5019H22.5V8.49878Z" fill="#000001"/>
<path id="Vector_2" d="M21.4959 12.502H20.4984V14.5035H21.4959V12.502Z" fill="#000001"/>
<path id="Vector_3" d="M21.4959 6.50391H20.4984V8.49891H21.4959V6.50391Z" fill="#000001"/>
<path id="Vector_4" d="M20.4984 14.5037H19.4944V16.4987H20.4984V14.5037Z" fill="#000001"/>
<path id="Vector_5" d="M20.4984 8.49878H19.4944V12.5019H20.4984V8.49878Z" fill="#000001"/>
<path id="Vector_6" d="M20.4984 5.49976H19.4944V6.50382H20.4984V5.49976Z" fill="#000001"/>
<path id="Vector_7" d="M19.4943 16.4985H18.4968V17.5026H19.4943V16.4985Z" fill="#000001"/>
<path id="Vector_8" d="M19.4943 12.502H18.4968V14.5035H19.4943V12.502Z" fill="#000001"/>
<path id="Vector_9" d="M19.4943 4.5022H18.4968V5.4997H19.4943V4.5022Z" fill="#000001"/>
<path id="Vector_10" d="M18.4969 17.5027H17.4994V18.5002H18.4969V17.5027Z" fill="#000001"/>
<path id="Vector_11" d="M18.4969 14.5037H17.4994V15.5012H18.4969V14.5037Z" fill="#000001"/>
<path id="Vector_12" d="M18.4969 8.49878H17.4994V9.50284H18.4969V8.49878Z" fill="#000001"/>
<path id="Vector_13" d="M17.4994 15.501H16.4954V16.4985H17.4994V15.501Z" fill="#000001"/>
<path id="Vector_14" d="M17.4994 9.50293H16.4954V10.5004H17.4994V9.50293Z" fill="#000001"/>
<path id="Vector_15" d="M18.4969 3.49829H16.4954V4.50235H18.4969V3.49829Z" fill="#000001"/>
<path id="Vector_16" d="M17.4994 18.5H15.4978V19.5041H17.4994V18.5Z" fill="#000001"/>
<path id="Vector_17" d="M16.4953 12.502H15.4978V13.4995H16.4953V12.502Z" fill="#000001"/>
<path id="Vector_18" d="M16.4953 6.50391H15.4978V7.50141H16.4953V6.50391Z" fill="#000001"/>
<path id="Vector_19" d="M16.4954 16.4985H14.5004V17.5026H16.4954V16.4985Z" fill="#000001"/>
<path id="Vector_20" d="M15.4978 4.5022H13.4962V5.4997H15.4978V4.5022Z" fill="#000001"/>
<path id="Vector_21" d="M15.4978 19.5042H12.4988V20.5017H15.4978V19.5042Z" fill="#000001"/>
<path id="Vector_22" d="M14.5003 14.5037H13.4962V15.5012H14.5003V14.5037Z" fill="#000001"/>
<path id="Vector_23" d="M14.5003 17.5027H11.4946V18.5002H14.5003V17.5027Z" fill="#000001"/>
<path id="Vector_24" d="M12.4988 8.49896V9.50303H10.4972V10.5005H9.49973V12.5021H8.49567V13.4996H7.49817V14.5037H10.4972V13.4996H12.4988V12.5021H13.4963V10.5005H14.5004V7.50146H13.4963V8.49896H12.4988Z" fill="#000001"/>
<path id="Vector_25" d="M13.4963 6.50391H12.4988V7.50141H13.4963V6.50391Z" fill="#000001"/>
<path id="Vector_26" d="M16.4953 2.50073H11.4946V3.49823H16.4953V2.50073Z" fill="#000001"/>
<path id="Vector_27" d="M12.4988 7.50146H10.4972V8.49896H12.4988V7.50146Z" fill="#000001"/>
<path id="Vector_28" d="M12.4988 20.5017H7.49817V21.4992H12.4988V20.5017Z" fill="#000001"/>
<path id="Vector_29" d="M11.4947 15.501H10.4972V16.4985H11.4947V15.501Z" fill="#000001"/>
<path id="Vector_30" d="M11.4947 18.5H7.49817V19.5041H11.4947V18.5Z" fill="#000001"/>
<path id="Vector_31" d="M10.4971 8.49878H9.49963V9.50284H10.4971V8.49878Z" fill="#000001"/>
<path id="Vector_32" d="M11.4947 3.49829H8.49561V4.50235H11.4947V3.49829Z" fill="#000001"/>
<path id="Vector_33" d="M10.4972 16.4985H8.49561V17.5026H10.4972V16.4985Z" fill="#000001"/>
<path id="Vector_34" d="M9.49967 9.50293H8.49561V10.5004H9.49967V9.50293Z" fill="#000001"/>
<path id="Vector_35" d="M9.49973 6.50391H7.49817V7.50141H9.49973V6.50391Z" fill="#000001"/>
<path id="Vector_36" d="M8.49567 10.5005H7.49817V12.5021H8.49567V10.5005Z" fill="#000001"/>
<path id="Vector_37" d="M8.49558 4.5022H6.49402V5.4997H8.49558V4.5022Z" fill="#000001"/>
<path id="Vector_38" d="M7.49814 19.5042H5.49658V20.5017H7.49814V19.5042Z" fill="#000001"/>
<path id="Vector_39" d="M7.49808 12.502H6.49402V13.4995H7.49808V12.502Z" fill="#000001"/>
<path id="Vector_40" d="M6.49408 15.501H5.49658V16.4985H6.49408V15.501Z" fill="#000001"/>
<path id="Vector_41" d="M6.49408 8.49878H5.49658V10.5003H6.49408V8.49878Z" fill="#000001"/>
<path id="Vector_42" d="M6.49408 5.49976H5.49658V6.50382H6.49408V5.49976Z" fill="#000001"/>
<path id="Vector_43" d="M5.49652 18.5H4.49902V19.5041H5.49652V18.5Z" fill="#000001"/>
<path id="Vector_44" d="M5.49652 6.50391H4.49902V7.50141H5.49652V6.50391Z" fill="#000001"/>
<path id="Vector_45" d="M4.49906 17.5027H3.495V18.5002H4.49906V17.5027Z" fill="#000001"/>
<path id="Vector_46" d="M4.49906 12.502H3.495V14.5035H4.49906V12.502Z" fill="#000001"/>
<path id="Vector_47" d="M4.49906 7.50146H3.495V9.50303H4.49906V7.50146Z" fill="#000001"/>
<path id="Vector_48" d="M3.49506 15.501H2.49756V17.5025H3.49506V15.501Z" fill="#000001"/>
<path id="Vector_49" d="M3.49506 9.50293H2.49756V11.4979H3.49506V9.50293Z" fill="#000001"/>
<path id="Vector_50" d="M2.4975 11.4978H1.5V15.5009H2.4975V11.4978Z" fill="#000001"/>
</g>
</g>
</svg>
