<svg width="24" height="24" viewBox="0 0 24 24" fill="none" xmlns="http://www.w3.org/2000/svg">
<g id="food-drink-desert-cotton-candy">
<g id="Group">
<path id="Vector" d="M22.5 3.50146H21.496V4.49896H22.5V3.50146Z" fill="#000001"/>
<path id="Vector_2" d="M21.4959 7.49805H20.4984V13.5027H21.4959V7.49805Z" fill="#000001"/>
<path id="Vector_3" d="M20.4984 22.5V21.5025H21.4959V20.4985H20.4984V19.501H19.4943V20.4985H18.4968V21.5025H19.4943V22.5H20.4984Z" fill="#000001"/>
<path id="Vector_4" d="M20.4984 13.5029H19.4944V14.5004H20.4984V13.5029Z" fill="#000001"/>
<path id="Vector_5" d="M20.4984 5.50317H19.4944V7.49817H20.4984V5.50317Z" fill="#000001"/>
<path id="Vector_6" d="M19.4943 14.5002H18.4968V15.4977H19.4943V14.5002Z" fill="#000001"/>
<path id="Vector_7" d="M19.4943 4.49902H18.4968V5.50309H19.4943V4.49902Z" fill="#000001"/>
<path id="Vector_8" d="M19.4943 1.5H18.4968V2.4975H19.4943V1.5Z" fill="#000001"/>
<path id="Vector_9" d="M18.4969 15.4978H17.4994V16.5019H18.4969V15.4978Z" fill="#000001"/>
<path id="Vector_10" d="M18.4969 9.49976H17.4994V12.4988H18.4969V9.49976Z" fill="#000001"/>
<path id="Vector_11" d="M17.4994 12.4988H16.4954V13.5028H17.4994V12.4988Z" fill="#000001"/>
<path id="Vector_12" d="M17.4994 7.49805H16.4954V8.50211H17.4994V7.49805Z" fill="#000001"/>
<path id="Vector_13" d="M18.4969 3.50146H16.4954V4.49896H18.4969V3.50146Z" fill="#000001"/>
<path id="Vector_14" d="M17.4993 16.502H13.4962V17.4995H17.4993V16.502Z" fill="#000001"/>
<path id="Vector_15" d="M16.4953 13.5029H15.4978V14.5004H16.4953V13.5029Z" fill="#000001"/>
<path id="Vector_16" d="M14.5003 20.4985H13.4962V21.5026H14.5003V20.4985Z" fill="#000001"/>
<path id="Vector_17" d="M13.4963 17.4993H7.49817V18.5033H13.4963V17.4993Z" fill="#000001"/>
<path id="Vector_18" d="M16.4953 2.49756H10.4972V3.50162H16.4953V2.49756Z" fill="#000001"/>
<path id="Vector_19" d="M10.4971 3.50146H9.49963V4.49896H10.4971V3.50146Z" fill="#000001"/>
<path id="Vector_20" d="M9.49967 4.49902H8.49561V5.50309H9.49967V4.49902Z" fill="#000001"/>
<path id="Vector_21" d="M8.49567 5.50317H7.49817V6.50067H8.49567V5.50317Z" fill="#000001"/>
<path id="Vector_22" d="M7.49808 16.502H6.49402V17.4995H7.49808V16.502Z" fill="#000001"/>
<path id="Vector_23" d="M7.49808 6.50073H6.49402V10.4973H7.49808V6.50073Z" fill="#000001"/>
<path id="Vector_24" d="M6.49408 17.4993H5.49658V18.5033H6.49408V17.4993Z" fill="#000001"/>
<path id="Vector_25" d="M6.49408 10.4971H5.49658V16.5018H6.49408V10.4971Z" fill="#000001"/>
<path id="Vector_26" d="M6.49408 3.50146H5.49658V4.49896H6.49408V3.50146Z" fill="#000001"/>
<path id="Vector_27" d="M5.49652 18.5034H4.49902V19.5009H5.49652V18.5034Z" fill="#000001"/>
<path id="Vector_28" d="M5.49652 4.49902H4.49902V5.50309H5.49652V4.49902Z" fill="#000001"/>
<path id="Vector_29" d="M5.49652 2.49756H4.49902V3.50162H5.49652V2.49756Z" fill="#000001"/>
<path id="Vector_30" d="M4.49906 19.501H3.495V20.4985H4.49906V19.501Z" fill="#000001"/>
<path id="Vector_31" d="M4.49906 3.50146H3.495V4.49896H4.49906V3.50146Z" fill="#000001"/>
<path id="Vector_32" d="M3.49506 20.4985H2.49756V21.5026H3.49506V20.4985Z" fill="#000001"/>
<path id="Vector_33" d="M3.49506 10.4971H2.49756V11.5011H3.49506V10.4971Z" fill="#000001"/>
<path id="Vector_34" d="M2.4975 21.5024H1.5V22.4999H2.4975V21.5024Z" fill="#000001"/>
</g>
</g>
</svg>
