<svg width="24" height="24" viewBox="0 0 24 24" fill="none" xmlns="http://www.w3.org/2000/svg">
<g id="food-drink-tea">
<g id="Group">
<path id="Vector" d="M22.5 9.49976H21.496V12.4988H22.5V9.49976Z" fill="#000001"/>
<path id="Vector_2" d="M21.4959 12.4988H20.4984V14.5003H21.4959V12.4988Z" fill="#000001"/>
<path id="Vector_3" d="M21.4959 8.5022H19.4944V9.4997H21.4959V8.5022Z" fill="#000001"/>
<path id="Vector_4" d="M20.4984 14.5002H19.4944V15.4977H20.4984V14.5002Z" fill="#000001"/>
<path id="Vector_5" d="M19.4943 20.4985H18.4968V21.5026H19.4943V20.4985Z" fill="#000001"/>
<path id="Vector_6" d="M18.4969 10.4972H19.4944V9.4997H18.4969V8.5022H17.4994V16.5019H19.4944V15.4978H18.4969V10.4972Z" fill="#000001"/>
<path id="Vector_7" d="M18.4969 21.5024H2.49756V22.4999H18.4969V21.5024Z" fill="#000001"/>
<path id="Vector_8" d="M17.4994 16.502H16.4954V18.5035H17.4994V16.502Z" fill="#000001"/>
<path id="Vector_9" d="M15.4979 19.5009H5.49662V18.5034H4.49912V19.5009H2.49756V20.4984H18.4969V19.5009H16.4954V18.5034H15.4979V19.5009Z" fill="#000001"/>
<path id="Vector_10" d="M14.5003 4.49902H13.4962V5.50309H14.5003V4.49902Z" fill="#000001"/>
<path id="Vector_11" d="M13.4963 5.50317H12.4988V6.50067H13.4963V5.50317Z" fill="#000001"/>
<path id="Vector_12" d="M13.4963 3.50146H12.4988V4.49896H13.4963V3.50146Z" fill="#000001"/>
<path id="Vector_13" d="M13.4963 1.5H12.4988V2.4975H13.4963V1.5Z" fill="#000001"/>
<path id="Vector_14" d="M12.4987 2.49756H11.4946V3.50162H12.4987V2.49756Z" fill="#000001"/>
<path id="Vector_15" d="M10.4971 4.49902H9.49963V5.50309H10.4971V4.49902Z" fill="#000001"/>
<path id="Vector_16" d="M9.49967 5.50317H8.49561V6.50067H9.49967V5.50317Z" fill="#000001"/>
<path id="Vector_17" d="M9.49967 3.50146H8.49561V4.49896H9.49967V3.50146Z" fill="#000001"/>
<path id="Vector_18" d="M9.49967 1.5H8.49561V2.4975H9.49967V1.5Z" fill="#000001"/>
<path id="Vector_19" d="M8.49567 2.49756H7.49817V3.50162H8.49567V2.49756Z" fill="#000001"/>
<path id="Vector_20" d="M6.49406 8.50211V11.5012H5.49656V14.5002H6.49406V15.4977H8.49562V14.5002H9.49968V11.5012H8.49562V13.5027H7.49812V11.5012H8.49562V10.4971H7.49812V8.50211H17.4994V7.49805H3.495V8.50211H6.49406Z" fill="#000001"/>
<path id="Vector_21" d="M4.49906 16.502H3.495V18.5035H4.49906V16.502Z" fill="#000001"/>
<path id="Vector_22" d="M3.49506 8.5022H2.49756V16.5019H3.49506V8.5022Z" fill="#000001"/>
<path id="Vector_23" d="M2.4975 20.4985H1.5V21.5026H2.4975V20.4985Z" fill="#000001"/>
</g>
</g>
</svg>
