<svg width="24" height="24" viewBox="0 0 24 24" fill="none" xmlns="http://www.w3.org/2000/svg">
<g id="food-drink-fish">
<g id="Group">
<path id="Vector" d="M22.5 13.4995H21.496V15.5011H22.5V13.4995Z" fill="#000001"/>
<path id="Vector_2" d="M22.5 8.49902H21.496V10.5006H22.5V8.49902Z" fill="#000001"/>
<path id="Vector_3" d="M21.4959 12.5022H20.4984V13.4997H21.4959V12.5022Z" fill="#000001"/>
<path id="Vector_4" d="M21.4959 10.5005H20.4984V11.498H21.4959V10.5005Z" fill="#000001"/>
<path id="Vector_5" d="M21.4959 7.50146H19.4944V8.49896H21.4959V7.50146Z" fill="#000001"/>
<path id="Vector_6" d="M21.4959 15.5012H19.4944V16.4987H21.4959V15.5012Z" fill="#000001"/>
<path id="Vector_7" d="M20.4984 11.498H19.4944V12.5021H20.4984V11.498Z" fill="#000001"/>
<path id="Vector_8" d="M19.4943 14.4971H18.4968V15.5011H19.4943V14.4971Z" fill="#000001"/>
<path id="Vector_9" d="M19.4943 8.49902H18.4968V9.49652H19.4943V8.49902Z" fill="#000001"/>
<path id="Vector_10" d="M18.4969 13.4995H17.4994V14.497H18.4969V13.4995Z" fill="#000001"/>
<path id="Vector_11" d="M18.4969 9.49658H17.4994V10.5006H18.4969V9.49658Z" fill="#000001"/>
<path id="Vector_12" d="M17.4994 14.4971H16.4954V15.5011H17.4994V14.4971Z" fill="#000001"/>
<path id="Vector_13" d="M17.4994 8.49902H16.4954V9.49652H17.4994V8.49902Z" fill="#000001"/>
<path id="Vector_14" d="M16.4953 15.5012H15.4978V16.4987H16.4953V15.5012Z" fill="#000001"/>
<path id="Vector_15" d="M16.4953 7.50146H15.4978V8.49896H16.4953V7.50146Z" fill="#000001"/>
<path id="Vector_16" d="M15.4979 16.4988H14.5004V17.5028H15.4979V16.4988Z" fill="#000001"/>
<path id="Vector_17" d="M15.4979 6.49756H14.5004V7.50162H15.4979V6.49756Z" fill="#000001"/>
<path id="Vector_18" d="M14.5003 17.5027H12.4988V18.5002H14.5003V17.5027Z" fill="#000001"/>
<path id="Vector_19" d="M14.5003 5.5H12.4988V6.4975H14.5003V5.5Z" fill="#000001"/>
<path id="Vector_20" d="M12.4987 18.5002H8.49561V19.4977H12.4987V18.5002Z" fill="#000001"/>
<path id="Vector_21" d="M12.4987 4.50244H8.49561V5.49994H12.4987V4.50244Z" fill="#000001"/>
<path id="Vector_22" d="M8.49564 17.5027H5.49658V18.5002H8.49564V17.5027Z" fill="#000001"/>
<path id="Vector_23" d="M8.49564 5.5H5.49658V6.4975H8.49564V5.5Z" fill="#000001"/>
<path id="Vector_24" d="M5.49656 16.4988H3.495V17.5028H5.49656V16.4988Z" fill="#000001"/>
<path id="Vector_25" d="M6.49402 11.498H4.49902V13.4996H6.49402V11.498Z" fill="#000001"/>
<path id="Vector_26" d="M5.49656 6.49756H3.495V7.50162H5.49656V6.49756Z" fill="#000001"/>
<path id="Vector_27" d="M3.49506 14.4971H2.49756V16.4986H3.49506V14.4971Z" fill="#000001"/>
<path id="Vector_28" d="M3.49506 7.50146H2.49756V9.49646H3.49506V7.50146Z" fill="#000001"/>
<path id="Vector_29" d="M2.4975 9.49658H1.5V14.4972H2.4975V9.49658Z" fill="#000001"/>
</g>
</g>
</svg>
