<svg width="24" height="24" viewBox="0 0 24 24" fill="none" xmlns="http://www.w3.org/2000/svg">
<g id="food-drink-fried-chicken">
<g id="Group">
<path id="Vector" d="M21.998 18.0046H21.0005V19.9996H21.998V18.0046Z" fill="#000001"/>
<path id="Vector_2" d="M21.0005 19.9998H19.9965V21.0038H21.0005V19.9998Z" fill="#000001"/>
<path id="Vector_3" d="M21.0005 17.0007H18.9989V18.0048H21.0005V17.0007Z" fill="#000001"/>
<path id="Vector_4" d="M19.9965 21.0037H18.0015V22.0012H19.9965V21.0037Z" fill="#000001"/>
<path id="Vector_5" d="M18.999 16.0032H18.0015V17.0007H18.999V16.0032Z" fill="#000001"/>
<path id="Vector_6" d="M18.0015 19.0022H16.9974V21.0038H18.0015V19.0022Z" fill="#000001"/>
<path id="Vector_7" d="M16.9974 14.9992H15.9999V16.0032H18.0014V9.99854H16.9974V14.9992Z" fill="#000001"/>
<path id="Vector_8" d="M16.9974 18.0046H15.9999V19.0021H16.9974V18.0046Z" fill="#000001"/>
<path id="Vector_9" d="M16.9974 6.99951H15.9999V9.99857H16.9974V6.99951Z" fill="#000001"/>
<path id="Vector_10" d="M15.0023 16.0032V17.0007H10.0017V18.0047H15.9998V16.0032H15.0023Z" fill="#000001"/>
<path id="Vector_11" d="M15.9999 6.00195H15.0024V6.99945H15.9999V6.00195Z" fill="#000001"/>
<path id="Vector_12" d="M15.0024 5.00439H13.9983V6.00189H15.0024V5.00439Z" fill="#000001"/>
<path id="Vector_13" d="M13.9984 4.00024H13.0009V5.00431H13.9984V4.00024Z" fill="#000001"/>
<path id="Vector_14" d="M13.0008 3.00293H11.9967V4.00043H13.0008V3.00293Z" fill="#000001"/>
<path id="Vector_15" d="M11.9968 13.0042H10.9993V14.0016H11.9968V13.0042Z" fill="#000001"/>
<path id="Vector_16" d="M10.0017 16.0032H6.99609V17.0007H10.0017V16.0032Z" fill="#000001"/>
<path id="Vector_17" d="M10.0018 13.0042H8.00024V14.0016H10.0018V13.0042Z" fill="#000001"/>
<path id="Vector_18" d="M8.00016 12H6.99609V13.0041H8.00016V12Z" fill="#000001"/>
<path id="Vector_19" d="M6.99616 14.999H5.99866V16.0031H6.99616V14.999Z" fill="#000001"/>
<path id="Vector_20" d="M6.99616 11.0024H5.99866V11.9999H6.99616V11.0024Z" fill="#000001"/>
<path id="Vector_21" d="M11.9967 1.99878H5.0011V3.00284H11.9967V1.99878Z" fill="#000001"/>
<path id="Vector_22" d="M5.9986 14.0017H5.0011V14.9992H5.9986V14.0017Z" fill="#000001"/>
<path id="Vector_23" d="M5.9986 9.99854H5.0011V11.0026H5.9986V9.99854Z" fill="#000001"/>
<path id="Vector_24" d="M5.00113 13.0042H3.99707V14.0016H5.00113V13.0042Z" fill="#000001"/>
<path id="Vector_25" d="M5.00113 8.00342H3.99707V9.99842H5.00113V8.00342Z" fill="#000001"/>
<path id="Vector_26" d="M5.00113 3.00293H3.99707V4.00043H5.00113V3.00293Z" fill="#000001"/>
<path id="Vector_27" d="M3.99713 12H2.99963V13.0041H3.99713V12Z" fill="#000001"/>
<path id="Vector_28" d="M3.99713 4.00024H2.99963V5.00431H3.99713V4.00024Z" fill="#000001"/>
<path id="Vector_29" d="M2.99958 5.00439H2.00208V12H2.99958V5.00439Z" fill="#000001"/>
</g>
</g>
</svg>
