<svg width="24" height="24" viewBox="0 0 24 24" fill="none" xmlns="http://www.w3.org/2000/svg">
<g id="food-drink-bread">
<g id="Group">
<path id="Vector" d="M21.4959 4.49906H20.4984V3.50156H19.4943V2.4975H17.4993V1.5H6.49402V2.4975H13.4962V3.50156H15.4978V4.49906H16.4953V5.50312H17.4993V10.4972H16.4953V11.5012H15.4978V21.5025H4.49902V22.5H18.4968V21.5025H19.4943V20.4984H20.4984V19.5009H21.4959V10.4972H22.5V5.50312H21.4959V4.49906Z" fill="#000001"/>
<path id="Vector_2" d="M12.4987 15.4978H11.4946V16.5019H12.4987V15.4978Z" fill="#000001"/>
<path id="Vector_3" d="M11.4947 13.5029H10.4972V14.5004H11.4947V13.5029Z" fill="#000001"/>
<path id="Vector_4" d="M11.4947 16.502H7.49817V17.4995H11.4947V16.502Z" fill="#000001"/>
<path id="Vector_5" d="M8.49567 13.5029H7.49817V14.5004H8.49567V13.5029Z" fill="#000001"/>
<path id="Vector_6" d="M7.49808 15.4978H6.49402V16.5019H7.49808V15.4978Z" fill="#000001"/>
<path id="Vector_7" d="M6.49402 2.49756H4.49902V3.50162H6.49402V2.49756Z" fill="#000001"/>
<path id="Vector_8" d="M4.49906 11.5012H3.495V21.5025H4.49906V11.5012Z" fill="#000001"/>
<path id="Vector_9" d="M4.49906 3.50146H3.495V4.49896H4.49906V3.50146Z" fill="#000001"/>
<path id="Vector_10" d="M3.49506 10.4971H2.49756V11.5011H3.49506V10.4971Z" fill="#000001"/>
<path id="Vector_11" d="M3.49506 4.49902H2.49756V5.50309H3.49506V4.49902Z" fill="#000001"/>
<path id="Vector_12" d="M2.4975 5.50317H1.5V10.4972H2.4975V5.50317Z" fill="#000001"/>
</g>
</g>
</svg>
