<svg width="24" height="24" viewBox="0 0 24 24" fill="none" xmlns="http://www.w3.org/2000/svg">
<g id="hand-cross-finger-heart">
<g id="Group">
<path id="Vector" d="M19.9997 19.501H19.0022V22.5H19.9997V19.501Z" fill="#000001"/>
<path id="Vector_2" d="M19.0021 18.5034H17.998V19.5009H19.0021V18.5034Z" fill="#000001"/>
<path id="Vector_3" d="M17.998 19.501H17.0005V20.4985H17.998V19.501Z" fill="#000001"/>
<path id="Vector_4" d="M17.998 17.4995H17.0005V18.5036H17.998V17.4995Z" fill="#000001"/>
<path id="Vector_5" d="M17.0006 20.4985H15.9966V21.5026H17.0006V20.4985Z" fill="#000001"/>
<path id="Vector_6" d="M17.0006 16.502H14.999V17.4995H17.0006V16.502Z" fill="#000001"/>
<path id="Vector_7" d="M17.0006 8.50195H15.9966V11.501H17.0006V8.50195Z" fill="#000001"/>
<path id="Vector_8" d="M15.9965 21.5024H14.999V22.4999H15.9965V21.5024Z" fill="#000001"/>
<path id="Vector_9" d="M15.9965 11.5015H14.999V12.499H15.9965V11.5015Z" fill="#000001"/>
<path id="Vector_10" d="M15.9965 7.49805H14.0015V8.50211H15.9965V7.49805Z" fill="#000001"/>
<path id="Vector_11" d="M14.999 17.4995H14.0015V18.5036H14.999V17.4995Z" fill="#000001"/>
<path id="Vector_12" d="M14.9989 15.498H12.9973V16.5021H14.9989V15.498Z" fill="#000001"/>
<path id="Vector_13" d="M14.999 12.4985H14.0015V13.5026H14.999V12.4985Z" fill="#000001"/>
<path id="Vector_14" d="M14.0014 18.5034H12.9973V19.5009H14.0014V18.5034Z" fill="#000001"/>
<path id="Vector_15" d="M14.0014 13.5029H12.9973V14.5004H14.0014V13.5029Z" fill="#000001"/>
<path id="Vector_16" d="M14.0014 8.50195H12.9973V9.49945H14.0014V8.50195Z" fill="#000001"/>
<path id="Vector_17" d="M12.9975 19.501H12V20.4985H12.9975V19.501Z" fill="#000001"/>
<path id="Vector_18" d="M12.9975 14.5005H12V15.498H12.9975V14.5005Z" fill="#000001"/>
<path id="Vector_19" d="M12.9975 9.49951H12V10.497H12.9975V9.49951Z" fill="#000001"/>
<path id="Vector_20" d="M11.9999 15.498H11.0024V16.5021H11.9999V15.498Z" fill="#000001"/>
<path id="Vector_21" d="M11.9999 10.4971H11.0024V11.5011H11.9999V10.4971Z" fill="#000001"/>
<path id="Vector_22" d="M11.0024 16.502H9.99829V17.4995H11.0024V16.502Z" fill="#000001"/>
<path id="Vector_23" d="M11.0024 11.5015H9.99829V12.499H11.0024V11.5015Z" fill="#000001"/>
<path id="Vector_24" d="M9.99848 12.4985H9.00098V13.5026H9.99848V12.4985Z" fill="#000001"/>
<path id="Vector_25" d="M9.99848 9.49951H9.00098V11.5011H9.99848V9.49951Z" fill="#000001"/>
<path id="Vector_26" d="M9.00089 13.5029H7.99683V14.5004H9.00089V13.5029Z" fill="#000001"/>
<path id="Vector_27" d="M7.99677 1.5V2.4975H6.99927V4.49906H7.99677V5.50312H9.00083V6.50062H9.99833V7.49813H11.0024V6.50062H11.9999V5.50312H12.9974V4.49906H14.0015V2.4975H12.9974V1.5H11.0024V2.4975H9.99833V1.5H7.99677Z" fill="#000001"/>
<path id="Vector_28" d="M9.00077 8.50195H6.00171V9.49945H9.00077V8.50195Z" fill="#000001"/>
<path id="Vector_29" d="M6.99921 12.4985H6.00171V16.5017H6.99921V15.4976H7.99671V14.5001H6.99921V12.4985Z" fill="#000001"/>
<path id="Vector_30" d="M6.00187 16.502H4.9978V17.4995H6.00187V16.502Z" fill="#000001"/>
<path id="Vector_31" d="M6.00187 9.49951H4.9978V12.4986H6.00187V9.49951Z" fill="#000001"/>
<path id="Vector_32" d="M4.99774 17.4995H4.00024V22.5001H4.99774V17.4995Z" fill="#000001"/>
</g>
</g>
</svg>
