<svg width="24" height="24" viewBox="0 0 24 24" fill="none" xmlns="http://www.w3.org/2000/svg">
<g id="hand-gesture-finger-click">
<g id="Group">
<path id="Vector" d="M18.9987 15.498H17.9946V20.4987H18.9987V15.498Z" fill="#000001"/>
<path id="Vector_2" d="M17.9948 20.4985H16.9973V21.5026H17.9948V20.4985Z" fill="#000001"/>
<path id="Vector_3" d="M17.9948 14.5005H16.9973V15.498H17.9948V14.5005Z" fill="#000001"/>
<path id="Vector_4" d="M16.9973 21.5024H15.9998V22.4999H16.9973V21.5024Z" fill="#000001"/>
<path id="Vector_5" d="M16.9973 13.5029H15.9998V14.5004H16.9973V13.5029Z" fill="#000001"/>
<path id="Vector_6" d="M15.9996 13.5026V12.4985H11.9965V8.50195H10.999V13.5026H15.9996Z" fill="#000001"/>
<path id="Vector_7" d="M15.9997 3.50146H14.9956V4.49896H15.9997V3.50146Z" fill="#000001"/>
<path id="Vector_8" d="M14.9955 14.5005H13.998V17.4996H14.9955V14.5005Z" fill="#000001"/>
<path id="Vector_9" d="M14.9955 4.49902H13.998V5.50309H14.9955V4.49902Z" fill="#000001"/>
<path id="Vector_10" d="M13.9982 5.50293H13.0007V6.50043H13.9982V5.50293Z" fill="#000001"/>
<path id="Vector_11" d="M11.9965 14.5005H10.999V17.4996H11.9965V14.5005Z" fill="#000001"/>
<path id="Vector_12" d="M10.9991 7.49805H8.99756V8.50211H10.9991V7.49805Z" fill="#000001"/>
<path id="Vector_13" d="M10.9992 1.5H9.99512V4.49906H10.9992V1.5Z" fill="#000001"/>
<path id="Vector_14" d="M8.9975 20.4985H8V22.5001H8.9975V20.4985Z" fill="#000001"/>
<path id="Vector_15" d="M8.0001 16.5016H8.9976V8.50195H8.0001V13.5026H5.99854V14.5001H8.0001V16.5016Z" fill="#000001"/>
<path id="Vector_16" d="M8.00016 19.501H6.99609V20.4985H8.00016V19.501Z" fill="#000001"/>
<path id="Vector_17" d="M8.00016 5.50293H6.99609V6.50043H8.00016V5.50293Z" fill="#000001"/>
<path id="Vector_18" d="M6.99604 18.5034H5.99854V19.5009H6.99604V18.5034Z" fill="#000001"/>
<path id="Vector_19" d="M6.99604 4.49902H5.99854V5.50309H6.99604V4.49902Z" fill="#000001"/>
<path id="Vector_20" d="M5.99848 14.5005H5.00098V18.5036H5.99848V14.5005Z" fill="#000001"/>
<path id="Vector_21" d="M5.99848 3.50146H5.00098V4.49896H5.99848V3.50146Z" fill="#000001"/>
</g>
</g>
</svg>
