<svg width="24" height="24" viewBox="0 0 24 24" fill="none" xmlns="http://www.w3.org/2000/svg">
<g id="hand">
<g id="Group">
<path id="Vector" d="M21.0004 6.50049H19.9963V14.5002H21.0004V6.50049Z" fill="#000001"/>
<path id="Vector_2" d="M19.9963 14.5005H18.9988V17.4996H19.9963V14.5005Z" fill="#000001"/>
<path id="Vector_3" d="M18.0014 19.5011H8.99766V17.4995H7.99687V19.5011H6.99609V22.5001H19.9964V19.5011H18.9989V17.4995H18.0014V19.5011ZM18.0014 21.5026H16.0031V20.4986H18.0047L18.0014 21.5026Z" fill="#000001"/>
<path id="Vector_4" d="M16.9973 10.4971H18.0014V6.50059H19.9964V5.50309H18.0014V4.49902H16.9973V10.4971Z" fill="#000001"/>
<path id="Vector_5" d="M13.9983 10.4972H14.9958V4.49912H16.9974V3.50162H14.9958V2.49756H13.9983V10.4972Z" fill="#000001"/>
<path id="Vector_6" d="M13.9982 13.5029H13.0007V15.4979H13.9982V13.5029Z" fill="#000001"/>
<path id="Vector_7" d="M13.9981 1.5H11.9966V2.4975H13.9981V1.5Z" fill="#000001"/>
<path id="Vector_8" d="M13.0006 12.4985H11.9966V13.5026H13.0006V12.4985Z" fill="#000001"/>
<path id="Vector_9" d="M10.9991 10.4972H11.9966V2.49756H8.99756V3.50162H10.9991V10.4972Z" fill="#000001"/>
<path id="Vector_10" d="M11.9966 11.5015H8.99756V12.499H11.9966V11.5015Z" fill="#000001"/>
<path id="Vector_11" d="M8.00016 15.498H6.99609V17.4996H8.00016V15.498Z" fill="#000001"/>
<path id="Vector_12" d="M8.99766 11.5012V3.50146H8.00016V10.4971H6.99609V11.5012H8.99766Z" fill="#000001"/>
<path id="Vector_13" d="M6.99604 14.5005H5.99854V15.498H6.99604V14.5005Z" fill="#000001"/>
<path id="Vector_14" d="M6.99604 9.49951H5.99854V10.497H6.99604V9.49951Z" fill="#000001"/>
<path id="Vector_15" d="M5.99848 13.5029H5.00098V14.5004H5.99848V13.5029Z" fill="#000001"/>
<path id="Vector_16" d="M5.99863 8.50195H3.99707V9.49945H5.99863V8.50195Z" fill="#000001"/>
<path id="Vector_17" d="M5.00113 12.4985H3.99707V13.5026H5.00113V12.4985Z" fill="#000001"/>
<path id="Vector_18" d="M3.99701 9.49951H2.99951V12.4986H3.99701V9.49951Z" fill="#000001"/>
</g>
</g>
</svg>
