<svg width="24" height="24" viewBox="0 0 24 24" fill="none" xmlns="http://www.w3.org/2000/svg">
<g id="hand-fuck-middle-finger">
<g id="Group">
<path id="Vector" d="M19.0021 13.5027H17.0005V14.5002H19.0021V17.4993H19.9996V10.4971H19.0021V13.5027Z" fill="#000001"/>
<path id="Vector_2" d="M17.998 19.5011H8.00327V18.5036H6.99921V19.5011H6.00171V22.5001H19.9995V19.5011H19.002V17.4995H17.998V19.5011ZM17.998 21.5026H16.003V20.4986H17.998V21.5026Z" fill="#000001"/>
<path id="Vector_3" d="M19.0021 9.49951H17.998V10.497H19.0021V9.49951Z" fill="#000001"/>
<path id="Vector_4" d="M16.0032 13.5026H17.0007V9.49945H17.9982V8.50195H16.0032V13.5026Z" fill="#000001"/>
<path id="Vector_5" d="M16.003 13.5029H14.0015V14.5004H16.003V13.5029Z" fill="#000001"/>
<path id="Vector_6" d="M13.004 11.5013H11.0024V12.4988H11.9999V14.5004H13.004V13.5029H14.0015V8.50225H16.0031V7.49818H14.0015V2.49756H13.004V11.5013Z" fill="#000001"/>
<path id="Vector_7" d="M13.004 1.5H11.0024V2.4975H13.004V1.5Z" fill="#000001"/>
<path id="Vector_8" d="M12 14.5005H9.00098V15.498H12V14.5005Z" fill="#000001"/>
<path id="Vector_9" d="M9.99842 10.4972H9.00092V11.5013H11.0025V2.49756H9.99842V7.49818H8.00342V8.50225H9.99842V10.4972Z" fill="#000001"/>
<path id="Vector_10" d="M9.00092 13.5029H8.00342V14.5004H9.00092V13.5029Z" fill="#000001"/>
<path id="Vector_11" d="M9.00077 10.497V9.49945H8.00327V8.50195H6.99921V9.49945H6.00171V10.497H9.00077Z" fill="#000001"/>
<path id="Vector_12" d="M6.99921 17.4995H6.00171V18.5036H6.99921V17.4995Z" fill="#000001"/>
<path id="Vector_13" d="M6.00189 15.498H5.00439V17.4996H6.00189V15.498Z" fill="#000001"/>
<path id="Vector_14" d="M6.00189 10.4971H5.00439V11.5011H6.00189V10.4971Z" fill="#000001"/>
<path id="Vector_15" d="M5.00431 11.5015H4.00024V15.498H5.00431V11.5015Z" fill="#000001"/>
</g>
</g>
</svg>
