<svg width="24" height="24" viewBox="0 0 24 24" fill="none" xmlns="http://www.w3.org/2000/svg">
<g id="hand-little-finger">
<g id="Group">
<path id="Vector" d="M19.9997 3.50488H19.0022V16.5052H19.9997V3.50488Z" fill="#000001"/>
<path id="Vector_2" d="M18.0045 18.5004H8.00327V17.5029H6.99921V18.5004H6.00171V21.4994H19.9995V18.5004H19.002V16.5054H18.0045V18.5004ZM18.0045 20.5019H16.003V19.5044H18.0045V20.5019Z" fill="#000001"/>
<path id="Vector_3" d="M19.0021 2.50098H17.0005V3.50504H19.0021V2.50098Z" fill="#000001"/>
<path id="Vector_4" d="M16.003 12.5024H14.0015V13.4999H16.003V12.5024Z" fill="#000001"/>
<path id="Vector_5" d="M12 13.4995H9.00098V14.5036H12V13.4995Z" fill="#000001"/>
<path id="Vector_6" d="M9.99842 9.50301H9.00092V10.5005H11.0025V7.50145H13.004V10.5005H11.0025V11.5046H12V13.4996H13.004V12.5021H14.0015V7.50145H16.0031V12.5021H17.0006V3.50488H16.0031V6.50395H8.00342V7.50145H9.99842V9.50301Z" fill="#000001"/>
<path id="Vector_7" d="M9.00092 12.5024H8.00342V13.4999H9.00092V12.5024Z" fill="#000001"/>
<path id="Vector_8" d="M9.00077 9.50303V8.49896H8.00327V7.50146H6.99921V8.49896H6.00171V9.50303H9.00077Z" fill="#000001"/>
<path id="Vector_9" d="M6.99921 16.5054H6.00171V17.5029H6.99921V16.5054Z" fill="#000001"/>
<path id="Vector_10" d="M6.00189 14.5039H5.00439V16.5055H6.00189V14.5039Z" fill="#000001"/>
<path id="Vector_11" d="M6.00189 9.50293H5.00439V10.5004H6.00189V9.50293Z" fill="#000001"/>
<path id="Vector_12" d="M5.00431 10.5005H4.00024V14.5036H5.00431V10.5005Z" fill="#000001"/>
</g>
</g>
</svg>
