<svg width="24" height="24" viewBox="0 0 24 24" fill="none" xmlns="http://www.w3.org/2000/svg">
<g id="hand-fight-2-finger">
<g id="Group">
<path id="Vector" d="M17.4993 13.5027V14.5002H19.5008V17.4993H20.4983V10.4971H19.5008V13.5027H17.4993Z" fill="#000001"/>
<path id="Vector_2" d="M18.5033 19.5011H8.50205V18.5036H7.49799V19.5011H6.50049V22.5001H20.4983V19.5011H19.5008V17.4995H18.5033V19.5011ZM18.5033 21.5026H16.5017V20.4986H18.5033V21.5026Z" fill="#000001"/>
<path id="Vector_3" d="M16.5017 13.5026H17.4992V10.497H19.5008V9.49951H16.5017V13.5026Z" fill="#000001"/>
<path id="Vector_4" d="M17.4992 2.49756H16.5017V5.50318H17.4992V2.49756Z" fill="#000001"/>
<path id="Vector_5" d="M16.5019 5.50293H15.4978V7.49793H16.5019V5.50293Z" fill="#000001"/>
<path id="Vector_6" d="M16.5018 13.5029H14.5002V14.5004H16.5018V13.5029Z" fill="#000001"/>
<path id="Vector_7" d="M14.5002 9.49961H16.5018V8.50211H15.4977V7.49805H14.5002V9.49961Z" fill="#000001"/>
<path id="Vector_8" d="M16.5017 1.5H13.5027V2.4975H16.5017V1.5Z" fill="#000001"/>
<path id="Vector_9" d="M13.5026 14.5001V13.5026H14.5001V9.49951H13.5026V12.4986H12.4985V14.5001H13.5026Z" fill="#000001"/>
<path id="Vector_10" d="M13.5026 2.49756H12.4985V5.50318H13.5026V2.49756Z" fill="#000001"/>
<path id="Vector_11" d="M12.4987 11.5015H11.5012V12.499H12.4987V11.5015Z" fill="#000001"/>
<path id="Vector_12" d="M12.4987 5.50293H11.5012V7.49793H12.4987V5.50293Z" fill="#000001"/>
<path id="Vector_13" d="M12.4986 14.5005H9.49951V15.498H12.4986V14.5005Z" fill="#000001"/>
<path id="Vector_14" d="M11.5011 10.4971H9.49951V11.5011H11.5011V10.4971Z" fill="#000001"/>
<path id="Vector_15" d="M10.5036 8.50211V9.49961H11.5011V7.49805H9.49951V8.50211H10.5036Z" fill="#000001"/>
<path id="Vector_16" d="M9.4997 13.5029H8.5022V14.5004H9.4997V13.5029Z" fill="#000001"/>
<path id="Vector_17" d="M9.4997 5.50293H8.5022V7.49793H9.4997V5.50293Z" fill="#000001"/>
<path id="Vector_18" d="M9.49955 9.49951H6.50049V10.497H9.49955V9.49951Z" fill="#000001"/>
<path id="Vector_19" d="M8.50211 2.49756H7.49805V5.50318H8.50211V2.49756Z" fill="#000001"/>
<path id="Vector_20" d="M7.49799 17.4995H6.50049V18.5036H7.49799V17.4995Z" fill="#000001"/>
<path id="Vector_21" d="M6.50043 15.498H5.50293V17.4996H6.50043V15.498Z" fill="#000001"/>
<path id="Vector_22" d="M6.50043 10.4971H5.50293V11.5011H6.50043V10.4971Z" fill="#000001"/>
<path id="Vector_23" d="M6.50043 7.49805H5.50293V9.49961H6.50043V7.49805Z" fill="#000001"/>
<path id="Vector_24" d="M7.49809 1.5H4.49902V2.4975H7.49809V1.5Z" fill="#000001"/>
<path id="Vector_25" d="M5.50309 11.5015H4.49902V15.498H5.50309V11.5015Z" fill="#000001"/>
<path id="Vector_26" d="M5.50309 5.50293H4.49902V7.49793H5.50309V5.50293Z" fill="#000001"/>
<path id="Vector_27" d="M4.49896 2.49756H3.50146V5.50318H4.49896V2.49756Z" fill="#000001"/>
</g>
</g>
</svg>
