<svg width="24" height="24" viewBox="0 0 24 24" fill="none" xmlns="http://www.w3.org/2000/svg">
<g id="hand-love">
<g id="Group">
<path id="Vector" d="M21.0004 5.50293H19.9963V14.5001H21.0004V5.50293Z" fill="#000001"/>
<path id="Vector_2" d="M19.9963 14.5005H18.9988V17.5061H19.9963V14.5005Z" fill="#000001"/>
<path id="Vector_3" d="M19.9965 4.50586H18.0015V5.50336H19.9965V4.50586Z" fill="#000001"/>
<path id="Vector_4" d="M18.0014 19.5009H8.99766V17.5059H7.99687V19.5009H6.99609V22.4999H19.9964V19.5009H18.9989V17.5059H18.0014V19.5009ZM18.0014 21.5024H16.0031V20.5049H18.0047L18.0014 21.5024Z" fill="#000001"/>
<path id="Vector_5" d="M18.0014 11.5015H16.9973V12.5055H18.0014V11.5015Z" fill="#000001"/>
<path id="Vector_6" d="M15.0024 11.5015H13.9983V12.5055H15.0024V11.5015Z" fill="#000001"/>
<path id="Vector_7" d="M11.9968 11.5015H10.9993V12.5055H11.9968V11.5015Z" fill="#000001"/>
<path id="Vector_8" d="M10.9993 10.5036H11.9968V8.50203H13.9983V10.5036H15.0024V8.50203H16.9974V10.5036H18.0015V5.50297H16.9974V7.50453H11.9968V2.50391H10.9993V10.5036Z" fill="#000001"/>
<path id="Vector_9" d="M10.9991 1.5H8.99756V2.50406H10.9991V1.5Z" fill="#000001"/>
<path id="Vector_10" d="M8.00016 15.5044H6.99609V17.506H8.00016V15.5044Z" fill="#000001"/>
<path id="Vector_11" d="M8.00016 11.5011V12.5052H8.99766V2.50391H8.00016V10.5036H6.99609V11.5011H8.00016Z" fill="#000001"/>
<path id="Vector_12" d="M6.99604 14.5005H5.99854V15.5046H6.99604V14.5005Z" fill="#000001"/>
<path id="Vector_13" d="M6.99604 9.49951H5.99854V10.5036H6.99604V9.49951Z" fill="#000001"/>
<path id="Vector_14" d="M5.99848 13.5029H5.00098V14.5004H5.99848V13.5029Z" fill="#000001"/>
<path id="Vector_15" d="M5.99863 8.50195H3.99707V9.49945H5.99863V8.50195Z" fill="#000001"/>
<path id="Vector_16" d="M5.00113 12.5054H3.99707V13.5029H5.00113V12.5054Z" fill="#000001"/>
<path id="Vector_17" d="M3.99701 9.49951H2.99951V12.5051H3.99701V9.49951Z" fill="#000001"/>
</g>
</g>
</svg>
