<svg width="24" height="24" viewBox="0 0 24 24" fill="none" xmlns="http://www.w3.org/2000/svg">
<g id="hand-love-sign">
<g id="Group">
<path id="Vector" d="M19.9997 4.49902H19.0022V17.4993H19.9997V4.49902Z" fill="#000001"/>
<path id="Vector_2" d="M17.998 19.5011H8.00327V18.5036H6.99921V19.5011H6.00171V22.5001H19.9995V19.5011H19.002V17.4995H17.998V19.5011ZM17.998 21.5026H16.003V20.4986H17.998V21.5026Z" fill="#000001"/>
<path id="Vector_3" d="M19.0021 3.50146H17.0005V4.49896H19.0021V3.50146Z" fill="#000001"/>
<path id="Vector_4" d="M16.003 13.5029H14.0015V14.5004H16.003V13.5029Z" fill="#000001"/>
<path id="Vector_5" d="M12 14.5005H9.00098V15.498H12V14.5005Z" fill="#000001"/>
<path id="Vector_6" d="M9.99848 10.4972H9.00098V11.5013H11.0025V8.50225H13.0041V11.5013H11.0025V12.4988H12V14.5004H13.0041V13.5029H14.0016V8.50225H16.0032V13.5029H17.0007V4.49912H16.0032V7.49818H11.0025V2.49756H9.99848V10.4972Z" fill="#000001"/>
<path id="Vector_7" d="M9.99842 1.5H8.00342V2.4975H9.99842V1.5Z" fill="#000001"/>
<path id="Vector_8" d="M9.00092 13.5029H8.00342V14.5004H9.00092V13.5029Z" fill="#000001"/>
<path id="Vector_9" d="M9.00077 10.4972V9.49975H8.00327V2.49756H6.99921V9.49975H6.00171V10.4972H9.00077Z" fill="#000001"/>
<path id="Vector_10" d="M6.99921 17.4995H6.00171V18.5036H6.99921V17.4995Z" fill="#000001"/>
<path id="Vector_11" d="M6.00189 15.498H5.00439V17.4996H6.00189V15.498Z" fill="#000001"/>
<path id="Vector_12" d="M6.00189 10.4971H5.00439V11.5011H6.00189V10.4971Z" fill="#000001"/>
<path id="Vector_13" d="M5.00431 11.5015H4.00024V15.498H5.00431V11.5015Z" fill="#000001"/>
</g>
</g>
</svg>
