<svg width="24" height="24" viewBox="0 0 24 24" fill="none" xmlns="http://www.w3.org/2000/svg">
<g id="hand-four">
<g id="Group">
<path id="Vector" d="M19.9997 6.50049H18.9956V14.5002H19.9997V6.50049Z" fill="#000001"/>
<path id="Vector_2" d="M18.9955 14.5005H17.998V17.5061H18.9955V14.5005Z" fill="#000001"/>
<path id="Vector_3" d="M17.0007 19.5009H7.99692V18.5034H6.99942V19.5009H5.99536V22.4999H18.9957V19.5009H17.9982V17.5059H17.0007V19.5009ZM17.0007 21.5024H14.9991V20.5049H17.0007V21.5024Z" fill="#000001"/>
<path id="Vector_4" d="M15.9966 11.5015H17.0006V6.50086H18.9956V5.50336H17.0006V4.50586H15.9966V11.5015Z" fill="#000001"/>
<path id="Vector_5" d="M12.9973 11.5011H14.0014V4.50547H15.9964V3.50141H14.0014V2.50391H12.9973V11.5011Z" fill="#000001"/>
<path id="Vector_6" d="M12.9975 12.5054H12V14.5004H12.9975V12.5054Z" fill="#000001"/>
<path id="Vector_7" d="M12.9974 1.5H10.9958V2.50406H12.9974V1.5Z" fill="#000001"/>
<path id="Vector_8" d="M11.9999 11.5015H10.9958V12.5055H11.9999V11.5015Z" fill="#000001"/>
<path id="Vector_9" d="M12 14.5005H9.00098V15.5046H12V14.5005Z" fill="#000001"/>
<path id="Vector_10" d="M9.99839 10.5036H9.00089V11.5011H10.9959V2.50391H7.99683V3.50141H9.99839V10.5036Z" fill="#000001"/>
<path id="Vector_11" d="M9.00089 13.5029H7.99683V14.5004H9.00089V13.5029Z" fill="#000001"/>
<path id="Vector_12" d="M9.00099 10.5037V9.49959H7.99692V3.50146H6.99942V9.49959H5.99536V10.5037H9.00099Z" fill="#000001"/>
<path id="Vector_13" d="M6.99942 17.5059H5.99536V18.5034H6.99942V17.5059Z" fill="#000001"/>
<path id="Vector_14" d="M5.9953 15.5044H4.9978V17.506H5.9953V15.5044Z" fill="#000001"/>
<path id="Vector_15" d="M5.9953 10.5039H4.9978V11.5014H5.9953V10.5039Z" fill="#000001"/>
<path id="Vector_16" d="M4.99774 11.5015H4.00024V15.5046H4.99774V11.5015Z" fill="#000001"/>
</g>
</g>
</svg>
