<svg width="24" height="24" viewBox="0 0 24 24" fill="none" xmlns="http://www.w3.org/2000/svg">
<g id="hand-fiist">
<g id="Group">
<path id="Vector" d="M17.0005 10.5037V11.5012H19.0021V14.5002H19.9996V7.49805H19.0021V10.5037H17.0005Z" fill="#000001"/>
<path id="Vector_2" d="M17.998 16.5021H8.00327V15.5046H6.99921V16.5021H6.00171V19.5011H19.9995V16.5021H19.002V14.5005H17.998V16.5021ZM17.998 18.5036H16.003V17.4996H17.998V18.5036Z" fill="#000001"/>
<path id="Vector_3" d="M19.0021 6.50049H17.998V7.49799H19.0021V6.50049Z" fill="#000001"/>
<path id="Vector_4" d="M16.0032 10.5036H17.0007V6.50043H17.9982V5.50293H16.0032V10.5036Z" fill="#000001"/>
<path id="Vector_5" d="M16.003 10.5039H14.0015V11.5014H16.003V10.5039Z" fill="#000001"/>
<path id="Vector_6" d="M12 11.501H9.00098V12.4985H12V11.501Z" fill="#000001"/>
<path id="Vector_7" d="M9.99842 7.49809H9.00092V8.50215H11.0025V5.50309H13.004V8.50215H11.0025V9.49965H12V11.5012H13.004V10.5037H14.0015V5.50309H16.0031V4.49902H8.00342V5.50309H9.99842V7.49809Z" fill="#000001"/>
<path id="Vector_8" d="M9.00092 10.5039H8.00342V11.5014H9.00092V10.5039Z" fill="#000001"/>
<path id="Vector_9" d="M9.00077 7.49793V6.50043H8.00327V5.50293H6.99921V6.50043H6.00171V7.49793H9.00077Z" fill="#000001"/>
<path id="Vector_10" d="M6.99921 14.5005H6.00171V15.5046H6.99921V14.5005Z" fill="#000001"/>
<path id="Vector_11" d="M6.00189 12.4985H5.00439V14.5001H6.00189V12.4985Z" fill="#000001"/>
<path id="Vector_12" d="M6.00189 7.49805H5.00439V8.50211H6.00189V7.49805Z" fill="#000001"/>
<path id="Vector_13" d="M5.00431 8.50195H4.00024V12.4985H5.00431V8.50195Z" fill="#000001"/>
</g>
</g>
</svg>
