<svg width="24" height="24" viewBox="0 0 24 24" fill="none" xmlns="http://www.w3.org/2000/svg">
<g id="hand-ok">
<g id="Group">
<path id="Vector" d="M20.4985 12.4985H19.501V15.4976H20.4985V12.4985Z" fill="#000001"/>
<path id="Vector_2" d="M20.4985 9.49951H19.501V11.5011H20.4985V9.49951Z" fill="#000001"/>
<path id="Vector_3" d="M19.5011 15.498H18.4971V17.4996H19.5011V15.498Z" fill="#000001"/>
<path id="Vector_4" d="M19.5011 8.50195H18.4971V9.49945H19.5011V8.50195Z" fill="#000001"/>
<path id="Vector_5" d="M18.497 17.4995H17.4995V18.5036H18.497V17.4995Z" fill="#000001"/>
<path id="Vector_6" d="M19.5011 11.5015H17.4995V12.499H19.5011V11.5015Z" fill="#000001"/>
<path id="Vector_7" d="M18.497 7.49805H17.4995V8.50211H18.497V7.49805Z" fill="#000001"/>
<path id="Vector_8" d="M16.4955 19.5009H6.50083V18.5034H5.49677V19.5009H4.49927V22.5H18.4971V19.5009H17.4996V18.5034H16.4955V19.5009ZM16.4955 21.5025H14.5005V20.4984H16.4955V21.5025Z" fill="#000001"/>
<path id="Vector_9" d="M17.4994 12.4985H16.4954V14.5001H17.4994V12.4985Z" fill="#000001"/>
<path id="Vector_10" d="M17.4994 10.4971H16.4954V11.5011H17.4994V10.4971Z" fill="#000001"/>
<path id="Vector_11" d="M16.4955 9.49951H14.5005V10.497H16.4955V9.49951Z" fill="#000001"/>
<path id="Vector_12" d="M16.4954 14.5005H13.4963V15.498H16.4954V14.5005Z" fill="#000001"/>
<path id="Vector_13" d="M17.4995 6.50049H13.4963V7.49799H17.4995V6.50049Z" fill="#000001"/>
<path id="Vector_14" d="M14.5004 10.4971H13.4963V11.5011H14.5004V10.4971Z" fill="#000001"/>
<path id="Vector_15" d="M13.4963 11.5015H12.4988V14.5005H13.4963V11.5015Z" fill="#000001"/>
<path id="Vector_16" d="M13.4963 7.49805H12.4988V8.50211H13.4963V7.49805Z" fill="#000001"/>
<path id="Vector_17" d="M10.4973 10.4972H11.5014V9.49975H12.4989V8.50225H11.5014V2.49756H10.4973V10.4972Z" fill="#000001"/>
<path id="Vector_18" d="M10.4973 10.4971H9.49976V12.4986H10.4973V10.4971Z" fill="#000001"/>
<path id="Vector_19" d="M10.4974 1.5H8.49585V2.4975H10.4974V1.5Z" fill="#000001"/>
<path id="Vector_20" d="M8.49579 10.4971H7.49829V12.4986H8.49579V10.4971Z" fill="#000001"/>
<path id="Vector_21" d="M8.49579 2.49756H7.49829V9.49975H8.49579V2.49756Z" fill="#000001"/>
<path id="Vector_22" d="M7.49823 1.5H6.50073V2.4975H7.49823V1.5Z" fill="#000001"/>
<path id="Vector_23" d="M6.50089 11.5015H5.49683V13.503H6.50089V11.5015Z" fill="#000001"/>
<path id="Vector_24" d="M5.49677 10.4972H6.50083V2.49756H5.49677V4.49912H4.49927V5.50318H5.49677V10.4972Z" fill="#000001"/>
<path id="Vector_25" d="M5.49677 16.502H4.49927V18.5035H5.49677V16.502Z" fill="#000001"/>
<path id="Vector_26" d="M4.49921 5.50293H3.50171V16.5017H4.49921V5.50293Z" fill="#000001"/>
</g>
</g>
</svg>
