<svg width="24" height="24" viewBox="0 0 24 24" fill="none" xmlns="http://www.w3.org/2000/svg">
<g id="hand-writing">
<g id="Group">
<path id="Vector" d="M20.9973 10.4971H19.9998V17.4993H20.9973V10.4971Z" fill="#000001"/>
<path id="Vector_2" d="M19.0023 19.5011H9.00107V18.5036H7.99701V19.5011H6.99951V22.5001H20.9973V19.5011H19.9998V17.4995H19.0023V19.5011ZM19.0023 21.5026H17.0008V20.4986H19.0023V21.5026Z" fill="#000001"/>
<path id="Vector_3" d="M19.9997 9.49951H19.0022V10.497H19.9997V9.49951Z" fill="#000001"/>
<path id="Vector_4" d="M17.9982 10.4971H17.0007V13.5027H17.9982V10.4971Z" fill="#000001"/>
<path id="Vector_5" d="M19.0023 8.50195H17.0007V9.49945H19.0023V8.50195Z" fill="#000001"/>
<path id="Vector_6" d="M15.9968 4.49902H14.9993V5.50309H15.9968V4.49902Z" fill="#000001"/>
<path id="Vector_7" d="M15.9967 4.49906H17.0008V1.5H14.0017V2.4975H15.9967V4.49906Z" fill="#000001"/>
<path id="Vector_8" d="M14.9992 10.4971H14.0017V13.5027H14.9992V10.4971Z" fill="#000001"/>
<path id="Vector_9" d="M14.9992 5.50293H14.0017V6.50043H14.9992V5.50293Z" fill="#000001"/>
<path id="Vector_10" d="M14.9992 3.50146H14.0017V4.49896H14.9992V3.50146Z" fill="#000001"/>
<path id="Vector_11" d="M14.0016 2.49756H12.9976V3.50162H14.0016V2.49756Z" fill="#000001"/>
<path id="Vector_12" d="M12.9975 3.50146H12V4.49896H12.9975V3.50146Z" fill="#000001"/>
<path id="Vector_13" d="M12.0002 10.4971H11.0027V13.5027H12.0002V10.4971Z" fill="#000001"/>
<path id="Vector_14" d="M11.0025 8.50215H17.0007V7.49809H14.0016V6.50059H12.9975V7.49809H12V4.49902H9.00098V5.50309H11.0025V8.50215Z" fill="#000001"/>
<path id="Vector_15" d="M7.99701 11.5011H6.99951V12.4986H7.99701V14.5001H9.00107V5.50293H7.99701V7.49793H6.99951V8.50199H7.99701V11.5011Z" fill="#000001"/>
<path id="Vector_16" d="M7.99701 17.4995H6.99951V18.5036H7.99701V17.4995Z" fill="#000001"/>
<path id="Vector_17" d="M6.99945 15.498H6.00195V17.4996H6.99945V15.498Z" fill="#000001"/>
<path id="Vector_18" d="M6.99945 12.4985H6.00195V13.5026H6.99945V12.4985Z" fill="#000001"/>
<path id="Vector_19" d="M6.99945 8.50195H6.00195V9.49945H6.99945V8.50195Z" fill="#000001"/>
<path id="Vector_20" d="M6.00211 13.5029H4.99805V15.4979H6.00211V13.5029Z" fill="#000001"/>
<path id="Vector_21" d="M6.00211 9.49951H4.99805V10.497H6.00211V9.49951Z" fill="#000001"/>
<path id="Vector_22" d="M4.99799 12.4985H4.00049V13.5026H4.99799V12.4985Z" fill="#000001"/>
<path id="Vector_23" d="M4.99799 10.4971H4.00049V11.5011H4.99799V10.4971Z" fill="#000001"/>
<path id="Vector_24" d="M4.00043 11.5015H3.00293V12.499H4.00043V11.5015Z" fill="#000001"/>
</g>
</g>
</svg>
