<svg width="24" height="24" viewBox="0 0 24 24" fill="none" xmlns="http://www.w3.org/2000/svg">
<g id="hand-like">
<g id="Group">
<path id="Vector" d="M17.4959 7.50488V8.50238H16.4984V9.49988H17.4959V19.5011H15.4944V20.4986H17.4959V21.5027H21.4991V7.50488H17.4959ZM19.4975 11.5014H18.5V9.49988H19.4975V11.5014Z" fill="#000001"/>
<path id="Vector_2" d="M16.4984 7.50488H15.4944V8.50238H16.4984V7.50488Z" fill="#000001"/>
<path id="Vector_3" d="M15.4946 6.50049H14.4971V7.50455H15.4946V6.50049Z" fill="#000001"/>
<path id="Vector_4" d="M15.4946 20.4985H14.4971V21.5026H15.4946V20.4985Z" fill="#000001"/>
<path id="Vector_5" d="M14.497 2.50391H13.4995V6.50047H14.497V2.50391Z" fill="#000001"/>
<path id="Vector_6" d="M13.4994 1.5H11.4978V2.50406H13.4994V1.5Z" fill="#000001"/>
<path id="Vector_7" d="M14.4969 21.5024H5.49976V22.4999H14.4969V21.5024Z" fill="#000001"/>
<path id="Vector_8" d="M12.4953 8.50195H11.4978V9.49945H12.4953V8.50195Z" fill="#000001"/>
<path id="Vector_9" d="M11.498 2.50391H10.5005V3.50141H11.498V2.50391Z" fill="#000001"/>
<path id="Vector_10" d="M11.498 7.50488H10.5005V8.50238H11.498V7.50488Z" fill="#000001"/>
<path id="Vector_11" d="M10.5004 3.50146H9.49634V7.50459H10.5004V3.50146Z" fill="#000001"/>
<path id="Vector_12" d="M11.498 9.49951H4.49585V10.5036H11.498V9.49951Z" fill="#000001"/>
<path id="Vector_13" d="M8.49892 19.5009V18.5034H3.49829V20.4984H4.49579V19.5009H8.49892Z" fill="#000001"/>
<path id="Vector_14" d="M5.49991 20.4985H4.49585V21.5026H5.49991V20.4985Z" fill="#000001"/>
<path id="Vector_15" d="M4.49579 10.5039H3.49829V11.5014H4.49579V10.5039Z" fill="#000001"/>
<path id="Vector_16" d="M7.4948 16.5021V15.5046H3.49823V13.503H7.4948V12.499H3.49823V11.5015H2.50073V18.5037H3.49823V16.5021H7.4948Z" fill="#000001"/>
</g>
</g>
</svg>
