<svg width="24" height="24" viewBox="0 0 24 24" fill="none" xmlns="http://www.w3.org/2000/svg">
<g id="hand-dislike">
<g id="Group">
<path id="Vector" d="M17.4959 2.49756V3.50162H15.4944V4.49912H17.4959V14.5004H16.4984V15.4979H17.4959V16.5019H21.4991V2.49756H17.4959Z" fill="#000001"/>
<path id="Vector_2" d="M16.4986 15.498H14.4971V16.5021H16.4986V15.498Z" fill="#000001"/>
<path id="Vector_3" d="M15.4946 2.49756H14.4971V3.50162H15.4946V2.49756Z" fill="#000001"/>
<path id="Vector_4" d="M14.497 16.502H13.4995V17.4995H14.497V16.502Z" fill="#000001"/>
<path id="Vector_5" d="M13.4994 17.4995H12.4954V21.5026H13.4994V17.4995Z" fill="#000001"/>
<path id="Vector_6" d="M12.4955 21.5024H10.5005V22.4999H12.4955V21.5024Z" fill="#000001"/>
<path id="Vector_7" d="M11.498 14.5005H10.5005V15.498H11.498V14.5005Z" fill="#000001"/>
<path id="Vector_8" d="M10.5004 20.4985H9.49634V21.5026H10.5004V20.4985Z" fill="#000001"/>
<path id="Vector_9" d="M10.5004 15.498H9.49634V16.5021H10.5004V15.498Z" fill="#000001"/>
<path id="Vector_10" d="M10.5005 13.5029H4.49585V14.5004H10.5005V13.5029Z" fill="#000001"/>
<path id="Vector_11" d="M9.49628 16.502H8.49878V20.4985H9.49628V16.502Z" fill="#000001"/>
<path id="Vector_12" d="M14.4969 1.5H5.49976V2.4975H14.4969V1.5Z" fill="#000001"/>
<path id="Vector_13" d="M8.49892 5.50303V4.49896H4.49579V3.50146H3.49829V5.50303H8.49892Z" fill="#000001"/>
<path id="Vector_14" d="M5.49991 2.49756H4.49585V3.50162H5.49991V2.49756Z" fill="#000001"/>
<path id="Vector_15" d="M4.49579 12.4985H3.49829V13.5026H4.49579V12.4985Z" fill="#000001"/>
<path id="Vector_16" d="M7.4948 11.5011V10.497H3.49823V8.50199H7.4948V7.49793H3.49823V5.50293H2.50073V12.4986H3.49823V11.5011H7.4948Z" fill="#000001"/>
</g>
</g>
</svg>
