<svg width="24" height="24" viewBox="0 0 24 24" fill="none" xmlns="http://www.w3.org/2000/svg">
<g id="hand-awesome">
<g id="Group">
<path id="Vector" d="M9.50309 8H8.49902V8.9975H9.50309V8Z" fill="#000001"/>
<path id="Vector_2" d="M7.50142 20.006V10.0014H8.49892V8.99736H7.50142V7.99658H3.49829V21.9944H7.50142V20.9969H9.50626V20.006H7.50142ZM6.49735 11.9997H5.50313V10.0047H6.50063L6.49735 11.9997Z" fill="#000001"/>
<path id="Vector_3" d="M10.5004 7.00244H9.50293V7.99994H10.5004V7.00244Z" fill="#000001"/>
<path id="Vector_4" d="M11.498 2.99951H10.5005V7.00264H11.498V2.99951Z" fill="#000001"/>
<path id="Vector_5" d="M12.5021 10.0015H11.498V10.999H12.5021V10.0015Z" fill="#000001"/>
<path id="Vector_6" d="M13.4996 2.00195H11.498V2.99945H13.4996V2.00195Z" fill="#000001"/>
<path id="Vector_7" d="M13.4995 8.99756H12.502V10.0016H13.4995V8.99756Z" fill="#000001"/>
<path id="Vector_8" d="M13.4995 13.0005H12.502V15.0021H13.4995V13.0005Z" fill="#000001"/>
<path id="Vector_9" d="M13.4995 16H12.502V18.0016H13.4995V16Z" fill="#000001"/>
<path id="Vector_10" d="M14.497 2.99951H13.4995V3.99701H14.497V2.99951Z" fill="#000001"/>
<path id="Vector_11" d="M14.497 8H13.4995V8.9975H14.497V8Z" fill="#000001"/>
<path id="Vector_12" d="M15.5011 3.99707H14.4971V8.0002H15.5011V3.99707Z" fill="#000001"/>
<path id="Vector_13" d="M19.4977 8.99756H14.4971V10.0016H19.4977V8.99756Z" fill="#000001"/>
<path id="Vector_14" d="M15.5011 20.0029H14.497V21.0004H9.50293V21.9979H17.5026V21.0004H15.5011V20.0029Z" fill="#000001"/>
<path id="Vector_15" d="M13.4995 18.0015V20.003H14.497V18.999H18.5001V20.003H19.4976V18.0015H13.4995Z" fill="#000001"/>
<path id="Vector_16" d="M18.5002 20.0029H17.5027V21.0004H18.5002V20.0029Z" fill="#000001"/>
<path id="Vector_17" d="M19.4976 11.9965H14.497V10.0015H13.4995V13.0005H19.4976V15.0021H13.4995V15.9996H19.4976V18.0012H20.5017V10.0015H19.4976V11.9965Z" fill="#000001"/>
</g>
</g>
</svg>
