<svg width="24" height="24" viewBox="0 0 24 24" fill="none" xmlns="http://www.w3.org/2000/svg">
<g id="hand-zoom">
<g id="Group">
<path id="Vector" d="M22.0014 10.5039H20.9973V14.5005H22.0014V10.5039Z" fill="#000001"/>
<path id="Vector_2" d="M20.9973 14.5005H19.9998V17.5061H20.9973V14.5005Z" fill="#000001"/>
<path id="Vector_3" d="M20.9973 9.49951H19.9998V10.5036H20.9973V9.49951Z" fill="#000001"/>
<path id="Vector_4" d="M19.0021 19.5009H9.99839V17.5059H9.00089V19.5009H7.99683V22.4999H20.9971V19.5009H19.9996V17.5059H19.0021V19.5009ZM19.0021 21.5024H17.0006V20.5049H19.0021V21.5024Z" fill="#000001"/>
<path id="Vector_5" d="M19.9997 8.50195H19.0022V9.49945H19.9997V8.50195Z" fill="#000001"/>
<path id="Vector_6" d="M19.0021 10.5039H17.998V12.5055H19.0021V10.5039Z" fill="#000001"/>
<path id="Vector_7" d="M16.0031 10.5039H14.999V12.5055H16.0031V10.5039Z" fill="#000001"/>
<path id="Vector_8" d="M12.9975 10.5039H12V12.5055H12.9975V10.5039Z" fill="#000001"/>
<path id="Vector_9" d="M12 8.50203H19.0022V7.50453H12.9975V2.50391H12V8.50203Z" fill="#000001"/>
<path id="Vector_10" d="M12.0001 1.5H9.99854V2.50406H12.0001V1.5Z" fill="#000001"/>
<path id="Vector_11" d="M9.00089 15.5044H7.99683V17.506H9.00089V15.5044Z" fill="#000001"/>
<path id="Vector_12" d="M9.00089 11.5011V13.5027H9.99839V2.50391H9.00089V10.5036H7.99683V11.5011H9.00089Z" fill="#000001"/>
<path id="Vector_13" d="M7.99701 14.5005H6.99951V15.5046H7.99701V14.5005Z" fill="#000001"/>
<path id="Vector_14" d="M7.99701 9.49951H6.99951V10.5036H7.99701V9.49951Z" fill="#000001"/>
<path id="Vector_15" d="M6.99937 4.50562H7.99687V1.5H4.9978V2.50406H6.00187V3.50156H6.99937V4.50562Z" fill="#000001"/>
<path id="Vector_16" d="M6.99945 13.5029H6.00195V14.5004H6.99945V13.5029Z" fill="#000001"/>
<path id="Vector_17" d="M6.99937 8.50195H4.9978V9.49945H6.99937V8.50195Z" fill="#000001"/>
<path id="Vector_18" d="M6.00187 12.5054H4.9978V13.5029H6.00187V12.5054Z" fill="#000001"/>
<path id="Vector_19" d="M6.00187 3.50146H4.9978V4.50553H6.00187V3.50146Z" fill="#000001"/>
<path id="Vector_20" d="M4.99774 9.49951H4.00024V12.5051H4.99774V9.49951Z" fill="#000001"/>
<path id="Vector_21" d="M4.99784 6.50086H4.00034V5.50336H3.00284V4.50586H1.99878V7.50492H4.99784V6.50086Z" fill="#000001"/>
<path id="Vector_22" d="M4.99774 4.50586H4.00024V5.50336H4.99774V4.50586Z" fill="#000001"/>
</g>
</g>
</svg>
