<svg width="24" height="24" viewBox="0 0 24 24" fill="none" xmlns="http://www.w3.org/2000/svg">
<g id="hand-zombie">
<g id="Group">
<path id="Vector" d="M22.4999 12.5054H21.5024V14.5004H22.4999V12.5054Z" fill="#000001"/>
<path id="Vector_2" d="M21.5025 17.506V18.5035H20.4984V17.506H18.5034V18.5035H19.5009V19.501H20.4984V20.5051H22.5V16.502H20.4984V17.506H21.5025Z" fill="#000001"/>
<path id="Vector_3" d="M21.5026 14.5005H20.4985V15.5046H21.5026V14.5005Z" fill="#000001"/>
<path id="Vector_4" d="M22.5 21.5024H19.501V22.4999H22.5V21.5024Z" fill="#000001"/>
<path id="Vector_5" d="M21.5025 11.5015H19.501V12.5055H21.5025V11.5015Z" fill="#000001"/>
<path id="Vector_6" d="M20.4985 5.50293H19.501V10.5036H20.4985V5.50293Z" fill="#000001"/>
<path id="Vector_7" d="M20.4984 15.5044H18.5034V16.5019H20.4984V15.5044Z" fill="#000001"/>
<path id="Vector_8" d="M19.5009 12.5054H18.5034V13.5029H19.5009V12.5054Z" fill="#000001"/>
<path id="Vector_9" d="M19.5009 10.5039H18.5034V11.5014H19.5009V10.5039Z" fill="#000001"/>
<path id="Vector_10" d="M19.5008 4.50586H17.4993V5.50336H19.5008V4.50586Z" fill="#000001"/>
<path id="Vector_11" d="M18.5035 18.5034H16.5019V20.505H15.5044V21.5025H12.4988V22.5H16.5019V21.5025H17.4994V22.5H18.5035V21.5025H19.501V19.5009H18.5035V18.5034Z" fill="#000001"/>
<path id="Vector_12" d="M18.5035 16.502H16.502V17.506H18.5035V16.502Z" fill="#000001"/>
<path id="Vector_13" d="M18.5033 11.5015H17.4993V12.5055H18.5033V11.5015Z" fill="#000001"/>
<path id="Vector_14" d="M17.4994 12.5054H16.5019V13.5029H15.5044V14.5004H18.5035V13.5029H17.4994V12.5054Z" fill="#000001"/>
<path id="Vector_15" d="M17.4995 5.50293H16.502V8.50199H17.4995V5.50293Z" fill="#000001"/>
<path id="Vector_16" d="M16.5019 17.5059H15.5044V18.5034H16.5019V17.5059Z" fill="#000001"/>
<path id="Vector_17" d="M16.5019 8.50195H15.5044V9.49945H16.5019V8.50195Z" fill="#000001"/>
<path id="Vector_18" d="M15.5043 18.5034H14.5002V20.505H15.5043V18.5034Z" fill="#000001"/>
<path id="Vector_19" d="M15.5043 4.50586H14.5002V8.50242H15.5043V4.50586Z" fill="#000001"/>
<path id="Vector_20" d="M14.5004 3.50146H13.5029V4.50553H14.5004V3.50146Z" fill="#000001"/>
<path id="Vector_21" d="M13.5029 20.505V19.501H9.49976V20.505H10.5038V21.5025H12.4988V20.505H13.5029Z" fill="#000001"/>
<path id="Vector_22" d="M14.5003 11.5015H11.5012V12.5055H14.5003V11.5015Z" fill="#000001"/>
<path id="Vector_23" d="M13.5028 2.50391H12.4988V3.50141H13.5028V2.50391Z" fill="#000001"/>
<path id="Vector_24" d="M12.4987 5.50293H11.5012V8.50199H12.4987V5.50293Z" fill="#000001"/>
<path id="Vector_25" d="M12.4987 1.5H10.5037V2.50406H12.4987V1.5Z" fill="#000001"/>
<path id="Vector_26" d="M11.5012 12.5054H10.5037V13.5029H11.5012V12.5054Z" fill="#000001"/>
<path id="Vector_27" d="M11.5012 8.50195H10.5037V9.49945H11.5012V8.50195Z" fill="#000001"/>
<path id="Vector_28" d="M11.5012 4.50586H10.5037V5.50336H11.5012V4.50586Z" fill="#000001"/>
<path id="Vector_29" d="M10.5038 6.50049H9.49976V8.50205H10.5038V6.50049Z" fill="#000001"/>
<path id="Vector_30" d="M10.5038 2.50391H9.49976V4.50547H10.5038V2.50391Z" fill="#000001"/>
<path id="Vector_31" d="M7.49813 21.5026V20.5051H6.50062V17.506H4.49906V16.502H2.50406V17.506H1.5V20.5051H3.50156V21.5026H4.49906V22.5001H5.50312V21.5026H6.50062V22.5001H10.5038V21.5026H7.49813ZM3.50156 19.501H2.50406V18.5035H3.50156V19.501Z" fill="#000001"/>
<path id="Vector_32" d="M9.4997 5.50293H8.5022V6.50043H9.4997V5.50293Z" fill="#000001"/>
<path id="Vector_33" d="M8.50211 17.5059H7.49805V20.5049H8.50211V17.5059Z" fill="#000001"/>
<path id="Vector_34" d="M8.50211 8.50195H7.49805V11.501H8.50211V8.50195Z" fill="#000001"/>
<path id="Vector_35" d="M8.50211 4.50586H7.49805V5.50336H8.50211V4.50586Z" fill="#000001"/>
<path id="Vector_36" d="M7.49823 16.502H6.50073V17.506H7.49823V16.502Z" fill="#000001"/>
<path id="Vector_37" d="M7.49823 7.50488H6.50073V8.50238H7.49823V7.50488Z" fill="#000001"/>
<path id="Vector_38" d="M7.49817 3.50146H5.50317V4.50553H7.49817V3.50146Z" fill="#000001"/>
<path id="Vector_39" d="M6.50059 15.5044H4.49902V16.5019H6.50059V15.5044Z" fill="#000001"/>
<path id="Vector_40" d="M7.49817 11.5015H5.50317V12.5055H7.49817V11.5015Z" fill="#000001"/>
<path id="Vector_41" d="M6.50067 6.50049H5.50317V7.50455H6.50067V6.50049Z" fill="#000001"/>
<path id="Vector_42" d="M5.50309 9.49951H4.49902V11.5011H5.50309V9.49951Z" fill="#000001"/>
<path id="Vector_43" d="M5.50309 4.50586H4.49902V6.50086H5.50309V4.50586Z" fill="#000001"/>
<path id="Vector_44" d="M4.49896 14.5005H3.50146V15.5046H4.49896V14.5005Z" fill="#000001"/>
<path id="Vector_45" d="M4.49915 8.50195H2.50415V9.49945H4.49915V8.50195Z" fill="#000001"/>
<path id="Vector_46" d="M3.50165 13.5029H2.50415V14.5004H3.50165V13.5029Z" fill="#000001"/>
<path id="Vector_47" d="M3.50156 21.5024H1.5V22.4999H3.50156V21.5024Z" fill="#000001"/>
<path id="Vector_48" d="M2.50406 15.5044H1.5V16.5019H2.50406V15.5044Z" fill="#000001"/>
<path id="Vector_49" d="M2.50406 9.49951H1.5V13.5026H2.50406V9.49951Z" fill="#000001"/>
</g>
</g>
</svg>
