<svg width="24" height="24" viewBox="0 0 24 24" fill="none" xmlns="http://www.w3.org/2000/svg">
<g id="health-bandage">
<g id="Group">
<path id="Vector" d="M22.4999 16.502H21.5024V19.501H22.4999V16.502Z" fill="#000001"/>
<path id="Vector_2" d="M22.4999 4.49902H21.5024V7.50465H22.4999V4.49902Z" fill="#000001"/>
<path id="Vector_3" d="M21.5024 19.501H20.5049V20.505H21.5024V19.501Z" fill="#000001"/>
<path id="Vector_4" d="M21.5024 15.5044H20.5049V16.5019H21.5024V15.5044Z" fill="#000001"/>
<path id="Vector_5" d="M21.5024 7.50464H20.5049V8.50214H21.5024V7.50464Z" fill="#000001"/>
<path id="Vector_6" d="M21.5024 3.50146H20.5049V4.49896H21.5024V3.50146Z" fill="#000001"/>
<path id="Vector_7" d="M20.505 20.5049H19.501V21.5024H20.505V20.5049Z" fill="#000001"/>
<path id="Vector_8" d="M20.505 17.4993H19.501V18.5033H20.505V17.4993Z" fill="#000001"/>
<path id="Vector_9" d="M20.505 14.5002H19.501V15.5043H20.505V14.5002Z" fill="#000001"/>
<path id="Vector_10" d="M20.505 8.5022H19.501V9.4997H20.505V8.5022Z" fill="#000001"/>
<path id="Vector_11" d="M20.505 2.50415H19.501V3.50165H20.505V2.50415Z" fill="#000001"/>
<path id="Vector_12" d="M19.5009 13.5029H18.5034V14.5004H19.5009V13.5029Z" fill="#000001"/>
<path id="Vector_13" d="M19.5009 9.49976H18.5034V10.5038H19.5009V9.49976Z" fill="#000001"/>
<path id="Vector_14" d="M19.5009 6.50073H18.5034V7.50479H19.5009V6.50073Z" fill="#000001"/>
<path id="Vector_15" d="M19.501 21.5024H16.502V22.4999H19.501V21.5024Z" fill="#000001"/>
<path id="Vector_16" d="M18.5034 19.501H17.5059V20.505H18.5034V19.501Z" fill="#000001"/>
<path id="Vector_17" d="M18.5034 17.4993H17.5059V18.5033H18.5034V17.4993Z" fill="#000001"/>
<path id="Vector_18" d="M18.5034 15.5044H17.5059V16.5019H18.5034V15.5044Z" fill="#000001"/>
<path id="Vector_19" d="M18.5034 10.5037H17.5059V11.5012H18.5034V10.5037Z" fill="#000001"/>
<path id="Vector_20" d="M19.501 1.5H16.502V2.50406H19.501V1.5Z" fill="#000001"/>
<path id="Vector_21" d="M17.506 8.5022H16.502V9.4997H17.506V8.5022Z" fill="#000001"/>
<path id="Vector_22" d="M17.506 6.50073H16.502V7.50479H17.506V6.50073Z" fill="#000001"/>
<path id="Vector_23" d="M17.506 4.49902H16.502V5.50309H17.506V4.49902Z" fill="#000001"/>
<path id="Vector_24" d="M16.5019 20.5049H15.5044V21.5024H16.5019V20.5049Z" fill="#000001"/>
<path id="Vector_25" d="M16.5019 17.4993H15.5044V18.5033H16.5019V17.4993Z" fill="#000001"/>
<path id="Vector_26" d="M16.5017 10.5038H15.5042V9.49974H14.5001V8.50224H13.5026V7.50474H12.5051V6.50067H11.5011V5.50317H10.5036V7.50474H9.50605V8.50224H8.50199V9.49974H7.50449V10.5038H5.50293V11.5013H6.50043V12.5054H7.50449V13.5029H8.50199V14.5004H9.50605V15.5044H10.5036V16.5019H11.5011V17.4994H12.5051V18.5035H13.5026V16.5019H14.5001V15.5044H15.5042V14.5004H16.5017V13.5029H18.5032V12.5054H17.5057V11.5013H16.5017V10.5038ZM14.5001 12.5054H13.5026V13.5029H12.5051V14.5004H11.5011V13.5029H10.5036V12.5054H9.50605V10.5038H10.5036V9.49974H11.5011V10.5038H12.5051V9.49974H13.5026V10.5038H14.5001V12.5054Z" fill="#000001"/>
<path id="Vector_27" d="M16.5019 2.50415H15.5044V3.50165H16.5019V2.50415Z" fill="#000001"/>
<path id="Vector_28" d="M15.5046 19.501H14.5005V20.505H15.5046V19.501Z" fill="#000001"/>
<path id="Vector_29" d="M15.5046 6.50073H14.5005V7.50479H15.5046V6.50073Z" fill="#000001"/>
<path id="Vector_30" d="M15.5046 3.50146H14.5005V4.49896H15.5046V3.50146Z" fill="#000001"/>
<path id="Vector_31" d="M14.5004 18.5034H13.5029V19.5009H14.5004V18.5034Z" fill="#000001"/>
<path id="Vector_32" d="M14.5004 4.49902H13.5029V5.50309H14.5004V4.49902Z" fill="#000001"/>
<path id="Vector_33" d="M13.5029 5.50317H12.5054V6.50067H13.5029V5.50317Z" fill="#000001"/>
<path id="Vector_34" d="M11.5014 17.4993H10.5039V18.5033H11.5014V17.4993Z" fill="#000001"/>
<path id="Vector_35" d="M10.5038 18.5034H9.50635V19.5009H10.5038V18.5034Z" fill="#000001"/>
<path id="Vector_36" d="M10.5038 4.49902H9.50635V5.50309H10.5038V4.49902Z" fill="#000001"/>
<path id="Vector_37" d="M9.50602 19.501H8.50195V20.505H9.50602V19.501Z" fill="#000001"/>
<path id="Vector_38" d="M9.50602 16.502H8.50195V17.4995H9.50602V16.502Z" fill="#000001"/>
<path id="Vector_39" d="M9.50602 3.50146H8.50195V4.49896H9.50602V3.50146Z" fill="#000001"/>
<path id="Vector_40" d="M8.50238 20.5049H7.50488V21.5024H8.50238V20.5049Z" fill="#000001"/>
<path id="Vector_41" d="M8.50238 5.50317H7.50488V6.50067H8.50238V5.50317Z" fill="#000001"/>
<path id="Vector_42" d="M8.50238 2.50415H7.50488V3.50165H8.50238V2.50415Z" fill="#000001"/>
<path id="Vector_43" d="M7.50455 18.5034H6.50049V19.5009H7.50455V18.5034Z" fill="#000001"/>
<path id="Vector_44" d="M7.50455 16.502H6.50049V17.4995H7.50455V16.502Z" fill="#000001"/>
<path id="Vector_45" d="M7.50455 14.5002H6.50049V15.5043H7.50455V14.5002Z" fill="#000001"/>
<path id="Vector_46" d="M7.50492 21.5024H4.50586V22.4999H7.50492V21.5024Z" fill="#000001"/>
<path id="Vector_47" d="M6.50043 12.5054H5.50293V13.5029H6.50043V12.5054Z" fill="#000001"/>
<path id="Vector_48" d="M6.50043 7.50464H5.50293V8.50214H6.50043V7.50464Z" fill="#000001"/>
<path id="Vector_49" d="M6.50043 5.50317H5.50293V6.50067H6.50043V5.50317Z" fill="#000001"/>
<path id="Vector_50" d="M6.50043 3.50146H5.50293V4.49896H6.50043V3.50146Z" fill="#000001"/>
<path id="Vector_51" d="M7.50492 1.5H4.50586V2.50406H7.50492V1.5Z" fill="#000001"/>
<path id="Vector_52" d="M5.50336 16.502H4.50586V17.4995H5.50336V16.502Z" fill="#000001"/>
<path id="Vector_53" d="M5.50336 13.5029H4.50586V14.5004H5.50336V13.5029Z" fill="#000001"/>
<path id="Vector_54" d="M5.50336 9.49976H4.50586V10.5038H5.50336V9.49976Z" fill="#000001"/>
<path id="Vector_55" d="M4.50553 20.5049H3.50146V21.5024H4.50553V20.5049Z" fill="#000001"/>
<path id="Vector_56" d="M4.50553 14.5002H3.50146V15.5043H4.50553V14.5002Z" fill="#000001"/>
<path id="Vector_57" d="M4.50553 8.5022H3.50146V9.4997H4.50553V8.5022Z" fill="#000001"/>
<path id="Vector_58" d="M4.50553 5.50317H3.50146V6.50067H4.50553V5.50317Z" fill="#000001"/>
<path id="Vector_59" d="M4.50553 2.50415H3.50146V3.50165H4.50553V2.50415Z" fill="#000001"/>
<path id="Vector_60" d="M3.50141 19.501H2.50391V20.505H3.50141V19.501Z" fill="#000001"/>
<path id="Vector_61" d="M3.50141 15.5044H2.50391V16.5019H3.50141V15.5044Z" fill="#000001"/>
<path id="Vector_62" d="M3.50141 7.50464H2.50391V8.50214H3.50141V7.50464Z" fill="#000001"/>
<path id="Vector_63" d="M3.50141 3.50146H2.50391V4.49896H3.50141V3.50146Z" fill="#000001"/>
<path id="Vector_64" d="M2.50406 16.502H1.5V19.501H2.50406V16.502Z" fill="#000001"/>
<path id="Vector_65" d="M2.50406 4.49902H1.5V7.50465H2.50406V4.49902Z" fill="#000001"/>
</g>
</g>
</svg>
