<svg width="24" height="24" viewBox="0 0 24 24" fill="none" xmlns="http://www.w3.org/2000/svg">
<g id="health-brain-2">
<g id="Group">
<path id="Vector" d="M21.5025 7.0026H20.505V8.0001H21.5025V12.0032H19.501V13.0007H21.5025V16.9973H20.505V18.0013H21.5025V18.9988H22.5V5.99854H21.5025V7.0026Z" fill="#000001"/>
<path id="Vector_2" d="M21.5024 18.9988H20.5049V20.0028H21.5024V18.9988Z" fill="#000001"/>
<path id="Vector_3" d="M21.5024 3.99707H20.5049V5.99863H21.5024V3.99707Z" fill="#000001"/>
<path id="Vector_4" d="M20.505 20.0029H19.501V21.0004H20.505V20.0029Z" fill="#000001"/>
<path id="Vector_5" d="M20.505 15.0022H19.501V16.9972H20.505V15.0022Z" fill="#000001"/>
<path id="Vector_6" d="M20.505 8H19.501V10.0016H20.505V8Z" fill="#000001"/>
<path id="Vector_7" d="M19.5009 10.0017H18.5034V10.9992H19.5009V10.0017Z" fill="#000001"/>
<path id="Vector_8" d="M20.505 2.99951H18.5034V3.99701H20.505V2.99951Z" fill="#000001"/>
<path id="Vector_9" d="M19.5011 21.0005H14.5005V21.998H19.5011V21.0005Z" fill="#000001"/>
<path id="Vector_10" d="M18.5034 13.0007H17.5059V13.9982H18.5034V13.0007Z" fill="#000001"/>
<path id="Vector_11" d="M18.5034 7.00269H17.5059V8.00019H18.5034V7.00269Z" fill="#000001"/>
<path id="Vector_12" d="M18.5034 5.00098H17.5059V5.99848H18.5034V5.00098Z" fill="#000001"/>
<path id="Vector_13" d="M18.5035 18.0012H16.502V18.9987H18.5035V18.0012Z" fill="#000001"/>
<path id="Vector_14" d="M17.506 8H16.502V8.9975H17.506V8Z" fill="#000001"/>
<path id="Vector_15" d="M16.5019 18.9988H15.5044V20.0028H16.5019V18.9988Z" fill="#000001"/>
<path id="Vector_16" d="M16.5019 13.9983H15.5044V15.0024H16.5019V13.9983Z" fill="#000001"/>
<path id="Vector_17" d="M17.506 12.0032H15.5044V13.0007H17.506V12.0032Z" fill="#000001"/>
<path id="Vector_18" d="M15.5046 15.0022H14.5005V16.9972H15.5046V15.0022Z" fill="#000001"/>
<path id="Vector_19" d="M15.5046 5.00098H14.5005V5.99848H15.5046V5.00098Z" fill="#000001"/>
<path id="Vector_20" d="M15.5045 5.00102H16.502V2.99945H18.5036V2.00195H13.5029V2.99945H15.5045V5.00102Z" fill="#000001"/>
<path id="Vector_21" d="M14.5004 20.0029H12.5054V21.0004H14.5004V20.0029Z" fill="#000001"/>
<path id="Vector_22" d="M13.5029 2.99951H12.5054V3.99701H13.5029V2.99951Z" fill="#000001"/>
<path id="Vector_23" d="M12.5054 15.0024H14.5004V13.9983H12.5054V10.0018H14.5004V12.0033H15.5045V10.0018H16.502V8.9977H12.5054V3.99707H11.5013V5.99863H9.50635V7.0027H11.5013V10.9993H10.5038V12.0033H11.5013V15.9999H10.5038V16.9974H11.5013V20.003H12.5054V15.0024Z" fill="#000001"/>
<path id="Vector_24" d="M11.5014 2.99951H10.5039V3.99701H11.5014V2.99951Z" fill="#000001"/>
<path id="Vector_25" d="M11.5013 20.0029H9.50635V21.0004H11.5013V20.0029Z" fill="#000001"/>
<path id="Vector_26" d="M10.5038 13.9983H9.50635V15.9999H10.5038V13.9983Z" fill="#000001"/>
<path id="Vector_27" d="M10.5038 10.0017H9.50635V10.9992H10.5038V10.0017Z" fill="#000001"/>
<path id="Vector_28" d="M9.50602 5.00098H8.50195V5.99848H9.50602V5.00098Z" fill="#000001"/>
<path id="Vector_29" d="M9.50648 21.0005H4.50586V21.998H9.50648V21.0005Z" fill="#000001"/>
<path id="Vector_30" d="M8.50238 13.0007H7.50488V13.9982H8.50238V13.0007Z" fill="#000001"/>
<path id="Vector_31" d="M8.50238 3.99707H7.50488V5.00113H8.50238V3.99707Z" fill="#000001"/>
<path id="Vector_32" d="M7.50459 15.0022H6.50053V15.9997H5.50303V15.0022H4.50553V15.9997H3.50146V16.9972H4.50553V18.0013H5.50303V18.9988H6.50053V18.0013H7.50459V16.9972H8.50209V15.9997H7.50459V15.0022Z" fill="#000001"/>
<path id="Vector_33" d="M7.50455 8H6.50049V10.0016H7.50455V8Z" fill="#000001"/>
<path id="Vector_34" d="M10.5036 2.00195H5.50293V2.99945H10.5036V2.00195Z" fill="#000001"/>
<path id="Vector_35" d="M6.50043 7.00269H5.50293V8.00019H6.50043V7.00269Z" fill="#000001"/>
<path id="Vector_36" d="M6.50086 10.999H4.50586V12.0031H6.50086V10.999Z" fill="#000001"/>
<path id="Vector_37" d="M5.50303 2.99951H3.50146V3.99701H5.50303V2.99951Z" fill="#000001"/>
<path id="Vector_38" d="M4.50553 20.0029H3.50146V21.0004H4.50553V20.0029Z" fill="#000001"/>
<path id="Vector_39" d="M4.50553 10.0017H3.50146V10.9992H4.50553V10.0017Z" fill="#000001"/>
<path id="Vector_40" d="M5.50303 5.99854H3.50146V7.0026H5.50303V5.99854Z" fill="#000001"/>
<path id="Vector_41" d="M3.50141 18.9988H2.50391V20.0028H3.50141V18.9988Z" fill="#000001"/>
<path id="Vector_42" d="M3.50141 3.99707H2.50391V5.99863H3.50141V3.99707Z" fill="#000001"/>
<path id="Vector_43" d="M2.50406 13.9982H4.50562V13.0007H2.50406V10.0017H3.50156V8.9976H2.50406V5.99854H1.5V18.9988H2.50406V13.9982Z" fill="#000001"/>
</g>
</g>
</svg>
