<svg width="24" height="24" viewBox="0 0 24 24" fill="none" xmlns="http://www.w3.org/2000/svg">
<g id="health-stool">
<g id="Group">
<path id="Vector" d="M21.998 15.9998H21.0005V20.0029H21.998V15.9998Z" fill="#000001"/>
<path id="Vector_2" d="M21.0004 20.0029H20.0029V21.0004H21.0004V20.0029Z" fill="#000001"/>
<path id="Vector_3" d="M21.0004 12.0032H20.0029V15.0022H21.0004V12.0032Z" fill="#000001"/>
<path id="Vector_4" d="M21.0004 3.99707H20.0029V5.00113H21.0004V3.99707Z" fill="#000001"/>
<path id="Vector_5" d="M20.0031 15.0022H18.999V15.9997H20.0031V15.0022Z" fill="#000001"/>
<path id="Vector_6" d="M20.0031 10.999H18.999V12.0031H20.0031V10.999Z" fill="#000001"/>
<path id="Vector_7" d="M20.0031 5.00098H18.999V5.99848H20.0031V5.00098Z" fill="#000001"/>
<path id="Vector_8" d="M20.0028 21.0005H4.00342V21.998H20.0028V21.0005Z" fill="#000001"/>
<path id="Vector_9" d="M18.999 13.0007H18.0015V13.9982H18.999V13.0007Z" fill="#000001"/>
<path id="Vector_10" d="M18.999 3.99707H18.0015V5.00113H18.999V3.99707Z" fill="#000001"/>
<path id="Vector_11" d="M18.0016 13.9983H16V15.0024H18.0016V13.9983Z" fill="#000001"/>
<path id="Vector_12" d="M18.0014 12.0032H17.0039V13.0007H18.0014V12.0032Z" fill="#000001"/>
<path id="Vector_13" d="M18.9991 10.0017H16V10.9992H18.9991V10.0017Z" fill="#000001"/>
<path id="Vector_14" d="M18.9991 15.9998H16V16.9973H18.9991V15.9998Z" fill="#000001"/>
<path id="Vector_15" d="M18.0016 8H16V8.9975H18.0016V8Z" fill="#000001"/>
<path id="Vector_16" d="M15.9999 15.0022H15.0024V15.9997H15.9999V15.0022Z" fill="#000001"/>
<path id="Vector_17" d="M15.9999 10.999H15.0024V13.9981H15.9999V10.999Z" fill="#000001"/>
<path id="Vector_18" d="M15.9999 5.99854H15.0024V8.0001H15.9999V5.99854Z" fill="#000001"/>
<path id="Vector_19" d="M15.0021 5.00098H13.998V5.99848H15.0021V5.00098Z" fill="#000001"/>
<path id="Vector_20" d="M13.998 3.99707H13.0005V5.00113H13.998V3.99707Z" fill="#000001"/>
<path id="Vector_21" d="M15.0025 18.0012H12.0034V18.9987H15.0025V18.0012Z" fill="#000001"/>
<path id="Vector_22" d="M13.0009 2.99951H12.0034V3.99701H13.0009V2.99951Z" fill="#000001"/>
<path id="Vector_23" d="M12.0031 16.9973H10.999V18.0014H12.0031V16.9973Z" fill="#000001"/>
<path id="Vector_24" d="M12.0031 12.0032H10.999V15.0022H12.0031V12.0032Z" fill="#000001"/>
<path id="Vector_25" d="M12.0031 2.00195H10.999V2.99945H12.0031V2.00195Z" fill="#000001"/>
<path id="Vector_26" d="M10.999 15.0022H10.0015V15.9997H10.999V15.0022Z" fill="#000001"/>
<path id="Vector_27" d="M10.999 10.999H10.0015V12.0031H10.999V10.999Z" fill="#000001"/>
<path id="Vector_28" d="M10.999 2.99951H10.0015V5.99857H10.999V2.99951Z" fill="#000001"/>
<path id="Vector_29" d="M10.0014 13.0007H9.00391V13.9982H10.0014V13.0007Z" fill="#000001"/>
<path id="Vector_30" d="M10.0015 10.0017H7.00244V10.9992H10.0015V10.0017Z" fill="#000001"/>
<path id="Vector_31" d="M10.0016 5.99854H9.00406V7.0026H8V8.0001H10.0016V5.99854Z" fill="#000001"/>
<path id="Vector_32" d="M9.00406 12.0032H8V13.0007H9.00406V12.0032Z" fill="#000001"/>
<path id="Vector_33" d="M9.00406 2.00195H8V2.99945H9.00406V2.00195Z" fill="#000001"/>
<path id="Vector_34" d="M9.004 13.9983H7.00244V15.0024H9.004V13.9983Z" fill="#000001"/>
<path id="Vector_35" d="M8.0001 8H5.99854V8.9975H8.0001V8Z" fill="#000001"/>
<path id="Vector_36" d="M7.99994 2.99951H7.00244V3.99701H7.99994V2.99951Z" fill="#000001"/>
<path id="Vector_37" d="M10.0017 15.9998H5.99854V16.9973H10.0017V15.9998Z" fill="#000001"/>
<path id="Vector_38" d="M7.0026 10.999H5.99854V13.9981H7.0026V10.999Z" fill="#000001"/>
<path id="Vector_39" d="M7.0026 2.00195H5.99854V2.99945H7.0026V2.00195Z" fill="#000001"/>
<path id="Vector_40" d="M5.99848 15.0022H5.00098V15.9997H5.99848V15.0022Z" fill="#000001"/>
<path id="Vector_41" d="M5.99848 8.99756H5.00098V10.0016H5.99848V8.99756Z" fill="#000001"/>
<path id="Vector_42" d="M5.99848 5.00098H5.00098V5.99848H5.99848V5.00098Z" fill="#000001"/>
<path id="Vector_43" d="M5.00092 10.0017H4.00342V13.0008H5.00092V10.0017Z" fill="#000001"/>
<path id="Vector_44" d="M5.00092 5.99854H4.00342V7.0026H5.00092V5.99854Z" fill="#000001"/>
<path id="Vector_45" d="M4.00357 20.0029H2.99951V21.0004H4.00357V20.0029Z" fill="#000001"/>
<path id="Vector_46" d="M4.00357 16.9973H2.99951V18.0014H4.00357V16.9973Z" fill="#000001"/>
<path id="Vector_47" d="M4.00357 13.0007H2.99951V13.9982H4.00357V13.0007Z" fill="#000001"/>
<path id="Vector_48" d="M4.00357 5.00098H2.99951V5.99848H4.00357V5.00098Z" fill="#000001"/>
<path id="Vector_49" d="M2.99945 18.0012H2.00195V20.0028H2.99945V18.0012Z" fill="#000001"/>
<path id="Vector_50" d="M2.99945 13.9983H2.00195V16.9974H2.99945V13.9983Z" fill="#000001"/>
</g>
</g>
</svg>
