<svg width="24" height="24" viewBox="0 0 24 24" fill="none" xmlns="http://www.w3.org/2000/svg">
<g id="health-medical-notes">
<g id="Group">
<path id="Vector" d="M19.4974 21.0039H20.5015V4.99793H19.4974V4.00043H15.5009V3.00293H13.4993V4.00043H14.4968V4.99793H9.50602V4.00043H10.5035V3.00293H8.50195V4.00043H4.50211V4.99793H3.49805V21.0039H4.50211V22.0014H19.4974V21.0039ZM18.4999 19.9998H5.50289V4.99793H8.50195V6.00199H15.5041V4.99793H18.5032L18.4999 19.9998Z" fill="#000001"/>
<path id="Vector_2" d="M16.4986 17.998H9.50293V19.0021H16.4986V17.998Z" fill="#000001"/>
<path id="Vector_3" d="M16.4986 14.999H9.50293V16.0031H16.4986V14.999Z" fill="#000001"/>
<path id="Vector_4" d="M16.4985 9.00098H12.502V9.99848H16.4985V9.00098Z" fill="#000001"/>
<path id="Vector_5" d="M13.4991 1.99878H10.5V3.00284H13.4991V1.99878Z" fill="#000001"/>
<path id="Vector_6" d="M16.4986 12H9.50293V13.0041H16.4986V12Z" fill="#000001"/>
<path id="Vector_7" d="M8.49848 17.998H7.50098V19.0021H8.49848V17.998Z" fill="#000001"/>
<path id="Vector_8" d="M8.49848 14.999H7.50098V16.0031H8.49848V14.999Z" fill="#000001"/>
<path id="Vector_9" d="M8.49848 12H7.50098V13.0041H8.49848V12Z" fill="#000001"/>
<path id="Vector_10" d="M7.50113 11.0026H9.5027V9.99857H10.5002V8.00357H9.5027V6.99951H7.50113V8.00357H6.49707V9.99857H7.50113V11.0026Z" fill="#000001"/>
</g>
</g>
</svg>
