<svg width="24" height="24" viewBox="0 0 24 24" fill="none" xmlns="http://www.w3.org/2000/svg">
<g id="health-brain-1">
<g id="Group">
<path id="Vector" d="M22.4999 6.49731H21.5024V12.502H22.4999V6.49731Z" fill="#000001"/>
<path id="Vector_2" d="M21.5024 5.49976H20.5049V6.49726H21.5024V5.49976Z" fill="#000001"/>
<path id="Vector_3" d="M20.505 15.501H19.501V16.4985H20.505V15.501Z" fill="#000001"/>
<path id="Vector_4" d="M19.501 13.4995H20.505V15.501H21.5025V12.502H19.501V13.4995Z" fill="#000001"/>
<path id="Vector_5" d="M20.505 4.49585H19.501V5.49991H20.505V4.49585Z" fill="#000001"/>
<path id="Vector_6" d="M19.5009 16.4985H18.5034V21.4992H19.5009V16.4985Z" fill="#000001"/>
<path id="Vector_7" d="M19.5009 13.4995H18.5034V14.497H19.5009V13.4995Z" fill="#000001"/>
<path id="Vector_8" d="M19.5009 11.4978H17.5059V12.5019H19.5009V11.4978Z" fill="#000001"/>
<path id="Vector_9" d="M19.501 6.49731H18.5035V7.50138H17.506V6.49731H16.5019V7.50138H15.5044V8.49888H16.5019V9.49638H17.506V10.5004H18.5035V9.49638H19.501V8.49888H20.505V7.50138H19.501V6.49731Z" fill="#000001"/>
<path id="Vector_10" d="M19.5009 3.49829H17.5059V4.49579H19.5009V3.49829Z" fill="#000001"/>
<path id="Vector_11" d="M17.506 18.5H16.502V21.4991H17.506V18.5Z" fill="#000001"/>
<path id="Vector_12" d="M17.506 16.4985H16.502V17.496H17.506V16.4985Z" fill="#000001"/>
<path id="Vector_13" d="M18.5035 14.4971H16.502V15.5011H18.5035V14.4971Z" fill="#000001"/>
<path id="Vector_14" d="M17.506 12.502H16.502V13.4995H17.506V12.502Z" fill="#000001"/>
<path id="Vector_15" d="M16.5019 11.4978H15.5044V12.5019H16.5019V11.4978Z" fill="#000001"/>
<path id="Vector_16" d="M16.5021 17.4961H14.5005V18.5002H16.5021V17.4961Z" fill="#000001"/>
<path id="Vector_17" d="M10.504 15.5011V14.4971H9.50648V15.5011H4.50586V16.4986H13.503V17.4961H14.5005V16.4986H16.5021V15.5011H10.504Z" fill="#000001"/>
<path id="Vector_18" d="M15.5046 13.4995H14.5005V14.497H15.5046V13.4995Z" fill="#000001"/>
<path id="Vector_19" d="M15.5046 4.49585H14.5005V6.49741H15.5046V4.49585Z" fill="#000001"/>
<path id="Vector_20" d="M13.5029 12.502H12.5054V13.4995H13.5029V12.502Z" fill="#000001"/>
<path id="Vector_21" d="M13.5029 4.49585H12.5054V5.49991H13.5029V4.49585Z" fill="#000001"/>
<path id="Vector_22" d="M12.5055 13.4995H10.5039V14.497H12.5055V13.4995Z" fill="#000001"/>
<path id="Vector_23" d="M12.5055 9.49634H11.5015V10.5004H12.5055V9.49634Z" fill="#000001"/>
<path id="Vector_24" d="M12.5055 5.49976H10.5039V6.49726H12.5055V5.49976Z" fill="#000001"/>
<path id="Vector_25" d="M15.5045 3.49823V4.49573H16.502V3.49823H17.5061V2.50073H10.5039V3.49823H15.5045Z" fill="#000001"/>
<path id="Vector_26" d="M11.5014 10.5005H10.5039V11.498H11.5014V10.5005Z" fill="#000001"/>
<path id="Vector_27" d="M11.5014 8.49878H10.5039V9.49628H11.5014V8.49878Z" fill="#000001"/>
<path id="Vector_28" d="M10.5038 6.49731H9.50635V8.49888H10.5038V6.49731Z" fill="#000001"/>
<path id="Vector_29" d="M10.5035 3.49829H8.50195V4.49579H10.5035V3.49829Z" fill="#000001"/>
<path id="Vector_30" d="M9.50602 5.49976H8.50195V6.49726H9.50602V5.49976Z" fill="#000001"/>
<path id="Vector_31" d="M8.50205 12.502H6.50049V13.4995H8.50205V12.502Z" fill="#000001"/>
<path id="Vector_32" d="M8.50238 8.49878H7.50488V9.49628H8.50238V8.49878Z" fill="#000001"/>
<path id="Vector_33" d="M8.50205 4.49585H6.50049V5.49991H8.50205V4.49585Z" fill="#000001"/>
<path id="Vector_34" d="M7.50455 9.49634H6.50049V10.5004H7.50455V9.49634Z" fill="#000001"/>
<path id="Vector_35" d="M6.50086 13.4995H4.50586V14.497H6.50086V13.4995Z" fill="#000001"/>
<path id="Vector_36" d="M6.50043 5.49976H5.50293V6.49726H6.50043V5.49976Z" fill="#000001"/>
<path id="Vector_37" d="M6.50086 10.5005H4.50586V11.498H6.50086V10.5005Z" fill="#000001"/>
<path id="Vector_38" d="M5.50336 6.49731H4.50586V7.50138H5.50336V6.49731Z" fill="#000001"/>
<path id="Vector_39" d="M4.50553 14.4971H3.50146V15.5011H4.50553V14.4971Z" fill="#000001"/>
<path id="Vector_40" d="M4.50553 7.50146H3.50146V8.49896H4.50553V7.50146Z" fill="#000001"/>
<path id="Vector_41" d="M3.50141 13.4995H2.50391V14.497H3.50141V13.4995Z" fill="#000001"/>
<path id="Vector_42" d="M2.50406 10.5003H4.50562V9.49628H3.50156V8.49878H2.50406V9.49628H1.5V13.4994H2.50406V10.5003Z" fill="#000001"/>
</g>
</g>
</svg>
