<svg width="24" height="24" viewBox="0 0 24 24" fill="none" xmlns="http://www.w3.org/2000/svg">
<g id="health-ambulance-call">
<g id="Group">
<path id="Vector" d="M16.0128 6.42847V8.42347H14.0112V11.4291H16.0128V13.4241H19.0119V11.4291H21.0134V8.42347H19.0119V6.42847H16.0128Z" fill="#000001"/>
<path id="Vector_2" d="M19.0121 20.4263H18.0146V21.4238H19.0121V20.4263Z" fill="#000001"/>
<path id="Vector_3" d="M18.0143 21.4238H16.0127V22.5001H18.0143V21.4238Z" fill="#000001"/>
<path id="Vector_4" d="M16.0128 19.4287H15.0153V20.4262H14.0112V21.4237H16.0128V19.4287Z" fill="#000001"/>
<path id="Vector_5" d="M15.0153 18.4248H14.0112V19.4289H15.0153V18.4248Z" fill="#000001"/>
<path id="Vector_6" d="M14.0112 19.4287H13.0137V20.4262H14.0112V19.4287Z" fill="#000001"/>
<path id="Vector_7" d="M14.0113 21.4238H11.0122V22.5001H14.0113V21.4238Z" fill="#000001"/>
<path id="Vector_8" d="M12.0163 15.4255H11.0122V19.4287H12.0163V15.4255Z" fill="#000001"/>
<path id="Vector_9" d="M12.0163 3.42285H11.0122V7.42598H12.0163V3.42285Z" fill="#000001"/>
<path id="Vector_10" d="M10.0148 20.4262H6.01172V21.4237H11.0123V19.4287H10.0148V20.4262Z" fill="#000001"/>
<path id="Vector_11" d="M11.0121 2.42529H10.0146V3.42279H11.0121V2.42529Z" fill="#000001"/>
<path id="Vector_12" d="M11.0123 14.4282H9.01074V15.4257H11.0123V14.4282Z" fill="#000001"/>
<path id="Vector_13" d="M11.0123 7.42603H9.01074V8.42353H11.0123V7.42603Z" fill="#000001"/>
<path id="Vector_14" d="M9.01068 3.42285H8.01318V6.42848H10.0147V4.42691H9.01068V3.42285Z" fill="#000001"/>
<path id="Vector_15" d="M8.01318 19.4287H9.01068V18.4247H10.0147V16.4231H8.01318V19.4287Z" fill="#000001"/>
<path id="Vector_16" d="M9.01068 8.42334H8.01318V14.428H9.01068V8.42334Z" fill="#000001"/>
<path id="Vector_17" d="M10.0148 1.5H6.01172V2.42531H10.0148V1.5Z" fill="#000001"/>
<path id="Vector_18" d="M6.01166 19.4287H5.01416V20.4262H6.01166V19.4287Z" fill="#000001"/>
<path id="Vector_19" d="M6.01166 2.42529H5.01416V3.42279H6.01166V2.42529Z" fill="#000001"/>
<path id="Vector_20" d="M5.01432 17.4272H4.01025V19.4288H5.01432V17.4272Z" fill="#000001"/>
<path id="Vector_21" d="M5.01432 3.42285H4.01025V5.42441H5.01432V3.42285Z" fill="#000001"/>
<path id="Vector_22" d="M4.01008 5.42432H2.98633V17.4271H4.01008V5.42432Z" fill="#000001"/>
</g>
</g>
</svg>
