<svg width="24" height="24" viewBox="0 0 24 24" fill="none" xmlns="http://www.w3.org/2000/svg">
<g id="health-dentistry-tooth">
<g id="Group">
<path id="Vector" d="M21.499 5.00098H20.5015V13.0007H21.499V5.00098Z" fill="#000001"/>
<path id="Vector_2" d="M20.5016 13.0007H19.4976V18.0014H20.5016V13.0007Z" fill="#000001"/>
<path id="Vector_3" d="M20.5016 4.00366H19.4976V5.00116H20.5016V4.00366Z" fill="#000001"/>
<path id="Vector_4" d="M19.4975 18.0015H18.5V20.003H19.4975V18.0015Z" fill="#000001"/>
<path id="Vector_5" d="M19.4975 8.00024H18.5V11.0059H19.4975V8.00024Z" fill="#000001"/>
<path id="Vector_6" d="M18.4999 7.00269H17.5024V8.00019H18.4999V7.00269Z" fill="#000001"/>
<path id="Vector_7" d="M18.5001 20.0029H16.4985V21.0004H18.5001V20.0029Z" fill="#000001"/>
<path id="Vector_8" d="M17.5025 6.00513H15.501V7.00263H17.5025V6.00513Z" fill="#000001"/>
<path id="Vector_9" d="M16.4985 17.0039H15.501V20.003H16.4985V17.0039Z" fill="#000001"/>
<path id="Vector_10" d="M15.5006 15.9998H14.4966V17.0038H15.5006V15.9998Z" fill="#000001"/>
<path id="Vector_11" d="M19.4971 2.99951H13.499V4.00357H19.4971V2.99951Z" fill="#000001"/>
<path id="Vector_12" d="M14.4965 15.0024H9.50244V15.9999H14.4965V15.0024Z" fill="#000001"/>
<path id="Vector_13" d="M14.4965 11.0059H13.499V12.0034H14.4965V11.0059Z" fill="#000001"/>
<path id="Vector_14" d="M14.4965 9.00415H13.499V10.0017H14.4965V9.00415Z" fill="#000001"/>
<path id="Vector_15" d="M13.4991 12.0032H10.5V13.0007H13.4991V12.0032Z" fill="#000001"/>
<path id="Vector_16" d="M13.4991 4.00366H10.5V5.00116H13.4991V4.00366Z" fill="#000001"/>
<path id="Vector_17" d="M10.4999 11.0059H9.50244V12.0034H10.4999V11.0059Z" fill="#000001"/>
<path id="Vector_18" d="M10.4999 9.00415H9.50244V10.0017H10.4999V9.00415Z" fill="#000001"/>
<path id="Vector_19" d="M9.5026 15.9998H8.49854V17.0038H9.5026V15.9998Z" fill="#000001"/>
<path id="Vector_20" d="M8.49848 17.0039H7.50098V20.003H8.49848V17.0039Z" fill="#000001"/>
<path id="Vector_21" d="M7.50107 20.0029H5.49951V21.0004H7.50107V20.0029Z" fill="#000001"/>
<path id="Vector_22" d="M10.5001 2.99951H4.50195V4.00357H10.5001V2.99951Z" fill="#000001"/>
<path id="Vector_23" d="M5.49945 18.0015H4.50195V20.003H5.49945V18.0015Z" fill="#000001"/>
<path id="Vector_24" d="M4.50211 13.0007H3.49805V18.0014H4.50211V13.0007Z" fill="#000001"/>
<path id="Vector_25" d="M4.50211 4.00366H3.49805V5.00116H4.50211V4.00366Z" fill="#000001"/>
<path id="Vector_26" d="M3.49799 5.00098H2.50049V13.0007H3.49799V5.00098Z" fill="#000001"/>
</g>
</g>
</svg>
