<svg width="24" height="24" viewBox="0 0 24 24" fill="none" xmlns="http://www.w3.org/2000/svg">
<g id="health-drug-medicine-bag-aid-1">
<g id="Group">
<path id="Vector" d="M22.0014 8H21.0039V20.0028H22.0014V8Z" fill="#000001"/>
<path id="Vector_2" d="M21.0036 20.0029H19.9995V21.0004H21.0036V20.0029Z" fill="#000001"/>
<path id="Vector_3" d="M21.0036 7.00269H19.9995V8.00019H21.0036V7.00269Z" fill="#000001"/>
<path id="Vector_4" d="M19.9996 21.0005H4.00024V21.998H19.9996V21.0005Z" fill="#000001"/>
<path id="Vector_5" d="M18.0045 12.0032H17.0005V15.9997H18.0045V12.0032Z" fill="#000001"/>
<path id="Vector_6" d="M17.0004 15.9998H16.0029V18.0013H17.0004V15.9998Z" fill="#000001"/>
<path id="Vector_7" d="M17.0004 10.0017H16.0029V12.0033H17.0004V10.0017Z" fill="#000001"/>
<path id="Vector_8" d="M16.003 18.0012H14.0015V18.9987H16.003V18.0012Z" fill="#000001"/>
<path id="Vector_9" d="M16.003 8.99756H14.0015V10.0016H16.003V8.99756Z" fill="#000001"/>
<path id="Vector_10" d="M11.0025 16.9971H13.0041V15.0021H14.9991V13.0006H13.0041V10.999H11.0025V13.0006H9.00098V15.0021H11.0025V16.9971Z" fill="#000001"/>
<path id="Vector_11" d="M14.0017 18.9988H10.0051V20.0028H14.0017V18.9988Z" fill="#000001"/>
<path id="Vector_12" d="M14.0017 8H10.0051V8.9975H14.0017V8Z" fill="#000001"/>
<path id="Vector_13" d="M10.005 18.0012H8.00342V18.9987H10.005V18.0012Z" fill="#000001"/>
<path id="Vector_14" d="M10.005 8.99756H8.00342V10.0016H10.005V8.99756Z" fill="#000001"/>
<path id="Vector_15" d="M8.00357 15.9998H6.99951V18.0013H8.00357V15.9998Z" fill="#000001"/>
<path id="Vector_16" d="M8.00357 10.0017H6.99951V12.0033H8.00357V10.0017Z" fill="#000001"/>
<path id="Vector_17" d="M8.00352 5.00102H16.0032V3.99695H18.0048V2.99945H14.9991V2.00195H9.00102V2.99945H6.00195V3.99695H8.00352V5.00102Z" fill="#000001"/>
<path id="Vector_18" d="M6.99945 12.0032H6.00195V15.9997H6.99945V12.0032Z" fill="#000001"/>
<path id="Vector_19" d="M19.9996 7.0027V5.99863H19.0021V3.99707H18.0046V5.99863H6.00181V3.99707H5.00431V5.99863H4.00024V7.0027H19.9996Z" fill="#000001"/>
<path id="Vector_20" d="M4.00043 20.0029H3.00293V21.0004H4.00043V20.0029Z" fill="#000001"/>
<path id="Vector_21" d="M4.00043 7.00269H3.00293V8.00019H4.00043V7.00269Z" fill="#000001"/>
<path id="Vector_22" d="M3.00284 8H1.99878V20.0028H3.00284V8Z" fill="#000001"/>
</g>
</g>
</svg>
