<svg width="24" height="24" viewBox="0 0 24 24" fill="none" xmlns="http://www.w3.org/2000/svg">
<g id="health-drug-medicine-water">
<g id="Group">
<path id="Vector" d="M19.5009 10.0017H18.5034V20.003H19.5009V10.0017Z" fill="#000001"/>
<path id="Vector_2" d="M18.5036 20.0029H17.4995V21.0004H18.5036V20.0029Z" fill="#000001"/>
<path id="Vector_3" d="M18.5036 8.99756H17.4995V10.0016H18.5036V8.99756Z" fill="#000001"/>
<path id="Vector_4" d="M18.5036 5.00098H17.4995V5.99848H18.5036V5.00098Z" fill="#000001"/>
<path id="Vector_5" d="M17.4995 8H16.502V8.9975H17.4995V8Z" fill="#000001"/>
<path id="Vector_6" d="M17.4992 21.0005H6.50049V21.998H17.4992V21.0005Z" fill="#000001"/>
<path id="Vector_7" d="M11.5012 18.9987H7.49805V20.0028H16.5018V18.9987H17.4993V10.999H15.4977V12.0031H14.5002V13.0006H12.4987V18.0012H11.5012V18.9987Z" fill="#000001"/>
<path id="Vector_8" d="M11.5014 12.0032H10.5039V16.9972H11.5014V12.0032Z" fill="#000001"/>
<path id="Vector_9" d="M15.4976 2.00195H8.50195V2.99945H15.4976V2.00195Z" fill="#000001"/>
<path id="Vector_10" d="M9.49955 15.0022H6.50049V15.9997H9.49955V15.0022Z" fill="#000001"/>
<path id="Vector_11" d="M9.49955 13.0007H6.50049V13.9982H9.49955V13.0007Z" fill="#000001"/>
<path id="Vector_12" d="M8.50205 7.0026H15.4977V8.0001H16.5017V7.0026H17.4992V5.99854H6.50049V7.0026H7.49799V8.0001H8.50205V7.0026Z" fill="#000001"/>
<path id="Vector_13" d="M17.4992 5.00107V3.99701H16.5017V2.99951H15.4977V3.99701H8.50205V2.99951H7.49799V3.99701H6.50049V5.00107H17.4992Z" fill="#000001"/>
<path id="Vector_14" d="M7.49799 8H6.50049V8.9975H7.49799V8Z" fill="#000001"/>
<path id="Vector_15" d="M6.50043 20.0029H5.50293V21.0004H6.50043V20.0029Z" fill="#000001"/>
<path id="Vector_16" d="M6.50043 8.99756H5.50293V10.0016H6.50043V8.99756Z" fill="#000001"/>
<path id="Vector_17" d="M6.50043 5.00098H5.50293V5.99848H6.50043V5.00098Z" fill="#000001"/>
<path id="Vector_18" d="M5.50309 18.0014H10.5037V16.9973H5.50309V12.0033H10.5037V10.9992H5.50309V10.0017H4.49902V20.003H5.50309V18.0014Z" fill="#000001"/>
</g>
</g>
</svg>
