<svg width="24" height="24" viewBox="0 0 24 24" fill="none" xmlns="http://www.w3.org/2000/svg">
<g id="health-transfusion-bag">
<g id="Group">
<path id="Vector" d="M20.5014 9.49976H19.5039V20.5051H20.5014V9.49976Z" fill="#000001"/>
<path id="Vector_2" d="M19.5041 20.5049H18.5V21.5024H19.5041V20.5049Z" fill="#000001"/>
<path id="Vector_3" d="M19.5041 8.5022H18.5V9.4997H19.5041V8.5022Z" fill="#000001"/>
<path id="Vector_4" d="M18.4999 7.50464H17.5024V8.50214H18.4999V7.50464Z" fill="#000001"/>
<path id="Vector_5" d="M18.4998 21.5024H5.49951V22.4999H18.4998V21.5024Z" fill="#000001"/>
<path id="Vector_6" d="M6.50371 19.5009H7.50121V20.505H16.4984V19.5009H17.5025V18.5034H18.5V11.5012H5.50293V18.5034H6.50699L6.50371 19.5009ZM7.50121 13.5028H16.4984V18.5034H7.50121V13.5028Z" fill="#000001"/>
<path id="Vector_7" d="M17.5025 7.50459V6.50053H16.4984V4.49896H17.5025V3.50146H14.5034V4.49896H15.5009V6.50053H14.5034V7.50459H17.5025Z" fill="#000001"/>
<path id="Vector_8" d="M15.5007 16.502H8.49854V17.4995H15.5007V16.502Z" fill="#000001"/>
<path id="Vector_9" d="M15.5007 14.5002H8.49854V15.5043H15.5007V14.5002Z" fill="#000001"/>
<path id="Vector_10" d="M14.5036 5.50317H13.4995V6.50067H14.5036V5.50317Z" fill="#000001"/>
<path id="Vector_11" d="M13.4991 5.50312V4.49906H12.5016V1.5H11.5041V4.49906H10.5V5.50312H13.4991Z" fill="#000001"/>
<path id="Vector_12" d="M10.5004 5.50317H9.50293V6.50067H10.5004V5.50317Z" fill="#000001"/>
<path id="Vector_13" d="M9.50297 7.50459V6.50053H8.49891V4.49896H9.50297V3.50146H6.50391V4.49896H7.50141V6.50053H6.50391V7.50459H9.50297Z" fill="#000001"/>
<path id="Vector_14" d="M6.50357 7.50464H5.49951V8.50214H6.50357V7.50464Z" fill="#000001"/>
<path id="Vector_15" d="M5.49945 20.5049H4.50195V21.5024H5.49945V20.5049Z" fill="#000001"/>
<path id="Vector_16" d="M5.49945 8.5022H4.50195V9.4997H5.49945V8.5022Z" fill="#000001"/>
<path id="Vector_17" d="M4.50211 9.49976H3.49805V20.5051H4.50211V9.49976Z" fill="#000001"/>
</g>
</g>
</svg>
