<svg width="24" height="24" viewBox="0 0 24 24" fill="none" xmlns="http://www.w3.org/2000/svg">
<g id="health-drugs-cannabis">
<g id="Group">
<path id="Vector" d="M22.4999 13.5029H21.5024V14.5004H22.4999V13.5029Z" fill="#000001"/>
<path id="Vector_2" d="M21.5024 14.5002H20.5049V15.5043H21.5024V14.5002Z" fill="#000001"/>
<path id="Vector_3" d="M19.5009 8.50224H20.505V5.50317H18.5034V6.50067H19.5009V8.50224Z" fill="#000001"/>
<path id="Vector_4" d="M20.505 15.5044H18.5034V16.5019H20.505V15.5044Z" fill="#000001"/>
<path id="Vector_5" d="M19.5009 8.5022H18.5034V11.5013H19.5009V8.5022Z" fill="#000001"/>
<path id="Vector_6" d="M18.5034 19.501H17.5059V20.505H18.5034V19.501Z" fill="#000001"/>
<path id="Vector_7" d="M17.5059 13.5028H21.5024V12.5053H18.5034V11.5012H17.5059V13.5028Z" fill="#000001"/>
<path id="Vector_8" d="M18.5034 6.50073H17.5059V7.50479H18.5034V6.50073Z" fill="#000001"/>
<path id="Vector_9" d="M17.506 18.5034H16.502V19.5009H17.506V18.5034Z" fill="#000001"/>
<path id="Vector_10" d="M14.5005 16.502V17.4995H15.5046V18.5035H16.5021V17.4995H18.5036V16.502H14.5005Z" fill="#000001"/>
<path id="Vector_11" d="M17.506 7.50464H16.502V8.50214H17.506V7.50464Z" fill="#000001"/>
<path id="Vector_12" d="M17.5061 20.5049H14.5005V21.5024H17.5061V20.5049Z" fill="#000001"/>
<path id="Vector_13" d="M17.506 13.5029H15.5044V14.5004H17.506V13.5029Z" fill="#000001"/>
<path id="Vector_14" d="M14.5005 10.5037H15.5046V9.49964H16.5021V8.50214H15.5046V7.50464H14.5005V10.5037Z" fill="#000001"/>
<path id="Vector_15" d="M14.5004 19.501H13.5029V20.505H14.5004V19.501Z" fill="#000001"/>
<path id="Vector_16" d="M14.5004 10.5037H13.5029V11.5012H14.5004V10.5037Z" fill="#000001"/>
<path id="Vector_17" d="M14.5004 4.49902H13.5029V7.50465H14.5004V4.49902Z" fill="#000001"/>
<path id="Vector_18" d="M12.5055 18.5033V17.4993H11.5014V18.5033H10.5039V19.5008H11.5014V22.4999H12.5055V19.5008H13.503V18.5033H12.5055Z" fill="#000001"/>
<path id="Vector_19" d="M13.5029 15.5044H12.5054V16.5019H13.5029V15.5044Z" fill="#000001"/>
<path id="Vector_20" d="M13.5029 13.5029H12.5054V14.5004H13.5029V13.5029Z" fill="#000001"/>
<path id="Vector_21" d="M13.5029 2.50415H12.5054V4.49915H13.5029V2.50415Z" fill="#000001"/>
<path id="Vector_22" d="M12.5055 14.5002H11.5015V15.5043H12.5055V14.5002Z" fill="#000001"/>
<path id="Vector_23" d="M12.5055 1.5H11.5015V2.50406H12.5055V1.5Z" fill="#000001"/>
<path id="Vector_24" d="M11.5014 15.5044H10.5039V16.5019H11.5014V15.5044Z" fill="#000001"/>
<path id="Vector_25" d="M11.5014 13.5029H10.5039V14.5004H11.5014V13.5029Z" fill="#000001"/>
<path id="Vector_26" d="M11.5014 2.50415H10.5039V4.49915H11.5014V2.50415Z" fill="#000001"/>
<path id="Vector_27" d="M10.5038 19.501H9.50635V20.505H10.5038V19.501Z" fill="#000001"/>
<path id="Vector_28" d="M10.5038 10.5037H9.50635V11.5012H10.5038V10.5037Z" fill="#000001"/>
<path id="Vector_29" d="M10.5038 4.49902H9.50635V7.50465H10.5038V4.49902Z" fill="#000001"/>
<path id="Vector_30" d="M9.50602 14.5002H8.50195V15.5043H9.50602V14.5002Z" fill="#000001"/>
<path id="Vector_31" d="M9.50611 20.5049H6.50049V21.5024H9.50611V20.5049Z" fill="#000001"/>
<path id="Vector_32" d="M8.50199 17.4995H9.50605V16.502H5.50293V17.4995H7.50449V18.5035H8.50199V17.4995Z" fill="#000001"/>
<path id="Vector_33" d="M8.50238 9.49964V10.5037H9.50645V7.50464H8.50238V8.50214H7.50488V9.49964H8.50238Z" fill="#000001"/>
<path id="Vector_34" d="M7.50455 18.5034H6.50049V19.5009H7.50455V18.5034Z" fill="#000001"/>
<path id="Vector_35" d="M8.50205 13.5029H6.50049V14.5004H8.50205V13.5029Z" fill="#000001"/>
<path id="Vector_36" d="M7.50455 7.50464H6.50049V8.50214H7.50455V7.50464Z" fill="#000001"/>
<path id="Vector_37" d="M6.50043 19.501H5.50293V20.505H6.50043V19.501Z" fill="#000001"/>
<path id="Vector_38" d="M6.50043 6.50073H5.50293V7.50479H6.50043V6.50073Z" fill="#000001"/>
<path id="Vector_39" d="M5.50303 15.5044H3.50146V16.5019H5.50303V15.5044Z" fill="#000001"/>
<path id="Vector_40" d="M5.50336 8.5022H4.50586V11.5013H5.50336V8.5022Z" fill="#000001"/>
<path id="Vector_41" d="M6.50047 13.5028V11.5012H5.50297V12.5053H2.50391V13.5028H6.50047Z" fill="#000001"/>
<path id="Vector_42" d="M5.50303 6.50067V5.50317H3.50146V8.50224H4.50553V6.50067H5.50303Z" fill="#000001"/>
<path id="Vector_43" d="M3.50141 14.5002H2.50391V15.5043H3.50141V14.5002Z" fill="#000001"/>
<path id="Vector_44" d="M2.50406 13.5029H1.5V14.5004H2.50406V13.5029Z" fill="#000001"/>
</g>
</g>
</svg>
