<svg width="24" height="24" viewBox="0 0 24 24" fill="none" xmlns="http://www.w3.org/2000/svg">
<g id="health-monitor-heart-beat">
<g id="Group">
<path id="Vector" d="M22.0011 11.5012H16.0029V12.4987H22.0011V11.5012Z" fill="#000001"/>
<path id="Vector_2" d="M21.0036 6.50049H19.9995V10.5036H21.0036V6.50049Z" fill="#000001"/>
<path id="Vector_3" d="M19.9995 5.50293H19.002V6.50043H19.9995V5.50293Z" fill="#000001"/>
<path id="Vector_4" d="M19.0019 13.5027H18.0044V14.5002H19.0019V13.5027Z" fill="#000001"/>
<path id="Vector_5" d="M18.0045 14.5002H17.0005V15.4977H18.0045V14.5002Z" fill="#000001"/>
<path id="Vector_6" d="M19.0021 4.49902H17.0005V5.50309H19.0021V4.49902Z" fill="#000001"/>
<path id="Vector_7" d="M17.0004 15.4978H16.0029V16.5019H17.0004V15.4978Z" fill="#000001"/>
<path id="Vector_8" d="M16.0031 16.5017H14.999V17.4992H16.0031V16.5017Z" fill="#000001"/>
<path id="Vector_9" d="M16.0031 10.5037H14.999V11.5012H16.0031V10.5037Z" fill="#000001"/>
<path id="Vector_10" d="M14.999 17.4993H14.0015V18.5033H14.999V17.4993Z" fill="#000001"/>
<path id="Vector_11" d="M14.999 9.49951H14.0015V10.5036H14.999V9.49951Z" fill="#000001"/>
<path id="Vector_12" d="M17.0005 3.50146H13.0039V4.49896H17.0005V3.50146Z" fill="#000001"/>
<path id="Vector_13" d="M14.0014 18.5034H13.0039V19.5009H14.0014V18.5034Z" fill="#000001"/>
<path id="Vector_14" d="M14.0014 10.5037H13.0039V14.5002H14.0014V10.5037Z" fill="#000001"/>
<path id="Vector_15" d="M13.0041 14.5002H12V15.4977H13.0041V14.5002Z" fill="#000001"/>
<path id="Vector_16" d="M13.0041 4.49902H12V5.50309H13.0041V4.49902Z" fill="#000001"/>
<path id="Vector_17" d="M13.0039 19.5007H10.0049V20.4982H13.0039V19.5007Z" fill="#000001"/>
<path id="Vector_18" d="M11.9999 12.4985H11.0024V14.5001H11.9999V12.4985Z" fill="#000001"/>
<path id="Vector_19" d="M11.9999 5.50293H11.0024V6.50043H11.9999V5.50293Z" fill="#000001"/>
<path id="Vector_20" d="M11.0024 9.49951H10.0049V12.4986H11.0024V9.49951Z" fill="#000001"/>
<path id="Vector_21" d="M11.0024 4.49902H10.0049V5.50309H11.0024V4.49902Z" fill="#000001"/>
<path id="Vector_22" d="M10.0046 18.5034H9.00049V19.5009H10.0046V18.5034Z" fill="#000001"/>
<path id="Vector_23" d="M10.0046 8.5022H9.00049V9.4997H10.0046V8.5022Z" fill="#000001"/>
<path id="Vector_24" d="M9.00092 17.4993H8.00342V18.5033H9.00092V17.4993Z" fill="#000001"/>
<path id="Vector_25" d="M9.00092 9.49951H8.00342V11.5011H9.00092V9.49951Z" fill="#000001"/>
<path id="Vector_26" d="M8.00309 16.5017H6.99902V17.4992H8.00309V16.5017Z" fill="#000001"/>
<path id="Vector_27" d="M10.0046 3.50146H6.00146V4.49896H10.0046V3.50146Z" fill="#000001"/>
<path id="Vector_28" d="M6.99896 15.4978H6.00146V16.5019H6.99896V15.4978Z" fill="#000001"/>
<path id="Vector_29" d="M8.00346 11.5012H5.00439V12.4987H8.00346V11.5012Z" fill="#000001"/>
<path id="Vector_30" d="M6.00189 14.5002H5.00439V15.4977H6.00189V14.5002Z" fill="#000001"/>
<path id="Vector_31" d="M6.00156 4.49902H4V5.50309H6.00156V4.49902Z" fill="#000001"/>
<path id="Vector_32" d="M5.00406 13.5027H4V14.5002H5.00406V13.5027Z" fill="#000001"/>
<path id="Vector_33" d="M3.99994 12.4985H3.00244V13.5026H3.99994V12.4985Z" fill="#000001"/>
<path id="Vector_34" d="M3.99994 5.50293H3.00244V6.50043H3.99994V5.50293Z" fill="#000001"/>
<path id="Vector_35" d="M3.0026 6.50049H1.99854V12.4986H3.0026V6.50049Z" fill="#000001"/>
</g>
</g>
</svg>
