<svg width="24" height="24" viewBox="0 0 24 24" fill="none" xmlns="http://www.w3.org/2000/svg">
<g id="health-health-dead">
<g id="Group">
<path id="Vector" d="M22.4999 12.502H21.5024V14.497H22.4999V12.502Z" fill="#000001"/>
<path id="Vector_2" d="M22.4999 9.49634H21.5024V11.4979H22.4999V9.49634Z" fill="#000001"/>
<path id="Vector_3" d="M22.4999 6.49731H21.5024V8.49888H22.4999V6.49731Z" fill="#000001"/>
<path id="Vector_4" d="M21.5024 14.4971H20.5049V15.5011H21.5024V14.4971Z" fill="#000001"/>
<path id="Vector_5" d="M21.5024 11.4978H20.5049V12.5019H21.5024V11.4978Z" fill="#000001"/>
<path id="Vector_6" d="M21.5024 8.49878H20.5049V9.49628H21.5024V8.49878Z" fill="#000001"/>
<path id="Vector_7" d="M21.5025 5.49976H19.501V6.49726H21.5025V5.49976Z" fill="#000001"/>
<path id="Vector_8" d="M20.505 9.49634H19.501V10.5004H20.505V9.49634Z" fill="#000001"/>
<path id="Vector_9" d="M18.5033 14.4971H19.5008V10.5005H18.5033V9.49646H17.5058V7.50146H16.5018V8.49896H13.5027V9.49646H12.5052V10.5005H11.5012V9.49646H10.5037V8.49896H7.50459V7.50146H6.50053V9.49646H5.50303V10.5005H4.50553V14.4971H5.50303V15.5012H3.50146V16.4987H6.50053V17.4962H7.50459V18.5002H8.50209V19.4977H9.50615V20.5018H10.5037V21.4993H13.5027V20.5018H14.5002V19.4977H15.5043V18.5002H16.5018V17.4962H17.5058V16.4987H20.5049V15.5012H18.5033V14.4971ZM15.5043 16.4987H13.5027V18.5002H10.5037V16.4987H8.50209V13.4996H10.5037V11.498H13.5027V13.4996H15.5043V16.4987Z" fill="#000001"/>
<path id="Vector_10" d="M19.5009 6.49731H17.5059V7.50138H19.5009V6.49731Z" fill="#000001"/>
<path id="Vector_11" d="M17.506 3.49829H16.502V5.49985H17.506V3.49829Z" fill="#000001"/>
<path id="Vector_12" d="M16.5021 5.49976H7.50488V6.49726H16.5021V5.49976Z" fill="#000001"/>
<path id="Vector_13" d="M16.5021 2.50073H7.50488V3.49823H16.5021V2.50073Z" fill="#000001"/>
<path id="Vector_14" d="M7.50455 3.49829H6.50049V5.49985H7.50455V3.49829Z" fill="#000001"/>
<path id="Vector_15" d="M6.50086 6.49731H4.50586V7.50138H6.50086V6.49731Z" fill="#000001"/>
<path id="Vector_16" d="M4.50553 9.49634H3.50146V10.5004H4.50553V9.49634Z" fill="#000001"/>
<path id="Vector_17" d="M4.50547 5.49976H2.50391V6.49726H4.50547V5.49976Z" fill="#000001"/>
<path id="Vector_18" d="M3.50141 14.4971H2.50391V15.5011H3.50141V14.4971Z" fill="#000001"/>
<path id="Vector_19" d="M3.50141 11.4978H2.50391V12.5019H3.50141V11.4978Z" fill="#000001"/>
<path id="Vector_20" d="M3.50141 8.49878H2.50391V9.49628H3.50141V8.49878Z" fill="#000001"/>
<path id="Vector_21" d="M2.50406 12.502H1.5V14.497H2.50406V12.502Z" fill="#000001"/>
<path id="Vector_22" d="M2.50406 9.49634H1.5V11.4979H2.50406V9.49634Z" fill="#000001"/>
<path id="Vector_23" d="M2.50406 6.49731H1.5V8.49888H2.50406V6.49731Z" fill="#000001"/>
</g>
</g>
</svg>
