<svg width="24" height="24" viewBox="0 0 24 24" fill="none" xmlns="http://www.w3.org/2000/svg">
<g id="health-blood-drop-type">
<g id="Group">
<path id="Vector" d="M22.0009 7.99854H21.0034V12.9992H22.0009V7.99854Z" fill="#000001"/>
<path id="Vector_2" d="M21.0036 12.9993H19.9995V15.0008H21.0036V12.9993Z" fill="#000001"/>
<path id="Vector_3" d="M21.0036 5.99707H19.9995V7.99863H21.0036V5.99707Z" fill="#000001"/>
<path id="Vector_4" d="M19.9995 4.99951H19.002V5.99701H19.9995V4.99951Z" fill="#000001"/>
<path id="Vector_5" d="M19.9994 15.0007H18.0044V15.9982H19.9994V15.0007Z" fill="#000001"/>
<path id="Vector_6" d="M19.0019 3.99561H18.0044V4.99967H19.0019V3.99561Z" fill="#000001"/>
<path id="Vector_7" d="M18.0045 2.99805H17.0005V3.99555H18.0045V2.99805Z" fill="#000001"/>
<path id="Vector_8" d="M18.0046 15.9983H14.999V16.9958H18.0046V15.9983Z" fill="#000001"/>
<path id="Vector_9" d="M14.999 8.99604V7.99854H14.0015V12.0017H14.999V10.0001H17.0005V12.0017H18.0046V7.99854H17.0005V8.99604H14.999Z" fill="#000001"/>
<path id="Vector_10" d="M17.0006 7.00122H14.999V7.99872H17.0006V7.00122Z" fill="#000001"/>
<path id="Vector_11" d="M17.0006 2.00049H14.999V2.99799H17.0006V2.00049Z" fill="#000001"/>
<path id="Vector_12" d="M14.999 2.99805H14.0015V3.99555H14.999V2.99805Z" fill="#000001"/>
<path id="Vector_13" d="M14.0014 3.99561H13.0039V4.99967H14.0014V3.99561Z" fill="#000001"/>
<path id="Vector_14" d="M6.99916 7.00122V7.99544H6.00166V8.99294H5.00416V9.997H4.0001V10.9945H3.0026V12.9961H1.99854V17.9967H3.0026V20.0048H4.0001V21.0023H6.00166V21.9998H10.0048V21.0023H11.9998V20.0048H13.0038V18.0033H14.0013V13.0026H13.0038V11.0011H11.9998V10.0036H11.0023V8.9995H10.0048V7.99544H9.00072V7.00122H6.99916ZM8.00322 10.9978H6.99916V12.0018H6.00166V13.9968H5.00416V12.0018H6.00166V10.9978H6.99916V10.0003H8.00322V10.9978Z" fill="#000001"/>
<path id="Vector_15" d="M13.0041 4.99951H12V5.99701H13.0041V4.99951Z" fill="#000001"/>
<path id="Vector_16" d="M11.9999 5.99707H11.0024V7.99863H11.9999V5.99707Z" fill="#000001"/>
</g>
</g>
</svg>
