<svg width="24" height="24" viewBox="0 0 24 24" fill="none" xmlns="http://www.w3.org/2000/svg">
<g id="health-anti-virus">
<g id="Group">
<path id="Vector" d="M21.5025 7.50469H20.505V5.50312H19.5009V4.49906H18.5034V3.50156H16.5019V2.50406H14.5003V1.5H9.50625V2.50406H7.50469V3.50156H5.50312V4.49906H4.50562V5.50312H3.50156V7.50469H2.50406V9.49969H1.5V14.5003H2.50406V16.5019H3.50156V18.5034H4.50562V19.5009H5.50312V20.505H7.50469V21.5025H9.50625V22.5H14.5003V21.5025H16.5019V20.505H18.5034V19.5009H19.5009V18.5034H20.505V16.5019H21.5025V14.5003H22.5V9.49969H21.5025V7.50469ZM16.5019 19.5009H14.5003V20.505H9.50625V19.5009H7.50469V18.5034H6.50062V17.4994H5.50312V16.5019H4.50562V14.5003H3.50156V9.49969H4.50562V7.50469H6.50062V8.50219H7.50469V9.49969H8.50219V10.5038H9.50625V11.5012H10.5038V12.5053H11.5012V13.5028H12.5053V14.5003H13.5028V15.5044H14.5003V16.5019H15.5044V17.4994H16.5019V19.5009ZM20.505 14.5003H19.5009V16.5019H17.5059V15.5044H16.5019V14.5003H15.5044V13.5028H14.5003V12.5053H13.5028V11.5012H12.5053V10.5038H11.5012V9.49969H10.5038V8.50219H9.50625V7.50469H8.50219V6.50062H7.50469V4.49906H9.50625V3.50156H14.5003V4.49906H16.5019V5.50312H17.5059V6.50062H18.5034V7.50469H19.5009V9.49969H20.505V14.5003Z" fill="#000001"/>
<path id="Vector_2" d="M17.506 7.50479H16.5019V6.50073H15.5044V8.5023H17.506V7.50479Z" fill="#000001"/>
<path id="Vector_3" d="M16.5019 12.5052H17.506V13.5027H18.5035V10.5037H17.506V11.5012H16.5019V10.5037H15.5044V13.5027H16.5019V12.5052Z" fill="#000001"/>
<path id="Vector_4" d="M14.5004 9.4997V10.5038H15.5045V8.5022H13.5029V9.4997H14.5004Z" fill="#000001"/>
<path id="Vector_5" d="M10.5039 15.5044V16.5019H11.5014V17.4994H10.5039V18.5035H13.503V17.4994H12.5055V16.5019H13.503V15.5044H10.5039Z" fill="#000001"/>
<path id="Vector_6" d="M13.503 8.50224V7.50474H12.5055V6.50067H13.503V5.50317H10.5039V6.50067H11.5014V7.50474H10.5039V8.50224H13.503Z" fill="#000001"/>
<path id="Vector_7" d="M9.50602 14.5004V13.5029H8.50195V15.5045H10.5035V14.5004H9.50602Z" fill="#000001"/>
<path id="Vector_8" d="M7.50449 11.5012H6.50043V10.5037H5.50293V13.5027H6.50043V12.5052H7.50449V13.5027H8.50199V10.5037H7.50449V11.5012Z" fill="#000001"/>
<path id="Vector_9" d="M6.50049 16.5019H7.50455V17.4994H8.50205V15.5044H6.50049V16.5019Z" fill="#000001"/>
</g>
</g>
</svg>
