<svg width="24" height="24" viewBox="0 0 24 24" fill="none" xmlns="http://www.w3.org/2000/svg">
<g id="health-ambulance-car">
<g id="Group">
<path id="Vector" d="M2.4975 15.4978H1.5V19.5009H2.4975V15.4978Z" fill="#000001"/>
<path id="Vector_2" d="M3.50162 14.5002H2.49756V15.4977H3.50162V14.5002Z" fill="#000001"/>
<path id="Vector_3" d="M5.49662 18.4968H4.49912V19.5009H2.49756V20.4984H4.49912V21.5025H5.49662V18.4968Z" fill="#000001"/>
<path id="Vector_4" d="M5.49646 13.4963H3.50146V14.5004H5.49646V13.4963Z" fill="#000001"/>
<path id="Vector_5" d="M8.49564 21.5024H5.49658V22.4999H8.49564V21.5024Z" fill="#000001"/>
<path id="Vector_6" d="M7.49799 19.501H6.50049V20.4985H7.49799V19.501Z" fill="#000001"/>
<path id="Vector_7" d="M8.49564 17.4993H5.49658V18.4968H8.49564V17.4993Z" fill="#000001"/>
<path id="Vector_8" d="M10.4972 13.4962V12.4987H11.5013V7.49809H21.496V6.50059H16.5019V4.49902H13.4963V6.50059H8.49564V7.49809H10.4972V8.50215H9.49971V9.49965H8.49564V10.4971H7.49814V8.50215H6.50064V10.4971H5.49658V13.4962H10.4972Z" fill="#000001"/>
<path id="Vector_9" d="M8.49555 7.49805H7.49805V8.50211H8.49555V7.49805Z" fill="#000001"/>
<path id="Vector_10" d="M12.4986 4.49902H10.4971V5.49652H12.4986V4.49902Z" fill="#000001"/>
<path id="Vector_11" d="M12.499 1.5H11.5015V2.4975H12.499V1.5Z" fill="#000001"/>
<path id="Vector_12" d="M13.496 2.49756H12.4985V3.50162H13.496V2.49756Z" fill="#000001"/>
<path id="Vector_13" d="M15.498 1.5H14.5005V3.50156H15.498V1.5Z" fill="#000001"/>
<path id="Vector_14" d="M16.5019 18.4968H15.4978V19.5009H9.49967V18.4968H8.49561V21.5025H9.49967V20.4984H15.4978V21.5025H16.5019V18.4968Z" fill="#000001"/>
<path id="Vector_15" d="M17.4995 2.49756H16.502V3.50162H17.4995V2.49756Z" fill="#000001"/>
<path id="Vector_16" d="M19.501 21.5024H16.502V22.4999H19.501V21.5024Z" fill="#000001"/>
<path id="Vector_17" d="M18.497 19.501H17.4995V20.4985H18.497V19.501Z" fill="#000001"/>
<path id="Vector_18" d="M19.501 17.4993H16.502V18.4968H19.501V17.4993Z" fill="#000001"/>
<path id="Vector_19" d="M19.5011 4.49902H17.4995V5.49652H19.5011V4.49902Z" fill="#000001"/>
<path id="Vector_20" d="M18.497 1.5H17.4995V2.4975H18.497V1.5Z" fill="#000001"/>
<path id="Vector_21" d="M20.4984 15.4978H4.49902V16.5019H20.4984V15.4978Z" fill="#000001"/>
<path id="Vector_22" d="M18.4971 8.5022H16.5021V10.4972H14.5005V12.4988H16.5021V14.5003H18.4971V12.4988H20.4986V10.4972H18.4971V8.5022Z" fill="#000001"/>
<path id="Vector_23" d="M20.4985 18.4968H19.501V21.5025H20.4985V20.4984H21.496V19.5009H20.4985V18.4968Z" fill="#000001"/>
<path id="Vector_24" d="M22.5002 7.49805H21.4961V19.5009H22.5002V7.49805Z" fill="#000001"/>
</g>
</g>
</svg>
