<svg width="24" height="24" viewBox="0 0 24 24" fill="none" xmlns="http://www.w3.org/2000/svg">
<g id="health-laboratory">
<g id="Group">
<path id="Vector" d="M17.5026 13.5027V14.5002H16.5051V17.4993H17.5026V18.5033H18.5001V19.5008H19.5042V18.5033H20.5017V17.4993H21.4992V14.5002H20.5017V13.5027H19.5042V10.5037H18.5001V13.5027H17.5026ZM19.5042 14.5002V15.5043H20.5017V16.5018H19.5042V17.4993H18.5001V16.5018H17.5026V15.5043H18.5001V14.5002H19.5042Z" fill="#000001"/>
<path id="Vector_2" d="M18.5002 19.501H17.5027V21.5025H18.5002V19.501Z" fill="#000001"/>
<path id="Vector_3" d="M18.5002 8.5022H17.5027V10.5038H18.5002V8.5022Z" fill="#000001"/>
<path id="Vector_4" d="M17.5026 7.50464H16.5051V8.50214H17.5026V7.50464Z" fill="#000001"/>
<path id="Vector_5" d="M17.5027 21.5024H3.50488V22.4999H17.5027V21.5024Z" fill="#000001"/>
<path id="Vector_6" d="M15.5012 10.5037H14.5037V18.5033H15.5012V10.5037Z" fill="#000001"/>
<path id="Vector_7" d="M16.5052 6.50073H14.5037V7.50479H16.5052V6.50073Z" fill="#000001"/>
<path id="Vector_8" d="M14.5036 9.49976H13.4995V10.5038H14.5036V9.49976Z" fill="#000001"/>
<path id="Vector_9" d="M8.50537 8.5022V9.4997H11.5044V11.5013H12.5019V9.4997H13.4994V8.5022H8.50537Z" fill="#000001"/>
<path id="Vector_10" d="M11.5046 11.5012H10.5005V12.5053H11.5046V11.5012Z" fill="#000001"/>
<path id="Vector_11" d="M8.50537 5.50309V6.50059H14.5035V5.50309H12.5019V4.49902H11.5044V5.50309H8.50537Z" fill="#000001"/>
<path id="Vector_12" d="M10.5005 12.5054H6.50391V14.5004H10.5005V12.5054Z" fill="#000001"/>
<path id="Vector_13" d="M8.50553 6.50073H7.50146V8.5023H8.50553V6.50073Z" fill="#000001"/>
<path id="Vector_14" d="M11.5044 4.49906V3.50156H10.5004V1.5H6.50382V3.50156H5.49976V4.49906H11.5044Z" fill="#000001"/>
<path id="Vector_15" d="M6.50382 11.5012H5.49976V12.5053H6.50382V11.5012Z" fill="#000001"/>
<path id="Vector_16" d="M14.5036 19.501V18.5035H10.5005V17.4995H12.5021V16.502H4.50238V17.4995H6.50395V18.5035H3.50488V19.501H14.5036ZM7.50145 17.4995H9.50629V18.5035H7.50145V17.4995Z" fill="#000001"/>
<path id="Vector_17" d="M5.4997 4.49902H4.5022V11.5012H5.4997V4.49902Z" fill="#000001"/>
<path id="Vector_18" d="M3.50479 19.501H2.50073V21.5025H3.50479V19.501Z" fill="#000001"/>
</g>
</g>
</svg>
