<svg width="24" height="24" viewBox="0 0 24 24" fill="none" xmlns="http://www.w3.org/2000/svg">
<g id="health-virus">
<g id="Group">
<path id="Vector" d="M21.5024 2.50406H20.5049V1.5H19.5009V2.50406H18.5034V3.50156H17.5059V4.49906H18.5034V5.50312H19.5009V6.50062H20.5049V5.50312H21.5024V4.49906H22.4999V3.50156H21.5024V2.50406ZM20.5049 4.49906H19.5009V3.50156H20.5049V4.49906Z" fill="#000001"/>
<path id="Vector_2" d="M21.5024 17.4995H20.5049V16.502H19.5009V17.4995H18.5034V18.5035H17.5059V19.501H18.5034V20.5051H19.5009V21.5026H20.5049V20.5051H21.5024V19.501H22.4999V18.5035H21.5024V17.4995ZM20.5049 19.501H19.5009V18.5035H20.5049V19.501Z" fill="#000001"/>
<path id="Vector_3" d="M21.5024 13.5029H20.5049V14.5004H21.5024V13.5029Z" fill="#000001"/>
<path id="Vector_4" d="M21.5024 9.49976H20.5049V10.5038H21.5024V9.49976Z" fill="#000001"/>
<path id="Vector_5" d="M17.506 14.5002H16.502V15.5043H17.506V14.5002Z" fill="#000001"/>
<path id="Vector_6" d="M17.506 8.5022H16.502V9.4997H17.506V8.5022Z" fill="#000001"/>
<path id="Vector_7" d="M16.5019 15.5044H15.5044V16.5019H16.5019V15.5044Z" fill="#000001"/>
<path id="Vector_8" d="M16.5019 7.50464H15.5044V8.50214H16.5019V7.50464Z" fill="#000001"/>
<path id="Vector_9" d="M15.5046 20.5049H14.5005V21.5024H15.5046V20.5049Z" fill="#000001"/>
<path id="Vector_10" d="M15.5046 16.502H14.5005V17.4995H15.5046V16.502Z" fill="#000001"/>
<path id="Vector_11" d="M7.50449 10.5038V11.5013H6.50043V10.5038H5.50293V13.5029H6.50043V12.5054H7.50449V13.5029H8.50199V15.5044H10.5036V16.5019H11.5011V17.4994H10.5036V18.5035H13.5026V17.4994H12.5051V16.5019H13.5026V15.5044H15.5042V13.5029H16.5017V12.5054H17.5057V13.5029H18.5032V10.5038H17.5057V11.5013H16.5017V10.5038H15.5042V8.50224H13.5026V7.50474H12.5051V6.50067H13.5026V5.50317H10.5036V6.50067H11.5011V7.50474H10.5036V8.50224H8.50199V10.5038H7.50449ZM14.5001 11.5013V12.5054H13.5026V11.5013H14.5001ZM12.5051 9.49974H13.5026V10.5038H12.5051V9.49974ZM11.5011 13.5029V14.5004H10.5036V13.5029H11.5011ZM9.50605 10.5038H10.5036V11.5013H9.50605V10.5038Z" fill="#000001"/>
<path id="Vector_12" d="M15.5046 6.50073H14.5005V7.50479H15.5046V6.50073Z" fill="#000001"/>
<path id="Vector_13" d="M15.5046 2.50415H14.5005V3.50165H15.5046V2.50415Z" fill="#000001"/>
<path id="Vector_14" d="M10.5038 20.5049H9.50635V21.5024H10.5038V20.5049Z" fill="#000001"/>
<path id="Vector_15" d="M10.5038 2.50415H9.50635V3.50165H10.5038V2.50415Z" fill="#000001"/>
<path id="Vector_16" d="M9.50602 16.502H8.50195V17.4995H9.50602V16.502Z" fill="#000001"/>
<path id="Vector_17" d="M9.50602 6.50073H8.50195V7.50479H9.50602V6.50073Z" fill="#000001"/>
<path id="Vector_18" d="M8.50238 15.5044H7.50488V16.5019H8.50238V15.5044Z" fill="#000001"/>
<path id="Vector_19" d="M8.50238 7.50464H7.50488V8.50214H8.50238V7.50464Z" fill="#000001"/>
<path id="Vector_20" d="M7.50455 14.5002H6.50049V15.5043H7.50455V14.5002Z" fill="#000001"/>
<path id="Vector_21" d="M7.50455 8.5022H6.50049V9.4997H7.50455V8.5022Z" fill="#000001"/>
<path id="Vector_22" d="M5.50297 22.4999V21.5024H6.50047V20.5049H7.50453V19.5008H6.50047V18.5033H5.50297V17.4993H4.50547V18.5033H3.50141V19.5008H2.50391V20.5049H3.50141V21.5024H4.50547V22.4999H5.50297ZM4.50547 19.5008H5.50297V20.5049H4.50547V19.5008Z" fill="#000001"/>
<path id="Vector_23" d="M3.50141 14.5002H2.50391V15.5043H3.50141V14.5002Z" fill="#000001"/>
<path id="Vector_24" d="M3.50141 10.5037H2.50391V11.5012H3.50141V10.5037Z" fill="#000001"/>
<path id="Vector_25" d="M2.50406 7.50459H3.50156V8.50209H4.50562V7.50459H5.50312V6.50053H6.50062V5.50303H5.50312V4.49896H4.50562V3.50146H3.50156V4.49896H2.50406V5.50303H1.5V6.50053H2.50406V7.50459ZM3.50156 5.50303H4.50562V6.50053H3.50156V5.50303Z" fill="#000001"/>
</g>
</g>
</svg>
