<svg width="24" height="24" viewBox="0 0 24 24" fill="none" xmlns="http://www.w3.org/2000/svg">
<g id="health-drug-medicine">
<g id="Group">
<path id="Vector" d="M22.0014 5.00439H20.9973V9.99846H22.0014V5.00439Z" fill="#000001"/>
<path id="Vector_2" d="M20.9973 9.99854H19.9998V11.0026H20.9973V9.99854Z" fill="#000001"/>
<path id="Vector_3" d="M20.9973 4.00024H19.9998V5.00431H20.9973V4.00024Z" fill="#000001"/>
<path id="Vector_4" d="M19.9997 11.0024H19.0022V11.9999H19.9997V11.0024Z" fill="#000001"/>
<path id="Vector_5" d="M19.9997 3.00293H19.0022V4.00043H19.9997V3.00293Z" fill="#000001"/>
<path id="Vector_6" d="M19.0021 12H17.998V13.0041H19.0021V12Z" fill="#000001"/>
<path id="Vector_7" d="M17.9982 13.0042H17.0007V14.0016H17.9982V13.0042Z" fill="#000001"/>
<path id="Vector_8" d="M17.0007 14.0017H16.0032V14.9992H17.0007V14.0017Z" fill="#000001"/>
<path id="Vector_9" d="M19.0023 1.99878H14.0017V3.00284H19.0023V1.99878Z" fill="#000001"/>
<path id="Vector_10" d="M3.00284 19.9997H4.00034V21.0037H4.99784V22.0012H9.99847V21.0037H11.0025V19.9997H12V19.0022H12.9975V18.0047H14.0016V17.0006H14.9991V16.0031H16.0032V14.999H14.9991V14.0015H14.0016V13.004H12.9975V12H12V11.0025H11.0025V9.99842H9.99847V9.00092H9.00097V8.00342H7.9969V9.00092H6.9994V9.99842H6.0019V11.0025H4.99784V12H4.00034V13.004H3.00284V14.0015H1.99878V19.0022H3.00284V19.9997ZM6.9994 19.0022H9.00097V18.0047H9.99847V17.0006H11.0025V16.0031H12V17.0006H11.0025V18.0047H9.99847V19.0022H9.00097V19.9997H6.9994V19.0022Z" fill="#000001"/>
<path id="Vector_11" d="M14.0016 3.00293H12.9976V4.00043H14.0016V3.00293Z" fill="#000001"/>
<path id="Vector_12" d="M12.9975 4.00024H12V5.00431H12.9975V4.00024Z" fill="#000001"/>
<path id="Vector_13" d="M11.9999 5.00439H11.0024V6.00189H11.9999V5.00439Z" fill="#000001"/>
<path id="Vector_14" d="M11.0026 6.00195H9.99854V6.99945H11.0026V6.00195Z" fill="#000001"/>
<path id="Vector_15" d="M9.99848 6.99951H9.00098V8.00357H9.99848V6.99951Z" fill="#000001"/>
</g>
</g>
</svg>
