<svg width="24" height="24" viewBox="0 0 24 24" fill="none" xmlns="http://www.w3.org/2000/svg">
<g id="health-hospital-building-2">
<g id="Group">
<path id="Vector" d="M20.505 11.5012V10.5038H21.5025V9.49969H22.5V6.50062H21.5025V5.50312H20.505V4.49906H17.5059V5.50312H16.5019V6.50062H15.5044V4.49906H16.5019V1.5H1.5V4.49906H2.50406V22.5H3.50156V4.49906H14.5003V22.5H15.5044V13.5028H21.5025V22.5H22.5V12.5053H15.5044V9.49969H16.5019V10.5038H17.5059V11.5012H20.505ZM2.50406 3.50156V2.50406H15.5044V3.50156H2.50406ZM17.5059 7.50469H18.5034V6.50062H19.5009V7.50469H20.505V8.50219H19.5009V9.49969H18.5034V8.50219H17.5059V7.50469Z" fill="#000001"/>
<path id="Vector_2" d="M16.502 14.5002V21.5024H20.5051V14.5002H16.502ZM19.501 20.5049H17.506V18.5034H19.501V20.5049ZM19.501 17.4993H17.506V15.5043H19.501V17.4993Z" fill="#000001"/>
<path id="Vector_3" d="M4.50586 21.5026V22.5001H13.503V21.5026H12.5055V16.502H13.503V13.5029H4.50586V16.502H5.50336V21.5026H4.50586ZM8.50242 20.5051H6.50086V16.502H8.50242V20.5051ZM11.5015 20.5051H9.50648V16.502H11.5015V20.5051ZM5.50336 14.5004H12.5055V15.5045H5.50336V14.5004Z" fill="#000001"/>
<path id="Vector_4" d="M10.5039 12.5054H13.503V9.49976H10.5039V12.5054ZM11.5014 10.5038H12.5055V11.5013H11.5014V10.5038Z" fill="#000001"/>
<path id="Vector_5" d="M13.503 5.50317H10.5039V8.50224H13.503V5.50317ZM12.5055 7.50474H11.5014V6.50067H12.5055V7.50474Z" fill="#000001"/>
<path id="Vector_6" d="M9.50602 9.49976H8.50195V12.5054H9.50602V9.49976Z" fill="#000001"/>
<path id="Vector_7" d="M9.50602 5.50317H8.50195V8.50224H9.50602V5.50317Z" fill="#000001"/>
<path id="Vector_8" d="M7.50492 5.50317H4.50586V8.50224H7.50492V5.50317ZM6.50086 7.50474H5.50336V6.50067H6.50086V7.50474Z" fill="#000001"/>
<path id="Vector_9" d="M4.50586 12.5054H7.50492V9.49976H4.50586V12.5054ZM5.50336 10.5038H6.50086V11.5013H5.50336V10.5038Z" fill="#000001"/>
</g>
</g>
</svg>
