<svg width="24" height="24" viewBox="0 0 24 24" fill="none" xmlns="http://www.w3.org/2000/svg">
<g id="health-drug-medicine-bag-aid-2">
<g id="Group">
<path id="Vector" d="M22.4999 5.99707H21.5024V15.0008H22.4999V5.99707Z" fill="#000001"/>
<path id="Vector_2" d="M20.5048 16.0017H3.50141V15.0042H2.50391V21.0023H3.50141V16.9992H5.50297V21.0023H3.50141V21.9998H20.5048V21.0023H18.5033V16.9992H20.5048V21.0023H21.5023V15.0042H20.5048V16.0017ZM15.5042 21.0023H8.50203V16.9992H15.5042V21.0023Z" fill="#000001"/>
<path id="Vector_3" d="M21.5024 4.99951H20.5049V5.99701H21.5024V4.99951Z" fill="#000001"/>
<path id="Vector_4" d="M14.5005 12.0017V12.9992H15.5046V15.0008H18.5036V12.9992H19.5011V12.0017H14.5005ZM17.5061 13.9967H16.5021V12.9992H17.5061V13.9967Z" fill="#000001"/>
<path id="Vector_5" d="M15.5041 7.99863H13.5026V5.99707H10.5035V7.99863H8.50195V10.9977H10.5035V12.9993H13.5026V10.9977H15.5041V7.99863Z" fill="#000001"/>
<path id="Vector_6" d="M16.5021 2.00049H7.50488V2.99799H16.5021V2.00049Z" fill="#000001"/>
<path id="Vector_7" d="M4.50586 12.0017V12.9992H5.50336V15.0008H8.50242V12.9992H9.50648V12.0017H4.50586ZM7.50492 13.9967H6.50086V12.9992H7.50492V13.9967Z" fill="#000001"/>
<path id="Vector_8" d="M20.5049 4.99961V3.99555H17.5058V2.99805H16.5018V3.99555H7.50459V2.99805H6.50053V3.99555H3.50146V4.99961H20.5049Z" fill="#000001"/>
<path id="Vector_9" d="M3.50141 4.99951H2.50391V5.99701H3.50141V4.99951Z" fill="#000001"/>
<path id="Vector_10" d="M2.50406 5.99707H1.5V15.0008H2.50406V5.99707Z" fill="#000001"/>
</g>
</g>
</svg>
