<svg width="24" height="24" viewBox="0 0 24 24" fill="none" xmlns="http://www.w3.org/2000/svg">
<g id="health-drugs-pill">
<g id="Group">
<path id="Vector" d="M22.4999 13.5029H21.5024V17.4995H22.4999V13.5029Z" fill="#000001"/>
<path id="Vector_2" d="M21.5024 11.5012H20.5049V13.5028H21.5024V11.5012Z" fill="#000001"/>
<path id="Vector_3" d="M20.5052 16.5019H19.5011V15.5044H18.5036V14.5004H17.5061V13.5029H16.502V12.5054H15.5045V11.5013H14.5005V10.5038H13.503V9.49976H11.5014V10.5038H10.5039V11.5013H12.5055V12.5054H13.503V13.5029H14.5005V14.5004H15.5045V15.5044H16.502V16.5019H17.5061V17.4994H18.5036V18.5035H19.5011V20.5051H20.5052V19.501H21.5027V17.4994H20.5052V16.5019Z" fill="#000001"/>
<path id="Vector_4" d="M20.505 10.5037H19.501V11.5012H20.505V10.5037Z" fill="#000001"/>
<path id="Vector_5" d="M15.5041 20.505V19.5009H13.5026V18.5034H12.5051V17.4993H11.501V15.5043H10.5035V11.5012H9.50602V13.5028H8.50195V17.4993H9.50602V19.5009H10.5035V20.505H11.501V21.5025H13.5026V22.5H17.5057V21.5025H19.5007V20.505H15.5041Z" fill="#000001"/>
<path id="Vector_6" d="M19.5009 9.49976H17.5059V10.5038H19.5009V9.49976Z" fill="#000001"/>
<path id="Vector_7" d="M17.5061 8.5022H13.5029V9.4997H17.5061V8.5022Z" fill="#000001"/>
<path id="Vector_8" d="M10.5037 21.5024H3.50146V22.4999H10.5037V21.5024Z" fill="#000001"/>
<path id="Vector_9" d="M7.50455 12.5054H6.50049V18.5035H7.50455V12.5054Z" fill="#000001"/>
<path id="Vector_10" d="M5.50336 16.502H4.50586V17.4995H5.50336V16.502Z" fill="#000001"/>
<path id="Vector_11" d="M5.50297 6.50062H12.5052V7.50469H13.5027V6.50062H14.5002V5.50312H15.5042V2.50406H14.5002V1.5H3.50141V2.50406H2.50391V5.50312H3.50141V6.50062H4.50547V8.50219H5.50297V6.50062ZM12.5052 2.50406H13.5027V5.50312H12.5052V2.50406ZM10.5036 2.50406H11.5011V5.50312H10.5036V2.50406ZM8.50203 2.50406H9.50609V5.50312H8.50203V2.50406ZM6.50047 2.50406H7.50453V5.50312H6.50047V2.50406ZM4.50547 2.50406H5.50297V5.50312H4.50547V2.50406Z" fill="#000001"/>
<path id="Vector_12" d="M4.50553 8.5022H3.50146V9.4997H4.50553V8.5022Z" fill="#000001"/>
<path id="Vector_13" d="M3.50141 20.5049H2.50391V21.5024H3.50141V20.5049Z" fill="#000001"/>
<path id="Vector_14" d="M2.50406 19.5008H6.50062V18.5033H2.50406V16.5018H4.50562V15.5043H2.50406V14.5002H4.50562V13.5027H2.50406V12.5052H6.50062V11.5012H2.50406V10.5037H1.5V20.5049H2.50406V19.5008Z" fill="#000001"/>
<path id="Vector_15" d="M3.50141 9.49976H2.50391V10.5038H3.50141V9.49976Z" fill="#000001"/>
</g>
</g>
</svg>
