<svg width="24" height="24" viewBox="0 0 24 24" fill="none" xmlns="http://www.w3.org/2000/svg">
<g id="health-hospital-building-1">
<g id="Group">
<path id="Vector" d="M18.5034 8.50219V4.49906H15.5044V1.5H8.50219V4.49906H5.50312V8.50219H1.5V22.5H22.5V8.50219H18.5034ZM10.5038 4.49906H11.5012V3.50156H12.5053V4.49906H13.5028V5.50312H12.5053V6.50062H11.5012V5.50312H10.5038V4.49906ZM2.50406 9.49969H5.50312V19.5009H2.50406V9.49969ZM7.50469 21.5025H2.50406V20.505H7.50469V21.5025ZM15.5044 21.5025H8.50219V20.505H15.5044V21.5025ZM9.50625 19.5009V14.5003H11.5012V19.5009H9.50625ZM12.5053 19.5009V14.5003H14.5003V19.5009H12.5053ZM8.50219 13.5028V19.5009H6.50062V5.50312H8.50219V8.50219H15.5044V5.50312H17.5059V19.5009H15.5044V13.5028H8.50219ZM21.5025 21.5025H16.5019V20.505H21.5025V21.5025ZM21.5025 19.5009H18.5034V9.49969H21.5025V19.5009Z" fill="#000001"/>
<path id="Vector_2" d="M20.505 16.502H19.501V17.4995H20.505V16.502Z" fill="#000001"/>
<path id="Vector_3" d="M20.505 14.5002H19.501V15.5043H20.505V14.5002Z" fill="#000001"/>
<path id="Vector_4" d="M20.505 12.5054H19.501V13.5029H20.505V12.5054Z" fill="#000001"/>
<path id="Vector_5" d="M20.505 10.5037H19.501V11.5012H20.505V10.5037Z" fill="#000001"/>
<path id="Vector_6" d="M16.5021 11.5012H14.5005V12.5053H16.5021V11.5012Z" fill="#000001"/>
<path id="Vector_7" d="M16.5021 9.49976H14.5005V10.5038H16.5021V9.49976Z" fill="#000001"/>
<path id="Vector_8" d="M13.503 11.5012H10.5039V12.5053H13.503V11.5012Z" fill="#000001"/>
<path id="Vector_9" d="M13.503 9.49976H10.5039V10.5038H13.503V9.49976Z" fill="#000001"/>
<path id="Vector_10" d="M9.50645 11.5012H7.50488V12.5053H9.50645V11.5012Z" fill="#000001"/>
<path id="Vector_11" d="M9.50645 9.49976H7.50488V10.5038H9.50645V9.49976Z" fill="#000001"/>
<path id="Vector_12" d="M4.50553 16.502H3.50146V17.4995H4.50553V16.502Z" fill="#000001"/>
<path id="Vector_13" d="M4.50553 14.5002H3.50146V15.5043H4.50553V14.5002Z" fill="#000001"/>
<path id="Vector_14" d="M4.50553 12.5054H3.50146V13.5029H4.50553V12.5054Z" fill="#000001"/>
<path id="Vector_15" d="M4.50553 10.5037H3.50146V11.5012H4.50553V10.5037Z" fill="#000001"/>
</g>
</g>
</svg>
