<svg width="24" height="24" viewBox="0 0 24 24" fill="none" xmlns="http://www.w3.org/2000/svg">
<g id="health-injection">
<g id="Group">
<path id="Vector" d="M21.499 20.5049H20.5015V22.4999H21.499V20.5049Z" fill="#000001"/>
<path id="Vector_2" d="M20.5014 18.5034H19.5039V19.5009H20.5014V18.5034Z" fill="#000001"/>
<path id="Vector_3" d="M19.5041 17.4993H18.5V18.5033H19.5041V17.4993Z" fill="#000001"/>
<path id="Vector_4" d="M19.5041 15.5044H18.5V16.5019H19.5041V15.5044Z" fill="#000001"/>
<path id="Vector_5" d="M19.5041 12.5054H18.5V14.5004H19.5041V12.5054Z" fill="#000001"/>
<path id="Vector_6" d="M18.4999 16.502H17.5024V17.4995H18.4999V16.502Z" fill="#000001"/>
<path id="Vector_7" d="M18.4999 14.5002H17.5024V15.5043H18.4999V14.5002Z" fill="#000001"/>
<path id="Vector_8" d="M18.4999 11.5012H17.5024V12.5053H18.4999V11.5012Z" fill="#000001"/>
<path id="Vector_9" d="M17.5024 17.4993H16.5049V18.5033H17.5024V17.4993Z" fill="#000001"/>
<path id="Vector_10" d="M17.5024 15.5044H16.5049V16.5019H17.5024V15.5044Z" fill="#000001"/>
<path id="Vector_11" d="M17.5024 10.5037H16.5049V11.5012H17.5024V10.5037Z" fill="#000001"/>
<path id="Vector_12" d="M16.505 16.502H15.501V17.4995H16.505V16.502Z" fill="#000001"/>
<path id="Vector_13" d="M8.50504 11.5014H9.50254V12.5054H10.5V13.5029H11.5041V14.5004H12.5016V15.5045H13.4991V16.502H14.5032V15.5045H15.5007V14.5004H16.5047V13.5029H17.5022V12.5054H15.5007V13.5029H14.5032V12.5054H15.5007V10.5039H13.4991V11.5014H12.5016V10.5039H13.4991V8.5023H11.5041V9.49979H10.5V8.5023H11.5041V6.50073H10.5V7.50479H9.50254V8.5023H8.50504V9.49979H7.50098V10.5039H8.50504V11.5014Z" fill="#000001"/>
<path id="Vector_14" d="M16.505 9.49976H15.501V10.5038H16.505V9.49976Z" fill="#000001"/>
<path id="Vector_15" d="M15.5009 8.5022H14.5034V9.4997H15.5009V8.5022Z" fill="#000001"/>
<path id="Vector_16" d="M15.5006 17.4993H13.499V18.5033H15.5006V17.4993Z" fill="#000001"/>
<path id="Vector_17" d="M14.5031 7.50464H13.499V8.50214H14.5031V7.50464Z" fill="#000001"/>
<path id="Vector_18" d="M13.4995 16.502H12.502V17.4995H13.4995V16.502Z" fill="#000001"/>
<path id="Vector_19" d="M13.4995 6.50073H12.502V7.50479H13.4995V6.50073Z" fill="#000001"/>
<path id="Vector_20" d="M12.5019 15.5044H11.5044V16.5019H12.5019V15.5044Z" fill="#000001"/>
<path id="Vector_21" d="M12.5019 4.49902H11.5044V6.50059H12.5019V4.49902Z" fill="#000001"/>
<path id="Vector_22" d="M11.5041 14.5002H10.5V15.5043H11.5041V14.5002Z" fill="#000001"/>
<path id="Vector_23" d="M11.5041 3.50146H10.5V4.49896H11.5041V3.50146Z" fill="#000001"/>
<path id="Vector_24" d="M10.4999 13.5029H9.50244V14.5004H10.4999V13.5029Z" fill="#000001"/>
<path id="Vector_25" d="M10.4999 4.49902H9.50244V5.50309H10.4999V4.49902Z" fill="#000001"/>
<path id="Vector_26" d="M9.50287 12.5054H8.50537V13.5029H9.50287V12.5054Z" fill="#000001"/>
<path id="Vector_27" d="M8.50504 11.5012H7.50098V12.5053H8.50504V11.5012Z" fill="#000001"/>
<path id="Vector_28" d="M7.50107 10.5037H5.49951V11.5012H7.50107V10.5037Z" fill="#000001"/>
<path id="Vector_29" d="M4.50205 4.49906H3.50455V5.50312H2.50049V7.50469H4.50205V6.50062H6.50361V8.50219H7.50111V7.50469H8.50518V6.50062H9.50268V5.50312H7.50111V3.50156H8.50518V1.5H6.50361V2.50406H5.49955V3.50156H4.50205V4.49906Z" fill="#000001"/>
<path id="Vector_30" d="M6.50357 8.5022H5.49951V9.4997H6.50357V8.5022Z" fill="#000001"/>
<path id="Vector_31" d="M5.49945 9.49976H4.50195V10.5038H5.49945V9.49976Z" fill="#000001"/>
</g>
</g>
</svg>
