<svg width="24" height="24" viewBox="0 0 24 24" fill="none" xmlns="http://www.w3.org/2000/svg">
<g id="interface-essential-alert-circle-2">
<g id="Group">
<path id="Vector" d="M22.5 9.49976H21.5025V14.5004H22.5V9.49976Z" fill="#000001"/>
<path id="Vector_2" d="M21.5025 14.5002H20.4984V16.5018H21.5025V14.5002Z" fill="#000001"/>
<path id="Vector_3" d="M21.5025 7.49805H20.4984V9.49961H21.5025V7.49805Z" fill="#000001"/>
<path id="Vector_4" d="M20.4984 16.502H19.5009V18.497H20.4984V16.502Z" fill="#000001"/>
<path id="Vector_5" d="M20.4984 5.49658H19.5009V7.49814H20.4984V5.49658Z" fill="#000001"/>
<path id="Vector_6" d="M19.501 18.4968H18.4969V19.5009H19.501V18.4968Z" fill="#000001"/>
<path id="Vector_7" d="M19.501 4.49902H18.4969V5.49652H19.501V4.49902Z" fill="#000001"/>
<path id="Vector_8" d="M18.4969 19.501H16.5019V20.4985H18.4969V19.501Z" fill="#000001"/>
<path id="Vector_9" d="M18.4969 3.50146H16.5019V4.49896H18.4969V3.50146Z" fill="#000001"/>
<path id="Vector_10" d="M16.5019 20.4985H14.5003V21.5026H16.5019V20.4985Z" fill="#000001"/>
<path id="Vector_11" d="M16.5019 2.49756H14.5003V3.50162H16.5019V2.49756Z" fill="#000001"/>
<path id="Vector_12" d="M14.5003 21.5024H9.49969V22.4999H14.5003V21.5024Z" fill="#000001"/>
<path id="Vector_13" d="M13.5028 14.5002H10.4972V15.4977H9.49969V18.4968H10.4972V19.5009H13.5028V18.4968H14.5003V15.4977H13.5028V14.5002Z" fill="#000001"/>
<path id="Vector_14" d="M13.5028 4.49902H10.4972V5.49652H9.49969V11.5012H10.4972V13.5028H13.5028V11.5012H14.5003V5.49652H13.5028V4.49902Z" fill="#000001"/>
<path id="Vector_15" d="M14.5003 1.5H9.49969V2.4975H14.5003V1.5Z" fill="#000001"/>
<path id="Vector_16" d="M9.49967 20.4985H7.49811V21.5026H9.49967V20.4985Z" fill="#000001"/>
<path id="Vector_17" d="M9.49967 2.49756H7.49811V3.50162H9.49967V2.49756Z" fill="#000001"/>
<path id="Vector_18" d="M7.49814 19.501H5.49658V20.4985H7.49814V19.501Z" fill="#000001"/>
<path id="Vector_19" d="M7.49814 3.50146H5.49658V4.49896H7.49814V3.50146Z" fill="#000001"/>
<path id="Vector_20" d="M5.49658 18.4968H4.49908V19.5009H5.49658V18.4968Z" fill="#000001"/>
<path id="Vector_21" d="M5.49658 4.49902H4.49908V5.49652H5.49658V4.49902Z" fill="#000001"/>
<path id="Vector_22" d="M4.49909 16.502H3.50159V18.497H4.49909V16.502Z" fill="#000001"/>
<path id="Vector_23" d="M4.49909 5.49658H3.50159V7.49814H4.49909V5.49658Z" fill="#000001"/>
<path id="Vector_24" d="M3.50156 14.5002H2.4975V16.5018H3.50156V14.5002Z" fill="#000001"/>
<path id="Vector_25" d="M3.50156 7.49805H2.4975V9.49961H3.50156V7.49805Z" fill="#000001"/>
<path id="Vector_26" d="M2.4975 9.49976H1.5V14.5004H2.4975V9.49976Z" fill="#000001"/>
</g>
</g>
</svg>
