<svg width="24" height="24" viewBox="0 0 24 24" fill="none" xmlns="http://www.w3.org/2000/svg">
<g id="interface-essential-flip-vertical-up">
<g id="Group">
<path id="Vector" d="M19.5009 12.4987H20.4984V21.4959H21.4959V12.4987H22.5V11.5012H19.5009V12.4987Z" fill="#000001"/>
<path id="Vector_2" d="M21.4959 2.49756H20.4984V5.49662H21.4959V2.49756Z" fill="#000001"/>
<path id="Vector_3" d="M21.4959 7.49805H20.4984V10.4971H21.4959V7.49805Z" fill="#000001"/>
<path id="Vector_4" d="M20.4985 21.4958H3.50159V22.4999H20.4985V21.4958Z" fill="#000001"/>
<path id="Vector_5" d="M20.4985 1.5H17.4994V2.4975H20.4985V1.5Z" fill="#000001"/>
<path id="Vector_6" d="M18.4969 11.5012H16.4953V12.4987H18.4969V11.5012Z" fill="#000001"/>
<path id="Vector_7" d="M15.4978 14.5002V7.49805H8.49561V8.49555H9.49967V9.49961H10.4972V10.4971H9.49967V11.5012H8.49561V14.5002H9.49967V16.4952H10.4972V17.4993H14.5003V16.4952H12.4987V15.4977H11.5012V13.4962H12.4987V12.4987H13.4962V13.4962H14.5003V14.5002H15.4978Z" fill="#000001"/>
<path id="Vector_8" d="M15.4978 1.5H12.4988V2.4975H15.4978V1.5Z" fill="#000001"/>
<path id="Vector_9" d="M11.5012 1.5H8.49561V2.4975H11.5012V1.5Z" fill="#000001"/>
<path id="Vector_10" d="M7.49814 11.5012H5.49658V12.4987H7.49814V11.5012Z" fill="#000001"/>
<path id="Vector_11" d="M6.50065 1.5H3.50159V2.4975H6.50065V1.5Z" fill="#000001"/>
<path id="Vector_12" d="M3.50156 2.49756H2.4975V5.49662H3.50156V2.49756Z" fill="#000001"/>
<path id="Vector_13" d="M3.50156 7.49805H2.4975V10.4971H3.50156V7.49805Z" fill="#000001"/>
<path id="Vector_14" d="M4.49906 12.4987V11.5012H1.5V12.4987H2.4975V21.4959H3.50156V12.4987H4.49906Z" fill="#000001"/>
</g>
</g>
</svg>
