<svg width="24" height="24" viewBox="0 0 24 24" fill="none" xmlns="http://www.w3.org/2000/svg">
<g id="interface-essential-direction-button">
<g id="Group">
<path id="Vector" d="M22.5 11.5012H21.4959V12.4987H22.5V11.5012Z" fill="#000001"/>
<path id="Vector_2" d="M21.4959 12.4988H20.4984V13.5028H21.4959V12.4988Z" fill="#000001"/>
<path id="Vector_3" d="M21.4959 10.4971H20.4984V11.5011H21.4959V10.4971Z" fill="#000001"/>
<path id="Vector_4" d="M20.4984 13.5029H19.4944V14.5004H20.4984V13.5029Z" fill="#000001"/>
<path id="Vector_5" d="M20.4984 9.49976H19.4944V10.4973H20.4984V9.49976Z" fill="#000001"/>
<path id="Vector_6" d="M19.4944 14.5002H18.4969V15.4977H19.4944V14.5002Z" fill="#000001"/>
<path id="Vector_7" d="M19.4944 8.5022H18.4969V9.4997H19.4944V8.5022Z" fill="#000001"/>
<path id="Vector_8" d="M18.4969 15.4978H17.4994V16.5019H18.4969V15.4978Z" fill="#000001"/>
<path id="Vector_9" d="M18.4969 7.49805H17.4994V8.50211H18.4969V7.49805Z" fill="#000001"/>
<path id="Vector_10" d="M17.4994 8.5022H16.4953V15.4978H17.4994V8.5022Z" fill="#000001"/>
<path id="Vector_11" d="M16.4953 17.4993H15.4978V18.4968H16.4953V17.4993Z" fill="#000001"/>
<path id="Vector_12" d="M16.4953 5.49658H15.4978V6.50064H16.4953V5.49658Z" fill="#000001"/>
<path id="Vector_13" d="M15.4978 18.4968H14.4937V19.5009H15.4978V18.4968Z" fill="#000001"/>
<path id="Vector_14" d="M15.4978 4.49902H14.4937V5.49652H15.4978V4.49902Z" fill="#000001"/>
<path id="Vector_15" d="M14.4937 19.501H13.4962V20.4985H14.4937V19.501Z" fill="#000001"/>
<path id="Vector_16" d="M15.4978 6.50073H8.49564V7.49823H15.4978V6.50073Z" fill="#000001"/>
<path id="Vector_17" d="M14.4937 3.50146H13.4962V4.49896H14.4937V3.50146Z" fill="#000001"/>
<path id="Vector_18" d="M13.4962 20.4985H12.4987V21.5026H13.4962V20.4985Z" fill="#000001"/>
<path id="Vector_19" d="M13.4962 2.49756H12.4987V3.50162H13.4962V2.49756Z" fill="#000001"/>
<path id="Vector_20" d="M12.4988 21.5024H11.4947V22.4999H12.4988V21.5024Z" fill="#000001"/>
<path id="Vector_21" d="M12.4988 1.5H11.4947V2.4975H12.4988V1.5Z" fill="#000001"/>
<path id="Vector_22" d="M11.4947 20.4985H10.4972V21.5026H11.4947V20.4985Z" fill="#000001"/>
<path id="Vector_23" d="M13.4963 14.5004V13.5029H14.4938V10.4973H13.4963V9.49976H10.4972V10.4973H9.49969V13.5029H10.4972V14.5004H13.4963Z" fill="#000001"/>
<path id="Vector_24" d="M11.4947 2.49756H10.4972V3.50162H11.4947V2.49756Z" fill="#000001"/>
<path id="Vector_25" d="M10.4972 19.501H9.49969V20.4985H10.4972V19.501Z" fill="#000001"/>
<path id="Vector_26" d="M15.4978 16.502H8.49564V17.4995H15.4978V16.502Z" fill="#000001"/>
<path id="Vector_27" d="M10.4972 3.50146H9.49969V4.49896H10.4972V3.50146Z" fill="#000001"/>
<path id="Vector_28" d="M9.4997 18.4968H8.49564V19.5009H9.4997V18.4968Z" fill="#000001"/>
<path id="Vector_29" d="M9.4997 4.49902H8.49564V5.49652H9.4997V4.49902Z" fill="#000001"/>
<path id="Vector_30" d="M8.49564 17.4993H7.49814V18.4968H8.49564V17.4993Z" fill="#000001"/>
<path id="Vector_31" d="M8.49564 5.49658H7.49814V6.50064H8.49564V5.49658Z" fill="#000001"/>
<path id="Vector_32" d="M7.49811 8.5022H6.49405V15.4978H7.49811V8.5022Z" fill="#000001"/>
<path id="Vector_33" d="M6.49405 15.4978H5.49655V16.5019H6.49405V15.4978Z" fill="#000001"/>
<path id="Vector_34" d="M6.49405 7.49805H5.49655V8.50211H6.49405V7.49805Z" fill="#000001"/>
<path id="Vector_35" d="M5.49655 14.5002H4.49905V15.4977H5.49655V14.5002Z" fill="#000001"/>
<path id="Vector_36" d="M5.49655 8.5022H4.49905V9.4997H5.49655V8.5022Z" fill="#000001"/>
<path id="Vector_37" d="M4.49906 13.5029H3.495V14.5004H4.49906V13.5029Z" fill="#000001"/>
<path id="Vector_38" d="M4.49906 9.49976H3.495V10.4973H4.49906V9.49976Z" fill="#000001"/>
<path id="Vector_39" d="M3.495 12.4988H2.4975V13.5028H3.495V12.4988Z" fill="#000001"/>
<path id="Vector_40" d="M3.495 10.4971H2.4975V11.5011H3.495V10.4971Z" fill="#000001"/>
<path id="Vector_41" d="M2.4975 11.5012H1.5V12.4987H2.4975V11.5012Z" fill="#000001"/>
</g>
</g>
</svg>
