<svg width="24" height="24" viewBox="0 0 24 24" fill="none" xmlns="http://www.w3.org/2000/svg">
<g id="interface-essential-share-1">
<g id="Group">
<path id="Vector" d="M14.9958 7.49813H15.9999V8.50219H18.9989V7.49813H19.9964V6.50062H18.9989V4.49906H17.9949V3.50156H18.9989V4.49906H19.9964V6.50062H21.0005V3.50156H19.9964V2.4975H18.9989V1.5H15.9999V2.4975H14.9958V3.50156H13.9983V6.50062H14.9958V7.49813Z" fill="#000001"/>
<path id="Vector_2" d="M13.9983 20.4984H14.9958V21.5025H15.9999V22.5H18.9989V21.5025H19.9964V20.4984H18.9989V18.4969H17.9949V17.4994H18.9989V18.4969H19.9964V20.4984H21.0005V17.4994H19.9964V16.5019H18.9989V15.4978H15.9999V16.5019H14.9958V17.4994H13.9983V20.4984Z" fill="#000001"/>
<path id="Vector_3" d="M13.9983 16.502H13.0008V17.4995H13.9983V16.502Z" fill="#000001"/>
<path id="Vector_4" d="M13.9983 6.50073H13.0008V7.49823H13.9983V6.50073Z" fill="#000001"/>
<path id="Vector_5" d="M13.0008 15.4978H11.9967V16.5019H13.0008V15.4978Z" fill="#000001"/>
<path id="Vector_6" d="M13.0008 7.49805H11.9967V8.50211H13.0008V7.49805Z" fill="#000001"/>
<path id="Vector_7" d="M11.9967 14.5002H10.9992V15.4977H11.9967V14.5002Z" fill="#000001"/>
<path id="Vector_8" d="M11.9967 8.5022H10.9992V9.4997H11.9967V8.5022Z" fill="#000001"/>
<path id="Vector_9" d="M10.9992 13.5029H9.99518V14.5004H10.9992V13.5029Z" fill="#000001"/>
<path id="Vector_10" d="M10.9992 9.49976H9.99518V10.4973H10.9992V9.49976Z" fill="#000001"/>
<path id="Vector_11" d="M5.0011 8.5022V9.4997H3.99704V10.4972H2.99954V13.5028H3.99704V14.5003H5.0011V15.4978H8.00017V14.5003H8.99767V13.5028H9.99517V10.4972H8.99767V9.4997H8.00017V8.5022H5.0011Z" fill="#000001"/>
</g>
</g>
</svg>
