<svg width="24" height="24" viewBox="0 0 24 24" fill="none" xmlns="http://www.w3.org/2000/svg">
<g id="interface-essential-flash">
<g id="Group">
<path id="Vector" d="M22.0012 6.99951H20.9971V7.99701H22.0012V6.99951Z" fill="#000001"/>
<path id="Vector_2" d="M20.9971 7.99683H19.9996V9.00089H20.9971V7.99683Z" fill="#000001"/>
<path id="Vector_3" d="M20.9971 6.00195H19.9996V6.99945H20.9971V6.00195Z" fill="#000001"/>
<path id="Vector_4" d="M19.9996 6.99951H19.0021V7.99701H19.9996V6.99951Z" fill="#000001"/>
<path id="Vector_5" d="M19.0022 19.9998V18.9957H19.9997V17.9982H19.0022V17.0007H17.9981V17.9982H17.0006V18.9957H17.9981V19.9998H19.0022Z" fill="#000001"/>
<path id="Vector_6" d="M19.0022 9.99854H17.9981V12.0001H19.0022V9.99854Z" fill="#000001"/>
<path id="Vector_7" d="M17.9981 12H17.0006V12.9975H17.9981V12Z" fill="#000001"/>
<path id="Vector_8" d="M17.9981 4.00024H17.0006V4.99774H17.9981V4.00024Z" fill="#000001"/>
<path id="Vector_9" d="M17.0006 12.9976H15.9965V14.0016H17.0006V12.9976Z" fill="#000001"/>
<path id="Vector_10" d="M17.0006 4.9978H15.9965V6.00187H17.0006V4.9978Z" fill="#000001"/>
<path id="Vector_11" d="M15.9965 14.0017H14.999V14.9992H15.9965V14.0017Z" fill="#000001"/>
<path id="Vector_12" d="M15.9965 6.00195H14.999V6.99945H15.9965V6.00195Z" fill="#000001"/>
<path id="Vector_13" d="M14.999 14.999H14.0015V15.9965H14.999V14.999Z" fill="#000001"/>
<path id="Vector_14" d="M14.999 6.99951H14.0015V7.99701H14.999V6.99951Z" fill="#000001"/>
<path id="Vector_15" d="M14.0016 20.9973H12.9975V22.0014H14.0016V20.9973Z" fill="#000001"/>
<path id="Vector_16" d="M14.0016 15.9966H12.9975V17.0006H14.0016V15.9966Z" fill="#000001"/>
<path id="Vector_17" d="M12.9974 7.99683V9.00089H11.9999V9.99839H17.9981V9.00089H14.0015V7.99683H12.9974Z" fill="#000001"/>
<path id="Vector_18" d="M12.9974 17.0007H11.9999V17.9982H12.9974V17.0007Z" fill="#000001"/>
<path id="Vector_19" d="M17.9981 2.99628V4.00034H19.0021V1.99878H11.0024V2.99628H17.9981Z" fill="#000001"/>
<path id="Vector_20" d="M11.9999 17.998H11.0024V18.9955H11.9999V17.998Z" fill="#000001"/>
<path id="Vector_21" d="M11.0025 18.9956H9.99841V19.9997H11.0025V18.9956Z" fill="#000001"/>
<path id="Vector_22" d="M11.0025 2.99634H9.99841V4.0004H11.0025V2.99634Z" fill="#000001"/>
<path id="Vector_23" d="M9.99842 19.9998H9.00092V20.9973H9.99842V19.9998Z" fill="#000001"/>
<path id="Vector_24" d="M9.99843 12H4.00031V12.9975H9.00093V14.9991H9.99843V12Z" fill="#000001"/>
<path id="Vector_25" d="M9.99842 4.00024H9.00092V4.99774H9.99842V4.00024Z" fill="#000001"/>
<path id="Vector_26" d="M9.00089 20.9973H7.99683V22.0014H9.00089V20.9973Z" fill="#000001"/>
<path id="Vector_27" d="M9.00089 14.999H7.99683V17.9981H9.00089V14.999Z" fill="#000001"/>
<path id="Vector_28" d="M9.00089 4.9978H7.99683V6.00187H9.00089V4.9978Z" fill="#000001"/>
<path id="Vector_29" d="M7.99683 17.998H6.99933V20.9971H7.99683V17.998Z" fill="#000001"/>
<path id="Vector_30" d="M7.99683 6.00195H6.99933V6.99945H7.99683V6.00195Z" fill="#000001"/>
<path id="Vector_31" d="M6.99933 6.99951H6.00183V7.99701H6.99933V6.99951Z" fill="#000001"/>
<path id="Vector_32" d="M6.00187 7.99683H4.9978V9.00089H6.00187V7.99683Z" fill="#000001"/>
<path id="Vector_33" d="M4.99781 15.9966H4.00031V17.0006H4.99781V15.9966Z" fill="#000001"/>
<path id="Vector_34" d="M4.99781 9.00098H4.00031V9.99848H4.99781V9.00098Z" fill="#000001"/>
<path id="Vector_35" d="M4.00031 1.99878V2.99628H3.00281V4.00034H4.00031V4.99784H4.99781V4.00034H6.00187V2.99628H4.99781V1.99878H4.00031Z" fill="#000001"/>
<path id="Vector_36" d="M4.00031 17.0007H3.00281V17.9982H4.00031V17.0007Z" fill="#000001"/>
<path id="Vector_37" d="M4.00031 14.999H3.00281V15.9965H4.00031V14.999Z" fill="#000001"/>
<path id="Vector_38" d="M4.00031 9.99854H3.00281V12.0001H4.00031V9.99854Z" fill="#000001"/>
<path id="Vector_39" d="M3.00278 15.9966H1.99872V17.0006H3.00278V15.9966Z" fill="#000001"/>
</g>
</g>
</svg>
