<svg width="24" height="24" viewBox="0 0 24 24" fill="none" xmlns="http://www.w3.org/2000/svg">
<g id="interface-essential-view-eye">
<g id="Group">
<path id="Vector" d="M22.0013 10.9993H20.9972V13.0008H22.0013V10.9993Z" fill="#000001"/>
<path id="Vector_2" d="M20.9972 13.0007H19.9997V13.9982H20.9972V13.0007Z" fill="#000001"/>
<path id="Vector_3" d="M20.9972 10.0017H19.9997V10.9992H20.9972V10.0017Z" fill="#000001"/>
<path id="Vector_4" d="M19.9997 13.9983H19.0022V15.0024H19.9997V13.9983Z" fill="#000001"/>
<path id="Vector_5" d="M19.9997 8.99756H19.0022V10.0016H19.9997V8.99756Z" fill="#000001"/>
<path id="Vector_6" d="M19.0022 15.0022H17.0006V15.9997H19.0022V15.0022Z" fill="#000001"/>
<path id="Vector_7" d="M19.0022 8H17.0006V8.9975H19.0022V8Z" fill="#000001"/>
<path id="Vector_8" d="M17.0006 15.9998H14.9991V16.9973H17.0006V15.9998Z" fill="#000001"/>
<path id="Vector_9" d="M15.9966 10.0017H14.9991V13.9983H15.9966V10.0017Z" fill="#000001"/>
<path id="Vector_10" d="M17.0006 7.00269H14.9991V8.00019H17.0006V7.00269Z" fill="#000001"/>
<path id="Vector_11" d="M14.9991 13.9983H14.0016V15.0024H14.9991V13.9983Z" fill="#000001"/>
<path id="Vector_12" d="M14.9991 8.99756H14.0016V10.0016H14.9991V8.99756Z" fill="#000001"/>
<path id="Vector_13" d="M14.9991 16.9973H9.00095V18.0014H14.9991V16.9973Z" fill="#000001"/>
<path id="Vector_14" d="M14.0016 15.0022H9.99844V15.9997H14.0016V15.0022Z" fill="#000001"/>
<path id="Vector_15" d="M12.9975 10.0017H11.0025V10.9992H9.99844V13.0008H11.0025V13.9983H12.9975V13.0008H14.0016V10.9992H12.9975V10.0017Z" fill="#000001"/>
<path id="Vector_16" d="M14.0016 8H9.99844V8.9975H14.0016V8Z" fill="#000001"/>
<path id="Vector_17" d="M14.9991 5.99854H9.00095V7.0026H14.9991V5.99854Z" fill="#000001"/>
<path id="Vector_18" d="M9.99845 13.9983H9.00095V15.0024H9.99845V13.9983Z" fill="#000001"/>
<path id="Vector_19" d="M9.99845 8.99756H9.00095V10.0016H9.99845V8.99756Z" fill="#000001"/>
<path id="Vector_20" d="M9.00092 15.9998H6.99936V16.9973H9.00092V15.9998Z" fill="#000001"/>
<path id="Vector_21" d="M9.00095 10.0017H7.99689V13.9983H9.00095V10.0017Z" fill="#000001"/>
<path id="Vector_22" d="M9.00092 7.00269H6.99936V8.00019H9.00092V7.00269Z" fill="#000001"/>
<path id="Vector_23" d="M6.99937 15.0022H4.9978V15.9997H6.99937V15.0022Z" fill="#000001"/>
<path id="Vector_24" d="M6.99937 8H4.9978V8.9975H6.99937V8Z" fill="#000001"/>
<path id="Vector_25" d="M4.99781 13.9983H4.00031V15.0024H4.99781V13.9983Z" fill="#000001"/>
<path id="Vector_26" d="M4.99781 8.99756H4.00031V10.0016H4.99781V8.99756Z" fill="#000001"/>
<path id="Vector_27" d="M4.00031 13.0007H3.00281V13.9982H4.00031V13.0007Z" fill="#000001"/>
<path id="Vector_28" d="M4.00031 10.0017H3.00281V10.9992H4.00031V10.0017Z" fill="#000001"/>
<path id="Vector_29" d="M3.00281 10.9993H1.99875V13.0008H3.00281V10.9993Z" fill="#000001"/>
</g>
</g>
</svg>
