<svg width="24" height="24" viewBox="0 0 24 24" fill="none" xmlns="http://www.w3.org/2000/svg">
<g id="interface-essential-bookmark">
<g id="Group">
<path id="Vector" d="M22.5 4.49902H21.5025V20.4984H22.5V4.49902Z" fill="#000001"/>
<path id="Vector_2" d="M21.5025 20.4985H20.4984V21.5026H21.5025V20.4985Z" fill="#000001"/>
<path id="Vector_3" d="M21.5025 3.50146H20.4984V4.49896H21.5025V3.50146Z" fill="#000001"/>
<path id="Vector_4" d="M20.4984 21.5024H3.50156V22.4999H20.4984V21.5024Z" fill="#000001"/>
<path id="Vector_5" d="M18.5034 17.4993H5.50311V18.5033H18.5034V17.4993Z" fill="#000001"/>
<path id="Vector_6" d="M18.5034 13.5029H5.50311V14.5004H18.5034V13.5029Z" fill="#000001"/>
<path id="Vector_7" d="M18.5034 9.49976H13.5028V10.4973H18.5034V9.49976Z" fill="#000001"/>
<path id="Vector_8" d="M18.5034 6.50073H13.5028V7.49823H18.5034V6.50073Z" fill="#000001"/>
<path id="Vector_9" d="M6.50062 3.50156V10.4972H7.49812V9.49969H8.50218V8.50219H9.49969V9.49969H10.4972V10.4972H11.5012V3.50156H20.4984V2.4975H10.4972V1.5H4.49906V2.4975H2.4975V3.50156H6.50062ZM8.50218 2.4975H9.49969V3.50156H10.4972V5.50312H9.49969V3.50156H8.50218V2.4975Z" fill="#000001"/>
<path id="Vector_10" d="M3.50156 20.4985H2.4975V21.5026H3.50156V20.4985Z" fill="#000001"/>
<path id="Vector_11" d="M2.4975 3.50146H1.5V20.4983H2.4975V3.50146Z" fill="#000001"/>
</g>
</g>
</svg>
