<svg width="24" height="24" viewBox="0 0 24 24" fill="none" xmlns="http://www.w3.org/2000/svg">
<g id="interface-essential-move">
<g id="Group">
<path id="Vector" d="M21.4959 10.4972H20.4984V9.4997H19.5009V8.5022H18.4969V11.5013H14.5003V12.4988H18.4969V15.4978H19.5009V14.5003H20.4984V13.5028H21.4959V12.4988H22.5V11.5013H21.4959V10.4972Z" fill="#000001"/>
<path id="Vector_2" d="M12.4988 18.4968V14.5002H11.5013V18.4968H8.49564V19.5009H9.4997V20.4984H10.4972V21.5024H11.5013V22.4999H12.4988V21.5024H13.4963V20.4984H14.5003V19.5009H15.4978V18.4968H12.4988Z" fill="#000001"/>
<path id="Vector_3" d="M11.5013 1.5V2.4975H10.4972V3.50156H9.4997V4.49906H8.49564V5.50312H11.5013V9.49969H12.4988V5.50312H15.4978V4.49906H14.5003V3.50156H13.4963V2.4975H12.4988V1.5H11.5013Z" fill="#000001"/>
<path id="Vector_4" d="M4.49906 8.5022V9.4997H3.50156V10.4972H2.4975V11.5013H1.5V12.4988H2.4975V13.5028H3.50156V14.5003H4.49906V15.4978H5.49656V12.4988H9.49969V11.5013H5.49656V8.5022H4.49906Z" fill="#000001"/>
</g>
</g>
</svg>
