<svg width="24" height="24" viewBox="0 0 24 24" fill="none" xmlns="http://www.w3.org/2000/svg">
<g id="interface-essential-list">
<g id="Group">
<path id="Vector" d="M22.0013 17.0005H21.0038V19.0021H22.0013V17.0005Z" fill="#000001"/>
<path id="Vector_2" d="M22.0013 10.9958H21.0038V12.9974H22.0013V10.9958Z" fill="#000001"/>
<path id="Vector_3" d="M22.0013 4.9978H21.0038V6.99937H22.0013V4.9978Z" fill="#000001"/>
<path id="Vector_4" d="M21.0038 19.0022H9.00098V19.9997H21.0038V19.0022Z" fill="#000001"/>
<path id="Vector_5" d="M21.0038 12.9973H9.00098V14.0014H21.0038V12.9973Z" fill="#000001"/>
<path id="Vector_6" d="M21.0038 6.99927H9.00098V7.99677H21.0038V6.99927Z" fill="#000001"/>
<path id="Vector_7" d="M21.0038 15.9966H9.00098V17.0006H21.0038V15.9966Z" fill="#000001"/>
<path id="Vector_8" d="M21.0038 9.99829H9.00098V10.9958H21.0038V9.99829Z" fill="#000001"/>
<path id="Vector_9" d="M21.0038 4.00024H9.00098V4.99774H21.0038V4.00024Z" fill="#000001"/>
<path id="Vector_10" d="M9.00098 17.0005H8.00348V19.0021H9.00098V17.0005Z" fill="#000001"/>
<path id="Vector_11" d="M9.00098 10.9958H8.00348V12.9974H9.00098V10.9958Z" fill="#000001"/>
<path id="Vector_12" d="M9.00098 4.9978H8.00348V6.99937H9.00098V4.9978Z" fill="#000001"/>
<path id="Vector_13" d="M1.99878 19.0022H3.00284V19.9997H5.0044V19.0022H6.0019V17.0006H5.0044V15.9966H3.00284V17.0006H1.99878V19.0022Z" fill="#000001"/>
<path id="Vector_14" d="M1.99878 12.9974H3.00284V14.0014H5.0044V12.9974H6.0019V10.9958H5.0044V9.99829H3.00284V10.9958H1.99878V12.9974Z" fill="#000001"/>
<path id="Vector_15" d="M3.00284 4.99774H1.99878V6.99931H3.00284V7.99681H5.0044V6.99931H6.0019V4.99774H5.0044V4.00024H3.00284V4.99774Z" fill="#000001"/>
</g>
</g>
</svg>
