<svg width="24" height="24" viewBox="0 0 24 24" fill="none" xmlns="http://www.w3.org/2000/svg">
<g id="interface-essential-navigation-right-circle-2">
<g id="Group">
<path id="Vector" d="M2.4975 9.49976H1.5V14.5004H2.4975V9.49976Z" fill="#000001"/>
<path id="Vector_2" d="M3.50156 14.5002H2.4975V16.5018H3.50156V14.5002Z" fill="#000001"/>
<path id="Vector_3" d="M3.50156 7.49805H2.4975V9.49961H3.50156V7.49805Z" fill="#000001"/>
<path id="Vector_4" d="M4.49909 16.502H3.50159V18.497H4.49909V16.502Z" fill="#000001"/>
<path id="Vector_5" d="M4.49909 5.49658H3.50159V7.49814H4.49909V5.49658Z" fill="#000001"/>
<path id="Vector_6" d="M5.50315 18.4968H4.49908V19.5009H5.50315V18.4968Z" fill="#000001"/>
<path id="Vector_7" d="M5.50315 4.49902H4.49908V5.49652H5.50315V4.49902Z" fill="#000001"/>
<path id="Vector_8" d="M7.49811 19.501H5.50311V20.4985H7.49811V19.501Z" fill="#000001"/>
<path id="Vector_9" d="M17.4994 9.49979H16.5019V8.5023H15.4978V7.49823H14.5003V6.50073H13.5028V8.5023H7.49811V9.49979H6.50061V10.4973H5.50311V15.4979H6.50061V16.502H8.50218V17.4995H10.4972V16.502H9.49968V15.4979H8.50218V14.5004H9.49968V13.5029H13.5028V15.4979H14.5003V14.5004H15.4978V13.5029H16.5019V12.4989H17.4994V11.5014H18.5034V10.4973H17.4994V9.49979Z" fill="#000001"/>
<path id="Vector_10" d="M7.49811 3.50146H5.50311V4.49896H7.49811V3.50146Z" fill="#000001"/>
<path id="Vector_11" d="M9.49967 20.4985H7.49811V21.5026H9.49967V20.4985Z" fill="#000001"/>
<path id="Vector_12" d="M9.49967 2.49756H7.49811V3.50162H9.49967V2.49756Z" fill="#000001"/>
<path id="Vector_13" d="M14.5003 21.5024H9.49969V22.4999H14.5003V21.5024Z" fill="#000001"/>
<path id="Vector_14" d="M14.5003 1.5H9.49969V2.4975H14.5003V1.5Z" fill="#000001"/>
<path id="Vector_15" d="M16.5019 20.4985H14.5003V21.5026H16.5019V20.4985Z" fill="#000001"/>
<path id="Vector_16" d="M16.5019 2.49756H14.5003V3.50162H16.5019V2.49756Z" fill="#000001"/>
<path id="Vector_17" d="M18.5035 19.501H16.5019V20.4985H18.5035V19.501Z" fill="#000001"/>
<path id="Vector_18" d="M18.5035 3.50146H16.5019V4.49896H18.5035V3.50146Z" fill="#000001"/>
<path id="Vector_19" d="M19.5009 18.4968H18.5034V19.5009H19.5009V18.4968Z" fill="#000001"/>
<path id="Vector_20" d="M19.5009 4.49902H18.5034V5.49652H19.5009V4.49902Z" fill="#000001"/>
<path id="Vector_21" d="M20.4984 16.502H19.5009V18.497H20.4984V16.502Z" fill="#000001"/>
<path id="Vector_22" d="M20.4984 5.49658H19.5009V7.49814H20.4984V5.49658Z" fill="#000001"/>
<path id="Vector_23" d="M21.5025 14.5002H20.4984V16.5018H21.5025V14.5002Z" fill="#000001"/>
<path id="Vector_24" d="M21.5025 7.49805H20.4984V9.49961H21.5025V7.49805Z" fill="#000001"/>
<path id="Vector_25" d="M22.5 9.49976H21.5025V14.5004H22.5V9.49976Z" fill="#000001"/>
</g>
</g>
</svg>
