<svg width="24" height="24" viewBox="0 0 24 24" fill="none" xmlns="http://www.w3.org/2000/svg">
<g id="interface-essential-text-input-area-1">
<g id="Group">
<path id="Vector" d="M22.5 9.00415H21.5025V15.0023H22.5V9.00415Z" fill="#000001"/>
<path id="Vector_2" d="M21.5025 8H13.5028V9.00406H21.5025V8Z" fill="#000001"/>
<path id="Vector_3" d="M21.5025 15.0022H13.5028V15.9997H21.5025V15.0022Z" fill="#000001"/>
<path id="Vector_4" d="M14.5003 5.99854H12.4988V7.0026H14.5003V5.99854Z" fill="#000001"/>
<path id="Vector_5" d="M14.5003 17.0039H12.4988V18.0014H14.5003V17.0039Z" fill="#000001"/>
<path id="Vector_6" d="M12.4987 7.00269H11.5012V17.0039H12.4987V7.00269Z" fill="#000001"/>
<path id="Vector_7" d="M11.5013 5.99854H9.49969V7.0026H11.5013V5.99854Z" fill="#000001"/>
<path id="Vector_8" d="M11.5013 17.0039H9.49969V18.0014H11.5013V17.0039Z" fill="#000001"/>
<path id="Vector_9" d="M10.5038 15.0022H2.50409V15.9997H10.5038V15.0022Z" fill="#000001"/>
<path id="Vector_10" d="M6.50065 13.9983V13.0008H7.50471V12.0033H8.50221V10.9992H7.50471V10.0017H6.50065V10.9992H5.50315V10.0017H4.49909V10.9992H3.50159V12.0033H4.49909V13.0008H5.50315V13.9983H6.50065Z" fill="#000001"/>
<path id="Vector_11" d="M10.5038 8H2.50409V9.00406H10.5038V8Z" fill="#000001"/>
<path id="Vector_12" d="M2.50406 9.00415H1.5V15.0023H2.50406V9.00415Z" fill="#000001"/>
</g>
</g>
</svg>
