<svg width="24" height="24" viewBox="0 0 24 24" fill="none" xmlns="http://www.w3.org/2000/svg">
<g id="internet-network-computer-upload">
<g id="Group">
<path id="Vector" d="M20.5017 16.4954H3.50479V6.50073H2.50073V18.497H3.50479V19.501H9.50292V20.4985H10.5004V19.501H13.4995V20.4985H14.5035V19.501H20.5017V18.497H21.4992V6.50073H20.5017V16.4954Z" fill="#000001"/>
<path id="Vector_2" d="M20.5017 5.49658H16.5051V6.50064H20.5017V5.49658Z" fill="#000001"/>
<path id="Vector_3" d="M9.50287 21.496V20.4985H8.50537V22.5001H15.501V20.4985H14.5035V21.496H9.50287Z" fill="#000001"/>
<path id="Vector_4" d="M13.4994 11.5012H10.5004V12.4987H13.4994V11.5012Z" fill="#000001"/>
<path id="Vector_5" d="M13.4994 13.4963H10.5004V14.5004H13.4994V13.4963Z" fill="#000001"/>
<path id="Vector_6" d="M11.5044 1.5V2.4975H10.5004V3.50156H9.50287V4.49906H8.50537V5.49656H10.5004V10.4972H13.4994V5.49656H15.501V4.49906H14.5035V3.50156H13.4994V2.4975H12.5019V1.5H11.5044Z" fill="#000001"/>
<path id="Vector_7" d="M7.50132 5.49658H3.50476V6.50064H7.50132V5.49658Z" fill="#000001"/>
</g>
</g>
</svg>
