<svg width="24" height="24" viewBox="0 0 24 24" fill="none" xmlns="http://www.w3.org/2000/svg">
<g id="interface-essential-dial-pad-2">
<g id="Group">
<path id="Vector" d="M20.5017 12.4955V13.4996H21.4992V10.5005H20.5017V11.498H17.4961V10.5005H16.4986V13.4996H17.4961V12.4955H20.5017Z" fill="#000001"/>
<path id="Vector_2" d="M21.4992 3.49823H20.5017V2.50073H17.4961V3.49823H18.5002V4.49573H19.4977V5.49979H20.5017V6.49729H21.4992V3.49823Z" fill="#000001"/>
<path id="Vector_3" d="M20.5017 13.4995H17.4961V14.497H20.5017V13.4995Z" fill="#000001"/>
<path id="Vector_4" d="M20.5017 9.49634H17.4961V10.5004H20.5017V9.49634Z" fill="#000001"/>
<path id="Vector_5" d="M19.4977 5.49985H18.5002V4.49579H17.4961V3.49829H16.4986V6.49735H17.4961V7.49485H20.5017V6.49735H19.4977V5.49985Z" fill="#000001"/>
<path id="Vector_6" d="M12.502 18.5002V19.4977H13.4995V20.4952H14.497V17.4961H13.4995V18.5002H12.502Z" fill="#000001"/>
<path id="Vector_7" d="M14.497 10.5005H13.4995V11.498H12.502V12.4955H13.4995V13.4996H14.497V10.5005Z" fill="#000001"/>
<path id="Vector_8" d="M14.497 3.49823H13.4995V2.50073H10.5005V3.49823H9.4964V6.49729H10.5005V7.4948H13.4995V6.49729H14.497V3.49823ZM11.498 5.50308H10.5005V4.49573H11.498V5.50308ZM13.4995 5.50308H12.502V4.49573H13.4995V5.50308Z" fill="#000001"/>
<path id="Vector_9" d="M13.4996 20.4951H10.5005V21.4992H13.4996V20.4951Z" fill="#000001"/>
<path id="Vector_10" d="M13.4996 16.4985H10.5005V17.496H13.4996V16.4985Z" fill="#000001"/>
<path id="Vector_11" d="M12.5021 12.4954H11.498V13.4994H10.5005V14.4969H13.4996V13.4994H12.5021V12.4954Z" fill="#000001"/>
<path id="Vector_12" d="M11.498 11.4979H12.5021V10.5004H13.4996V9.49634H10.5005V10.5004H11.498V11.4979Z" fill="#000001"/>
<path id="Vector_13" d="M11.498 19.4977V18.5002H10.5005V17.4961H9.4964V20.4952H10.5005V19.4977H11.498Z" fill="#000001"/>
<path id="Vector_14" d="M11.498 12.4955V11.498H10.5005V10.5005H9.4964V13.4996H10.5005V12.4955H11.498Z" fill="#000001"/>
<path id="Vector_15" d="M6.49736 14.497V13.4995H5.49986V12.4954H6.49736V13.4995H7.50142V10.5004H6.49736V11.4979H5.49986V10.5004H6.49736V9.49634H3.49829V10.5004H4.49579V11.4979H3.49829V10.5004H2.50079V13.4995H3.49829V12.4954H4.49579V13.4995H3.49829V14.497H6.49736Z" fill="#000001"/>
<path id="Vector_16" d="M7.50142 3.49823H6.49736V2.50073H3.49829V3.49823H2.50079V6.49729H3.49829V7.4948H6.49736V6.49729H7.50142V3.49823ZM5.50314 5.50308H4.49579V4.49573H5.50314V5.50308Z" fill="#000001"/>
</g>
</g>
</svg>
