<svg width="24" height="24" viewBox="0 0 24 24" fill="none" xmlns="http://www.w3.org/2000/svg">
<g id="interface-essential-lock-shield">
<g id="Group">
<path id="Vector" d="M20.5017 4.49902H19.4977V15.4978H20.5017V4.49902Z" fill="#000001"/>
<path id="Vector_2" d="M19.4977 15.4978H18.5002V17.4994H19.4977V15.4978Z" fill="#000001"/>
<path id="Vector_3" d="M18.5002 17.4993H17.5027V18.5033H18.5002V17.4993Z" fill="#000001"/>
<path id="Vector_4" d="M19.4977 3.50146H17.5027V4.49896H19.4977V3.50146Z" fill="#000001"/>
<path id="Vector_5" d="M17.5027 18.5034H16.4986V19.5009H17.5027V18.5034Z" fill="#000001"/>
<path id="Vector_6" d="M17.5027 10.4971H16.4986V16.5018H17.5027V10.4971Z" fill="#000001"/>
<path id="Vector_7" d="M16.4986 19.501H15.5011V20.4985H16.4986V19.501Z" fill="#000001"/>
<path id="Vector_8" d="M16.4986 16.502H15.5011V17.4995H16.4986V16.502Z" fill="#000001"/>
<path id="Vector_9" d="M17.5027 2.49756H15.5011V3.50162H17.5027V2.49756Z" fill="#000001"/>
<path id="Vector_10" d="M15.5011 20.4985H13.4995V21.5026H15.5011V20.4985Z" fill="#000001"/>
<path id="Vector_11" d="M15.5011 17.4993H8.4989V18.5033H15.5011V17.4993Z" fill="#000001"/>
<path id="Vector_12" d="M13.4996 13.5028H12.5021V12.4987H11.498V11.5012H10.5005V12.4987H9.50299V14.5003H10.5005V15.4978H11.498V16.5018H12.5021V15.4978H13.4996V14.5003H14.5036V12.4987H13.4996V13.5028Z" fill="#000001"/>
<path id="Vector_13" d="M14.5036 4.49902H13.4995V5.50309H14.5036V4.49902Z" fill="#000001"/>
<path id="Vector_14" d="M13.4995 11.5012H12.502V12.4987H13.4995V11.5012Z" fill="#000001"/>
<path id="Vector_15" d="M13.4996 21.5024H10.5005V22.4999H13.4996V21.5024Z" fill="#000001"/>
<path id="Vector_16" d="M13.4996 3.50146H10.5005V4.49896H13.4996V3.50146Z" fill="#000001"/>
<path id="Vector_17" d="M10.5005 20.4985H8.4989V21.5026H10.5005V20.4985Z" fill="#000001"/>
<path id="Vector_18" d="M10.5005 4.49902H9.50299V5.50309H10.5005V4.49902Z" fill="#000001"/>
<path id="Vector_19" d="M15.5011 1.5H8.4989V2.4975H15.5011V1.5Z" fill="#000001"/>
<path id="Vector_20" d="M16.4986 10.4972V9.49974H15.5011V5.50317H14.5036V9.49974H9.50297V5.50317H8.4989V9.49974H7.5014V10.4972H16.4986Z" fill="#000001"/>
<path id="Vector_21" d="M8.4989 19.501H7.5014V20.4985H8.4989V19.501Z" fill="#000001"/>
<path id="Vector_22" d="M8.4989 16.502H7.5014V17.4995H8.4989V16.502Z" fill="#000001"/>
<path id="Vector_23" d="M8.49891 2.49756H6.50391V3.50162H8.49891V2.49756Z" fill="#000001"/>
<path id="Vector_24" d="M7.50141 18.5034H6.50391V19.5009H7.50141V18.5034Z" fill="#000001"/>
<path id="Vector_25" d="M7.50141 10.4971H6.50391V16.5018H7.50141V10.4971Z" fill="#000001"/>
<path id="Vector_26" d="M6.50394 17.4993H5.49988V18.5033H6.50394V17.4993Z" fill="#000001"/>
<path id="Vector_27" d="M6.50394 3.50146H4.50238V4.49896H6.50394V3.50146Z" fill="#000001"/>
<path id="Vector_28" d="M5.49988 15.4978H4.50238V17.4994H5.49988V15.4978Z" fill="#000001"/>
<path id="Vector_29" d="M4.50235 4.49902H3.49829V15.4978H4.50235V4.49902Z" fill="#000001"/>
</g>
</g>
</svg>
