<svg width="24" height="24" viewBox="0 0 24 24" fill="none" xmlns="http://www.w3.org/2000/svg">
<g id="interface-essential-dial-pad-finger-1">
<g id="Group">
<path id="Vector" d="M22.5 14.0017H21.5025V19.0023H22.5V14.0017Z" fill="#000001"/>
<path id="Vector_2" d="M21.5025 19.0022H20.4984V19.9997H21.5025V19.0022Z" fill="#000001"/>
<path id="Vector_3" d="M21.5025 12.9976H20.4984V14.0016H21.5025V12.9976Z" fill="#000001"/>
<path id="Vector_4" d="M20.4984 19.9998H19.5009V22.0013H20.4984V19.9998Z" fill="#000001"/>
<path id="Vector_5" d="M20.4984 9.99857H19.5009V9.00107H16.5019V9.99857H15.5044V6.99951H14.5003V12.0001H19.5009V12.9976H20.4984V9.99857Z" fill="#000001"/>
<path id="Vector_6" d="M18.5035 12.9976H17.4994V16.0032H18.5035V12.9976Z" fill="#000001"/>
<path id="Vector_7" d="M19.5009 6.9994V6.0019H20.4984V3.00284H19.5009V1.99878H16.5019V3.00284H15.5044V6.0019H16.5019V6.9994H19.5009Z" fill="#000001"/>
<path id="Vector_8" d="M15.5044 12.9976H14.5003V16.0032H15.5044V12.9976Z" fill="#000001"/>
<path id="Vector_9" d="M14.5003 6.00195H12.4987V6.99945H14.5003V6.00195Z" fill="#000001"/>
<path id="Vector_10" d="M12.4988 19.0022H11.5013V22.0013H12.4988V19.0022Z" fill="#000001"/>
<path id="Vector_11" d="M11.5013 9.00107H9.4997V9.99857H8.5022V17.0008H9.4997V12.9976H11.5013V14.9992H12.4988V6.99951H11.5013V9.00107Z" fill="#000001"/>
<path id="Vector_12" d="M11.5013 17.998H10.5038V19.0021H11.5013V17.998Z" fill="#000001"/>
<path id="Vector_13" d="M10.5038 17.0007H9.49969V17.9982H10.5038V17.0007Z" fill="#000001"/>
<path id="Vector_14" d="M10.5038 6.9994V6.0019H11.5013V4.99784H13.5028V3.00284H12.4988V1.99878H9.4997V3.00284H8.5022V6.0019H9.4997V6.9994H10.5038Z" fill="#000001"/>
<path id="Vector_15" d="M2.50406 21.0038H5.50312V19.9997H6.50062V17.0007H5.50312V16.0032H2.50406V17.0007H1.5V19.9997H2.50406V21.0038Z" fill="#000001"/>
<path id="Vector_16" d="M2.50406 14.0016H5.50312V12.9975H6.50062V9.99848H5.50312V9.00098H2.50406V9.99848H1.5V12.9975H2.50406V14.0016Z" fill="#000001"/>
<path id="Vector_17" d="M2.50406 6.9994H5.50312V6.0019H6.50062V3.00284H5.50312V1.99878H2.50406V3.00284H1.5V6.0019H2.50406V6.9994Z" fill="#000001"/>
</g>
</g>
</svg>
