<svg width="24" height="24" viewBox="0 0 24 24" fill="none" xmlns="http://www.w3.org/2000/svg">
<g id="interface-essential-map">
<g id="Group">
<path id="Vector" d="M21.4959 19.4976H20.4984V20.5017H15.4978V16.4985H14.5003V20.5017H11.5012V19.4976H10.4972V20.5017H3.50156V19.4976H2.4975V20.5017H1.5V21.4992H22.5V20.5017H21.4959V19.4976Z" fill="#000001"/>
<path id="Vector_2" d="M20.4984 17.5027H19.5009V19.4977H20.4984V17.5027Z" fill="#000001"/>
<path id="Vector_3" d="M19.501 15.501H18.4969V17.5025H19.501V15.501Z" fill="#000001"/>
<path id="Vector_4" d="M16.4953 14.5036V15.5011H18.4969V13.4995H17.4994V14.5036H16.4953Z" fill="#000001"/>
<path id="Vector_5" d="M16.4953 15.501H15.4978V16.4985H16.4953V15.501Z" fill="#000001"/>
<path id="Vector_6" d="M10.4972 18.5H8.49561V19.4975H10.4972V18.5Z" fill="#000001"/>
<path id="Vector_7" d="M10.4972 15.501H9.49969V16.4985H10.4972V15.501Z" fill="#000001"/>
<path id="Vector_8" d="M9.49967 16.4985H8.49561V17.5026H9.49967V16.4985Z" fill="#000001"/>
<path id="Vector_9" d="M8.49564 17.5027H5.49658V18.5002H8.49564V17.5027Z" fill="#000001"/>
<path id="Vector_10" d="M11.5012 13.4995V14.5035H10.4972V15.501H11.5012V17.5026H12.4987V15.501H13.4962V14.5035H12.4987V13.4995H13.4962V14.5035H14.5003V13.4995H17.4994V12.502H12.4987V9.5062H13.4962V8.50214H14.5003V7.50136H15.4978V4.50229H14.5003V3.49823H13.4962V2.50073H10.4972V3.49823H9.49967V4.50229H8.49561V7.50136H9.49967V8.49886H10.4972V9.5062H11.5012V12.5053H6.50061V13.5028L11.5012 13.4995ZM11.5012 4.50229H13.4962V6.50386H12.4987V5.50308H11.5012V4.50229Z" fill="#000001"/>
<path id="Vector_11" d="M6.50064 13.4995H5.49658V15.5011H6.50064V13.4995Z" fill="#000001"/>
<path id="Vector_12" d="M5.49658 15.501H4.49908V17.5025H5.49658V15.501Z" fill="#000001"/>
<path id="Vector_13" d="M4.49909 17.5027H3.50159V19.4977H4.49909V17.5027Z" fill="#000001"/>
</g>
</g>
</svg>
