<svg width="24" height="24" viewBox="0 0 24 24" fill="none" xmlns="http://www.w3.org/2000/svg">
<g id="interface-essential-text-format-1">
<g id="Group">
<path id="Vector" d="M22.5 18.5034H21.5025V21.5025H22.5V18.5034Z" fill="#000001"/>
<path id="Vector_2" d="M22.5 2.49756H21.5025V5.50318H22.5V2.49756Z" fill="#000001"/>
<path id="Vector_3" d="M21.5025 21.5024H18.5034V22.4999H21.5025V21.5024Z" fill="#000001"/>
<path id="Vector_4" d="M18.5034 5.50317V6.50067H19.5009V17.4994H18.5034V18.5035H21.5025V17.4994H20.4984V6.50067H21.5025V5.50317H18.5034Z" fill="#000001"/>
<path id="Vector_5" d="M21.5025 1.5H18.5034V2.4975H21.5025V1.5Z" fill="#000001"/>
<path id="Vector_6" d="M18.5034 18.5034H17.4994V19.5009H6.50061V18.5034H5.50311V21.5025H6.50061V20.4984H17.4994V21.5025H18.5034V18.5034Z" fill="#000001"/>
<path id="Vector_7" d="M16.5019 7.49805H15.4978V9.49961H16.5019V7.49805Z" fill="#000001"/>
<path id="Vector_8" d="M8.5022 6.50073V7.49823H11.5013V16.502H9.4997V17.4995H14.5003V16.502H12.4988V7.49823H15.4978V6.50073H8.5022Z" fill="#000001"/>
<path id="Vector_9" d="M8.5022 7.49805H7.49814V9.49961H8.5022V7.49805Z" fill="#000001"/>
<path id="Vector_10" d="M5.50311 5.50318H6.50061V4.49912H17.4994V5.50318H18.5034V2.49756H17.4994V3.50162H6.50061V2.49756H5.50311V5.50318Z" fill="#000001"/>
<path id="Vector_11" d="M5.50312 21.5024H2.4975V22.4999H5.50312V21.5024Z" fill="#000001"/>
<path id="Vector_12" d="M5.50312 18.5035V17.4994H4.49906V6.50067H5.50312V5.50317H2.4975V6.50067H3.50156V17.4994H2.4975V18.5035H5.50312Z" fill="#000001"/>
<path id="Vector_13" d="M5.50312 1.5H2.4975V2.4975H5.50312V1.5Z" fill="#000001"/>
<path id="Vector_14" d="M2.4975 18.5034H1.5V21.5025H2.4975V18.5034Z" fill="#000001"/>
<path id="Vector_15" d="M2.4975 2.49756H1.5V5.50318H2.4975V2.49756Z" fill="#000001"/>
</g>
</g>
</svg>
