<svg width="24" height="24" viewBox="0 0 24 24" fill="none" xmlns="http://www.w3.org/2000/svg">
<g id="internet-network-laptop">
<g id="Group">
<path id="Vector" d="M21.998 20.4985H13.0009V21.5026H21.998V20.4985Z" fill="#000001"/>
<path id="Vector_2" d="M18.999 10.4971H18.0015V12.4986H18.999V10.4971Z" fill="#000001"/>
<path id="Vector_3" d="M13.9984 5.49658H13.0009V6.50064H13.9984V5.49658Z" fill="#000001"/>
<path id="Vector_4" d="M13.0008 21.5024H10.0017V22.4999H13.0008V21.5024Z" fill="#000001"/>
<path id="Vector_5" d="M13.0009 20.4985V19.501H12.0034V16.5019H18.999V15.4978H20.0031V12.4988H18.999V14.5003H4.0037V12.4988H2.99963V15.4978H4.0037V16.5019H10.9993V19.501H10.0018V20.4985H13.0009Z" fill="#000001"/>
<path id="Vector_6" d="M13.0008 12.4988H10.0017V13.4963H13.0008V12.4988Z" fill="#000001"/>
<path id="Vector_7" d="M12.0033 5.49658H10.9993V6.50064H12.0033V5.49658Z" fill="#000001"/>
<path id="Vector_8" d="M10.0018 20.4985H2.00208V21.5026H10.0018V20.4985Z" fill="#000001"/>
<path id="Vector_9" d="M10.0017 5.49658H8.99768V6.50064H10.0017V5.49658Z" fill="#000001"/>
<path id="Vector_10" d="M16.9974 1.5H5.99866V2.4975H16.9974V1.5Z" fill="#000001"/>
<path id="Vector_11" d="M18.0014 10.4972V2.49756H16.9973V9.49975H5.9986V2.49756H5.0011V10.4972H18.0014Z" fill="#000001"/>
<path id="Vector_12" d="M5.00116 10.4971H4.00366V12.4986H5.00116V10.4971Z" fill="#000001"/>
</g>
</g>
</svg>
