<svg width="24" height="24" viewBox="0 0 24 24" fill="none" xmlns="http://www.w3.org/2000/svg">
<g id="interface-essential-zoom-in-page">
<g id="Group">
<path id="Vector" d="M22.5 7.49805H21.5025V10.4971H22.5V7.49805Z" fill="#000001"/>
<path id="Vector_2" d="M22.5 2.49756H21.5025V5.49662H22.5V2.49756Z" fill="#000001"/>
<path id="Vector_3" d="M21.5025 18.497H20.4984V17.4995H19.5009V16.502H18.5034V18.497H16.5019V19.501H17.4994V20.4985H18.5034V21.5026H19.5009V22.5001H21.5025V21.5026H22.5V19.501H21.5025V18.497Z" fill="#000001"/>
<path id="Vector_4" d="M21.5025 1.5H18.5034V2.4975H21.5025V1.5Z" fill="#000001"/>
<path id="Vector_5" d="M20.4984 13.4963H19.5009V16.502H20.4984V13.4963Z" fill="#000001"/>
<path id="Vector_6" d="M19.5009 11.5012H18.5034V13.4962H19.5009V11.5012Z" fill="#000001"/>
<path id="Vector_7" d="M17.4994 14.5003H15.5044V12.4988H14.5003V14.5003H12.4987V15.4978H14.5003V17.4994H15.5044V15.4978H17.4994V14.5003Z" fill="#000001"/>
<path id="Vector_8" d="M18.5034 10.4971H16.5019V11.5011H18.5034V10.4971Z" fill="#000001"/>
<path id="Vector_9" d="M16.5019 19.501H13.5028V20.4985H16.5019V19.501Z" fill="#000001"/>
<path id="Vector_10" d="M16.5019 9.49976H13.5028V10.4973H16.5019V9.49976Z" fill="#000001"/>
<path id="Vector_11" d="M16.5019 1.5H13.5028V2.4975H16.5019V1.5Z" fill="#000001"/>
<path id="Vector_12" d="M13.5028 18.4968H11.5013V19.5009H13.5028V18.4968Z" fill="#000001"/>
<path id="Vector_13" d="M13.5028 10.4971H11.5013V11.5011H13.5028V10.4971Z" fill="#000001"/>
<path id="Vector_14" d="M11.5013 16.502H10.5038V18.497H11.5013V16.502Z" fill="#000001"/>
<path id="Vector_15" d="M11.5013 11.5012H10.5038V13.4962H11.5013V11.5012Z" fill="#000001"/>
<path id="Vector_16" d="M10.5038 13.4963H9.49969V16.502H10.5038V13.4963Z" fill="#000001"/>
<path id="Vector_17" d="M10.5038 21.5024H7.5047V22.4999H10.5038V21.5024Z" fill="#000001"/>
<path id="Vector_18" d="M10.5038 1.5H7.5047V2.4975H10.5038V1.5Z" fill="#000001"/>
<path id="Vector_19" d="M5.50312 21.5024H2.50406V22.4999H5.50312V21.5024Z" fill="#000001"/>
<path id="Vector_20" d="M5.50312 1.5H2.50406V2.4975H5.50312V1.5Z" fill="#000001"/>
<path id="Vector_21" d="M2.50406 18.4968H1.5V21.5025H2.50406V18.4968Z" fill="#000001"/>
<path id="Vector_22" d="M2.50406 13.4963H1.5V16.502H2.50406V13.4963Z" fill="#000001"/>
<path id="Vector_23" d="M2.50406 7.49805H1.5V10.4971H2.50406V7.49805Z" fill="#000001"/>
<path id="Vector_24" d="M2.50406 2.49756H1.5V5.49662H2.50406V2.49756Z" fill="#000001"/>
</g>
</g>
</svg>
