<svg width="24" height="24" viewBox="0 0 24 24" fill="none" xmlns="http://www.w3.org/2000/svg">
<g id="interface-essential-cog-search">
<g id="Group">
<path id="Vector" d="M21.0037 17.0007H19.9997V15.9966H19.0022V14.9991H17.9981V12.9976H17.0006V14.9991H16.0031V15.9966H14.999V17.0007H13.004V17.9982H14.999V18.9957H16.0031V19.9997H17.0006V20.9972H17.9981V22.0013H21.0037V20.9972H22.0012V17.9982H21.0037V17.0007ZM21.0037 19.9997H19.9997V18.9957H19.0022V17.9982H17.9981V17.0007H19.0022V17.9982H19.9997V18.9957H21.0037V19.9997Z" fill="#000001"/>
<path id="Vector_2" d="M19.0022 7.99683H17.9981V12.9975H19.0022V7.99683Z" fill="#000001"/>
<path id="Vector_3" d="M17.9981 5.99536H17.0006V7.99692H17.9981V5.99536Z" fill="#000001"/>
<path id="Vector_4" d="M17.0006 4.9978H16.0031V5.9953H17.0006V4.9978Z" fill="#000001"/>
<path id="Vector_5" d="M16.0031 12.9976H14.999V13.9951H16.0031V12.9976Z" fill="#000001"/>
<path id="Vector_6" d="M16.0031 9.99848V10.996H14.999V12H17.0006V9.00098H14.999V9.99848H16.0031Z" fill="#000001"/>
<path id="Vector_7" d="M16.0031 6.99951H14.999V7.99701H16.0031V6.99951Z" fill="#000001"/>
<path id="Vector_8" d="M16.0031 4.00024H14.999V4.99774H16.0031V4.00024Z" fill="#000001"/>
<path id="Vector_9" d="M14.999 13.9951H14.0015V14.9992H14.999V13.9951Z" fill="#000001"/>
<path id="Vector_10" d="M14.999 12H14.0015V12.9975H14.999V12Z" fill="#000001"/>
<path id="Vector_11" d="M14.999 7.99683H14.0015V9.00089H14.999V7.99683Z" fill="#000001"/>
<path id="Vector_12" d="M14.999 5.99536H14.0015V6.99942H14.999V5.99536Z" fill="#000001"/>
<path id="Vector_13" d="M14.0015 14.999H13.004V15.9965H14.0015V14.999Z" fill="#000001"/>
<path id="Vector_14" d="M14.0015 4.9978H13.004V5.9953H14.0015V4.9978Z" fill="#000001"/>
<path id="Vector_15" d="M14.999 2.99634H13.004V4.0004H14.999V2.99634Z" fill="#000001"/>
<path id="Vector_16" d="M13.004 13.9951H11.9999V14.9992H13.004V13.9951Z" fill="#000001"/>
<path id="Vector_17" d="M13.004 9.00098H11.9999V12H13.004V9.00098Z" fill="#000001"/>
<path id="Vector_18" d="M13.004 5.99536H11.9999V6.99942H13.004V5.99536Z" fill="#000001"/>
<path id="Vector_19" d="M13.004 17.998H8.00342V18.9955H13.004V17.998Z" fill="#000001"/>
<path id="Vector_20" d="M11.0025 15.9965H9.99842V14.999H9.00092V17.0006H12V14.999H11.0025V15.9965Z" fill="#000001"/>
<path id="Vector_21" d="M12 12H9.00092V12.9975H12V12Z" fill="#000001"/>
<path id="Vector_22" d="M12 7.99683H9.00092V9.00089H12V7.99683Z" fill="#000001"/>
<path id="Vector_23" d="M9.99842 4.99774H11.0025V5.99524H12V4.00024H9.00092V5.99524H9.99842V4.99774Z" fill="#000001"/>
<path id="Vector_24" d="M13.004 1.99878H8.00342V2.99628H13.004V1.99878Z" fill="#000001"/>
<path id="Vector_25" d="M9.00092 13.9951H8.00342V14.9992H9.00092V13.9951Z" fill="#000001"/>
<path id="Vector_26" d="M9.00092 9.00098H8.00342V12H9.00092V9.00098Z" fill="#000001"/>
<path id="Vector_27" d="M9.00092 5.99536H8.00342V6.99942H9.00092V5.99536Z" fill="#000001"/>
<path id="Vector_28" d="M8.00339 17.0007H6.00183V17.9982H8.00339V17.0007Z" fill="#000001"/>
<path id="Vector_29" d="M8.00339 14.999H6.99933V15.9965H8.00339V14.999Z" fill="#000001"/>
<path id="Vector_30" d="M8.00339 4.9978H6.99933V5.9953H8.00339V4.9978Z" fill="#000001"/>
<path id="Vector_31" d="M8.00339 2.99634H6.00183V4.0004H8.00339V2.99634Z" fill="#000001"/>
<path id="Vector_32" d="M6.99933 13.9951H6.00183V14.9992H6.99933V13.9951Z" fill="#000001"/>
<path id="Vector_33" d="M6.99933 12H6.00183V12.9975H6.99933V12Z" fill="#000001"/>
<path id="Vector_34" d="M6.99933 7.99683H6.00183V9.00089H6.99933V7.99683Z" fill="#000001"/>
<path id="Vector_35" d="M6.99933 5.99536H6.00183V6.99942H6.99933V5.99536Z" fill="#000001"/>
<path id="Vector_36" d="M6.00183 15.9966H5.00433V17.0006H6.00183V15.9966Z" fill="#000001"/>
<path id="Vector_37" d="M6.00183 12.9976H5.00433V13.9951H6.00183V12.9976Z" fill="#000001"/>
<path id="Vector_38" d="M5.00437 10.996V9.99848H6.00187V9.00098H4.00031V12H6.00187V10.996H5.00437Z" fill="#000001"/>
<path id="Vector_39" d="M6.00183 6.99951H5.00433V7.99701H6.00183V6.99951Z" fill="#000001"/>
<path id="Vector_40" d="M6.00183 4.00024H5.00433V4.99774H6.00183V4.00024Z" fill="#000001"/>
<path id="Vector_41" d="M5.00437 14.999H4.00031V15.9965H5.00437V14.999Z" fill="#000001"/>
<path id="Vector_42" d="M5.00437 4.9978H4.00031V5.9953H5.00437V4.9978Z" fill="#000001"/>
<path id="Vector_43" d="M4.00031 12.9976H3.00281V14.9991H4.00031V12.9976Z" fill="#000001"/>
<path id="Vector_44" d="M4.00031 5.99536H3.00281V7.99692H4.00031V5.99536Z" fill="#000001"/>
<path id="Vector_45" d="M3.00278 7.99683H1.99872V12.9975H3.00278V7.99683Z" fill="#000001"/>
</g>
</g>
</svg>
