<svg width="24" height="24" viewBox="0 0 24 24" fill="none" xmlns="http://www.w3.org/2000/svg">
<g id="interface-essential-voice-id">
<g id="Group">
<path id="Vector" d="M22.5 18.4968H21.5025V21.5025H22.5V18.4968Z" fill="#000001"/>
<path id="Vector_2" d="M22.5 2.49756H21.5025V5.49662H22.5V2.49756Z" fill="#000001"/>
<path id="Vector_3" d="M21.5025 10.4973H20.4984V9.49979H19.5009V11.5014H18.5034V8.5023H17.4994V7.49823H16.5019V10.4973H15.5044V11.5014H14.5003V9.49979H13.5028V8.5023H12.4988V6.50073H11.5012V7.49823H10.5038V9.49979H9.49969V11.5014H8.50219V7.49823H7.50469V8.5023H6.50062V9.49979H5.50312V11.5014H4.49906V10.4973H3.50156V9.49979H2.50406V11.5014H1.5V12.4989H2.50406V14.5004H3.50156V13.4964H4.49906V12.4989H5.50312V13.4964H6.50062V15.4979H7.50469V16.502H8.50219V12.4989H9.49969V14.5004H10.5038V16.502H11.5012V17.4995H12.4988V15.4979H13.5028V13.4964H14.5003V12.4989H15.5044V13.4964H16.5019V16.502H17.4994V15.4979H18.5034V12.4989H19.5009V14.5004H20.4984V13.4964H21.5025V12.4989H22.5V11.5014H21.5025V10.4973Z" fill="#000001"/>
<path id="Vector_4" d="M21.5025 1.5H18.5034V2.4975H21.5025V1.5Z" fill="#000001"/>
<path id="Vector_5" d="M21.5025 21.5024H18.5034V22.4999H21.5025V21.5024Z" fill="#000001"/>
<path id="Vector_6" d="M5.50312 21.5024H2.50406V22.4999H5.50312V21.5024Z" fill="#000001"/>
<path id="Vector_7" d="M5.50312 1.5H2.50406V2.4975H5.50312V1.5Z" fill="#000001"/>
<path id="Vector_8" d="M2.50406 18.4968H1.5V21.5025H2.50406V18.4968Z" fill="#000001"/>
<path id="Vector_9" d="M2.50406 2.49756H1.5V5.49662H2.50406V2.49756Z" fill="#000001"/>
</g>
</g>
</svg>
