<svg width="24" height="24" viewBox="0 0 24 24" fill="none" xmlns="http://www.w3.org/2000/svg">
<g id="interface-essential-hierarchy-files">
<g id="Group">
<path id="Vector" d="M14.9991 1.5V2.4975H14.0016V3.50156H12.9975V6.50062H11.0025V7.49813H12.9975V10.4972H19.9997V1.5H14.9991ZM19.0022 9.49969H14.0016V4.49906H15.9966V2.4975H19.0022V9.49969Z" fill="#000001"/>
<path id="Vector_2" d="M14.9991 13.5029V14.5004H14.0016V15.4979H12.9975V18.497H11.0025V19.5011H12.9975V22.5001H19.9997V13.5029H14.9991ZM19.0022 21.5026H14.0016V16.502H15.9966V14.5004H19.0022V21.5026Z" fill="#000001"/>
<path id="Vector_3" d="M17.9981 17.4993H17.0006V18.4968H17.9981V17.4993Z" fill="#000001"/>
<path id="Vector_4" d="M17.9981 5.49658H17.0006V6.50064H17.9981V5.49658Z" fill="#000001"/>
<path id="Vector_5" d="M17.9981 19.501H14.9991V20.4985H17.9981V19.501Z" fill="#000001"/>
<path id="Vector_6" d="M17.9981 7.49805H14.9991V8.50211H17.9981V7.49805Z" fill="#000001"/>
<path id="Vector_7" d="M15.9966 17.4993H14.9991V18.4968H15.9966V17.4993Z" fill="#000001"/>
<path id="Vector_8" d="M15.9966 5.49658H14.9991V6.50064H15.9966V5.49658Z" fill="#000001"/>
<path id="Vector_9" d="M9.99845 18.4968H7.99689V19.5009H9.99845V18.4968Z" fill="#000001"/>
<path id="Vector_10" d="M9.99845 6.50073H7.99689V7.49823H9.99845V6.50073Z" fill="#000001"/>
<path id="Vector_11" d="M6.99937 18.4968H4.9978V19.5009H6.99937V18.4968Z" fill="#000001"/>
<path id="Vector_12" d="M4.99781 5.49658H4.00031V8.50221H4.99781V7.49814H6.99937V6.50064H4.99781V5.49658Z" fill="#000001"/>
<path id="Vector_13" d="M4.99781 17.4993H4.00031V18.4968H4.99781V17.4993Z" fill="#000001"/>
<path id="Vector_14" d="M4.99781 13.5029H4.00031V16.502H4.99781V13.5029Z" fill="#000001"/>
<path id="Vector_15" d="M4.99781 9.49976H4.00031V12.4988H4.99781V9.49976Z" fill="#000001"/>
<path id="Vector_16" d="M4.99781 1.5H4.00031V4.49906H4.99781V1.5Z" fill="#000001"/>
</g>
</g>
</svg>
