<svg width="24" height="24" viewBox="0 0 24 24" fill="none" xmlns="http://www.w3.org/2000/svg">
<g id="interface-essential-microphone">
<g id="Group">
<path id="Vector" d="M18.5001 8.50209H17.4961V3.50146H16.4986V12.4987H7.50138V3.50146H6.49732V8.50209H5.5031V7.49803H4.50232V15.4977H5.5031V9.49959H6.5006V14.5002H7.50466V15.4977H8.50216V16.5018H10.5037V17.4993H7.50138V18.4968H10.5004V19.5008H6.49732V20.4983H17.4961V19.5008H13.4995V18.4968H16.4986V17.4993H13.4995V16.5018H15.5011V15.4977H16.4986V14.5002H17.4961V9.49959H18.5001V15.4977H19.4976V7.49803H18.5001V8.50209ZM12.502 19.5008H11.4979V16.5018H12.502V19.5008Z" fill="#000001"/>
<path id="Vector_2" d="M18.5002 15.4978H17.4961V16.5019H18.5002V15.4978Z" fill="#000001"/>
<path id="Vector_3" d="M6.49732 21.5026V20.4985H5.49982V21.5026H4.50232V22.5001H19.4976V21.5026H18.5001V20.4985H17.4961V21.5026H6.49732Z" fill="#000001"/>
<path id="Vector_4" d="M17.4961 16.502H16.4986V17.4995H17.4961V16.502Z" fill="#000001"/>
<path id="Vector_5" d="M16.4986 2.49756H15.5011V3.50162H16.4986V2.49756Z" fill="#000001"/>
<path id="Vector_6" d="M15.5011 8.5022H14.497V9.4997H15.5011V8.5022Z" fill="#000001"/>
<path id="Vector_7" d="M15.5011 4.49902H14.497V5.50309H15.5011V4.49902Z" fill="#000001"/>
<path id="Vector_8" d="M14.497 10.4971H13.4995V11.5011H14.497V10.4971Z" fill="#000001"/>
<path id="Vector_9" d="M14.497 6.50073H13.4995V7.49823H14.497V6.50073Z" fill="#000001"/>
<path id="Vector_10" d="M12.502 8.5022H11.4979V9.4997H12.502V8.5022Z" fill="#000001"/>
<path id="Vector_11" d="M12.502 4.49902H11.4979V5.50309H12.502V4.49902Z" fill="#000001"/>
<path id="Vector_12" d="M10.5005 10.4971H9.4964V11.5011H10.5005V10.4971Z" fill="#000001"/>
<path id="Vector_13" d="M10.5005 6.50073H9.4964V7.49823H10.5005V6.50073Z" fill="#000001"/>
<path id="Vector_14" d="M15.5011 1.5H8.4989V2.4975H15.5011V1.5Z" fill="#000001"/>
<path id="Vector_15" d="M9.4964 8.5022H8.4989V9.4997H9.4964V8.5022Z" fill="#000001"/>
<path id="Vector_16" d="M9.4964 4.49902H8.4989V5.50309H9.4964V4.49902Z" fill="#000001"/>
<path id="Vector_17" d="M8.4989 2.49756H7.5014V3.50162H8.4989V2.49756Z" fill="#000001"/>
<path id="Vector_18" d="M7.50138 16.502H6.49731V17.4995H7.50138V16.502Z" fill="#000001"/>
<path id="Vector_19" d="M6.49732 15.4978H5.49982V16.5019H6.49732V15.4978Z" fill="#000001"/>
</g>
</g>
</svg>
