<svg width="24" height="24" viewBox="0 0 24 24" fill="none" xmlns="http://www.w3.org/2000/svg">
<g id="interface-essential-reflect-down">
<g id="Group">
<path id="Vector" d="M22.0012 20.5049H20.9971V21.5024H22.0012V20.5049Z" fill="#000001"/>
<path id="Vector_2" d="M22.0012 2.50415H20.9971V3.50165H22.0012V2.50415Z" fill="#000001"/>
<path id="Vector_3" d="M20.9971 19.501H19.9996V20.505H20.9971V19.501Z" fill="#000001"/>
<path id="Vector_4" d="M22.0012 11.5012H9.00092V12.4987H22.0012V11.5012Z" fill="#000001"/>
<path id="Vector_5" d="M20.9971 3.50146H19.9996V4.49896H20.9971V3.50146Z" fill="#000001"/>
<path id="Vector_6" d="M20.9972 21.5024H9.99841V22.4999H20.9972V21.5024Z" fill="#000001"/>
<path id="Vector_7" d="M19.9996 18.5034H19.0021V19.5009H19.9996V18.5034Z" fill="#000001"/>
<path id="Vector_8" d="M19.9996 4.49902H19.0021V5.50309H19.9996V4.49902Z" fill="#000001"/>
<path id="Vector_9" d="M19.0022 17.4993H17.9981V18.5033H19.0022V17.4993Z" fill="#000001"/>
<path id="Vector_10" d="M19.0022 5.50317H17.9981V6.50067H19.0022V5.50317Z" fill="#000001"/>
<path id="Vector_11" d="M17.9981 16.502H17.0006V17.4995H17.9981V16.502Z" fill="#000001"/>
<path id="Vector_12" d="M17.9981 6.50073H17.0006V7.50479H17.9981V6.50073Z" fill="#000001"/>
<path id="Vector_13" d="M17.0006 15.5044H15.9965V16.5019H17.0006V15.5044Z" fill="#000001"/>
<path id="Vector_14" d="M17.0006 7.50464H15.9965V8.50214H17.0006V7.50464Z" fill="#000001"/>
<path id="Vector_15" d="M15.9965 14.5002H14.999V15.5043H15.9965V14.5002Z" fill="#000001"/>
<path id="Vector_16" d="M15.9965 8.5022H14.999V9.4997H15.9965V8.5022Z" fill="#000001"/>
<path id="Vector_17" d="M14.999 15.5044H14.0015V16.5019H14.999V15.5044Z" fill="#000001"/>
<path id="Vector_18" d="M14.999 7.50464H14.0015V8.50214H14.999V7.50464Z" fill="#000001"/>
<path id="Vector_19" d="M14.0016 16.502H12.9975V17.4995H14.0016V16.502Z" fill="#000001"/>
<path id="Vector_20" d="M14.0016 6.50073H12.9975V7.50479H14.0016V6.50073Z" fill="#000001"/>
<path id="Vector_21" d="M12.9974 17.4993H11.9999V18.5033H12.9974V17.4993Z" fill="#000001"/>
<path id="Vector_22" d="M12.9974 5.50317H11.9999V6.50067H12.9974V5.50317Z" fill="#000001"/>
<path id="Vector_23" d="M11.9999 18.5034H11.0024V19.5009H11.9999V18.5034Z" fill="#000001"/>
<path id="Vector_24" d="M11.9999 4.49902H11.0024V5.50309H11.9999V4.49902Z" fill="#000001"/>
<path id="Vector_25" d="M20.9972 1.5H9.99841V2.50406H20.9972V1.5Z" fill="#000001"/>
<path id="Vector_26" d="M11.0025 19.501H9.99841V20.505H11.0025V19.501Z" fill="#000001"/>
<path id="Vector_27" d="M11.0025 3.50146H9.99841V4.49896H11.0025V3.50146Z" fill="#000001"/>
<path id="Vector_28" d="M9.99842 20.5049H9.00092V21.5024H9.99842V20.5049Z" fill="#000001"/>
<path id="Vector_29" d="M9.99842 2.50415H9.00092V3.50165H9.99842V2.50415Z" fill="#000001"/>
<path id="Vector_30" d="M6.00187 19.501V18.5035H6.99937V17.4994H7.99687V16.5019H9.00093V15.5044H7.99687V14.5003H6.99937V13.5028H6.00187V12.4988H4.99781V15.5044H4.00031V16.5019H4.99781V19.501H6.00187Z" fill="#000001"/>
<path id="Vector_31" d="M6.00187 6.50073H4.00031V7.50479H6.00187V6.50073Z" fill="#000001"/>
<path id="Vector_32" d="M4.00031 14.5002H3.00281V15.5043H4.00031V14.5002Z" fill="#000001"/>
<path id="Vector_33" d="M4.00031 7.50464H3.00281V8.50214H4.00031V7.50464Z" fill="#000001"/>
<path id="Vector_34" d="M3.00278 8.5022H1.99872V14.5003H3.00278V8.5022Z" fill="#000001"/>
</g>
</g>
</svg>
