<svg width="24" height="24" viewBox="0 0 24 24" fill="none" xmlns="http://www.w3.org/2000/svg">
<g id="interface-essential-protect-guard">
<g id="Group">
<path id="Vector" d="M20.4984 4.49902H19.5009V15.4978H20.4984V4.49902Z" fill="#000001"/>
<path id="Vector_2" d="M19.5009 15.4978H18.4969V17.4994H19.5009V15.4978Z" fill="#000001"/>
<path id="Vector_3" d="M18.4969 17.4993H17.4994V18.4968H18.4969V17.4993Z" fill="#000001"/>
<path id="Vector_4" d="M8.49561 4.49896H6.50061V5.50303H5.49655V15.4977H6.50061V11.5012H11.5012V19.5008H10.4972V20.4983H13.4962V19.5008H15.4978V18.4968H16.4953V17.4993H17.4994V15.4977H18.4969V5.50303H17.4994V11.5012H12.4987V4.49896H15.4978V3.50146H8.49561V4.49896Z" fill="#000001"/>
<path id="Vector_5" d="M19.5009 3.50146H17.4994V4.49896H19.5009V3.50146Z" fill="#000001"/>
<path id="Vector_6" d="M17.4994 18.4968H16.4953V19.5009H17.4994V18.4968Z" fill="#000001"/>
<path id="Vector_7" d="M16.4953 19.501H15.4978V20.4985H16.4953V19.501Z" fill="#000001"/>
<path id="Vector_8" d="M17.4994 4.49902H15.4978V5.50309H17.4994V4.49902Z" fill="#000001"/>
<path id="Vector_9" d="M17.4994 2.49756H15.4978V3.50162H17.4994V2.49756Z" fill="#000001"/>
<path id="Vector_10" d="M15.4978 20.4985H13.4962V21.5026H15.4978V20.4985Z" fill="#000001"/>
<path id="Vector_11" d="M13.4963 21.5024H10.4972V22.4999H13.4963V21.5024Z" fill="#000001"/>
<path id="Vector_12" d="M10.4972 20.4985H8.49561V21.5026H10.4972V20.4985Z" fill="#000001"/>
<path id="Vector_13" d="M10.4972 18.4968H8.49561V19.5009H10.4972V18.4968Z" fill="#000001"/>
<path id="Vector_14" d="M15.4978 1.5H8.49561V2.4975H15.4978V1.5Z" fill="#000001"/>
<path id="Vector_15" d="M8.49561 19.501H7.49811V20.4985H8.49561V19.501Z" fill="#000001"/>
<path id="Vector_16" d="M8.49561 17.4993H7.49811V18.4968H8.49561V17.4993Z" fill="#000001"/>
<path id="Vector_17" d="M8.49561 2.49756H6.50061V3.50162H8.49561V2.49756Z" fill="#000001"/>
<path id="Vector_18" d="M7.49811 18.4968H6.50061V19.5009H7.49811V18.4968Z" fill="#000001"/>
<path id="Vector_19" d="M7.49811 15.4978H6.50061V17.4994H7.49811V15.4978Z" fill="#000001"/>
<path id="Vector_20" d="M6.50061 17.4993H5.49655V18.4968H6.50061V17.4993Z" fill="#000001"/>
<path id="Vector_21" d="M6.50062 3.50146H4.49905V4.49896H6.50062V3.50146Z" fill="#000001"/>
<path id="Vector_22" d="M5.49655 15.4978H4.49905V17.4994H5.49655V15.4978Z" fill="#000001"/>
<path id="Vector_23" d="M4.49906 4.49902H3.50156V15.4978H4.49906V4.49902Z" fill="#000001"/>
</g>
</g>
</svg>
