<svg width="24" height="24" viewBox="0 0 24 24" fill="none" xmlns="http://www.w3.org/2000/svg">
<g id="interface-essential-clip-1">
<g id="Group">
<path id="Vector" d="M21.0005 6.99927H19.9964V10.9958H21.0005V6.99927Z" fill="#000001"/>
<path id="Vector_2" d="M19.9964 10.9958H18.9989V12.9974H19.9964V10.9958Z" fill="#000001"/>
<path id="Vector_3" d="M19.9964 6.00171H18.9989V6.99921H19.9964V6.00171Z" fill="#000001"/>
<path id="Vector_4" d="M18.9989 12.9973H18.0014V14.0014H18.9989V12.9973Z" fill="#000001"/>
<path id="Vector_5" d="M18.9989 4.9978H18.0014V6.00187H18.9989V4.9978Z" fill="#000001"/>
<path id="Vector_6" d="M18.0014 14.0015H16.9973V14.999H18.0014V14.0015Z" fill="#000001"/>
<path id="Vector_7" d="M18.0014 7.99683H16.9973V10.9959H18.0014V7.99683Z" fill="#000001"/>
<path id="Vector_8" d="M18.0014 4.00024H13.9983V4.99774H18.0014V4.00024Z" fill="#000001"/>
<path id="Vector_9" d="M16.9973 14.999H15.9998V15.9965H16.9973V14.999Z" fill="#000001"/>
<path id="Vector_10" d="M16.9973 10.9958H15.9998V11.9999H16.9973V10.9958Z" fill="#000001"/>
<path id="Vector_11" d="M16.9974 6.99927H13.9983V7.99677H16.9974V6.99927Z" fill="#000001"/>
<path id="Vector_12" d="M15.9999 15.9966H14.9958V17.0006H15.9999V15.9966Z" fill="#000001"/>
<path id="Vector_13" d="M15.9999 12H14.9958V12.9975H15.9999V12Z" fill="#000001"/>
<path id="Vector_14" d="M14.9958 17.0005H13.9983V17.998H14.9958V17.0005Z" fill="#000001"/>
<path id="Vector_15" d="M14.9958 12.9973H13.9983V14.0014H14.9958V12.9973Z" fill="#000001"/>
<path id="Vector_16" d="M13.9982 17.998H13.0007V19.0021H13.9982V17.998Z" fill="#000001"/>
<path id="Vector_17" d="M13.9982 14.0015H13.0007V14.999H13.9982V14.0015Z" fill="#000001"/>
<path id="Vector_18" d="M13.9982 7.99683H13.0007V9.00089H13.9982V7.99683Z" fill="#000001"/>
<path id="Vector_19" d="M13.0008 14.999H11.9967V15.9965H13.0008V14.999Z" fill="#000001"/>
<path id="Vector_20" d="M13.0008 9.00098H11.9967V9.99848H13.0008V9.00098Z" fill="#000001"/>
<path id="Vector_21" d="M13.9983 4.9978H11.9967V6.00187H13.9983V4.9978Z" fill="#000001"/>
<path id="Vector_22" d="M11.9967 15.9966H10.9992V17.0006H11.9967V15.9966Z" fill="#000001"/>
<path id="Vector_23" d="M11.9967 9.99829H10.9992V10.9958H11.9967V9.99829Z" fill="#000001"/>
<path id="Vector_24" d="M11.9967 6.00171H10.9992V6.99921H11.9967V6.00171Z" fill="#000001"/>
<path id="Vector_25" d="M10.9992 17.0005H9.99512V17.998H10.9992V17.0005Z" fill="#000001"/>
<path id="Vector_26" d="M10.9992 10.9958H9.99512V11.9999H10.9992V10.9958Z" fill="#000001"/>
<path id="Vector_27" d="M10.9992 6.99927H9.99512V7.99677H10.9992V6.99927Z" fill="#000001"/>
<path id="Vector_28" d="M9.99512 17.998H8.99762V19.0021H9.99512V17.998Z" fill="#000001"/>
<path id="Vector_29" d="M9.99512 12H8.99762V12.9975H9.99512V12Z" fill="#000001"/>
<path id="Vector_30" d="M9.99512 7.99683H8.99762V9.00089H9.99512V7.99683Z" fill="#000001"/>
<path id="Vector_31" d="M8.99762 12.9973H8.00012V14.0014H8.99762V12.9973Z" fill="#000001"/>
<path id="Vector_32" d="M8.99762 9.00098H8.00012V9.99848H8.99762V9.00098Z" fill="#000001"/>
<path id="Vector_33" d="M8.00016 9.99829H6.99609V10.9958H8.00016V9.99829Z" fill="#000001"/>
<path id="Vector_34" d="M6.9961 10.9958H5.9986V11.9999H6.9961V10.9958Z" fill="#000001"/>
<path id="Vector_35" d="M8.99766 19.0022H5.0011V19.9997H8.99766V19.0022Z" fill="#000001"/>
<path id="Vector_36" d="M5.9986 12H5.0011V12.9975H5.9986V12Z" fill="#000001"/>
<path id="Vector_37" d="M5.00107 17.998H3.99701V19.0021H5.00107V17.998Z" fill="#000001"/>
<path id="Vector_38" d="M5.00107 12.9973H3.99701V14.0014H5.00107V12.9973Z" fill="#000001"/>
<path id="Vector_39" d="M3.99701 14.0015H2.99951V17.998H3.99701V14.0015Z" fill="#000001"/>
</g>
</g>
</svg>
