<svg width="24" height="24" viewBox="0 0 24 24" fill="none" xmlns="http://www.w3.org/2000/svg">
<g id="interface-essential-switch-off">
<g id="Group">
<path id="Vector" d="M22.5 3.50146H21.5025V20.4983H22.5V3.50146Z" fill="#000001"/>
<path id="Vector_2" d="M21.5025 20.4985H20.4984V21.5026H21.5025V20.4985Z" fill="#000001"/>
<path id="Vector_3" d="M21.5025 2.49756H20.4984V3.50162H21.5025V2.49756Z" fill="#000001"/>
<path id="Vector_4" d="M20.4984 18.4968H19.5009V19.5009H20.4984V18.4968Z" fill="#000001"/>
<path id="Vector_5" d="M20.4984 4.49902H19.5009V5.49652H20.4984V4.49902Z" fill="#000001"/>
<path id="Vector_6" d="M20.4985 21.5024H3.50159V22.4999H20.4985V21.5024Z" fill="#000001"/>
<path id="Vector_7" d="M16.5019 5.49658H9.49968V6.50064H8.50218V10.4972H9.49968V9.49971H15.5044V10.4972H14.5003V11.5013H13.5028V12.4988H12.4987V13.4963H6.50061V12.4988H5.50311V15.4978H6.50061V14.5003H11.5012V15.4978H6.50061V16.5019H8.50218V17.4994H9.49968V16.5019H13.5028V15.4978H14.5003V13.4963H15.5044V12.4988H16.5019V17.4994H17.4994V6.50064H16.5019V5.49658Z" fill="#000001"/>
<path id="Vector_8" d="M16.5019 17.4993H9.49969V18.4968H16.5019V17.4993Z" fill="#000001"/>
<path id="Vector_9" d="M8.5022 10.4971H7.5047V11.5011H8.5022V10.4971Z" fill="#000001"/>
<path id="Vector_10" d="M7.50467 11.5012H6.50061V12.4987H7.50467V11.5012Z" fill="#000001"/>
<path id="Vector_11" d="M20.4985 1.5H3.50159V2.4975H20.4985V1.5Z" fill="#000001"/>
<path id="Vector_12" d="M4.49909 18.4968H3.50159V19.5009H4.49909V18.4968Z" fill="#000001"/>
<path id="Vector_13" d="M4.49909 4.49902H3.50159V5.49652H4.49909V4.49902Z" fill="#000001"/>
<path id="Vector_14" d="M3.50159 20.4985H2.50409V21.5026H3.50159V20.4985Z" fill="#000001"/>
<path id="Vector_15" d="M3.50159 2.49756H2.50409V3.50162H3.50159V2.49756Z" fill="#000001"/>
<path id="Vector_16" d="M2.50406 3.50146H1.5V20.4983H2.50406V3.50146Z" fill="#000001"/>
</g>
</g>
</svg>
