<svg width="24" height="24" viewBox="0 0 24 24" fill="none" xmlns="http://www.w3.org/2000/svg">
<g id="interface-essential-sound">
<g id="Group">
<path id="Vector" d="M22.5 8.00024H21.4959V15.9999H22.5V8.00024Z" fill="#000001"/>
<path id="Vector_2" d="M21.4959 15.9998H20.4984V16.9973H21.4959V15.9998Z" fill="#000001"/>
<path id="Vector_3" d="M21.4959 6.99609H20.4984V8.00016H21.4959V6.99609Z" fill="#000001"/>
<path id="Vector_4" d="M20.4984 16.9973H19.5009V17.9948H20.4984V16.9973Z" fill="#000001"/>
<path id="Vector_5" d="M20.4984 9.99512H19.5009V13.9982H20.4984V9.99512Z" fill="#000001"/>
<path id="Vector_6" d="M20.4984 5.99854H19.5009V6.99604H20.4984V5.99854Z" fill="#000001"/>
<path id="Vector_7" d="M19.501 13.9983H18.4969V14.9958H19.501V13.9983Z" fill="#000001"/>
<path id="Vector_8" d="M19.501 8.99756H18.4969V9.99506H19.501V8.99756Z" fill="#000001"/>
<path id="Vector_9" d="M18.4969 10.9993H17.4994V13.0008H18.4969V10.9993Z" fill="#000001"/>
<path id="Vector_10" d="M16.4953 5.00098H15.4978V18.9988H16.4953V5.00098Z" fill="#000001"/>
<path id="Vector_11" d="M15.4978 18.9988H14.5003V19.9963H15.4978V18.9988Z" fill="#000001"/>
<path id="Vector_12" d="M15.4978 3.99707H14.5003V5.00113H15.4978V3.99707Z" fill="#000001"/>
<path id="Vector_13" d="M14.5003 19.9963H11.5013V21.0004H14.5003V19.9963Z" fill="#000001"/>
<path id="Vector_14" d="M13.4962 15.9998H12.4987V16.9973H13.4962V15.9998Z" fill="#000001"/>
<path id="Vector_15" d="M13.4962 6.99609H12.4987V8.00016H13.4962V6.99609Z" fill="#000001"/>
<path id="Vector_16" d="M14.5003 2.99951H11.5013V3.99701H14.5003V2.99951Z" fill="#000001"/>
<path id="Vector_17" d="M12.4988 8.00024H11.5013V15.9999H12.4988V8.00024Z" fill="#000001"/>
<path id="Vector_18" d="M11.5013 18.9988H10.4972V19.9963H11.5013V18.9988Z" fill="#000001"/>
<path id="Vector_19" d="M11.5013 3.99707H10.4972V5.00113H11.5013V3.99707Z" fill="#000001"/>
<path id="Vector_20" d="M10.4972 17.9949H9.49969V18.9989H10.4972V17.9949Z" fill="#000001"/>
<path id="Vector_21" d="M10.4972 5.00098H9.49969V5.99848H10.4972V5.00098Z" fill="#000001"/>
<path id="Vector_22" d="M9.4997 16.9973H8.49564V17.9948H9.4997V16.9973Z" fill="#000001"/>
<path id="Vector_23" d="M9.4997 5.99854H8.49564V6.99604H9.4997V5.99854Z" fill="#000001"/>
<path id="Vector_24" d="M8.49564 15.9998H7.49814V16.9973H8.49564V15.9998Z" fill="#000001"/>
<path id="Vector_25" d="M8.49564 6.99609H7.49814V8.00016H8.49564V6.99609Z" fill="#000001"/>
<path id="Vector_26" d="M7.49811 14.9958H6.50061V15.9999H7.49811V14.9958Z" fill="#000001"/>
<path id="Vector_27" d="M7.49811 8.00024H6.50061V8.99774H7.49811V8.00024Z" fill="#000001"/>
<path id="Vector_28" d="M6.50062 8.99756H2.4975V9.99506H1.5V13.9982H2.4975V14.9957H6.50062V8.99756ZM4.49906 10.9991H3.50156V13.0007H2.4975V10.9991H3.50156V9.99506H4.49906V10.9991Z" fill="#000001"/>
</g>
</g>
</svg>
