<svg width="24" height="24" viewBox="0 0 24 24" fill="none" xmlns="http://www.w3.org/2000/svg">
<g id="interface-essential-alert">
<g id="Group">
<path id="Vector" d="M22.5 3.50146H21.4959V6.50053H22.5V3.50146Z" fill="#000001"/>
<path id="Vector_2" d="M21.4959 6.50073H20.4984V7.49823H21.4959V6.50073Z" fill="#000001"/>
<path id="Vector_3" d="M21.4959 2.49756H20.4984V3.50162H21.4959V2.49756Z" fill="#000001"/>
<path id="Vector_4" d="M20.4984 10.4971H19.5009V15.4977H20.4984V10.4971Z" fill="#000001"/>
<path id="Vector_5" d="M20.4984 5.50317H19.5009V6.50067H20.4984V5.50317Z" fill="#000001"/>
<path id="Vector_6" d="M19.501 21.5024H18.4969V22.4999H19.501V21.5024Z" fill="#000001"/>
<path id="Vector_7" d="M19.501 15.4978H18.4969V17.4994H19.501V15.4978Z" fill="#000001"/>
<path id="Vector_8" d="M19.501 8.5022H18.4969V10.4972H19.501V8.5022Z" fill="#000001"/>
<path id="Vector_9" d="M19.501 4.49902H18.4969V5.50309H19.501V4.49902Z" fill="#000001"/>
<path id="Vector_10" d="M20.4985 1.5H17.4994V2.4975H20.4985V1.5Z" fill="#000001"/>
<path id="Vector_11" d="M18.4969 20.4985H17.4994V21.5026H18.4969V20.4985Z" fill="#000001"/>
<path id="Vector_12" d="M18.4969 17.4993H17.4994V18.4968H18.4969V17.4993Z" fill="#000001"/>
<path id="Vector_13" d="M18.4969 12.4988H17.4994V13.5028H18.4969V12.4988Z" fill="#000001"/>
<path id="Vector_14" d="M18.4969 7.49805H17.4994V8.50211H18.4969V7.49805Z" fill="#000001"/>
<path id="Vector_15" d="M18.4969 3.50146H17.4994V4.49896H18.4969V3.50146Z" fill="#000001"/>
<path id="Vector_16" d="M16.4953 19.5009H14.5003V20.4984H17.4994V18.4968H16.4953V19.5009Z" fill="#000001"/>
<path id="Vector_17" d="M17.4994 6.50073H16.4953V7.49823H17.4994V6.50073Z" fill="#000001"/>
<path id="Vector_18" d="M17.4994 2.49756H16.4953V3.50162H17.4994V2.49756Z" fill="#000001"/>
<path id="Vector_19" d="M16.4953 16.502H15.4978V17.4995H16.4953V16.502Z" fill="#000001"/>
<path id="Vector_20" d="M16.4953 8.5022H15.4978V9.4997H16.4953V8.5022Z" fill="#000001"/>
<path id="Vector_21" d="M15.4978 12.4988H13.4963V11.5013H12.4988V8.5022H11.5013V11.5013H10.4972V14.5003H13.4963V13.5028H15.4978V12.4988Z" fill="#000001"/>
<path id="Vector_22" d="M16.4953 5.50317H14.5003V6.50067H16.4953V5.50317Z" fill="#000001"/>
<path id="Vector_23" d="M14.5003 20.4985H9.49969V21.5026H14.5003V20.4985Z" fill="#000001"/>
<path id="Vector_24" d="M12.4988 18.4968H11.5013V19.5009H12.4988V18.4968Z" fill="#000001"/>
<path id="Vector_25" d="M12.4988 6.50073H11.5013V7.49823H12.4988V6.50073Z" fill="#000001"/>
<path id="Vector_26" d="M14.5003 4.49902H9.49969V5.50309H14.5003V4.49902Z" fill="#000001"/>
<path id="Vector_27" d="M7.49811 19.5009V18.4968H6.50061V20.4984H9.49967V19.5009H7.49811Z" fill="#000001"/>
<path id="Vector_28" d="M9.4997 5.50317H7.49814V6.50067H9.4997V5.50317Z" fill="#000001"/>
<path id="Vector_29" d="M8.49564 16.502H7.49814V17.4995H8.49564V16.502Z" fill="#000001"/>
<path id="Vector_30" d="M8.49564 8.5022H7.49814V9.4997H8.49564V8.5022Z" fill="#000001"/>
<path id="Vector_31" d="M7.49811 6.50073H6.50061V7.49823H7.49811V6.50073Z" fill="#000001"/>
<path id="Vector_32" d="M7.49811 2.49756H6.50061V3.50162H7.49811V2.49756Z" fill="#000001"/>
<path id="Vector_33" d="M6.50061 20.4985H5.49655V21.5026H6.50061V20.4985Z" fill="#000001"/>
<path id="Vector_34" d="M6.50061 17.4993H5.49655V18.4968H6.50061V17.4993Z" fill="#000001"/>
<path id="Vector_35" d="M6.50061 12.4988H5.49655V13.5028H6.50061V12.4988Z" fill="#000001"/>
<path id="Vector_36" d="M6.50061 7.49805H5.49655V8.50211H6.50061V7.49805Z" fill="#000001"/>
<path id="Vector_37" d="M6.50061 3.50146H5.49655V4.49896H6.50061V3.50146Z" fill="#000001"/>
<path id="Vector_38" d="M5.49655 21.5024H4.49905V22.4999H5.49655V21.5024Z" fill="#000001"/>
<path id="Vector_39" d="M5.49655 15.4978H4.49905V17.4994H5.49655V15.4978Z" fill="#000001"/>
<path id="Vector_40" d="M5.49655 8.5022H4.49905V10.4972H5.49655V8.5022Z" fill="#000001"/>
<path id="Vector_41" d="M5.49655 4.49902H4.49905V5.50309H5.49655V4.49902Z" fill="#000001"/>
<path id="Vector_42" d="M6.50062 1.5H3.50156V2.4975H6.50062V1.5Z" fill="#000001"/>
<path id="Vector_43" d="M4.49906 10.4971H3.50156V15.4977H4.49906V10.4971Z" fill="#000001"/>
<path id="Vector_44" d="M4.49906 5.50317H3.50156V6.50067H4.49906V5.50317Z" fill="#000001"/>
<path id="Vector_45" d="M3.50156 6.50073H2.4975V7.49823H3.50156V6.50073Z" fill="#000001"/>
<path id="Vector_46" d="M3.50156 2.49756H2.4975V3.50162H3.50156V2.49756Z" fill="#000001"/>
<path id="Vector_47" d="M2.4975 3.50146H1.5V6.50053H2.4975V3.50146Z" fill="#000001"/>
</g>
</g>
</svg>
