<svg width="24" height="24" viewBox="0 0 24 24" fill="none" xmlns="http://www.w3.org/2000/svg">
<g id="interface-essential-skull-1">
<g id="Group">
<path id="Vector" d="M21.4992 6.00195H20.5017V14.9991H21.4992V6.00195Z" fill="#000001"/>
<path id="Vector_2" d="M20.5017 14.999H19.5042V15.9965H20.5017V14.999Z" fill="#000001"/>
<path id="Vector_3" d="M20.5017 4.9978H19.5042V6.00187H20.5017V4.9978Z" fill="#000001"/>
<path id="Vector_4" d="M19.5042 15.9966H18.5002V17.0006H19.5042V15.9966Z" fill="#000001"/>
<path id="Vector_5" d="M19.5042 4.00024H18.5002V4.99774H19.5042V4.00024Z" fill="#000001"/>
<path id="Vector_6" d="M18.5002 17.0007H17.5027V20.9973H18.5002V17.0007Z" fill="#000001"/>
<path id="Vector_7" d="M17.5027 9.99854H15.5011V10.996H14.5036V12.9976H15.5011V14.0017H17.5027V12.9976H18.5002V10.996H17.5027V9.99854Z" fill="#000001"/>
<path id="Vector_8" d="M18.5002 2.99634H16.4986V4.0004H18.5002V2.99634Z" fill="#000001"/>
<path id="Vector_9" d="M17.5027 20.9973H14.5036V22.0014H17.5027V20.9973Z" fill="#000001"/>
<path id="Vector_10" d="M14.5036 17.998H13.4995V20.9971H14.5036V17.998Z" fill="#000001"/>
<path id="Vector_11" d="M13.4996 20.9973H10.5005V22.0014H13.4996V20.9973Z" fill="#000001"/>
<path id="Vector_12" d="M13.4996 14.999H10.5005V15.9965H13.4996V14.999Z" fill="#000001"/>
<path id="Vector_13" d="M10.5005 17.998H9.50299V20.9971H10.5005V17.998Z" fill="#000001"/>
<path id="Vector_14" d="M16.4986 1.99878H7.5014V2.99628H16.4986V1.99878Z" fill="#000001"/>
<path id="Vector_15" d="M9.50297 20.9973H6.50391V22.0014H9.50297V20.9973Z" fill="#000001"/>
<path id="Vector_16" d="M8.49891 9.99854H6.50391V10.996H5.49985V12.9976H6.50391V14.0017H8.49891V12.9976H9.50297V10.996H8.49891V9.99854Z" fill="#000001"/>
<path id="Vector_17" d="M7.50141 2.99634H5.49985V4.0004H7.50141V2.99634Z" fill="#000001"/>
<path id="Vector_18" d="M6.50391 17.0007H5.49985V20.9973H6.50391V17.0007Z" fill="#000001"/>
<path id="Vector_19" d="M5.49985 15.9966H4.50235V17.0006H5.49985V15.9966Z" fill="#000001"/>
<path id="Vector_20" d="M5.49985 4.00024H4.50235V4.99774H5.49985V4.00024Z" fill="#000001"/>
<path id="Vector_21" d="M4.50235 14.999H3.50485V15.9965H4.50235V14.999Z" fill="#000001"/>
<path id="Vector_22" d="M4.50235 4.9978H3.50485V6.00187H4.50235V4.9978Z" fill="#000001"/>
<path id="Vector_23" d="M3.50486 6.00195H2.50079V14.9991H3.50486V6.00195Z" fill="#000001"/>
</g>
</g>
</svg>
