<svg width="24" height="24" viewBox="0 0 24 24" fill="none" xmlns="http://www.w3.org/2000/svg">
<g id="interface-essential-link-broken-2">
<g id="Group">
<path id="Vector" d="M22.5 12.0032H21.5025V17.0038H22.5V12.0032Z" fill="#000001"/>
<path id="Vector_2" d="M21.5025 17.0039H20.4984V18.0014H21.5025V17.0039Z" fill="#000001"/>
<path id="Vector_3" d="M21.5025 10.999H20.4984V12.0031H21.5025V10.999Z" fill="#000001"/>
<path id="Vector_4" d="M20.4984 13.0007H19.5009V15.9998H20.4984V13.0007Z" fill="#000001"/>
<path id="Vector_5" d="M20.4984 18.0012H14.5003V18.9987H20.4984V18.0012Z" fill="#000001"/>
<path id="Vector_6" d="M19.501 12.0032H15.5044V13.0007H19.501V12.0032Z" fill="#000001"/>
<path id="Vector_7" d="M17.4994 5.99854H16.5019V7.0026H17.4994V5.99854Z" fill="#000001"/>
<path id="Vector_8" d="M19.501 15.9998H15.5044V17.0038H19.501V15.9998Z" fill="#000001"/>
<path id="Vector_9" d="M20.4984 10.0017H14.5003V10.9992H20.4984V10.0017Z" fill="#000001"/>
<path id="Vector_10" d="M16.5019 7.00244H15.5044V7.99994H16.5019V7.00244Z" fill="#000001"/>
<path id="Vector_11" d="M15.5044 8H14.5003V9.00406H15.5044V8Z" fill="#000001"/>
<path id="Vector_12" d="M14.5003 17.0039H13.5028V18.0014H14.5003V17.0039Z" fill="#000001"/>
<path id="Vector_13" d="M15.5044 15.9997V15.0022H12.4988V17.0038H13.5028V15.9997H15.5044Z" fill="#000001"/>
<path id="Vector_14" d="M13.5028 12.0032H12.4988V13.9982H15.5044V13.0007H13.5028V12.0032Z" fill="#000001"/>
<path id="Vector_15" d="M14.5003 10.999H13.5028V12.0031H14.5003V10.999Z" fill="#000001"/>
<path id="Vector_16" d="M12.4987 5.00098H11.5012V9.0041H12.4987V5.00098Z" fill="#000001"/>
<path id="Vector_17" d="M8.5022 13.0007V13.9982H11.5013V12.0032H10.5038V13.0007H8.5022Z" fill="#000001"/>
<path id="Vector_18" d="M10.5038 17.0039H9.49969V18.0014H10.5038V17.0039Z" fill="#000001"/>
<path id="Vector_19" d="M10.5038 17.0038H11.5013V15.0022H8.5022V15.9997H10.5038V17.0038Z" fill="#000001"/>
<path id="Vector_20" d="M10.5038 10.999H9.49969V12.0031H10.5038V10.999Z" fill="#000001"/>
<path id="Vector_21" d="M9.4997 8H8.5022V9.00406H9.4997V8Z" fill="#000001"/>
<path id="Vector_22" d="M9.49971 18.0012H3.50159V18.9987H9.49971V18.0012Z" fill="#000001"/>
<path id="Vector_23" d="M8.50221 12.0032H4.49908V13.0007H8.50221V12.0032Z" fill="#000001"/>
<path id="Vector_24" d="M8.5022 7.00244H7.5047V7.99994H8.5022V7.00244Z" fill="#000001"/>
<path id="Vector_25" d="M7.50467 5.99854H6.50061V7.0026H7.50467V5.99854Z" fill="#000001"/>
<path id="Vector_26" d="M8.50221 15.9998H4.49908V17.0038H8.50221V15.9998Z" fill="#000001"/>
<path id="Vector_27" d="M9.49971 10.0017H3.50159V10.9992H9.49971V10.0017Z" fill="#000001"/>
<path id="Vector_28" d="M4.49909 13.0007H3.50159V15.9998H4.49909V13.0007Z" fill="#000001"/>
<path id="Vector_29" d="M3.50159 17.0039H2.50409V18.0014H3.50159V17.0039Z" fill="#000001"/>
<path id="Vector_30" d="M3.50159 10.999H2.50409V12.0031H3.50159V10.999Z" fill="#000001"/>
<path id="Vector_31" d="M2.50406 12.0032H1.5V17.0038H2.50406V12.0032Z" fill="#000001"/>
</g>
</g>
</svg>
