<svg width="24" height="24" viewBox="0 0 24 24" fill="none" xmlns="http://www.w3.org/2000/svg">
<g id="interface-essential-alarm-bell-off">
<g id="Group">
<path id="Vector" d="M22.5 3.50146H21.5025V20.4983H22.5V3.50146Z" fill="#000001"/>
<path id="Vector_2" d="M21.5025 20.4985H20.505V21.496H21.5025V20.4985Z" fill="#000001"/>
<path id="Vector_3" d="M20.505 14.5002H19.5009V16.4952H20.505V14.5002Z" fill="#000001"/>
<path id="Vector_4" d="M20.505 21.4958H3.50156V22.4999H20.505V21.4958Z" fill="#000001"/>
<path id="Vector_5" d="M19.5009 16.4954H18.5034V17.4994H19.5009V16.4954Z" fill="#000001"/>
<path id="Vector_6" d="M19.5009 13.4963H18.5034V14.5004H19.5009V13.4963Z" fill="#000001"/>
<path id="Vector_7" d="M18.5035 8.49561H17.4994V13.4962H18.5035V8.49561Z" fill="#000001"/>
<path id="Vector_8" d="M18.5034 17.4993H16.5019V18.4968H18.5034V17.4993Z" fill="#000001"/>
<path id="Vector_9" d="M17.4994 15.4978H16.5019V16.4953H17.4994V15.4978Z" fill="#000001"/>
<path id="Vector_10" d="M16.5019 18.4968H7.5047V19.5009H16.5019V18.4968Z" fill="#000001"/>
<path id="Vector_11" d="M15.5044 4.49902H14.5003V5.49652H15.5044V4.49902Z" fill="#000001"/>
<path id="Vector_12" d="M13.5028 17.4993V16.4952H14.5003V15.4977H16.5019V14.5002H11.5013V15.4977H10.5038V17.4993H13.5028Z" fill="#000001"/>
<path id="Vector_13" d="M14.5003 3.50146H10.5038V4.49896H14.5003V3.50146Z" fill="#000001"/>
<path id="Vector_14" d="M10.5038 4.49902H8.5022V5.49652H10.5038V4.49902Z" fill="#000001"/>
<path id="Vector_15" d="M8.5022 5.49658H7.5047V6.50064H8.5022V5.49658Z" fill="#000001"/>
<path id="Vector_16" d="M7.50467 6.50073H6.50061V8.49573H7.50467V6.50073Z" fill="#000001"/>
<path id="Vector_17" d="M6.50061 8.49561H5.50311V13.4962H6.50061V8.49561Z" fill="#000001"/>
<path id="Vector_18" d="M5.50312 13.4963H4.50562V14.5004H5.50312V13.4963Z" fill="#000001"/>
<path id="Vector_19" d="M4.50562 20.4984V19.5009H5.50312V18.4969H6.50062V17.4994H7.50469V16.4953H8.50219V15.4978H9.49969V14.5003H10.5038V13.4963H11.5012V12.4988H12.5053V11.5012H13.5028V10.4972H14.5003V9.49969H15.5044V8.49562H16.5019V7.49813H17.4994V6.50062H18.5034V5.49656H19.5009V4.49906H20.505V3.50156H21.5025V2.4975H20.505V1.5H3.50156V2.4975H19.5009V3.50156H18.5034V4.49906H17.4994V5.49656H16.5019V6.50062H15.5044V7.49813H14.5003V8.49562H13.5028V9.49969H12.5053V10.4972H11.5012V11.5012H10.5038V12.4988H9.49969V13.4963H8.50219V14.5003H7.50469V15.4978H6.50062V16.4953H5.50312V17.4994H4.50562V18.4969H3.50156V19.5009H2.50406V3.50156H1.5V20.4984H2.50406V21.4959H3.50156V20.4984H4.50562Z" fill="#000001"/>
<path id="Vector_20" d="M4.50562 14.5002H3.50156V16.4952H4.50562V14.5002Z" fill="#000001"/>
<path id="Vector_21" d="M3.50156 2.49756H2.50406V3.50162H3.50156V2.49756Z" fill="#000001"/>
</g>
</g>
</svg>
