<svg width="24" height="24" viewBox="0 0 24 24" fill="none" xmlns="http://www.w3.org/2000/svg">
<g id="interface-essential-alert-triangle-1">
<g id="Group">
<path id="Vector" d="M22.5 19.501H21.5025V21.5025H22.5V19.501Z" fill="#000001"/>
<path id="Vector_2" d="M21.5025 17.4993H20.4984V19.5008H21.5025V17.4993Z" fill="#000001"/>
<path id="Vector_3" d="M21.5025 21.5024H2.4975V22.4999H21.5025V21.5024Z" fill="#000001"/>
<path id="Vector_4" d="M20.4984 15.4978H19.5009V17.4994H20.4984V15.4978Z" fill="#000001"/>
<path id="Vector_5" d="M19.501 13.5029H18.4969V15.4979H19.501V13.5029Z" fill="#000001"/>
<path id="Vector_6" d="M18.4969 11.5012H17.4994V13.5028H18.4969V11.5012Z" fill="#000001"/>
<path id="Vector_7" d="M17.4994 9.49976H16.5019V11.5013H17.4994V9.49976Z" fill="#000001"/>
<path id="Vector_8" d="M16.5019 7.49805H15.4978V9.49961H16.5019V7.49805Z" fill="#000001"/>
<path id="Vector_9" d="M15.4978 5.49658H14.5003V7.49814H15.4978V5.49658Z" fill="#000001"/>
<path id="Vector_10" d="M14.5003 3.50146H13.5028V5.49646H14.5003V3.50146Z" fill="#000001"/>
<path id="Vector_11" d="M13.5028 15.4978H10.4972V16.5019H9.49969V19.5009H10.4972V20.4984H13.5028V19.5009H14.5003V16.5019H13.5028V15.4978Z" fill="#000001"/>
<path id="Vector_12" d="M13.5028 7.49805H10.4972V8.50211H9.49969V12.4987H10.4972V14.5002H13.5028V12.4987H14.5003V8.50211H13.5028V7.49805ZM13.5028 11.5012H12.4988V9.49961H11.5013V8.50211H12.4988V9.49961H13.5028V11.5012Z" fill="#000001"/>
<path id="Vector_13" d="M13.5028 2.49756H12.4988V3.50162H13.5028V2.49756Z" fill="#000001"/>
<path id="Vector_14" d="M12.4987 1.5H11.5012V2.4975H12.4987V1.5Z" fill="#000001"/>
<path id="Vector_15" d="M11.5013 2.49756H10.4972V3.50162H11.5013V2.49756Z" fill="#000001"/>
<path id="Vector_16" d="M10.4972 3.50146H9.49969V5.49646H10.4972V3.50146Z" fill="#000001"/>
<path id="Vector_17" d="M9.4997 5.49658H8.5022V7.49814H9.4997V5.49658Z" fill="#000001"/>
<path id="Vector_18" d="M8.50217 7.49805H7.49811V9.49961H8.50217V7.49805Z" fill="#000001"/>
<path id="Vector_19" d="M7.49811 9.49976H6.50061V11.5013H7.49811V9.49976Z" fill="#000001"/>
<path id="Vector_20" d="M6.50064 11.5012H5.49658V13.5028H6.50064V11.5012Z" fill="#000001"/>
<path id="Vector_21" d="M5.49658 13.5029H4.49908V15.4979H5.49658V13.5029Z" fill="#000001"/>
<path id="Vector_22" d="M4.49909 15.4978H3.50159V17.4994H4.49909V15.4978Z" fill="#000001"/>
<path id="Vector_23" d="M3.50156 17.4993H2.4975V19.5008H3.50156V17.4993Z" fill="#000001"/>
<path id="Vector_24" d="M2.4975 19.501H1.5V21.5025H2.4975V19.501Z" fill="#000001"/>
</g>
</g>
</svg>
