<svg width="24" height="24" viewBox="0 0 24 24" fill="none" xmlns="http://www.w3.org/2000/svg">
<g id="interface-essential-setting-cog">
<g id="Group">
<path id="Vector" d="M21.0004 11.0026V13.0042H20.0029V14.0017H21.9979V9.99854H20.0029V11.0026H21.0004Z" fill="#000001"/>
<path id="Vector_2" d="M20.003 17.0007H18.9989V17.9982H20.003V17.0007Z" fill="#000001"/>
<path id="Vector_3" d="M20.003 14.0017H18.9989V16.0033H20.003V14.0017Z" fill="#000001"/>
<path id="Vector_4" d="M20.003 8.00342H18.9989V9.99842H20.003V8.00342Z" fill="#000001"/>
<path id="Vector_5" d="M20.003 6.00195H18.9989V6.99945H20.003V6.00195Z" fill="#000001"/>
<path id="Vector_6" d="M18.9989 17.998H18.0014V19.0021H18.9989V17.998Z" fill="#000001"/>
<path id="Vector_7" d="M18.9989 16.0032H18.0014V17.0007H18.9989V16.0032Z" fill="#000001"/>
<path id="Vector_8" d="M18.9989 6.99951H18.0014V8.00357H18.9989V6.99951Z" fill="#000001"/>
<path id="Vector_9" d="M18.9989 5.00439H18.0014V6.00189H18.9989V5.00439Z" fill="#000001"/>
<path id="Vector_10" d="M18.0014 19.0022H16.9973V19.9997H18.0014V19.0022Z" fill="#000001"/>
<path id="Vector_11" d="M18.0014 9.99854H16.9973V14.0017H18.0014V9.99854Z" fill="#000001"/>
<path id="Vector_12" d="M18.0014 4.00024H16.9973V5.00431H18.0014V4.00024Z" fill="#000001"/>
<path id="Vector_13" d="M16.9973 17.998H15.9998V19.0021H16.9973V17.998Z" fill="#000001"/>
<path id="Vector_14" d="M16.9973 14.0017H15.9998V16.0033H16.9973V14.0017Z" fill="#000001"/>
<path id="Vector_15" d="M16.9973 8.00342H15.9998V9.99842H16.9973V8.00342Z" fill="#000001"/>
<path id="Vector_16" d="M16.9973 5.00439H15.9998V6.00189H16.9973V5.00439Z" fill="#000001"/>
<path id="Vector_17" d="M15.9999 19.0022H13.9983V19.9997H15.9999V19.0022Z" fill="#000001"/>
<path id="Vector_18" d="M15.9999 16.0032H13.9983V17.0007H15.9999V16.0032Z" fill="#000001"/>
<path id="Vector_19" d="M15.9999 6.99951H13.9983V8.00357H15.9999V6.99951Z" fill="#000001"/>
<path id="Vector_20" d="M15.9999 4.00024H13.9983V5.00431H15.9999V4.00024Z" fill="#000001"/>
<path id="Vector_21" d="M13.0008 21.0038H10.9992V19.9998H10.0017V22.0013H13.9983V19.9998H13.0008V21.0038Z" fill="#000001"/>
<path id="Vector_22" d="M13.9983 17.0007H10.0017V17.9982H13.9983V17.0007Z" fill="#000001"/>
<path id="Vector_23" d="M10.9992 14.0017H13.0008V13.0042H13.9983V11.0026H13.0008V9.99854H10.9992V11.0026H10.0017V13.0042H10.9992V14.0017Z" fill="#000001"/>
<path id="Vector_24" d="M13.9983 6.00195H10.0017V6.99945H13.9983V6.00195Z" fill="#000001"/>
<path id="Vector_25" d="M10.9992 3.00284H13.0008V4.00034H13.9983V1.99878H10.0017V4.00034H10.9992V3.00284Z" fill="#000001"/>
<path id="Vector_26" d="M10.0017 19.0022H8.00012V19.9997H10.0017V19.0022Z" fill="#000001"/>
<path id="Vector_27" d="M10.0017 16.0032H8.00012V17.0007H10.0017V16.0032Z" fill="#000001"/>
<path id="Vector_28" d="M10.0017 6.99951H8.00012V8.00357H10.0017V6.99951Z" fill="#000001"/>
<path id="Vector_29" d="M10.0017 4.00024H8.00012V5.00431H10.0017V4.00024Z" fill="#000001"/>
<path id="Vector_30" d="M8.00012 17.998H7.00262V19.0021H8.00012V17.998Z" fill="#000001"/>
<path id="Vector_31" d="M8.00012 14.0017H7.00262V16.0033H8.00012V14.0017Z" fill="#000001"/>
<path id="Vector_32" d="M8.00012 8.00342H7.00262V9.99842H8.00012V8.00342Z" fill="#000001"/>
<path id="Vector_33" d="M8.00012 5.00439H7.00262V6.00189H8.00012V5.00439Z" fill="#000001"/>
<path id="Vector_34" d="M7.00266 19.0022H5.9986V19.9997H7.00266V19.0022Z" fill="#000001"/>
<path id="Vector_35" d="M7.00266 9.99854H5.9986V14.0017H7.00266V9.99854Z" fill="#000001"/>
<path id="Vector_36" d="M7.00266 4.00024H5.9986V5.00431H7.00266V4.00024Z" fill="#000001"/>
<path id="Vector_37" d="M5.9986 17.998H5.0011V19.0021H5.9986V17.998Z" fill="#000001"/>
<path id="Vector_38" d="M5.9986 16.0032H5.0011V17.0007H5.9986V16.0032Z" fill="#000001"/>
<path id="Vector_39" d="M5.9986 6.99951H5.0011V8.00357H5.9986V6.99951Z" fill="#000001"/>
<path id="Vector_40" d="M5.9986 5.00439H5.0011V6.00189H5.9986V5.00439Z" fill="#000001"/>
<path id="Vector_41" d="M5.0011 17.0007H4.0036V17.9982H5.0011V17.0007Z" fill="#000001"/>
<path id="Vector_42" d="M5.0011 14.0017H4.0036V16.0033H5.0011V14.0017Z" fill="#000001"/>
<path id="Vector_43" d="M5.0011 8.00342H4.0036V9.99842H5.0011V8.00342Z" fill="#000001"/>
<path id="Vector_44" d="M5.0011 6.00195H4.0036V6.99945H5.0011V6.00195Z" fill="#000001"/>
<path id="Vector_45" d="M4.00358 13.0042H2.99951V11.0026H4.00358V9.99854H2.00201V14.0017H4.00358V13.0042Z" fill="#000001"/>
</g>
</g>
</svg>
