<svg width="24" height="24" viewBox="0 0 24 24" fill="none" xmlns="http://www.w3.org/2000/svg">
<g id="interface-essential-search-1">
<g id="Group">
<path id="Vector" d="M17.4994 14.5003H16.4953V16.5019H14.5003V17.4994H12.4988V18.4969H15.4978V19.501H16.4953V20.4985H17.4994V21.5025H18.4969V22.5H19.501V21.5025H20.4985V20.4985H21.496V19.501H22.5V18.4969H21.496V17.4994H20.4985V16.5019H19.501V15.4978H18.4969V12.4988H17.4994V14.5003Z" fill="#000001"/>
<path id="Vector_2" d="M19.501 8.5022H18.4969V12.4988H19.501V8.5022Z" fill="#000001"/>
<path id="Vector_3" d="M18.4969 6.50073H17.4994V8.5023H18.4969V6.50073Z" fill="#000001"/>
<path id="Vector_4" d="M17.4994 4.49902H16.4953V6.50059H17.4994V4.49902Z" fill="#000001"/>
<path id="Vector_5" d="M16.4953 9.49976H15.4978V11.5013H16.4953V9.49976Z" fill="#000001"/>
<path id="Vector_6" d="M15.4978 7.49805H14.5003V9.49961H15.4978V7.49805Z" fill="#000001"/>
<path id="Vector_7" d="M16.4953 3.50146H14.5003V4.49896H16.4953V3.50146Z" fill="#000001"/>
<path id="Vector_8" d="M14.5003 6.50073H12.4988V7.49823H14.5003V6.50073Z" fill="#000001"/>
<path id="Vector_9" d="M14.5003 2.49756H12.4988V3.50162H14.5003V2.49756Z" fill="#000001"/>
<path id="Vector_10" d="M12.4988 5.50317H10.4972V6.50067H12.4988V5.50317Z" fill="#000001"/>
<path id="Vector_11" d="M12.4987 18.4968H8.49561V19.5009H12.4987V18.4968Z" fill="#000001"/>
<path id="Vector_12" d="M12.4987 1.5H8.49561V2.4975H12.4987V1.5Z" fill="#000001"/>
<path id="Vector_13" d="M8.49561 17.4993H6.50061V18.4968H8.49561V17.4993Z" fill="#000001"/>
<path id="Vector_14" d="M8.49561 2.49756H6.50061V3.50162H8.49561V2.49756Z" fill="#000001"/>
<path id="Vector_15" d="M6.50065 16.502H4.49908V17.4995H6.50065V16.502Z" fill="#000001"/>
<path id="Vector_16" d="M6.50065 3.50146H4.49908V4.49896H6.50065V3.50146Z" fill="#000001"/>
<path id="Vector_17" d="M4.49909 14.5002H3.50159V16.5018H4.49909V14.5002Z" fill="#000001"/>
<path id="Vector_18" d="M4.49909 4.49902H3.50159V6.50059H4.49909V4.49902Z" fill="#000001"/>
<path id="Vector_19" d="M3.50156 12.4988H2.4975V14.5003H3.50156V12.4988Z" fill="#000001"/>
<path id="Vector_20" d="M3.50156 6.50073H2.4975V8.5023H3.50156V6.50073Z" fill="#000001"/>
<path id="Vector_21" d="M2.4975 8.5022H1.5V12.4988H2.4975V8.5022Z" fill="#000001"/>
</g>
</g>
</svg>
