<svg width="24" height="24" viewBox="0 0 24 24" fill="none" xmlns="http://www.w3.org/2000/svg">
<g id="interface-essential-calendar-date">
<g id="Group">
<path id="Vector" d="M3.00284 7.49803H20.9972V21.5024H22.0013V4.49896H20.9972V3.50146H17.9982V5.50303H17.0007V3.50146H6.9994V5.50303H6.0019V3.50146H3.00284V4.49896H1.99878V21.5024H3.00284V7.49803Z" fill="#000001"/>
<path id="Vector_2" d="M20.9972 21.5024H3.00287V22.4999H20.9972V21.5024Z" fill="#000001"/>
<path id="Vector_3" d="M17.9982 1.5H17.0007V3.50156H17.9982V1.5Z" fill="#000001"/>
<path id="Vector_4" d="M12.9976 11.5012V15.4978H15.9966V17.4993H12.9976V18.4968H17.0007V14.5003H14.0016V12.4987H17.0007V11.5012H12.9976Z" fill="#000001"/>
<path id="Vector_5" d="M9.99845 11.5012H9.00095V12.4987H6.99939V13.5028H9.00095V17.4993H6.99939V18.4968H12V17.4993H9.99845V11.5012Z" fill="#000001"/>
<path id="Vector_6" d="M6.99939 1.5H6.00189V3.50156H6.99939V1.5Z" fill="#000001"/>
</g>
</g>
</svg>
