<svg width="24" height="24" viewBox="0 0 24 24" fill="none" xmlns="http://www.w3.org/2000/svg">
<g id="interface-essential-expand-2">
<g id="Group">
<path id="Vector" d="M22.5 2.49756H21.4959V10.4972H22.5V2.49756Z" fill="#000001"/>
<path id="Vector_2" d="M21.4959 10.4971H19.4944V11.5011H21.4959V10.4971Z" fill="#000001"/>
<path id="Vector_3" d="M19.4944 6.50073H18.4969V7.49823H17.4994V8.5023H18.4969V10.4973H19.4944V6.50073Z" fill="#000001"/>
<path id="Vector_4" d="M17.4994 8.5022H16.4953V9.4997H17.4994V8.5022Z" fill="#000001"/>
<path id="Vector_5" d="M16.4953 9.49976H15.4978V10.4973H16.4953V9.49976Z" fill="#000001"/>
<path id="Vector_6" d="M16.4953 5.49652H17.4994V4.49902H13.4963V5.49652H15.4978V6.50059H16.4953V5.49652Z" fill="#000001"/>
<path id="Vector_7" d="M15.4978 6.50073H14.4938V7.49823H15.4978V6.50073Z" fill="#000001"/>
<path id="Vector_8" d="M21.496 1.5H13.4963V2.4975H21.496V1.5Z" fill="#000001"/>
<path id="Vector_9" d="M15.4978 10.4971H13.4963V11.5011H15.4978V10.4971Z" fill="#000001"/>
<path id="Vector_10" d="M14.4938 7.49805H13.4963V8.50211H14.4938V7.49805Z" fill="#000001"/>
<path id="Vector_11" d="M13.4963 8.5022H12.4988V10.4972H13.4963V8.5022Z" fill="#000001"/>
<path id="Vector_12" d="M13.4963 2.49756H12.4988V4.49912H13.4963V2.49756Z" fill="#000001"/>
<path id="Vector_13" d="M11.4947 19.501H10.4972V21.5025H11.4947V19.501Z" fill="#000001"/>
<path id="Vector_14" d="M11.4947 13.5029H10.4972V15.4979H11.4947V13.5029Z" fill="#000001"/>
<path id="Vector_15" d="M10.4972 15.4978H9.49969V16.5019H10.4972V15.4978Z" fill="#000001"/>
<path id="Vector_16" d="M10.4972 12.4988H8.49561V13.5028H10.4972V12.4988Z" fill="#000001"/>
<path id="Vector_17" d="M10.4972 21.5024H2.4975V22.4999H10.4972V21.5024Z" fill="#000001"/>
<path id="Vector_18" d="M9.49967 16.502H8.49561V17.4995H9.49967V16.502Z" fill="#000001"/>
<path id="Vector_19" d="M7.49814 18.4968H6.49408V19.5008H10.4972V18.4968H8.49564V17.4993H7.49814V18.4968Z" fill="#000001"/>
<path id="Vector_20" d="M8.49561 13.5029H7.49811V14.5004H8.49561V13.5029Z" fill="#000001"/>
<path id="Vector_21" d="M7.49814 14.5002H6.49408V15.4977H7.49814V14.5002Z" fill="#000001"/>
<path id="Vector_22" d="M4.49908 17.4995H5.49658V16.502H6.49408V15.4979H5.49658V13.5029H4.49908V17.4995Z" fill="#000001"/>
<path id="Vector_23" d="M4.49906 12.4988H2.4975V13.5028H4.49906V12.4988Z" fill="#000001"/>
<path id="Vector_24" d="M2.4975 13.5029H1.5V21.5026H2.4975V13.5029Z" fill="#000001"/>
</g>
</g>
</svg>
