<svg width="24" height="24" viewBox="0 0 24 24" fill="none" xmlns="http://www.w3.org/2000/svg">
<g id="internet-network-arrow-sync">
<g id="Group">
<path id="Vector" d="M22.5 9.49976H21.496V14.5004H22.5V9.49976Z" fill="#000001"/>
<path id="Vector_2" d="M21.4959 14.5002H20.4984V16.5018H21.4959V14.5002Z" fill="#000001"/>
<path id="Vector_3" d="M21.4959 7.49805H20.4984V9.49961H21.4959V7.49805Z" fill="#000001"/>
<path id="Vector_4" d="M20.4985 16.502H19.501V18.497H20.4985V16.502Z" fill="#000001"/>
<path id="Vector_5" d="M20.4985 5.49658H19.501V7.49814H20.4985V5.49658Z" fill="#000001"/>
<path id="Vector_6" d="M21.496 4.49896V3.50146H17.4994V7.49803H18.4969V5.49646H19.501V4.49896H21.496Z" fill="#000001"/>
<path id="Vector_7" d="M19.5009 18.4968H18.4968V19.5009H19.5009V18.4968Z" fill="#000001"/>
<path id="Vector_8" d="M18.4969 19.501H16.4954V20.4985H18.4969V19.501Z" fill="#000001"/>
<path id="Vector_9" d="M16.4953 14.5002H15.4978V15.4977H16.4953V14.5002Z" fill="#000001"/>
<path id="Vector_10" d="M16.4954 20.4985H14.5004V21.5026H16.4954V20.4985Z" fill="#000001"/>
<path id="Vector_11" d="M14.5003 14.5002H11.5012V15.4977H10.4971V16.5018H9.49963V17.4993H14.5003V16.5018H15.4978V15.4977H14.5003V14.5002Z" fill="#000001"/>
<path id="Vector_12" d="M14.5003 21.5024H9.49963V22.4999H14.5003V21.5024Z" fill="#000001"/>
<path id="Vector_13" d="M14.5003 7.49823V6.50073H9.49963V7.49823H12.4987V8.5023H11.5012V9.49979H12.4987V10.4973H14.5003V12.4989H15.4978V11.5014H16.4953V14.5004H17.4993V9.49979H16.4953V8.5023H15.4978V7.49823H14.5003Z" fill="#000001"/>
<path id="Vector_14" d="M14.5003 1.5H9.49963V2.4975H14.5003V1.5Z" fill="#000001"/>
<path id="Vector_15" d="M10.4972 13.4962V12.4987H11.5012V10.4971H10.4972V8.50211H9.49967V7.49805H8.49561V8.50211H7.49811V9.49961H6.50061V14.5002H7.49811V15.4977H8.49561V16.5018H9.49967V13.4962H10.4972Z" fill="#000001"/>
<path id="Vector_16" d="M9.49973 2.49756H7.49817V3.50162H9.49973V2.49756Z" fill="#000001"/>
<path id="Vector_17" d="M7.49814 3.50146H5.49658V4.49896H7.49814V3.50146Z" fill="#000001"/>
<path id="Vector_18" d="M2.49756 19.501V20.4985H6.50068V16.502H5.49662V18.497H4.49912V19.501H2.49756Z" fill="#000001"/>
<path id="Vector_19" d="M5.49652 4.49902H4.49902V5.49652H5.49652V4.49902Z" fill="#000001"/>
<path id="Vector_20" d="M4.49909 16.502H3.50159V18.497H4.49909V16.502Z" fill="#000001"/>
<path id="Vector_21" d="M4.49909 5.49658H3.50159V7.49814H4.49909V5.49658Z" fill="#000001"/>
<path id="Vector_22" d="M3.50162 14.5002H2.49756V16.5018H3.50162V14.5002Z" fill="#000001"/>
<path id="Vector_23" d="M3.50162 7.49805H2.49756V9.49961H3.50162V7.49805Z" fill="#000001"/>
<path id="Vector_24" d="M2.4975 9.49976H1.5V14.5004H2.4975V9.49976Z" fill="#000001"/>
</g>
</g>
</svg>
