<svg width="24" height="24" viewBox="0 0 24 24" fill="none" xmlns="http://www.w3.org/2000/svg">
<g id="interface-essential-cog-double">
<g id="Group">
<path id="Vector" d="M20.4984 6.50073V7.49823H21.5025V8.5023H20.4984V9.49979H22.5V6.50073H20.4984Z" fill="#000001"/>
<path id="Vector_2" d="M21.5025 10.4971H20.4984V11.5011H21.5025V10.4971Z" fill="#000001"/>
<path id="Vector_3" d="M21.5025 4.49902H20.4984V5.49652H21.5025V4.49902Z" fill="#000001"/>
<path id="Vector_4" d="M20.4984 11.5012H19.5009V12.4987H20.4984V11.5012Z" fill="#000001"/>
<path id="Vector_5" d="M20.4984 9.49976H19.5009V10.4973H20.4984V9.49976Z" fill="#000001"/>
<path id="Vector_6" d="M20.4984 5.49658H19.5009V6.50064H20.4984V5.49658Z" fill="#000001"/>
<path id="Vector_7" d="M20.4984 3.50146H19.5009V4.49896H20.4984V3.50146Z" fill="#000001"/>
<path id="Vector_8" d="M19.5009 12.4988H18.5034V13.4963H19.5009V12.4988Z" fill="#000001"/>
<path id="Vector_9" d="M19.5009 2.49756H18.5034V3.50162H19.5009V2.49756Z" fill="#000001"/>
<path id="Vector_10" d="M18.5035 11.5012H17.4994V12.4987H18.5035V11.5012Z" fill="#000001"/>
<path id="Vector_11" d="M18.5035 3.50146H17.4994V4.49896H18.5035V3.50146Z" fill="#000001"/>
<path id="Vector_12" d="M14.5003 1.5V3.50156H15.5044V2.4975H16.5019V3.50156H17.4994V1.5H14.5003Z" fill="#000001"/>
<path id="Vector_13" d="M16.5019 18.4968H15.5044V19.5009H16.5019V18.4968Z" fill="#000001"/>
<path id="Vector_14" d="M14.5003 12.4988V13.4963H16.5019V15.4978H14.5003V16.5019H17.4994V12.4988H14.5003Z" fill="#000001"/>
<path id="Vector_15" d="M15.5044 19.501H14.5003V20.4985H15.5044V19.501Z" fill="#000001"/>
<path id="Vector_16" d="M15.5044 17.4993H14.5003V18.4968H15.5044V17.4993Z" fill="#000001"/>
<path id="Vector_17" d="M15.5044 10.4971H14.5003V11.5011H15.5044V10.4971Z" fill="#000001"/>
<path id="Vector_18" d="M14.5003 9.49971H15.5044V10.4972H17.4994V9.49971H18.5034V6.50064H17.4994V7.49814H16.5019V6.50064H17.4994V5.49658H14.5003V6.50064H13.5028V8.50221H14.5003V9.49971Z" fill="#000001"/>
<path id="Vector_19" d="M14.5003 20.4985H13.5028V21.5026H14.5003V20.4985Z" fill="#000001"/>
<path id="Vector_20" d="M14.5003 16.502H13.5028V17.4995H14.5003V16.502Z" fill="#000001"/>
<path id="Vector_21" d="M14.5003 11.5012H13.5028V12.4987H14.5003V11.5012Z" fill="#000001"/>
<path id="Vector_22" d="M14.5003 3.50146H13.5028V4.49896H14.5003V3.50146Z" fill="#000001"/>
<path id="Vector_23" d="M13.5028 19.501H12.4987V20.4985H13.5028V19.501Z" fill="#000001"/>
<path id="Vector_24" d="M13.5028 8.5022H12.4987V9.4997H13.5028V8.5022Z" fill="#000001"/>
<path id="Vector_25" d="M13.5028 2.49756H12.4987V3.50162H13.5028V2.49756Z" fill="#000001"/>
<path id="Vector_26" d="M12.4988 18.4968H11.5013V19.5009H12.4988V18.4968Z" fill="#000001"/>
<path id="Vector_27" d="M12.4988 13.4963H11.5013V15.4979H12.4988V13.4963Z" fill="#000001"/>
<path id="Vector_28" d="M12.4988 9.49976H11.5013V10.4973H12.4988V9.49976Z" fill="#000001"/>
<path id="Vector_29" d="M12.4988 3.50146H11.5013V4.49896H12.4988V3.50146Z" fill="#000001"/>
<path id="Vector_30" d="M10.5038 21.5025H8.5022V19.501H7.5047V22.5H11.5013V19.501H10.5038V21.5025Z" fill="#000001"/>
<path id="Vector_31" d="M11.5013 15.4978H10.5038V16.5019H11.5013V15.4978Z" fill="#000001"/>
<path id="Vector_32" d="M11.5013 12.4988H10.5038V13.4963H11.5013V12.4988Z" fill="#000001"/>
<path id="Vector_33" d="M11.5013 4.49902H10.5038V5.49652H11.5013V4.49902Z" fill="#000001"/>
<path id="Vector_34" d="M10.5038 11.5012H8.5022V12.4987H10.5038V11.5012Z" fill="#000001"/>
<path id="Vector_35" d="M10.5038 16.502H8.5022V17.4995H10.5038V16.502Z" fill="#000001"/>
<path id="Vector_36" d="M8.5022 15.4978H7.5047V16.5019H8.5022V15.4978Z" fill="#000001"/>
<path id="Vector_37" d="M8.5022 12.4988H7.5047V13.4963H8.5022V12.4988Z" fill="#000001"/>
<path id="Vector_38" d="M8.5022 7.49823H10.5038V9.49979H11.5013V6.50073H7.5047V9.49979H8.5022V7.49823Z" fill="#000001"/>
<path id="Vector_39" d="M7.50467 18.4968H6.50061V19.5009H7.50467V18.4968Z" fill="#000001"/>
<path id="Vector_40" d="M7.50467 13.4963H6.50061V15.4979H7.50467V13.4963Z" fill="#000001"/>
<path id="Vector_41" d="M7.50467 9.49976H6.50061V10.4973H7.50467V9.49976Z" fill="#000001"/>
<path id="Vector_42" d="M6.50061 19.501H5.50311V20.4985H6.50061V19.501Z" fill="#000001"/>
<path id="Vector_43" d="M6.50061 8.5022H5.50311V9.4997H6.50061V8.5022Z" fill="#000001"/>
<path id="Vector_44" d="M5.50312 20.4985H4.49905V21.5026H5.50312V20.4985Z" fill="#000001"/>
<path id="Vector_45" d="M5.50312 16.502H4.49905V17.4995H5.50312V16.502Z" fill="#000001"/>
<path id="Vector_46" d="M5.50312 11.5012H4.49905V12.4987H5.50312V11.5012Z" fill="#000001"/>
<path id="Vector_47" d="M5.50312 7.49805H4.49905V8.50211H5.50312V7.49805Z" fill="#000001"/>
<path id="Vector_48" d="M4.49906 19.501H3.50156V20.4985H4.49906V19.501Z" fill="#000001"/>
<path id="Vector_49" d="M4.49906 17.4993H3.50156V18.4968H4.49906V17.4993Z" fill="#000001"/>
<path id="Vector_50" d="M2.50406 15.4978V13.4963H4.49906V12.4988H1.5V16.5019H4.49906V15.4978H2.50406Z" fill="#000001"/>
<path id="Vector_51" d="M4.49906 10.4971H3.50156V11.5011H4.49906V10.4971Z" fill="#000001"/>
<path id="Vector_52" d="M4.49906 8.5022H3.50156V9.4997H4.49906V8.5022Z" fill="#000001"/>
<path id="Vector_53" d="M3.50156 18.4968H2.50406V19.5009H3.50156V18.4968Z" fill="#000001"/>
<path id="Vector_54" d="M3.50156 9.49976H2.50406V10.4973H3.50156V9.49976Z" fill="#000001"/>
</g>
</g>
</svg>
