<svg width="24" height="24" viewBox="0 0 24 24" fill="none" xmlns="http://www.w3.org/2000/svg">
<g id="interface-essential-key-login">
<g id="Group">
<path id="Vector" d="M22.5 9.49976H21.4959V13.5029H22.5V9.49976Z" fill="#000001"/>
<path id="Vector_2" d="M21.4959 13.5029H20.4984V14.5004H21.4959V13.5029Z" fill="#000001"/>
<path id="Vector_3" d="M21.4959 8.5022H20.4984V9.4997H21.4959V8.5022Z" fill="#000001"/>
<path id="Vector_4" d="M20.4984 17.4993H19.5009V18.4968H20.4984V17.4993Z" fill="#000001"/>
<path id="Vector_5" d="M19.501 18.4968H18.4969V19.5009H19.501V18.4968Z" fill="#000001"/>
<path id="Vector_6" d="M20.4984 14.5002H16.4953V15.4977H20.4984V14.5002Z" fill="#000001"/>
<path id="Vector_7" d="M19.5009 9.49976H17.4994V10.4973H16.4953V12.4988H17.4994V13.5029H19.5009V12.4988H20.4984V10.4973H19.5009V9.49976Z" fill="#000001"/>
<path id="Vector_8" d="M19.501 4.49902H18.4969V5.50309H19.501V4.49902Z" fill="#000001"/>
<path id="Vector_9" d="M20.4984 7.49805H16.4953V8.50211H20.4984V7.49805Z" fill="#000001"/>
<path id="Vector_10" d="M18.4969 19.501H16.4953V20.4985H18.4969V19.501Z" fill="#000001"/>
<path id="Vector_11" d="M18.4969 3.50146H16.4953V4.49896H18.4969V3.50146Z" fill="#000001"/>
<path id="Vector_12" d="M16.4953 13.5029H15.4978V14.5004H16.4953V13.5029Z" fill="#000001"/>
<path id="Vector_13" d="M16.4953 8.5022H15.4978V9.4997H16.4953V8.5022Z" fill="#000001"/>
<path id="Vector_14" d="M16.4953 20.4985H14.5003V21.5026H16.4953V20.4985Z" fill="#000001"/>
<path id="Vector_15" d="M11.5012 11.5012V14.5003H12.4987V12.4987H14.5003V13.5028H15.4978V11.5012H11.5012Z" fill="#000001"/>
<path id="Vector_16" d="M16.4953 2.49756H14.5003V3.50162H16.4953V2.49756Z" fill="#000001"/>
<path id="Vector_17" d="M14.5003 21.5024H9.49969V22.4999H14.5003V21.5024Z" fill="#000001"/>
<path id="Vector_18" d="M11.5013 14.5002H10.4972V15.4977H11.5013V14.5002Z" fill="#000001"/>
<path id="Vector_19" d="M14.5003 1.5H9.49969V2.4975H14.5003V1.5Z" fill="#000001"/>
<path id="Vector_20" d="M10.4972 11.5012H7.49811V14.5003H8.49561V12.4987H9.49967V14.5003H10.4972V11.5012Z" fill="#000001"/>
<path id="Vector_21" d="M9.49967 20.4985H7.49811V21.5026H9.49967V20.4985Z" fill="#000001"/>
<path id="Vector_22" d="M9.49967 2.49756H7.49811V3.50162H9.49967V2.49756Z" fill="#000001"/>
<path id="Vector_23" d="M15.4978 9.49976H6.50061V10.4973H15.4978V9.49976Z" fill="#000001"/>
<path id="Vector_24" d="M7.49814 19.501H5.49658V20.4985H7.49814V19.501Z" fill="#000001"/>
<path id="Vector_25" d="M7.49811 14.5002H6.50061V15.4977H7.49811V14.5002Z" fill="#000001"/>
<path id="Vector_26" d="M7.49814 3.50146H5.49658V4.49896H7.49814V3.50146Z" fill="#000001"/>
<path id="Vector_27" d="M6.50064 10.4971H5.49658V14.5002H6.50064V10.4971Z" fill="#000001"/>
<path id="Vector_28" d="M5.49658 18.4968H4.49908V19.5009H5.49658V18.4968Z" fill="#000001"/>
<path id="Vector_29" d="M5.49658 4.49902H4.49908V5.50309H5.49658V4.49902Z" fill="#000001"/>
<path id="Vector_30" d="M4.49909 16.502H3.50159V18.497H4.49909V16.502Z" fill="#000001"/>
<path id="Vector_31" d="M4.49909 5.50317H3.50159V7.49817H4.49909V5.50317Z" fill="#000001"/>
<path id="Vector_32" d="M3.50156 14.5002H2.4975V16.5018H3.50156V14.5002Z" fill="#000001"/>
<path id="Vector_33" d="M3.50156 7.49805H2.4975V9.49961H3.50156V7.49805Z" fill="#000001"/>
<path id="Vector_34" d="M2.4975 9.49976H1.5V14.5004H2.4975V9.49976Z" fill="#000001"/>
</g>
</g>
</svg>
