<svg width="24" height="24" viewBox="0 0 24 24" fill="none" xmlns="http://www.w3.org/2000/svg">
<g id="interface-essential-search-binocular">
<g id="Group">
<path id="Vector" d="M22.5 13.9983H21.4959V17.9949H22.5V13.9983Z" fill="#000001"/>
<path id="Vector_2" d="M21.4959 17.9949H20.4984V18.9989H21.4959V17.9949Z" fill="#000001"/>
<path id="Vector_3" d="M19.5009 11.9967V13.0007H20.4984V13.9982H21.4959V9.99512H20.4984V11.9967H19.5009Z" fill="#000001"/>
<path id="Vector_4" d="M20.4984 18.9988H19.5009V19.9963H20.4984V18.9988Z" fill="#000001"/>
<path id="Vector_5" d="M20.4984 6.99609H19.5009V9.99516H20.4984V6.99609Z" fill="#000001"/>
<path id="Vector_6" d="M19.5009 13.0007H15.4978V13.9982H18.4969V14.9957H17.4994V15.9998H16.4953V16.9973H15.4978V13.9982H14.5003V17.9948H15.4978V18.9989H19.5009V17.9948H20.4984V13.9982H19.5009V13.0007Z" fill="#000001"/>
<path id="Vector_7" d="M19.501 3.99707H18.4969V6.99613H19.501V3.99707Z" fill="#000001"/>
<path id="Vector_8" d="M19.5009 19.9963H15.4978V21.0004H19.5009V19.9963Z" fill="#000001"/>
<path id="Vector_9" d="M19.5009 10.9993H15.4978V11.9968H19.5009V10.9993Z" fill="#000001"/>
<path id="Vector_10" d="M15.4978 18.9988H14.5003V19.9963H15.4978V18.9988Z" fill="#000001"/>
<path id="Vector_11" d="M15.4978 11.9966H14.5003V13.0006H15.4978V11.9966Z" fill="#000001"/>
<path id="Vector_12" d="M18.4969 2.99951H13.4963V3.99701H18.4969V2.99951Z" fill="#000001"/>
<path id="Vector_13" d="M14.5003 17.9949H13.4963V18.9989H14.5003V17.9949Z" fill="#000001"/>
<path id="Vector_14" d="M13.4963 13.9982H14.5003V13.0007H12.4988V17.9948H13.4963V13.9982Z" fill="#000001"/>
<path id="Vector_15" d="M14.5003 8.99774H13.4963V8.00024H10.4972V8.99774H9.49969V9.99524H10.4972V10.9993H13.4963V9.99524H14.5003V8.99774Z" fill="#000001"/>
<path id="Vector_16" d="M12.4987 11.9966H11.5012V13.0006H12.4987V11.9966Z" fill="#000001"/>
<path id="Vector_17" d="M10.4972 6.99613H13.4963V3.99707H12.4988V5.99863H11.5013V3.99707H10.4972V6.99613Z" fill="#000001"/>
<path id="Vector_18" d="M10.4972 17.9949H9.49969V18.9989H10.4972V17.9949Z" fill="#000001"/>
<path id="Vector_19" d="M9.49969 13.9982H10.4972V17.9948H11.5013V13.0007H9.49969V13.9982Z" fill="#000001"/>
<path id="Vector_20" d="M9.49967 18.9988H8.49561V19.9963H9.49967V18.9988Z" fill="#000001"/>
<path id="Vector_21" d="M9.49967 11.9966H8.49561V13.0006H9.49967V11.9966Z" fill="#000001"/>
<path id="Vector_22" d="M8.49565 13.0007H4.49909V13.9982H7.49815V14.9957H6.50065V15.9998H5.49659V16.9973H4.49909V13.9982H3.50159V17.9948H4.49909V18.9989H8.49565V17.9948H9.49971V13.9982H8.49565V13.0007Z" fill="#000001"/>
<path id="Vector_23" d="M8.49565 19.9963H4.49908V21.0004H8.49565V19.9963Z" fill="#000001"/>
<path id="Vector_24" d="M10.4972 2.99951H5.49658V3.99701H10.4972V2.99951Z" fill="#000001"/>
<path id="Vector_25" d="M8.49565 10.9993H4.49908V11.9968H8.49565V10.9993Z" fill="#000001"/>
<path id="Vector_26" d="M5.49658 3.99707H4.49908V6.99613H5.49658V3.99707Z" fill="#000001"/>
<path id="Vector_27" d="M4.49909 18.9988H3.50159V19.9963H4.49909V18.9988Z" fill="#000001"/>
<path id="Vector_28" d="M4.49909 6.99609H3.50159V9.99516H4.49909V6.99609Z" fill="#000001"/>
<path id="Vector_29" d="M3.50156 17.9949H2.4975V18.9989H3.50156V17.9949Z" fill="#000001"/>
<path id="Vector_30" d="M3.50156 13.0007H4.49906V11.9967H3.50156V9.99512H2.4975V13.9982H3.50156V13.0007Z" fill="#000001"/>
<path id="Vector_31" d="M2.4975 13.9983H1.5V17.9949H2.4975V13.9983Z" fill="#000001"/>
</g>
</g>
</svg>
