<svg width="24" height="24" viewBox="0 0 24 24" fill="none" xmlns="http://www.w3.org/2000/svg">
<g id="interface-essential-stat">
<g id="Group">
<path id="Vector" d="M21.5025 2.4975H20.4984V1.5H3.50156V2.4975H2.4975V3.50156H1.5V20.4984H2.4975V21.5025H3.50156V22.5H20.4984V21.5025H21.5025V20.4984H22.5V3.50156H21.5025V2.4975ZM21.5025 12.4988H20.4984V19.5009H19.5009V20.4984H4.49906V19.5009H3.50156V12.4988H2.4975V11.5012H3.50156V4.49906H4.49906V3.50156H19.5009V4.49906H20.4984V11.5012H21.5025V12.4988Z" fill="#000001"/>
<path id="Vector_2" d="M20.4985 11.5012H17.4994V12.4987H20.4985V11.5012Z" fill="#000001"/>
<path id="Vector_3" d="M17.4994 10.4971H16.5019V11.5011H17.4994V10.4971Z" fill="#000001"/>
<path id="Vector_4" d="M16.5019 11.5012H15.4978V13.5028H16.5019V11.5012Z" fill="#000001"/>
<path id="Vector_5" d="M15.4978 13.5029H14.5003V15.4979H15.4978V13.5029Z" fill="#000001"/>
<path id="Vector_6" d="M14.5003 15.4978H13.5028V16.5019H14.5003V15.4978Z" fill="#000001"/>
<path id="Vector_7" d="M13.5028 13.5029H12.4988V15.4979H13.5028V13.5029Z" fill="#000001"/>
<path id="Vector_8" d="M12.4987 11.5012H11.5012V13.5028H12.4987V11.5012Z" fill="#000001"/>
<path id="Vector_9" d="M11.5013 9.49976H10.4972V11.5013H11.5013V9.49976Z" fill="#000001"/>
<path id="Vector_10" d="M10.4972 7.49805H9.49969V9.49961H10.4972V7.49805Z" fill="#000001"/>
<path id="Vector_11" d="M9.4997 6.50073H8.5022V7.49823H9.4997V6.50073Z" fill="#000001"/>
<path id="Vector_12" d="M8.50217 7.49805H7.49811V9.49961H8.50217V7.49805Z" fill="#000001"/>
<path id="Vector_13" d="M7.49811 9.49976H6.50061V11.5013H7.49811V9.49976Z" fill="#000001"/>
<path id="Vector_14" d="M6.50065 11.5012H3.50159V12.4987H6.50065V11.5012Z" fill="#000001"/>
</g>
</g>
</svg>
