<svg width="24" height="24" viewBox="0 0 24 24" fill="none" xmlns="http://www.w3.org/2000/svg">
<g id="interface-essential-hammer-1">
<g id="Group">
<path id="Vector" d="M22.5 9.00098H21.5025V9.99848H22.5V9.00098Z" fill="#000001"/>
<path id="Vector_2" d="M21.5025 9.99854H20.4984V11.0026H21.5025V9.99854Z" fill="#000001"/>
<path id="Vector_3" d="M21.5025 8.00342H20.4984V9.00092H21.5025V8.00342Z" fill="#000001"/>
<path id="Vector_4" d="M20.4984 11.0024H19.5009V11.9999H20.4984V11.0024Z" fill="#000001"/>
<path id="Vector_5" d="M20.4984 6.99951H19.5009V8.00357H20.4984V6.99951Z" fill="#000001"/>
<path id="Vector_6" d="M19.5009 12H18.5034V12.9975H19.5009V12Z" fill="#000001"/>
<path id="Vector_7" d="M19.5009 8.00342H18.5034V9.00092H19.5009V8.00342Z" fill="#000001"/>
<path id="Vector_8" d="M19.5009 6.00195H18.5034V6.99945H19.5009V6.00195Z" fill="#000001"/>
<path id="Vector_9" d="M18.5035 12.9976H17.4994V14.0016H18.5035V12.9976Z" fill="#000001"/>
<path id="Vector_10" d="M18.5035 9.00098H17.4994V9.99848H18.5035V9.00098Z" fill="#000001"/>
<path id="Vector_11" d="M18.5035 4.9978H17.4994V6.00187H18.5035V4.9978Z" fill="#000001"/>
<path id="Vector_12" d="M17.4994 12H16.5019V12.9975H17.4994V12Z" fill="#000001"/>
<path id="Vector_13" d="M17.4994 9.99854H16.5019V11.0026H17.4994V9.99854Z" fill="#000001"/>
<path id="Vector_14" d="M17.4994 4.00024H16.5019V4.99774H17.4994V4.00024Z" fill="#000001"/>
<path id="Vector_15" d="M16.5019 11.0024H15.5044V11.9999H16.5019V11.0024Z" fill="#000001"/>
<path id="Vector_16" d="M16.5019 3.00293H14.5003V4.00043H16.5019V3.00293Z" fill="#000001"/>
<path id="Vector_17" d="M14.5003 9.99842V9.00092H13.5028V8.00342H12.4988V9.00092H11.5012V9.99842H12.4988V11.0025H11.5012V12H10.5038V12.9975H9.49969V12H8.50219V12.9975H7.50469V14.0015H6.50062V14.999H5.50312V16.0031H4.49906V17.0006H3.50156V17.9981H2.50406V19.0022H1.5V21.0037H2.50406V22.0012H4.49906V21.0037H5.50312V19.9997H6.50062V19.0022H7.50469V17.9981H8.50219V17.0006H9.49969V16.0031H10.5038V14.999H11.5012V14.0015H12.4988V12.9975H13.5028V12H14.5003V11.0025H15.5044V9.99842H14.5003Z" fill="#000001"/>
<path id="Vector_18" d="M14.5003 4.00024H12.4987V4.99774H14.5003V4.00024Z" fill="#000001"/>
<path id="Vector_19" d="M12.4988 6.99951H11.5013V8.00357H12.4988V6.99951Z" fill="#000001"/>
<path id="Vector_20" d="M12.4988 3.00293H11.5013V4.00043H12.4988V3.00293Z" fill="#000001"/>
<path id="Vector_21" d="M11.5013 9.99854H10.5038V11.0026H11.5013V9.99854Z" fill="#000001"/>
<path id="Vector_22" d="M11.5013 6.00195H10.5038V6.99945H11.5013V6.00195Z" fill="#000001"/>
<path id="Vector_23" d="M11.5013 1.99878H10.5038V3.00284H11.5013V1.99878Z" fill="#000001"/>
<path id="Vector_24" d="M10.5038 11.0024H9.49969V11.9999H10.5038V11.0024Z" fill="#000001"/>
<path id="Vector_25" d="M10.5038 4.9978H9.49969V6.00187H10.5038V4.9978Z" fill="#000001"/>
<path id="Vector_26" d="M10.5038 3.00293H9.49969V4.00043H10.5038V3.00293Z" fill="#000001"/>
<path id="Vector_27" d="M9.4997 4.00024H8.5022V4.99774H9.4997V4.00024Z" fill="#000001"/>
</g>
</g>
</svg>
