<svg width="24" height="24" viewBox="0 0 24 24" fill="none" xmlns="http://www.w3.org/2000/svg">
<g id="interface-essential-wireless">
<g id="Group">
<path id="Vector" d="M22.5 9.49976H21.4959V14.5004H22.5V9.49976Z" fill="#000001"/>
<path id="Vector_2" d="M21.4959 14.5002H20.4984V16.5018H21.4959V14.5002Z" fill="#000001"/>
<path id="Vector_3" d="M21.4959 7.49805H20.4984V9.49961H21.4959V7.49805Z" fill="#000001"/>
<path id="Vector_4" d="M20.4984 16.502H19.5009V18.497H20.4984V16.502Z" fill="#000001"/>
<path id="Vector_5" d="M20.4984 5.50317H19.5009V7.49817H20.4984V5.50317Z" fill="#000001"/>
<path id="Vector_6" d="M19.501 18.4968H18.4969V19.5009H19.501V18.4968Z" fill="#000001"/>
<path id="Vector_7" d="M19.501 9.49976H18.4969V14.5004H19.501V9.49976Z" fill="#000001"/>
<path id="Vector_8" d="M19.501 4.49902H18.4969V5.50309H19.501V4.49902Z" fill="#000001"/>
<path id="Vector_9" d="M18.4969 14.5002H17.4994V16.5018H18.4969V14.5002Z" fill="#000001"/>
<path id="Vector_10" d="M18.4969 7.49805H17.4994V9.49961H18.4969V7.49805Z" fill="#000001"/>
<path id="Vector_11" d="M18.4969 3.50146H16.4953V4.49896H18.4969V3.50146Z" fill="#000001"/>
<path id="Vector_12" d="M17.4994 16.502H16.4953V17.4995H17.4994V16.502Z" fill="#000001"/>
<path id="Vector_13" d="M17.4994 6.50073H16.4953V7.49823H17.4994V6.50073Z" fill="#000001"/>
<path id="Vector_14" d="M16.4953 9.49976H15.4978V14.5004H16.4953V9.49976Z" fill="#000001"/>
<path id="Vector_15" d="M16.4953 5.50317H14.5003V6.50067H16.4953V5.50317Z" fill="#000001"/>
<path id="Vector_16" d="M16.4953 2.49756H14.5003V3.50162H16.4953V2.49756Z" fill="#000001"/>
<path id="Vector_17" d="M15.4978 14.5002H14.5003V15.4977H15.4978V14.5002Z" fill="#000001"/>
<path id="Vector_18" d="M15.4978 8.5022H14.5003V9.4997H15.4978V8.5022Z" fill="#000001"/>
<path id="Vector_19" d="M14.5003 16.5019H13.4962V15.4978H10.4972V16.5019H9.49967V17.4994H8.49561V21.5025H9.49967V22.5H14.5003V21.5025H15.4978V17.4994H14.5003V16.5019ZM12.4987 19.5009H11.5012V17.4994H12.4987V19.5009Z" fill="#000001"/>
<path id="Vector_20" d="M14.5003 7.49805H9.49969V8.50211H14.5003V7.49805Z" fill="#000001"/>
<path id="Vector_21" d="M14.5003 4.49902H9.49969V5.50309H14.5003V4.49902Z" fill="#000001"/>
<path id="Vector_22" d="M14.5003 1.5H9.49969V2.4975H14.5003V1.5Z" fill="#000001"/>
<path id="Vector_23" d="M10.4972 9.49976V10.4973H9.49969V13.5029H10.4972V14.5004H13.4963V13.5029H14.5003V10.4973H13.4963V9.49976H10.4972Z" fill="#000001"/>
<path id="Vector_24" d="M9.49967 14.5002H8.49561V15.4977H9.49967V14.5002Z" fill="#000001"/>
<path id="Vector_25" d="M9.49967 8.5022H8.49561V9.4997H9.49967V8.5022Z" fill="#000001"/>
<path id="Vector_26" d="M8.49561 9.49976H7.49811V14.5004H8.49561V9.49976Z" fill="#000001"/>
<path id="Vector_27" d="M9.49967 5.50317H7.49811V6.50067H9.49967V5.50317Z" fill="#000001"/>
<path id="Vector_28" d="M9.49967 2.49756H7.49811V3.50162H9.49967V2.49756Z" fill="#000001"/>
<path id="Vector_29" d="M7.49811 16.502H6.50061V17.4995H7.49811V16.502Z" fill="#000001"/>
<path id="Vector_30" d="M7.49811 6.50073H6.50061V7.49823H7.49811V6.50073Z" fill="#000001"/>
<path id="Vector_31" d="M6.50064 14.5002H5.49658V16.5018H6.50064V14.5002Z" fill="#000001"/>
<path id="Vector_32" d="M6.50064 7.49805H5.49658V9.49961H6.50064V7.49805Z" fill="#000001"/>
<path id="Vector_33" d="M7.49814 3.50146H5.49658V4.49896H7.49814V3.50146Z" fill="#000001"/>
<path id="Vector_34" d="M5.49658 18.4968H4.49908V19.5009H5.49658V18.4968Z" fill="#000001"/>
<path id="Vector_35" d="M5.49658 9.49976H4.49908V14.5004H5.49658V9.49976Z" fill="#000001"/>
<path id="Vector_36" d="M5.49658 4.49902H4.49908V5.50309H5.49658V4.49902Z" fill="#000001"/>
<path id="Vector_37" d="M4.49909 16.502H3.50159V18.497H4.49909V16.502Z" fill="#000001"/>
<path id="Vector_38" d="M4.49909 5.50317H3.50159V7.49817H4.49909V5.50317Z" fill="#000001"/>
<path id="Vector_39" d="M3.50156 14.5002H2.4975V16.5018H3.50156V14.5002Z" fill="#000001"/>
<path id="Vector_40" d="M3.50156 7.49805H2.4975V9.49961H3.50156V7.49805Z" fill="#000001"/>
<path id="Vector_41" d="M2.4975 9.49976H1.5V14.5004H2.4975V9.49976Z" fill="#000001"/>
</g>
</g>
</svg>
