<svg width="24" height="24" viewBox="0 0 24 24" fill="none" xmlns="http://www.w3.org/2000/svg">
<g id="interface-essential-satellite">
<g id="Group">
<path id="Vector" d="M21.5025 4.49896H20.4984V3.50146H17.4994V4.49896H16.5019V5.49646H15.5044V6.50053H14.5003V7.49803H13.5028V8.50209H12.4987V9.49959H13.5028V10.4971H14.5003V11.5012H15.5044V12.4987H16.5019V13.4962H17.4994V12.4987H18.5034V11.5012H19.5009V10.4971H20.4984V9.49959H21.5025V8.50209H22.5V5.49646H21.5025V4.49896ZM20.4984 6.50053H19.5009V7.49803H20.4984V8.50209H19.5009V7.49803H18.5034V8.50209H17.4994V9.49959H18.5034V10.4971H17.4994V9.49959H16.5019V10.4971H15.5044V9.49959H16.5019V8.50209H15.5044V7.49803H16.5019V8.50209H17.4994V7.49803H18.5034V6.50053H17.4994V5.49646H18.5034V6.50053H19.5009V5.49646H20.4984V6.50053Z" fill="#000001"/>
<path id="Vector_2" d="M17.4994 16.5018V17.4993H16.5019V18.4968H14.5003V19.5009H15.5044V20.4984H17.4994V19.5009H18.5034V18.4968H19.5009V17.4993H20.4984V15.4977H19.5009V14.5002H18.5034V16.5018H17.4994Z" fill="#000001"/>
<path id="Vector_3" d="M18.5035 13.4963H17.4994V14.5004H18.5035V13.4963Z" fill="#000001"/>
<path id="Vector_4" d="M17.4994 15.4978H16.5019V16.5019H17.4994V15.4978Z" fill="#000001"/>
<path id="Vector_5" d="M16.5019 14.5002H15.5044V15.4977H16.5019V14.5002Z" fill="#000001"/>
<path id="Vector_6" d="M14.5003 17.4993H13.5028V18.4968H14.5003V17.4993Z" fill="#000001"/>
<path id="Vector_7" d="M12.4987 16.5019V15.4978H11.5012V14.5003H10.5037V13.4963H9.49968V12.4988H8.50218V13.4963H7.50468V14.5003H6.50062V15.4978H5.50312V16.5019H4.49906V17.4994H3.50156V20.4985H4.49906V21.5025H5.50312V22.5H8.50218V21.5025H9.49968V20.4985H10.5037V19.501H11.5012V18.4969H12.4987V17.4994H13.5028V16.5019H12.4987ZM10.5037 16.5019H9.49968V17.4994H10.5037V18.4969H9.49968V17.4994H8.50218V18.4969H7.50468V19.501H8.50218V20.4985H7.50468V19.501H6.50062V20.4985H5.50312V19.501H6.50062V18.4969H5.50312V17.4994H6.50062V18.4969H7.50468V17.4994H8.50218V16.5019H7.50468V15.4978H8.50218V16.5019H9.49968V15.4978H10.5037V16.5019Z" fill="#000001"/>
<path id="Vector_8" d="M12.4988 9.49976H11.5013V10.4973H12.4988V9.49976Z" fill="#000001"/>
<path id="Vector_9" d="M12.4988 7.49805H11.5013V8.50211H12.4988V7.49805Z" fill="#000001"/>
<path id="Vector_10" d="M11.5013 10.4971H10.5038V11.5011H11.5013V10.4971Z" fill="#000001"/>
<path id="Vector_11" d="M11.5013 8.5022H10.5038V9.4997H11.5013V8.5022Z" fill="#000001"/>
<path id="Vector_12" d="M10.5038 11.5012H9.49969V12.4987H10.5038V11.5012Z" fill="#000001"/>
<path id="Vector_13" d="M10.5038 9.49976H9.49969V10.4973H10.5038V9.49976Z" fill="#000001"/>
<path id="Vector_14" d="M9.4997 10.4971H8.5022V11.5011H9.4997V10.4971Z" fill="#000001"/>
<path id="Vector_15" d="M8.5022 11.5012H7.5047V12.4987H8.5022V11.5012Z" fill="#000001"/>
<path id="Vector_16" d="M9.49967 1.5H6.50061V2.4975H9.49967V1.5Z" fill="#000001"/>
<path id="Vector_17" d="M8.50217 9.49979V8.5023H9.49967V7.49823H11.5012V6.50073H8.50217V7.49823H7.50467V8.5023H6.50061V11.5014H7.50467V9.49979H8.50217Z" fill="#000001"/>
<path id="Vector_18" d="M8.50217 4.49902H6.50061V5.49652H8.50217V4.49902Z" fill="#000001"/>
<path id="Vector_19" d="M6.50061 5.49658H5.50311V6.50064H6.50061V5.49658Z" fill="#000001"/>
<path id="Vector_20" d="M6.50062 2.49756H4.49905V3.50162H6.50062V2.49756Z" fill="#000001"/>
<path id="Vector_21" d="M5.50312 6.50073H4.49905V8.5023H5.50312V6.50073Z" fill="#000001"/>
<path id="Vector_22" d="M4.49906 3.50146H3.50156V4.49896H4.49906V3.50146Z" fill="#000001"/>
<path id="Vector_23" d="M3.50156 4.49902H2.50406V6.50059H3.50156V4.49902Z" fill="#000001"/>
<path id="Vector_24" d="M2.50406 6.50073H1.5V9.49979H2.50406V6.50073Z" fill="#000001"/>
</g>
</g>
</svg>
