<svg width="24" height="24" viewBox="0 0 24 24" fill="none" xmlns="http://www.w3.org/2000/svg">
<g id="interface-essential-protect-rubber-ring">
<g id="Group">
<path id="Vector" d="M21.4959 7.49805H20.4984V8.50211H18.4969V9.49961H16.4953V14.5002H18.4969V15.4977H20.4984V16.5018H21.4959V14.5002H20.4984V11.5012H21.4959V14.5002H22.5V9.49961H21.4959V7.49805Z" fill="#000001"/>
<path id="Vector_2" d="M20.4984 16.502H19.5009V18.497H20.4984V16.502Z" fill="#000001"/>
<path id="Vector_3" d="M20.4984 5.50317H19.5009V7.49817H20.4984V5.50317Z" fill="#000001"/>
<path id="Vector_4" d="M19.501 18.4968H18.4969V19.5009H19.501V18.4968Z" fill="#000001"/>
<path id="Vector_5" d="M19.501 4.49902H18.4969V5.50309H19.501V4.49902Z" fill="#000001"/>
<path id="Vector_6" d="M18.4969 19.501H16.4953V20.4985H18.4969V19.501Z" fill="#000001"/>
<path id="Vector_7" d="M18.4969 3.50146H16.4953V4.49896H18.4969V3.50146Z" fill="#000001"/>
<path id="Vector_8" d="M16.4953 14.5002H15.4978V15.4977H16.4953V14.5002Z" fill="#000001"/>
<path id="Vector_9" d="M16.4953 8.5022H15.4978V9.4997H16.4953V8.5022Z" fill="#000001"/>
<path id="Vector_10" d="M15.4978 18.497H14.5003V16.502H9.4997V18.497H8.49564V20.4985H7.49814V21.5026H9.4997V22.5001H14.5003V21.5026H16.4953V20.4985H15.4978V18.497Z" fill="#000001"/>
<path id="Vector_11" d="M15.4978 15.4978H14.5003V16.5019H15.4978V15.4978Z" fill="#000001"/>
<path id="Vector_12" d="M15.4978 7.49805H14.5003V8.50211H15.4978V7.49805Z" fill="#000001"/>
<path id="Vector_13" d="M9.4997 15.4978H8.49564V16.5019H9.4997V15.4978Z" fill="#000001"/>
<path id="Vector_14" d="M9.4997 7.49805H8.49564V8.50211H9.4997V7.49805Z" fill="#000001"/>
<path id="Vector_15" d="M8.49564 5.50312H9.4997V7.49813H14.5003V5.50312H15.4978V3.50156H16.4953V2.4975H14.5003V1.5H9.4997V2.4975H7.49814V3.50156H8.49564V5.50312Z" fill="#000001"/>
<path id="Vector_16" d="M8.49564 14.5002H7.49814V15.4977H8.49564V14.5002Z" fill="#000001"/>
<path id="Vector_17" d="M8.49564 8.5022H7.49814V9.4997H8.49564V8.5022Z" fill="#000001"/>
<path id="Vector_18" d="M7.49811 19.501H5.49655V20.4985H7.49811V19.501Z" fill="#000001"/>
<path id="Vector_19" d="M7.49811 3.50146H5.49655V4.49896H7.49811V3.50146Z" fill="#000001"/>
<path id="Vector_20" d="M5.49655 18.4968H4.49905V19.5009H5.49655V18.4968Z" fill="#000001"/>
<path id="Vector_21" d="M5.49655 4.49902H4.49905V5.50309H5.49655V4.49902Z" fill="#000001"/>
<path id="Vector_22" d="M4.49906 16.502H3.50156V18.497H4.49906V16.502Z" fill="#000001"/>
<path id="Vector_23" d="M5.49656 15.4977V14.5002H7.49813V9.49961H5.49656V8.50211H3.50156V7.49805H2.4975V9.49961H1.5V14.5002H2.4975V16.5018H3.50156V15.4977H5.49656Z" fill="#000001"/>
<path id="Vector_24" d="M4.49906 5.50317H3.50156V7.49817H4.49906V5.50317Z" fill="#000001"/>
</g>
</g>
</svg>
