<svg width="24" height="24" viewBox="0 0 24 24" fill="none" xmlns="http://www.w3.org/2000/svg">
<g id="interface-essential-shrink-1">
<g id="Group">
<path id="Vector" d="M22.5 1.5H21.4959V2.4975H22.5V1.5Z" fill="#000001"/>
<path id="Vector_2" d="M21.4959 2.49756H20.4984V3.50162H21.4959V2.49756Z" fill="#000001"/>
<path id="Vector_3" d="M20.4984 3.50146H19.4944V4.49896H20.4984V3.50146Z" fill="#000001"/>
<path id="Vector_4" d="M19.4944 4.49902H18.4969V5.49652H19.4944V4.49902Z" fill="#000001"/>
<path id="Vector_5" d="M18.4969 5.49658H17.4994V6.50064H18.4969V5.49658Z" fill="#000001"/>
<path id="Vector_6" d="M17.4994 6.50073H16.4953V7.49823H17.4994V6.50073Z" fill="#000001"/>
<path id="Vector_7" d="M16.4953 7.49805H15.4978V8.50211H16.4953V7.49805Z" fill="#000001"/>
<path id="Vector_8" d="M15.4978 8.5022H14.4938V9.4997H15.4978V8.5022Z" fill="#000001"/>
<path id="Vector_9" d="M13.4963 5.49658H12.4988V11.5013H18.4969V10.4972H14.4938V9.49971H13.4963V5.49658Z" fill="#000001"/>
<path id="Vector_10" d="M10.4972 18.4969H11.4947V12.4988H5.49658V13.5028H9.49971V14.5003H10.4972V18.4969Z" fill="#000001"/>
<path id="Vector_11" d="M9.49967 14.5002H8.49561V15.4977H9.49967V14.5002Z" fill="#000001"/>
<path id="Vector_12" d="M8.49561 15.4978H7.49811V16.5019H8.49561V15.4978Z" fill="#000001"/>
<path id="Vector_13" d="M7.49814 16.502H6.49408V17.4995H7.49814V16.502Z" fill="#000001"/>
<path id="Vector_14" d="M6.49408 17.4993H5.49658V18.4968H6.49408V17.4993Z" fill="#000001"/>
<path id="Vector_15" d="M5.49658 18.4968H4.49908V19.5009H5.49658V18.4968Z" fill="#000001"/>
<path id="Vector_16" d="M4.49906 19.501H3.495V20.4985H4.49906V19.501Z" fill="#000001"/>
<path id="Vector_17" d="M3.495 20.4985H2.4975V21.5026H3.495V20.4985Z" fill="#000001"/>
<path id="Vector_18" d="M2.4975 21.5024H1.5V22.4999H2.4975V21.5024Z" fill="#000001"/>
</g>
</g>
</svg>
