<svg width="24" height="24" viewBox="0 0 24 24" fill="none" xmlns="http://www.w3.org/2000/svg">
<g id="interface-essential-hammer-2">
<g id="Group">
<path id="Vector" d="M22.0013 9.00098H20.9972V11.0025H22.0013V9.00098Z" fill="#000001"/>
<path id="Vector_2" d="M20.9972 11.0024H19.9997V11.9999H20.9972V11.0024Z" fill="#000001"/>
<path id="Vector_3" d="M19.9997 12H19.0022V12.9975H19.9997V12Z" fill="#000001"/>
<path id="Vector_4" d="M20.9972 8.00342H19.0022V9.00092H20.9972V8.00342Z" fill="#000001"/>
<path id="Vector_5" d="M19.0022 9.00098H17.9981V9.99848H19.0022V9.00098Z" fill="#000001"/>
<path id="Vector_6" d="M19.0022 6.99951H17.9981V8.00357H19.0022V6.99951Z" fill="#000001"/>
<path id="Vector_7" d="M19.0022 12.9976H17.0006V14.0016H19.0022V12.9976Z" fill="#000001"/>
<path id="Vector_8" d="M17.9981 9.99854H17.0006V11.0026H17.9981V9.99854Z" fill="#000001"/>
<path id="Vector_9" d="M17.9981 6.00195H17.0006V6.99945H17.9981V6.00195Z" fill="#000001"/>
<path id="Vector_10" d="M17.0006 11.0024H16.0031V12.9974H17.0006V11.0024Z" fill="#000001"/>
<path id="Vector_11" d="M17.0006 4.9978H16.0031V6.00187H17.0006V4.9978Z" fill="#000001"/>
<path id="Vector_12" d="M16.0031 9.99854H14.9991V11.0026H16.0031V9.99854Z" fill="#000001"/>
<path id="Vector_13" d="M16.0031 4.00024H14.9991V4.99774H16.0031V4.00024Z" fill="#000001"/>
<path id="Vector_14" d="M14.9991 11.0024H14.0016V11.9999H14.9991V11.0024Z" fill="#000001"/>
<path id="Vector_15" d="M14.9991 3.00293H14.0016V4.00043H14.9991V3.00293Z" fill="#000001"/>
<path id="Vector_16" d="M12.9975 11.0026H12V9.99854H11.0025V11.0026H9.99844V12.0001H11.0025V12.9976H9.99844V14.0017H9.00094V14.9992H8.00344V14.0017H6.99937V14.9992H6.00187V16.0032H4.99781V17.0007H4.00031V17.9982H3.00281V19.0023H1.99875V21.0038H3.00281V22.0013H4.99781V21.0038H6.00187V19.9998H6.99937V19.0023H8.00344V17.9982H9.00094V17.0007H9.99844V16.0032H11.0025V14.9992H12V14.0017H12.9975V12.9976H14.0016V12.0001H12.9975V11.0026Z" fill="#000001"/>
<path id="Vector_17" d="M12.9975 8.00342H12V9.99842H12.9975V8.00342Z" fill="#000001"/>
<path id="Vector_18" d="M14.0016 1.99878H11.0025V3.00284H14.0016V1.99878Z" fill="#000001"/>
<path id="Vector_19" d="M12 6.99951H11.0025V8.00357H12V6.99951Z" fill="#000001"/>
<path id="Vector_20" d="M11.0025 6.00195H9.00095V6.99945H11.0025V6.00195Z" fill="#000001"/>
<path id="Vector_21" d="M11.0025 3.00293H9.00095V4.00043H11.0025V3.00293Z" fill="#000001"/>
<path id="Vector_22" d="M9.99845 12H9.00095V12.9975H9.99845V12Z" fill="#000001"/>
<path id="Vector_23" d="M9.00095 12.9976H8.00345V14.0016H9.00095V12.9976Z" fill="#000001"/>
<path id="Vector_24" d="M9.00095 6.99951H8.00345V8.00357H9.00095V6.99951Z" fill="#000001"/>
<path id="Vector_25" d="M9.00095 4.00024H8.00345V4.99774H9.00095V4.00024Z" fill="#000001"/>
<path id="Vector_26" d="M8.00342 4.9978H6.99936V6.99937H8.00342V4.9978Z" fill="#000001"/>
</g>
</g>
</svg>
