<svg width="24" height="24" viewBox="0 0 24 24" fill="none" xmlns="http://www.w3.org/2000/svg">
<g id="interface-essential-speaker-announce">
<g id="Group">
<path id="Vector" d="M22.5 4.9978H21.4959V17.0006H22.5V4.9978Z" fill="#000001"/>
<path id="Vector_2" d="M21.4959 17.0007H20.4984V17.9982H21.4959V17.0007Z" fill="#000001"/>
<path id="Vector_3" d="M21.4959 4.00024H20.4984V4.99774H21.4959V4.00024Z" fill="#000001"/>
<path id="Vector_4" d="M20.4984 17.998H19.5009V18.9955H20.4984V17.998Z" fill="#000001"/>
<path id="Vector_5" d="M20.4984 2.99634H19.5009V4.0004H20.4984V2.99634Z" fill="#000001"/>
<path id="Vector_6" d="M19.501 14.999H18.4969V15.9965H19.501V14.999Z" fill="#000001"/>
<path id="Vector_7" d="M19.501 6.00195H18.4969V6.99945H19.501V6.00195Z" fill="#000001"/>
<path id="Vector_8" d="M19.5009 18.9956H16.4953V19.9997H19.5009V18.9956Z" fill="#000001"/>
<path id="Vector_9" d="M18.4969 14.0017H17.4994V14.9992H18.4969V14.0017Z" fill="#000001"/>
<path id="Vector_10" d="M18.4969 6.99951H17.4994V7.99701H18.4969V6.99951Z" fill="#000001"/>
<path id="Vector_11" d="M19.5009 1.99878H16.4953V2.99628H19.5009V1.99878Z" fill="#000001"/>
<path id="Vector_12" d="M17.4994 7.99683H16.4953V14.0015H17.4994V7.99683Z" fill="#000001"/>
<path id="Vector_13" d="M16.4953 17.998H14.5003V18.9955H16.4953V17.998Z" fill="#000001"/>
<path id="Vector_14" d="M16.4953 2.99634H14.5003V4.0004H16.4953V2.99634Z" fill="#000001"/>
<path id="Vector_15" d="M14.5003 17.0007H12.4988V17.9982H14.5003V17.0007Z" fill="#000001"/>
<path id="Vector_16" d="M14.5003 4.00024H12.4988V4.99774H14.5003V4.00024Z" fill="#000001"/>
<path id="Vector_17" d="M12.4988 15.9966H9.49969V17.0006H12.4988V15.9966Z" fill="#000001"/>
<path id="Vector_18" d="M12.4988 4.9978H9.49969V6.00187H12.4988V4.9978Z" fill="#000001"/>
<path id="Vector_19" d="M7.49813 14.9991V6.99945H9.49969V6.00195H4.49906V6.99945H2.4975V7.99695H1.5V14.0016H2.4975V14.9991H4.49906V20.9973H5.49656V15.9966H7.49813V20.9973H8.49562V15.9966H9.49969V14.9991H7.49813ZM4.49906 9.00102H3.50156V10.996H2.4975V9.00102H3.50156V7.99695H4.49906V9.00102Z" fill="#000001"/>
<path id="Vector_20" d="M7.49814 20.9973H5.49658V22.0014H7.49814V20.9973Z" fill="#000001"/>
</g>
</g>
</svg>
