<svg width="24" height="24" viewBox="0 0 24 24" fill="none" xmlns="http://www.w3.org/2000/svg">
<g id="interface-essential-loading-0-percent">
<g id="Group">
<path id="Vector" d="M22.5 11.5012H20.4984V12.4987H22.5V11.5012Z" fill="#000001"/>
<path id="Vector_2" d="M21.4959 16.502H20.4984V17.4995H21.4959V16.502Z" fill="#000001"/>
<path id="Vector_3" d="M21.4959 6.50073H20.4984V7.49823H21.4959V6.50073Z" fill="#000001"/>
<path id="Vector_4" d="M20.4984 15.4978H19.4944V16.5019H20.4984V15.4978Z" fill="#000001"/>
<path id="Vector_5" d="M20.4984 7.49805H19.4944V8.50211H20.4984V7.49805Z" fill="#000001"/>
<path id="Vector_6" d="M18.4969 20.4985H17.4994V21.5026H18.4969V20.4985Z" fill="#000001"/>
<path id="Vector_7" d="M18.4969 2.49756H17.4994V3.50162H18.4969V2.49756Z" fill="#000001"/>
<path id="Vector_8" d="M17.4994 19.501H16.4953V20.4985H17.4994V19.501Z" fill="#000001"/>
<path id="Vector_9" d="M17.4994 3.50146H16.4953V4.49896H17.4994V3.50146Z" fill="#000001"/>
<path id="Vector_10" d="M16.4953 13.5029H15.4978V14.5004H16.4953V13.5029Z" fill="#000001"/>
<path id="Vector_11" d="M16.4953 10.4971H15.4978V11.5011H16.4953V10.4971Z" fill="#000001"/>
<path id="Vector_12" d="M15.4978 11.5012H14.4938V12.4987H15.4978V11.5012Z" fill="#000001"/>
<path id="Vector_13" d="M14.4938 12.4988H13.4963V13.5028H14.4938V12.4988Z" fill="#000001"/>
<path id="Vector_14" d="M13.4963 13.5029H12.4988V14.5004H13.4963V13.5029Z" fill="#000001"/>
<path id="Vector_15" d="M13.4963 10.4971H12.4988V11.5011H13.4963V10.4971Z" fill="#000001"/>
<path id="Vector_16" d="M12.4988 20.4985H11.4947V22.5001H12.4988V20.4985Z" fill="#000001"/>
<path id="Vector_17" d="M12.4988 1.5H11.4947V3.50156H12.4988V1.5Z" fill="#000001"/>
<path id="Vector_18" d="M11.4947 9.49976H8.49561V14.5004H11.4947V9.49976ZM10.4972 13.5029H9.49967V10.4973H10.4972V13.5029Z" fill="#000001"/>
<path id="Vector_19" d="M7.49814 19.501H6.49408V20.4985H7.49814V19.501Z" fill="#000001"/>
<path id="Vector_20" d="M7.49814 3.50146H6.49408V4.49896H7.49814V3.50146Z" fill="#000001"/>
<path id="Vector_21" d="M6.49408 20.4985H5.49658V21.5026H6.49408V20.4985Z" fill="#000001"/>
<path id="Vector_22" d="M6.49408 2.49756H5.49658V3.50162H6.49408V2.49756Z" fill="#000001"/>
<path id="Vector_23" d="M4.49906 15.4978H3.495V16.5019H4.49906V15.4978Z" fill="#000001"/>
<path id="Vector_24" d="M4.49906 7.49805H3.495V8.50211H4.49906V7.49805Z" fill="#000001"/>
<path id="Vector_25" d="M3.495 16.502H2.4975V17.4995H3.495V16.502Z" fill="#000001"/>
<path id="Vector_26" d="M3.495 11.5012H1.5V12.4987H3.495V11.5012Z" fill="#000001"/>
<path id="Vector_27" d="M3.495 6.50073H2.4975V7.49823H3.495V6.50073Z" fill="#000001"/>
</g>
</g>
</svg>
