<svg width="24" height="24" viewBox="0 0 24 24" fill="none" xmlns="http://www.w3.org/2000/svg">
<g id="interface-essential-switch-on">
<g id="Group">
<path id="Vector" d="M22.5 3.50146H21.5025V20.4983H22.5V3.50146Z" fill="#000001"/>
<path id="Vector_2" d="M21.5025 20.4985H20.4984V21.5026H21.5025V20.4985Z" fill="#000001"/>
<path id="Vector_3" d="M21.5025 2.49756H20.4984V3.50162H21.5025V2.49756Z" fill="#000001"/>
<path id="Vector_4" d="M20.4984 18.4968H19.5009V19.5009H20.4984V18.4968Z" fill="#000001"/>
<path id="Vector_5" d="M20.4984 4.49902H19.5009V5.49652H20.4984V4.49902Z" fill="#000001"/>
<path id="Vector_6" d="M20.4985 21.5024H3.50159V22.4999H20.4985V21.5024Z" fill="#000001"/>
<path id="Vector_7" d="M16.5019 5.49646H14.5003V4.49896H13.5028V3.50146H6.50061V4.49896H11.5012V5.49646H6.50061V4.49896H5.50311V7.49803H6.50061V6.50053H13.5028V7.49803H14.5003V8.50209H15.5044V9.49959H16.5019V10.4971H9.49968V9.49959H8.50218V17.4993H9.49968V11.5012H16.5019V17.4993H17.4994V6.50053H16.5019V5.49646Z" fill="#000001"/>
<path id="Vector_8" d="M16.5019 17.4993H9.49969V18.4968H16.5019V17.4993Z" fill="#000001"/>
<path id="Vector_9" d="M15.5044 14.5002H14.5003V15.4977H15.5044V14.5002Z" fill="#000001"/>
<path id="Vector_10" d="M15.5044 12.4988H14.5003V13.4963H15.5044V12.4988Z" fill="#000001"/>
<path id="Vector_11" d="M14.5003 15.4978H11.5012V16.5019H14.5003V15.4978Z" fill="#000001"/>
<path id="Vector_12" d="M11.5012 14.5002H10.5037V15.4977H11.5012V14.5002Z" fill="#000001"/>
<path id="Vector_13" d="M11.5012 12.4988H10.5037V13.4963H11.5012V12.4988Z" fill="#000001"/>
<path id="Vector_14" d="M8.5022 8.5022H7.5047V9.4997H8.5022V8.5022Z" fill="#000001"/>
<path id="Vector_15" d="M7.50467 7.49805H6.50061V8.50211H7.50467V7.49805Z" fill="#000001"/>
<path id="Vector_16" d="M20.4985 1.5H3.50159V2.4975H20.4985V1.5Z" fill="#000001"/>
<path id="Vector_17" d="M4.49909 18.4968H3.50159V19.5009H4.49909V18.4968Z" fill="#000001"/>
<path id="Vector_18" d="M4.49909 4.49902H3.50159V5.49652H4.49909V4.49902Z" fill="#000001"/>
<path id="Vector_19" d="M3.50159 20.4985H2.50409V21.5026H3.50159V20.4985Z" fill="#000001"/>
<path id="Vector_20" d="M3.50159 2.49756H2.50409V3.50162H3.50159V2.49756Z" fill="#000001"/>
<path id="Vector_21" d="M2.50406 3.50146H1.5V20.4983H2.50406V3.50146Z" fill="#000001"/>
</g>
</g>
</svg>
