<svg width="24" height="24" viewBox="0 0 24 24" fill="none" xmlns="http://www.w3.org/2000/svg">
<g id="interface-essential-iris-scan-approved">
<g id="Group">
<path id="Vector" d="M21.5025 15.9965H20.4984V17.0005H19.5009V17.998H18.5034V18.9955H17.4993V19.9996H14.5003V18.9955H13.5028V17.998H12.4987V15.9965H14.5003V17.0005H15.5043V17.998H16.5018V17.0005H17.4993V15.9965H18.5034V14.999H19.5009V13.9949H21.5025V12.9974H20.4984V11.9999H19.5009V10.9958H14.5003V11.9999H13.5028V12.9974H12.4987V13.9949H11.5012V18.9955H12.4987V19.9996H13.5028V20.9971H14.5003V22.0012H19.5009V20.9971H20.4984V19.9996H21.5025V18.9955H22.5V13.9949H21.5025V15.9965Z" fill="#000001"/>
<path id="Vector_2" d="M21.5025 6.99951H20.4984V9.00107H21.5025V6.99951Z" fill="#000001"/>
<path id="Vector_3" d="M20.4984 5.99536H19.5009V6.99942H20.4984V5.99536Z" fill="#000001"/>
<path id="Vector_4" d="M20.4984 9.00098H19.5009V9.99848H20.4984V9.00098Z" fill="#000001"/>
<path id="Vector_5" d="M19.5009 4.9978H18.5034V5.9953H19.5009V4.9978Z" fill="#000001"/>
<path id="Vector_6" d="M18.5035 4.00024H16.5019V4.99774H18.5035V4.00024Z" fill="#000001"/>
<path id="Vector_7" d="M16.5019 2.99634H14.5003V4.0004H16.5019V2.99634Z" fill="#000001"/>
<path id="Vector_8" d="M15.5044 5.99536H14.5003V9.99849H15.5044V5.99536Z" fill="#000001"/>
<path id="Vector_9" d="M14.5003 4.9978H13.5028V5.9953H14.5003V4.9978Z" fill="#000001"/>
<path id="Vector_10" d="M13.5028 6.99951H12.4988V9.00107H13.5028V6.99951Z" fill="#000001"/>
<path id="Vector_11" d="M12.4987 5.99536H11.5012V6.99942H12.4987V5.99536Z" fill="#000001"/>
<path id="Vector_12" d="M12.4988 10.9958H9.49969V11.9999H12.4988V10.9958Z" fill="#000001"/>
<path id="Vector_13" d="M13.5028 4.00024H9.49969V4.99774H13.5028V4.00024Z" fill="#000001"/>
<path id="Vector_14" d="M14.5003 1.99878H8.5022V2.99628H14.5003V1.99878Z" fill="#000001"/>
<path id="Vector_15" d="M9.4997 4.9978H8.5022V5.9953H9.4997V4.9978Z" fill="#000001"/>
<path id="Vector_16" d="M9.4997 9.99854H8.5022V10.996H9.4997V9.99854Z" fill="#000001"/>
<path id="Vector_17" d="M10.5038 12.9976H8.5022V13.9951H10.5038V12.9976Z" fill="#000001"/>
<path id="Vector_18" d="M8.50217 2.99634H6.50061V4.0004H8.50217V2.99634Z" fill="#000001"/>
<path id="Vector_19" d="M8.5022 5.99536H7.5047V9.99849H8.5022V5.99536Z" fill="#000001"/>
<path id="Vector_20" d="M8.50217 12H6.50061V12.9975H8.50217V12Z" fill="#000001"/>
<path id="Vector_21" d="M6.50065 4.00024H4.49908V4.99774H6.50065V4.00024Z" fill="#000001"/>
<path id="Vector_22" d="M6.50065 10.9958H4.49908V11.9999H6.50065V10.9958Z" fill="#000001"/>
<path id="Vector_23" d="M4.49909 4.9978H3.50159V5.9953H4.49909V4.9978Z" fill="#000001"/>
<path id="Vector_24" d="M4.49909 9.99854H3.50159V10.996H4.49909V9.99854Z" fill="#000001"/>
<path id="Vector_25" d="M3.50159 5.99536H2.50409V6.99942H3.50159V5.99536Z" fill="#000001"/>
<path id="Vector_26" d="M3.50159 9.00098H2.50409V9.99848H3.50159V9.00098Z" fill="#000001"/>
<path id="Vector_27" d="M2.50406 6.99951H1.5V9.00107H2.50406V6.99951Z" fill="#000001"/>
</g>
</g>
</svg>
