<svg width="24" height="24" viewBox="0 0 24 24" fill="none" xmlns="http://www.w3.org/2000/svg">
<g id="interface-essential-key-lock">
<g id="Group">
<path id="Vector" d="M22.5 12.4988H21.5025V20.4985H22.5V12.4988Z" fill="#000001"/>
<path id="Vector_2" d="M21.5025 20.4985H20.4984V21.5026H21.5025V20.4985Z" fill="#000001"/>
<path id="Vector_3" d="M20.4984 11.5012V3.50156H19.5009V2.4975H18.5034V1.5H13.5028V2.4975H12.4988V3.50156H11.5013V11.5012H10.5038V12.4988H21.5025V11.5012H20.4984ZM18.5034 11.5012H13.5028V4.49906H14.5003V3.50156H17.4994V4.49906H18.5034V11.5012Z" fill="#000001"/>
<path id="Vector_4" d="M20.4984 21.5024H11.5013V22.4999H20.4984V21.5024Z" fill="#000001"/>
<path id="Vector_5" d="M18.5035 16.502H17.4994V17.4995H18.5035V16.502Z" fill="#000001"/>
<path id="Vector_6" d="M18.5035 14.5002H17.4994V15.4977H18.5035V14.5002Z" fill="#000001"/>
<path id="Vector_7" d="M17.4994 17.4993H14.5003V18.4968H17.4994V17.4993Z" fill="#000001"/>
<path id="Vector_8" d="M14.5003 16.502H13.5028V17.4995H14.5003V16.502Z" fill="#000001"/>
<path id="Vector_9" d="M14.5003 14.5002H13.5028V15.4977H14.5003V14.5002Z" fill="#000001"/>
<path id="Vector_10" d="M11.5013 20.4985H10.5038V21.5026H11.5013V20.4985Z" fill="#000001"/>
<path id="Vector_11" d="M10.5038 12.4988H9.49969V15.4978H10.5038V12.4988Z" fill="#000001"/>
<path id="Vector_12" d="M9.4997 16.502H8.5022V20.4985H9.4997V16.502Z" fill="#000001"/>
<path id="Vector_13" d="M8.5022 20.4985H7.5047V21.5026H8.5022V20.4985Z" fill="#000001"/>
<path id="Vector_14" d="M8.5022 15.4978H7.5047V16.5019H8.5022V15.4978Z" fill="#000001"/>
<path id="Vector_15" d="M7.50467 5.49658H6.50061V15.4978H7.50467V5.49658Z" fill="#000001"/>
<path id="Vector_16" d="M7.50468 21.5024H3.50156V22.4999H7.50468V21.5024Z" fill="#000001"/>
<path id="Vector_17" d="M6.50062 16.502H4.49906V17.4995H3.50156V19.501H4.49906V20.4985H6.50062V19.501H7.50468V17.4995H6.50062V16.502Z" fill="#000001"/>
<path id="Vector_18" d="M6.50062 4.49902H4.49905V5.49652H6.50062V4.49902Z" fill="#000001"/>
<path id="Vector_19" d="M4.49906 12.4988H2.50406V11.5013H4.49906V8.50221H2.50406V7.49814H4.49906V5.49658H3.50156V6.50064H1.5V9.49971H3.50156V10.4972H1.5V13.4963H3.50156V15.4978H4.49906V12.4988Z" fill="#000001"/>
<path id="Vector_20" d="M3.50156 20.4985H2.50406V21.5026H3.50156V20.4985Z" fill="#000001"/>
<path id="Vector_21" d="M3.50156 15.4978H2.50406V16.5019H3.50156V15.4978Z" fill="#000001"/>
<path id="Vector_22" d="M2.50406 16.502H1.5V20.4985H2.50406V16.502Z" fill="#000001"/>
</g>
</g>
</svg>
