<svg width="24" height="24" viewBox="0 0 24 24" fill="none" xmlns="http://www.w3.org/2000/svg">
<g id="interface-essential-key-1">
<g id="Group">
<path id="Vector" d="M21.0004 6.50073H20.0029V10.4973H21.0004V6.50073Z" fill="#000001"/>
<path id="Vector_2" d="M20.0029 10.4971H19.0054V11.5011H20.0029V10.4971Z" fill="#000001"/>
<path id="Vector_3" d="M20.0029 5.50317H19.0054V6.50067H20.0029V5.50317Z" fill="#000001"/>
<path id="Vector_4" d="M18.0014 14.5003H20.003V15.4978H18.0014V18.5034H20.003V19.5009H18.0014V21.5025H19.0055V20.4984H21.0005V17.4993H19.0055V16.5018H21.0005V13.5028H19.0055V11.5012H18.0014V14.5003Z" fill="#000001"/>
<path id="Vector_5" d="M18.0014 21.5024H15.9998V22.4999H18.0014V21.5024Z" fill="#000001"/>
<path id="Vector_6" d="M15.0023 4.49896V5.50303H17.0039V6.50053H15.0023V9.49959H19.0054V6.50053H18.0014V5.50303H19.0054V4.49896H18.0014V3.50146H17.0039V4.49896H15.0023ZM17.0039 8.50209H16.0031V7.49803H17.0072L17.0039 8.50209Z" fill="#000001"/>
<path id="Vector_7" d="M17.0039 2.49756H15.9998V3.50162H17.0039V2.49756Z" fill="#000001"/>
<path id="Vector_8" d="M15.9998 11.5011H15.0023V10.4971H14.0048V12.4986H15.0023V21.5024H15.9998V11.5011Z" fill="#000001"/>
<path id="Vector_9" d="M15.0023 5.50317H14.0048V6.50067H15.0023V5.50317Z" fill="#000001"/>
<path id="Vector_10" d="M12.0032 7.49823V9.49979H13.0007V10.4973H14.0048V6.50073H13.0007V7.49823H12.0032Z" fill="#000001"/>
<path id="Vector_11" d="M14.0048 12.4988H10.9992V13.5028H14.0048V12.4988Z" fill="#000001"/>
<path id="Vector_12" d="M13.0008 5.50317H10.9992V6.50067H13.0008V5.50317Z" fill="#000001"/>
<path id="Vector_13" d="M15.9998 1.5H10.9992V2.4975H15.9998V1.5Z" fill="#000001"/>
<path id="Vector_14" d="M12.0033 16.502H10.9992V17.4995H12.0033V16.502Z" fill="#000001"/>
<path id="Vector_15" d="M10.9992 17.4993H10.0017V18.5033H10.9992V17.4993Z" fill="#000001"/>
<path id="Vector_16" d="M10.9992 15.4978H10.0017V16.5019H10.9992V15.4978Z" fill="#000001"/>
<path id="Vector_17" d="M10.9992 13.5029H10.0017V14.5004H10.9992V13.5029Z" fill="#000001"/>
<path id="Vector_18" d="M10.9992 6.50073H10.0017V7.49823H10.9992V6.50073Z" fill="#000001"/>
<path id="Vector_19" d="M10.9992 2.49756H10.0017V3.50162H10.9992V2.49756Z" fill="#000001"/>
<path id="Vector_20" d="M10.0017 18.5034H9.00421V19.5009H10.0017V18.5034Z" fill="#000001"/>
<path id="Vector_21" d="M10.0017 14.5002H9.00421V15.4977H10.0017V14.5002Z" fill="#000001"/>
<path id="Vector_22" d="M10.0017 7.49805H9.00421V11.5012H10.0017V7.49805Z" fill="#000001"/>
<path id="Vector_23" d="M10.0017 3.50146H9.00421V6.50053H10.0017V3.50146Z" fill="#000001"/>
<path id="Vector_24" d="M9.00418 17.4993H8.00012V18.5033H9.00418V17.4993Z" fill="#000001"/>
<path id="Vector_25" d="M9.00418 11.5012H8.00012V12.4987H9.00418V11.5012Z" fill="#000001"/>
<path id="Vector_26" d="M8.00012 16.502H7.00262V17.4995H8.00012V16.502Z" fill="#000001"/>
<path id="Vector_27" d="M8.00012 12.4988H7.00262V13.5028H8.00012V12.4988Z" fill="#000001"/>
<path id="Vector_28" d="M7.00263 17.4993H6.00513V18.5033H7.00263V17.4993Z" fill="#000001"/>
<path id="Vector_29" d="M7.00263 13.5029H6.00513V14.5004H7.00263V13.5029Z" fill="#000001"/>
<path id="Vector_30" d="M6.00516 18.5034H5.0011V19.5009H6.00516V18.5034Z" fill="#000001"/>
<path id="Vector_31" d="M6.00516 14.5002H5.0011V15.4977H6.00516V14.5002Z" fill="#000001"/>
<path id="Vector_32" d="M5.0011 17.4993H4.0036V18.5033H5.0011V17.4993Z" fill="#000001"/>
<path id="Vector_33" d="M5.0011 15.4978H4.0036V16.5019H5.0011V15.4978Z" fill="#000001"/>
<path id="Vector_34" d="M4.00357 16.502H2.99951V17.4995H4.00357V16.502Z" fill="#000001"/>
</g>
</g>
</svg>
