<svg width="24" height="24" viewBox="0 0 24 24" fill="none" xmlns="http://www.w3.org/2000/svg">
<g id="interface-essential-signin-expand">
<g id="Group">
<path id="Vector" d="M21.4959 7.49813H22.5V1.5H16.4953V2.4975H20.4984V3.50156H21.4959V7.49813Z" fill="#000001"/>
<path id="Vector_2" d="M16.4953 21.5026V22.5001H22.5V16.502H21.4959V20.4985H20.4984V21.5026H16.4953Z" fill="#000001"/>
<path id="Vector_3" d="M20.4984 19.501H19.4944V20.4985H20.4984V19.501Z" fill="#000001"/>
<path id="Vector_4" d="M20.4984 3.50146H19.4944V4.49896H20.4984V3.50146Z" fill="#000001"/>
<path id="Vector_5" d="M19.4944 18.4968H18.4969V19.5009H19.4944V18.4968Z" fill="#000001"/>
<path id="Vector_6" d="M19.4944 4.49902H18.4969V5.49652H19.4944V4.49902Z" fill="#000001"/>
<path id="Vector_7" d="M18.4969 17.4993H17.4994V18.4968H18.4969V17.4993Z" fill="#000001"/>
<path id="Vector_8" d="M18.4969 5.49658H17.4994V6.50064H18.4969V5.49658Z" fill="#000001"/>
<path id="Vector_9" d="M17.4994 16.502H16.4953V17.4995H17.4994V16.502Z" fill="#000001"/>
<path id="Vector_10" d="M17.4994 6.50073H16.4953V7.49823H17.4994V6.50073Z" fill="#000001"/>
<path id="Vector_11" d="M16.4953 15.4978H15.4978V16.5019H16.4953V15.4978Z" fill="#000001"/>
<path id="Vector_12" d="M16.4953 7.49805H15.4978V8.50211H16.4953V7.49805Z" fill="#000001"/>
<path id="Vector_13" d="M15.4978 14.5002H14.4938V15.4977H15.4978V14.5002Z" fill="#000001"/>
<path id="Vector_14" d="M15.4978 8.5022H14.4938V9.4997H15.4978V8.5022Z" fill="#000001"/>
<path id="Vector_15" d="M14.4938 13.5029H13.4963V14.5004H14.4938V13.5029Z" fill="#000001"/>
<path id="Vector_16" d="M14.4938 9.49976H13.4963V10.4973H14.4938V9.49976Z" fill="#000001"/>
<path id="Vector_17" d="M13.4963 12.4988H12.4988V13.5028H13.4963V12.4988Z" fill="#000001"/>
<path id="Vector_18" d="M13.4963 10.4971H12.4988V11.5011H13.4963V10.4971Z" fill="#000001"/>
<path id="Vector_19" d="M12.4988 11.5012H11.4947V12.4987H12.4988V11.5012Z" fill="#000001"/>
<path id="Vector_20" d="M11.4947 12.4988H10.4972V13.5028H11.4947V12.4988Z" fill="#000001"/>
<path id="Vector_21" d="M11.4947 10.4971H10.4972V11.5011H11.4947V10.4971Z" fill="#000001"/>
<path id="Vector_22" d="M10.4972 13.5029H9.49969V14.5004H10.4972V13.5029Z" fill="#000001"/>
<path id="Vector_23" d="M10.4972 9.49976H9.49969V10.4973H10.4972V9.49976Z" fill="#000001"/>
<path id="Vector_24" d="M9.49967 14.5002H8.49561V15.4977H9.49967V14.5002Z" fill="#000001"/>
<path id="Vector_25" d="M9.49967 8.5022H8.49561V9.4997H9.49967V8.5022Z" fill="#000001"/>
<path id="Vector_26" d="M8.49561 15.4978H7.49811V16.5019H8.49561V15.4978Z" fill="#000001"/>
<path id="Vector_27" d="M8.49561 7.49805H7.49811V8.50211H8.49561V7.49805Z" fill="#000001"/>
<path id="Vector_28" d="M7.49814 16.502H6.49408V17.4995H7.49814V16.502Z" fill="#000001"/>
<path id="Vector_29" d="M7.49814 6.50073H6.49408V7.49823H7.49814V6.50073Z" fill="#000001"/>
<path id="Vector_30" d="M6.49408 17.4993H5.49658V18.4968H6.49408V17.4993Z" fill="#000001"/>
<path id="Vector_31" d="M6.49408 5.49658H5.49658V6.50064H6.49408V5.49658Z" fill="#000001"/>
<path id="Vector_32" d="M5.49658 18.4968H4.49908V19.5009H5.49658V18.4968Z" fill="#000001"/>
<path id="Vector_33" d="M5.49658 4.49902H4.49908V5.49652H5.49658V4.49902Z" fill="#000001"/>
<path id="Vector_34" d="M4.49906 19.501H3.495V20.4985H4.49906V19.501Z" fill="#000001"/>
<path id="Vector_35" d="M4.49906 3.50146H3.495V4.49896H4.49906V3.50146Z" fill="#000001"/>
<path id="Vector_36" d="M7.49813 2.4975V1.5H1.5V7.49813H2.4975V3.50156H3.495V2.4975H7.49813Z" fill="#000001"/>
<path id="Vector_37" d="M7.49813 21.5026H3.495V20.4985H2.4975V16.502H1.5V22.5001H7.49813V21.5026Z" fill="#000001"/>
</g>
</g>
</svg>
