<svg width="24" height="24" viewBox="0 0 24 24" fill="none" xmlns="http://www.w3.org/2000/svg">
<g id="interface-essential-hyperlink">
<g id="Group">
<path id="Vector" d="M22.5 9.50293H21.5025V14.5036H22.5V9.50293Z" fill="#000001"/>
<path id="Vector_2" d="M21.5025 14.5037H20.4984V15.5012H21.5025V14.5037Z" fill="#000001"/>
<path id="Vector_3" d="M21.5025 8.49902H20.4984V9.50309H21.5025V8.49902Z" fill="#000001"/>
<path id="Vector_4" d="M20.4984 10.5005H19.5009V13.4996H20.4984V10.5005Z" fill="#000001"/>
<path id="Vector_5" d="M20.4984 15.5012H14.5003V16.4987H20.4984V15.5012Z" fill="#000001"/>
<path id="Vector_6" d="M20.4984 7.50146H14.5003V8.49896H20.4984V7.50146Z" fill="#000001"/>
<path id="Vector_7" d="M14.5003 14.5037H13.5028V15.5012H14.5003V14.5037Z" fill="#000001"/>
<path id="Vector_8" d="M15.5044 13.4995V14.5036H19.5009V13.4995H16.5019V12.502H17.4994V11.4979H16.5019V10.5004H19.5009V9.50293H15.5044V10.5004H13.5028V9.50293H12.4987V10.5004H11.5012V9.50293H10.5037V10.5004H8.50218V9.50293H4.49905V10.5004H7.50468V11.4979H6.50062V12.502H7.50468V13.4995H4.49905V14.5036H8.50218V13.4995H10.5037V14.5036H11.5012V13.4995H12.4987V14.5036H13.5028V13.4995H15.5044Z" fill="#000001"/>
<path id="Vector_9" d="M14.5003 8.49902H13.5028V9.50309H14.5003V8.49902Z" fill="#000001"/>
<path id="Vector_10" d="M10.5038 14.5037H9.49969V15.5012H10.5038V14.5037Z" fill="#000001"/>
<path id="Vector_11" d="M10.5038 8.49902H9.49969V9.50309H10.5038V8.49902Z" fill="#000001"/>
<path id="Vector_12" d="M9.49968 15.5012H3.50156V16.4987H9.49968V15.5012Z" fill="#000001"/>
<path id="Vector_13" d="M9.49968 7.50146H3.50156V8.49896H9.49968V7.50146Z" fill="#000001"/>
<path id="Vector_14" d="M4.49906 10.5005H3.50156V13.4996H4.49906V10.5005Z" fill="#000001"/>
<path id="Vector_15" d="M3.50156 14.5037H2.50406V15.5012H3.50156V14.5037Z" fill="#000001"/>
<path id="Vector_16" d="M3.50156 8.49902H2.50406V9.50309H3.50156V8.49902Z" fill="#000001"/>
<path id="Vector_17" d="M2.50406 9.50293H1.5V14.5036H2.50406V9.50293Z" fill="#000001"/>
</g>
</g>
</svg>
