<svg width="24" height="24" viewBox="0 0 24 24" fill="none" xmlns="http://www.w3.org/2000/svg">
<g id="interface-essential-floppy-disk">
<g id="Group">
<path id="Vector" d="M22.5 3.50146H21.4959V21.5024H22.5V3.50146Z" fill="#000001"/>
<g id="Group_2">
<path id="Vector_2" d="M21.4959 2.49756H20.4984V3.50162H21.4959V2.49756Z" fill="#000001"/>
<path id="Vector_3" d="M19.5009 12.4988H18.4969V21.5025H5.49656V12.4988H4.49906V21.5025H2.4975V22.5H21.4959V21.5025H19.5009V12.4988Z" fill="#000001"/>
<path id="Vector_4" d="M13.4963 7.49803H17.4994V3.50146H13.4963V7.49803ZM14.5003 4.49896H15.4978V6.50053H14.5003V4.49896Z" fill="#000001"/>
<path id="Vector_5" d="M16.4953 18.4968H7.49811V19.5009H16.4953V18.4968Z" fill="#000001"/>
<path id="Vector_6" d="M16.4953 15.4978H7.49811V16.5019H16.4953V15.4978Z" fill="#000001"/>
<path id="Vector_7" d="M18.4969 11.5012H5.49658V12.4987H18.4969V11.5012Z" fill="#000001"/>
<path id="Vector_8" d="M4.49909 7.49813H5.49659V2.4975H7.49815V7.49813H5.49659V8.50219H7.49815V9.49969H19.501V2.4975H20.4985V1.5H3.50159V2.4975H4.49909V7.49813ZM8.49565 2.4975H18.4969V8.50219H8.49565V2.4975Z" fill="#000001"/>
<path id="Vector_9" d="M3.50156 2.49756H2.4975V3.50162H3.50156V2.49756Z" fill="#000001"/>
<path id="Vector_10" d="M2.4975 3.50146H1.5V21.5024H2.4975V3.50146Z" fill="#000001"/>
</g>
</g>
</g>
</svg>
