<svg width="24" height="24" viewBox="0 0 24 24" fill="none" xmlns="http://www.w3.org/2000/svg">
<g id="interface-essential-flag">
<g id="Group">
<path id="Vector" d="M21.9979 15.501H21.0004V16.4985H21.9979V15.501Z" fill="#000001"/>
<path id="Vector_2" d="M21.9979 5.49976H21.0004V6.49726H21.9979V5.49976Z" fill="#000001"/>
<path id="Vector_3" d="M21.0004 13.4995H20.0029V15.5011H21.0004V13.4995Z" fill="#000001"/>
<path id="Vector_4" d="M21.0004 6.49731H20.0029V8.49888H21.0004V6.49731Z" fill="#000001"/>
<path id="Vector_5" d="M13.9983 16.4986V5.49985H21.0005V4.50235H13.9983V3.49829H13.0008V14.497H2.99951V3.49829H2.00201V21.4992H2.99951V15.5011H10.9992V16.4986H12.0033V17.4961H21.0005V16.4986H13.9983Z" fill="#000001"/>
<path id="Vector_6" d="M20.003 11.4978H18.9989V13.4994H20.003V11.4978Z" fill="#000001"/>
<path id="Vector_7" d="M20.003 8.49878H18.9989V10.5003H20.003V8.49878Z" fill="#000001"/>
<path id="Vector_8" d="M18.9989 10.5005H18.0014V11.498H18.9989V10.5005Z" fill="#000001"/>
<path id="Vector_9" d="M13.0008 2.50073H2.99951V3.49823H13.0008V2.50073Z" fill="#000001"/>
</g>
</g>
</svg>
