<svg width="24" height="24" viewBox="0 0 24 24" fill="none" xmlns="http://www.w3.org/2000/svg">
<g id="interface-essential-wrench-2">
<g id="Group">
<path id="Vector" d="M21.5025 18.4969H20.4984V19.5009H22.5V15.4978H21.5025V18.4969Z" fill="#000001"/>
<path id="Vector_2" d="M20.4984 4.49902V5.49652H21.5025V8.50215H22.5V4.49902H20.4984Z" fill="#000001"/>
<path id="Vector_3" d="M21.5025 14.5002H20.4984V15.4977H21.5025V14.5002Z" fill="#000001"/>
<path id="Vector_4" d="M21.5025 8.5022H20.4984V9.4997H21.5025V8.5022Z" fill="#000001"/>
<path id="Vector_5" d="M20.4984 17.4993H19.5009V18.4968H20.4984V17.4993Z" fill="#000001"/>
<path id="Vector_6" d="M20.4984 5.49658H19.5009V6.50064H20.4984V5.49658Z" fill="#000001"/>
<path id="Vector_7" d="M16.5019 16.502V19.501H17.4994V20.4985H18.5035V21.5026H15.5044V22.5001H20.4985V20.4985H19.501V19.501H18.5035V17.4995H19.501V16.502H16.5019Z" fill="#000001"/>
<path id="Vector_8" d="M20.4985 9.49976H16.5019V10.4973H20.4985V9.49976Z" fill="#000001"/>
<path id="Vector_9" d="M18.5035 3.50146H17.4994V4.49896H18.5035V3.50146Z" fill="#000001"/>
<path id="Vector_10" d="M16.5019 7.49809H19.501V6.50059H17.4994V4.49902H16.5019V7.49809Z" fill="#000001"/>
<path id="Vector_11" d="M18.5035 2.4975V3.50156H19.501V1.5H15.5044V2.4975H18.5035Z" fill="#000001"/>
<path id="Vector_12" d="M15.5044 20.4985H14.5003V21.5026H15.5044V20.4985Z" fill="#000001"/>
<path id="Vector_13" d="M15.5044 14.5002H14.5003V15.4977H15.5044V14.5002Z" fill="#000001"/>
<path id="Vector_14" d="M14.5003 9.49969H13.5028V7.49813H11.5013V3.50156H10.5038V2.4975H9.49971V1.5H4.49908V3.50156H5.50315V2.4975H8.50221V3.50156H9.49971V7.49813H10.5038V8.50219H11.5013V9.49969H12.4988V10.4972H13.5028V11.5012H14.5003V12.4988H15.5044V13.4963H16.5019V14.5003H20.4985V13.4963H17.4994V12.4988H16.5019V10.4972H14.5003V9.49969Z" fill="#000001"/>
<path id="Vector_15" d="M15.5044 2.49756H14.5003V3.50162H15.5044V2.49756Z" fill="#000001"/>
<path id="Vector_16" d="M14.5003 16.502H13.5028V20.4985H14.5003V16.502Z" fill="#000001"/>
<path id="Vector_17" d="M14.5003 13.4963H13.5028V14.5004H14.5003V13.4963Z" fill="#000001"/>
<path id="Vector_18" d="M14.5003 3.50146H13.5028V7.49803H14.5003V3.50146Z" fill="#000001"/>
<path id="Vector_19" d="M13.5028 15.4978H12.4988V16.5019H13.5028V15.4978Z" fill="#000001"/>
<path id="Vector_20" d="M13.5028 12.4988H12.4988V13.4963H13.5028V12.4988Z" fill="#000001"/>
<path id="Vector_21" d="M12.4987 14.5002H11.5012V15.4977H12.4987V14.5002Z" fill="#000001"/>
<path id="Vector_22" d="M12.4987 11.5012H11.5012V12.4987H12.4987V11.5012Z" fill="#000001"/>
<path id="Vector_23" d="M11.5012 15.4978H10.5037V16.5019H11.5012V15.4978Z" fill="#000001"/>
<path id="Vector_24" d="M11.5012 13.4963H10.5037V14.5004H11.5012V13.4963Z" fill="#000001"/>
<path id="Vector_25" d="M11.5012 10.4971H10.5037V11.5011H11.5012V10.4971Z" fill="#000001"/>
<path id="Vector_26" d="M10.5038 16.502H9.49969V20.4985H10.5038V16.502Z" fill="#000001"/>
<path id="Vector_27" d="M10.5038 12.4988H9.49969V13.4963H10.5038V12.4988Z" fill="#000001"/>
<path id="Vector_28" d="M10.5038 9.49976H9.49969V10.4973H10.5038V9.49976Z" fill="#000001"/>
<path id="Vector_29" d="M9.4997 20.4985H8.5022V21.5026H9.4997V20.4985Z" fill="#000001"/>
<path id="Vector_30" d="M9.4997 11.5012H8.5022V12.4987H9.4997V11.5012Z" fill="#000001"/>
<path id="Vector_31" d="M9.4997 8.5022H8.5022V9.4997H9.4997V8.5022Z" fill="#000001"/>
<path id="Vector_32" d="M8.5022 12.4988H7.5047V13.4963H8.5022V12.4988Z" fill="#000001"/>
<path id="Vector_33" d="M8.5022 10.4971H7.5047V11.5011H8.5022V10.4971Z" fill="#000001"/>
<path id="Vector_34" d="M5.50315 21.5026V20.4985H4.49908V22.5001H8.50221V21.5026H5.50315Z" fill="#000001"/>
<path id="Vector_35" d="M7.50471 16.502H4.49908V17.4995H6.50065V19.501H7.50471V16.502Z" fill="#000001"/>
<path id="Vector_36" d="M7.50471 9.49976H3.50159V10.4973H7.50471V9.49976Z" fill="#000001"/>
<path id="Vector_37" d="M6.50061 19.501H5.50311V20.4985H6.50061V19.501Z" fill="#000001"/>
<path id="Vector_38" d="M6.50061 3.50146H5.50311V4.49896H6.50061V3.50146Z" fill="#000001"/>
<path id="Vector_39" d="M7.50471 13.4963H3.50159V14.5004H7.50471V13.4963Z" fill="#000001"/>
<path id="Vector_40" d="M7.50471 7.49809V4.49902H6.50065V6.50059H4.49908V7.49809H7.50471Z" fill="#000001"/>
<path id="Vector_41" d="M4.49909 17.4993H3.50159V18.4968H4.49909V17.4993Z" fill="#000001"/>
<path id="Vector_42" d="M4.49909 5.49658H3.50159V6.50064H4.49909V5.49658Z" fill="#000001"/>
<path id="Vector_43" d="M3.50159 14.5002H2.50409V15.4977H3.50159V14.5002Z" fill="#000001"/>
<path id="Vector_44" d="M3.50159 8.5022H2.50409V9.4997H3.50159V8.5022Z" fill="#000001"/>
<path id="Vector_45" d="M2.50406 15.4978H1.5V19.5009H3.50156V18.4969H2.50406V15.4978Z" fill="#000001"/>
<path id="Vector_46" d="M2.50406 5.49652H3.50156V4.49902H1.5V8.50215H2.50406V5.49652Z" fill="#000001"/>
</g>
</g>
</svg>
