<svg width="24" height="24" viewBox="0 0 24 24" fill="none" xmlns="http://www.w3.org/2000/svg">
<g id="interface-essential-calendar-appointment">
<g id="Group">
<path id="Vector" d="M2.99951 8.50224H21.0005V21.5025H21.998V5.50317H21.0005V7.49817H2.99951V5.50317H2.00201V21.5025H2.99951V8.50224Z" fill="#000001"/>
<path id="Vector_2" d="M21.0004 4.49902H20.0029V5.50309H21.0004V4.49902Z" fill="#000001"/>
<path id="Vector_3" d="M21.0005 21.5024H2.99951V22.4999H21.0005V21.5024Z" fill="#000001"/>
<path id="Vector_4" d="M18.0014 13.5029H15.9998V14.5004H15.0023V13.5029H13.0007V14.5004H12.0032V16.502H13.0007V17.4995H13.9982V18.497H15.0023V19.5011H15.9998V18.497H16.9973V17.4995H18.0014V16.502H18.9989V14.5004H18.0014V13.5029Z" fill="#000001"/>
<path id="Vector_5" d="M18.0014 10.4971H16.9973V11.5011H18.0014V10.4971Z" fill="#000001"/>
<path id="Vector_6" d="M13.9983 10.4971H13.0008V11.5011H13.9983V10.4971Z" fill="#000001"/>
<path id="Vector_7" d="M10.0017 18.4968H8.99762V19.5009H10.0017V18.4968Z" fill="#000001"/>
<path id="Vector_8" d="M10.0017 14.5002H8.99762V15.4977H10.0017V14.5002Z" fill="#000001"/>
<path id="Vector_9" d="M10.0017 10.4971H8.99762V11.5011H10.0017V10.4971Z" fill="#000001"/>
<path id="Vector_10" d="M5.9986 18.4968H5.0011V19.5009H5.9986V18.4968Z" fill="#000001"/>
<path id="Vector_11" d="M5.9986 14.5002H5.0011V15.4977H5.9986V14.5002Z" fill="#000001"/>
<path id="Vector_12" d="M5.9986 10.4971H5.0011V11.5011H5.9986V10.4971Z" fill="#000001"/>
<path id="Vector_13" d="M7.00266 4.49906V5.50312H8.00016V4.49906H15.9999V5.50312H16.9974V4.49906H20.003V3.50156H16.9974V1.5H15.9999V3.50156H8.00016V1.5H7.00266V3.50156H4.0036V4.49906H7.00266Z" fill="#000001"/>
<path id="Vector_14" d="M4.00357 4.49902H2.99951V5.50309H4.00357V4.49902Z" fill="#000001"/>
</g>
</g>
</svg>
