<svg width="24" height="24" viewBox="0 0 24 24" fill="none" xmlns="http://www.w3.org/2000/svg">
<g id="interface-essential-password-type">
<g id="Group">
<path id="Vector" d="M22.5 8.5022H21.5025V15.4978H22.5V8.5022Z" fill="#000001"/>
<path id="Vector_2" d="M21.5025 15.4978H20.4984V16.5019H21.5025V15.4978Z" fill="#000001"/>
<path id="Vector_3" d="M21.5025 7.49829H20.4984V8.50235H21.5025V7.49829Z" fill="#000001"/>
<path id="Vector_4" d="M20.4984 16.502H3.50156V17.4995H20.4984V16.502Z" fill="#000001"/>
<path id="Vector_5" d="M20.4984 12.4988H15.5044V13.4963H20.4984V12.4988Z" fill="#000001"/>
<path id="Vector_6" d="M14.5003 12.4988H13.5028V13.4963H14.5003V12.4988Z" fill="#000001"/>
<path id="Vector_7" d="M14.5003 10.4973H13.5028V11.5014H14.5003V10.4973Z" fill="#000001"/>
<path id="Vector_8" d="M13.5028 11.5015H12.4987V12.499H13.5028V11.5015Z" fill="#000001"/>
<path id="Vector_9" d="M12.4988 12.4988H11.5013V13.4963H12.4988V12.4988Z" fill="#000001"/>
<path id="Vector_10" d="M12.4988 10.4973H11.5013V11.5014H12.4988V10.4973Z" fill="#000001"/>
<path id="Vector_11" d="M10.5038 12.4988H9.49969V13.4963H10.5038V12.4988Z" fill="#000001"/>
<path id="Vector_12" d="M10.5038 10.4973H9.49969V11.5014H10.5038V10.4973Z" fill="#000001"/>
<path id="Vector_13" d="M9.4997 11.5015H8.5022V12.499H9.4997V11.5015Z" fill="#000001"/>
<path id="Vector_14" d="M8.5022 12.4988H7.5047V13.4963H8.5022V12.4988Z" fill="#000001"/>
<path id="Vector_15" d="M8.5022 10.4973H7.5047V11.5014H8.5022V10.4973Z" fill="#000001"/>
<path id="Vector_16" d="M6.50061 12.4988H5.50311V13.4963H6.50061V12.4988Z" fill="#000001"/>
<path id="Vector_17" d="M6.50061 10.4973H5.50311V11.5014H6.50061V10.4973Z" fill="#000001"/>
<path id="Vector_18" d="M5.50312 11.5015H4.49905V12.499H5.50312V11.5015Z" fill="#000001"/>
<path id="Vector_19" d="M20.4984 6.50073H3.50156V7.49823H20.4984V6.50073Z" fill="#000001"/>
<path id="Vector_20" d="M4.49906 12.4988H3.50156V13.4963H4.49906V12.4988Z" fill="#000001"/>
<path id="Vector_21" d="M4.49906 10.4973H3.50156V11.5014H4.49906V10.4973Z" fill="#000001"/>
<path id="Vector_22" d="M3.50156 15.4978H2.50406V16.5019H3.50156V15.4978Z" fill="#000001"/>
<path id="Vector_23" d="M3.50156 7.49829H2.50406V8.50235H3.50156V7.49829Z" fill="#000001"/>
<path id="Vector_24" d="M2.50406 8.5022H1.5V15.4978H2.50406V8.5022Z" fill="#000001"/>
</g>
</g>
</svg>
