<svg width="24" height="24" viewBox="0 0 24 24" fill="none" xmlns="http://www.w3.org/2000/svg">
<g id="interface-essential-text-input-area-3">
<g id="Group">
<path id="Vector" d="M22.5 11.9966H21.5025V15.0022H22.5V11.9966Z" fill="#000001"/>
<path id="Vector_2" d="M22.5 8.99756H21.5025V10.9991H22.5V8.99756Z" fill="#000001"/>
<path id="Vector_3" d="M21.5025 15.0022H20.4984V15.9997H21.5025V15.0022Z" fill="#000001"/>
<path id="Vector_4" d="M21.5025 8H20.4984V8.9975H21.5025V8Z" fill="#000001"/>
<path id="Vector_5" d="M20.4984 15.9998H19.5009V16.9973H20.4984V15.9998Z" fill="#000001"/>
<path id="Vector_6" d="M20.4984 7.00244H19.5009V7.99994H20.4984V7.00244Z" fill="#000001"/>
<path id="Vector_7" d="M20.4984 5.00098H18.5034V5.99848H20.4984V5.00098Z" fill="#000001"/>
<path id="Vector_8" d="M20.4984 18.0012H18.5034V18.9987H20.4984V18.0012Z" fill="#000001"/>
<path id="Vector_9" d="M18.5035 5.99854H17.4994V18.0013H18.5035V5.99854Z" fill="#000001"/>
<path id="Vector_10" d="M17.4994 5.00098H15.5044V5.99848H17.4994V5.00098Z" fill="#000001"/>
<path id="Vector_11" d="M17.4994 18.0012H15.5044V18.9987H17.4994V18.0012Z" fill="#000001"/>
<path id="Vector_12" d="M16.5019 15.9998H13.5028V16.9973H16.5019V15.9998Z" fill="#000001"/>
<path id="Vector_13" d="M16.5019 13.998H15.5044V15.0021H16.5019V13.998Z" fill="#000001"/>
<path id="Vector_14" d="M16.5019 10.999H15.5044V11.9965H16.5019V10.999Z" fill="#000001"/>
<path id="Vector_15" d="M15.5044 11.9966H14.5003V13.9981H15.5044V11.9966Z" fill="#000001"/>
<path id="Vector_16" d="M16.5019 7.00244H13.5028V7.99994H16.5019V7.00244Z" fill="#000001"/>
<path id="Vector_17" d="M13.5028 11.9966H12.4988V13.9981H13.5028V11.9966Z" fill="#000001"/>
<path id="Vector_18" d="M12.4988 15.9998H9.49969V16.9973H12.4988V15.9998Z" fill="#000001"/>
<path id="Vector_19" d="M10.5038 11.9966H12.4988V10.9991H10.5038V8.99756H9.49969V15.0022H12.4988V13.9982H10.5038V11.9966Z" fill="#000001"/>
<path id="Vector_20" d="M12.4988 7.00244H9.49969V7.99994H12.4988V7.00244Z" fill="#000001"/>
<path id="Vector_21" d="M8.50221 10.0017H7.50471V11.9967H5.50315V10.0017H4.49908V15.0023H5.50315V13.0008H7.50471V15.0023H8.50221V10.0017Z" fill="#000001"/>
<path id="Vector_22" d="M8.50218 15.9998H5.50311V16.9973H8.50218V15.9998Z" fill="#000001"/>
<path id="Vector_23" d="M7.50468 8.99756H5.50311V10.0016H7.50468V8.99756Z" fill="#000001"/>
<path id="Vector_24" d="M8.50218 7.00244H5.50311V7.99994H8.50218V7.00244Z" fill="#000001"/>
<path id="Vector_25" d="M4.49909 15.9998H3.50159V16.9973H4.49909V15.9998Z" fill="#000001"/>
<path id="Vector_26" d="M4.49909 7.00244H3.50159V7.99994H4.49909V7.00244Z" fill="#000001"/>
<path id="Vector_27" d="M3.50159 15.0022H2.50409V15.9997H3.50159V15.0022Z" fill="#000001"/>
<path id="Vector_28" d="M3.50159 8H2.50409V8.9975H3.50159V8Z" fill="#000001"/>
<path id="Vector_29" d="M2.50406 11.9966H1.5V15.0022H2.50406V11.9966Z" fill="#000001"/>
<path id="Vector_30" d="M2.50406 8.99756H1.5V10.9991H2.50406V8.99756Z" fill="#000001"/>
</g>
</g>
</svg>
