<svg width="24" height="24" viewBox="0 0 24 24" fill="none" xmlns="http://www.w3.org/2000/svg">
<g id="interface-essential-synchronize-arrows-square-1">
<g id="Group">
<path id="Vector" d="M21.0005 6.50073H20.003V17.4995H21.0005V6.50073Z" fill="#000001"/>
<path id="Vector_2" d="M20.003 17.4993H18.9989V18.4968H20.003V17.4993Z" fill="#000001"/>
<path id="Vector_3" d="M20.003 5.49658H18.9989V6.50064H20.003V5.49658Z" fill="#000001"/>
<path id="Vector_4" d="M18.9989 4.49902H15.0023V5.49652H18.9989V4.49902Z" fill="#000001"/>
<path id="Vector_5" d="M15.0024 18.4969V15.4978H13.9983V16.5019H13.0008V17.4994H12.0033V18.4969H10.9992V19.5009H12.0033V20.4984H13.0008V21.5025H13.9983V22.5H15.0024V19.5009H18.9989V18.4969H15.0024Z" fill="#000001"/>
<path id="Vector_6" d="M10.9992 6.50062H12.0033V5.49656H13.0008V4.49906H12.0033V3.50156H10.9992V2.4975H10.0017V1.5H9.00422V4.49906H5.0011V5.49656H9.00422V8.50219H10.0017V7.49813H10.9992V6.50062Z" fill="#000001"/>
<path id="Vector_7" d="M9.00422 18.4968H5.0011V19.5009H9.00422V18.4968Z" fill="#000001"/>
<path id="Vector_8" d="M5.0011 17.4993H4.0036V18.4968H5.0011V17.4993Z" fill="#000001"/>
<path id="Vector_9" d="M5.0011 5.49658H4.0036V6.50064H5.0011V5.49658Z" fill="#000001"/>
<path id="Vector_10" d="M4.0036 6.50073H2.99954V17.4995H4.0036V6.50073Z" fill="#000001"/>
</g>
</g>
</svg>
