<svg width="24" height="24" viewBox="0 0 24 24" fill="none" xmlns="http://www.w3.org/2000/svg">
<g id="interface-essential-pin">
<g id="Group">
<path id="Vector" d="M21.9979 6.99951H21.0004V9.00107H21.9979V6.99951Z" fill="#000001"/>
<path id="Vector_2" d="M21.0004 6.00195H20.0029V6.99945H21.0004V6.00195Z" fill="#000001"/>
<path id="Vector_3" d="M21.0005 9.00098H18.9989V9.99848H21.0005V9.00098Z" fill="#000001"/>
<path id="Vector_4" d="M20.003 4.9978H18.9989V6.00187H20.003V4.9978Z" fill="#000001"/>
<path id="Vector_5" d="M18.9989 7.99683H18.0014V9.00089H18.9989V7.99683Z" fill="#000001"/>
<path id="Vector_6" d="M18.9989 4.00024H18.0014V4.99774H18.9989V4.00024Z" fill="#000001"/>
<path id="Vector_7" d="M18.0014 9.00098H16.9973V9.99848H18.0014V9.00098Z" fill="#000001"/>
<path id="Vector_8" d="M18.0014 6.99951H16.9973V7.99701H18.0014V6.99951Z" fill="#000001"/>
<path id="Vector_9" d="M18.0014 2.99634H16.9973V4.0004H18.0014V2.99634Z" fill="#000001"/>
<path id="Vector_10" d="M16.9973 12.9976H15.9998V15.9966H16.9973V12.9976Z" fill="#000001"/>
<path id="Vector_11" d="M16.9973 9.99854H15.9998V10.996H16.9973V9.99854Z" fill="#000001"/>
<path id="Vector_12" d="M16.9973 6.00195H15.9998V6.99945H16.9973V6.00195Z" fill="#000001"/>
<path id="Vector_13" d="M16.9973 1.99878H15.0023V2.99628H16.9973V1.99878Z" fill="#000001"/>
<path id="Vector_14" d="M15.9998 15.9966H15.0023V17.9981H15.9998V15.9966Z" fill="#000001"/>
<path id="Vector_15" d="M15.9998 10.9958H15.0023V12.9974H15.9998V10.9958Z" fill="#000001"/>
<path id="Vector_16" d="M15.9998 4.9978H15.0023V6.00187H15.9998V4.9978Z" fill="#000001"/>
<path id="Vector_17" d="M15.0024 17.998H13.9983V18.9955H15.0024V17.998Z" fill="#000001"/>
<path id="Vector_18" d="M15.0024 6.00195H13.9983V6.99945H15.0024V6.00195Z" fill="#000001"/>
<path id="Vector_19" d="M15.0024 2.99634H13.9983V4.9979H15.0024V2.99634Z" fill="#000001"/>
<path id="Vector_20" d="M13.9983 12H13.0008V12.9975H13.9983V12Z" fill="#000001"/>
<path id="Vector_21" d="M13.9983 6.99951H13.0008V7.99701H13.9983V6.99951Z" fill="#000001"/>
<path id="Vector_22" d="M13.9982 18.9956H12.0032V19.9997H13.9982V18.9956Z" fill="#000001"/>
<path id="Vector_23" d="M13.0007 10.9958H12.0032V11.9999H13.0007V10.9958Z" fill="#000001"/>
<path id="Vector_24" d="M12.0033 17.998H10.9992V18.9955H12.0033V17.998Z" fill="#000001"/>
<path id="Vector_25" d="M12.0033 9.99854H10.9992V10.996H12.0033V9.99854Z" fill="#000001"/>
<path id="Vector_26" d="M13.0008 7.99683H10.9992V9.00089H13.0008V7.99683Z" fill="#000001"/>
<path id="Vector_27" d="M10.9992 17.0007H10.0017V17.9982H10.9992V17.0007Z" fill="#000001"/>
<path id="Vector_28" d="M4.00358 20.9973H5.00108V19.9998H5.99858V18.9958H7.00264V17.9983H8.00014V17.0008H10.0017V15.9967H8.99764V14.9992H8.00014V14.0017H7.00264V15.9967H5.99858V17.0008H5.00108V17.9983H4.00358V18.9958H2.99951V19.9998H2.00201V22.0014H4.00358V20.9973Z" fill="#000001"/>
<path id="Vector_29" d="M10.9992 6.99951H8.00012V7.99701H10.9992V6.99951Z" fill="#000001"/>
<path id="Vector_30" d="M8.00016 7.99683H5.9986V9.00089H8.00016V7.99683Z" fill="#000001"/>
<path id="Vector_31" d="M7.00266 12.9976H5.9986V14.0016H7.00266V12.9976Z" fill="#000001"/>
<path id="Vector_32" d="M5.9986 12H5.0011V12.9975H5.9986V12Z" fill="#000001"/>
<path id="Vector_33" d="M5.9986 9.00098H5.0011V9.99848H5.9986V9.00098Z" fill="#000001"/>
<path id="Vector_34" d="M5.0011 9.99854H4.0036V12.0001H5.0011V9.99854Z" fill="#000001"/>
</g>
</g>
</svg>
