<svg width="24" height="24" viewBox="0 0 24 24" fill="none" xmlns="http://www.w3.org/2000/svg">
<g id="interface-essential-hierarchy-2">
<g id="Group">
<path id="Vector" d="M22.5 16.9973H21.4959V19.9964H22.5V16.9973Z" fill="#000001"/>
<path id="Vector_2" d="M21.4959 19.9963H18.4969V21.0004H21.4959V19.9963Z" fill="#000001"/>
<path id="Vector_3" d="M21.4959 16.9973V15.9998H20.4985V13.0007H19.4944V15.9998H18.4969V16.9973H21.4959Z" fill="#000001"/>
<path id="Vector_4" d="M19.4944 11.9966H18.4969V13.0006H19.4944V11.9966Z" fill="#000001"/>
<path id="Vector_5" d="M18.4969 16.9973H17.4994V19.9964H18.4969V16.9973Z" fill="#000001"/>
<path id="Vector_6" d="M12.4988 10.9992V8.00016H13.4963V6.99609H10.4972V8.00016H11.4947V10.9992H5.49658V11.9967H11.4947V15.9998H10.4972V16.9973H13.4963V15.9998H12.4988V11.9967H18.4969V10.9992H12.4988Z" fill="#000001"/>
<path id="Vector_7" d="M14.4938 16.9973H13.4963V19.9964H14.4938V16.9973Z" fill="#000001"/>
<path id="Vector_8" d="M14.4938 3.99707H13.4963V6.99613H14.4938V3.99707Z" fill="#000001"/>
<path id="Vector_9" d="M13.4963 19.9963H10.4972V21.0004H13.4963V19.9963Z" fill="#000001"/>
<path id="Vector_10" d="M13.4963 2.99951H10.4972V3.99701H13.4963V2.99951Z" fill="#000001"/>
<path id="Vector_11" d="M10.4972 16.9973H9.49969V19.9964H10.4972V16.9973Z" fill="#000001"/>
<path id="Vector_12" d="M10.4972 3.99707H9.49969V6.99613H10.4972V3.99707Z" fill="#000001"/>
<path id="Vector_13" d="M6.49408 16.9973H5.49658V19.9964H6.49408V16.9973Z" fill="#000001"/>
<path id="Vector_14" d="M5.49658 11.9966H4.49908V13.0006H5.49658V11.9966Z" fill="#000001"/>
<path id="Vector_15" d="M5.49656 19.9963H2.4975V21.0004H5.49656V19.9963Z" fill="#000001"/>
<path id="Vector_16" d="M3.495 15.9998H2.4975V16.9973H5.49656V15.9998H4.49906V13.0007H3.495V15.9998Z" fill="#000001"/>
<path id="Vector_17" d="M2.4975 16.9973H1.5V19.9964H2.4975V16.9973Z" fill="#000001"/>
</g>
</g>
</svg>
