<svg width="24" height="24" viewBox="0 0 24 24" fill="none" xmlns="http://www.w3.org/2000/svg">
<g id="interface-essential-expand-3">
<g id="Group">
<path id="Vector" d="M22.5 13.5029H21.4959V21.5026H22.5V13.5029Z" fill="#000001"/>
<path id="Vector_2" d="M22.5 2.49756H21.4959V10.4972H22.5V2.49756Z" fill="#000001"/>
<path id="Vector_3" d="M21.4959 12.4988H19.4944V13.5028H21.4959V12.4988Z" fill="#000001"/>
<path id="Vector_4" d="M21.496 21.5024H13.4963V22.4999H21.496V21.5024Z" fill="#000001"/>
<path id="Vector_5" d="M21.4959 10.4971H19.4944V11.5011H21.4959V10.4971Z" fill="#000001"/>
<path id="Vector_6" d="M19.4944 6.50073H18.4969V7.49823H17.4994V8.5023H18.4969V10.4973H19.4944V6.50073Z" fill="#000001"/>
<path id="Vector_7" d="M18.4969 16.502V17.4995H19.4944V13.5029H18.4969V15.4979H17.4994V16.502H18.4969Z" fill="#000001"/>
<path id="Vector_8" d="M17.4994 14.5002H16.4953V15.4977H17.4994V14.5002Z" fill="#000001"/>
<path id="Vector_9" d="M17.4994 8.5022H16.4953V9.4997H17.4994V8.5022Z" fill="#000001"/>
<path id="Vector_10" d="M16.4953 13.5029H15.4978V14.5004H16.4953V13.5029Z" fill="#000001"/>
<path id="Vector_11" d="M16.4953 9.49976H15.4978V10.4973H16.4953V9.49976Z" fill="#000001"/>
<path id="Vector_12" d="M16.4953 5.49652H17.4994V4.49902H13.4963V5.49652H15.4978V6.50059H16.4953V5.49652Z" fill="#000001"/>
<path id="Vector_13" d="M17.4994 19.5008V18.4968H16.4953V17.4993H15.4978V18.4968H13.4963V19.5008H17.4994Z" fill="#000001"/>
<path id="Vector_14" d="M15.4978 16.502H14.4938V17.4995H15.4978V16.502Z" fill="#000001"/>
<path id="Vector_15" d="M15.4978 12.4988H13.4963V13.5028H15.4978V12.4988Z" fill="#000001"/>
<path id="Vector_16" d="M15.4978 6.50073H14.4938V7.49823H15.4978V6.50073Z" fill="#000001"/>
<path id="Vector_17" d="M21.496 1.5H13.4963V2.4975H21.496V1.5Z" fill="#000001"/>
<path id="Vector_18" d="M13.4963 15.4979V13.5029H12.4988V16.502H14.4938V15.4979H13.4963Z" fill="#000001"/>
<path id="Vector_19" d="M15.4978 10.4971H13.4963V11.5011H15.4978V10.4971Z" fill="#000001"/>
<path id="Vector_20" d="M14.4938 7.49805H13.4963V8.50211H14.4938V7.49805Z" fill="#000001"/>
<path id="Vector_21" d="M13.4963 19.501H12.4988V21.5025H13.4963V19.501Z" fill="#000001"/>
<path id="Vector_22" d="M13.4963 8.5022H12.4988V10.4972H13.4963V8.5022Z" fill="#000001"/>
<path id="Vector_23" d="M13.4963 2.49756H12.4988V4.49912H13.4963V2.49756Z" fill="#000001"/>
<path id="Vector_24" d="M11.4947 19.501H10.4972V21.5025H11.4947V19.501Z" fill="#000001"/>
<path id="Vector_25" d="M11.4947 13.5029H10.4972V15.4979H11.4947V13.5029Z" fill="#000001"/>
<path id="Vector_26" d="M11.4947 8.5022H10.4972V10.4972H11.4947V8.5022Z" fill="#000001"/>
<path id="Vector_27" d="M11.4947 2.49756H10.4972V4.49912H11.4947V2.49756Z" fill="#000001"/>
<path id="Vector_28" d="M10.4972 15.4978H9.49969V16.5019H10.4972V15.4978Z" fill="#000001"/>
<path id="Vector_29" d="M10.4972 12.4988H8.49561V13.5028H10.4972V12.4988Z" fill="#000001"/>
<path id="Vector_30" d="M10.4972 7.49805H9.49969V8.50211H10.4972V7.49805Z" fill="#000001"/>
<path id="Vector_31" d="M10.4972 21.5024H2.4975V22.4999H10.4972V21.5024Z" fill="#000001"/>
<path id="Vector_32" d="M9.49967 16.502H8.49561V17.4995H9.49967V16.502Z" fill="#000001"/>
<path id="Vector_33" d="M10.4972 10.4971H8.49561V11.5011H10.4972V10.4971Z" fill="#000001"/>
<path id="Vector_34" d="M9.49967 6.50073H8.49561V7.49823H9.49967V6.50073Z" fill="#000001"/>
<path id="Vector_35" d="M6.49408 4.49902V5.49652H7.49814V6.50059H8.49564V5.49652H10.4972V4.49902H6.49408Z" fill="#000001"/>
<path id="Vector_36" d="M7.49814 18.4968H6.49408V19.5008H10.4972V18.4968H8.49564V17.4993H7.49814V18.4968Z" fill="#000001"/>
<path id="Vector_37" d="M8.49561 13.5029H7.49811V14.5004H8.49561V13.5029Z" fill="#000001"/>
<path id="Vector_38" d="M8.49561 9.49976H7.49811V10.4973H8.49561V9.49976Z" fill="#000001"/>
<path id="Vector_39" d="M7.49814 14.5002H6.49408V15.4977H7.49814V14.5002Z" fill="#000001"/>
<path id="Vector_40" d="M7.49814 8.5022H6.49408V9.4997H7.49814V8.5022Z" fill="#000001"/>
<path id="Vector_41" d="M5.49658 7.49823V6.50073H4.49908V10.4973H5.49658V8.5023H6.49408V7.49823H5.49658Z" fill="#000001"/>
<path id="Vector_42" d="M4.49908 17.4995H5.49658V16.502H6.49408V15.4979H5.49658V13.5029H4.49908V17.4995Z" fill="#000001"/>
<path id="Vector_43" d="M4.49906 12.4988H2.4975V13.5028H4.49906V12.4988Z" fill="#000001"/>
<path id="Vector_44" d="M10.4972 1.5H2.4975V2.4975H10.4972V1.5Z" fill="#000001"/>
<path id="Vector_45" d="M4.49906 10.4971H2.4975V11.5011H4.49906V10.4971Z" fill="#000001"/>
<path id="Vector_46" d="M2.4975 13.5029H1.5V21.5026H2.4975V13.5029Z" fill="#000001"/>
<path id="Vector_47" d="M2.4975 2.49756H1.5V10.4972H2.4975V2.49756Z" fill="#000001"/>
</g>
</g>
</svg>
