<svg width="24" height="24" viewBox="0 0 24 24" fill="none" xmlns="http://www.w3.org/2000/svg">
<g id="interface-essential-stop-sign-2">
<g id="Group">
<path id="Vector" d="M21.5025 5.49656H20.4984V4.49906H19.5009V3.50156H18.5034V2.4975H17.4994V1.5H6.50062V2.4975H5.50312V3.50156H4.49906V4.49906H3.50156V5.49656H2.50406V6.50062H1.5V17.4994H2.50406V18.4969H3.50156V19.5009H4.49906V20.4984H5.50312V21.5025H6.50062V22.5H17.4994V21.5025H18.5034V20.4984H19.5009V19.5009H20.4984V18.4969H21.5025V17.4994H22.5V6.50062H21.5025V5.49656ZM20.4984 17.4994H19.5009V18.4969H18.5034V19.5009H17.4994V20.4984H6.50062V19.5009H5.50312V18.4969H4.49906V17.4994H3.50156V6.50062H4.49906V5.49656H5.50312V4.49906H6.50062V3.50156H17.4994V4.49906H18.5034V5.49656H19.5009V6.50062H20.4984V17.4994Z" fill="#000001"/>
<path id="Vector_2" d="M19.501 6.50059H18.5035V5.49652H17.4994V4.49902H6.50065V5.49652H5.50315V6.50059H4.49908V17.4993H5.50315V18.4968H6.50065V19.5009H17.4994V18.4968H18.5035V17.4993H19.501V6.50059ZM16.5019 17.4993H15.5044V18.4968H9.49971V17.4993H8.50221V15.4978H7.50471V14.5003H6.50065V13.4962H5.50315V11.5012H7.50471V12.4987H8.50221V13.4962H9.49971V6.50059H10.5038V12.4987H11.5013V5.49652H12.4988V12.4987H13.5028V6.50059H14.5003V12.4987H15.5044V8.50215H16.5019V17.4993Z" fill="#000001"/>
<path id="Vector_3" d="M14.5003 15.4978H13.5028V16.5019H14.5003V15.4978Z" fill="#000001"/>
<path id="Vector_4" d="M14.5003 13.4963H13.5028V14.5004H14.5003V13.4963Z" fill="#000001"/>
<path id="Vector_5" d="M13.5028 16.502H11.5012V17.4995H13.5028V16.502Z" fill="#000001"/>
<path id="Vector_6" d="M11.5012 15.4978H10.5037V16.5019H11.5012V15.4978Z" fill="#000001"/>
<path id="Vector_7" d="M11.5012 13.4963H10.5037V14.5004H11.5012V13.4963Z" fill="#000001"/>
</g>
</g>
</svg>
