<svg width="24" height="24" viewBox="0 0 24 24" fill="none" xmlns="http://www.w3.org/2000/svg">
<g id="interface-essential-iris-scan">
<g id="Group">
<path id="Vector" d="M22.5 18.5034H21.5025V21.5025H22.5V18.5034Z" fill="#000001"/>
<path id="Vector_2" d="M22.5 10.5037H21.5025V13.5027H22.5V10.5037Z" fill="#000001"/>
<path id="Vector_3" d="M22.5 2.50415H21.5025V5.50321H22.5V2.50415Z" fill="#000001"/>
<path id="Vector_4" d="M21.5025 13.5029H20.4984V14.5004H21.5025V13.5029Z" fill="#000001"/>
<path id="Vector_5" d="M21.5025 9.49976H20.4984V10.5038H21.5025V9.49976Z" fill="#000001"/>
<path id="Vector_6" d="M21.5025 1.5H18.5034V2.50406H21.5025V1.5Z" fill="#000001"/>
<path id="Vector_7" d="M21.5025 21.5024H18.5034V22.4999H21.5025V21.5024Z" fill="#000001"/>
<path id="Vector_8" d="M20.4984 14.5002H19.5009V15.5043H20.4984V14.5002Z" fill="#000001"/>
<path id="Vector_9" d="M20.4984 8.5022H19.5009V9.4997H20.4984V8.5022Z" fill="#000001"/>
<path id="Vector_10" d="M19.501 15.5044H17.4994V16.5019H19.501V15.5044Z" fill="#000001"/>
<path id="Vector_11" d="M19.501 7.50464H17.4994V8.50214H19.501V7.50464Z" fill="#000001"/>
<path id="Vector_12" d="M17.4994 16.502H15.5044V17.4995H17.4994V16.502Z" fill="#000001"/>
<path id="Vector_13" d="M17.4994 6.50073H15.5044V7.50479H17.4994V6.50073Z" fill="#000001"/>
<path id="Vector_14" d="M15.5044 9.49964H14.5003V8.50214H13.5028V7.50464H10.5038V8.50214H9.4997V9.49964H8.5022V10.5037H7.5047V13.5028H8.5022V14.5003H9.4997V15.5043H10.5038V16.5018H13.5028V15.5043H14.5003V14.5003H15.5044V13.5028H16.5019V10.5037H15.5044V9.49964ZM13.5028 12.5053H12.4988V13.5028H11.5013V12.5053H10.5038V11.5012H11.5013V10.5037H12.4988V11.5012H13.5028V12.5053Z" fill="#000001"/>
<path id="Vector_15" d="M15.5044 17.4993H8.5022V18.5033H15.5044V17.4993Z" fill="#000001"/>
<path id="Vector_16" d="M15.5044 5.50317H8.5022V6.50067H15.5044V5.50317Z" fill="#000001"/>
<path id="Vector_17" d="M8.50217 16.502H6.50061V17.4995H8.50217V16.502Z" fill="#000001"/>
<path id="Vector_18" d="M8.50217 6.50073H6.50061V7.50479H8.50217V6.50073Z" fill="#000001"/>
<path id="Vector_19" d="M6.50065 15.5044H4.49908V16.5019H6.50065V15.5044Z" fill="#000001"/>
<path id="Vector_20" d="M6.50065 7.50464H4.49908V8.50214H6.50065V7.50464Z" fill="#000001"/>
<path id="Vector_21" d="M5.50315 21.5024H2.50409V22.4999H5.50315V21.5024Z" fill="#000001"/>
<path id="Vector_22" d="M4.49909 14.5002H3.50159V15.5043H4.49909V14.5002Z" fill="#000001"/>
<path id="Vector_23" d="M4.49909 8.5022H3.50159V9.4997H4.49909V8.5022Z" fill="#000001"/>
<path id="Vector_24" d="M5.50315 1.5H2.50409V2.50406H5.50315V1.5Z" fill="#000001"/>
<path id="Vector_25" d="M3.50159 13.5029H2.50409V14.5004H3.50159V13.5029Z" fill="#000001"/>
<path id="Vector_26" d="M3.50159 9.49976H2.50409V10.5038H3.50159V9.49976Z" fill="#000001"/>
<path id="Vector_27" d="M2.50406 18.5034H1.5V21.5025H2.50406V18.5034Z" fill="#000001"/>
<path id="Vector_28" d="M2.50406 10.5037H1.5V13.5027H2.50406V10.5037Z" fill="#000001"/>
<path id="Vector_29" d="M2.50406 2.50415H1.5V5.50321H2.50406V2.50415Z" fill="#000001"/>
</g>
</g>
</svg>
