<svg width="24" height="24" viewBox="0 0 24 24" fill="none" xmlns="http://www.w3.org/2000/svg">
<g id="interface-essential-loading-0-percent-1">
<g id="Group">
<path id="Vector" d="M21.4992 9.49976H20.5017V14.5004H21.4992V9.49976Z" fill="#000001"/>
<path id="Vector_2" d="M20.5017 14.5005H19.4977V16.5021H20.5017V14.5005Z" fill="#000001"/>
<path id="Vector_3" d="M20.5017 7.49829H19.4977V9.49985H20.5017V7.49829Z" fill="#000001"/>
<path id="Vector_4" d="M19.4977 16.502H18.5002V18.497H19.4977V16.502Z" fill="#000001"/>
<path id="Vector_5" d="M19.4977 5.49658H18.5002V7.49814H19.4977V5.49658Z" fill="#000001"/>
<path id="Vector_6" d="M18.5002 18.4968H16.4986V19.5009H18.5002V18.4968Z" fill="#000001"/>
<path id="Vector_7" d="M18.5002 4.49902H16.4986V5.49652H18.5002V4.49902Z" fill="#000001"/>
<path id="Vector_8" d="M16.4986 13.5029H15.5011V14.5004H16.4986V13.5029Z" fill="#000001"/>
<path id="Vector_9" d="M16.4986 10.4973H15.5011V11.5014H16.4986V10.4973Z" fill="#000001"/>
<path id="Vector_10" d="M16.4986 19.501H14.497V20.4985H16.4986V19.501Z" fill="#000001"/>
<path id="Vector_11" d="M15.5011 11.5012H14.497V12.4987H15.5011V11.5012Z" fill="#000001"/>
<path id="Vector_12" d="M16.4986 3.50171H14.497V4.49921H16.4986V3.50171Z" fill="#000001"/>
<path id="Vector_13" d="M14.497 12.4988H13.4995V13.5028H14.497V12.4988Z" fill="#000001"/>
<path id="Vector_14" d="M14.4971 20.4985H9.50299V21.5026H14.4971V20.4985Z" fill="#000001"/>
<path id="Vector_15" d="M13.4995 13.5029H12.502V14.5004H13.4995V13.5029Z" fill="#000001"/>
<path id="Vector_16" d="M13.4995 10.4973H12.502V11.5014H13.4995V10.4973Z" fill="#000001"/>
<path id="Vector_17" d="M14.4971 2.49756H9.50299V3.50162H14.4971V2.49756Z" fill="#000001"/>
<path id="Vector_18" d="M11.498 9.49976H8.49893V14.5004H11.498V9.49976ZM10.5005 13.5029H9.50628V10.4973H10.5038L10.5005 13.5029Z" fill="#000001"/>
<path id="Vector_19" d="M9.50297 19.501H7.5014V20.4985H9.50297V19.501Z" fill="#000001"/>
<path id="Vector_20" d="M9.50297 3.50171H7.5014V4.49921H9.50297V3.50171Z" fill="#000001"/>
<path id="Vector_21" d="M7.50141 18.4968H5.49985V19.5009H7.50141V18.4968Z" fill="#000001"/>
<path id="Vector_22" d="M7.50141 4.49902H5.49985V5.49652H7.50141V4.49902Z" fill="#000001"/>
<path id="Vector_23" d="M5.49985 16.502H4.50235V18.497H5.49985V16.502Z" fill="#000001"/>
<path id="Vector_24" d="M5.49985 5.49658H4.50235V7.49814H5.49985V5.49658Z" fill="#000001"/>
<path id="Vector_25" d="M4.50235 14.5005H3.49829V16.5021H4.50235V14.5005Z" fill="#000001"/>
<path id="Vector_26" d="M4.50235 7.49829H3.49829V9.49985H4.50235V7.49829Z" fill="#000001"/>
<path id="Vector_27" d="M3.49829 9.49976H2.50079V14.5004H3.49829V9.49976Z" fill="#000001"/>
</g>
</g>
</svg>
