<svg width="24" height="24" viewBox="0 0 24 24" fill="none" xmlns="http://www.w3.org/2000/svg">
<g id="interface-essential-scroll-vertical">
<g id="Group">
<path id="Vector" d="M17.5027 16.502H16.4986V17.4995H17.5027V16.502Z" fill="#000001"/>
<path id="Vector_2" d="M17.5027 6.50073H16.4986V7.49823H17.5027V6.50073Z" fill="#000001"/>
<path id="Vector_3" d="M16.4986 17.4993H15.5011V18.4968H16.4986V17.4993Z" fill="#000001"/>
<path id="Vector_4" d="M16.4986 5.49658H15.5011V6.50064H16.4986V5.49658Z" fill="#000001"/>
<path id="Vector_5" d="M15.5011 18.4968H14.4971V19.5009H15.5011V18.4968Z" fill="#000001"/>
<path id="Vector_6" d="M16.4987 7.49805H7.50146V8.50211H16.4987V7.49805Z" fill="#000001"/>
<path id="Vector_7" d="M15.5011 4.49902H14.4971V5.49652H15.5011V4.49902Z" fill="#000001"/>
<path id="Vector_8" d="M14.4971 19.501H13.4996V20.4985H14.4971V19.501Z" fill="#000001"/>
<path id="Vector_9" d="M14.4971 3.50146H13.4996V4.49896H14.4971V3.50146Z" fill="#000001"/>
<path id="Vector_10" d="M13.4996 20.4985H12.5021V21.5026H13.4996V20.4985Z" fill="#000001"/>
<path id="Vector_11" d="M13.4996 14.5004V13.5029H14.4971V10.4973H13.4996V9.49976H10.5005V10.4973H9.50299V13.5029H10.5005V14.5004H13.4996Z" fill="#000001"/>
<path id="Vector_12" d="M13.4996 2.49756H12.5021V3.50162H13.4996V2.49756Z" fill="#000001"/>
<path id="Vector_13" d="M12.502 21.5024H11.498V22.4999H12.502V21.5024Z" fill="#000001"/>
<path id="Vector_14" d="M12.502 1.5H11.498V2.4975H12.502V1.5Z" fill="#000001"/>
<path id="Vector_15" d="M11.498 20.4985H10.5005V21.5026H11.498V20.4985Z" fill="#000001"/>
<path id="Vector_16" d="M11.498 2.49756H10.5005V3.50162H11.498V2.49756Z" fill="#000001"/>
<path id="Vector_17" d="M10.5005 19.501H9.50299V20.4985H10.5005V19.501Z" fill="#000001"/>
<path id="Vector_18" d="M10.5005 3.50146H9.50299V4.49896H10.5005V3.50146Z" fill="#000001"/>
<path id="Vector_19" d="M9.50302 18.4968H8.49896V19.5009H9.50302V18.4968Z" fill="#000001"/>
<path id="Vector_20" d="M16.4987 15.4978H7.50146V16.5019H16.4987V15.4978Z" fill="#000001"/>
<path id="Vector_21" d="M9.50302 4.49902H8.49896V5.49652H9.50302V4.49902Z" fill="#000001"/>
<path id="Vector_22" d="M8.49896 17.4993H7.50146V18.4968H8.49896V17.4993Z" fill="#000001"/>
<path id="Vector_23" d="M8.49896 5.49658H7.50146V6.50064H8.49896V5.49658Z" fill="#000001"/>
<path id="Vector_24" d="M7.50144 16.502H6.49738V17.4995H7.50144V16.502Z" fill="#000001"/>
<path id="Vector_25" d="M7.50144 6.50073H6.49738V7.49823H7.50144V6.50073Z" fill="#000001"/>
</g>
</g>
</svg>
