<svg width="24" height="24" viewBox="0 0 24 24" fill="none" xmlns="http://www.w3.org/2000/svg">
<g id="interface-essential-global-public">
<g id="Group">
<path id="Vector" d="M16.4953 6.50067V8.50224H15.4978V11.5013H16.4953V12.4988H17.4994V13.5029H14.5003V14.5004H13.4963V15.4979H16.4953V17.4994H15.4978V19.501H16.4953V20.4985H18.4969V19.501H19.501V18.4969H20.4985V16.5019H21.496V14.5004H22.5V9.49974H21.496V7.49817H20.4985V5.50317H19.501V6.50067H16.4953Z" fill="#000001"/>
<path id="Vector_2" d="M19.501 4.49902H18.4969V5.50309H19.501V4.49902Z" fill="#000001"/>
<path id="Vector_3" d="M18.4969 3.50146H16.4953V4.49896H18.4969V3.50146Z" fill="#000001"/>
<path id="Vector_4" d="M16.4953 20.4985H14.5003V21.5026H16.4953V20.4985Z" fill="#000001"/>
<path id="Vector_5" d="M16.4953 2.49756H14.5003V3.50162H16.4953V2.49756Z" fill="#000001"/>
<path id="Vector_6" d="M12.4987 20.4985H11.5012V19.501H8.49561V20.4985H7.49811V21.5025H9.49967V22.5H14.5003V21.5025H12.4987V20.4985Z" fill="#000001"/>
<path id="Vector_7" d="M14.5003 1.5H9.49969V2.4975H14.5003V1.5Z" fill="#000001"/>
<path id="Vector_8" d="M8.49561 12.4986H9.49967V13.5027H10.4972V10.4971H8.49561V12.4986Z" fill="#000001"/>
<path id="Vector_9" d="M7.49814 19.501H5.49658V20.4985H7.49814V19.501Z" fill="#000001"/>
<path id="Vector_10" d="M5.49658 18.4968H4.49908V19.5009H5.49658V18.4968Z" fill="#000001"/>
<path id="Vector_11" d="M3.50156 16.5019V18.4969H4.49906V17.4994H5.49656V16.5019H6.50062V13.5029H5.49656V12.4988H4.49906V11.5013H3.50156V10.4972H4.49906V9.49975H7.49813V8.50225H8.49562V7.49818H9.49969V8.50225H10.4972V7.49818H11.5012V5.50318H10.4972V4.49912H8.49562V3.50162H9.49969V2.49756H7.49813V3.50162H5.49656V4.49912H4.49906V5.50318H3.50156V7.49818H2.4975V9.49975H1.5V14.5004H2.4975V16.5019H3.50156Z" fill="#000001"/>
</g>
</g>
</svg>
