<svg width="24" height="24" viewBox="0 0 24 24" fill="none" xmlns="http://www.w3.org/2000/svg">
<g id="interface-essential-link">
<g id="Group">
<path id="Vector" d="M21.0004 15.0024H20.0029V18.999H21.0004V15.0024Z" fill="#000001"/>
<path id="Vector_2" d="M20.003 18.9988H18.9989V20.0028H20.003V18.9988Z" fill="#000001"/>
<path id="Vector_3" d="M20.003 14.0049H18.9989V15.0024H20.003V14.0049Z" fill="#000001"/>
<path id="Vector_4" d="M18.9989 13.0007H18.0014V14.0048H18.9989V13.0007Z" fill="#000001"/>
<path id="Vector_5" d="M18.9989 20.0029H15.0023V21.0004H18.9989V20.0029Z" fill="#000001"/>
<path id="Vector_6" d="M18.0014 12.0032H16.9973V13.0007H18.0014V12.0032Z" fill="#000001"/>
<path id="Vector_7" d="M16.9974 10.9993H13.9983V12.0033H16.9974V10.9993Z" fill="#000001"/>
<path id="Vector_8" d="M15.0024 18.9988H13.9983V20.0028H15.0024V18.9988Z" fill="#000001"/>
<path id="Vector_9" d="M13.9982 18.0015H13.0007V18.999H13.9982V18.0015Z" fill="#000001"/>
<path id="Vector_10" d="M10.9992 9.00415H8.99762V10.9992H10.0017V12.0032H10.9992V13.0007H12.0032V14.0048H13.0007V15.0023H15.0023V13.0007H13.9982V12.0032H13.0007V10.9992H12.0032V10.0017H10.9992V9.00415Z" fill="#000001"/>
<path id="Vector_11" d="M13.0007 17.0039H12.0032V18.0014H13.0007V17.0039Z" fill="#000001"/>
<path id="Vector_12" d="M13.0007 7.00269H12.0032V10.0017H13.0007V7.00269Z" fill="#000001"/>
<path id="Vector_13" d="M12.0033 14.0049H10.9992V17.0039H12.0033V14.0049Z" fill="#000001"/>
<path id="Vector_14" d="M12.0033 6.00513H10.9992V7.00263H12.0033V6.00513Z" fill="#000001"/>
<path id="Vector_15" d="M10.9992 5.00098H10.0017V6.00504H10.9992V5.00098Z" fill="#000001"/>
<path id="Vector_16" d="M10.0017 4.00366H8.99762V5.00116H10.0017V4.00366Z" fill="#000001"/>
<path id="Vector_17" d="M10.0017 12.0032H7.00262V13.0007H10.0017V12.0032Z" fill="#000001"/>
<path id="Vector_18" d="M7.00266 10.9993H5.9986V12.0033H7.00266V10.9993Z" fill="#000001"/>
<path id="Vector_19" d="M8.99766 2.99951H5.0011V4.00357H8.99766V2.99951Z" fill="#000001"/>
<path id="Vector_20" d="M5.9986 10.0017H5.0011V10.9992H5.9986V10.0017Z" fill="#000001"/>
<path id="Vector_21" d="M5.0011 9.00415H4.0036V10.0017H5.0011V9.00415Z" fill="#000001"/>
<path id="Vector_22" d="M5.0011 4.00366H4.0036V5.00116H5.0011V4.00366Z" fill="#000001"/>
<path id="Vector_23" d="M4.00357 5.00098H2.99951V9.0041H4.00357V5.00098Z" fill="#000001"/>
</g>
</g>
</svg>
