<svg width="24" height="24" viewBox="0 0 24 24" fill="none" xmlns="http://www.w3.org/2000/svg">
<g id="interface-essential-note-music">
<g id="Group">
<path id="Vector" d="M19.9964 6.0019H17.9949V6.9994H19.9964V14.9991H17.9949V16.0032H16.9974V17.9982H17.9949V19.0022H19.9964V17.9982H21.0005V1.99878H17.9949V3.00284H19.9964V6.0019Z" fill="#000001"/>
<path id="Vector_2" d="M17.9949 6.99951H14.9958V8.00357H17.9949V6.99951Z" fill="#000001"/>
<path id="Vector_3" d="M17.9949 3.00293H14.9958V4.00043H17.9949V3.00293Z" fill="#000001"/>
<path id="Vector_4" d="M14.9958 8.00342H11.9968V9.00092H14.9958V8.00342Z" fill="#000001"/>
<path id="Vector_5" d="M14.9958 4.00024H11.9968V5.00431H14.9958V4.00024Z" fill="#000001"/>
<path id="Vector_6" d="M11.9967 9.00098H8.99768V9.99848H11.9967V9.00098Z" fill="#000001"/>
<path id="Vector_7" d="M11.9967 5.00439H8.99768V6.00189H11.9967V5.00439Z" fill="#000001"/>
<path id="Vector_8" d="M3.99707 22.0013H5.99864V21.0038H6.99614V11.0026H8.9977V9.99852H6.99614V6.99945H8.9977V6.00195H5.99864V17.9982H3.99707V19.0023H2.99957V21.0038H3.99707V22.0013Z" fill="#000001"/>
</g>
</g>
</svg>
