<svg width="24" height="24" viewBox="0 0 24 24" fill="none" xmlns="http://www.w3.org/2000/svg">
<g id="interface-essential-waiting-hourglass-loading">
<g id="Group">
<path id="Vector" d="M14.5003 19.0023V19.9998H16.4953V21.0039H7.49815V19.9998H9.49971V19.0023H7.49815V17.0007H6.50065V21.0039H4.49908V22.0014H19.501V21.0039H17.4994V17.0007H16.4953V19.0023H14.5003Z" fill="#000001"/>
<path id="Vector_2" d="M16.4954 14.999H15.4979V17.0006H16.4954V14.999Z" fill="#000001"/>
<path id="Vector_3" d="M16.4954 6.99951H15.4979V9.00107H16.4954V6.99951Z" fill="#000001"/>
<path id="Vector_4" d="M15.4978 14.0017H14.5003V14.9992H15.4978V14.0017Z" fill="#000001"/>
<path id="Vector_5" d="M14.5003 13.0042H13.4963V14.0016H14.5003V13.0042Z" fill="#000001"/>
<path id="Vector_6" d="M14.5003 17.998H12.4988V19.0021H14.5003V17.998Z" fill="#000001"/>
<path id="Vector_7" d="M14.5004 11.0025V9.99848H15.4979V9.00098H8.49567V9.99848H9.49973V11.0025H10.4972V13.0041H11.5013V17.9982H12.4988V13.0041H13.4963V11.0025H14.5004Z" fill="#000001"/>
<path id="Vector_8" d="M11.5013 17.998H9.49969V19.0021H11.5013V17.998Z" fill="#000001"/>
<path id="Vector_9" d="M10.4972 13.0042H9.49969V14.0016H10.4972V13.0042Z" fill="#000001"/>
<path id="Vector_10" d="M9.49973 14.0017H8.49567V14.9992H9.49973V14.0017Z" fill="#000001"/>
<path id="Vector_11" d="M8.49567 14.999H7.49817V17.0006H8.49567V14.999Z" fill="#000001"/>
<path id="Vector_12" d="M8.49567 6.99951H7.49817V9.00107H8.49567V6.99951Z" fill="#000001"/>
<path id="Vector_13" d="M7.49815 3.00284H16.4953V6.9994H17.4994V3.00284H19.501V1.99878H4.49908V3.00284H6.50065V6.9994H7.49815V3.00284Z" fill="#000001"/>
</g>
</g>
</svg>
