<svg width="24" height="24" viewBox="0 0 24 24" fill="none" xmlns="http://www.w3.org/2000/svg">
<g id="interface-essential-hierarchy-5">
<g id="Group">
<path id="Vector" d="M17.4994 14.5004V13.5029H16.4953V14.5004H14.4937V18.497H9.49967V16.502H8.49561V20.4986H9.49967V19.5011H14.4937V22.5001H22.5V14.5004H17.4994ZM21.4959 21.5026H15.4978V15.4979H21.4959V21.5026Z" fill="#000001"/>
<path id="Vector_2" d="M20.4984 16.502H16.4953V20.4985H20.4984V16.502Z" fill="#000001"/>
<path id="Vector_3" d="M16.4953 11.5012H15.4978V13.5028H16.4953V11.5012Z" fill="#000001"/>
<path id="Vector_4" d="M15.4978 6.50073H14.4938V8.5023H15.4978V6.50073Z" fill="#000001"/>
<path id="Vector_5" d="M14.4938 4.49902H13.4963V6.50059H14.4938V4.49902Z" fill="#000001"/>
<path id="Vector_6" d="M13.4963 2.49756H12.4988V4.49912H13.4963V2.49756Z" fill="#000001"/>
<path id="Vector_7" d="M12.4988 1.5H10.4972V2.4975H12.4988V1.5Z" fill="#000001"/>
<path id="Vector_8" d="M13.4963 8.50221V7.49814H12.4988V5.49658H10.4972V7.49814H9.49969V8.50221H13.4963Z" fill="#000001"/>
<path id="Vector_9" d="M10.4972 2.49756H9.49969V4.49912H10.4972V2.49756Z" fill="#000001"/>
<path id="Vector_10" d="M9.49967 4.49902H8.49561V6.50059H9.49967V4.49902Z" fill="#000001"/>
<path id="Vector_11" d="M8.49561 20.4985H7.49811V21.5026H8.49561V20.4985Z" fill="#000001"/>
<path id="Vector_12" d="M8.49561 15.4978H7.49811V16.5019H8.49561V15.4978Z" fill="#000001"/>
<path id="Vector_13" d="M8.49564 10.4972H14.4938V11.5013H15.4978V10.4972H16.4953V8.5022H15.4978V9.4997H7.49814V8.5022H6.49408V10.4972H7.49814V11.5013H8.49564V10.4972Z" fill="#000001"/>
<path id="Vector_14" d="M8.49561 6.50073H7.49811V8.5023H8.49561V6.50073Z" fill="#000001"/>
<path id="Vector_15" d="M7.49814 11.5012H6.49408V13.5028H7.49814V11.5012Z" fill="#000001"/>
<path id="Vector_16" d="M7.49812 21.5024H3.495V22.4999H7.49812V21.5024Z" fill="#000001"/>
<path id="Vector_17" d="M6.49406 16.502H4.49906V17.4995H3.495V19.501H4.49906V20.4985H6.49406V19.501H7.49812V17.4995H6.49406V16.502Z" fill="#000001"/>
<path id="Vector_18" d="M7.49812 15.4979V14.5004H6.49406V13.5029H5.49656V14.5004H3.495V15.4979H7.49812Z" fill="#000001"/>
<path id="Vector_19" d="M3.495 20.4985H2.4975V21.5026H3.495V20.4985Z" fill="#000001"/>
<path id="Vector_20" d="M3.495 15.4978H2.4975V16.5019H3.495V15.4978Z" fill="#000001"/>
<path id="Vector_21" d="M2.4975 16.502H1.5V20.4985H2.4975V16.502Z" fill="#000001"/>
</g>
</g>
</svg>
