<svg width="24" height="24" viewBox="0 0 24 24" fill="none" xmlns="http://www.w3.org/2000/svg">
<g id="interface-essential-loading-100-percent">
<g id="Group">
<path id="Vector" d="M22.5 11.5012H20.4984V12.4987H22.5V11.5012Z" fill="#000001"/>
<path id="Vector_2" d="M21.4959 16.502H20.4984V17.4995H21.4959V16.502Z" fill="#000001"/>
<path id="Vector_3" d="M21.4959 6.50073H20.4984V7.49823H21.4959V6.50073Z" fill="#000001"/>
<path id="Vector_4" d="M20.4984 15.4978H19.4944V16.5019H20.4984V15.4978Z" fill="#000001"/>
<path id="Vector_5" d="M20.4984 7.49805H19.4944V8.50211H20.4984V7.49805Z" fill="#000001"/>
<path id="Vector_6" d="M18.4969 19.501H17.4994V20.4985H18.4969V19.501Z" fill="#000001"/>
<path id="Vector_7" d="M18.4969 2.49756H17.4994V3.50162H18.4969V2.49756Z" fill="#000001"/>
<path id="Vector_8" d="M17.4994 18.4968H16.4953V19.5009H17.4994V18.4968Z" fill="#000001"/>
<path id="Vector_9" d="M17.4994 3.50146H16.4953V4.49896H17.4994V3.50146Z" fill="#000001"/>
<path id="Vector_10" d="M16.4953 9.49976H13.4963V13.5029H16.4953V9.49976ZM15.4978 12.4988H14.4938V10.4973H15.4978V12.4988Z" fill="#000001"/>
<path id="Vector_11" d="M13.4963 17.4993H12.4988V18.4968H13.4963V17.4993Z" fill="#000001"/>
<path id="Vector_12" d="M13.4963 14.5002H12.4988V15.4977H13.4963V14.5002Z" fill="#000001"/>
<path id="Vector_13" d="M12.4988 20.4985H11.4947V22.5001H12.4988V20.4985Z" fill="#000001"/>
<path id="Vector_14" d="M12.4988 15.4978H11.4947V16.5019H12.4988V15.4978Z" fill="#000001"/>
<path id="Vector_15" d="M12.4988 1.5H11.4947V3.50156H12.4988V1.5Z" fill="#000001"/>
<path id="Vector_16" d="M11.4947 16.502H10.4972V17.4995H11.4947V16.502Z" fill="#000001"/>
<path id="Vector_17" d="M12.4988 13.5029V9.49976H9.49969V13.5029H12.4988ZM10.4972 10.4973H11.4947V12.4988H10.4972V10.4973Z" fill="#000001"/>
<path id="Vector_18" d="M13.4963 6.50064H12.4988V5.49658H11.4947V6.50064H10.4972V5.49658H9.49969V8.50221H14.4938V5.49658H13.4963V6.50064Z" fill="#000001"/>
<path id="Vector_19" d="M10.4972 17.4993H9.49969V18.4968H10.4972V17.4993Z" fill="#000001"/>
<path id="Vector_20" d="M10.4972 14.5002H9.49969V15.4977H10.4972V14.5002Z" fill="#000001"/>
<path id="Vector_21" d="M8.49561 9.49976H7.49811V13.5029H8.49561V9.49976Z" fill="#000001"/>
<path id="Vector_22" d="M7.49814 18.4968H6.49408V19.5009H7.49814V18.4968Z" fill="#000001"/>
<path id="Vector_23" d="M7.49814 3.50146H6.49408V4.49896H7.49814V3.50146Z" fill="#000001"/>
<path id="Vector_24" d="M6.49408 19.501H5.49658V20.4985H6.49408V19.501Z" fill="#000001"/>
<path id="Vector_25" d="M6.49408 2.49756H5.49658V3.50162H6.49408V2.49756Z" fill="#000001"/>
<path id="Vector_26" d="M4.49906 15.4978H3.495V16.5019H4.49906V15.4978Z" fill="#000001"/>
<path id="Vector_27" d="M4.49906 7.49805H3.495V8.50211H4.49906V7.49805Z" fill="#000001"/>
<path id="Vector_28" d="M3.495 16.502H2.4975V17.4995H3.495V16.502Z" fill="#000001"/>
<path id="Vector_29" d="M3.495 11.5012H1.5V12.4987H3.495V11.5012Z" fill="#000001"/>
<path id="Vector_30" d="M3.495 6.50073H2.4975V7.49823H3.495V6.50073Z" fill="#000001"/>
</g>
</g>
</svg>
