<svg width="24" height="24" viewBox="0 0 24 24" fill="none" xmlns="http://www.w3.org/2000/svg">
<g id="interface-essential-alert-circle-1">
<g id="Group">
<path id="Vector" d="M21.5025 7.49813H20.4984V5.49656H19.5009V4.49906H18.4969V3.50156H16.5019V2.4975H14.5003V1.5H9.49969V2.4975H7.49813V3.50156H5.49656V4.49906H4.49906V5.49656H3.50156V7.49813H2.4975V9.49969H1.5V14.5003H2.4975V16.5019H3.50156V18.4969H4.49906V19.5009H5.49656V20.4984H7.49813V21.5025H9.49969V22.5H14.5003V21.5025H16.5019V20.4984H18.4969V19.5009H19.5009V18.4969H20.4984V16.5019H21.5025V14.5003H22.5V9.49969H21.5025V7.49813ZM14.5003 18.4969H13.5028V19.5009H10.4972V18.4969H9.49969V15.4978H10.4972V14.5003H13.5028V15.4978H14.5003V18.4969ZM15.4978 10.4972H14.5003V12.4988H13.5028V13.5028H10.4972V12.4988H9.49969V10.4972H8.50219V5.49656H9.49969V4.49906H14.5003V5.49656H15.4978V10.4972Z" fill="#000001"/>
<path id="Vector_2" d="M14.5003 6.50073H13.5028V9.49979H14.5003V6.50073Z" fill="#000001"/>
<path id="Vector_3" d="M13.5028 5.49658H12.4988V6.50064H13.5028V5.49658Z" fill="#000001"/>
</g>
</g>
</svg>
