<svg width="24" height="24" viewBox="0 0 24 24" fill="none" xmlns="http://www.w3.org/2000/svg">
<g id="internet-network-cloud-error">
<g id="Group">
<path id="Vector" d="M22.5 12.0032H21.496V15.9997H22.5V12.0032Z" fill="#000001"/>
<path id="Vector_2" d="M21.4959 15.9998H20.4984V17.0038H21.4959V15.9998Z" fill="#000001"/>
<path id="Vector_3" d="M21.4959 10.999H20.4984V12.0031H21.4959V10.999Z" fill="#000001"/>
<path id="Vector_4" d="M20.4985 17.0039H19.501V18.0014H20.4985V17.0039Z" fill="#000001"/>
<path id="Vector_5" d="M20.4985 10.0017H19.501V10.9992H20.4985V10.0017Z" fill="#000001"/>
<path id="Vector_6" d="M19.501 18.0012H3.50159V18.9987H19.501V18.0012Z" fill="#000001"/>
<path id="Vector_7" d="M19.501 9.00415H17.4994V10.0017H19.501V9.00415Z" fill="#000001"/>
<path id="Vector_8" d="M17.4994 8H16.4954V9.00406H17.4994V8Z" fill="#000001"/>
<path id="Vector_9" d="M16.4953 13.0007H15.4978V13.9982H16.4953V13.0007Z" fill="#000001"/>
<path id="Vector_10" d="M16.4953 10.999H15.4978V12.0031H16.4953V10.999Z" fill="#000001"/>
<path id="Vector_11" d="M16.4953 7.00244H15.4978V7.99994H16.4953V7.00244Z" fill="#000001"/>
<path id="Vector_12" d="M15.4979 12.0032H14.5004V13.0007H15.4979V12.0032Z" fill="#000001"/>
<path id="Vector_13" d="M14.5003 13.0007H13.4962V13.9982H14.5003V13.0007Z" fill="#000001"/>
<path id="Vector_14" d="M14.5003 10.999H13.4962V12.0031H14.5003V10.999Z" fill="#000001"/>
<path id="Vector_15" d="M15.4978 5.99854H13.4962V7.0026H15.4978V5.99854Z" fill="#000001"/>
<path id="Vector_16" d="M10.4972 15.9997H12.4988V17.0038H14.5003V15.0022H10.4972V15.9997Z" fill="#000001"/>
<path id="Vector_17" d="M13.4963 5.00098H10.4972V5.99848H13.4963V5.00098Z" fill="#000001"/>
<path id="Vector_18" d="M10.4971 13.0007H9.49963V13.9982H10.4971V13.0007Z" fill="#000001"/>
<path id="Vector_19" d="M10.4971 10.999H9.49963V12.0031H10.4971V10.999Z" fill="#000001"/>
<path id="Vector_20" d="M10.4972 5.99854H8.49561V7.0026H10.4972V5.99854Z" fill="#000001"/>
<path id="Vector_21" d="M9.49967 12.0032H8.49561V13.0007H9.49967V12.0032Z" fill="#000001"/>
<path id="Vector_22" d="M8.49567 13.0007H7.49817V13.9982H8.49567V13.0007Z" fill="#000001"/>
<path id="Vector_23" d="M8.49567 10.999H7.49817V12.0031H8.49567V10.999Z" fill="#000001"/>
<path id="Vector_24" d="M8.49567 7.00244H7.49817V7.99994H8.49567V7.00244Z" fill="#000001"/>
<path id="Vector_25" d="M7.49811 8H6.50061V10.0016H7.49811V8Z" fill="#000001"/>
<path id="Vector_26" d="M6.50065 10.0017H3.50159V10.9992H6.50065V10.0017Z" fill="#000001"/>
<path id="Vector_27" d="M3.50162 17.0039H2.49756V18.0014H3.50162V17.0039Z" fill="#000001"/>
<path id="Vector_28" d="M3.50162 10.999H2.49756V12.0031H3.50162V10.999Z" fill="#000001"/>
<path id="Vector_29" d="M2.4975 12.0032H1.5V17.0038H2.4975V12.0032Z" fill="#000001"/>
</g>
</g>
</svg>
