<svg width="24" height="24" viewBox="0 0 24 24" fill="none" xmlns="http://www.w3.org/2000/svg">
<g id="interface-essential-home-1">
<g id="Group">
<path id="Vector" d="M5.99858 10.4972V9.49969H7.00264V8.50219H8.00014V7.49813H8.99764V6.50062H10.0017V5.50312H10.9992V4.49906H13.0008V5.50312H13.9983V6.50062H15.0023V7.49813H15.9998V8.50219H16.9973V9.49969H18.0014V10.4972H18.9989V21.5025H20.003V12.4988H21.0005V11.5012H21.998V10.4972H21.0005V9.49969H20.003V8.50219H18.9989V7.49813H18.0014V6.50062H16.9973V5.50312H15.9998V4.49906H15.0023V3.50156H13.9983V2.4975H13.0008V1.5H10.9992V2.4975H10.0017V3.50156H8.99764V4.49906H8.00014V5.50312H7.00264V6.50062H5.99858V7.49813H5.00108V8.50219H4.00358V9.49969H2.99951V10.4972H2.00201V11.5012H2.99951V12.4988H4.00358V21.5025H5.00108V10.4972H5.99858Z" fill="#000001"/>
<path id="Vector_2" d="M18.9989 22.5001V21.5026H15.0023V13.5029H13.9983V21.5026H10.0017V13.5029H8.99766V21.5026H5.0011V22.5001H18.9989Z" fill="#000001"/>
<path id="Vector_3" d="M18.0014 14.5002H15.9998V16.5018H18.0014V14.5002Z" fill="#000001"/>
<path id="Vector_4" d="M13.9983 7.49805H13.0008V9.49961H13.9983V7.49805Z" fill="#000001"/>
<path id="Vector_5" d="M13.0008 6.50073H10.9992V7.49823H13.0008V6.50073Z" fill="#000001"/>
<path id="Vector_6" d="M12.0033 16.502H10.9992V17.4995H12.0033V16.502Z" fill="#000001"/>
<path id="Vector_7" d="M13.9983 12.4988H10.0017V13.5028H13.9983V12.4988Z" fill="#000001"/>
<path id="Vector_8" d="M13.0008 9.49976H10.9992V10.4973H13.0008V9.49976Z" fill="#000001"/>
<path id="Vector_9" d="M10.9992 7.49805H10.0017V9.49961H10.9992V7.49805Z" fill="#000001"/>
<path id="Vector_10" d="M8.00016 14.5002H5.9986V16.5018H8.00016V14.5002Z" fill="#000001"/>
</g>
</g>
</svg>
