<svg width="24" height="24" viewBox="0 0 24 24" fill="none" xmlns="http://www.w3.org/2000/svg">
<g id="interface-essential-send-mail">
<g id="Group">
<path id="Vector" d="M22.5 9.00073H18.4969V9.99823H22.5V9.00073Z" fill="#000001"/>
<path id="Vector_2" d="M22.5 11.0024H20.4984V11.9999H22.5V11.0024Z" fill="#000001"/>
<path id="Vector_3" d="M7.49813 16.003H12.4988V17.0005H17.4994V14.9989H20.4984V13.0039H19.5009V14.0014H2.4975V13.0039H1.5V14.9989H7.49813V16.003Z" fill="#000001"/>
<path id="Vector_4" d="M19.501 12H17.4994V13.0041H19.501V12Z" fill="#000001"/>
<path id="Vector_5" d="M18.4969 6.99927H16.4953V8.00333H18.4969V6.99927Z" fill="#000001"/>
<path id="Vector_6" d="M17.4994 11.0024H15.4978V11.9999H17.4994V11.0024Z" fill="#000001"/>
<path id="Vector_7" d="M13.4963 9.99823H12.4988V11.0023H15.4978V9.99823H14.5003V9.00073H13.4963V9.99823Z" fill="#000001"/>
<path id="Vector_8" d="M14.5003 9.00083H15.4978V6.99927H12.4988V8.00333H14.5003V9.00083Z" fill="#000001"/>
<path id="Vector_9" d="M12.4988 8.00342H10.4972V9.00092H12.4988V8.00342Z" fill="#000001"/>
<path id="Vector_10" d="M12.4988 11.0024H9.49969V11.9999H12.4988V11.0024Z" fill="#000001"/>
<path id="Vector_11" d="M10.4972 9.00073H8.49561V9.99823H10.4972V9.00073Z" fill="#000001"/>
<path id="Vector_12" d="M8.49561 9.99829H6.50061V11.0024H8.49561V9.99829Z" fill="#000001"/>
<path id="Vector_13" d="M6.50065 11.0024H4.49908V11.9999H6.50065V11.0024Z" fill="#000001"/>
<path id="Vector_14" d="M4.49906 12H2.4975V13.0041H4.49906V12Z" fill="#000001"/>
</g>
</g>
</svg>
