<svg width="24" height="24" viewBox="0 0 24 24" fill="none" xmlns="http://www.w3.org/2000/svg">
<g id="interface-essential-call-center-contact-help">
<g id="Group">
<path id="Vector" d="M21.496 11.0025H20.4985V9.99846H18.4969V5.00439H17.4994V17.0006H18.4969V19.9997H19.501V17.9981H20.4985V17.0006H21.496V16.0031H22.5V12H21.496V11.0025ZM19.501 16.0031H18.4969V11.0025H19.501V16.0031Z" fill="#000001"/>
<path id="Vector_2" d="M18.4969 19.9998H15.4978V21.0038H18.4969V19.9998Z" fill="#000001"/>
<path id="Vector_3" d="M17.4994 4.00024H16.4953V5.00431H17.4994V4.00024Z" fill="#000001"/>
<path id="Vector_4" d="M16.4953 3.00293H15.4978V4.00043H16.4953V3.00293Z" fill="#000001"/>
<path id="Vector_5" d="M15.4978 1.99878H8.49561V3.00284H15.4978V1.99878Z" fill="#000001"/>
<path id="Vector_6" d="M15.4978 21.0037H12.4988V22.0012H15.4978V21.0037Z" fill="#000001"/>
<path id="Vector_7" d="M15.4978 19.0022H12.4988V19.9997H15.4978V19.0022Z" fill="#000001"/>
<path id="Vector_8" d="M12.4987 19.9998H11.5012V21.0038H12.4987V19.9998Z" fill="#000001"/>
<path id="Vector_9" d="M8.49561 3.00293H7.49811V4.00043H8.49561V3.00293Z" fill="#000001"/>
<path id="Vector_10" d="M7.49811 4.00024H6.50061V5.00431H7.49811V4.00024Z" fill="#000001"/>
<path id="Vector_11" d="M5.49656 9.99846H3.50156V11.0025H2.4975V12H1.5V16.0031H2.4975V17.0006H3.50156V17.9981H5.49656V17.0006H6.50062V5.00439H5.49656V9.99846ZM5.49656 16.0031H4.49906V11.0025H5.49656V16.0031Z" fill="#000001"/>
</g>
</g>
</svg>
