<svg width="24" height="24" viewBox="0 0 24 24" fill="none" xmlns="http://www.w3.org/2000/svg">
<g id="interface-essential-notification-alert">
<g id="Group">
<path id="Vector" d="M22.5 18.4968H21.4959V20.4984H22.5V18.4968Z" fill="#000001"/>
<path id="Vector_2" d="M22.5 3.50146H21.4959V5.50303H22.5V3.50146Z" fill="#000001"/>
<path id="Vector_3" d="M21.4959 20.4985H20.4984V21.5026H21.4959V20.4985Z" fill="#000001"/>
<path id="Vector_4" d="M21.4959 2.49756H20.4984V3.50162H21.4959V2.49756Z" fill="#000001"/>
<path id="Vector_5" d="M20.4984 18.4968H19.5009V19.5009H20.4984V18.4968Z" fill="#000001"/>
<path id="Vector_6" d="M20.4984 14.5002H19.5009V16.5018H20.4984V14.5002Z" fill="#000001"/>
<path id="Vector_7" d="M20.4984 4.49902H19.5009V5.50309H20.4984V4.49902Z" fill="#000001"/>
<path id="Vector_8" d="M20.4985 1.5H18.4969V2.4975H20.4985V1.5Z" fill="#000001"/>
<path id="Vector_9" d="M20.4985 21.5024H18.4969V22.4999H20.4985V21.5024Z" fill="#000001"/>
<path id="Vector_10" d="M19.501 19.501H18.4969V20.4985H19.501V19.501Z" fill="#000001"/>
<path id="Vector_11" d="M19.501 16.502H18.4969V17.4995H19.501V16.502Z" fill="#000001"/>
<path id="Vector_12" d="M19.501 13.5029H18.4969V14.5004H19.501V13.5029Z" fill="#000001"/>
<path id="Vector_13" d="M19.501 3.50146H18.4969V4.49896H19.501V3.50146Z" fill="#000001"/>
<path id="Vector_14" d="M18.4969 17.4993H16.4953V18.4968H18.4969V17.4993Z" fill="#000001"/>
<path id="Vector_15" d="M18.4969 8.5022H17.4994V13.5028H18.4969V8.5022Z" fill="#000001"/>
<path id="Vector_16" d="M17.4994 15.4978H16.4953V16.5019H17.4994V15.4978Z" fill="#000001"/>
<path id="Vector_17" d="M17.4994 6.50073H16.4953V8.5023H17.4994V6.50073Z" fill="#000001"/>
<path id="Vector_18" d="M7.49811 15.4977H9.49967V16.5018H10.4972V17.4993H13.4962V16.5018H14.5003V15.4977H16.4953V14.5002H7.49811V15.4977Z" fill="#000001"/>
<path id="Vector_19" d="M16.4953 5.50317H15.4978V6.50067H16.4953V5.50317Z" fill="#000001"/>
<path id="Vector_20" d="M16.4953 18.4968H7.49811V19.5009H16.4953V18.4968Z" fill="#000001"/>
<path id="Vector_21" d="M15.4978 4.49902H13.4963V5.50309H15.4978V4.49902Z" fill="#000001"/>
<path id="Vector_22" d="M13.4963 3.50146H10.4972V4.49896H13.4963V3.50146Z" fill="#000001"/>
<path id="Vector_23" d="M10.4972 4.49902H8.49561V5.50309H10.4972V4.49902Z" fill="#000001"/>
<path id="Vector_24" d="M8.49561 5.50317H7.49811V6.50067H8.49561V5.50317Z" fill="#000001"/>
<path id="Vector_25" d="M7.49814 17.4993H5.49658V18.4968H7.49814V17.4993Z" fill="#000001"/>
<path id="Vector_26" d="M7.49811 15.4978H6.50061V16.5019H7.49811V15.4978Z" fill="#000001"/>
<path id="Vector_27" d="M7.49811 6.50073H6.50061V8.5023H7.49811V6.50073Z" fill="#000001"/>
<path id="Vector_28" d="M6.50064 8.5022H5.49658V13.5028H6.50064V8.5022Z" fill="#000001"/>
<path id="Vector_29" d="M5.49658 19.501H4.49908V20.4985H5.49658V19.501Z" fill="#000001"/>
<path id="Vector_30" d="M5.49658 16.502H4.49908V17.4995H5.49658V16.502Z" fill="#000001"/>
<path id="Vector_31" d="M5.49658 13.5029H4.49908V14.5004H5.49658V13.5029Z" fill="#000001"/>
<path id="Vector_32" d="M5.49658 3.50146H4.49908V4.49896H5.49658V3.50146Z" fill="#000001"/>
<path id="Vector_33" d="M5.49659 1.5H3.50159V2.4975H5.49659V1.5Z" fill="#000001"/>
<path id="Vector_34" d="M5.49659 21.5024H3.50159V22.4999H5.49659V21.5024Z" fill="#000001"/>
<path id="Vector_35" d="M4.49909 18.4968H3.50159V19.5009H4.49909V18.4968Z" fill="#000001"/>
<path id="Vector_36" d="M4.49909 14.5002H3.50159V16.5018H4.49909V14.5002Z" fill="#000001"/>
<path id="Vector_37" d="M4.49909 4.49902H3.50159V5.50309H4.49909V4.49902Z" fill="#000001"/>
<path id="Vector_38" d="M3.50156 20.4985H2.4975V21.5026H3.50156V20.4985Z" fill="#000001"/>
<path id="Vector_39" d="M3.50156 2.49756H2.4975V3.50162H3.50156V2.49756Z" fill="#000001"/>
<path id="Vector_40" d="M2.4975 18.4968H1.5V20.4984H2.4975V18.4968Z" fill="#000001"/>
<path id="Vector_41" d="M2.4975 3.50146H1.5V5.50303H2.4975V3.50146Z" fill="#000001"/>
</g>
</g>
</svg>
