<svg width="24" height="24" viewBox="0 0 24 24" fill="none" xmlns="http://www.w3.org/2000/svg">
<g id="interface-essential-navigation-menu-2">
<g id="Group">
<path id="Vector" d="M22.0012 4.00024H20.9971V19.9996H22.0012V4.00024Z" fill="#000001"/>
<path id="Vector_2" d="M20.9971 19.9998H19.9996V20.9973H20.9971V19.9998Z" fill="#000001"/>
<path id="Vector_3" d="M20.9971 2.99634H19.9996V4.0004H20.9971V2.99634Z" fill="#000001"/>
<path id="Vector_4" d="M19.9997 20.9973H4.00031V22.0014H19.9997V20.9973Z" fill="#000001"/>
<path id="Vector_5" d="M19.9997 10.9958H17.9981V12.9974H19.9997V10.9958Z" fill="#000001"/>
<path id="Vector_6" d="M17.0006 10.9958H14.999V12.9974H17.0006V10.9958Z" fill="#000001"/>
<path id="Vector_7" d="M14.0015 10.9958H11.9999V12.9974H14.0015V10.9958Z" fill="#000001"/>
<path id="Vector_8" d="M4.99781 14.9991H6.00187V15.9966H9.00093V14.9991H9.99843V13.995H11.0025V12.9975H9.00093V12H11.0025V10.996H9.99843V9.99848H9.00093V9.00098H6.00187V9.99848H4.99781V10.996H4.00031V13.995H4.99781V14.9991ZM6.99937 10.996H8.00343V12H6.99937V10.996Z" fill="#000001"/>
<path id="Vector_9" d="M19.9997 1.99878H4.00031V2.99628H19.9997V1.99878Z" fill="#000001"/>
<path id="Vector_10" d="M4.00031 19.9998H3.00281V20.9973H4.00031V19.9998Z" fill="#000001"/>
<path id="Vector_11" d="M4.00031 2.99634H3.00281V4.0004H4.00031V2.99634Z" fill="#000001"/>
<path id="Vector_12" d="M3.00278 4.00024H1.99872V19.9996H3.00278V4.00024Z" fill="#000001"/>
</g>
</g>
</svg>
