<svg width="24" height="24" viewBox="0 0 24 24" fill="none" xmlns="http://www.w3.org/2000/svg">
<g id="interface-essential-face-id-1">
<g id="Group">
<path id="Vector" d="M22.5 7.49805H20.4984V8.50211H22.5V7.49805Z" fill="#000001"/>
<path id="Vector_2" d="M22.5 15.4978H20.4984V16.5019H22.5V15.4978Z" fill="#000001"/>
<path id="Vector_3" d="M22.5 11.5012H20.4984V12.4987H22.5V11.5012Z" fill="#000001"/>
<path id="Vector_4" d="M20.4984 19.501H19.5009V20.4985H20.4984V19.501Z" fill="#000001"/>
<path id="Vector_5" d="M20.4984 3.50146H19.5009V4.49896H20.4984V3.50146Z" fill="#000001"/>
<path id="Vector_6" d="M19.5009 18.4968H18.5034V19.5009H19.5009V18.4968Z" fill="#000001"/>
<path id="Vector_7" d="M19.5009 9.49976H18.5034V14.5004H19.5009V9.49976Z" fill="#000001"/>
<path id="Vector_8" d="M19.5009 4.49902H18.5034V5.49652H19.5009V4.49902Z" fill="#000001"/>
<path id="Vector_9" d="M18.5035 14.5002H17.4994V16.5018H18.5035V14.5002Z" fill="#000001"/>
<path id="Vector_10" d="M18.5035 7.49805H17.4994V9.49961H18.5035V7.49805Z" fill="#000001"/>
<path id="Vector_11" d="M17.4994 6.50073H16.5019V7.49823H17.4994V6.50073Z" fill="#000001"/>
<path id="Vector_12" d="M16.5019 20.4985H15.5044V22.5001H16.5019V20.4985Z" fill="#000001"/>
<path id="Vector_13" d="M15.5044 17.4995H14.5003V18.497H16.5019V17.4995H17.4994V16.502H15.5044V17.4995Z" fill="#000001"/>
<path id="Vector_14" d="M16.5019 1.5H15.5044V3.50156H16.5019V1.5Z" fill="#000001"/>
<path id="Vector_15" d="M15.5044 15.4978H14.5003V16.5019H15.5044V15.4978Z" fill="#000001"/>
<path id="Vector_16" d="M16.5019 5.49658H14.5003V6.50064H16.5019V5.49658Z" fill="#000001"/>
<path id="Vector_17" d="M14.5003 18.4968H9.49969V19.5009H14.5003V18.4968Z" fill="#000001"/>
<path id="Vector_18" d="M12.4987 20.4985H11.5012V22.5001H12.4987V20.4985Z" fill="#000001"/>
<path id="Vector_19" d="M12.4987 1.5H11.5012V3.50156H12.4987V1.5Z" fill="#000001"/>
<path id="Vector_20" d="M14.5003 14.5002H9.49969V15.4977H14.5003V14.5002Z" fill="#000001"/>
<path id="Vector_21" d="M14.5003 4.49902H9.49969V5.49652H14.5003V4.49902Z" fill="#000001"/>
<path id="Vector_22" d="M8.50217 17.4995V16.502H6.50061V17.4995H7.50467V18.497H9.49967V17.4995H8.50217Z" fill="#000001"/>
<path id="Vector_23" d="M9.4997 15.4978H8.5022V16.5019H9.4997V15.4978Z" fill="#000001"/>
<path id="Vector_24" d="M9.4997 10.4971H10.5038V9.49961H13.5028V10.4971H14.5003V14.5002H15.5044V8.50211H14.5003V7.49805H9.4997V8.50211H8.5022V14.5002H9.4997V10.4971Z" fill="#000001"/>
<path id="Vector_25" d="M9.4997 5.49658H7.5047V6.50064H9.4997V5.49658Z" fill="#000001"/>
<path id="Vector_26" d="M8.5022 20.4985H7.5047V22.5001H8.5022V20.4985Z" fill="#000001"/>
<path id="Vector_27" d="M8.5022 1.5H7.5047V3.50156H8.5022V1.5Z" fill="#000001"/>
<path id="Vector_28" d="M7.50467 6.50073H6.50061V7.49823H7.50467V6.50073Z" fill="#000001"/>
<path id="Vector_29" d="M6.50061 14.5002H5.50311V16.5018H6.50061V14.5002Z" fill="#000001"/>
<path id="Vector_30" d="M6.50061 7.49805H5.50311V9.49961H6.50061V7.49805Z" fill="#000001"/>
<path id="Vector_31" d="M5.50315 18.4968H4.49908V19.5009H5.50315V18.4968Z" fill="#000001"/>
<path id="Vector_32" d="M5.50315 9.49976H4.49908V14.5004H5.50315V9.49976Z" fill="#000001"/>
<path id="Vector_33" d="M5.50315 4.49902H4.49908V5.49652H5.50315V4.49902Z" fill="#000001"/>
<path id="Vector_34" d="M4.49909 19.501H3.50159V20.4985H4.49909V19.501Z" fill="#000001"/>
<path id="Vector_35" d="M4.49909 3.50146H3.50159V4.49896H4.49909V3.50146Z" fill="#000001"/>
<path id="Vector_36" d="M3.50156 15.4978H1.5V16.5019H3.50156V15.4978Z" fill="#000001"/>
<path id="Vector_37" d="M3.50156 11.5012H1.5V12.4987H3.50156V11.5012Z" fill="#000001"/>
<path id="Vector_38" d="M3.50156 7.49805H1.5V8.50211H3.50156V7.49805Z" fill="#000001"/>
</g>
</g>
</svg>
