<svg width="24" height="24" viewBox="0 0 24 24" fill="none" xmlns="http://www.w3.org/2000/svg">
<g id="interface-essential-navigation-menu-3">
<g id="Group">
<path id="Vector" d="M22.0012 4.00024H20.9971V19.9996H22.0012V4.00024Z" fill="#000001"/>
<path id="Vector_2" d="M20.9971 19.9998H19.9996V20.9973H20.9971V19.9998Z" fill="#000001"/>
<path id="Vector_3" d="M20.9971 2.99634H19.9996V4.0004H20.9971V2.99634Z" fill="#000001"/>
<path id="Vector_4" d="M19.9997 20.9973H4.00031V22.0014H19.9997V20.9973Z" fill="#000001"/>
<path id="Vector_5" d="M17.9981 14.999H6.00187V15.9965H4.9978V17.9981H6.00187V17.0006H17.9981V17.9981H19.0022V15.9965H17.9981V14.999Z" fill="#000001"/>
<path id="Vector_6" d="M17.9981 9.99854H6.00187V10.996H4.9978V12.9976H6.00187V12.0001H17.9981V12.9976H19.0022V10.996H17.9981V9.99854Z" fill="#000001"/>
<path id="Vector_7" d="M17.9981 4.9978H6.00187V5.9953H4.9978V7.99687H6.00187V6.99937H17.9981V7.99687H19.0022V5.9953H17.9981V4.9978Z" fill="#000001"/>
<path id="Vector_8" d="M17.9981 17.998H6.00183V18.9955H17.9981V17.998Z" fill="#000001"/>
<path id="Vector_9" d="M17.9981 12.9976H6.00183V13.9951H17.9981V12.9976Z" fill="#000001"/>
<path id="Vector_10" d="M17.9981 7.99683H6.00183V9.00089H17.9981V7.99683Z" fill="#000001"/>
<path id="Vector_11" d="M19.9997 1.99878H4.00031V2.99628H19.9997V1.99878Z" fill="#000001"/>
<path id="Vector_12" d="M4.00031 19.9998H3.00281V20.9973H4.00031V19.9998Z" fill="#000001"/>
<path id="Vector_13" d="M4.00031 2.99634H3.00281V4.0004H4.00031V2.99634Z" fill="#000001"/>
<path id="Vector_14" d="M3.00278 4.00024H1.99872V19.9996H3.00278V4.00024Z" fill="#000001"/>
</g>
</g>
</svg>
