<svg width="24" height="24" viewBox="0 0 24 24" fill="none" xmlns="http://www.w3.org/2000/svg">
<g id="interface-essential-filter">
<g id="Group">
<path id="Vector" d="M21.4992 4.49902H20.5017V9.49965H21.4992V4.49902Z" fill="#000001"/>
<path id="Vector_2" d="M20.5017 9.49976H19.5042V10.4973H20.5017V9.49976Z" fill="#000001"/>
<path id="Vector_3" d="M20.5017 3.50146H19.5042V4.49896H20.5017V3.50146Z" fill="#000001"/>
<path id="Vector_4" d="M19.5042 10.4971H18.5002V11.5011H19.5042V10.4971Z" fill="#000001"/>
<path id="Vector_5" d="M18.5002 11.5012H17.5027V12.4987H18.5002V11.5012Z" fill="#000001"/>
<path id="Vector_6" d="M17.5027 3.50146H6.50391V4.49896H4.50235V6.50053H6.50391V7.49803H8.49891V8.50209H15.5011V7.49803H17.5027V6.50053H19.5042V4.49896H17.5027V3.50146Z" fill="#000001"/>
<path id="Vector_7" d="M19.5042 2.49756H17.5027V3.50162H19.5042V2.49756Z" fill="#000001"/>
<path id="Vector_8" d="M17.5027 12.4988H16.4986V13.5028H17.5027V12.4988Z" fill="#000001"/>
<path id="Vector_9" d="M16.4986 13.5029H15.5011V14.5004H16.4986V13.5029Z" fill="#000001"/>
<path id="Vector_10" d="M15.5011 14.5002H14.5036V15.4977H15.5011V14.5002Z" fill="#000001"/>
<path id="Vector_11" d="M14.5036 15.4978H13.4995V20.4984H14.5036V15.4978Z" fill="#000001"/>
<path id="Vector_12" d="M13.4995 20.4985H12.502V21.5026H13.4995V20.4985Z" fill="#000001"/>
<path id="Vector_13" d="M12.5021 21.5024H10.5005V22.4999H12.5021V21.5024Z" fill="#000001"/>
<path id="Vector_14" d="M10.5005 15.4978H9.50299V21.5025H10.5005V15.4978Z" fill="#000001"/>
<path id="Vector_15" d="M9.50299 14.5002H8.49893V15.4977H9.50299V14.5002Z" fill="#000001"/>
<path id="Vector_16" d="M8.4989 13.5029H7.5014V14.5004H8.4989V13.5029Z" fill="#000001"/>
<path id="Vector_17" d="M17.5027 1.5H6.50391V2.4975H17.5027V1.5Z" fill="#000001"/>
<path id="Vector_18" d="M7.50141 12.4988H6.50391V13.5028H7.50141V12.4988Z" fill="#000001"/>
<path id="Vector_19" d="M6.50391 11.5012H5.49985V12.4987H6.50391V11.5012Z" fill="#000001"/>
<path id="Vector_20" d="M6.50391 2.49756H4.50235V3.50162H6.50391V2.49756Z" fill="#000001"/>
<path id="Vector_21" d="M5.49985 10.4971H4.50235V11.5011H5.49985V10.4971Z" fill="#000001"/>
<path id="Vector_22" d="M4.50235 9.49976H3.50485V10.4973H4.50235V9.49976Z" fill="#000001"/>
<path id="Vector_23" d="M4.50235 3.50146H3.50485V4.49896H4.50235V3.50146Z" fill="#000001"/>
<path id="Vector_24" d="M3.50486 4.49902H2.50079V9.49965H3.50486V4.49902Z" fill="#000001"/>
</g>
</g>
</svg>
