<svg width="24" height="24" viewBox="0 0 24 24" fill="none" xmlns="http://www.w3.org/2000/svg">
<g id="interface-essential-watch-time">
<g id="Group">
<path id="Vector" d="M18.0014 16.5018V13.4962H18.9989V10.4971H18.0014V7.49805H16.9974V16.5018H18.0014Z" fill="#000001"/>
<path id="Vector_2" d="M5.9986 16.502V17.4995H7.99688V22.5001H14.9991V17.4995H16.9941V16.502H5.9986ZM13.9983 21.5026H8.99766V20.4985H13.9983V21.5026ZM13.9983 19.501H8.99766V18.497H13.9983V19.501Z" fill="#000001"/>
<path id="Vector_3" d="M7.9969 8.5022V9.4997H7.00269V14.5003H7.9969V15.4978H14.9991V14.5003H16.0032V9.4997H15.0057V8.5022H7.9969ZM8.9944 10.4972H9.99847V11.5013H8.9944V10.4972ZM13.995 13.4963H12.9975V14.5003H9.99847V13.4963H8.9944V12.4988H9.99847V13.4963H12.9975V12.4988H13.995V13.4963ZM13.995 11.5013H12.9975V10.4972H13.995V11.5013Z" fill="#000001"/>
<path id="Vector_4" d="M7.99688 1.5V6.50062H5.9986V7.49813H16.9973V6.50062H15.0023V1.5H7.99688ZM13.995 5.49656H8.99438V4.49906H13.995V5.49656ZM13.995 3.50156H8.99438V2.4975H13.995V3.50156Z" fill="#000001"/>
<path id="Vector_5" d="M5.9986 7.49805H5.0011V16.5018H5.9986V7.49805Z" fill="#000001"/>
</g>
</g>
</svg>
