<svg width="24" height="24" viewBox="0 0 24 24" fill="none" xmlns="http://www.w3.org/2000/svg">
<g id="interface-essential-stop-sign-1">
<g id="Group">
<path id="Vector" d="M22.5 6.50073H21.5025V17.4995H22.5V6.50073Z" fill="#000001"/>
<path id="Vector_2" d="M21.5025 17.4993H20.4984V18.4968H21.5025V17.4993Z" fill="#000001"/>
<path id="Vector_3" d="M21.5025 5.49658H20.4984V6.50064H21.5025V5.49658Z" fill="#000001"/>
<path id="Vector_4" d="M20.4984 18.4968H19.5009V19.5009H20.4984V18.4968Z" fill="#000001"/>
<path id="Vector_5" d="M20.4984 4.49902H19.5009V5.49652H20.4984V4.49902Z" fill="#000001"/>
<path id="Vector_6" d="M19.5009 19.501H18.5034V20.4985H19.5009V19.501Z" fill="#000001"/>
<path id="Vector_7" d="M19.5009 3.50146H18.5034V4.49896H19.5009V3.50146Z" fill="#000001"/>
<path id="Vector_8" d="M18.5035 20.4985H17.4994V21.5026H18.5035V20.4985Z" fill="#000001"/>
<path id="Vector_9" d="M18.5035 2.49756H17.4994V3.50162H18.5035V2.49756Z" fill="#000001"/>
<path id="Vector_10" d="M17.4994 8.5022H16.5019V17.4994H17.4994V8.5022Z" fill="#000001"/>
<path id="Vector_11" d="M17.4994 21.5024H6.50061V22.4999H17.4994V21.5024Z" fill="#000001"/>
<path id="Vector_12" d="M16.5019 17.4993H15.5044V18.4968H16.5019V17.4993Z" fill="#000001"/>
<path id="Vector_13" d="M14.5003 12.4989H15.5044V8.5023H16.5019V7.49823H15.5044V6.50073H14.5003V12.4989Z" fill="#000001"/>
<path id="Vector_14" d="M15.5044 18.4968H9.49969V19.5009H15.5044V18.4968Z" fill="#000001"/>
<path id="Vector_15" d="M14.5003 15.4978H13.5028V16.5019H14.5003V15.4978Z" fill="#000001"/>
<path id="Vector_16" d="M14.5003 13.4963H13.5028V14.5004H14.5003V13.4963Z" fill="#000001"/>
<path id="Vector_17" d="M12.4988 12.4988H13.5028V6.50064H14.5003V5.49658H12.4988V12.4988Z" fill="#000001"/>
<path id="Vector_18" d="M13.5028 16.502H11.5012V17.4995H13.5028V16.502Z" fill="#000001"/>
<path id="Vector_19" d="M11.5012 15.4978H10.5037V16.5019H11.5012V15.4978Z" fill="#000001"/>
<path id="Vector_20" d="M11.5012 13.4963H10.5037V14.5004H11.5012V13.4963Z" fill="#000001"/>
<path id="Vector_21" d="M10.5038 12.4987H11.5013V5.49652H12.4988V4.49902H10.5038V5.49652H9.49969V6.50059H10.5038V12.4987Z" fill="#000001"/>
<path id="Vector_22" d="M9.4997 17.4993H8.5022V18.4968H9.4997V17.4993Z" fill="#000001"/>
<path id="Vector_23" d="M8.5022 15.4978H7.5047V17.4994H8.5022V15.4978Z" fill="#000001"/>
<path id="Vector_24" d="M8.5022 12.4989V13.4964H9.4997V6.50073H8.5022V11.5014H7.5047V12.4989H8.5022Z" fill="#000001"/>
<path id="Vector_25" d="M17.4994 1.5H6.50061V2.4975H17.4994V1.5Z" fill="#000001"/>
<path id="Vector_26" d="M7.50467 14.5002H6.50061V15.4977H7.50467V14.5002Z" fill="#000001"/>
<path id="Vector_27" d="M7.50468 10.4971H5.50311V11.5011H7.50468V10.4971Z" fill="#000001"/>
<path id="Vector_28" d="M6.50061 20.4985H5.50311V21.5026H6.50061V20.4985Z" fill="#000001"/>
<path id="Vector_29" d="M6.50061 13.4963H5.50311V14.5004H6.50061V13.4963Z" fill="#000001"/>
<path id="Vector_30" d="M6.50061 2.49756H5.50311V3.50162H6.50061V2.49756Z" fill="#000001"/>
<path id="Vector_31" d="M5.50315 19.501H4.49908V20.4985H5.50315V19.501Z" fill="#000001"/>
<path id="Vector_32" d="M5.50315 11.5012H4.49908V13.4962H5.50315V11.5012Z" fill="#000001"/>
<path id="Vector_33" d="M5.50315 3.50146H4.49908V4.49896H5.50315V3.50146Z" fill="#000001"/>
<path id="Vector_34" d="M4.49909 18.4968H3.50159V19.5009H4.49909V18.4968Z" fill="#000001"/>
<path id="Vector_35" d="M4.49909 4.49902H3.50159V5.49652H4.49909V4.49902Z" fill="#000001"/>
<path id="Vector_36" d="M3.50159 17.4993H2.50409V18.4968H3.50159V17.4993Z" fill="#000001"/>
<path id="Vector_37" d="M3.50159 5.49658H2.50409V6.50064H3.50159V5.49658Z" fill="#000001"/>
<path id="Vector_38" d="M2.50406 6.50073H1.5V17.4995H2.50406V6.50073Z" fill="#000001"/>
</g>
</g>
</svg>
