<svg width="24" height="24" viewBox="0 0 24 24" fill="none" xmlns="http://www.w3.org/2000/svg">
<g id="interface-essential-link-broken-1">
<g id="Group">
<path id="Vector" d="M22.5 6.50073H21.5025V13.4964H22.5V6.50073Z" fill="#000001"/>
<path id="Vector_2" d="M21.5025 13.4963H20.4984V14.5004H21.5025V13.4963Z" fill="#000001"/>
<path id="Vector_3" d="M21.5025 5.49658H20.4984V6.50064H21.5025V5.49658Z" fill="#000001"/>
<path id="Vector_4" d="M20.4984 14.5005H14.5003V15.498H20.4984V14.5005Z" fill="#000001"/>
<path id="Vector_5" d="M19.5009 8.5022H18.5034V11.5013H19.5009V8.5022Z" fill="#000001"/>
<path id="Vector_6" d="M18.5034 7.49829H14.5003V8.50235H18.5034V7.49829Z" fill="#000001"/>
<path id="Vector_7" d="M18.5034 11.5012H14.5003V12.4987H18.5034V11.5012Z" fill="#000001"/>
<path id="Vector_8" d="M20.4984 4.49902H14.5003V5.49652H20.4984V4.49902Z" fill="#000001"/>
<path id="Vector_9" d="M14.5003 12.4988H13.5028V14.5003H14.5003V12.4988Z" fill="#000001"/>
<path id="Vector_10" d="M14.5003 5.49658H13.5028V7.49814H14.5003V5.49658Z" fill="#000001"/>
<path id="Vector_11" d="M12.4987 15.4978H11.5012V17.4994H12.4987V15.4978Z" fill="#000001"/>
<path id="Vector_12" d="M11.5012 17.4995H10.5037V18.497H11.5012V17.4995Z" fill="#000001"/>
<path id="Vector_13" d="M11.5013 14.5005H9.49969V15.498H11.5013V14.5005Z" fill="#000001"/>
<path id="Vector_14" d="M11.5012 2.49756H10.5037V5.49662H11.5012V2.49756Z" fill="#000001"/>
<path id="Vector_15" d="M10.5038 18.4968H9.49969V19.5009H10.5038V18.4968Z" fill="#000001"/>
<path id="Vector_16" d="M9.4997 19.501H8.5022V20.4985H9.4997V19.501Z" fill="#000001"/>
<path id="Vector_17" d="M9.4997 15.4978H8.5022V16.5019H9.4997V15.4978Z" fill="#000001"/>
<path id="Vector_18" d="M8.5022 16.502H7.5047V17.4995H8.5022V16.502Z" fill="#000001"/>
<path id="Vector_19" d="M8.5022 11.5012H7.5047V13.4962H8.5022V11.5012Z" fill="#000001"/>
<path id="Vector_20" d="M8.50221 20.4985H4.49908V21.5026H8.50221V20.4985Z" fill="#000001"/>
<path id="Vector_21" d="M7.50467 13.4963H6.50061V14.5004H7.50467V13.4963Z" fill="#000001"/>
<path id="Vector_22" d="M7.50468 10.4973H5.50311V11.5014H7.50468V10.4973Z" fill="#000001"/>
<path id="Vector_23" d="M7.50468 17.4995H5.50311V18.497H7.50468V17.4995Z" fill="#000001"/>
<path id="Vector_24" d="M6.50061 14.5005H5.50311V15.498H6.50061V14.5005Z" fill="#000001"/>
<path id="Vector_25" d="M7.50471 7.49829H4.49908V8.50235H7.50471V7.49829Z" fill="#000001"/>
<path id="Vector_26" d="M4.49908 3.50162H6.50065V5.49662H8.50221V7.49818H9.49971V4.49912H7.50471V2.49756H4.49908V3.50162Z" fill="#000001"/>
<path id="Vector_27" d="M5.50315 15.4978H4.49908V17.4994H5.50315V15.4978Z" fill="#000001"/>
<path id="Vector_28" d="M5.50315 11.5012H4.49908V12.4987H5.50315V11.5012Z" fill="#000001"/>
<path id="Vector_29" d="M4.49909 19.501H3.50159V20.4985H4.49909V19.501Z" fill="#000001"/>
<path id="Vector_30" d="M4.49909 12.4988H3.50159V13.4963H4.49909V12.4988Z" fill="#000001"/>
<path id="Vector_31" d="M3.50159 18.4968H2.50409V19.5009H3.50159V18.4968Z" fill="#000001"/>
<path id="Vector_32" d="M3.50159 13.4963H2.50409V14.5004H3.50159V13.4963Z" fill="#000001"/>
<path id="Vector_33" d="M2.50406 14.5005H1.5V18.4971H2.50406V14.5005Z" fill="#000001"/>
</g>
</g>
</svg>
