<svg width="24" height="24" viewBox="0 0 24 24" fill="none" xmlns="http://www.w3.org/2000/svg">
<g id="interface-essential-skull-2">
<g id="Group">
<path id="Vector" d="M16.9973 6.9994V9.00097H18.0014V6.9994H18.9989V5.99534H19.9964V4.99784H21.9979V2.99628H21.0004V1.99878H18.9989V4.00034H18.0014V4.99784H16.9973V5.99534H15.0023V6.9994H16.9973Z" fill="#000001"/>
<path id="Vector_2" d="M19.9964 10.9958H18.9989V14.999H19.9964V10.9958Z" fill="#000001"/>
<path id="Vector_3" d="M18.9989 14.999H18.0014V15.9965H18.9989V14.999Z" fill="#000001"/>
<path id="Vector_4" d="M18.9989 9.00098H18.0014V10.996H18.9989V9.00098Z" fill="#000001"/>
<path id="Vector_5" d="M16.9973 17.0006H15.9998V19.9997H16.9973V18.9956H18.0014V19.9997H18.9989V22.0013H21.0004V20.9972H21.9979V18.9956H19.9964V17.9981H18.9989V17.0006H18.0014V15.9966H16.9973V17.0006Z" fill="#000001"/>
<path id="Vector_6" d="M13.9983 12.9975H15.9998V12H16.9973V9.99848H15.9998V9.00098H13.9983V9.99848H13.0008V12H13.9983V12.9975Z" fill="#000001"/>
<path id="Vector_7" d="M13.9983 17.998H13.0008V19.9996H10.9992V17.998H10.0017V19.9996H8.00015V20.9971H15.9998V19.9996H13.9983V17.998Z" fill="#000001"/>
<path id="Vector_8" d="M13.0008 13.9951H10.9992V14.9992H13.0008V13.9951Z" fill="#000001"/>
<path id="Vector_9" d="M8.00012 12.9975H10.0017V12H10.9992V9.99848H10.0017V9.00098H8.00012V9.99848H7.00262V12H8.00012V12.9975Z" fill="#000001"/>
<path id="Vector_10" d="M15.0023 4.9978H8.99765V5.9953H15.0023V4.9978Z" fill="#000001"/>
<path id="Vector_11" d="M5.00108 17.0006V17.9981H3.99701V18.9956H2.00201V20.9972H2.99951V22.0013H5.00108V19.9997H5.99858V18.9956H7.00264V19.9997H8.00014V17.0006H7.00264V15.9966H5.99858V17.0006H5.00108Z" fill="#000001"/>
<path id="Vector_12" d="M7.00264 6.9994H8.99764V5.99534H7.00264V4.99784H5.99858V4.00034H5.00108V1.99878H2.99951V2.99628H2.00201V4.99784H3.99701V5.99534H5.00108V6.9994H5.99858V9.00097H7.00264V6.9994Z" fill="#000001"/>
<path id="Vector_13" d="M5.99857 14.999H5.00107V15.9965H5.99857V14.999Z" fill="#000001"/>
<path id="Vector_14" d="M5.99857 9.00098H5.00107V10.996H5.99857V9.00098Z" fill="#000001"/>
<path id="Vector_15" d="M5.00107 10.9958H3.99701V14.999H5.00107V10.9958Z" fill="#000001"/>
</g>
</g>
</svg>
