<svg width="24" height="24" viewBox="0 0 24 24" fill="none" xmlns="http://www.w3.org/2000/svg">
<g id="interface-essential-pencil-edit-2">
<g id="Group">
<path id="Vector" d="M22.5 5.50317H21.4959V8.50224H22.5V5.50317Z" fill="#000001"/>
<path id="Vector_2" d="M21.4959 8.5022H20.4984V9.4997H21.4959V8.5022Z" fill="#000001"/>
<path id="Vector_3" d="M21.4959 4.49902H20.4984V5.50309H21.4959V4.49902Z" fill="#000001"/>
<path id="Vector_4" d="M20.4984 9.49976H19.5009V10.4973H20.4984V9.49976Z" fill="#000001"/>
<path id="Vector_5" d="M20.4984 3.50146H19.5009V4.49896H20.4984V3.50146Z" fill="#000001"/>
<path id="Vector_6" d="M19.501 10.4971H18.4969V11.5011H19.501V10.4971Z" fill="#000001"/>
<path id="Vector_7" d="M19.501 8.5022H18.4969V9.4997H19.501V8.5022Z" fill="#000001"/>
<path id="Vector_8" d="M19.501 2.49756H18.4969V3.50162H19.501V2.49756Z" fill="#000001"/>
<path id="Vector_9" d="M18.4969 11.5012H17.4994V12.4987H18.4969V11.5012Z" fill="#000001"/>
<path id="Vector_10" d="M18.4969 7.49805H17.4994V8.50211H18.4969V7.49805Z" fill="#000001"/>
<path id="Vector_11" d="M17.4994 12.4988H16.4953V13.5028H17.4994V12.4988Z" fill="#000001"/>
<path id="Vector_12" d="M17.4994 8.5022H16.4953V9.4997H17.4994V8.5022Z" fill="#000001"/>
<path id="Vector_13" d="M17.4994 6.50073H16.4953V7.49823H17.4994V6.50073Z" fill="#000001"/>
<path id="Vector_14" d="M18.4969 1.5H15.4978V2.4975H18.4969V1.5Z" fill="#000001"/>
<path id="Vector_15" d="M16.4953 13.5029H15.4978V14.5004H16.4953V13.5029Z" fill="#000001"/>
<path id="Vector_16" d="M16.4953 9.49976H15.4978V10.4973H16.4953V9.49976Z" fill="#000001"/>
<path id="Vector_17" d="M16.4953 5.50317H15.4978V6.50067H16.4953V5.50317Z" fill="#000001"/>
<path id="Vector_18" d="M15.4978 14.5002H14.5003V15.4977H15.4978V14.5002Z" fill="#000001"/>
<path id="Vector_19" d="M15.4978 10.4971H14.5003V11.5011H15.4978V10.4971Z" fill="#000001"/>
<path id="Vector_20" d="M15.4978 6.50073H14.5003V7.49823H15.4978V6.50073Z" fill="#000001"/>
<path id="Vector_21" d="M15.4978 4.49902H14.5003V5.50309H15.4978V4.49902Z" fill="#000001"/>
<path id="Vector_22" d="M15.4978 2.49756H14.5003V3.50162H15.4978V2.49756Z" fill="#000001"/>
<path id="Vector_23" d="M14.5003 15.4978H13.4962V16.5019H14.5003V15.4978Z" fill="#000001"/>
<path id="Vector_24" d="M14.5003 11.5012H13.4962V12.4987H14.5003V11.5012Z" fill="#000001"/>
<path id="Vector_25" d="M14.5003 7.49805H13.4962V8.50211H14.5003V7.49805Z" fill="#000001"/>
<path id="Vector_26" d="M14.5003 3.50146H13.4962V4.49896H14.5003V3.50146Z" fill="#000001"/>
<path id="Vector_27" d="M13.4962 16.502H12.4987V17.4995H13.4962V16.502Z" fill="#000001"/>
<path id="Vector_28" d="M13.4962 12.4988H12.4987V13.5028H13.4962V12.4988Z" fill="#000001"/>
<path id="Vector_29" d="M13.4962 8.5022H12.4987V9.4997H13.4962V8.5022Z" fill="#000001"/>
<path id="Vector_30" d="M13.4962 4.49902H12.4987V5.50309H13.4962V4.49902Z" fill="#000001"/>
<path id="Vector_31" d="M12.4988 17.4993H11.5013V18.4968H12.4988V17.4993Z" fill="#000001"/>
<path id="Vector_32" d="M12.4988 13.5029H11.5013V14.5004H12.4988V13.5029Z" fill="#000001"/>
<path id="Vector_33" d="M12.4988 9.49976H11.5013V10.4973H12.4988V9.49976Z" fill="#000001"/>
<path id="Vector_34" d="M12.4988 5.50317H11.5013V6.50067H12.4988V5.50317Z" fill="#000001"/>
<path id="Vector_35" d="M11.5013 18.4968H10.4972V19.5009H11.5013V18.4968Z" fill="#000001"/>
<path id="Vector_36" d="M11.5013 14.5002H10.4972V15.4977H11.5013V14.5002Z" fill="#000001"/>
<path id="Vector_37" d="M11.5013 10.4971H10.4972V11.5011H11.5013V10.4971Z" fill="#000001"/>
<path id="Vector_38" d="M11.5013 6.50073H10.4972V7.49823H11.5013V6.50073Z" fill="#000001"/>
<path id="Vector_39" d="M10.4972 19.501H9.49969V20.4985H10.4972V19.501Z" fill="#000001"/>
<path id="Vector_40" d="M10.4972 15.4978H9.49969V16.5019H10.4972V15.4978Z" fill="#000001"/>
<path id="Vector_41" d="M10.4972 11.5012H9.49969V12.4987H10.4972V11.5012Z" fill="#000001"/>
<path id="Vector_42" d="M10.4972 7.49805H9.49969V8.50211H10.4972V7.49805Z" fill="#000001"/>
<path id="Vector_43" d="M9.4997 16.502H8.49564V17.4995H9.4997V16.502Z" fill="#000001"/>
<path id="Vector_44" d="M9.4997 12.4988H8.49564V13.5028H9.4997V12.4988Z" fill="#000001"/>
<path id="Vector_45" d="M9.4997 8.5022H8.49564V9.4997H9.4997V8.5022Z" fill="#000001"/>
<path id="Vector_46" d="M8.49562 21.5024H9.49969V20.4984H8.49562V17.4993H6.50062V15.4977H3.50156V14.5002H2.4975V15.4977H1.5V22.4999H8.49562V21.5024ZM7.49813 21.5024H4.49906V20.4984H3.50156V19.5009H2.4975V16.5018H5.49656V18.4968H7.49813V21.5024Z" fill="#000001"/>
<path id="Vector_47" d="M8.49564 13.5029H7.49814V14.5004H8.49564V13.5029Z" fill="#000001"/>
<path id="Vector_48" d="M8.49564 9.49976H7.49814V10.4973H8.49564V9.49976Z" fill="#000001"/>
<path id="Vector_49" d="M7.49811 14.5002H6.50061V15.4977H7.49811V14.5002Z" fill="#000001"/>
<path id="Vector_50" d="M7.49811 10.4971H6.50061V11.5011H7.49811V10.4971Z" fill="#000001"/>
<path id="Vector_51" d="M6.50061 11.5012H5.49655V12.4987H6.50061V11.5012Z" fill="#000001"/>
<path id="Vector_52" d="M5.49655 12.4988H4.49905V13.5028H5.49655V12.4988Z" fill="#000001"/>
<path id="Vector_53" d="M4.49906 13.5029H3.50156V14.5004H4.49906V13.5029Z" fill="#000001"/>
</g>
</g>
</svg>
