<svg width="24" height="24" viewBox="0 0 24 24" fill="none" xmlns="http://www.w3.org/2000/svg">
<g id="interface-essential-message">
<g id="Group">
<path id="Vector" d="M21.998 6.99951H21.0005V14.9992H21.998V6.99951Z" fill="#000001"/>
<path id="Vector_2" d="M21.0005 14.999H20.003V15.9965H21.0005V14.999Z" fill="#000001"/>
<path id="Vector_3" d="M21.0005 6.00195H20.003V6.99945H21.0005V6.00195Z" fill="#000001"/>
<path id="Vector_4" d="M20.003 15.9966H18.999V17.0006H20.003V15.9966Z" fill="#000001"/>
<path id="Vector_5" d="M20.003 4.9978H18.999V6.00187H20.003V4.9978Z" fill="#000001"/>
<path id="Vector_6" d="M18.999 17.0007H18.0015V17.9982H18.999V17.0007Z" fill="#000001"/>
<path id="Vector_7" d="M18.999 4.00024H18.0015V4.99774H18.999V4.00024Z" fill="#000001"/>
<path id="Vector_8" d="M18.0014 17.998H16.9974V18.9955H18.0014V17.998Z" fill="#000001"/>
<path id="Vector_9" d="M18.0014 9.99854H15.9999V12.0001H18.0014V9.99854Z" fill="#000001"/>
<path id="Vector_10" d="M18.0014 2.99634H15.9999V4.0004H18.0014V2.99634Z" fill="#000001"/>
<path id="Vector_11" d="M16.9974 18.9956H15.0024V19.9997H16.9974V18.9956Z" fill="#000001"/>
<path id="Vector_12" d="M15.0024 19.9998H13.0009V20.9973H15.0024V19.9998Z" fill="#000001"/>
<path id="Vector_13" d="M5.99866 20.9973V19.9998H5.00116V20.9973H4.00366V22.0013H13.0008V20.9973H5.99866Z" fill="#000001"/>
<path id="Vector_14" d="M13.0008 9.99854H10.9993V12.0001H13.0008V9.99854Z" fill="#000001"/>
<path id="Vector_15" d="M15.9999 1.99878H8.99768V2.99628H15.9999V1.99878Z" fill="#000001"/>
<path id="Vector_16" d="M8.99769 2.99634H7.00269V4.0004H8.99769V2.99634Z" fill="#000001"/>
<path id="Vector_17" d="M7.00272 18.9955H8.00022V17.998H5.99866V19.9996H7.00272V18.9955Z" fill="#000001"/>
<path id="Vector_18" d="M8.00022 9.99854H5.99866V12.0001H8.00022V9.99854Z" fill="#000001"/>
<path id="Vector_19" d="M7.00272 4.00024H5.00116V4.99774H7.00272V4.00024Z" fill="#000001"/>
<path id="Vector_20" d="M5.99866 17.0007H5.00116V17.9982H5.99866V17.0007Z" fill="#000001"/>
<path id="Vector_21" d="M5.00116 15.9966H4.00366V17.0006H5.00116V15.9966Z" fill="#000001"/>
<path id="Vector_22" d="M5.00116 4.9978H4.00366V6.00187H5.00116V4.9978Z" fill="#000001"/>
<path id="Vector_23" d="M4.00364 14.999H2.99957V15.9965H4.00364V14.999Z" fill="#000001"/>
<path id="Vector_24" d="M4.00364 6.00195H2.99957V6.99945H4.00364V6.00195Z" fill="#000001"/>
<path id="Vector_25" d="M2.99958 6.99951H2.00208V14.9992H2.99958V6.99951Z" fill="#000001"/>
</g>
</g>
</svg>
