<svg width="24" height="24" viewBox="0 0 24 24" fill="none" xmlns="http://www.w3.org/2000/svg">
<g id="interface-essential-pie-chart-poll-report-1">
<g id="Group">
<path id="Vector" d="M21.4959 11.5012H12.4988V2.4975H14.5003V1.5H9.49969V2.4975H11.5013V12.4988H10.4972V13.5028H12.4988V14.5003H13.4963V15.4978H14.5003V16.5019H15.4978V17.4994H16.4953V18.4969H17.4994V19.5009H16.4953V20.4984H18.4969V19.5009H19.5009V18.4969H20.4984V16.5019H21.4959V14.5003H22.5V9.49969H21.4959V11.5012Z" fill="#000001"/>
<path id="Vector_2" d="M21.4959 7.49805H20.4984V9.49961H21.4959V7.49805Z" fill="#000001"/>
<path id="Vector_3" d="M20.4984 5.50317H19.5009V7.49817H20.4984V5.50317Z" fill="#000001"/>
<path id="Vector_4" d="M19.501 9.49976H18.4969V10.4973H19.501V9.49976Z" fill="#000001"/>
<path id="Vector_5" d="M19.501 4.49902H18.4969V5.50309H19.501V4.49902Z" fill="#000001"/>
<path id="Vector_6" d="M18.4969 7.49805H17.4994V8.50211H18.4969V7.49805Z" fill="#000001"/>
<path id="Vector_7" d="M18.4969 3.50146H16.4953V4.49896H18.4969V3.50146Z" fill="#000001"/>
<path id="Vector_8" d="M16.4953 9.49976H15.4978V10.4973H16.4953V9.49976Z" fill="#000001"/>
<path id="Vector_9" d="M16.4953 5.50317H15.4978V6.50067H16.4953V5.50317Z" fill="#000001"/>
<path id="Vector_10" d="M15.4978 19.501H14.5003V21.5025H16.4953V20.4985H15.4978V19.501Z" fill="#000001"/>
<path id="Vector_11" d="M16.4953 2.49756H14.5003V3.50162H16.4953V2.49756Z" fill="#000001"/>
<path id="Vector_12" d="M14.5003 18.4968H13.4963V19.5009H14.5003V18.4968Z" fill="#000001"/>
<path id="Vector_13" d="M14.5003 7.49805H13.4963V8.50211H14.5003V7.49805Z" fill="#000001"/>
<path id="Vector_14" d="M14.5003 4.49902H13.4963V5.50309H14.5003V4.49902Z" fill="#000001"/>
<path id="Vector_15" d="M12.4988 20.4985H11.5013V21.5026H9.49969V22.5001H14.5003V21.5026H12.4988V20.4985Z" fill="#000001"/>
<path id="Vector_16" d="M13.4963 17.4993H12.4988V18.4968H13.4963V17.4993Z" fill="#000001"/>
<path id="Vector_17" d="M12.4987 16.502H11.5012V17.4995H12.4987V16.502Z" fill="#000001"/>
<path id="Vector_18" d="M11.5013 19.501H10.4972V20.4985H11.5013V19.501Z" fill="#000001"/>
<path id="Vector_19" d="M11.5013 15.4978H10.4972V16.5019H11.5013V15.4978Z" fill="#000001"/>
<path id="Vector_20" d="M10.4972 18.4968H9.49969V19.5009H10.4972V18.4968Z" fill="#000001"/>
<path id="Vector_21" d="M9.49967 14.5004H8.49561V15.4979H10.4972V13.5029H9.49967V14.5004Z" fill="#000001"/>
<path id="Vector_22" d="M9.49967 20.4985H7.49811V21.5026H9.49967V20.4985Z" fill="#000001"/>
<path id="Vector_23" d="M9.49967 17.4993H8.49561V18.4968H9.49967V17.4993Z" fill="#000001"/>
<path id="Vector_24" d="M9.49967 2.49756H7.49811V3.50162H9.49967V2.49756Z" fill="#000001"/>
<path id="Vector_25" d="M7.49811 16.5019H6.50061V17.4994H8.49561V15.4978H7.49811V16.5019Z" fill="#000001"/>
<path id="Vector_26" d="M7.49814 19.501H5.49658V20.4985H7.49814V19.501Z" fill="#000001"/>
<path id="Vector_27" d="M7.49814 3.50146H5.49658V4.49896H7.49814V3.50146Z" fill="#000001"/>
<path id="Vector_28" d="M6.50064 17.4993H5.49658V18.4968H6.50064V17.4993Z" fill="#000001"/>
<path id="Vector_29" d="M5.49658 18.4968H4.49908V19.5009H5.49658V18.4968Z" fill="#000001"/>
<path id="Vector_30" d="M5.49658 4.49902H4.49908V5.50309H5.49658V4.49902Z" fill="#000001"/>
<path id="Vector_31" d="M4.49909 16.502H3.50159V18.497H4.49909V16.502Z" fill="#000001"/>
<path id="Vector_32" d="M4.49909 5.50317H3.50159V7.49817H4.49909V5.50317Z" fill="#000001"/>
<path id="Vector_33" d="M3.50156 14.5002H2.4975V16.5018H3.50156V14.5002Z" fill="#000001"/>
<path id="Vector_34" d="M3.50156 7.49805H2.4975V9.49961H3.50156V7.49805Z" fill="#000001"/>
<path id="Vector_35" d="M2.4975 9.49976H1.5V14.5004H2.4975V9.49976Z" fill="#000001"/>
</g>
</g>
</svg>
