<svg width="24" height="24" viewBox="0 0 24 24" fill="none" xmlns="http://www.w3.org/2000/svg">
<g id="interface-essential-wifi-signal">
<g id="Group">
<path id="Vector" d="M21.4992 7.49805H20.5017V9.49961H21.4992V7.49805Z" fill="#000001"/>
<path id="Vector_2" d="M20.5017 5.49658H19.4977V7.49814H20.5017V5.49658Z" fill="#000001"/>
<path id="Vector_3" d="M19.4977 4.49902H18.5002V5.49652H19.4977V4.49902Z" fill="#000001"/>
<path id="Vector_4" d="M13.4996 21.5026V20.4985H12.5021V21.5026H11.498V20.4985H10.5005V21.5026H6.49738V20.4985H5.49988V22.5001H18.5002V20.4985H17.5027V21.5026H13.4996Z" fill="#000001"/>
<path id="Vector_5" d="M18.5002 3.50146H16.4986V4.49896H18.5002V3.50146Z" fill="#000001"/>
<path id="Vector_6" d="M17.5027 7.49805H16.4986V9.49961H17.5027V7.49805Z" fill="#000001"/>
<path id="Vector_7" d="M15.5011 19.5009V20.4984H17.5027V18.4968H16.4986V19.5009H15.5011Z" fill="#000001"/>
<path id="Vector_8" d="M16.4986 16.502H15.5011V18.497H16.4986V16.502Z" fill="#000001"/>
<path id="Vector_9" d="M16.4986 6.50073H15.5011V7.49823H16.4986V6.50073Z" fill="#000001"/>
<path id="Vector_10" d="M16.4986 2.49756H14.4971V3.50162H16.4986V2.49756Z" fill="#000001"/>
<path id="Vector_11" d="M15.5011 18.4968H14.4971V19.5009H15.5011V18.4968Z" fill="#000001"/>
<path id="Vector_12" d="M15.5011 14.5002H14.4971V16.5018H15.5011V14.5002Z" fill="#000001"/>
<path id="Vector_13" d="M14.4971 19.501H13.4996V20.4985H14.4971V19.501Z" fill="#000001"/>
<path id="Vector_14" d="M14.4971 17.4993H13.4996V18.4968H14.4971V17.4993Z" fill="#000001"/>
<path id="Vector_15" d="M14.4971 12.4988H13.4996V14.5003H14.4971V12.4988Z" fill="#000001"/>
<path id="Vector_16" d="M15.5011 5.49658H13.4996V6.50064H15.5011V5.49658Z" fill="#000001"/>
<path id="Vector_17" d="M14.4971 1.5H9.50299V2.4975H14.4971V1.5Z" fill="#000001"/>
<path id="Vector_18" d="M13.4995 16.502H12.502V17.4995H13.4995V16.502Z" fill="#000001"/>
<path id="Vector_19" d="M13.4995 14.5002H12.502V15.4977H13.4995V14.5002Z" fill="#000001"/>
<path id="Vector_20" d="M13.4995 10.4971H12.502V12.4986H13.4995V10.4971Z" fill="#000001"/>
<path id="Vector_21" d="M13.4996 4.49902H10.5005V5.49652H13.4996V4.49902Z" fill="#000001"/>
<path id="Vector_22" d="M12.502 15.4978H11.498V16.5019H12.502V15.4978Z" fill="#000001"/>
<path id="Vector_23" d="M12.502 7.49805H11.498V10.4971H12.502V7.49805Z" fill="#000001"/>
<path id="Vector_24" d="M11.498 16.502H10.5005V17.4995H11.498V16.502Z" fill="#000001"/>
<path id="Vector_25" d="M11.498 14.5002H10.5005V15.4977H11.498V14.5002Z" fill="#000001"/>
<path id="Vector_26" d="M11.498 10.4971H10.5005V12.4986H11.498V10.4971Z" fill="#000001"/>
<path id="Vector_27" d="M10.5005 19.501H9.50299V20.4985H10.5005V19.501Z" fill="#000001"/>
<path id="Vector_28" d="M10.5005 17.4993H9.50299V18.4968H10.5005V17.4993Z" fill="#000001"/>
<path id="Vector_29" d="M10.5005 12.4988H9.50299V14.5003H10.5005V12.4988Z" fill="#000001"/>
<path id="Vector_30" d="M9.50296 18.4968H8.4989V19.5009H9.50296V18.4968Z" fill="#000001"/>
<path id="Vector_31" d="M9.50296 14.5002H8.4989V16.5018H9.50296V14.5002Z" fill="#000001"/>
<path id="Vector_32" d="M10.5005 5.49658H8.4989V6.50064H10.5005V5.49658Z" fill="#000001"/>
<path id="Vector_33" d="M6.49738 20.4984H8.49894V19.5009H7.50144V18.4968H6.49738V20.4984Z" fill="#000001"/>
<path id="Vector_34" d="M8.4989 16.502H7.5014V18.497H8.4989V16.502Z" fill="#000001"/>
<path id="Vector_35" d="M8.4989 6.50073H7.5014V7.49823H8.4989V6.50073Z" fill="#000001"/>
<path id="Vector_36" d="M9.50297 2.49756H7.5014V3.50162H9.50297V2.49756Z" fill="#000001"/>
<path id="Vector_37" d="M7.50144 7.49805H6.49738V9.49961H7.50144V7.49805Z" fill="#000001"/>
<path id="Vector_38" d="M7.50144 3.50146H5.49988V4.49896H7.50144V3.50146Z" fill="#000001"/>
<path id="Vector_39" d="M5.49988 4.49902H4.50238V5.49652H5.49988V4.49902Z" fill="#000001"/>
<path id="Vector_40" d="M4.50235 5.49658H3.49829V7.49814H4.50235V5.49658Z" fill="#000001"/>
<path id="Vector_41" d="M3.49829 7.49805H2.50079V9.49961H3.49829V7.49805Z" fill="#000001"/>
</g>
</g>
</svg>
