<svg width="24" height="24" viewBox="0 0 24 24" fill="none" xmlns="http://www.w3.org/2000/svg">
<g id="interface-essential-pencil-edit-1">
<g id="Group">
<path id="Vector" d="M15.4978 17.4993V18.4968H16.4953V17.4993H17.4994V3.50146H16.4953V5.50303H7.49811V3.50146H6.50061V17.4993H7.49811V18.4968H8.49561V17.4993H15.4978ZM14.5003 6.50053H16.4953V16.5018H14.5003V6.50053ZM10.4972 6.50053H13.4962V16.5018H10.4972V6.50053ZM7.49811 16.5018V6.50053H9.49967V16.5018H7.49811Z" fill="#000001"/>
<path id="Vector_2" d="M16.4953 2.49756H15.4978V3.50162H16.4953V2.49756Z" fill="#000001"/>
<path id="Vector_3" d="M15.4978 18.4968H14.5003V19.5009H15.4978V18.4968Z" fill="#000001"/>
<path id="Vector_4" d="M12.4987 22.5V21.5025H13.4962V20.4985H14.5003V19.501H9.49966V20.4985H10.4972V21.5025H11.5012V22.5H12.4987Z" fill="#000001"/>
<path id="Vector_5" d="M15.4978 1.5H8.49561V2.4975H15.4978V1.5Z" fill="#000001"/>
<path id="Vector_6" d="M9.49967 18.4968H8.49561V19.5009H9.49967V18.4968Z" fill="#000001"/>
<path id="Vector_7" d="M8.49561 2.49756H7.49811V3.50162H8.49561V2.49756Z" fill="#000001"/>
</g>
</g>
</svg>
