<svg width="24" height="24" viewBox="0 0 24 24" fill="none" xmlns="http://www.w3.org/2000/svg">
<g id="interface-essential-heart-favorite">
<g id="Group">
<path id="Vector" d="M22.5 6.99927H21.4959V11.9999H22.5V6.99927Z" fill="#000001"/>
<path id="Vector_2" d="M21.4959 12H20.4984V14.0016H21.4959V12Z" fill="#000001"/>
<path id="Vector_3" d="M21.4959 6.00171H20.4984V6.99921H21.4959V6.00171Z" fill="#000001"/>
<path id="Vector_4" d="M20.4984 14.0015H19.5009V14.999H20.4984V14.0015Z" fill="#000001"/>
<path id="Vector_5" d="M20.4984 7.99683H19.5009V9.99839H20.4984V7.99683Z" fill="#000001"/>
<path id="Vector_6" d="M20.4984 4.9978H19.5009V6.00187H20.4984V4.9978Z" fill="#000001"/>
<path id="Vector_7" d="M19.501 6.99927H18.4969V7.99677H19.501V6.99927Z" fill="#000001"/>
<path id="Vector_8" d="M19.501 14.999H17.4994V15.9965H19.501V14.999Z" fill="#000001"/>
<path id="Vector_9" d="M18.4969 6.00171H16.4953V6.99921H18.4969V6.00171Z" fill="#000001"/>
<path id="Vector_10" d="M17.4994 15.9966H15.4978V17.0006H17.4994V15.9966Z" fill="#000001"/>
<path id="Vector_11" d="M19.5009 4.00024H14.5003V4.99774H19.5009V4.00024Z" fill="#000001"/>
<path id="Vector_12" d="M15.4978 17.0005H13.4962V17.998H15.4978V17.0005Z" fill="#000001"/>
<path id="Vector_13" d="M14.5003 4.9978H13.4962V6.00187H14.5003V4.9978Z" fill="#000001"/>
<path id="Vector_14" d="M13.4962 17.998H12.4987V18.9955H13.4962V17.998Z" fill="#000001"/>
<path id="Vector_15" d="M13.4962 6.00171H12.4987V6.99921H13.4962V6.00171Z" fill="#000001"/>
<path id="Vector_16" d="M12.4988 18.9956H11.5013V19.9997H12.4988V18.9956Z" fill="#000001"/>
<path id="Vector_17" d="M12.4988 6.99927H11.5013V7.99677H12.4988V6.99927Z" fill="#000001"/>
<path id="Vector_18" d="M11.5013 17.998H10.4972V18.9955H11.5013V17.998Z" fill="#000001"/>
<path id="Vector_19" d="M11.5013 6.00171H10.4972V6.99921H11.5013V6.00171Z" fill="#000001"/>
<path id="Vector_20" d="M10.4972 17.0005H8.49564V17.998H10.4972V17.0005Z" fill="#000001"/>
<path id="Vector_21" d="M10.4972 4.9978H9.49969V6.00187H10.4972V4.9978Z" fill="#000001"/>
<path id="Vector_22" d="M8.49561 15.9966H6.50061V17.0006H8.49561V15.9966Z" fill="#000001"/>
<path id="Vector_23" d="M6.50062 14.999H4.49905V15.9965H6.50062V14.999Z" fill="#000001"/>
<path id="Vector_24" d="M9.49968 4.00024H4.49905V4.99774H9.49968V4.00024Z" fill="#000001"/>
<path id="Vector_25" d="M4.49906 14.0015H3.50156V14.999H4.49906V14.0015Z" fill="#000001"/>
<path id="Vector_26" d="M4.49906 4.9978H3.50156V6.00187H4.49906V4.9978Z" fill="#000001"/>
<path id="Vector_27" d="M3.50156 12H2.4975V14.0016H3.50156V12Z" fill="#000001"/>
<path id="Vector_28" d="M3.50156 6.00171H2.4975V6.99921H3.50156V6.00171Z" fill="#000001"/>
<path id="Vector_29" d="M2.4975 6.99927H1.5V11.9999H2.4975V6.99927Z" fill="#000001"/>
</g>
</g>
</svg>
