<svg width="24" height="24" viewBox="0 0 24 24" fill="none" xmlns="http://www.w3.org/2000/svg">
<g id="interface-essential-face-id">
<g id="Group">
<path id="Vector" d="M22.5 17.0007H21.4959V19.9998H22.5V17.0007Z" fill="#000001"/>
<path id="Vector_2" d="M22.5 9.99854H21.4959V14.0017H22.5V9.99854Z" fill="#000001"/>
<path id="Vector_3" d="M22.5 4.00024H21.4959V6.99931H22.5V4.00024Z" fill="#000001"/>
<path id="Vector_4" d="M21.4959 19.9998H20.4984V20.9973H21.4959V19.9998Z" fill="#000001"/>
<path id="Vector_5" d="M21.4959 2.99634H20.4984V4.0004H21.4959V2.99634Z" fill="#000001"/>
<path id="Vector_6" d="M20.4985 1.99878H17.4994V2.99628H20.4985V1.99878Z" fill="#000001"/>
<path id="Vector_7" d="M20.4985 20.9973H17.4994V22.0014H20.4985V20.9973Z" fill="#000001"/>
<path id="Vector_8" d="M16.4953 14.999H15.4978V15.9965H16.4953V14.999Z" fill="#000001"/>
<path id="Vector_9" d="M16.4953 6.99951H15.4978V9.00107H16.4953V6.99951Z" fill="#000001"/>
<path id="Vector_10" d="M15.4978 15.9966H14.5003V17.0006H15.4978V15.9966Z" fill="#000001"/>
<path id="Vector_11" d="M14.5003 12H13.4963V12.9975H14.5003V12Z" fill="#000001"/>
<path id="Vector_12" d="M14.5003 20.9973H9.49969V22.0014H14.5003V20.9973Z" fill="#000001"/>
<path id="Vector_13" d="M14.5003 17.0007H9.49969V17.9982H14.5003V17.0007Z" fill="#000001"/>
<path id="Vector_14" d="M13.4963 10.9958H12.4988V11.9999H13.4963V10.9958Z" fill="#000001"/>
<path id="Vector_15" d="M13.4962 12.9976H11.5012V14.0016H13.4962V12.9976Z" fill="#000001"/>
<path id="Vector_16" d="M12.4987 7.99683H11.5012V10.9959H12.4987V7.99683Z" fill="#000001"/>
<path id="Vector_17" d="M14.5003 1.99878H9.49969V2.99628H14.5003V1.99878Z" fill="#000001"/>
<path id="Vector_18" d="M9.49967 15.9966H8.49561V17.0006H9.49967V15.9966Z" fill="#000001"/>
<path id="Vector_19" d="M8.49561 14.999H7.49811V15.9965H8.49561V14.999Z" fill="#000001"/>
<path id="Vector_20" d="M8.49561 6.99951H7.49811V9.00107H8.49561V6.99951Z" fill="#000001"/>
<path id="Vector_21" d="M6.50065 20.9973H3.50159V22.0014H6.50065V20.9973Z" fill="#000001"/>
<path id="Vector_22" d="M6.50065 1.99878H3.50159V2.99628H6.50065V1.99878Z" fill="#000001"/>
<path id="Vector_23" d="M3.50156 19.9998H2.4975V20.9973H3.50156V19.9998Z" fill="#000001"/>
<path id="Vector_24" d="M3.50156 2.99634H2.4975V4.0004H3.50156V2.99634Z" fill="#000001"/>
<path id="Vector_25" d="M2.4975 17.0007H1.5V19.9998H2.4975V17.0007Z" fill="#000001"/>
<path id="Vector_26" d="M2.4975 9.99854H1.5V14.0017H2.4975V9.99854Z" fill="#000001"/>
<path id="Vector_27" d="M2.4975 4.00024H1.5V6.99931H2.4975V4.00024Z" fill="#000001"/>
</g>
</g>
</svg>
