<svg width="24" height="24" viewBox="0 0 24 24" fill="none" xmlns="http://www.w3.org/2000/svg">
<g id="interface-essential-eraser">
<g id="Group">
<path id="Vector" d="M22.5 21.0037H21.4959V22.0012H22.5V21.0037Z" fill="#000001"/>
<path id="Vector_2" d="M20.4984 19.0022H19.4944V19.9997H20.4984V19.0022Z" fill="#000001"/>
<path id="Vector_3" d="M20.4984 9.00098H19.4944V11.0025H20.4984V9.00098Z" fill="#000001"/>
<path id="Vector_4" d="M19.4944 11.0024H18.4969V11.9999H19.4944V11.0024Z" fill="#000001"/>
<path id="Vector_5" d="M19.4944 8.00342H18.4969V9.00092H19.4944V8.00342Z" fill="#000001"/>
<path id="Vector_6" d="M18.4969 21.0037H17.4994V22.0012H18.4969V21.0037Z" fill="#000001"/>
<path id="Vector_7" d="M18.4969 12H17.4994V13.0041H18.4969V12Z" fill="#000001"/>
<path id="Vector_8" d="M18.4969 6.99951H17.4994V8.00357H18.4969V6.99951Z" fill="#000001"/>
<path id="Vector_9" d="M17.4994 19.0022H16.4953V19.9997H17.4994V19.0022Z" fill="#000001"/>
<path id="Vector_10" d="M17.4994 13.0042H16.4953V14.0016H17.4994V13.0042Z" fill="#000001"/>
<path id="Vector_11" d="M17.4994 6.00195H16.4953V6.99945H17.4994V6.00195Z" fill="#000001"/>
<path id="Vector_12" d="M16.4953 14.0017H15.4978V14.9992H16.4953V14.0017Z" fill="#000001"/>
<path id="Vector_13" d="M16.4953 4.9978H15.4978V6.00187H16.4953V4.9978Z" fill="#000001"/>
<path id="Vector_14" d="M15.4978 19.9998H14.4938V21.0038H15.4978V19.9998Z" fill="#000001"/>
<path id="Vector_15" d="M15.4978 14.999H14.4938V16.0031H15.4978V14.999Z" fill="#000001"/>
<path id="Vector_16" d="M15.4978 4.00024H14.4938V4.99774H15.4978V4.00024Z" fill="#000001"/>
<path id="Vector_17" d="M14.4938 16.0032H13.4963V17.0007H14.4938V16.0032Z" fill="#000001"/>
<path id="Vector_18" d="M14.4938 9.00098H13.4963V9.99848H14.4938V9.00098Z" fill="#000001"/>
<path id="Vector_19" d="M14.4938 3.00293H13.4963V4.00043H14.4938V3.00293Z" fill="#000001"/>
<path id="Vector_20" d="M13.4963 17.0007H12.4988V17.9982H13.4963V17.0007Z" fill="#000001"/>
<path id="Vector_21" d="M13.4963 1.99878H11.4947V3.00284H13.4963V1.99878Z" fill="#000001"/>
<path id="Vector_22" d="M12.4988 17.998H11.4947V19.0021H12.4988V17.998Z" fill="#000001"/>
<path id="Vector_23" d="M13.4963 11.0024H11.4947V11.9999H13.4963V11.0024Z" fill="#000001"/>
<path id="Vector_24" d="M12.4988 6.99951H11.4947V8.00357H12.4988V6.99951Z" fill="#000001"/>
<path id="Vector_25" d="M11.4947 17.0007H10.4972V17.9982H11.4947V17.0007Z" fill="#000001"/>
<path id="Vector_26" d="M11.4947 9.99854H10.4972V11.0026H11.4947V9.99854Z" fill="#000001"/>
<path id="Vector_27" d="M11.4947 3.00293H10.4972V4.00043H11.4947V3.00293Z" fill="#000001"/>
<path id="Vector_28" d="M10.4972 17.998H9.49969V19.0021H10.4972V17.998Z" fill="#000001"/>
<path id="Vector_29" d="M10.4972 16.0032H9.49969V17.0007H10.4972V16.0032Z" fill="#000001"/>
<path id="Vector_30" d="M10.4972 8.00342H9.49969V9.99842H10.4972V8.00342Z" fill="#000001"/>
<path id="Vector_31" d="M10.4972 4.00024H9.49969V4.99774H10.4972V4.00024Z" fill="#000001"/>
<path id="Vector_32" d="M9.49967 14.999H8.49561V16.0031H9.49967V14.999Z" fill="#000001"/>
<path id="Vector_33" d="M9.49967 4.9978H8.49561V6.00187H9.49967V4.9978Z" fill="#000001"/>
<path id="Vector_34" d="M5.49656 21.0038H6.49406V22.0013H13.4963V21.0038H11.4947V19.9997H9.49969V19.0022H5.49656V19.9997H2.4975V21.0038H1.5V22.0013H5.49656V21.0038Z" fill="#000001"/>
<path id="Vector_35" d="M8.49561 14.0017H7.49811V14.9992H8.49561V14.0017Z" fill="#000001"/>
<path id="Vector_36" d="M8.49561 6.00195H7.49811V6.99945H8.49561V6.00195Z" fill="#000001"/>
<path id="Vector_37" d="M7.49814 13.0042H6.49408V14.0016H7.49814V13.0042Z" fill="#000001"/>
<path id="Vector_38" d="M7.49814 6.99951H6.49408V8.00357H7.49814V6.99951Z" fill="#000001"/>
<path id="Vector_39" d="M6.49408 12H5.49658V13.0041H6.49408V12Z" fill="#000001"/>
<path id="Vector_40" d="M6.49408 8.00342H5.49658V9.00092H6.49408V8.00342Z" fill="#000001"/>
<path id="Vector_41" d="M5.49658 17.998H4.49908V19.0021H5.49658V17.998Z" fill="#000001"/>
<path id="Vector_42" d="M5.49658 11.0024H4.49908V11.9999H5.49658V11.0024Z" fill="#000001"/>
<path id="Vector_43" d="M5.49658 9.00098H4.49908V9.99848H5.49658V9.00098Z" fill="#000001"/>
<path id="Vector_44" d="M4.49906 17.0007H3.495V17.9982H4.49906V17.0007Z" fill="#000001"/>
<path id="Vector_45" d="M4.49906 12H3.495V13.0041H4.49906V12Z" fill="#000001"/>
<path id="Vector_46" d="M4.49906 9.99854H3.495V11.0026H4.49906V9.99854Z" fill="#000001"/>
<path id="Vector_47" d="M3.495 16.0032H2.4975V17.0007H3.495V16.0032Z" fill="#000001"/>
<path id="Vector_48" d="M3.495 13.0042H2.4975V14.0016H3.495V13.0042Z" fill="#000001"/>
<path id="Vector_49" d="M2.4975 14.0017H1.5V16.0033H2.4975V14.0017Z" fill="#000001"/>
</g>
</g>
</svg>
