<svg width="24" height="24" viewBox="0 0 24 24" fill="none" xmlns="http://www.w3.org/2000/svg">
<g id="interface-essential-touch-id-lock">
<g id="Group">
<path id="Vector" d="M21.4992 19.501H20.5017V21.5025H21.4992V19.501Z" fill="#000001"/>
<path id="Vector_2" d="M21.4992 12.5054H20.5017V14.5004H21.4992V12.5054Z" fill="#000001"/>
<path id="Vector_3" d="M20.5017 11.5012H18.5002V12.5053H20.5017V11.5012Z" fill="#000001"/>
<path id="Vector_4" d="M20.5017 21.5024H18.5002V22.4999H20.5017V21.5024Z" fill="#000001"/>
<path id="Vector_5" d="M19.5042 15.5044H18.5002V19.501H19.5042V15.5044Z" fill="#000001"/>
<path id="Vector_6" d="M18.5002 14.5002H17.5027V15.5043H18.5002V14.5002Z" fill="#000001"/>
<path id="Vector_7" d="M17.5027 16.502H16.4986V20.5051H17.5027V16.502Z" fill="#000001"/>
<path id="Vector_8" d="M17.5027 13.5029H14.5036V14.5004H17.5027V13.5029Z" fill="#000001"/>
<path id="Vector_9" d="M16.4986 15.5044H15.5011V16.5019H16.4986V15.5044Z" fill="#000001"/>
<path id="Vector_10" d="M16.4986 20.5049H14.5036V21.5024H16.4986V20.5049Z" fill="#000001"/>
<path id="Vector_11" d="M15.5011 16.502H14.5036V18.5035H15.5011V16.502Z" fill="#000001"/>
<path id="Vector_12" d="M14.5036 19.501H13.4996V20.505H14.5036V19.501Z" fill="#000001"/>
<path id="Vector_13" d="M14.5036 14.5002H13.4996V15.5043H14.5036V14.5002Z" fill="#000001"/>
<path id="Vector_14" d="M14.5036 2.50415H13.4996V3.50165H14.5036V2.50415Z" fill="#000001"/>
<path id="Vector_15" d="M13.4995 15.5044H12.502V19.501H13.4995V15.5044Z" fill="#000001"/>
<path id="Vector_16" d="M13.4995 21.5024H11.5045V22.4999H13.4995V21.5024Z" fill="#000001"/>
<path id="Vector_17" d="M13.4995 11.5012H11.5045V12.5053H13.4995V11.5012Z" fill="#000001"/>
<path id="Vector_18" d="M11.5046 19.501H10.5005V21.5025H11.5046V19.501Z" fill="#000001"/>
<path id="Vector_19" d="M11.5046 12.5054H10.5005V14.5004H11.5046V12.5054Z" fill="#000001"/>
<path id="Vector_20" d="M16.4986 10.5037V9.50615H15.5011V3.50146H14.5036V9.50615H5.49988V3.50146H4.50238V9.50615H3.50488V10.5037H16.4986Z" fill="#000001"/>
<path id="Vector_21" d="M9.50297 14.5004V12.5054H7.50141V13.5029H6.50391V15.5044H7.50141V16.5019H8.49891V19.501H9.50297V15.5044H8.49891V14.5004H9.50297Z" fill="#000001"/>
<path id="Vector_22" d="M13.4995 1.5H6.50391V2.50406H13.4995V1.5Z" fill="#000001"/>
<path id="Vector_23" d="M6.50394 2.50415H5.49988V3.50165H6.50394V2.50415Z" fill="#000001"/>
<path id="Vector_24" d="M9.50301 21.5024H4.50238V22.4999H9.50301V21.5024Z" fill="#000001"/>
<path id="Vector_25" d="M4.50238 20.5049H3.50488V21.5024H4.50238V20.5049Z" fill="#000001"/>
<path id="Vector_26" d="M3.50486 10.5037H2.50079V20.5049H3.50486V10.5037Z" fill="#000001"/>
</g>
</g>
</svg>
