<svg width="24" height="24" viewBox="0 0 24 24" fill="none" xmlns="http://www.w3.org/2000/svg">
<g id="interface-essential-stopwatch">
<g id="Group">
<path id="Vector" d="M18.5035 9.00099H20.4985V6.99942H19.501V5.99536H17.4994V7.99692H18.5035V9.00099Z" fill="#000001"/>
<path id="Vector_2" d="M19.501 10.9958H18.5035V17.998H19.501V10.9958Z" fill="#000001"/>
<path id="Vector_3" d="M18.5035 17.998H17.4994V19.9996H18.5035V17.998Z" fill="#000001"/>
<path id="Vector_4" d="M18.5035 9.00098H17.4994V10.996H18.5035V9.00098Z" fill="#000001"/>
<path id="Vector_5" d="M17.4994 15.9966H16.5019V17.0006H17.4994V15.9966Z" fill="#000001"/>
<path id="Vector_6" d="M17.4994 13.9951H16.5019V14.9992H17.4994V13.9951Z" fill="#000001"/>
<path id="Vector_7" d="M17.4994 12H16.5019V12.9975H17.4994V12Z" fill="#000001"/>
<path id="Vector_8" d="M17.4994 19.9998H15.5044V20.9973H17.4994V19.9998Z" fill="#000001"/>
<path id="Vector_9" d="M16.5019 17.998H15.5044V18.9955H16.5019V17.998Z" fill="#000001"/>
<path id="Vector_10" d="M16.5019 9.99854H15.5044V10.996H16.5019V9.99854Z" fill="#000001"/>
<path id="Vector_11" d="M17.4994 7.99683H15.5044V9.00089H17.4994V7.99683Z" fill="#000001"/>
<path id="Vector_12" d="M16.5019 2.99634H15.5044V4.9979H16.5019V2.99634Z" fill="#000001"/>
<path id="Vector_13" d="M10.5038 14.9991H11.5013V15.9966H12.4988V14.9991H15.5044V13.995H12.4988V12H11.5013V13.995H10.5038V14.9991Z" fill="#000001"/>
<path id="Vector_14" d="M15.5044 20.9973H8.5022V22.0014H15.5044V20.9973Z" fill="#000001"/>
<path id="Vector_15" d="M14.5003 18.9956H13.5028V19.9997H14.5003V18.9956Z" fill="#000001"/>
<path id="Vector_16" d="M14.5003 9.00098H13.5028V9.99848H14.5003V9.00098Z" fill="#000001"/>
<path id="Vector_17" d="M12.4988 18.9956H11.5013V19.9997H12.4988V18.9956Z" fill="#000001"/>
<path id="Vector_18" d="M12.4988 9.00098H11.5013V9.99848H12.4988V9.00098Z" fill="#000001"/>
<path id="Vector_19" d="M10.5038 18.9956H9.49969V19.9997H10.5038V18.9956Z" fill="#000001"/>
<path id="Vector_20" d="M10.5038 9.00098H9.49969V9.99848H10.5038V9.00098Z" fill="#000001"/>
<path id="Vector_21" d="M15.5044 7.9969V6.9994H13.5028V5.99534H15.5044V4.99784H14.5003V2.99628H15.5044V1.99878H8.5022V2.99628H9.4997V4.99784H8.5022V5.99534H10.5038V6.9994H8.5022V7.9969H15.5044ZM12.4988 2.99628H13.5028V4.99784H12.4988V2.99628ZM12.4988 6.9994H11.5013V5.99534H12.4988V6.9994ZM10.5038 2.99628H11.5013V4.99784H10.5038V2.99628Z" fill="#000001"/>
<path id="Vector_22" d="M8.50223 19.9998H6.50067V20.9973H8.50223V19.9998Z" fill="#000001"/>
<path id="Vector_23" d="M8.5022 17.998H7.5047V18.9955H8.5022V17.998Z" fill="#000001"/>
<path id="Vector_24" d="M8.5022 9.99854H7.5047V10.996H8.5022V9.99854Z" fill="#000001"/>
<path id="Vector_25" d="M8.5022 2.99634H7.5047V4.9979H8.5022V2.99634Z" fill="#000001"/>
<path id="Vector_26" d="M7.50473 15.9966H6.50067V17.0006H7.50473V15.9966Z" fill="#000001"/>
<path id="Vector_27" d="M7.50473 13.9951H6.50067V14.9992H7.50473V13.9951Z" fill="#000001"/>
<path id="Vector_28" d="M7.50473 12H6.50067V12.9975H7.50473V12Z" fill="#000001"/>
<path id="Vector_29" d="M8.50223 7.99683H6.50067V9.00089H8.50223V7.99683Z" fill="#000001"/>
<path id="Vector_30" d="M6.50067 17.998H5.50317V19.9996H6.50067V17.998Z" fill="#000001"/>
<path id="Vector_31" d="M6.50067 9.00098H5.50317V10.996H6.50067V9.00098Z" fill="#000001"/>
<path id="Vector_32" d="M4.49909 5.99536V6.99942H3.50159V9.00099H5.50315V7.99692H6.50065V5.99536H4.49909Z" fill="#000001"/>
<path id="Vector_33" d="M5.50315 10.9958H4.49908V17.998H5.50315V10.9958Z" fill="#000001"/>
</g>
</g>
</svg>
