<svg width="24" height="24" viewBox="0 0 24 24" fill="none" xmlns="http://www.w3.org/2000/svg">
<g id="interface-essential-lock">
<g id="Group">
<path id="Vector" d="M19.4977 10.4971H18.5002V20.4983H19.4977V10.4971Z" fill="#000001"/>
<path id="Vector_2" d="M18.5002 20.4985H17.4961V21.5026H18.5002V20.4985Z" fill="#000001"/>
<path id="Vector_3" d="M17.4961 21.5024H6.49734V22.4999H17.4961V21.5024Z" fill="#000001"/>
<path id="Vector_4" d="M16.4986 2.49756H15.5011V3.50162H16.4986V2.49756Z" fill="#000001"/>
<path id="Vector_5" d="M13.4995 14.5003H12.502V13.5028H13.4995V12.4988H10.5005V13.5028H9.4964V15.4978H10.5005V16.5019H11.498V19.501H12.502V16.5019H13.4995V15.4978H14.497V13.5028H13.4995V14.5003Z" fill="#000001"/>
<path id="Vector_6" d="M15.5011 1.5H8.4989V2.4975H15.5011V1.5Z" fill="#000001"/>
<path id="Vector_7" d="M8.4989 2.49756H7.5014V3.50162H8.4989V2.49756Z" fill="#000001"/>
<path id="Vector_8" d="M18.5002 10.4971V9.49959H17.4961V3.50146H16.4986V9.49959H7.50141V3.50146H6.49735V9.49959H5.49985V10.4971H18.5002Z" fill="#000001"/>
<path id="Vector_9" d="M6.49735 20.4985H5.49985V21.5026H6.49735V20.4985Z" fill="#000001"/>
<path id="Vector_10" d="M5.49985 10.4971H4.50235V20.4983H5.49985V10.4971Z" fill="#000001"/>
</g>
</g>
</svg>
