<svg width="24" height="24" viewBox="0 0 24 24" fill="none" xmlns="http://www.w3.org/2000/svg">
<g id="interface-essential-wifi-feed">
<g id="Group">
<path id="Vector" d="M20.5018 11.4979H19.5043V9.49636H18.5002V8.49886H17.5027V7.50136H16.4986V6.49729H15.5011V5.49979H14.5036V4.50229H12.5021V3.49823H9.50301V2.50073H3.50488V4.50229H9.50301V5.49979H12.5021V6.49729H14.5036V7.50136H15.5011V8.49886H16.4986V9.49636H17.5027V11.4979H18.5002V14.497H19.5043V20.5017H21.4993V14.497H20.5018V11.4979Z" fill="#000001"/>
<path id="Vector_2" d="M3.50488 6.49731V8.49888H8.49895V9.49638H10.5005V10.5004H12.5021V11.4979H13.4996V13.4995H14.5036V15.5011H15.5011V20.5017H17.5027V15.5011H16.4986V13.4995H15.5011V11.4979H14.5036V10.5004H13.4996V9.49638H12.5021V8.49888H10.5005V7.50138H8.49895V6.49731H3.50488Z" fill="#000001"/>
<path id="Vector_3" d="M3.50488 12.5021H7.50145V13.4996H9.50301V14.4971H10.5005V16.4986H11.5046V20.5017H13.4996V16.4986H12.5021V14.4971H11.5046V13.4996H10.5005V12.5021H9.50301V11.498H7.50145V10.5005H3.50488V12.5021Z" fill="#000001"/>
<path id="Vector_4" d="M3.50486 17.496H2.50079V20.5017H3.50486V21.4992H6.50392V20.5017H7.50142V17.496H6.50392V16.4985H3.50486V17.496Z" fill="#000001"/>
</g>
</g>
</svg>
