<svg width="24" height="24" viewBox="0 0 24 24" fill="none" xmlns="http://www.w3.org/2000/svg">
<g id="interface-essential-light-bulb">
<g id="Group">
<path id="Vector" d="M20.4985 5.50317H19.501V13.5029H20.4985V5.50317Z" fill="#000001"/>
<path id="Vector_2" d="M19.501 13.5029H18.4969V14.5004H19.501V13.5029Z" fill="#000001"/>
<path id="Vector_3" d="M19.501 4.49902H18.4969V5.50309H19.501V4.49902Z" fill="#000001"/>
<path id="Vector_4" d="M18.4969 14.5002H17.4994V15.4977H18.4969V14.5002Z" fill="#000001"/>
<path id="Vector_5" d="M18.4969 3.50146H17.4994V4.49896H18.4969V3.50146Z" fill="#000001"/>
<path id="Vector_6" d="M17.4994 15.4978H16.4954V16.5019H17.4994V15.4978Z" fill="#000001"/>
<path id="Vector_7" d="M17.4994 2.49756H16.4954V3.50162H17.4994V2.49756Z" fill="#000001"/>
<path id="Vector_8" d="M13.4963 16.5019V12.4988H12.4988V16.5019H11.5013V12.4988H10.4972V16.5019H7.49817V17.4994H8.49567V21.5025H9.49973V20.4985H14.5004V21.5025H15.4979V17.4994H16.4954V16.5019H13.4963ZM14.5004 18.4969H9.49973V17.4994H14.5004V18.4969Z" fill="#000001"/>
<path id="Vector_9" d="M15.4979 8.5022H14.5004V10.4972H15.4979V8.5022Z" fill="#000001"/>
<path id="Vector_10" d="M14.5003 10.4971H13.4963V12.4986H14.5003V10.4971Z" fill="#000001"/>
<path id="Vector_11" d="M14.5003 21.5024H9.49969V22.4999H14.5003V21.5024Z" fill="#000001"/>
<path id="Vector_12" d="M10.4972 10.4971H9.49969V12.4986H10.4972V10.4971Z" fill="#000001"/>
<path id="Vector_13" d="M9.49973 8.5022H8.49567V10.4972H9.49973V8.5022Z" fill="#000001"/>
<path id="Vector_14" d="M16.4954 1.5H7.49817V2.4975H16.4954V1.5Z" fill="#000001"/>
<path id="Vector_15" d="M7.49817 15.4978H6.50067V16.5019H7.49817V15.4978Z" fill="#000001"/>
<path id="Vector_16" d="M7.49817 2.49756H6.50067V3.50162H7.49817V2.49756Z" fill="#000001"/>
<path id="Vector_17" d="M6.50064 14.5002H5.49658V15.4977H6.50064V14.5002Z" fill="#000001"/>
<path id="Vector_18" d="M6.50064 3.50146H5.49658V4.49896H6.50064V3.50146Z" fill="#000001"/>
<path id="Vector_19" d="M5.49658 13.5029H4.49908V14.5004H5.49658V13.5029Z" fill="#000001"/>
<path id="Vector_20" d="M5.49658 4.49902H4.49908V5.50309H5.49658V4.49902Z" fill="#000001"/>
<path id="Vector_21" d="M4.49909 5.50317H3.50159V13.5029H4.49909V5.50317Z" fill="#000001"/>
</g>
</g>
</svg>
