<svg width="24" height="24" viewBox="0 0 24 24" fill="none" xmlns="http://www.w3.org/2000/svg">
<g id="interface-essential-loading-circle-2">
<g id="Group">
<path id="Vector" d="M21.496 12.4988H19.4944V10.4973H21.496V9.49976H18.4969V10.4973H17.4994V13.5029H18.4969V14.5004H21.496V13.5029H22.5V10.4973H21.496V12.4988Z" fill="#000001"/>
<path id="Vector_2" d="M20.4984 16.502H19.4944V19.501H20.4984V16.502Z" fill="#000001"/>
<path id="Vector_3" d="M16.4953 15.4978V16.5019H15.4978V19.5009H16.4953V20.4984H19.4944V19.5009H17.4994V16.5019H19.4944V15.4978H16.4953Z" fill="#000001"/>
<path id="Vector_4" d="M19.4944 8.50209V7.49803H20.4984V4.49896H19.4944V6.50053H18.4969V5.49646H17.4994V4.49896H19.4944V3.50146H16.4953V4.49896H15.4978V7.49803H16.4953V8.50209H19.4944Z" fill="#000001"/>
<path id="Vector_5" d="M14.4937 18.4968H13.4962V21.5025H14.4937V18.4968Z" fill="#000001"/>
<path id="Vector_6" d="M14.4938 2.4975H13.4963V1.5H10.4972V2.4975H9.49969V5.49656H10.4972V6.50062H13.4963V5.49656H14.4938V2.4975Z" fill="#000001"/>
<path id="Vector_7" d="M13.4963 21.5024H10.4972V22.4999H13.4963V21.5024Z" fill="#000001"/>
<path id="Vector_8" d="M13.4963 17.4993H10.4972V18.4968H13.4963V17.4993Z" fill="#000001"/>
<path id="Vector_9" d="M10.4972 18.4968H9.49969V21.5025H10.4972V18.4968Z" fill="#000001"/>
<path id="Vector_10" d="M7.49812 20.4984V19.5009H8.49562V16.5019H7.49812V15.4978H4.49905V16.5019H6.49405V19.5009H4.49905V20.4984H7.49812Z" fill="#000001"/>
<path id="Vector_11" d="M8.49562 4.49896H7.49812V3.50146H4.49906V4.49896H6.49406V5.49646H5.49656V6.50053H4.49906V4.49896H3.495V7.49803H4.49906V8.50209H7.49812V7.49803H8.49562V4.49896Z" fill="#000001"/>
<path id="Vector_12" d="M4.49906 16.502H3.495V19.501H4.49906V16.502Z" fill="#000001"/>
<path id="Vector_13" d="M2.4975 14.5004H5.49656V13.5029H6.49406V10.4973H5.49656V9.49976H2.4975V10.4973H4.49906V12.4988H2.4975V10.4973H1.5V13.5029H2.4975V14.5004Z" fill="#000001"/>
</g>
</g>
</svg>
