<svg width="24" height="24" viewBox="0 0 24 24" fill="none" xmlns="http://www.w3.org/2000/svg">
<g id="interface-essential-magnet">
<g id="Group">
<path id="Vector" d="M15.9966 12.4988H19.0022V17.4994H19.9997V8.5022H14.9991V17.4994H15.9966V12.4988Z" fill="#000001"/>
<path id="Vector_2" d="M19.0022 17.4993H17.9981V19.5008H19.0022V17.4993Z" fill="#000001"/>
<path id="Vector_3" d="M17.9981 19.501H17.0006V20.4985H17.9981V19.501Z" fill="#000001"/>
<path id="Vector_4" d="M17.9981 1.5H17.0006V2.4975H17.9981V1.5Z" fill="#000001"/>
<path id="Vector_5" d="M17.0006 5.50317H15.9966V6.50067H17.0006V5.50317Z" fill="#000001"/>
<path id="Vector_6" d="M15.9966 2.49756V3.50162H14.9991V4.49912H17.0006V5.50318H17.9981V4.49912H19.0022V3.50162H17.0006V2.49756H15.9966Z" fill="#000001"/>
<path id="Vector_7" d="M17.0006 20.4985H14.9991V21.5026H17.0006V20.4985Z" fill="#000001"/>
<path id="Vector_8" d="M14.999 21.5024H9.00092V22.4999H14.999V21.5024Z" fill="#000001"/>
<path id="Vector_9" d="M14.999 17.4993H9.00092V18.4968H14.999V17.4993Z" fill="#000001"/>
<path id="Vector_10" d="M9.00095 20.4985H6.99939V21.5026H9.00095V20.4985Z" fill="#000001"/>
<path id="Vector_11" d="M6.99939 19.501H6.00189V20.4985H6.99939V19.501Z" fill="#000001"/>
<path id="Vector_12" d="M6.99939 1.5H6.00189V2.4975H6.99939V1.5Z" fill="#000001"/>
<path id="Vector_13" d="M6.00187 17.4993H4.9978V19.5008H6.00187V17.4993Z" fill="#000001"/>
<path id="Vector_14" d="M6.00187 5.50317H4.9978V6.50067H6.00187V5.50317Z" fill="#000001"/>
<path id="Vector_15" d="M4.99781 2.49756V3.50162H4.00031V4.49912H6.00187V5.50318H6.99937V4.49912H7.99687V3.50162H6.00187V2.49756H4.99781Z" fill="#000001"/>
<path id="Vector_16" d="M4.00031 17.4994H4.99781V12.4988H7.99687V17.4994H9.00093V8.5022H4.00031V17.4994Z" fill="#000001"/>
</g>
</g>
</svg>
