<svg width="24" height="24" viewBox="0 0 24 24" fill="none" xmlns="http://www.w3.org/2000/svg">
<g id="internet-network-upload">
<g id="Group">
<path id="Vector" d="M13.4996 13.4963H10.5005V14.5004H13.4996V13.4963Z" fill="#000001"/>
<path id="Vector_2" d="M13.4996 11.5012H10.5005V12.4987H13.4996V11.5012Z" fill="#000001"/>
<path id="Vector_3" d="M21.4993 18.4968H20.5018V20.4984H21.4993V18.4968Z" fill="#000001"/>
<path id="Vector_4" d="M20.5018 16.502H19.5043V18.497H20.5018V16.502Z" fill="#000001"/>
<path id="Vector_5" d="M3.50488 20.4985V21.5026H4.50238V22.5001H19.5043V21.5026H20.5018V20.4985H3.50488Z" fill="#000001"/>
<path id="Vector_6" d="M18.5003 7.49805H15.5012V8.50211H18.5003V7.49805Z" fill="#000001"/>
<path id="Vector_7" d="M13.4996 18.4968H10.5005V19.5009H13.4996V18.4968Z" fill="#000001"/>
<path id="Vector_8" d="M10.5006 10.4972H13.4996V5.49656H15.5012V4.49906H14.5037V3.50156H13.4996V2.4975H12.5021V1.5H11.5046V2.4975H10.5006V3.50156H9.50309V4.49906H8.49902V5.49656H10.5006V10.4972Z" fill="#000001"/>
<path id="Vector_9" d="M8.49894 7.49805H5.49988V8.50211H8.49894V7.49805Z" fill="#000001"/>
<path id="Vector_10" d="M19.5043 16.5019V8.5022H18.5003V15.4978H5.49994V8.5022H4.50244V16.5019H19.5043Z" fill="#000001"/>
<path id="Vector_11" d="M4.50238 16.502H3.50488V18.497H4.50238V16.502Z" fill="#000001"/>
<path id="Vector_12" d="M3.50492 18.4968H2.50085V20.4984H3.50492V18.4968Z" fill="#000001"/>
</g>
</g>
</svg>
