<svg width="24" height="24" viewBox="0 0 24 24" fill="none" xmlns="http://www.w3.org/2000/svg">
<g id="interface-essential-question-help-square">
<g id="Group">
<path id="Vector" d="M22.5 3.50146H21.5025V20.4983H22.5V3.50146Z" fill="#000001"/>
<path id="Vector_2" d="M21.5025 20.4985H20.4984V21.5026H21.5025V20.4985Z" fill="#000001"/>
<path id="Vector_3" d="M21.5025 2.49756H20.4984V3.50162H21.5025V2.49756Z" fill="#000001"/>
<path id="Vector_4" d="M20.4985 21.5024H3.50159V22.4999H20.4985V21.5024Z" fill="#000001"/>
<path id="Vector_5" d="M19.501 17.4993H18.5035V18.4968H17.4994V19.5008H18.5035V20.4983H19.501V19.5008H20.4985V18.4968H19.501V17.4993Z" fill="#000001"/>
<path id="Vector_6" d="M19.501 3.50146H18.5035V4.49896H17.4994V5.49646H18.5035V6.50053H19.501V5.49646H20.4985V4.49896H19.501V3.50146Z" fill="#000001"/>
<path id="Vector_7" d="M15.5044 5.49652H14.5003V4.49902H9.4997V5.49652H8.5022V6.50059H7.5047V9.49965H9.4997V7.49809H10.5038V6.50059H12.4988V7.49809H13.5028V9.49965H12.4988V10.4971H11.5013V11.5012H10.5038V13.4962H13.5028V12.4987H14.5003V11.5012H15.5044V10.4971H16.5019V6.50059H15.5044V5.49652Z" fill="#000001"/>
<path id="Vector_8" d="M13.5028 14.5002H10.5038V15.4977H9.49969V18.4968H10.5038V19.5009H13.5028V18.4968H14.5003V15.4977H13.5028V14.5002Z" fill="#000001"/>
<path id="Vector_9" d="M5.50315 17.4993H4.49909V18.4968H3.50159V19.5008H4.49909V20.4983H5.50315V19.5008H6.50065V18.4968H5.50315V17.4993Z" fill="#000001"/>
<path id="Vector_10" d="M5.50315 3.50146H4.49909V4.49896H3.50159V5.49646H4.49909V6.50053H5.50315V5.49646H6.50065V4.49896H5.50315V3.50146Z" fill="#000001"/>
<path id="Vector_11" d="M20.4985 1.5H3.50159V2.4975H20.4985V1.5Z" fill="#000001"/>
<path id="Vector_12" d="M3.50159 20.4985H2.50409V21.5026H3.50159V20.4985Z" fill="#000001"/>
<path id="Vector_13" d="M3.50159 2.49756H2.50409V3.50162H3.50159V2.49756Z" fill="#000001"/>
<path id="Vector_14" d="M2.50406 3.50146H1.5V20.4983H2.50406V3.50146Z" fill="#000001"/>
</g>
</g>
</svg>
