<svg width="24" height="24" viewBox="0 0 24 24" fill="none" xmlns="http://www.w3.org/2000/svg">
<g id="interface-essential-bookmark_1">
<g id="Group">
<path id="Vector" d="M14.5003 8.50209V4.50553H13.5028V21.5024H14.5003V9.50615H20.4984V3.50146H19.5009V8.50209H14.5003Z" fill="#000001"/>
<path id="Vector_2" d="M19.5009 2.50415H18.5034V3.50165H19.5009V2.50415Z" fill="#000001"/>
<path id="Vector_3" d="M15.4978 3.50146H14.5003V4.50553H15.4978V3.50146Z" fill="#000001"/>
<path id="Vector_4" d="M13.5028 21.5024H12.4987V22.4999H13.5028V21.5024Z" fill="#000001"/>
<path id="Vector_5" d="M12.4988 20.5049H11.5013V21.5024H12.4988V20.5049Z" fill="#000001"/>
<path id="Vector_6" d="M11.5013 19.501H10.5038V20.505H11.5013V19.501Z" fill="#000001"/>
<path id="Vector_7" d="M11.5012 7.50464H9.49968V8.50214H8.50218V7.50464H6.50061V8.50214H5.50311V10.5037H6.50061V11.5012H7.49811V12.5053H8.50218V13.5028H9.49968V12.5053H10.5037V11.5012H11.5012V10.5037H12.4987V8.50214H11.5012V7.50464Z" fill="#000001"/>
<path id="Vector_8" d="M10.5038 18.5034H9.49969V19.5009H10.5038V18.5034Z" fill="#000001"/>
<path id="Vector_9" d="M9.49967 17.5059H8.50217V18.5034H9.49967V17.5059Z" fill="#000001"/>
<path id="Vector_10" d="M8.50217 18.5034H7.49811V19.5009H8.50217V18.5034Z" fill="#000001"/>
<path id="Vector_11" d="M6.50061 2.50406H15.4978V3.50156H16.5019V2.50406H18.5034V1.5H6.50061V2.50406Z" fill="#000001"/>
<path id="Vector_12" d="M7.49811 19.501H6.50061V20.505H7.49811V19.501Z" fill="#000001"/>
<path id="Vector_13" d="M6.50061 20.5049H5.50311V21.5024H6.50061V20.5049Z" fill="#000001"/>
<path id="Vector_14" d="M6.50061 2.50415H5.50311V3.50165H6.50061V2.50415Z" fill="#000001"/>
<path id="Vector_15" d="M5.50312 21.5024H4.49905V22.4999H5.50312V21.5024Z" fill="#000001"/>
<path id="Vector_16" d="M5.50312 3.50146H4.49905V4.50553H5.50312V3.50146Z" fill="#000001"/>
<path id="Vector_17" d="M4.49906 4.50562H3.50156V21.5025H4.49906V4.50562Z" fill="#000001"/>
</g>
</g>
</svg>
