<svg width="24" height="24" viewBox="0 0 24 24" fill="none" xmlns="http://www.w3.org/2000/svg">
<g id="interface-essential-setting-slide">
<g id="Group">
<path id="Vector" d="M18.5002 7.49818V5.50318H21.4992V4.49912H18.5002V2.49756H17.5027V7.49818H18.5002Z" fill="#000001"/>
<path id="Vector_2" d="M18.5002 21.5026V19.501H21.4992V18.497H18.5002V16.502H17.5027V21.5026H18.5002Z" fill="#000001"/>
<path id="Vector_3" d="M21.4992 11.5013H7.50142V9.4997H6.50392V8.5022H5.49986V9.4997H4.50236V11.5013H2.50079V12.4988H4.50236V14.5003H5.49986V15.4978H6.50392V14.5003H7.50142V12.4988H21.4992V11.5013Z" fill="#000001"/>
<path id="Vector_4" d="M17.5027 21.5024H16.4986V22.4999H17.5027V21.5024Z" fill="#000001"/>
<path id="Vector_5" d="M17.5027 15.4978H16.4986V16.5019H17.5027V15.4978Z" fill="#000001"/>
<path id="Vector_6" d="M17.5027 7.49805H16.4986V8.50211H17.5027V7.49805Z" fill="#000001"/>
<path id="Vector_7" d="M17.5027 1.5H16.4986V2.4975H17.5027V1.5Z" fill="#000001"/>
<path id="Vector_8" d="M16.4986 16.502H15.5011V18.497H2.50079V19.501H15.5011V21.5026H16.4986V16.502Z" fill="#000001"/>
<path id="Vector_9" d="M15.5011 4.49912H2.50079V5.50318H15.5011V7.49818H16.4986V2.49756H15.5011V4.49912Z" fill="#000001"/>
</g>
</g>
</svg>
