<svg width="24" height="24" viewBox="0 0 24 24" fill="none" xmlns="http://www.w3.org/2000/svg">
<g id="interface-essential-shrink-3">
<g id="Group">
<path id="Vector" d="M13.5028 13.4963H12.4988V21.496H13.5028V13.4963Z" fill="#000001"/>
<path id="Vector_2" d="M15.5044 21.4958H13.5028V22.4999H15.5044V21.4958Z" fill="#000001"/>
<path id="Vector_3" d="M21.5025 12.4988H13.5028V13.4963H21.5025V12.4988Z" fill="#000001"/>
<path id="Vector_4" d="M16.5019 18.4968V17.4993H15.5044V21.4958H16.5019V19.5008H17.4994V18.4968H16.5019Z" fill="#000001"/>
<path id="Vector_5" d="M18.5035 19.501H17.4994V20.4985H18.5035V19.501Z" fill="#000001"/>
<path id="Vector_6" d="M19.5009 20.4985H18.5034V21.496H19.5009V20.4985Z" fill="#000001"/>
<path id="Vector_7" d="M17.4994 15.4978V16.5019H18.5035V17.4994H19.501V16.5019H21.5025V15.4978H17.4994Z" fill="#000001"/>
<path id="Vector_8" d="M20.505 17.4993H19.5009V18.4968H20.505V17.4993Z" fill="#000001"/>
<path id="Vector_9" d="M21.5025 21.4958H19.5009V22.4999H21.5025V21.4958Z" fill="#000001"/>
<path id="Vector_10" d="M21.5025 19.5009V21.4959H22.5V18.4968H20.505V19.5009H21.5025Z" fill="#000001"/>
<path id="Vector_11" d="M22.5 13.4963H21.5025V15.4979H22.5V13.4963Z" fill="#000001"/>
<path id="Vector_12" d="M13.5028 2.50415H12.4988V10.5038H13.5028V2.50415Z" fill="#000001"/>
<path id="Vector_13" d="M15.5044 1.5H13.5028V2.50406H15.5044V1.5Z" fill="#000001"/>
<path id="Vector_14" d="M15.5044 6.50071H16.5019V5.50321H17.4994V4.49915H16.5019V2.50415H15.5044V6.50071Z" fill="#000001"/>
<path id="Vector_15" d="M18.5035 3.50146H17.4994V4.49896H18.5035V3.50146Z" fill="#000001"/>
<path id="Vector_16" d="M19.5009 2.50415H18.5034V3.50165H19.5009V2.50415Z" fill="#000001"/>
<path id="Vector_17" d="M18.5035 7.50479H17.4994V8.5023H21.5025V7.50479H19.501V6.50073H18.5035V7.50479Z" fill="#000001"/>
<path id="Vector_18" d="M20.505 5.50317H19.5009V6.50067H20.505V5.50317Z" fill="#000001"/>
<path id="Vector_19" d="M21.5025 10.5037H13.5028V11.5012H21.5025V10.5037Z" fill="#000001"/>
<path id="Vector_20" d="M21.5025 1.5H19.5009V2.50406H21.5025V1.5Z" fill="#000001"/>
<path id="Vector_21" d="M21.5025 4.49902H20.505V5.50309H21.5025V4.49902Z" fill="#000001"/>
<path id="Vector_22" d="M22.5 2.50415H21.5025V4.49915H22.5V2.50415Z" fill="#000001"/>
<path id="Vector_23" d="M22.5 8.5022H21.5025V10.5038H22.5V8.5022Z" fill="#000001"/>
<path id="Vector_24" d="M2.4975 8.5022H1.5V10.5038H2.4975V8.5022Z" fill="#000001"/>
<path id="Vector_25" d="M2.4975 2.50415H1.5V4.49915H2.4975V2.50415Z" fill="#000001"/>
<path id="Vector_26" d="M3.495 4.49902H2.4975V5.50309H3.495V4.49902Z" fill="#000001"/>
<path id="Vector_27" d="M4.49906 1.5H2.4975V2.50406H4.49906V1.5Z" fill="#000001"/>
<path id="Vector_28" d="M10.4972 10.5037H2.4975V11.5012H10.4972V10.5037Z" fill="#000001"/>
<path id="Vector_29" d="M4.49906 5.50317H3.495V6.50067H4.49906V5.50317Z" fill="#000001"/>
<path id="Vector_30" d="M6.50062 7.49823H5.49656V6.50073H4.49906V7.49823H2.4975V8.5023H6.50062V7.49823Z" fill="#000001"/>
<path id="Vector_31" d="M5.49658 2.50415H4.49908V3.50165H5.49658V2.50415Z" fill="#000001"/>
<path id="Vector_32" d="M6.50064 3.50146H5.49658V4.49896H6.50064V3.50146Z" fill="#000001"/>
<path id="Vector_33" d="M7.49811 5.50321V6.50071H8.49561V2.50415H7.49811V4.49915H6.50061V5.50321H7.49811Z" fill="#000001"/>
<path id="Vector_34" d="M10.4972 1.5H8.49561V2.50406H10.4972V1.5Z" fill="#000001"/>
<path id="Vector_35" d="M11.4947 2.50415H10.4972V10.5038H11.4947V2.50415Z" fill="#000001"/>
<path id="Vector_36" d="M2.4975 19.501H1.5V21.496H2.4975V19.501Z" fill="#000001"/>
<path id="Vector_37" d="M2.4975 13.4963H1.5V15.4979H2.4975V13.4963Z" fill="#000001"/>
<path id="Vector_38" d="M3.495 18.4968H2.4975V19.5009H3.495V18.4968Z" fill="#000001"/>
<path id="Vector_39" d="M4.49906 21.4958H2.4975V22.4999H4.49906V21.4958Z" fill="#000001"/>
<path id="Vector_40" d="M4.49906 17.4993H3.495V18.4968H4.49906V17.4993Z" fill="#000001"/>
<path id="Vector_41" d="M5.49656 16.4953H6.50062V15.4978H2.4975V16.4953H4.49906V17.4994H5.49656V16.4953Z" fill="#000001"/>
<path id="Vector_42" d="M5.49658 20.4985H4.49908V21.496H5.49658V20.4985Z" fill="#000001"/>
<path id="Vector_43" d="M6.50064 19.501H5.49658V20.4985H6.50064V19.501Z" fill="#000001"/>
<path id="Vector_44" d="M7.49811 17.4993V18.4968H6.50061V19.5008H7.49811V21.4958H8.49561V17.4993H7.49811Z" fill="#000001"/>
<path id="Vector_45" d="M10.4972 12.4988H2.4975V13.4963H10.4972V12.4988Z" fill="#000001"/>
<path id="Vector_46" d="M10.4972 21.4958H8.49561V22.4999H10.4972V21.4958Z" fill="#000001"/>
<path id="Vector_47" d="M11.4947 13.4963H10.4972V21.496H11.4947V13.4963Z" fill="#000001"/>
</g>
</g>
</svg>
