<svg width="24" height="24" viewBox="0 0 24 24" fill="none" xmlns="http://www.w3.org/2000/svg">
<g id="interface-essential-settings-toggle-horizontal">
<g id="Group">
<path id="Vector" d="M22.5 14.999H21.5025V19.9996H22.5V14.999Z" fill="#000001"/>
<path id="Vector_2" d="M21.5025 2.99628H20.4984V1.99878H3.50156V2.99628H2.50406V4.00034H1.5V9.00097H2.50406V9.99847H3.50156V10.996H20.4984V9.99847H21.5025V9.00097H22.5V4.00034H21.5025V2.99628ZM9.49969 7.9969H8.50219V9.00097H7.50469V9.99847H4.49906V9.00097H3.50156V7.9969H2.50406V4.99784H3.50156V4.00034H4.49906V2.99628H7.50469V4.00034H8.50219V4.99784H9.49969V7.9969Z" fill="#000001"/>
<path id="Vector_3" d="M21.5025 19.9998H20.4984V20.9973H21.5025V19.9998Z" fill="#000001"/>
<path id="Vector_4" d="M21.5025 13.9951H20.4984V14.9992H21.5025V13.9951Z" fill="#000001"/>
<path id="Vector_5" d="M20.4984 15.9966H19.5009V17.9981H20.4984V15.9966Z" fill="#000001"/>
<path id="Vector_6" d="M15.5044 20.9973V19.9998H14.5003V20.9973H3.50156V22.0013H20.4984V20.9973H15.5044Z" fill="#000001"/>
<path id="Vector_7" d="M19.5009 14.999H18.5034V15.9965H19.5009V14.999Z" fill="#000001"/>
<path id="Vector_8" d="M14.5003 14.999H13.5028V19.9996H14.5003V14.999Z" fill="#000001"/>
<path id="Vector_9" d="M8.5022 4.9978H7.5047V6.99937H8.5022V4.9978Z" fill="#000001"/>
<path id="Vector_10" d="M7.50467 4.00024H6.50061V4.99774H7.50467V4.00024Z" fill="#000001"/>
<path id="Vector_11" d="M14.5003 13.9951V14.9991H15.5044V13.9951H20.4984V12.9976H3.50156V13.9951H14.5003Z" fill="#000001"/>
<path id="Vector_12" d="M3.50156 19.9998H2.50406V20.9973H3.50156V19.9998Z" fill="#000001"/>
<path id="Vector_13" d="M3.50156 13.9951H2.50406V14.9992H3.50156V13.9951Z" fill="#000001"/>
<path id="Vector_14" d="M2.50406 14.999H1.5V19.9996H2.50406V14.999Z" fill="#000001"/>
</g>
</g>
</svg>
