<svg width="24" height="24" viewBox="0 0 24 24" fill="none" xmlns="http://www.w3.org/2000/svg">
<g id="interface-essential-scisor">
<g id="Group">
<path id="Vector" d="M18.5034 8.5022V9.4997H21.5025V10.4972H22.5V8.5022H18.5034Z" fill="#000001"/>
<path id="Vector_2" d="M21.5025 10.4971H20.4984V11.5011H21.5025V10.4971Z" fill="#000001"/>
<path id="Vector_3" d="M20.4984 11.5012H18.5034V12.4987H20.4984V11.5012Z" fill="#000001"/>
<path id="Vector_4" d="M18.5034 9.49976H16.5019V10.4973H18.5034V9.49976Z" fill="#000001"/>
<path id="Vector_5" d="M18.5034 12.4988H16.5019V13.5028H18.5034V12.4988Z" fill="#000001"/>
<path id="Vector_6" d="M16.5019 10.4971H14.5003V11.5011H16.5019V10.4971Z" fill="#000001"/>
<path id="Vector_7" d="M16.5019 13.5029H12.4987V14.5004H16.5019V13.5029Z" fill="#000001"/>
<path id="Vector_8" d="M14.5003 5.50312H15.4978V1.5H13.5028V2.4975H14.5003V5.50312Z" fill="#000001"/>
<path id="Vector_9" d="M14.5003 5.50317H13.5028V7.49817H14.5003V5.50317Z" fill="#000001"/>
<path id="Vector_10" d="M14.5003 11.5012H12.4987V12.4987H14.5003V11.5012Z" fill="#000001"/>
<path id="Vector_11" d="M13.5028 7.49805H12.4987V9.49961H13.5028V7.49805Z" fill="#000001"/>
<path id="Vector_12" d="M13.5028 2.49756H12.4987V3.50162H13.5028V2.49756Z" fill="#000001"/>
<path id="Vector_13" d="M11.5013 12.4987V11.5012H10.4972V13.5028H12.4988V12.4987H11.5013Z" fill="#000001"/>
<path id="Vector_14" d="M12.4988 9.49976H11.5013V11.5013H12.4988V9.49976Z" fill="#000001"/>
<path id="Vector_15" d="M12.4988 3.50146H11.5013V5.50303H12.4988V3.50146Z" fill="#000001"/>
<path id="Vector_16" d="M11.5013 5.50317H10.4972V7.49817H11.5013V5.50317Z" fill="#000001"/>
<path id="Vector_17" d="M10.4972 7.49805H9.49969V11.5012H10.4972V7.49805Z" fill="#000001"/>
<path id="Vector_18" d="M7.49813 13.5027V12.4986H6.50062V11.5011H5.50312V10.4971H3.50156V11.5011H2.4975V12.4986H1.5V14.5002H2.4975V15.4977H3.50156V16.5018H5.50312V15.4977H6.50062V14.5002H9.49969V17.4993H8.50219V18.5033H7.49813V20.4983H8.50219V21.5024H9.49969V22.4999H11.5012V21.5024H12.4988V20.4983H13.5028V18.5033H12.4988V17.4993H11.5012V16.5018H10.4972V13.5027H7.49813ZM5.50312 14.5002H3.50156V12.4986H5.50312V14.5002ZM11.5012 18.5033V20.4983H9.49969V18.5033H11.5012Z" fill="#000001"/>
</g>
</g>
</svg>
