<svg width="24" height="24" viewBox="0 0 24 24" fill="none" xmlns="http://www.w3.org/2000/svg">
<g id="interface-essential-print">
<g id="Group">
<path id="Vector" d="M22.5 10.4971H21.4959V18.4968H22.5V10.4971Z" fill="#000001"/>
<path id="Vector_2" d="M21.4959 18.4968H20.4984V19.5009H21.4959V18.4968Z" fill="#000001"/>
<path id="Vector_3" d="M20.4984 13.5029H19.5009V14.5004H20.4984V13.5029Z" fill="#000001"/>
<path id="Vector_4" d="M16.4953 19.5009V16.5019H18.4969V15.4978H5.49659V16.5019H7.49815V19.5009H3.50159V20.4984H7.49815V22.5H16.4953V20.4984H20.4985V19.5009H16.4953ZM15.4978 21.5025H8.49565V16.5019H15.4978V21.5025Z" fill="#000001"/>
<path id="Vector_5" d="M18.4969 13.5029H17.4994V14.5004H18.4969V13.5029Z" fill="#000001"/>
<path id="Vector_6" d="M18.4969 11.5012H5.49658V12.4987H18.4969V11.5012Z" fill="#000001"/>
<path id="Vector_7" d="M14.5003 19.501H9.49969V20.4985H14.5003V19.501Z" fill="#000001"/>
<path id="Vector_8" d="M14.5003 17.4993H9.49969V18.4968H14.5003V17.4993Z" fill="#000001"/>
<path id="Vector_9" d="M4.49906 11.5012H5.49656V10.4972H18.4969V11.5012H19.5009V10.4972H21.4959V9.49969H19.5009V6.50062H18.4969V5.50312H16.4953V2.4975H15.4978V3.50156H14.5003V2.4975H15.4978V1.5H7.49812V5.50312H5.49656V6.50062H4.49906V9.49969H2.4975V10.4972H4.49906V11.5012ZM8.49562 2.4975H13.4962V4.49906H15.4978V9.49969H8.49562V2.4975Z" fill="#000001"/>
<path id="Vector_10" d="M3.50156 18.4968H2.4975V19.5009H3.50156V18.4968Z" fill="#000001"/>
<path id="Vector_11" d="M2.4975 10.4971H1.5V18.4968H2.4975V10.4971Z" fill="#000001"/>
</g>
</g>
</svg>
