<svg width="24" height="24" viewBox="0 0 24 24" fill="none" xmlns="http://www.w3.org/2000/svg">
<g id="interface-essential-loading-status">
<g id="Group">
<path id="Vector" d="M22.5 8.49585H21.4959V15.498H22.5V8.49585Z" fill="#000001"/>
<path id="Vector_2" d="M21.4959 15.4978H20.4984V16.4953H21.4959V15.4978Z" fill="#000001"/>
<path id="Vector_3" d="M21.4959 7.49829H20.4984V8.49579H21.4959V7.49829Z" fill="#000001"/>
<path id="Vector_4" d="M20.4984 16.4954H3.50156V17.4994H20.4984V16.4954Z" fill="#000001"/>
<path id="Vector_5" d="M14.5003 9.49991H13.4962V8.49585H4.49906V9.49991H3.50156V14.5005H4.49906V15.498H13.4962V14.5005H14.5003V13.4965H15.4978V10.4974H14.5003V9.49991Z" fill="#000001"/>
<path id="Vector_6" d="M20.4984 6.50073H3.50156V7.49823H20.4984V6.50073Z" fill="#000001"/>
<path id="Vector_7" d="M3.50156 15.4978H2.4975V16.4953H3.50156V15.4978Z" fill="#000001"/>
<path id="Vector_8" d="M3.50156 7.49829H2.4975V8.49579H3.50156V7.49829Z" fill="#000001"/>
<path id="Vector_9" d="M2.4975 8.49585H1.5V15.498H2.4975V8.49585Z" fill="#000001"/>
</g>
</g>
</svg>
