<svg width="24" height="24" viewBox="0 0 24 24" fill="none" xmlns="http://www.w3.org/2000/svg">
<g id="interface-essential-lock-door-out">
<g id="Group">
<path id="Vector" d="M4.9978 20.4984V22.5H22.0012V20.4984H19.9997V4.49902H19.0022V20.4984H4.9978Z" fill="#000001"/>
<path id="Vector_2" d="M19.0022 3.50146H17.9981V4.49896H19.0022V3.50146Z" fill="#000001"/>
<path id="Vector_3" d="M17.9981 2.49756H17.0006V3.50162H17.9981V2.49756Z" fill="#000001"/>
<path id="Vector_4" d="M17.0006 4.49902H16.0031V5.49652H17.0006V4.49902Z" fill="#000001"/>
<path id="Vector_5" d="M17.0006 1.5H9.99841V2.4975H17.0006V1.5Z" fill="#000001"/>
<path id="Vector_6" d="M12 18.4968V19.5008H17.9981V5.49646H17.0006V8.50209H14.0015V4.49896H16.0031V3.50146H11.0025V4.49896H12.9975V8.50209H9.99841V9.49959H12.9975V13.4962H12V14.5002H12.9975V18.4968H12ZM14.0015 9.49959H17.0006V13.4962H14.0015V9.49959ZM14.0015 14.5002H17.0006V18.4968H14.0015V14.5002Z" fill="#000001"/>
<path id="Vector_7" d="M11.0025 12.4988H9.99841V18.4969H11.0025V12.4988Z" fill="#000001"/>
<path id="Vector_8" d="M11.0025 4.49902H9.99841V5.49652H11.0025V4.49902Z" fill="#000001"/>
<path id="Vector_9" d="M9.99842 5.49658H9.00092V7.49814H9.99842V5.49658Z" fill="#000001"/>
<path id="Vector_10" d="M9.99842 2.49756H9.00092V3.50162H9.99842V2.49756Z" fill="#000001"/>
<path id="Vector_11" d="M9.00092 3.50146H8.00342V4.49896H9.00092V3.50146Z" fill="#000001"/>
<path id="Vector_12" d="M8.00339 4.49902H6.99933V6.50059H8.00339V4.49902Z" fill="#000001"/>
<path id="Vector_13" d="M4.9978 15.4979H6.00187V17.4995H6.99937V15.4979H8.00343V13.4963H4.9978V15.4979Z" fill="#000001"/>
<path id="Vector_14" d="M8.00343 7.49805H4.9978V8.50211H8.00343V7.49805Z" fill="#000001"/>
<path id="Vector_15" d="M9.99843 18.4968H3.00281V19.5009H9.99843V18.4968Z" fill="#000001"/>
<path id="Vector_16" d="M4.99781 11.5013V8.5022H4.00031V11.5013H3.00281V12.4988H9.99843V11.5013H9.00093V8.5022H8.00343V11.5013H4.99781Z" fill="#000001"/>
<path id="Vector_17" d="M3.00278 12.4988H1.99872V18.4969H3.00278V12.4988Z" fill="#000001"/>
</g>
</g>
</svg>
