<svg width="24" height="24" viewBox="0 0 24 24" fill="none" xmlns="http://www.w3.org/2000/svg">
<g id="interface-essential-poll">
<g id="Group">
<path id="Vector" d="M22.5 20.5017H1.5V21.4992H22.5V20.5017Z" fill="#000001"/>
<path id="Vector_2" d="M17.4994 2.50073V3.49823H16.4953V18.5001H17.4994V19.4976H20.4984V18.5001H21.4959V3.49823H20.4984V2.50073H17.4994Z" fill="#000001"/>
<path id="Vector_3" d="M12.4987 16.4985H11.5012V17.496H12.4987V16.4985Z" fill="#000001"/>
<path id="Vector_4" d="M12.4987 13.4995H11.5012V14.497H12.4987V13.4995Z" fill="#000001"/>
<path id="Vector_5" d="M12.4987 10.5005H11.5012V11.498H12.4987V10.5005Z" fill="#000001"/>
<path id="Vector_6" d="M12.4987 7.50146H11.5012V8.49896H12.4987V7.50146Z" fill="#000001"/>
<path id="Vector_7" d="M12.4988 7.50132H13.4963V9.49632H12.4988V10.5004H13.4963V12.5019H12.4988V13.4994H13.4963V15.501H12.4988V16.4985H13.4963V18.5001H14.5003V6.49726H13.4963V5.49976H10.4972V6.49726H12.4988V7.50132Z" fill="#000001"/>
<path id="Vector_8" d="M13.4963 19.4976V18.5001H11.5013V17.4961H10.4972V15.5011H11.5013V14.497H10.4972V12.502H11.5013V11.4979H10.4972V9.49638H11.5013V8.49888H10.4972V6.49731H9.49969V18.5001H10.4972V19.4976H13.4963Z" fill="#000001"/>
<path id="Vector_9" d="M7.49811 12.502H6.50061V18.5001H7.49811V12.502Z" fill="#000001"/>
<path id="Vector_10" d="M6.50065 18.5H3.50159V19.4975H6.50065V18.5Z" fill="#000001"/>
<path id="Vector_11" d="M6.50065 11.4978H3.50159V12.5019H6.50065V11.4978Z" fill="#000001"/>
<path id="Vector_12" d="M3.50156 12.502H2.4975V18.5001H3.50156V12.502Z" fill="#000001"/>
</g>
</g>
</svg>
