<svg width="24" height="24" viewBox="0 0 24 24" fill="none" xmlns="http://www.w3.org/2000/svg">
<g id="interface-essential-alert-caution">
<g id="Group">
<path id="Vector" d="M22.0012 18.5H20.9971V20.5016H22.0012V18.5Z" fill="#000001"/>
<path id="Vector_2" d="M20.9971 16.4985H19.9996V18.5001H20.9971V16.4985Z" fill="#000001"/>
<path id="Vector_3" d="M20.9972 20.5017H2.99622V21.4992H20.9972V20.5017Z" fill="#000001"/>
<path id="Vector_4" d="M19.9996 14.4971H19.0021V16.4986H19.9996V14.4971Z" fill="#000001"/>
<path id="Vector_5" d="M19.0022 12.502H17.9981V14.497H19.0022V12.502Z" fill="#000001"/>
<path id="Vector_6" d="M17.9981 10.5005H17.0006V12.5021H17.9981V10.5005Z" fill="#000001"/>
<path id="Vector_7" d="M17.0006 8.49878H15.9965V10.5003H17.0006V8.49878Z" fill="#000001"/>
<path id="Vector_8" d="M15.9965 6.49731H14.999V8.49888H15.9965V6.49731Z" fill="#000001"/>
<path id="Vector_9" d="M14.999 4.5022H14.0015V6.4972H14.999V4.5022Z" fill="#000001"/>
<path id="Vector_10" d="M14.0016 3.49829H12.9975V4.50235H14.0016V3.49829Z" fill="#000001"/>
<path id="Vector_11" d="M10.9959 18.5002H12.9975V17.5027H14.0015V15.5011H12.9975V14.4971H10.9959V15.5011H9.99841V17.5027H10.9959V18.5002Z" fill="#000001"/>
<path id="Vector_12" d="M12.9975 7.50146H10.9959V13.4996H12.9975V7.50146Z" fill="#000001"/>
<path id="Vector_13" d="M12.9975 2.50073H10.9959V3.49823H12.9975V2.50073Z" fill="#000001"/>
<path id="Vector_14" d="M10.9959 3.49829H9.99841V4.50235H10.9959V3.49829Z" fill="#000001"/>
<path id="Vector_15" d="M9.99842 4.5022H9.00092V6.4972H9.99842V4.5022Z" fill="#000001"/>
<path id="Vector_16" d="M9.00089 6.49731H7.99683V8.49888H9.00089V6.49731Z" fill="#000001"/>
<path id="Vector_17" d="M7.99683 8.49878H6.99933V10.5003H7.99683V8.49878Z" fill="#000001"/>
<path id="Vector_18" d="M6.99933 10.5005H6.00183V12.5021H6.99933V10.5005Z" fill="#000001"/>
<path id="Vector_19" d="M6.00187 12.502H4.9978V14.497H6.00187V12.502Z" fill="#000001"/>
<path id="Vector_20" d="M4.99781 14.4971H4.00031V16.4986H4.99781V14.4971Z" fill="#000001"/>
<path id="Vector_21" d="M4.00028 16.4985H2.99622V18.5001H4.00028V16.4985Z" fill="#000001"/>
<path id="Vector_22" d="M2.99622 18.5H1.99872V20.5016H2.99622V18.5Z" fill="#000001"/>
</g>
</g>
</svg>
