<svg width="24" height="24" viewBox="0 0 24 24" fill="none" xmlns="http://www.w3.org/2000/svg">
<g id="interface-essential-signin-login">
<g id="Group">
<path id="Vector" d="M16.4986 7.49805V8.49555H15.4946V9.49961H14.4971V10.4971H13.4996V12.4987H14.4971V13.4962H15.4946V14.5002H16.4986V15.4977H17.4961V12.4987H21.4993V10.4971H17.4961V7.49805H16.4986Z" fill="#000001"/>
<path id="Vector_2" d="M16.4986 17.4993H15.4946V19.5008H16.4986V17.4993Z" fill="#000001"/>
<path id="Vector_3" d="M16.4986 2.49756H15.4946V5.49662H16.4986V2.49756Z" fill="#000001"/>
<path id="Vector_4" d="M11.498 21.496V20.4985H15.4946V19.501H11.498V6.50073H10.5005V21.496H11.498Z" fill="#000001"/>
<path id="Vector_5" d="M10.5005 21.4958H7.49487V22.4999H10.5005V21.4958Z" fill="#000001"/>
<path id="Vector_6" d="M9.4964 12.4988H8.4989V14.5003H9.4964V12.4988Z" fill="#000001"/>
<path id="Vector_7" d="M10.5005 5.49658H8.4989V6.50064H10.5005V5.49658Z" fill="#000001"/>
<path id="Vector_8" d="M7.49488 20.4985H5.49988V21.496H7.49488V20.4985Z" fill="#000001"/>
<path id="Vector_9" d="M8.49894 4.49902H6.49738V5.49652H8.49894V4.49902Z" fill="#000001"/>
<path id="Vector_10" d="M5.49985 19.501H3.49829V20.4985H5.49985V19.501Z" fill="#000001"/>
<path id="Vector_11" d="M6.49735 3.50146H4.49579V4.49896H6.49735V3.50146Z" fill="#000001"/>
<path id="Vector_12" d="M3.49829 1.5V2.4975H2.50079V19.5009H3.49829V3.50156H4.49579V2.4975H15.4945V1.5H3.49829Z" fill="#000001"/>
</g>
</g>
</svg>
