<svg width="24" height="24" viewBox="0 0 24 24" fill="none" xmlns="http://www.w3.org/2000/svg">
<g id="interface-essential-text-format-2">
<g id="Group">
<path id="Vector" d="M21.5025 5.50318V2.49756H18.5034V3.50162H5.50312V2.49756H2.4975V5.50318H3.50156V18.5035H2.4975V21.5026H5.50312V20.4985H18.5034V21.5026H21.5025V18.5035H20.4984V5.50318H21.5025ZM19.5009 18.5035H18.5034V19.501H5.50312V18.5035H4.49906V5.50318H5.50312V4.49912H18.5034V5.50318H19.5009V18.5035Z" fill="#000001"/>
<path id="Vector_2" d="M16.5019 7.49829H15.4978V9.49985H16.5019V7.49829Z" fill="#000001"/>
<path id="Vector_3" d="M8.5022 6.50073V7.49823H11.5013V16.502H9.4997V17.4995H14.5003V16.502H12.4988V7.49823H15.4978V6.50073H8.5022Z" fill="#000001"/>
<path id="Vector_4" d="M8.50217 7.49829H7.49811V9.49985H8.50217V7.49829Z" fill="#000001"/>
</g>
</g>
</svg>
