<svg width="24" height="24" viewBox="0 0 24 24" fill="none" xmlns="http://www.w3.org/2000/svg">
<g id="interface-essential-paginate-filter-camera">
<g id="Group">
<path id="Vector" d="M22.0013 2.99634H20.9972V17.9982H22.0013V2.99634Z" fill="#000001"/>
<path id="Vector_2" d="M5.99531 17.998V18.9955H6.99937V19.9996H7.99687V18.9955H9.99843V19.9996H10.9959V18.9955H12.9975V19.9996H13.995V18.9955H15.9966V19.9996H17.0006V18.9955H17.9981V19.9996H17.0006V20.9971H14.9991V19.9996H13.995V20.9971H12V19.9996H10.9959V20.9971H9.00093V19.9996H7.99687V20.9971H5.99531V19.9996H4.99781V20.9971H2.99625V22.0012H17.9981V20.9971H18.9956V18.9955H20.9972V17.998H5.99531Z" fill="#000001"/>
<path id="Vector_3" d="M7.99689 12.9976H9.00095V14.0017H14.9991V12.9976H15.9966V12.0001H17.0006V12.9976H17.9981V14.0017H18.9956V6.99951H17.9981V7.99701H17.0006V9.00107H15.9966V7.99701H14.9991V6.99951H9.00095V7.99701H7.99689V12.9976Z" fill="#000001"/>
<path id="Vector_4" d="M20.9972 1.99878H5.9953V2.99628H20.9972V1.99878Z" fill="#000001"/>
<path id="Vector_5" d="M4.99781 18.9956H4.00031V19.9997H4.99781V18.9956Z" fill="#000001"/>
<path id="Vector_6" d="M4.00031 18.9957V17.9982H2.99625V15.9967H4.00031V14.9991H2.99625V12.9976H4.00031V12.0001H2.99625V9.99853H4.00031V9.00103H2.99625V6.99946H4.00031V5.9954H4.99781V6.99946H4.00031V7.99696H4.99781V9.99853H4.00031V10.996H4.99781V12.9976H4.00031V14.0016H4.99781V15.9967H4.00031V17.0007H4.99781V17.9982H5.99531V2.99634H4.99781V4.9979H2.99625V5.9954H1.99875V20.9973H2.99625V18.9957H4.00031Z" fill="#000001"/>
</g>
</g>
</svg>
