<svg width="24" height="24" viewBox="0 0 24 24" fill="none" xmlns="http://www.w3.org/2000/svg">
<g id="interface-essential-shrink-4">
<g id="Group">
<path id="Vector" d="M22.5 21.4958H21.5025V22.4999H22.5V21.4958Z" fill="#000001"/>
<path id="Vector_2" d="M22.5 1.5H21.5025V2.4975H22.5V1.5Z" fill="#000001"/>
<path id="Vector_3" d="M21.5025 20.4985H20.4984V21.496H21.5025V20.4985Z" fill="#000001"/>
<path id="Vector_4" d="M21.5025 2.49756H20.4984V3.50162H21.5025V2.49756Z" fill="#000001"/>
<path id="Vector_5" d="M20.4984 19.501H19.5009V20.4985H20.4984V19.501Z" fill="#000001"/>
<path id="Vector_6" d="M20.4984 3.50146H19.5009V4.49896H20.4984V3.50146Z" fill="#000001"/>
<path id="Vector_7" d="M19.501 18.4968H18.4969V19.5009H19.501V18.4968Z" fill="#000001"/>
<path id="Vector_8" d="M20.4985 17.4994V16.4954H16.5019V20.4985H17.4994V18.4969H18.4969V17.4994H20.4985Z" fill="#000001"/>
<path id="Vector_9" d="M19.501 4.49902H18.4969V5.49652H19.501V4.49902Z" fill="#000001"/>
<path id="Vector_10" d="M17.4994 3.50146H16.5019V7.49803H20.4985V6.50053H18.4969V5.49646H17.4994V3.50146Z" fill="#000001"/>
<path id="Vector_11" d="M7.49811 14.5002H8.50217V15.4977H9.49967V16.4952H14.5003V15.4977H15.4978V14.5002H16.5019V9.49961H15.4978V8.49555H14.5003V7.49805H9.49967V8.49555H8.50217V9.49961H7.49811V14.5002ZM13.5028 10.4971H14.5003V11.5012H13.5028V10.4971ZM9.49967 10.4971H10.4972V11.5012H9.49967V10.4971ZM9.49967 12.4987H10.4972V13.4962H13.5028V12.4987H14.5003V13.4962H13.5028V14.5002H10.4972V13.4962H9.49967V12.4987Z" fill="#000001"/>
<path id="Vector_12" d="M6.50065 20.4985H7.49815V16.4954H3.50159V17.4994H5.50315V18.4969H6.50065V20.4985Z" fill="#000001"/>
<path id="Vector_13" d="M5.50315 18.4968H4.49908V19.5009H5.50315V18.4968Z" fill="#000001"/>
<path id="Vector_14" d="M3.50159 6.50053V7.49803H7.49815V3.50146H6.50065V5.49646H5.50315V6.50053H3.50159Z" fill="#000001"/>
<path id="Vector_15" d="M5.50315 4.49902H4.49908V5.49652H5.50315V4.49902Z" fill="#000001"/>
<path id="Vector_16" d="M4.49909 19.501H3.50159V20.4985H4.49909V19.501Z" fill="#000001"/>
<path id="Vector_17" d="M4.49909 3.50146H3.50159V4.49896H4.49909V3.50146Z" fill="#000001"/>
<path id="Vector_18" d="M3.50156 20.4985H2.4975V21.496H3.50156V20.4985Z" fill="#000001"/>
<path id="Vector_19" d="M3.50156 2.49756H2.4975V3.50162H3.50156V2.49756Z" fill="#000001"/>
<path id="Vector_20" d="M2.4975 21.4958H1.5V22.4999H2.4975V21.4958Z" fill="#000001"/>
<path id="Vector_21" d="M2.4975 1.5H1.5V2.4975H2.4975V1.5Z" fill="#000001"/>
</g>
</g>
</svg>
