<svg width="24" height="24" viewBox="0 0 24 24" fill="none" xmlns="http://www.w3.org/2000/svg">
<g id="interface-essential-pie-chart-poll-report-2">
<g id="Group">
<path id="Vector" d="M20.4952 6.50386H19.4977V5.50308H18.5002V4.50229H17.4961V3.49823H15.4945V2.50073H12.4955V11.4979H21.4992V8.49886H20.4952V6.50386ZM19.4977 9.50292H18.5002V7.50136H17.4961V6.50386H16.4986V5.50308H17.4961V6.50714H18.5002V7.50464H19.4977V9.50292Z" fill="#000001"/>
<path id="Vector_2" d="M18.5002 15.501H17.4961V17.5025H18.5002V15.501Z" fill="#000001"/>
<path id="Vector_3" d="M10.5005 13.4994V4.5022H8.4989V5.4997H9.4964V14.5034H18.5002V15.5009H19.4977V13.4994H10.5005Z" fill="#000001"/>
<path id="Vector_4" d="M17.4961 17.5027H16.4986V18.5002H17.4961V17.5027Z" fill="#000001"/>
<path id="Vector_5" d="M16.4986 18.5H15.4946V19.4975H16.4986V18.5Z" fill="#000001"/>
<path id="Vector_6" d="M15.4946 19.4976H13.4996V20.5016H15.4946V19.4976Z" fill="#000001"/>
<path id="Vector_7" d="M13.4995 20.5017H8.4989V21.4992H13.4995V20.5017Z" fill="#000001"/>
<path id="Vector_8" d="M8.49894 19.4976H6.49738V20.5016H8.49894V19.4976Z" fill="#000001"/>
<path id="Vector_9" d="M8.49894 5.49976H6.49738V6.50382H8.49894V5.49976Z" fill="#000001"/>
<path id="Vector_10" d="M6.49738 18.5H5.49988V19.4975H6.49738V18.5Z" fill="#000001"/>
<path id="Vector_11" d="M6.49738 6.50391H5.49988V7.50141H6.49738V6.50391Z" fill="#000001"/>
<path id="Vector_12" d="M5.49985 17.5027H4.49579V18.5002H5.49985V17.5027Z" fill="#000001"/>
<path id="Vector_13" d="M5.49985 7.50146H4.49579V8.49896H5.49985V7.50146Z" fill="#000001"/>
<path id="Vector_14" d="M4.49579 15.501H3.49829V17.5025H4.49579V15.501Z" fill="#000001"/>
<path id="Vector_15" d="M4.49579 8.49878H3.49829V10.5003H4.49579V8.49878Z" fill="#000001"/>
<path id="Vector_16" d="M3.49829 10.5005H2.50079V15.5011H3.49829V10.5005Z" fill="#000001"/>
</g>
</g>
</svg>
