<svg width="24" height="24" viewBox="0 0 24 24" fill="none" xmlns="http://www.w3.org/2000/svg">
<g id="interface-essential-loading-100-percent-1">
<g id="Group">
<path id="Vector" d="M2.4975 16.5019H3.495V18.4969H4.49906V19.5009H5.49656V20.4984H7.49813V21.5025H9.49969V22.5H14.4937V21.5025H16.4953V20.4984H18.4969V19.5009H19.4944V18.4969H20.4984V16.5019H21.4959V14.5003H22.5V9.49969H21.4959V7.49813H20.4984V5.49656H19.4944V4.49906H18.4969V3.50156H16.4953V2.4975H14.4937V1.5H9.49969V2.4975H7.49813V3.50156H5.49656V4.49906H4.49906V5.49656H3.495V7.49813H2.4975V9.49969H1.5V14.5003H2.4975V16.5019ZM4.49906 10.4972H5.49656V8.50219H6.49406V6.50062H8.49562V5.49656H10.4972V4.49906H13.4963V5.49656H15.4978V6.50062H17.4994V8.50219H18.4969V10.4972H19.4944V13.5028H18.4969V15.4978H17.4994V17.4994H15.4978V18.4969H13.4963V19.5009H10.4972V18.4969H8.49562V17.4994H6.49406V15.4978H5.49656V13.5028H4.49906V10.4972Z" fill="#000001"/>
<path id="Vector_2" d="M16.4953 7.49805H13.4963V12.4987H16.4953V7.49805ZM15.4978 11.5012H14.4938V8.50211H15.4978V11.5012Z" fill="#000001"/>
<path id="Vector_3" d="M13.4963 16.502H12.4988V17.4995H13.4963V16.502Z" fill="#000001"/>
<path id="Vector_4" d="M13.4963 13.5029H12.4988V14.5004H13.4963V13.5029Z" fill="#000001"/>
<path id="Vector_5" d="M12.4988 14.5002H11.4947V15.4977H12.4988V14.5002Z" fill="#000001"/>
<path id="Vector_6" d="M11.4947 15.4978H10.4972V16.5019H11.4947V15.4978Z" fill="#000001"/>
<path id="Vector_7" d="M12.4988 12.4987V7.49805H9.49969V12.4987H12.4988ZM10.4972 8.50211H11.4947V11.5012H10.4972V8.50211Z" fill="#000001"/>
<path id="Vector_8" d="M10.4972 16.502H9.49969V17.4995H10.4972V16.502Z" fill="#000001"/>
<path id="Vector_9" d="M10.4972 13.5029H9.49969V14.5004H10.4972V13.5029Z" fill="#000001"/>
<path id="Vector_10" d="M8.49561 7.49805H7.49811V12.4987H8.49561V7.49805Z" fill="#000001"/>
</g>
</g>
</svg>
