<svg width="24" height="24" viewBox="0 0 24 24" fill="none" xmlns="http://www.w3.org/2000/svg">
<g id="interface-essential-alarm-bell-sleep">
<g id="Group">
<path id="Vector" d="M22.5 3.50146H21.5025V4.49896H22.5V3.50146Z" fill="#000001"/>
<path id="Vector_2" d="M21.5025 4.49902H20.4984V5.49652H21.5025V4.49902Z" fill="#000001"/>
<path id="Vector_3" d="M21.5025 2.49756H17.4994V3.50162H21.5025V2.49756Z" fill="#000001"/>
<path id="Vector_4" d="M20.4984 17.4993H19.5009V19.5008H20.4984V17.4993Z" fill="#000001"/>
<path id="Vector_5" d="M20.4984 5.49658H19.5009V6.50064H20.4984V5.49658Z" fill="#000001"/>
<path id="Vector_6" d="M19.5009 19.501H18.5034V20.4985H19.5009V19.501Z" fill="#000001"/>
<path id="Vector_7" d="M19.5009 16.502H18.5034V17.4995H19.5009V16.502Z" fill="#000001"/>
<path id="Vector_8" d="M22.5 8.5022H18.5034V9.4997H22.5V8.5022Z" fill="#000001"/>
<path id="Vector_9" d="M19.5009 6.50073H18.5034V7.49823H19.5009V6.50073Z" fill="#000001"/>
<path id="Vector_10" d="M18.5035 11.5012H17.4994V16.5018H18.5035V11.5012Z" fill="#000001"/>
<path id="Vector_11" d="M18.5035 7.49805H17.4994V8.50211H18.5035V7.49805Z" fill="#000001"/>
<path id="Vector_12" d="M18.5034 20.4985H16.5019V21.5026H18.5034V20.4985Z" fill="#000001"/>
<path id="Vector_13" d="M17.4994 18.4968H16.5019V19.5009H17.4994V18.4968Z" fill="#000001"/>
<path id="Vector_14" d="M17.4994 9.49976H16.5019V11.5013H17.4994V9.49976Z" fill="#000001"/>
<path id="Vector_15" d="M9.4997 19.5008H10.5038V20.4983H13.5028V19.5008H14.5003V18.4968H16.5019V17.4993H7.5047V18.4968H9.4997V19.5008Z" fill="#000001"/>
<path id="Vector_16" d="M16.5019 8.5022H15.5044V9.4997H16.5019V8.5022Z" fill="#000001"/>
<path id="Vector_17" d="M16.5019 21.5024H7.5047V22.4999H16.5019V21.5024Z" fill="#000001"/>
<path id="Vector_18" d="M15.5044 7.49805H13.5028V8.50211H15.5044V7.49805Z" fill="#000001"/>
<path id="Vector_19" d="M13.5028 6.50073H10.5038V7.49823H13.5028V6.50073Z" fill="#000001"/>
<path id="Vector_20" d="M10.5038 7.49805H8.5022V8.50211H10.5038V7.49805Z" fill="#000001"/>
<path id="Vector_21" d="M8.5022 8.5022H7.5047V9.4997H8.5022V8.5022Z" fill="#000001"/>
<path id="Vector_22" d="M8.5022 2.49756H7.5047V3.50162H8.5022V2.49756Z" fill="#000001"/>
<path id="Vector_23" d="M7.50468 20.4985H5.50311V21.5026H7.50468V20.4985Z" fill="#000001"/>
<path id="Vector_24" d="M7.50467 18.4968H6.50061V19.5009H7.50467V18.4968Z" fill="#000001"/>
<path id="Vector_25" d="M7.50467 9.49976H6.50061V11.5013H7.50467V9.49976Z" fill="#000001"/>
<path id="Vector_26" d="M8.50217 5.49658H6.50061V6.50064H8.50217V5.49658Z" fill="#000001"/>
<path id="Vector_27" d="M7.50467 3.50146H6.50061V4.49896H7.50467V3.50146Z" fill="#000001"/>
<path id="Vector_28" d="M7.50468 1.5H5.50311V2.4975H7.50468V1.5Z" fill="#000001"/>
<path id="Vector_29" d="M6.50061 11.5012H5.50311V16.5018H6.50061V11.5012Z" fill="#000001"/>
<path id="Vector_30" d="M6.50061 4.49902H5.50311V5.49652H6.50061V4.49902Z" fill="#000001"/>
<path id="Vector_31" d="M5.50312 19.501H4.49905V20.4985H5.50312V19.501Z" fill="#000001"/>
<path id="Vector_32" d="M5.50312 16.502H4.49905V17.4995H5.50312V16.502Z" fill="#000001"/>
<path id="Vector_33" d="M4.49906 17.4993H3.50156V19.5008H4.49906V17.4993Z" fill="#000001"/>
<path id="Vector_34" d="M4.49906 9.49976H3.50156V10.4973H4.49906V9.49976Z" fill="#000001"/>
<path id="Vector_35" d="M4.49906 12.4988H2.50406V13.4963H4.49906V12.4988Z" fill="#000001"/>
<path id="Vector_36" d="M3.50156 10.4971H2.50406V11.5011H3.50156V10.4971Z" fill="#000001"/>
<path id="Vector_37" d="M3.50156 8.5022H1.5V9.4997H3.50156V8.5022Z" fill="#000001"/>
<path id="Vector_38" d="M2.50406 11.5012H1.5V12.4987H2.50406V11.5012Z" fill="#000001"/>
</g>
</g>
</svg>
