<svg width="24" height="24" viewBox="0 0 24 24" fill="none" xmlns="http://www.w3.org/2000/svg">
<g id="internet-network-computer-download">
<g id="Group">
<path id="Vector" d="M20.5017 16.4954H3.50479V6.50073H2.50073V18.497H3.50479V19.501H9.50292V20.4985H10.5004V19.501H13.4995V20.4985H14.5035V19.501H20.5017V18.497H21.4992V6.50073H20.5017V16.4954Z" fill="#000001"/>
<path id="Vector_2" d="M20.5017 5.49658H15.5011V6.50064H20.5017V5.49658Z" fill="#000001"/>
<path id="Vector_3" d="M9.50287 21.496V20.4985H8.50537V22.5001H15.501V20.4985H14.5035V21.496H9.50287Z" fill="#000001"/>
<path id="Vector_4" d="M13.4994 3.50146H10.5004V4.49896H13.4994V3.50146Z" fill="#000001"/>
<path id="Vector_5" d="M13.4994 1.5H10.5004V2.4975H13.4994V1.5Z" fill="#000001"/>
<path id="Vector_6" d="M12.5019 14.5003V13.4963H13.4994V12.4988H14.5035V11.5013H15.501V10.4972H13.4994V5.49658H10.5004V10.4972H8.50537V11.5013H9.50287V12.4988H10.5004V13.4963H11.5044V14.5003H12.5019Z" fill="#000001"/>
<path id="Vector_7" d="M8.50539 5.49658H3.50476V6.50064H8.50539V5.49658Z" fill="#000001"/>
</g>
</g>
</svg>
