<svg width="24" height="24" viewBox="0 0 24 24" fill="none" xmlns="http://www.w3.org/2000/svg">
<g id="interface-essential-share-3">
<g id="Group">
<path id="Vector" d="M19.5009 10.4971H18.5034V20.4983H19.5009V10.4971Z" fill="#000001"/>
<path id="Vector_2" d="M18.5034 20.4985H17.4993V21.5026H18.5034V20.4985Z" fill="#000001"/>
<path id="Vector_3" d="M18.5034 9.49976H17.4993V10.4973H18.5034V9.49976Z" fill="#000001"/>
<path id="Vector_4" d="M17.4993 8.5022H15.5043V9.4997H17.4993V8.5022Z" fill="#000001"/>
<path id="Vector_5" d="M17.4994 21.5024H6.50061V22.4999H17.4994V21.5024Z" fill="#000001"/>
<path id="Vector_6" d="M11.5012 1.5V2.4975H10.5037V3.50156H9.49964V4.49906H8.50214V5.49656H7.50464V6.50062H10.5037V12.4988H13.5028V6.50062H16.5018V5.49656H15.5043V4.49906H14.5003V3.50156H13.5028V2.4975H12.4987V1.5H11.5012Z" fill="#000001"/>
<path id="Vector_7" d="M8.50217 8.5022H6.50061V9.4997H8.50217V8.5022Z" fill="#000001"/>
<path id="Vector_8" d="M6.50061 20.4985H5.50311V21.5026H6.50061V20.4985Z" fill="#000001"/>
<path id="Vector_9" d="M6.50061 9.49976H5.50311V10.4973H6.50061V9.49976Z" fill="#000001"/>
<path id="Vector_10" d="M5.50309 10.4971H4.49902V20.4983H5.50309V10.4971Z" fill="#000001"/>
</g>
</g>
</svg>
