<svg width="24" height="24" viewBox="0 0 24 24" fill="none" xmlns="http://www.w3.org/2000/svg">
<g id="interface-essential-text-input-area-2">
<g id="Group">
<path id="Vector" d="M22.5 12.0032H21.5025V17.0038H22.5V12.0032Z" fill="#000001"/>
<path id="Vector_2" d="M22.5 5.99854H21.5025V9.00416H22.5V5.99854Z" fill="#000001"/>
<path id="Vector_3" d="M21.5025 17.0039H20.4984V18.0014H21.5025V17.0039Z" fill="#000001"/>
<path id="Vector_4" d="M20.4985 8H19.501V9.00406H18.5035V10.0016H17.4994V10.9991H16.5019V12.0031H15.5044V13.0006H16.5019V13.9981H17.4994V13.0006H18.5035V12.0031H19.501V10.9991H20.4985V10.0016H21.5025V9.00406H20.4985V8Z" fill="#000001"/>
<path id="Vector_5" d="M21.5025 5.00098H18.5034V5.99848H21.5025V5.00098Z" fill="#000001"/>
<path id="Vector_6" d="M20.4985 18.0012H3.50159V18.9987H20.4985V18.0012Z" fill="#000001"/>
<path id="Vector_7" d="M17.4994 5.00098H15.5044V5.99848H17.4994V5.00098Z" fill="#000001"/>
<path id="Vector_8" d="M13.5028 13.9981V10.999H12.4988V15.0021H16.5019V13.9981H13.5028Z" fill="#000001"/>
<path id="Vector_9" d="M14.5003 12.0032H15.5044V10.9992H16.5019V10.0017H17.4994V9.00416H18.5034V8.0001H19.5009V7.0026H18.5034V5.99854H17.4994V7.0026H16.5019V8.0001H15.5044V9.00416H14.5003V10.0017H13.5028V10.9992H14.5003V12.0032Z" fill="#000001"/>
<path id="Vector_10" d="M15.5044 5.99854H14.5003V7.0026H15.5044V5.99854Z" fill="#000001"/>
<path id="Vector_11" d="M14.5003 7.00244H13.5028V7.99994H14.5003V7.00244Z" fill="#000001"/>
<path id="Vector_12" d="M12.4987 15.0022H11.5012V15.9997H12.4987V15.0022Z" fill="#000001"/>
<path id="Vector_13" d="M9.4997 15.0022H8.5022V15.9997H9.4997V15.0022Z" fill="#000001"/>
<path id="Vector_14" d="M6.50061 15.0022H5.50311V15.9997H6.50061V15.0022Z" fill="#000001"/>
<path id="Vector_15" d="M12.4988 9.00415H3.50159V10.0017H12.4988V9.00415Z" fill="#000001"/>
<path id="Vector_16" d="M3.50159 17.0039H2.50409V18.0014H3.50159V17.0039Z" fill="#000001"/>
<path id="Vector_17" d="M3.50159 10.0017H2.50409V10.9992H3.50159V10.0017Z" fill="#000001"/>
<path id="Vector_18" d="M2.50406 10.999H1.5V17.0037H2.50406V10.999Z" fill="#000001"/>
</g>
</g>
</svg>
