<svg width="24" height="24" viewBox="0 0 24 24" fill="none" xmlns="http://www.w3.org/2000/svg">
<g id="interface-essential-alert-triangle-2">
<g id="Group">
<path id="Vector" d="M21.5025 17.4994H20.4984V15.4978H19.5009V13.5028H18.4969V11.5012H17.4994V9.49969H16.5019V7.49813H15.4978V5.49656H14.5003V3.50156H13.5028V2.4975H12.4988V1.5H11.5012V2.4975H10.4972V3.50156H9.49969V5.49656H8.50219V7.49813H7.49813V9.49969H6.50062V11.5012H5.49656V13.5028H4.49906V15.4978H3.50156V17.4994H2.4975V19.5009H1.5V21.5025H2.4975V22.5H21.5025V21.5025H22.5V19.5009H21.5025V17.4994ZM14.5003 19.5009H13.5028V20.4984H10.4972V19.5009H9.49969V16.5019H10.4972V15.4978H13.5028V16.5019H14.5003V19.5009ZM14.5003 12.4988H13.5028V14.5003H10.4972V12.4988H9.49969V8.50219H10.4972V7.49813H13.5028V8.50219H14.5003V12.4988Z" fill="#000001"/>
<path id="Vector_2" d="M13.5028 9.49976H12.4988V11.5013H13.5028V9.49976Z" fill="#000001"/>
<path id="Vector_3" d="M12.4987 8.5022H11.5012V9.4997H12.4987V8.5022Z" fill="#000001"/>
</g>
</g>
</svg>
