<svg width="24" height="24" viewBox="0 0 24 24" fill="none" xmlns="http://www.w3.org/2000/svg">
<g id="interface-essential-file-error">
<g id="Group">
<path id="Vector" d="M3.50156 22.5H20.4984V6.50062H19.5009V5.50312H18.5034V4.49906H17.4994V3.50156H16.5019V2.4975H15.4978V1.5H3.50156V22.5ZM4.49906 2.4975H14.5003V7.49813H19.5009V21.5025H4.49906V2.4975Z" fill="#000001"/>
<path id="Vector_2" d="M6.50061 14.5002V15.4977H13.5028V17.4993H14.5003V15.4977H16.5019V17.4993H17.4994V14.5002H6.50061Z" fill="#000001"/>
<path id="Vector_3" d="M16.5019 9.49976H15.4978V10.4973H14.5003V11.5013H15.4978V12.4988H16.5019V11.5013H17.4994V10.4973H16.5019V9.49976Z" fill="#000001"/>
<path id="Vector_4" d="M16.5019 17.4993H14.5003V18.4968H16.5019V17.4993Z" fill="#000001"/>
<path id="Vector_5" d="M7.49811 12.4988H8.50217V11.5013H9.49967V10.4973H8.50217V9.49976H7.49811V10.4973H6.50061V11.5013H7.49811V12.4988Z" fill="#000001"/>
</g>
</g>
</svg>
