<svg width="24" height="24" viewBox="0 0 24 24" fill="none" xmlns="http://www.w3.org/2000/svg">
<g id="interface-essential-shrink-2">
<g id="Group">
<path id="Vector" d="M22.5 8.5022H21.4959V10.4972H22.5V8.5022Z" fill="#000001"/>
<path id="Vector_2" d="M22.5 2.49756H21.4959V4.49912H22.5V2.49756Z" fill="#000001"/>
<path id="Vector_3" d="M21.4959 4.49902H20.4984V5.49652H21.4959V4.49902Z" fill="#000001"/>
<path id="Vector_4" d="M21.4959 1.5H19.4944V2.4975H21.4959V1.5Z" fill="#000001"/>
<path id="Vector_5" d="M21.496 10.4971H13.4963V11.5011H21.496V10.4971Z" fill="#000001"/>
<path id="Vector_6" d="M20.4984 5.49658H19.4944V6.50064H20.4984V5.49658Z" fill="#000001"/>
<path id="Vector_7" d="M18.4969 7.49823H17.4994V8.5023H21.496V7.49823H19.4944V6.50073H18.4969V7.49823Z" fill="#000001"/>
<path id="Vector_8" d="M19.4944 2.49756H18.4969V3.50162H19.4944V2.49756Z" fill="#000001"/>
<path id="Vector_9" d="M18.4969 3.50146H17.4994V4.49896H18.4969V3.50146Z" fill="#000001"/>
<path id="Vector_10" d="M15.4978 6.50068H16.4953V5.49662H17.4994V4.49912H16.4953V2.49756H15.4978V6.50068Z" fill="#000001"/>
<path id="Vector_11" d="M15.4978 1.5H13.4963V2.4975H15.4978V1.5Z" fill="#000001"/>
<path id="Vector_12" d="M13.4963 2.49756H12.4988V10.4972H13.4963V2.49756Z" fill="#000001"/>
<path id="Vector_13" d="M11.4947 13.5029H10.4972V21.5026H11.4947V13.5029Z" fill="#000001"/>
<path id="Vector_14" d="M10.4972 21.5024H8.49561V22.4999H10.4972V21.5024Z" fill="#000001"/>
<path id="Vector_15" d="M8.49564 17.4993H7.49814V18.4968H6.49408V19.5008H7.49814V21.5024H8.49564V17.4993Z" fill="#000001"/>
<path id="Vector_16" d="M6.49408 19.501H5.49658V20.4985H6.49408V19.501Z" fill="#000001"/>
<path id="Vector_17" d="M5.49658 20.4985H4.49908V21.5026H5.49658V20.4985Z" fill="#000001"/>
<path id="Vector_18" d="M5.49656 16.5019H6.49406V15.4978H2.4975V16.5019H4.49906V17.4994H5.49656V16.5019Z" fill="#000001"/>
<path id="Vector_19" d="M4.49906 17.4993H3.495V18.4968H4.49906V17.4993Z" fill="#000001"/>
<path id="Vector_20" d="M10.4972 12.4988H2.4975V13.5028H10.4972V12.4988Z" fill="#000001"/>
<path id="Vector_21" d="M4.49906 21.5024H2.4975V22.4999H4.49906V21.5024Z" fill="#000001"/>
<path id="Vector_22" d="M3.495 18.4968H2.4975V19.5009H3.495V18.4968Z" fill="#000001"/>
<path id="Vector_23" d="M2.4975 19.501H1.5V21.5025H2.4975V19.501Z" fill="#000001"/>
<path id="Vector_24" d="M2.4975 13.5029H1.5V15.4979H2.4975V13.5029Z" fill="#000001"/>
</g>
</g>
</svg>
