<svg width="24" height="24" viewBox="0 0 24 24" fill="none" xmlns="http://www.w3.org/2000/svg">
<g id="interface-essential-crown">
<g id="Group">
<path id="Vector" d="M21.9979 7.50146H21.0004V9.49646H21.9979V7.50146Z" fill="#000001"/>
<path id="Vector_2" d="M21.0005 6.49756H18.9989V7.50162H21.0005V6.49756Z" fill="#000001"/>
<path id="Vector_3" d="M18.9989 13.4996H20.003V10.5005H21.0005V9.49646H18.9989V7.50146H18.0014V10.5005H18.9989V13.4996Z" fill="#000001"/>
<path id="Vector_4" d="M18.0014 14.497H16.9973V15.5011H18.0014V16.4986H5.9986V15.5011H7.00266V14.497H5.9986V13.4995H5.0011V18.5001H5.9986V19.4976H18.0014V18.5001H18.9989V13.4995H18.0014V14.497Z" fill="#000001"/>
<path id="Vector_5" d="M18.0014 10.5005H16.9973V11.498H18.0014V10.5005Z" fill="#000001"/>
<path id="Vector_6" d="M16.9973 11.498H15.9998V12.5021H16.9973V11.498Z" fill="#000001"/>
<path id="Vector_7" d="M15.9998 12.5022H15.0023V13.4997H15.9998V12.5022Z" fill="#000001"/>
<path id="Vector_8" d="M15.9999 14.4971H13.9983V15.5011H15.9999V14.4971Z" fill="#000001"/>
<path id="Vector_9" d="M15.0024 10.5005H13.9983V12.5021H15.0024V10.5005Z" fill="#000001"/>
<path id="Vector_10" d="M13.9983 8.49902H13.0008V10.5006H13.9983V8.49902Z" fill="#000001"/>
<path id="Vector_11" d="M13.9983 5.5H13.0008V7.50156H13.9983V5.5Z" fill="#000001"/>
<path id="Vector_12" d="M13.0008 7.50146H10.9992V8.49896H13.0008V7.50146Z" fill="#000001"/>
<path id="Vector_13" d="M13.0008 4.50244H10.9992V5.49994H13.0008V4.50244Z" fill="#000001"/>
<path id="Vector_14" d="M13.0008 13.4995H10.9992V15.5011H13.0008V13.4995Z" fill="#000001"/>
<path id="Vector_15" d="M10.9992 8.49902H10.0017V10.5006H10.9992V8.49902Z" fill="#000001"/>
<path id="Vector_16" d="M10.9992 5.5H10.0017V7.50156H10.9992V5.5Z" fill="#000001"/>
<path id="Vector_17" d="M10.0017 10.5005H8.99762V12.5021H10.0017V10.5005Z" fill="#000001"/>
<path id="Vector_18" d="M10.0017 14.4971H8.00012V15.5011H10.0017V14.4971Z" fill="#000001"/>
<path id="Vector_19" d="M8.99762 12.5022H8.00012V13.4997H8.99762V12.5022Z" fill="#000001"/>
<path id="Vector_20" d="M8.00012 11.498H7.00262V12.5021H8.00012V11.498Z" fill="#000001"/>
<path id="Vector_21" d="M7.00266 10.5005H5.9986V11.498H7.00266V10.5005Z" fill="#000001"/>
<path id="Vector_22" d="M2.99951 9.49646V10.5005H4.00357V13.4996H5.00107V10.5005H5.99857V7.50146H5.00107V9.49646H2.99951Z" fill="#000001"/>
<path id="Vector_23" d="M5.00107 6.49756H2.99951V7.50162H5.00107V6.49756Z" fill="#000001"/>
<path id="Vector_24" d="M2.99951 7.50146H2.00201V9.49646H2.99951V7.50146Z" fill="#000001"/>
</g>
</g>
</svg>
