<svg width="24" height="24" viewBox="0 0 24 24" fill="none" xmlns="http://www.w3.org/2000/svg">
<g id="interface-essential-clip-2">
<g id="Group">
<path id="Vector" d="M17.0006 10.9993H15.9966V18.0015H17.0006V10.9993Z" fill="#000001"/>
<path id="Vector_2" d="M15.9966 18.0015H14.9991V19.0055H15.9966V18.0015Z" fill="#000001"/>
<path id="Vector_3" d="M14.9991 19.0054H14.0016V20.0029H14.9991V19.0054Z" fill="#000001"/>
<path id="Vector_4" d="M14.9991 5.00098H14.0016V15.9997H14.9991V5.00098Z" fill="#000001"/>
<path id="Vector_5" d="M14.0016 15.9998H12.9975V17.0038H14.0016V15.9998Z" fill="#000001"/>
<path id="Vector_6" d="M14.0016 4.00366H12.9975V5.00116H14.0016V4.00366Z" fill="#000001"/>
<path id="Vector_7" d="M14.0016 20.0029H9.99847V21.0004H14.0016V20.0029Z" fill="#000001"/>
<path id="Vector_8" d="M12.9975 17.0039H12V18.0014H12.9975V17.0039Z" fill="#000001"/>
<path id="Vector_9" d="M12 15.9998H10.996V17.0038H12V15.9998Z" fill="#000001"/>
<path id="Vector_10" d="M10.996 8.00024H9.99847V15.9999H10.996V8.00024Z" fill="#000001"/>
<path id="Vector_11" d="M12.9975 2.99951H9.00098V4.00357H12.9975V2.99951Z" fill="#000001"/>
<path id="Vector_12" d="M9.99848 19.0054H9.00098V20.0029H9.99848V19.0054Z" fill="#000001"/>
<path id="Vector_13" d="M9.00095 18.0015H7.99689V19.0055H9.00095V18.0015Z" fill="#000001"/>
<path id="Vector_14" d="M9.00095 4.00366H7.99689V5.00116H9.00095V4.00366Z" fill="#000001"/>
<path id="Vector_15" d="M7.99689 5.00098H6.99939V18.0013H7.99689V5.00098Z" fill="#000001"/>
</g>
</g>
</svg>
