<svg width="24" height="24" viewBox="0 0 24 24" fill="none" xmlns="http://www.w3.org/2000/svg">
<g id="interface-essential-dial-pad-1">
<g id="Group">
<path id="Vector" d="M21.4992 3.50162H20.4952V2.49756H17.4961V3.50162H16.4986V6.50068H17.4961V7.49818H20.4952V6.50068H21.4992V3.50162Z" fill="#000001"/>
<path id="Vector_2" d="M20.4952 18.4968H19.4977V19.5009H20.4952V18.4968Z" fill="#000001"/>
<path id="Vector_3" d="M20.4952 13.4963H21.4992V10.4973H20.4952V9.49976H17.4961V10.4973H16.4986V13.4963H17.4961V14.5004H20.4952V13.4963Z" fill="#000001"/>
<path id="Vector_4" d="M19.4977 19.501H18.5002V20.4985H19.4977V19.501Z" fill="#000001"/>
<path id="Vector_5" d="M19.4977 17.4995H18.5002V18.497H19.4977V17.4995Z" fill="#000001"/>
<path id="Vector_6" d="M18.5002 20.4985H17.4961V21.5026H18.5002V20.4985Z" fill="#000001"/>
<path id="Vector_7" d="M18.5002 16.502H17.4961V17.4995H18.5002V16.502Z" fill="#000001"/>
<path id="Vector_8" d="M13.4995 21.5026V20.4985H14.497V17.4995H13.4995V16.502H10.5005V17.4995H9.4964V20.4985H10.5005V21.5026H13.4995Z" fill="#000001"/>
<path id="Vector_9" d="M14.497 10.4973H13.4995V9.49976H10.5005V10.4973H9.4964V13.4963H10.5005V14.5004H13.4995V13.4963H14.497V10.4973Z" fill="#000001"/>
<path id="Vector_10" d="M14.497 3.50162H13.4995V2.49756H10.5005V3.50162H9.4964V6.50068H10.5005V7.49818H13.4995V6.50068H14.497V3.50162Z" fill="#000001"/>
<path id="Vector_11" d="M6.49738 20.4985H5.49988V21.5026H6.49738V20.4985Z" fill="#000001"/>
<path id="Vector_12" d="M6.49738 16.502H5.49988V17.4995H6.49738V16.502Z" fill="#000001"/>
<path id="Vector_13" d="M6.49736 13.4963H7.50142V10.4973H6.49736V9.49976H3.49829V10.4973H2.50079V13.4963H3.49829V14.5004H6.49736V13.4963Z" fill="#000001"/>
<path id="Vector_14" d="M7.50142 3.50162H6.49736V2.49756H3.49829V3.50162H2.50079V6.50068H3.49829V7.49818H6.49736V6.50068H7.50142V3.50162Z" fill="#000001"/>
<path id="Vector_15" d="M5.49985 19.501H4.49579V20.4985H5.49985V19.501Z" fill="#000001"/>
<path id="Vector_16" d="M5.49985 17.4995H4.49579V18.497H5.49985V17.4995Z" fill="#000001"/>
<path id="Vector_17" d="M4.49579 18.4968H3.49829V19.5009H4.49579V18.4968Z" fill="#000001"/>
</g>
</g>
</svg>
