<svg width="24" height="24" viewBox="0 0 24 24" fill="none" xmlns="http://www.w3.org/2000/svg">
<g id="interface-essential-loading-75-percent-1">
<g id="Group">
<path id="Vector" d="M4.50565 7.49805H3.50159V9.49961H4.50565V7.49805Z" fill="#000001"/>
<path id="Vector_2" d="M5.50312 5.49658H4.50562V7.49814H5.50312V5.49658Z" fill="#000001"/>
<path id="Vector_3" d="M7.50468 4.49902H5.50311V5.49652H7.50468V4.49902Z" fill="#000001"/>
<path id="Vector_4" d="M9.4997 3.50146H7.5047V4.49896H9.4997V3.50146Z" fill="#000001"/>
<path id="Vector_5" d="M10.5038 16.502H9.49969V17.4995H10.5038V16.502Z" fill="#000001"/>
<path id="Vector_6" d="M10.5038 13.5029H9.49969V14.5004H10.5038V13.5029Z" fill="#000001"/>
<path id="Vector_7" d="M10.5038 12.4987H11.5013V7.49805H8.5022V8.50211H10.5038V12.4987Z" fill="#000001"/>
<path id="Vector_8" d="M11.5012 15.4978H10.5037V16.5019H11.5012V15.4978Z" fill="#000001"/>
<path id="Vector_9" d="M12.5053 14.5002H11.5012V15.4977H12.5053V14.5002Z" fill="#000001"/>
<path id="Vector_10" d="M13.5028 16.502H12.5053V17.4995H13.5028V16.502Z" fill="#000001"/>
<path id="Vector_11" d="M13.5028 13.5029H12.5053V14.5004H13.5028V13.5029Z" fill="#000001"/>
<path id="Vector_12" d="M15.5044 12.4987V9.49961H13.5028V8.50211H15.5044V7.49805H12.5053V10.4971H14.5003V11.5012H12.5053V12.4987H15.5044Z" fill="#000001"/>
<path id="Vector_13" d="M2.50406 16.5019H3.50156V18.4969H4.50562V19.5009H5.50312V20.4984H7.50469V21.5025H9.49969V22.5H14.5003V21.5025H16.5019V20.4984H18.5034V19.5009H19.5009V18.4969H20.505V16.5019H21.5025V14.5003H22.5V9.49969H21.5025V7.49813H20.505V5.49656H19.5009V4.49906H18.5034V3.50156H16.5019V2.4975H14.5003V1.5H11.5012V2.4975H9.49969V3.50156H11.5012V4.49906H13.5028V5.49656H15.5044V6.50062H17.5059V8.50219H18.5034V10.4972H19.5009V13.5028H18.5034V15.4978H17.5059V17.4994H15.5044V18.4969H13.5028V19.5009H10.5038V18.4969H8.50219V17.4994H6.50062V15.4978H5.50312V13.5028H4.50562V11.5012H3.50156V9.49969H2.50406V11.5012H1.5V14.5003H2.50406V16.5019Z" fill="#000001"/>
</g>
</g>
</svg>
