<svg width="24" height="24" viewBox="0 0 24 24" fill="none" xmlns="http://www.w3.org/2000/svg">
<g id="internet-network-wifi-monitor">
<g id="Group">
<path id="Vector" d="M22.5 6.50073H21.496V11.5014H22.5V6.50073Z" fill="#000001"/>
<path id="Vector_2" d="M21.4959 4.49902H20.4984V6.50059H21.4959V4.49902Z" fill="#000001"/>
<path id="Vector_3" d="M20.4985 3.50146H19.501V4.49896H20.4985V3.50146Z" fill="#000001"/>
<path id="Vector_4" d="M19.5009 7.49805H18.4968V10.4971H19.5009V7.49805Z" fill="#000001"/>
<path id="Vector_5" d="M19.501 2.49756H17.4994V3.50162H19.501V2.49756Z" fill="#000001"/>
<path id="Vector_6" d="M7.49812 19.5009V20.4984H8.50219V19.5009H11.5012V20.4984H12.4987V19.5009H17.4994V18.4968H18.4969V13.4962H17.4994V16.4952H2.4975V7.49805H1.5V18.4968H2.4975V19.5009H7.49812Z" fill="#000001"/>
<path id="Vector_7" d="M18.4969 6.50073H17.4994V7.49823H18.4969V6.50073Z" fill="#000001"/>
<path id="Vector_8" d="M17.4993 5.49658H16.5018V6.50064H17.4993V5.49658Z" fill="#000001"/>
<path id="Vector_9" d="M17.4994 1.5H12.4988V2.4975H17.4994V1.5Z" fill="#000001"/>
<path id="Vector_10" d="M16.5019 8.49561H15.4978V10.4972H16.5019V8.49561Z" fill="#000001"/>
<path id="Vector_11" d="M16.5018 4.49902H13.4962V5.49652H16.5018V4.49902Z" fill="#000001"/>
<path id="Vector_12" d="M15.4978 7.49805H13.4962V8.49555H15.4978V7.49805Z" fill="#000001"/>
<path id="Vector_13" d="M15.4978 10.4971H13.4962V11.5011H15.4978V10.4971Z" fill="#000001"/>
<path id="Vector_14" d="M13.4963 8.49561H12.4988V10.4972H13.4963V8.49561Z" fill="#000001"/>
<path id="Vector_15" d="M7.49811 21.496V20.4985H6.50061V22.5001H13.4962V20.4985H12.4987V21.496H7.49811Z" fill="#000001"/>
<path id="Vector_16" d="M11.5013 13.4963H10.4972V14.5004H11.5013V13.4963Z" fill="#000001"/>
<path id="Vector_17" d="M10.4971 11.5012H9.49963V12.4987H10.4971V11.5012Z" fill="#000001"/>
<path id="Vector_18" d="M10.4972 14.5002H6.50061V15.4977H10.4972V14.5002Z" fill="#000001"/>
<path id="Vector_19" d="M7.49811 11.5012H6.50061V12.4987H7.49811V11.5012Z" fill="#000001"/>
<path id="Vector_20" d="M6.50064 13.4963H5.49658V14.5004H6.50064V13.4963Z" fill="#000001"/>
<path id="Vector_21" d="M10.4972 6.50073H2.49756V7.49823H10.4972V6.50073Z" fill="#000001"/>
</g>
</g>
</svg>
