<svg width="24" height="24" viewBox="0 0 24 24" fill="none" xmlns="http://www.w3.org/2000/svg">
<g id="interface-essential-key">
<g id="Group">
<path id="Vector" d="M17.9982 4.49902H17.0007V9.49965H17.9982V4.49902Z" fill="#000001"/>
<path id="Vector_2" d="M17.0006 18.5034H15.9966V19.5009H17.0006V18.5034Z" fill="#000001"/>
<path id="Vector_3" d="M17.0006 14.5002H15.9966V15.4977H17.0006V14.5002Z" fill="#000001"/>
<path id="Vector_4" d="M17.0006 9.49976H15.9966V10.4973H17.0006V9.49976Z" fill="#000001"/>
<path id="Vector_5" d="M17.0006 3.50146H15.9966V4.49896H17.0006V3.50146Z" fill="#000001"/>
<path id="Vector_6" d="M15.9966 10.4971H14.9991V11.5011H15.9966V10.4971Z" fill="#000001"/>
<path id="Vector_7" d="M15.9966 2.49756H14.9991V3.50162H15.9966V2.49756Z" fill="#000001"/>
<path id="Vector_8" d="M12.9975 19.501V21.5025H14.0016V20.4985H15.9966V19.501H12.9975Z" fill="#000001"/>
<path id="Vector_9" d="M12.9975 15.4978V18.5034H15.9966V17.4994H14.0016V16.5019H15.9966V15.4978H12.9975Z" fill="#000001"/>
<path id="Vector_10" d="M14.9991 12.4987V11.5012H12.9975V14.5003H15.9966V13.5028H14.0016V12.4987H14.9991Z" fill="#000001"/>
<path id="Vector_11" d="M12.9975 6.50053H14.0016V4.49896H12.9975V5.50303H12V4.49896H12.9975V3.50146H10.996V4.49896H9.99847V6.50053H10.996V7.49803H12.9975V6.50053Z" fill="#000001"/>
<path id="Vector_12" d="M12.9975 21.5024H10.996V22.4999H12.9975V21.5024Z" fill="#000001"/>
<path id="Vector_13" d="M10.996 11.5012H9.00098V12.4987H9.99848V21.5025H10.996V11.5012Z" fill="#000001"/>
<path id="Vector_14" d="M14.9991 1.5H9.00098V2.4975H14.9991V1.5Z" fill="#000001"/>
<path id="Vector_15" d="M9.00095 10.4971H7.99689V11.5011H9.00095V10.4971Z" fill="#000001"/>
<path id="Vector_16" d="M9.00095 2.49756H7.99689V3.50162H9.00095V2.49756Z" fill="#000001"/>
<path id="Vector_17" d="M7.99689 9.49976H6.99939V10.4973H7.99689V9.49976Z" fill="#000001"/>
<path id="Vector_18" d="M7.99689 3.50146H6.99939V4.49896H7.99689V3.50146Z" fill="#000001"/>
<path id="Vector_19" d="M6.99939 4.49902H6.00189V9.49965H6.99939V4.49902Z" fill="#000001"/>
</g>
</g>
</svg>
