<svg width="24" height="24" viewBox="0 0 24 24" fill="none" xmlns="http://www.w3.org/2000/svg">
<g id="interface-essential-flip-vertical-down">
<g id="Group">
<path id="Vector" d="M21.4959 2.50415H20.4984V11.5013H19.5009V12.4988H22.5V11.5013H21.4959V2.50415Z" fill="#000001"/>
<path id="Vector_2" d="M21.4959 18.5034H20.4984V21.5025H21.4959V18.5034Z" fill="#000001"/>
<path id="Vector_3" d="M21.4959 13.5029H20.4984V16.502H21.4959V13.5029Z" fill="#000001"/>
<path id="Vector_4" d="M20.4985 1.5H3.50159V2.50406H20.4985V1.5Z" fill="#000001"/>
<path id="Vector_5" d="M20.4985 21.5024H17.4994V22.4999H20.4985V21.5024Z" fill="#000001"/>
<path id="Vector_6" d="M18.4969 11.5012H16.4953V12.4987H18.4969V11.5012Z" fill="#000001"/>
<path id="Vector_7" d="M9.49967 14.5004V15.5045H8.49561V16.502H15.4978V9.49979H14.5003V10.5039H13.4962V11.5014H12.4987V10.5039H11.5012V8.5023H12.4987V7.50479H14.5003V6.50073H10.4972V7.50479H9.49967V9.49979H8.49561V12.4989H9.49967V13.5029H10.4972V14.5004H9.49967Z" fill="#000001"/>
<path id="Vector_8" d="M15.4978 21.5024H12.4988V22.4999H15.4978V21.5024Z" fill="#000001"/>
<path id="Vector_9" d="M11.5012 21.5024H8.49561V22.4999H11.5012V21.5024Z" fill="#000001"/>
<path id="Vector_10" d="M7.49814 11.5012H5.49658V12.4987H7.49814V11.5012Z" fill="#000001"/>
<path id="Vector_11" d="M6.50065 21.5024H3.50159V22.4999H6.50065V21.5024Z" fill="#000001"/>
<path id="Vector_12" d="M3.50156 18.5034H2.4975V21.5025H3.50156V18.5034Z" fill="#000001"/>
<path id="Vector_13" d="M3.50156 13.5029H2.4975V16.502H3.50156V13.5029Z" fill="#000001"/>
<path id="Vector_14" d="M2.4975 11.5013H1.5V12.4988H4.49906V11.5013H3.50156V2.50415H2.4975V11.5013Z" fill="#000001"/>
</g>
</g>
</svg>
