<svg width="24" height="24" viewBox="0 0 24 24" fill="none" xmlns="http://www.w3.org/2000/svg">
<g id="interface-essential-blutooth">
<g id="Group">
<path id="Vector" d="M22.5 9.49976H21.4959V14.5004H22.5V9.49976Z" fill="#000001"/>
<path id="Vector_2" d="M21.4959 14.5002H20.4984V16.5018H21.4959V14.5002Z" fill="#000001"/>
<path id="Vector_3" d="M21.4959 7.49805H20.4984V9.49961H21.4959V7.49805Z" fill="#000001"/>
<path id="Vector_4" d="M20.4984 16.502H19.5009V18.497H20.4984V16.502Z" fill="#000001"/>
<path id="Vector_5" d="M20.4984 5.50317H19.5009V7.49817H20.4984V5.50317Z" fill="#000001"/>
<path id="Vector_6" d="M19.501 18.4968H18.4969V19.5009H19.501V18.4968Z" fill="#000001"/>
<path id="Vector_7" d="M19.501 4.49902H18.4969V5.50309H19.501V4.49902Z" fill="#000001"/>
<path id="Vector_8" d="M18.4969 19.501H16.4953V20.4985H18.4969V19.501Z" fill="#000001"/>
<path id="Vector_9" d="M18.4969 3.50146H16.4953V4.49896H18.4969V3.50146Z" fill="#000001"/>
<path id="Vector_10" d="M16.4953 7.49809H15.4978V6.50059H14.5003V5.50309H13.4962V4.49902H11.5012V10.4971H10.4972V9.49965H9.49967V8.50215H8.49561V7.49809H7.49811V6.50059H6.50061V8.50215H7.49811V9.49965H8.49561V10.4971H9.49967V11.5012H10.4972V12.4987H9.49967V13.5028H8.49561V14.5003H7.49811V15.4978H6.50061V17.4993H7.49811V16.5018H8.49561V15.4978H9.49967V14.5003H10.4972V13.5028H11.5012V19.5009H13.4962V18.4968H14.5003V17.4993H15.4978V16.5018H16.4953V15.4978H17.4994V14.5003H16.4953V13.5028H15.4978V12.4987H14.5003V11.5012H15.4978V10.4971H16.4953V9.49965H17.4994V8.50215H16.4953V7.49809ZM15.4978 14.5003V15.4978H14.5003V16.5018H13.4962V17.4993H12.4987V12.4987H13.4962V13.5028H14.5003V14.5003H15.4978ZM15.4978 9.49965H14.5003V10.4971H13.4962V11.5012H12.4987V6.50059H13.4962V7.49809H14.5003V8.50215H15.4978V9.49965Z" fill="#000001"/>
<path id="Vector_11" d="M16.4953 20.4985H14.5003V21.5026H16.4953V20.4985Z" fill="#000001"/>
<path id="Vector_12" d="M16.4953 2.49756H14.5003V3.50162H16.4953V2.49756Z" fill="#000001"/>
<path id="Vector_13" d="M14.5003 21.5024H9.49969V22.4999H14.5003V21.5024Z" fill="#000001"/>
<path id="Vector_14" d="M14.5003 1.5H9.49969V2.4975H14.5003V1.5Z" fill="#000001"/>
<path id="Vector_15" d="M9.4997 20.4985H7.49814V21.5026H9.4997V20.4985Z" fill="#000001"/>
<path id="Vector_16" d="M9.4997 2.49756H7.49814V3.50162H9.4997V2.49756Z" fill="#000001"/>
<path id="Vector_17" d="M7.49811 19.501H5.49655V20.4985H7.49811V19.501Z" fill="#000001"/>
<path id="Vector_18" d="M7.49811 3.50146H5.49655V4.49896H7.49811V3.50146Z" fill="#000001"/>
<path id="Vector_19" d="M5.49655 18.4968H4.49905V19.5009H5.49655V18.4968Z" fill="#000001"/>
<path id="Vector_20" d="M5.49655 4.49902H4.49905V5.50309H5.49655V4.49902Z" fill="#000001"/>
<path id="Vector_21" d="M4.49906 16.502H3.50156V18.497H4.49906V16.502Z" fill="#000001"/>
<path id="Vector_22" d="M4.49906 5.50317H3.50156V7.49817H4.49906V5.50317Z" fill="#000001"/>
<path id="Vector_23" d="M3.50156 14.5002H2.4975V16.5018H3.50156V14.5002Z" fill="#000001"/>
<path id="Vector_24" d="M3.50156 7.49805H2.4975V9.49961H3.50156V7.49805Z" fill="#000001"/>
<path id="Vector_25" d="M2.4975 9.49976H1.5V14.5004H2.4975V9.49976Z" fill="#000001"/>
</g>
</g>
</svg>
