<svg width="24" height="24" viewBox="0 0 24 24" fill="none" xmlns="http://www.w3.org/2000/svg">
<g id="interface-essential-zoom-in">
<g id="Group">
<path id="Vector" d="M17.0006 14.9991H16.0031V15.9966H14.9991V17.0007H13.0041V17.9982H14.9991V18.9957H16.0031V19.9997H17.0006V20.9972H17.9981V22.0013H21.0037V20.9972H22.0012V17.9982H21.0037V17.0007H19.9997V15.9966H19.0022V14.9991H17.9981V12.9976H17.0006V14.9991ZM17.9981 17.0007H19.0022V17.9982H19.9997V18.9957H21.0037V19.9997H19.9997V18.9957H19.0022V17.9982H17.9981V17.0007Z" fill="#000001"/>
<path id="Vector_2" d="M19.0022 7.99683H17.9981V12.9975H19.0022V7.99683Z" fill="#000001"/>
<path id="Vector_3" d="M17.9981 5.99536H17.0006V7.99692H17.9981V5.99536Z" fill="#000001"/>
<path id="Vector_4" d="M17.0006 4.9978H16.0031V5.9953H17.0006V4.9978Z" fill="#000001"/>
<path id="Vector_5" d="M16.0031 4.00024H14.9991V4.99774H16.0031V4.00024Z" fill="#000001"/>
<path id="Vector_6" d="M9.00092 14.9991H12V12H14.999V9.00099H12V5.99536H9.00092V9.00099H6.00186V12H9.00092V14.9991Z" fill="#000001"/>
<path id="Vector_7" d="M14.9991 2.99634H13.0041V4.0004H14.9991V2.99634Z" fill="#000001"/>
<path id="Vector_8" d="M13.0041 17.998H8.00345V18.9955H13.0041V17.998Z" fill="#000001"/>
<path id="Vector_9" d="M13.0041 1.99878H8.00345V2.99628H13.0041V1.99878Z" fill="#000001"/>
<path id="Vector_10" d="M8.00342 17.0007H6.00186V17.9982H8.00342V17.0007Z" fill="#000001"/>
<path id="Vector_11" d="M8.00342 2.99634H6.00186V4.0004H8.00342V2.99634Z" fill="#000001"/>
<path id="Vector_12" d="M6.00186 15.9966H5.00436V17.0006H6.00186V15.9966Z" fill="#000001"/>
<path id="Vector_13" d="M6.00186 4.00024H5.00436V4.99774H6.00186V4.00024Z" fill="#000001"/>
<path id="Vector_14" d="M5.00437 14.999H4.00031V15.9965H5.00437V14.999Z" fill="#000001"/>
<path id="Vector_15" d="M5.00437 4.9978H4.00031V5.9953H5.00437V4.9978Z" fill="#000001"/>
<path id="Vector_16" d="M4.00031 12.9976H3.00281V14.9991H4.00031V12.9976Z" fill="#000001"/>
<path id="Vector_17" d="M4.00031 5.99536H3.00281V7.99692H4.00031V5.99536Z" fill="#000001"/>
<path id="Vector_18" d="M3.00281 7.99683H1.99875V12.9975H3.00281V7.99683Z" fill="#000001"/>
</g>
</g>
</svg>
