<svg width="24" height="24" viewBox="0 0 24 24" fill="none" xmlns="http://www.w3.org/2000/svg">
<g id="interface-essential-synchronize-arrows-square-2">
<g id="Group">
<path id="Vector" d="M14.5003 19.9963H6.50061V21.0004H14.5003V19.9963Z" fill="#000001"/>
<path id="Vector_2" d="M6.50061 18.9988H5.50311V19.9963H6.50061V18.9988Z" fill="#000001"/>
<path id="Vector_3" d="M5.50312 14.9958H8.50219V13.9983H7.50469V13.0008H6.50062V11.9968H5.50312V10.9993H4.50562V11.9968H3.50156V13.0008H2.50406V13.9983H1.5V14.9958H4.50562V18.999H5.50312V14.9958Z" fill="#000001"/>
<path id="Vector_4" d="M19.5009 8.99754V5.00098H18.5034V8.99754H15.5044V9.99504H16.5019V10.9991H17.5059V11.9966H18.5034V13.0007H19.5009V11.9966H20.505V10.9991H21.5025V9.99504H22.5V8.99754H19.5009Z" fill="#000001"/>
<path id="Vector_5" d="M18.5035 3.99707H17.506V5.00113H18.5035V3.99707Z" fill="#000001"/>
<path id="Vector_6" d="M17.5059 2.99951H9.49969V3.99701H17.5059V2.99951Z" fill="#000001"/>
</g>
</g>
</svg>
