<svg width="24" height="24" viewBox="0 0 24 24" fill="none" xmlns="http://www.w3.org/2000/svg">
<g id="interface-essential-loading-circle-1">
<g id="Group">
<path id="Vector" d="M18.0014 10.9958V14.0015H21.0005V10.9958H18.0014ZM20.003 12.9974H18.9989V11.9999H20.0062L20.003 12.9974Z" fill="#000001"/>
<path id="Vector_2" d="M18.9989 17.0007H16.0031V19.9998H19.0022L18.9989 17.0007ZM18.0014 18.9957H17.0039V17.9982H18.0014V18.9957Z" fill="#000001"/>
<path id="Vector_3" d="M20.0062 9.00087V4.00024H15.0056V9.00087H20.0062ZM16.0031 4.99774H19.0022V7.99681H16.0031V4.99774Z" fill="#000001"/>
<path id="Vector_4" d="M13.9983 1.99878H9.00421V6.9994H13.9983V1.99878ZM13.0008 5.99534H10.0017V2.99628H13.0008V5.99534Z" fill="#000001"/>
<path id="Vector_5" d="M13.0008 18.9956H10.0017V22.0012H13.0008V18.9956Z" fill="#000001"/>
<path id="Vector_6" d="M7.00266 17.0007H4.0036V19.9998H7.00266V17.0007Z" fill="#000001"/>
<path id="Vector_7" d="M5.9986 5.99536H5.0011V6.99942H5.9986V5.99536Z" fill="#000001"/>
<path id="Vector_8" d="M4.00357 12H2.99951V12.9975H4.00357V12Z" fill="#000001"/>
</g>
</g>
</svg>
