<svg width="24" height="24" viewBox="0 0 24 24" fill="none" xmlns="http://www.w3.org/2000/svg">
<g id="interface-essential-paginate-filter-heart">
<g id="Group">
<path id="Vector" d="M22.0013 2.99634H20.9972V17.9982H22.0013V2.99634Z" fill="#000001"/>
<path id="Vector_2" d="M17.9982 22.0012V20.9971H18.9957V18.9955H20.9972V17.998H5.99534V18.9955H6.9994V19.9996H7.9969V18.9955H9.99846V19.9996H10.996V18.9955H12.9975V19.9996H13.995V18.9955H15.9966V19.9996H17.0007V18.9955H17.9982V19.9996H17.0007V20.9971H14.9991V19.9996H13.995V20.9971H12V19.9996H10.996V20.9971H9.00096V19.9996H7.9969V20.9971H5.99534V19.9996H4.99784V20.9971H2.99628V22.0012H17.9982Z" fill="#000001"/>
<path id="Vector_3" d="M9.99848 12.0001H10.996V12.9976H12V14.0017H12.9975V14.9992H13.995V14.0017H14.9991V12.9976H15.9966V12.0001H17.0007V10.9961H17.9982V7.99701H17.0007V6.99951H13.995V7.99701H12.9975V6.99951H9.99848V7.99701H9.00098V10.9961H9.99848V12.0001Z" fill="#000001"/>
<path id="Vector_4" d="M20.9972 1.99878H5.99536V2.99628H20.9972V1.99878Z" fill="#000001"/>
<path id="Vector_5" d="M4.99787 18.9956H4.00037V19.9997H4.99787V18.9956Z" fill="#000001"/>
<path id="Vector_6" d="M4.00034 18.9957V17.9982H2.99628V15.9967H4.00034V14.9991H2.99628V12.9976H4.00034V12.0001H2.99628V9.99853H4.00034V9.00103H2.99628V6.99946H4.00034V5.9954H4.99784V6.99946H4.00034V7.99696H4.99784V9.99853H4.00034V10.996H4.99784V12.9976H4.00034V14.0016H4.99784V15.9967H4.00034V17.0007H4.99784V17.9982H5.99534V2.99634H4.99784V4.9979H2.99628V5.9954H1.99878V20.9973H2.99628V18.9957H4.00034Z" fill="#000001"/>
</g>
</g>
</svg>
