<svg width="24" height="24" viewBox="0 0 24 24" fill="none" xmlns="http://www.w3.org/2000/svg">
<g id="interface-essential-clound-download">
<g id="Group">
<path id="Vector" d="M22.5 9.50293H21.4959V13.4995H22.5V9.50293Z" fill="#000001"/>
<path id="Vector_2" d="M21.4959 13.4995H20.4984V14.5036H21.4959V13.4995Z" fill="#000001"/>
<path id="Vector_3" d="M21.4959 8.49878H20.4984V9.50284H21.4959V8.49878Z" fill="#000001"/>
<path id="Vector_4" d="M20.4984 14.5037H19.5009V15.5012H20.4984V14.5037Z" fill="#000001"/>
<path id="Vector_5" d="M20.4984 7.50146H19.5009V8.49896H20.4984V7.50146Z" fill="#000001"/>
<path id="Vector_6" d="M17.4994 6.50382V5.49976H16.4953V7.50132H19.5009V6.50382H17.4994Z" fill="#000001"/>
<path id="Vector_7" d="M19.5009 15.501H15.4978V16.4985H19.5009V15.501Z" fill="#000001"/>
<path id="Vector_8" d="M16.4953 7.50146H15.4978V8.49896H16.4953V7.50146Z" fill="#000001"/>
<path id="Vector_9" d="M16.4953 4.5022H15.4978V5.4997H16.4953V4.5022Z" fill="#000001"/>
<path id="Vector_10" d="M15.4978 8.49878H14.5003V9.50284H15.4978V8.49878Z" fill="#000001"/>
<path id="Vector_11" d="M15.4978 3.49829H13.4963V4.50235H15.4978V3.49829Z" fill="#000001"/>
<path id="Vector_12" d="M10.4972 14.5037V17.5027H8.49561V18.5002H9.49967V19.4977H10.4972V20.5018H11.5012V21.4993H12.4987V20.5018H13.4962V19.4977H14.5003V18.5002H15.4978V17.5027H13.4962V14.5037H10.4972Z" fill="#000001"/>
<path id="Vector_13" d="M13.4963 2.50073H10.4972V3.49823H13.4963V2.50073Z" fill="#000001"/>
<path id="Vector_14" d="M9.49967 9.50293H8.49561V10.5004H9.49967V9.50293Z" fill="#000001"/>
<path id="Vector_15" d="M10.4972 3.49829H8.49561V4.50235H10.4972V3.49829Z" fill="#000001"/>
<path id="Vector_16" d="M8.49561 8.49878H7.49811V9.50284H8.49561V8.49878Z" fill="#000001"/>
<path id="Vector_17" d="M8.49561 4.5022H7.49811V5.4997H8.49561V4.5022Z" fill="#000001"/>
<path id="Vector_18" d="M6.50065 7.50132H3.50159V8.49882H7.49815V5.49976H6.50065V7.50132Z" fill="#000001"/>
<path id="Vector_19" d="M8.49565 15.501H3.50159V16.4985H8.49565V15.501Z" fill="#000001"/>
<path id="Vector_20" d="M3.50156 14.5037H2.4975V15.5012H3.50156V14.5037Z" fill="#000001"/>
<path id="Vector_21" d="M3.50156 8.49878H2.4975V9.50284H3.50156V8.49878Z" fill="#000001"/>
<path id="Vector_22" d="M2.4975 9.50293H1.5V14.5036H2.4975V9.50293Z" fill="#000001"/>
</g>
</g>
</svg>
