<svg width="24" height="24" viewBox="0 0 24 24" fill="none" xmlns="http://www.w3.org/2000/svg">
<g id="interface-essential-signout-logout">
<g id="Group">
<path id="Vector" d="M18.0014 7.49805V10.4971H13.9983V12.4987H18.0014V15.4977H18.9989V14.5002H20.003V13.5027H21.0005V12.4987H21.998V10.4971H21.0005V9.49961H20.003V8.50211H18.9989V7.49805H18.0014Z" fill="#000001"/>
<path id="Vector_2" d="M15.9998 15.4978H15.0023V19.5009H15.9998V15.4978Z" fill="#000001"/>
<path id="Vector_3" d="M15.9998 2.49756H15.0023V7.49818H15.9998V2.49756Z" fill="#000001"/>
<path id="Vector_4" d="M10.9992 21.5026V20.4985H15.0023V19.501H10.9992V6.50073H10.0017V21.5026H10.9992Z" fill="#000001"/>
<path id="Vector_5" d="M10.0017 21.5024H7.00262V22.4999H10.0017V21.5024Z" fill="#000001"/>
<path id="Vector_6" d="M8.99762 12.4988H8.00012V14.5003H8.99762V12.4988Z" fill="#000001"/>
<path id="Vector_7" d="M10.0017 5.50317H8.00012V6.50067H10.0017V5.50317Z" fill="#000001"/>
<path id="Vector_8" d="M7.00266 20.4985H5.0011V21.5026H7.00266V20.4985Z" fill="#000001"/>
<path id="Vector_9" d="M8.00016 4.49902H5.9986V5.50309H8.00016V4.49902Z" fill="#000001"/>
<path id="Vector_10" d="M5.00107 19.501H2.99951V20.4985H5.00107V19.501Z" fill="#000001"/>
<path id="Vector_11" d="M5.9986 3.50146H4.0036V4.49896H5.9986V3.50146Z" fill="#000001"/>
<path id="Vector_12" d="M2.99951 1.5V2.4975H2.00201V19.5009H2.99951V3.50156H4.00358V2.4975H15.0023V1.5H2.99951Z" fill="#000001"/>
</g>
</g>
</svg>
