<svg width="24" height="24" viewBox="0 0 24 24" fill="none" xmlns="http://www.w3.org/2000/svg">
<g id="interface-essential-lock-1">
<g id="Group">
<path id="Vector" d="M22.5 18.4968H21.5025V21.5025H22.5V18.4968Z" fill="#000001"/>
<path id="Vector_2" d="M22.5 2.49756H21.5025V5.49662H22.5V2.49756Z" fill="#000001"/>
<path id="Vector_3" d="M21.5025 1.5H18.5034V2.4975H21.5025V1.5Z" fill="#000001"/>
<path id="Vector_4" d="M21.5025 21.5024H18.5034V22.4999H21.5025V21.5024Z" fill="#000001"/>
<path id="Vector_5" d="M18.5035 10.4971H17.4994V19.5008H18.5035V10.4971Z" fill="#000001"/>
<path id="Vector_6" d="M17.4994 19.501H16.5019V20.4985H17.4994V19.501Z" fill="#000001"/>
<path id="Vector_7" d="M16.5019 20.4985H7.5047V21.5026H16.5019V20.4985Z" fill="#000001"/>
<path id="Vector_8" d="M15.5044 3.50146H14.5003V4.49896H15.5044V3.50146Z" fill="#000001"/>
<path id="Vector_9" d="M10.5038 16.5019H11.5013V18.4969H12.4988V16.5019H13.5028V15.4978H14.5003V13.4963H13.5028V14.5003H12.4988V13.4963H13.5028V12.4988H10.5038V13.4963H9.49969V15.4978H10.5038V16.5019Z" fill="#000001"/>
<path id="Vector_10" d="M14.5003 2.49756H9.49969V3.50162H14.5003V2.49756Z" fill="#000001"/>
<path id="Vector_11" d="M9.4997 3.50146H8.5022V4.49896H9.4997V3.50146Z" fill="#000001"/>
<path id="Vector_12" d="M8.50217 9.49965V4.49902H7.50467V9.49965H6.50061V10.4971H17.4994V9.49965H16.5019V4.49902H15.5044V9.49965H8.50217Z" fill="#000001"/>
<path id="Vector_13" d="M7.50467 19.501H6.50061V20.4985H7.50467V19.501Z" fill="#000001"/>
<path id="Vector_14" d="M6.50061 10.4971H5.50311V19.5008H6.50061V10.4971Z" fill="#000001"/>
<path id="Vector_15" d="M5.50315 21.5024H2.50409V22.4999H5.50315V21.5024Z" fill="#000001"/>
<path id="Vector_16" d="M5.50315 1.5H2.50409V2.4975H5.50315V1.5Z" fill="#000001"/>
<path id="Vector_17" d="M2.50406 18.4968H1.5V21.5025H2.50406V18.4968Z" fill="#000001"/>
<path id="Vector_18" d="M2.50406 2.49756H1.5V5.49662H2.50406V2.49756Z" fill="#000001"/>
</g>
</g>
</svg>
