<svg width="24" height="24" viewBox="0 0 24 24" fill="none" xmlns="http://www.w3.org/2000/svg">
<g id="interface-essential-cog-browser">
<g id="Group">
<g id="Group_2">
<path id="Vector" d="M21.4959 5.50321H2.4975V2.50415H1.5V21.5026H2.4975V6.50071H21.4959V21.5026H22.5V2.50415H21.4959V5.50321Z" fill="#000001"/>
<path id="Vector_2" d="M21.4959 21.5027H2.4975V22.5002H21.4959V21.5027Z" fill="#000001"/>
<path id="Vector_3" d="M17.4994 16.502H16.5019V17.4995H17.4994V16.502Z" fill="#000001"/>
<path id="Vector_4" d="M16.5019 13.5028H17.4994V14.5003H16.5019V15.5044H18.4969V12.4988H16.5019V13.5028Z" fill="#000001"/>
<path id="Vector_5" d="M17.4994 10.5039H16.5019V11.5014H17.4994V10.5039Z" fill="#000001"/>
<path id="Vector_6" d="M16.5019 17.4995H15.4978V18.5036H16.5019V17.4995Z" fill="#000001"/>
<path id="Vector_7" d="M16.5019 15.5044H15.4978V16.5019H16.5019V15.5044Z" fill="#000001"/>
<path id="Vector_8" d="M16.5019 11.5012H15.4978V12.4987H16.5019V11.5012Z" fill="#000001"/>
<path id="Vector_9" d="M16.5019 9.49976H15.4978V10.5038H16.5019V9.49976Z" fill="#000001"/>
<path id="Vector_10" d="M15.4978 18.5034H14.5003V19.5009H15.4978V18.5034Z" fill="#000001"/>
<path id="Vector_11" d="M15.4978 8.5022H14.5003V9.4997H15.4978V8.5022Z" fill="#000001"/>
<path id="Vector_12" d="M14.5003 17.4995H13.4962V18.5036H14.5003V17.4995Z" fill="#000001"/>
<path id="Vector_13" d="M14.5003 12.4988H13.4962V15.5044H14.5003V12.4988Z" fill="#000001"/>
<path id="Vector_14" d="M14.5003 9.49976H13.4962V10.5038H14.5003V9.49976Z" fill="#000001"/>
<path id="Vector_15" d="M12.4988 19.5009H11.5013V18.5034H10.4972V20.4984H13.4963V18.5034H12.4988V19.5009Z" fill="#000001"/>
<path id="Vector_16" d="M13.4963 15.5044H10.4972V16.5019H13.4963V15.5044Z" fill="#000001"/>
<path id="Vector_17" d="M13.4963 11.5012H10.4972V12.4987H13.4963V11.5012Z" fill="#000001"/>
<path id="Vector_18" d="M11.5013 8.50238H12.4988V9.49988H13.4963V7.50488H10.4972V9.49988H11.5013V8.50238Z" fill="#000001"/>
<path id="Vector_19" d="M10.4972 17.4995H9.49969V18.5036H10.4972V17.4995Z" fill="#000001"/>
<path id="Vector_20" d="M10.4972 12.4988H9.49969V15.5044H10.4972V12.4988Z" fill="#000001"/>
<path id="Vector_21" d="M10.4972 9.49976H9.49969V10.5038H10.4972V9.49976Z" fill="#000001"/>
<path id="Vector_22" d="M9.4997 18.5034H8.5022V19.5009H9.4997V18.5034Z" fill="#000001"/>
<path id="Vector_23" d="M9.4997 8.5022H8.5022V9.4997H9.4997V8.5022Z" fill="#000001"/>
<path id="Vector_24" d="M8.5022 17.4995H7.49814V18.5036H8.5022V17.4995Z" fill="#000001"/>
<path id="Vector_25" d="M8.5022 15.5044H7.49814V16.5019H8.5022V15.5044Z" fill="#000001"/>
<path id="Vector_26" d="M8.5022 11.5012H7.49814V12.4987H8.5022V11.5012Z" fill="#000001"/>
<path id="Vector_27" d="M8.5022 9.49976H7.49814V10.5038H8.5022V9.49976Z" fill="#000001"/>
<path id="Vector_28" d="M8.5022 3.50171H7.49814V4.49921H8.5022V3.50171Z" fill="#000001"/>
<path id="Vector_29" d="M7.49811 16.502H6.50061V17.4995H7.49811V16.502Z" fill="#000001"/>
<path id="Vector_30" d="M6.50061 14.5003V13.5028H7.49811V12.4988H5.49655V15.5044H7.49811V14.5003H6.50061Z" fill="#000001"/>
<path id="Vector_31" d="M7.49811 10.5039H6.50061V11.5014H7.49811V10.5039Z" fill="#000001"/>
<path id="Vector_32" d="M6.50061 3.50171H5.49655V4.49921H6.50061V3.50171Z" fill="#000001"/>
<path id="Vector_33" d="M4.49906 3.50171H3.50156V4.49921H4.49906V3.50171Z" fill="#000001"/>
</g>
<path id="Vector_34" d="M21.4959 1.5H2.4975V2.50406H21.4959V1.5Z" fill="#000001"/>
</g>
</g>
</svg>
