<svg width="24" height="24" viewBox="0 0 24 24" fill="none" xmlns="http://www.w3.org/2000/svg">
<g id="interface-essential-cog-hand-give">
<g id="Group">
<path id="Vector" d="M14.5003 21.0037H6.50061V22.0012H14.5003V21.0037Z" fill="#000001"/>
<path id="Vector_2" d="M17.4994 19.9998H14.5003V21.0038H17.4994V19.9998Z" fill="#000001"/>
<path id="Vector_3" d="M11.5012 19.0021V17.998H4.49905V19.0021H5.49655V21.0037H6.50062V19.0021H11.5012Z" fill="#000001"/>
<path id="Vector_4" d="M5.49656 16.0031V14.999H2.4975V16.0031H3.50156V17.9981H4.49906V16.0031H5.49656Z" fill="#000001"/>
<path id="Vector_5" d="M9.49967 14.9991V12.9976H8.50217V14.0016H7.49811V12.9976H6.50061V14.9991H9.49967Z" fill="#000001"/>
<path id="Vector_6" d="M11.5013 12.9976H10.4972V14.0016H11.5013V12.9976Z" fill="#000001"/>
<path id="Vector_7" d="M5.49655 12.9976H4.49905V14.0016H5.49655V12.9976Z" fill="#000001"/>
<path id="Vector_8" d="M2.4975 12.9976H1.5V14.9991H2.4975V12.9976Z" fill="#000001"/>
<path id="Vector_9" d="M13.4962 12H12.4987V12.9975H13.4962V12Z" fill="#000001"/>
<path id="Vector_10" d="M10.4972 12H9.49969V12.9975H10.4972V12Z" fill="#000001"/>
<path id="Vector_11" d="M6.50061 12H5.49655V12.9975H6.50061V12Z" fill="#000001"/>
<path id="Vector_12" d="M4.49906 12H3.50156V12.9975H4.49906V12Z" fill="#000001"/>
<path id="Vector_13" d="M12.4988 9.99854H11.5013V12.0001H12.4988V9.99854Z" fill="#000001"/>
<path id="Vector_14" d="M3.50156 11.0024H2.4975V11.9999H3.50156V11.0024Z" fill="#000001"/>
<path id="Vector_15" d="M9.49967 9.99854H6.50061V11.0026H9.49967V9.99854Z" fill="#000001"/>
<path id="Vector_16" d="M4.49906 9.99854H3.50156V11.0026H4.49906V9.99854Z" fill="#000001"/>
<path id="Vector_17" d="M11.5013 8.00342H10.4972V9.99842H11.5013V8.00342Z" fill="#000001"/>
<path id="Vector_18" d="M19.501 8.00342V9.00092H18.4969V9.99842H19.501V19.0022H17.4994V19.9997H19.501V21.0037H22.5V8.00342H19.501ZM21.5025 19.0022H20.4985V17.0006H21.5025V19.0022Z" fill="#000001"/>
<path id="Vector_19" d="M18.4969 8.00342H17.4994V9.00092H18.4969V8.00342Z" fill="#000001"/>
<path id="Vector_20" d="M6.50061 6.99951H5.49655V9.99857H6.50061V6.99951Z" fill="#000001"/>
<path id="Vector_21" d="M17.4994 6.99951H15.4978V8.00357H17.4994V6.99951Z" fill="#000001"/>
<path id="Vector_22" d="M10.4972 6.99951H9.49969V8.00357H10.4972V6.99951Z" fill="#000001"/>
<path id="Vector_23" d="M1.5 9.99857H3.50156V9.00107H2.4975V8.00357H3.50156V6.99951H1.5V9.99857Z" fill="#000001"/>
<path id="Vector_24" d="M15.4978 6.00195H14.5003V6.99945H15.4978V6.00195Z" fill="#000001"/>
<path id="Vector_25" d="M7.49811 6.00195H6.50061V6.99945H7.49811V6.00195Z" fill="#000001"/>
<path id="Vector_26" d="M4.49906 6.00195H3.50156V6.99945H4.49906V6.00195Z" fill="#000001"/>
<path id="Vector_27" d="M14.5003 4.9978H13.4962V6.00187H14.5003V4.9978Z" fill="#000001"/>
<path id="Vector_28" d="M3.50156 4.9978H2.4975V6.00187H3.50156V4.9978Z" fill="#000001"/>
<path id="Vector_29" d="M13.4962 4.00024H12.4987V4.99774H13.4962V4.00024Z" fill="#000001"/>
<path id="Vector_30" d="M9.4997 4.00024H8.5022V6.99931H9.4997V4.00024Z" fill="#000001"/>
<path id="Vector_31" d="M6.50061 4.00024H5.49655V4.99774H6.50061V4.00024Z" fill="#000001"/>
<path id="Vector_32" d="M4.49906 4.00024H3.50156V4.99774H4.49906V4.00024Z" fill="#000001"/>
<path id="Vector_33" d="M12.4988 3.00293H9.49969V4.00043H12.4988V3.00293Z" fill="#000001"/>
<path id="Vector_34" d="M5.49655 3.00293H4.49905V4.00043H5.49655V3.00293Z" fill="#000001"/>
<path id="Vector_35" d="M6.50061 1.99878V4.00034H7.49811V3.00284H9.49967V1.99878H6.50061Z" fill="#000001"/>
</g>
</g>
</svg>
