<svg width="24" height="24" viewBox="0 0 24 24" fill="none" xmlns="http://www.w3.org/2000/svg">
<g id="interface-essential-recycle">
<g id="Group">
<path id="Vector" d="M18.4969 9.49976V10.4973H17.4994V11.5013H16.4953V13.5029H17.4994V15.4979H15.4978V16.5019H17.4994V17.4994H20.4984V18.4969H21.4959V16.5019H22.5V13.5029H21.4959V11.5013H20.4984V9.49976H18.4969Z" fill="#000001"/>
<path id="Vector_2" d="M20.4984 18.4968H19.4944V19.5009H20.4984V18.4968Z" fill="#000001"/>
<path id="Vector_3" d="M19.4944 19.501H18.4969V20.4985H19.4944V19.501Z" fill="#000001"/>
<path id="Vector_4" d="M18.4969 20.4985H15.4978V21.5026H18.4969V20.4985Z" fill="#000001"/>
<path id="Vector_5" d="M17.4994 4.49912V8.50225H18.4969V2.49756H17.4994V3.50162H16.4953V4.49912H17.4994Z" fill="#000001"/>
<path id="Vector_6" d="M13.4963 8.5023V6.50073H12.4988V8.5023H11.4947V9.49979H17.4994V8.5023H13.4963Z" fill="#000001"/>
<path id="Vector_7" d="M16.4953 2.49756H15.4978V3.50162H16.4953V2.49756Z" fill="#000001"/>
<path id="Vector_8" d="M15.4978 21.5024H14.4938V22.4999H15.4978V21.5024Z" fill="#000001"/>
<path id="Vector_9" d="M15.4978 14.5002H14.4938V15.4977H15.4978V14.5002Z" fill="#000001"/>
<path id="Vector_10" d="M14.4938 20.4985H13.4963V21.5026H14.4938V20.4985Z" fill="#000001"/>
<path id="Vector_11" d="M14.4938 15.4978H13.4963V16.5019H14.4938V15.4978Z" fill="#000001"/>
<path id="Vector_12" d="M13.4963 19.501H12.4988V20.4985H13.4963V19.501Z" fill="#000001"/>
<path id="Vector_13" d="M13.4963 16.502H12.4988V17.4995H13.4963V16.502Z" fill="#000001"/>
<path id="Vector_14" d="M12.4988 17.4993H11.4947V19.5008H12.4988V17.4993Z" fill="#000001"/>
<path id="Vector_15" d="M12.4988 5.49658H11.4947V6.50064H12.4988V5.49658Z" fill="#000001"/>
<path id="Vector_16" d="M4.49906 8.50219H6.49406V9.49969H8.49562V8.50219H9.49968V7.49813H10.4972V5.49656H11.4947V3.50156H10.4972V2.4975H15.4978V1.5H6.49406V2.4975H5.49656V3.50156H4.49906V5.49656H3.495V7.49813H4.49906V8.50219Z" fill="#000001"/>
<path id="Vector_17" d="M6.49406 17.4994H5.49656V18.4969H4.49906V19.5009H3.495V20.4984H4.49906V21.5025H5.49656V22.5H10.4972V17.4994H7.49812V15.4978H6.49406V17.4994Z" fill="#000001"/>
<path id="Vector_18" d="M8.49561 14.5003H7.49811V15.4978H8.49561V16.5018H9.49967V11.5012H8.49561V14.5003Z" fill="#000001"/>
<path id="Vector_19" d="M4.49906 11.5011H8.49562V10.4971H2.4975V11.5011H3.495V12.4986H4.49906V11.5011Z" fill="#000001"/>
<path id="Vector_20" d="M3.495 17.4993H2.4975V19.5008H3.495V17.4993Z" fill="#000001"/>
<path id="Vector_21" d="M3.495 12.4988H2.4975V14.5003H3.495V12.4988Z" fill="#000001"/>
<path id="Vector_22" d="M2.4975 14.5002H1.5V17.4993H2.4975V14.5002Z" fill="#000001"/>
</g>
</g>
</svg>
