<svg width="24" height="24" viewBox="0 0 24 24" fill="none" xmlns="http://www.w3.org/2000/svg">
<g id="interface-essential-bin">
<g id="Group">
<path id="Vector" d="M18.5002 6.99946V17.9982H19.5042V6.99946H21.4992V6.00196H20.5017V4.9979H16.4986V2.99634H15.5011V4.9979H8.49892V2.99634H7.50142V4.9979H3.50486V6.00196H2.50079V6.99946H4.50236V17.9982H5.49986V6.99946H18.5002Z" fill="#000001"/>
<path id="Vector_2" d="M18.5002 17.998H17.5027V20.9971H18.5002V17.998Z" fill="#000001"/>
<path id="Vector_3" d="M17.5027 20.9973H6.50391V22.0014H17.5027V20.9973Z" fill="#000001"/>
<path id="Vector_4" d="M16.4986 9.00098H15.5011V17.0007H16.4986V9.00098Z" fill="#000001"/>
<path id="Vector_5" d="M15.5011 17.0007H14.5036V18.9957H15.5011V17.0007Z" fill="#000001"/>
<path id="Vector_6" d="M12.502 9.00098H11.5045V18.9957H12.502V9.00098Z" fill="#000001"/>
<path id="Vector_7" d="M15.5011 1.99878H8.4989V2.99628H15.5011V1.99878Z" fill="#000001"/>
<path id="Vector_8" d="M9.50296 17.0007H8.4989V18.9957H9.50296V17.0007Z" fill="#000001"/>
<path id="Vector_9" d="M8.4989 9.00098H7.5014V17.0007H8.4989V9.00098Z" fill="#000001"/>
<path id="Vector_10" d="M6.50394 17.998H5.49988V20.9971H6.50394V17.998Z" fill="#000001"/>
</g>
</g>
</svg>
