<svg width="24" height="24" viewBox="0 0 24 24" fill="none" xmlns="http://www.w3.org/2000/svg">
<g id="interface-essential-edit-fill">
<g id="Group">
<path id="Vector" d="M22.5 9.49976H21.5025V20.4985H22.5V9.49976Z" fill="#000001"/>
<path id="Vector_2" d="M22.5 3.50146H21.5025V6.50053H22.5V3.50146Z" fill="#000001"/>
<path id="Vector_3" d="M21.5025 20.4985H20.4984V21.5026H21.5025V20.4985Z" fill="#000001"/>
<path id="Vector_4" d="M21.5025 6.50073H20.4984V7.49823H21.5025V6.50073Z" fill="#000001"/>
<path id="Vector_5" d="M21.5025 2.49756H20.4984V3.50162H21.5025V2.49756Z" fill="#000001"/>
<path id="Vector_6" d="M20.4984 7.49805H19.5009V8.50211H20.4984V7.49805Z" fill="#000001"/>
<path id="Vector_7" d="M20.4984 5.50317H19.5009V6.50067H20.4984V5.50317Z" fill="#000001"/>
<path id="Vector_8" d="M20.4985 21.5024H3.50159V22.4999H20.4985V21.5024Z" fill="#000001"/>
<path id="Vector_9" d="M19.5009 8.5022H18.5034V9.4997H19.5009V8.5022Z" fill="#000001"/>
<path id="Vector_10" d="M19.5009 4.49902H18.5034V5.50309H19.5009V4.49902Z" fill="#000001"/>
<path id="Vector_11" d="M20.4985 1.5H17.4994V2.4975H20.4985V1.5Z" fill="#000001"/>
<path id="Vector_12" d="M18.5035 9.49976H17.4994V10.4973H18.5035V9.49976Z" fill="#000001"/>
<path id="Vector_13" d="M18.5035 5.50317H17.4994V6.50067H18.5035V5.50317Z" fill="#000001"/>
<path id="Vector_14" d="M18.5035 3.50146H17.4994V4.49896H18.5035V3.50146Z" fill="#000001"/>
<path id="Vector_15" d="M17.4994 10.4971H16.5019V11.5011H17.4994V10.4971Z" fill="#000001"/>
<path id="Vector_16" d="M17.4994 6.50073H16.5019V7.49823H17.4994V6.50073Z" fill="#000001"/>
<path id="Vector_17" d="M17.4994 2.49756H16.5019V3.50162H17.4994V2.49756Z" fill="#000001"/>
<path id="Vector_18" d="M16.5019 11.5012H15.4978V12.4987H16.5019V11.5012Z" fill="#000001"/>
<path id="Vector_19" d="M16.5019 7.49805H15.4978V8.50211H16.5019V7.49805Z" fill="#000001"/>
<path id="Vector_20" d="M16.5019 3.50146H15.4978V4.49896H16.5019V3.50146Z" fill="#000001"/>
<path id="Vector_21" d="M15.4978 12.4988H14.5003V13.5028H15.4978V12.4988Z" fill="#000001"/>
<path id="Vector_22" d="M15.4978 8.5022H14.5003V9.4997H15.4978V8.5022Z" fill="#000001"/>
<path id="Vector_23" d="M15.4978 4.49902H14.5003V5.50309H15.4978V4.49902Z" fill="#000001"/>
<path id="Vector_24" d="M14.5003 11.5012H13.5028V12.4987H14.5003V11.5012Z" fill="#000001"/>
<path id="Vector_25" d="M14.5003 9.49976H13.5028V10.4973H14.5003V9.49976Z" fill="#000001"/>
<path id="Vector_26" d="M14.5003 5.50317H13.5028V6.50067H14.5003V5.50317Z" fill="#000001"/>
<path id="Vector_27" d="M12.4988 12.4988H11.5013V11.5013H10.4972V9.49976H9.49969V14.5004H14.5003V13.5029H12.4988V12.4988Z" fill="#000001"/>
<path id="Vector_28" d="M13.5028 10.4971H12.4988V11.5011H13.5028V10.4971Z" fill="#000001"/>
<path id="Vector_29" d="M13.5028 6.50073H12.4988V7.49823H13.5028V6.50073Z" fill="#000001"/>
<path id="Vector_30" d="M12.4987 9.49976H11.5012V10.4973H12.4987V9.49976Z" fill="#000001"/>
<path id="Vector_31" d="M12.4987 7.49805H11.5012V8.50211H12.4987V7.49805Z" fill="#000001"/>
<path id="Vector_32" d="M11.5013 8.5022H10.4972V9.4997H11.5013V8.5022Z" fill="#000001"/>
<path id="Vector_33" d="M13.5028 2.49756H3.50159V3.50162H13.5028V2.49756Z" fill="#000001"/>
<path id="Vector_34" d="M3.50156 20.4985H2.4975V21.5026H3.50156V20.4985Z" fill="#000001"/>
<path id="Vector_35" d="M3.50156 3.50146H2.4975V4.49896H3.50156V3.50146Z" fill="#000001"/>
<path id="Vector_36" d="M2.4975 4.49902H1.5V20.4984H2.4975V4.49902Z" fill="#000001"/>
</g>
</g>
</svg>
