<svg width="24" height="24" viewBox="0 0 24 24" fill="none" xmlns="http://www.w3.org/2000/svg">
<g id="interface-essential-reflect-down-up">
<g id="Group">
<path id="Vector" d="M22.0012 2.49756H20.9971V3.49506H22.0012V2.49756Z" fill="#000001"/>
<path id="Vector_2" d="M22.0012 20.4985H20.9971V21.496H22.0012V20.4985Z" fill="#000001"/>
<path id="Vector_3" d="M20.9971 3.49512H19.9996V4.49918H20.9971V3.49512Z" fill="#000001"/>
<path id="Vector_4" d="M22.0012 11.5012H9.00092V12.4987H22.0012V11.5012Z" fill="#000001"/>
<path id="Vector_5" d="M20.9971 19.501H19.9996V20.4985H20.9971V19.501Z" fill="#000001"/>
<path id="Vector_6" d="M20.9972 1.5H9.99841V2.4975H20.9972V1.5Z" fill="#000001"/>
<path id="Vector_7" d="M19.9996 4.49902H19.0021V5.49652H19.9996V4.49902Z" fill="#000001"/>
<path id="Vector_8" d="M19.9996 18.4968H19.0021V19.5009H19.9996V18.4968Z" fill="#000001"/>
<path id="Vector_9" d="M19.0022 5.49658H17.9981V6.50064H19.0022V5.49658Z" fill="#000001"/>
<path id="Vector_10" d="M19.0022 17.4993H17.9981V18.4968H19.0022V17.4993Z" fill="#000001"/>
<path id="Vector_11" d="M17.9981 6.50073H17.0006V7.49823H17.9981V6.50073Z" fill="#000001"/>
<path id="Vector_12" d="M17.9981 16.4954H17.0006V17.4994H17.9981V16.4954Z" fill="#000001"/>
<path id="Vector_13" d="M17.0006 7.49805H15.9965V8.49555H17.0006V7.49805Z" fill="#000001"/>
<path id="Vector_14" d="M17.0006 15.4978H15.9965V16.4953H17.0006V15.4978Z" fill="#000001"/>
<path id="Vector_15" d="M15.9965 8.49561H14.999V9.49967H15.9965V8.49561Z" fill="#000001"/>
<path id="Vector_16" d="M15.9965 14.5002H14.999V15.4977H15.9965V14.5002Z" fill="#000001"/>
<path id="Vector_17" d="M14.999 7.49805H14.0015V8.49555H14.999V7.49805Z" fill="#000001"/>
<path id="Vector_18" d="M14.999 15.4978H14.0015V16.4953H14.999V15.4978Z" fill="#000001"/>
<path id="Vector_19" d="M14.0016 6.50073H12.9975V7.49823H14.0016V6.50073Z" fill="#000001"/>
<path id="Vector_20" d="M14.0016 16.4954H12.9975V17.4994H14.0016V16.4954Z" fill="#000001"/>
<path id="Vector_21" d="M12.9974 5.49658H11.9999V6.50064H12.9974V5.49658Z" fill="#000001"/>
<path id="Vector_22" d="M12.9974 17.4993H11.9999V18.4968H12.9974V17.4993Z" fill="#000001"/>
<path id="Vector_23" d="M11.9999 4.49902H11.0024V5.49652H11.9999V4.49902Z" fill="#000001"/>
<path id="Vector_24" d="M11.9999 18.4968H11.0024V19.5009H11.9999V18.4968Z" fill="#000001"/>
<path id="Vector_25" d="M20.9972 21.4958H9.99841V22.4999H20.9972V21.4958Z" fill="#000001"/>
<path id="Vector_26" d="M11.0025 3.49512H9.99841V4.49918H11.0025V3.49512Z" fill="#000001"/>
<path id="Vector_27" d="M11.0025 19.501H9.99841V20.4985H11.0025V19.501Z" fill="#000001"/>
<path id="Vector_28" d="M9.99842 2.49756H9.00092V3.49506H9.99842V2.49756Z" fill="#000001"/>
<path id="Vector_29" d="M9.99842 20.4985H9.00092V21.496H9.99842V20.4985Z" fill="#000001"/>
<path id="Vector_30" d="M4.99781 11.5012H6.00187V10.4971H6.99937V9.49965H7.99687V8.49559H9.00093V7.49809H7.99687V6.50059H6.99937V5.49652H6.00187V4.49902H4.99781V7.49809H4.00031V8.49559H4.99781V11.5012Z" fill="#000001"/>
<path id="Vector_31" d="M6.00187 16.4954H4.00031V17.4994H6.00187V16.4954Z" fill="#000001"/>
<path id="Vector_32" d="M4.00031 8.49561H3.00281V9.49967H4.00031V8.49561Z" fill="#000001"/>
<path id="Vector_33" d="M4.00031 15.4978H3.00281V16.4953H4.00031V15.4978Z" fill="#000001"/>
<path id="Vector_34" d="M3.00278 9.49976H1.99872V15.4979H3.00278V9.49976Z" fill="#000001"/>
</g>
</g>
</svg>
