<svg width="24" height="24" viewBox="0 0 24 24" fill="none" xmlns="http://www.w3.org/2000/svg">
<g id="interface-essential-hierarchy-4">
<g id="Group">
<path id="Vector" d="M22.5 16.502H21.4959V20.4985H22.5V16.502Z" fill="#000001"/>
<path id="Vector_2" d="M21.4959 20.4985H20.4984V21.5026H21.4959V20.4985Z" fill="#000001"/>
<path id="Vector_3" d="M21.4959 15.4978H20.4984V16.5019H21.4959V15.4978Z" fill="#000001"/>
<path id="Vector_4" d="M20.4984 21.5024H16.4953V22.4999H20.4984V21.5024Z" fill="#000001"/>
<path id="Vector_5" d="M20.4984 15.4979V14.5004H17.4994V13.5029H16.4953V15.4979H20.4984Z" fill="#000001"/>
<path id="Vector_6" d="M16.4953 20.4985H15.4978V21.5026H16.4953V20.4985Z" fill="#000001"/>
<path id="Vector_7" d="M16.4953 15.4978H15.4978V16.5019H16.4953V15.4978Z" fill="#000001"/>
<path id="Vector_8" d="M16.4953 11.5012H15.4978V13.5028H16.4953V11.5012Z" fill="#000001"/>
<path id="Vector_9" d="M15.4978 16.502H14.4937V18.497H9.49967V16.502H8.49561V20.4985H9.49967V19.501H14.4937V20.4985H15.4978V16.502Z" fill="#000001"/>
<path id="Vector_10" d="M15.4978 9.49976H14.4938V11.5013H15.4978V9.49976Z" fill="#000001"/>
<path id="Vector_11" d="M15.4978 3.50146H14.4938V7.49803H15.4978V3.50146Z" fill="#000001"/>
<path id="Vector_12" d="M14.4938 2.49756H13.4963V3.50162H14.4938V2.49756Z" fill="#000001"/>
<path id="Vector_13" d="M13.4963 1.5H9.49969V2.4975H13.4963V1.5Z" fill="#000001"/>
<path id="Vector_14" d="M14.4937 9.49961V7.49805H13.4962V8.50211H9.49967V7.49805H8.49561V9.49961H14.4937Z" fill="#000001"/>
<path id="Vector_15" d="M9.49967 2.49756H8.49561V3.50162H9.49967V2.49756Z" fill="#000001"/>
<path id="Vector_16" d="M8.49561 20.4985H7.49811V21.5026H8.49561V20.4985Z" fill="#000001"/>
<path id="Vector_17" d="M8.49561 15.4978H7.49811V16.5019H8.49561V15.4978Z" fill="#000001"/>
<path id="Vector_18" d="M8.49561 9.49976H7.49811V11.5013H8.49561V9.49976Z" fill="#000001"/>
<path id="Vector_19" d="M8.49561 3.50146H7.49811V7.49803H8.49561V3.50146Z" fill="#000001"/>
<path id="Vector_20" d="M7.49814 11.5012H6.49408V13.5028H7.49814V11.5012Z" fill="#000001"/>
<path id="Vector_21" d="M7.49812 21.5024H3.495V22.4999H7.49812V21.5024Z" fill="#000001"/>
<path id="Vector_22" d="M7.49812 15.4979V14.5004H6.49406V13.5029H5.49656V14.5004H3.495V15.4979H7.49812Z" fill="#000001"/>
<path id="Vector_23" d="M3.495 20.4985H2.4975V21.5026H3.495V20.4985Z" fill="#000001"/>
<path id="Vector_24" d="M3.495 15.4978H2.4975V16.5019H3.495V15.4978Z" fill="#000001"/>
<path id="Vector_25" d="M2.4975 16.502H1.5V20.4985H2.4975V16.502Z" fill="#000001"/>
</g>
</g>
</svg>
