<svg width="24" height="24" viewBox="0 0 24 24" fill="none" xmlns="http://www.w3.org/2000/svg">
<g id="interface-essential-finger-print-scan">
<g id="Group">
<path id="Vector" d="M20.4985 8.5022H19.501V17.4994H20.4985V8.5022Z" fill="#000001"/>
<path id="Vector_2" d="M20.4985 6.50073H19.501V7.49823H20.4985V6.50073Z" fill="#000001"/>
<path id="Vector_3" d="M19.501 17.4993H18.5035V19.5008H19.501V17.4993Z" fill="#000001"/>
<path id="Vector_4" d="M19.501 4.49902H18.5035V6.50059H19.501V4.49902Z" fill="#000001"/>
<path id="Vector_5" d="M18.5035 13.5029H17.4994V16.502H18.5035V13.5029Z" fill="#000001"/>
<path id="Vector_6" d="M18.5035 7.49805H17.4994V10.4971H18.5035V7.49805Z" fill="#000001"/>
<path id="Vector_7" d="M17.4994 16.502H16.5019V18.5035H17.4994V16.502Z" fill="#000001"/>
<path id="Vector_8" d="M17.4994 5.50317H16.5019V7.49817H17.4994V5.50317Z" fill="#000001"/>
<path id="Vector_9" d="M16.5019 20.4985H15.4979V21.5026H16.5019V20.4985Z" fill="#000001"/>
<path id="Vector_10" d="M16.5019 8.5022H15.4979V15.4978H16.5019V8.5022Z" fill="#000001"/>
<path id="Vector_11" d="M16.5019 4.49902H14.5004V5.50309H16.5019V4.49902Z" fill="#000001"/>
<path id="Vector_12" d="M16.5019 2.49756H15.4979V3.50162H16.5019V2.49756Z" fill="#000001"/>
<path id="Vector_13" d="M16.5019 18.5034H14.5004V19.5009H16.5019V18.5034Z" fill="#000001"/>
<path id="Vector_14" d="M15.4979 7.49805H14.5004V8.50211H15.4979V7.49805Z" fill="#000001"/>
<path id="Vector_15" d="M15.4978 21.5024H13.5028V22.4999H15.4978V21.5024Z" fill="#000001"/>
<path id="Vector_16" d="M14.5003 16.502H13.5028V17.4995H14.5003V16.502Z" fill="#000001"/>
<path id="Vector_17" d="M14.5003 12.4988H13.5028V14.5003H14.5003V12.4988Z" fill="#000001"/>
<path id="Vector_18" d="M14.5003 9.49976H13.5028V11.5013H14.5003V9.49976Z" fill="#000001"/>
<path id="Vector_19" d="M14.5003 3.50146H12.4988V4.49896H14.5003V3.50146Z" fill="#000001"/>
<path id="Vector_20" d="M14.5003 19.501H9.49969V20.4985H14.5003V19.501Z" fill="#000001"/>
<path id="Vector_21" d="M13.5028 8.5022H11.5013V9.4997H13.5028V8.5022Z" fill="#000001"/>
<path id="Vector_22" d="M13.5028 14.5002H10.4972V15.4977H13.5028V14.5002Z" fill="#000001"/>
<path id="Vector_23" d="M12.4988 10.4971H11.5013V13.5027H12.4988V10.4971Z" fill="#000001"/>
<path id="Vector_24" d="M13.5028 5.50317H10.4972V6.50067H13.5028V5.50317Z" fill="#000001"/>
<path id="Vector_25" d="M13.5028 17.4993H10.4972V18.5033H13.5028V17.4993Z" fill="#000001"/>
<path id="Vector_26" d="M11.5013 3.50146H9.49969V4.49896H11.5013V3.50146Z" fill="#000001"/>
<path id="Vector_27" d="M11.5013 21.5024H8.5022V22.4999H11.5013V21.5024Z" fill="#000001"/>
<path id="Vector_28" d="M10.4972 16.502H9.49969V17.4995H10.4972V16.502Z" fill="#000001"/>
<path id="Vector_29" d="M10.4972 10.4971H9.49969V14.5002H10.4972V10.4971Z" fill="#000001"/>
<path id="Vector_30" d="M15.4978 1.5H8.5022V2.4975H15.4978V1.5Z" fill="#000001"/>
<path id="Vector_31" d="M9.4997 7.49805H8.5022V8.50211H9.4997V7.49805Z" fill="#000001"/>
<path id="Vector_32" d="M9.49973 4.49902H7.49817V5.50309H9.49973V4.49902Z" fill="#000001"/>
<path id="Vector_33" d="M8.50223 20.4985H6.50067V21.5026H8.50223V20.4985Z" fill="#000001"/>
<path id="Vector_34" d="M8.50223 14.5002H7.49817V15.4977H8.50223V14.5002Z" fill="#000001"/>
<path id="Vector_35" d="M8.50223 11.5012H7.49817V13.5028H8.50223V11.5012Z" fill="#000001"/>
<path id="Vector_36" d="M8.50223 8.5022H7.49817V10.4972H8.50223V8.5022Z" fill="#000001"/>
<path id="Vector_37" d="M7.49817 16.502H6.50067V18.5035H7.49817V16.502Z" fill="#000001"/>
<path id="Vector_38" d="M7.49817 5.50317H6.50067V7.49817H7.49817V5.50317Z" fill="#000001"/>
<path id="Vector_39" d="M6.50067 19.501H5.50317V20.4985H6.50067V19.501Z" fill="#000001"/>
<path id="Vector_40" d="M6.50067 8.5022H5.50317V16.5019H6.50067V8.5022Z" fill="#000001"/>
<path id="Vector_41" d="M6.50067 3.50146H5.50317V4.49896H6.50067V3.50146Z" fill="#000001"/>
<path id="Vector_42" d="M5.50315 17.4993H4.49908V19.5008H5.50315V17.4993Z" fill="#000001"/>
<path id="Vector_43" d="M5.50315 4.49902H4.49908V6.50059H5.50315V4.49902Z" fill="#000001"/>
<path id="Vector_44" d="M4.49909 14.5002H3.50159V17.4993H4.49909V14.5002Z" fill="#000001"/>
<path id="Vector_45" d="M4.49909 6.50073H3.50159V13.5029H4.49909V6.50073Z" fill="#000001"/>
</g>
</g>
</svg>
