<svg width="24" height="24" viewBox="0 0 24 24" fill="none" xmlns="http://www.w3.org/2000/svg">
<g id="interface-essential-loading-50-percent-1">
<g id="Group">
<path id="Vector" d="M2.99951 9.49976H2.00201V14.5004H2.99951V9.49976Z" fill="#000001"/>
<path id="Vector_2" d="M4.00357 14.5002H2.99951V16.5018H4.00357V14.5002Z" fill="#000001"/>
<path id="Vector_3" d="M4.00357 7.49805H2.99951V9.49961H4.00357V7.49805Z" fill="#000001"/>
<path id="Vector_4" d="M5.0011 16.502H4.0036V18.497H5.0011V16.502Z" fill="#000001"/>
<path id="Vector_5" d="M5.0011 5.49658H4.0036V7.49814H5.0011V5.49658Z" fill="#000001"/>
<path id="Vector_6" d="M7.00266 18.4968H5.0011V19.5009H7.00266V18.4968Z" fill="#000001"/>
<path id="Vector_7" d="M7.00266 4.49902H5.0011V5.49652H7.00266V4.49902Z" fill="#000001"/>
<path id="Vector_8" d="M8.99762 19.501H7.00262V20.4985H8.99762V19.501Z" fill="#000001"/>
<path id="Vector_9" d="M8.99762 3.50146H7.00262V4.49896H8.99762V3.50146Z" fill="#000001"/>
<path id="Vector_10" d="M10.0017 16.502H8.99762V17.4995H10.0017V16.502Z" fill="#000001"/>
<path id="Vector_11" d="M10.0017 13.5029H8.99762V14.5004H10.0017V13.5029Z" fill="#000001"/>
<path id="Vector_12" d="M10.9992 12.4987V9.49961H8.99762V8.50211H10.9992V7.49805H8.00012V10.4971H10.0017V11.5012H8.00012V12.4987H10.9992Z" fill="#000001"/>
<path id="Vector_13" d="M10.9992 15.4978H10.0017V16.5019H10.9992V15.4978Z" fill="#000001"/>
<path id="Vector_14" d="M12.0033 14.5002H10.9992V15.4977H12.0033V14.5002Z" fill="#000001"/>
<path id="Vector_15" d="M13.0007 16.502H12.0032V17.4995H13.0007V16.502Z" fill="#000001"/>
<path id="Vector_16" d="M13.0007 13.5029H12.0032V14.5004H13.0007V13.5029Z" fill="#000001"/>
<path id="Vector_17" d="M15.0023 12.4987V7.49805H12.0032V12.4987H15.0023ZM13.0007 8.50211H13.9982V11.5012H13.0007V8.50211Z" fill="#000001"/>
<path id="Vector_18" d="M10.9992 21.5025V22.5H13.9982V21.5025H15.9998V20.4984H18.0014V19.5009H18.9989V18.4969H20.0029V16.5019H21.0004V14.5003H21.9979V9.49969H21.0004V7.49813H20.0029V5.49656H18.9989V4.49906H18.0014V3.50156H15.9998V2.4975H13.9982V1.5H10.9992V2.4975H8.99762V3.50156H10.9992V4.49906H13.0007V5.49656H15.0023V6.50062H17.0039V8.50219H18.0014V10.4972H18.9989V13.5028H18.0014V15.4978H17.0039V17.4994H15.0023V18.4969H13.0007V19.5009H10.9992V20.4984H8.99762V21.5025H10.9992Z" fill="#000001"/>
</g>
</g>
</svg>
