<svg width="24" height="24" viewBox="0 0 24 24" fill="none" xmlns="http://www.w3.org/2000/svg">
<g id="interface-essential-keyboard-button-direction-2">
<g id="Group">
<path id="Vector" d="M21.5025 7.49805H17.4994V8.50211H16.5019V15.4977H17.4994V16.5018H21.5025V15.4977H22.5V8.50211H21.5025V7.49805ZM21.5025 12.4987H20.4985V13.4962H19.501V14.5002H18.5035V9.49961H19.501V10.4971H20.4985V11.5012H21.5025V12.4987Z" fill="#000001"/>
<path id="Vector_2" d="M15.5044 22.5001V21.5026H16.5019V17.4995H15.5044V16.502H8.5022V17.4995H7.5047V21.5026H8.5022V22.5001H15.5044ZM9.4997 18.497H14.5003V19.501H13.5028V20.4985H12.4988V21.5026H11.5013V20.4985H10.5038V19.501H9.4997V18.497Z" fill="#000001"/>
<path id="Vector_3" d="M16.5019 2.4975H15.5044V1.5H8.5022V2.4975H7.5047V6.50062H8.5022V7.49813H15.5044V6.50062H16.5019V2.4975ZM14.5003 5.49656H9.4997V4.49906H10.5038V3.50156H11.5013V2.4975H12.4988V3.50156H13.5028V4.49906H14.5003V5.49656Z" fill="#000001"/>
<path id="Vector_4" d="M6.50062 16.5018V15.4977H7.50469V8.50211H6.50062V7.49805H2.50406V8.50211H1.5V15.4977H2.50406V16.5018H6.50062ZM2.50406 11.5012H3.50156V10.4971H4.49906V9.49961H5.50312V14.5002H4.49906V13.4962H3.50156V12.4987H2.50406V11.5012Z" fill="#000001"/>
</g>
</g>
</svg>
