<svg width="24" height="24" viewBox="0 0 24 24" fill="none" xmlns="http://www.w3.org/2000/svg">
<g id="interface-essential-safari-compass">
<g id="Group">
<path id="Vector" d="M22.5 9.49976H21.4959V14.5004H22.5V9.49976Z" fill="#000001"/>
<path id="Vector_2" d="M21.4959 14.5002H20.4984V16.5018H21.4959V14.5002Z" fill="#000001"/>
<path id="Vector_3" d="M21.4959 7.49805H20.4984V9.49961H21.4959V7.49805Z" fill="#000001"/>
<path id="Vector_4" d="M20.4984 16.502H19.5009V18.497H20.4984V16.502Z" fill="#000001"/>
<path id="Vector_5" d="M20.4984 9.49976H19.5009V14.5004H20.4984V9.49976Z" fill="#000001"/>
<path id="Vector_6" d="M20.4984 5.50317H19.5009V7.49817H20.4984V5.50317Z" fill="#000001"/>
<path id="Vector_7" d="M19.501 18.4968H18.4969V19.5009H19.501V18.4968Z" fill="#000001"/>
<path id="Vector_8" d="M19.501 14.5002H18.4969V16.5018H19.501V14.5002Z" fill="#000001"/>
<path id="Vector_9" d="M19.501 7.49805H18.4969V9.49961H19.501V7.49805Z" fill="#000001"/>
<path id="Vector_10" d="M19.501 4.49902H18.4969V5.50309H19.501V4.49902Z" fill="#000001"/>
<path id="Vector_11" d="M18.4969 16.502H17.4994V17.4995H18.4969V16.502Z" fill="#000001"/>
<path id="Vector_12" d="M18.4969 11.5012H17.4994V12.4987H18.4969V11.5012Z" fill="#000001"/>
<path id="Vector_13" d="M18.4969 6.50073H17.4994V7.49823H18.4969V6.50073Z" fill="#000001"/>
<path id="Vector_14" d="M18.4969 19.501H16.4953V20.4985H18.4969V19.501Z" fill="#000001"/>
<path id="Vector_15" d="M17.4994 17.4993H16.4953V18.4968H17.4994V17.4993Z" fill="#000001"/>
<path id="Vector_16" d="M17.4994 5.50317H16.4953V6.50067H17.4994V5.50317Z" fill="#000001"/>
<path id="Vector_17" d="M18.4969 3.50146H16.4953V4.49896H18.4969V3.50146Z" fill="#000001"/>
<path id="Vector_18" d="M16.4953 15.4978H15.4978V16.5019H16.4953V15.4978Z" fill="#000001"/>
<path id="Vector_19" d="M16.4953 8.5022H15.4978V9.4997H16.4953V8.5022Z" fill="#000001"/>
<path id="Vector_20" d="M16.4953 20.4985H14.5003V21.5026H16.4953V20.4985Z" fill="#000001"/>
<path id="Vector_21" d="M16.4953 18.4968H14.5003V19.5009H16.4953V18.4968Z" fill="#000001"/>
<path id="Vector_22" d="M16.4953 4.49902H14.5003V5.50309H16.4953V4.49902Z" fill="#000001"/>
<path id="Vector_23" d="M16.4953 2.49756H14.5003V3.50162H16.4953V2.49756Z" fill="#000001"/>
<path id="Vector_24" d="M13.4963 10.4973H11.5013V11.5013H10.4972V14.5004H13.4963V13.5029H14.5003V11.5013H15.4978V9.49976H13.4963V10.4973Z" fill="#000001"/>
<path id="Vector_25" d="M14.5003 21.5024H9.49969V22.4999H14.5003V21.5024Z" fill="#000001"/>
<path id="Vector_26" d="M14.5003 19.501H9.49969V20.4985H14.5003V19.501Z" fill="#000001"/>
<path id="Vector_27" d="M12.4987 17.4993H11.5012V18.4968H12.4987V17.4993Z" fill="#000001"/>
<path id="Vector_28" d="M12.4987 5.50317H11.5012V6.50067H12.4987V5.50317Z" fill="#000001"/>
<path id="Vector_29" d="M14.5003 3.50146H9.49969V4.49896H14.5003V3.50146Z" fill="#000001"/>
<path id="Vector_30" d="M14.5003 1.5H9.49969V2.4975H14.5003V1.5Z" fill="#000001"/>
<path id="Vector_31" d="M9.49967 20.4985H7.49811V21.5026H9.49967V20.4985Z" fill="#000001"/>
<path id="Vector_32" d="M9.49967 18.4968H7.49811V19.5009H9.49967V18.4968Z" fill="#000001"/>
<path id="Vector_33" d="M9.49967 4.49902H7.49811V5.50309H9.49967V4.49902Z" fill="#000001"/>
<path id="Vector_34" d="M9.49967 2.49756H7.49811V3.50162H9.49967V2.49756Z" fill="#000001"/>
<path id="Vector_35" d="M8.49561 15.4978H7.49811V16.5019H8.49561V15.4978Z" fill="#000001"/>
<path id="Vector_36" d="M8.49561 7.49805H7.49811V8.50211H8.49561V7.49805Z" fill="#000001"/>
<path id="Vector_37" d="M7.49814 19.501H5.49658V20.4985H7.49814V19.501Z" fill="#000001"/>
<path id="Vector_38" d="M7.49811 17.4993H6.50061V18.4968H7.49811V17.4993Z" fill="#000001"/>
<path id="Vector_39" d="M7.49811 5.50317H6.50061V6.50067H7.49811V5.50317Z" fill="#000001"/>
<path id="Vector_40" d="M7.49814 3.50146H5.49658V4.49896H7.49814V3.50146Z" fill="#000001"/>
<path id="Vector_41" d="M6.50064 16.502H5.49658V17.4995H6.50064V16.502Z" fill="#000001"/>
<path id="Vector_42" d="M6.50064 11.5012H5.49658V12.4987H6.50064V11.5012Z" fill="#000001"/>
<path id="Vector_43" d="M6.50064 6.50073H5.49658V7.49823H6.50064V6.50073Z" fill="#000001"/>
<path id="Vector_44" d="M5.49658 18.4968H4.49908V19.5009H5.49658V18.4968Z" fill="#000001"/>
<path id="Vector_45" d="M5.49658 14.5002H4.49908V16.5018H5.49658V14.5002Z" fill="#000001"/>
<path id="Vector_46" d="M5.49658 7.49805H4.49908V9.49961H5.49658V7.49805Z" fill="#000001"/>
<path id="Vector_47" d="M5.49658 4.49902H4.49908V5.50309H5.49658V4.49902Z" fill="#000001"/>
<path id="Vector_48" d="M4.49909 16.502H3.50159V18.497H4.49909V16.502Z" fill="#000001"/>
<path id="Vector_49" d="M4.49909 9.49976H3.50159V14.5004H4.49909V9.49976Z" fill="#000001"/>
<path id="Vector_50" d="M4.49909 5.50317H3.50159V7.49817H4.49909V5.50317Z" fill="#000001"/>
<path id="Vector_51" d="M3.50156 14.5002H2.4975V16.5018H3.50156V14.5002Z" fill="#000001"/>
<path id="Vector_52" d="M3.50156 7.49805H2.4975V9.49961H3.50156V7.49805Z" fill="#000001"/>
<path id="Vector_53" d="M2.4975 9.49976H1.5V14.5004H2.4975V9.49976Z" fill="#000001"/>
</g>
</g>
</svg>
