<svg width="24" height="24" viewBox="0 0 24 24" fill="none" xmlns="http://www.w3.org/2000/svg">
<g id="interface-essential-dial-pad-finger-2">
<g id="Group">
<path id="Vector" d="M21.998 15.4978H21.0005V20.4984H21.998V15.4978Z" fill="#000001"/>
<path id="Vector_2" d="M21.0005 20.4985H19.9964V21.5026H21.0005V20.4985Z" fill="#000001"/>
<path id="Vector_3" d="M21.0005 14.5002H19.9964V15.4977H21.0005V14.5002Z" fill="#000001"/>
<path id="Vector_4" d="M21.0005 5.49658H19.9964V8.50221H21.0005V5.49658Z" fill="#000001"/>
<path id="Vector_5" d="M19.9964 21.5024H18.9989V22.4999H19.9964V21.5024Z" fill="#000001"/>
<path id="Vector_6" d="M19.9964 13.4963H18.9989V14.5004H19.9964V13.4963Z" fill="#000001"/>
<path id="Vector_7" d="M15.0023 12.4988V8.5022H13.9983V13.4963H18.9989V12.4988H15.0023Z" fill="#000001"/>
<path id="Vector_8" d="M19.9964 8.5022H16.9973V9.4997H19.9964V8.5022Z" fill="#000001"/>
<path id="Vector_9" d="M19.9964 4.49902H16.9973V5.49652H19.9964V4.49902Z" fill="#000001"/>
<path id="Vector_10" d="M18.0014 14.5002H16.9973V17.4993H18.0014V14.5002Z" fill="#000001"/>
<path id="Vector_11" d="M16.9973 5.49658H15.9998V8.50221H16.9973V5.49658Z" fill="#000001"/>
<path id="Vector_12" d="M15.9998 1.5H15.0023V2.4975H15.9998V1.5Z" fill="#000001"/>
<path id="Vector_13" d="M15.0023 14.5002H13.9983V17.4993H15.0023V14.5002Z" fill="#000001"/>
<path id="Vector_14" d="M15.0023 2.49756H13.9983V3.50162H15.0023V2.49756Z" fill="#000001"/>
<path id="Vector_15" d="M13.9983 7.49805H11.9967V8.50211H13.9983V7.49805Z" fill="#000001"/>
<path id="Vector_16" d="M11.9967 20.4985H10.9992V22.5001H11.9967V20.4985Z" fill="#000001"/>
<path id="Vector_17" d="M10.9992 13.4963H8.99765V14.5003H10.9992V16.5019H11.9967V8.5022H10.9992V13.4963Z" fill="#000001"/>
<path id="Vector_18" d="M11.9967 1.5H10.9992V3.50156H11.9967V1.5Z" fill="#000001"/>
<path id="Vector_19" d="M10.9992 19.501H10.0017V20.4985H10.9992V19.501Z" fill="#000001"/>
<path id="Vector_20" d="M10.0017 18.4968H8.99765V19.5009H10.0017V18.4968Z" fill="#000001"/>
<path id="Vector_21" d="M10.0017 5.49652H8.99765V8.50215H10.0017V7.49809H10.9992V6.50059H13.9983V5.49652H13.0008V4.49902H10.0017V5.49652Z" fill="#000001"/>
<path id="Vector_22" d="M8.99765 14.5002H8.00015V18.4968H8.99765V14.5002Z" fill="#000001"/>
<path id="Vector_23" d="M8.99765 2.49756H8.00015V3.50162H8.99765V2.49756Z" fill="#000001"/>
<path id="Vector_24" d="M8.00012 1.5H7.00262V2.4975H8.00012V1.5Z" fill="#000001"/>
<path id="Vector_25" d="M7.00263 13.4963H5.99857V16.502H7.00263V13.4963Z" fill="#000001"/>
<path id="Vector_26" d="M7.00263 5.49658H5.99857V8.50221H7.00263V5.49658Z" fill="#000001"/>
<path id="Vector_27" d="M5.99857 16.502H2.99951V17.4995H5.99857V16.502Z" fill="#000001"/>
<path id="Vector_28" d="M5.99857 12.4988H2.99951V13.4963H5.99857V12.4988Z" fill="#000001"/>
<path id="Vector_29" d="M5.99857 8.5022H2.99951V9.4997H5.99857V8.5022Z" fill="#000001"/>
<path id="Vector_30" d="M5.99857 4.49902H2.99951V5.49652H5.99857V4.49902Z" fill="#000001"/>
<path id="Vector_31" d="M2.99951 13.4963H2.00201V16.502H2.99951V13.4963Z" fill="#000001"/>
<path id="Vector_32" d="M2.99951 5.49658H2.00201V8.50221H2.99951V5.49658Z" fill="#000001"/>
</g>
</g>
</svg>
