<svg width="24" height="24" viewBox="0 0 24 24" fill="none" xmlns="http://www.w3.org/2000/svg">
<g id="interface-essential-touch-id-smartphone">
<g id="Group">
<path id="Vector" d="M5.9986 2.4975H5.0011V21.5025H5.9986V22.5H18.0014V21.5025H18.9989V2.4975H18.0014V1.5H5.9986V2.4975ZM12.0033 2.4975H13.9983V3.50156H12.0033V2.4975ZM10.0017 2.4975H10.9992V3.50156H10.0017V2.4975ZM15.0023 4.49906V3.50156H18.0014V20.4984H5.9986V3.50156H8.99766V4.49906H15.0023Z" fill="#000001"/>
<path id="Vector_2" d="M16.9974 16.502H15.9999V18.5035H16.9974V16.502Z" fill="#000001"/>
<path id="Vector_3" d="M16.9974 6.50073H15.9999V8.5023H16.9974V6.50073Z" fill="#000001"/>
<path id="Vector_4" d="M15.9998 11.5012H15.0023V14.5003H15.9998V11.5012Z" fill="#000001"/>
<path id="Vector_5" d="M15.9998 9.49976H15.0023V10.4973H15.9998V9.49976Z" fill="#000001"/>
<path id="Vector_6" d="M15.9999 5.50317H13.9983V6.50067H15.9999V5.50317Z" fill="#000001"/>
<path id="Vector_7" d="M15.9999 18.5034H13.9983V19.5009H15.9999V18.5034Z" fill="#000001"/>
<path id="Vector_8" d="M15.0024 8.5022H13.9983V9.4997H15.0024V8.5022Z" fill="#000001"/>
<path id="Vector_9" d="M13.9983 13.5029H13.0008V16.502H13.9983V13.5029Z" fill="#000001"/>
<path id="Vector_10" d="M13.9983 10.4971H13.0008V12.4986H13.9983V10.4971Z" fill="#000001"/>
<path id="Vector_11" d="M13.9983 7.49805H12.0033V8.50211H13.9983V7.49805Z" fill="#000001"/>
<path id="Vector_12" d="M13.0008 16.502H10.0017V17.4995H13.0008V16.502Z" fill="#000001"/>
<path id="Vector_13" d="M12.0033 13.5029H10.9992V14.5004H12.0033V13.5029Z" fill="#000001"/>
<path id="Vector_14" d="M13.0008 9.49976H10.9992V10.4973H13.0008V9.49976Z" fill="#000001"/>
<path id="Vector_15" d="M10.9992 10.4971H10.0017V13.5027H10.9992V10.4971Z" fill="#000001"/>
<path id="Vector_16" d="M10.9992 7.49805H10.0017V8.50211H10.9992V7.49805Z" fill="#000001"/>
<path id="Vector_17" d="M10.0017 15.4978H8.99768V16.5019H10.0017V15.4978Z" fill="#000001"/>
<path id="Vector_18" d="M10.0017 8.5022H8.99768V9.4997H10.0017V8.5022Z" fill="#000001"/>
<path id="Vector_19" d="M10.0017 5.50317H8.00018V6.50067H10.0017V5.50317Z" fill="#000001"/>
<path id="Vector_20" d="M10.0017 18.5034H8.00018V19.5009H10.0017V18.5034Z" fill="#000001"/>
<path id="Vector_21" d="M8.99768 14.5002H8.00018V15.4977H8.99768V14.5002Z" fill="#000001"/>
<path id="Vector_22" d="M8.99768 9.49976H8.00018V13.5029H8.99768V9.49976Z" fill="#000001"/>
<path id="Vector_23" d="M8.00019 16.502H7.00269V18.5035H8.00019V16.502Z" fill="#000001"/>
<path id="Vector_24" d="M8.00019 6.50073H7.00269V8.5023H8.00019V6.50073Z" fill="#000001"/>
</g>
</g>
</svg>
