<svg width="24" height="24" viewBox="0 0 24 24" fill="none" xmlns="http://www.w3.org/2000/svg">
<g id="interface-essential-share-2">
<g id="Group">
<path id="Vector" d="M21.5025 4.49906H20.4984V5.50312H19.5009V4.49906H18.5034V3.50156H19.5009V2.4975H18.5034V1.5H17.4994V5.50312H14.5003V6.50062H17.4994V10.4972H18.5034V9.49969H19.5009V8.50219H20.4984V7.49813H21.5025V6.50062H22.5V5.50312H21.5025V4.49906Z" fill="#000001"/>
<path id="Vector_2" d="M20.4984 12.4988H19.5009V20.4985H20.4984V12.4988Z" fill="#000001"/>
<path id="Vector_3" d="M20.4984 3.50146H19.5009V4.49896H20.4984V3.50146Z" fill="#000001"/>
<path id="Vector_4" d="M19.5009 20.4985H18.5034V21.5026H19.5009V20.4985Z" fill="#000001"/>
<path id="Vector_5" d="M18.5035 21.5024H3.50159V22.4999H18.5035V21.5024Z" fill="#000001"/>
<path id="Vector_6" d="M14.5003 6.50073H12.4988V7.49823H14.5003V6.50073Z" fill="#000001"/>
<path id="Vector_7" d="M12.4987 7.49805H11.5012V8.50211H12.4987V7.49805Z" fill="#000001"/>
<path id="Vector_8" d="M11.5013 8.5022H10.4972V13.5028H11.5013V8.5022Z" fill="#000001"/>
<path id="Vector_9" d="M13.5028 3.50146H3.50159V4.49896H13.5028V3.50146Z" fill="#000001"/>
<path id="Vector_10" d="M3.50156 20.4985H2.4975V21.5026H3.50156V20.4985Z" fill="#000001"/>
<path id="Vector_11" d="M3.50156 4.49902H2.4975V5.50309H3.50156V4.49902Z" fill="#000001"/>
<path id="Vector_12" d="M2.4975 5.50317H1.5V20.4985H2.4975V5.50317Z" fill="#000001"/>
</g>
</g>
</svg>
