<svg width="24" height="24" viewBox="0 0 24 24" fill="none" xmlns="http://www.w3.org/2000/svg">
<g id="interface-essential-hierarchy-3">
<g id="Group">
<path id="Vector" d="M22.5 13.5029H21.4959V15.4979H22.5V13.5029Z" fill="#000001"/>
<path id="Vector_2" d="M12.4988 15.4978V16.5019H16.4953V19.5009H17.4994V16.5019H21.496V15.4978H12.4988Z" fill="#000001"/>
<path id="Vector_3" d="M16.4953 9.49976H8.49561V10.4973H16.4953V9.49976Z" fill="#000001"/>
<path id="Vector_4" d="M11.4947 19.501V21.5025H12.4988V20.4985H16.4953V19.501H11.4947Z" fill="#000001"/>
<path id="Vector_5" d="M21.496 13.5027V12.4986H17.4994V10.4971H16.4953V12.4986H12.4988V13.5027H21.496Z" fill="#000001"/>
<path id="Vector_6" d="M12.4988 13.5029H11.4947V15.4979H12.4988V13.5029Z" fill="#000001"/>
<path id="Vector_7" d="M12.4988 2.49756H11.4947V4.49912H12.4988V2.49756Z" fill="#000001"/>
<path id="Vector_8" d="M11.4947 21.5024H2.4975V22.4999H11.4947V21.5024Z" fill="#000001"/>
<path id="Vector_9" d="M8.49561 8.5022H7.49811V9.4997H8.49561V8.5022Z" fill="#000001"/>
<path id="Vector_10" d="M7.49812 5.49652H11.4947V4.49902H2.4975V5.49652H6.49406V8.50215H7.49812V5.49652Z" fill="#000001"/>
<path id="Vector_11" d="M11.4947 18.4968H2.4975V19.5009H11.4947V18.4968Z" fill="#000001"/>
<path id="Vector_12" d="M11.4947 1.5H2.4975V2.4975H11.4947V1.5Z" fill="#000001"/>
<path id="Vector_13" d="M2.4975 19.501H1.5V21.5025H2.4975V19.501Z" fill="#000001"/>
<path id="Vector_14" d="M2.4975 2.49756H1.5V4.49912H2.4975V2.49756Z" fill="#000001"/>
</g>
</g>
</svg>
