<svg width="24" height="24" viewBox="0 0 24 24" fill="none" xmlns="http://www.w3.org/2000/svg">
<g id="internet-network-download">
<g id="Group">
<path id="Vector" d="M21.4992 18.4968H20.5017V20.4984H21.4992V18.4968Z" fill="#000001"/>
<path id="Vector_2" d="M20.5017 16.502H19.5042V18.497H20.5017V16.502Z" fill="#000001"/>
<path id="Vector_3" d="M3.50476 20.4985V21.5026H4.50226V22.5001H19.5041V21.5026H20.5016V20.4985H3.50476Z" fill="#000001"/>
<path id="Vector_4" d="M18.5002 7.49805H15.5011V8.50211H18.5002V7.49805Z" fill="#000001"/>
<path id="Vector_5" d="M13.4994 18.4968H10.5004V19.5009H13.4994V18.4968Z" fill="#000001"/>
<path id="Vector_6" d="M13.4994 3.50146H10.5004V4.49896H13.4994V3.50146Z" fill="#000001"/>
<path id="Vector_7" d="M13.4994 1.5H10.5004V2.4975H13.4994V1.5Z" fill="#000001"/>
<path id="Vector_8" d="M10.5005 10.4972H8.4989V11.5013H9.50296V12.4988H10.5005V13.4963H11.5045V14.5003H12.502V13.4963H13.4995V12.4988H14.5036V11.5013H15.5011V10.4972H13.4995V5.49658H10.5005V10.4972Z" fill="#000001"/>
<path id="Vector_9" d="M8.49882 7.49805H5.49976V8.50211H8.49882V7.49805Z" fill="#000001"/>
<path id="Vector_10" d="M19.5042 16.5019V8.5022H18.5001V15.4978H5.49982V8.5022H4.50232V16.5019H19.5042Z" fill="#000001"/>
<path id="Vector_11" d="M4.50226 16.502H3.50476V18.497H4.50226V16.502Z" fill="#000001"/>
<path id="Vector_12" d="M3.50479 18.4968H2.50073V20.4984H3.50479V18.4968Z" fill="#000001"/>
</g>
</g>
</svg>
