<svg width="24" height="24" viewBox="0 0 24 24" fill="none" xmlns="http://www.w3.org/2000/svg">
<g id="interface-essential-information-circle-2">
<path id="Vector" d="M21.5025 7.49813H20.4984V5.49656H19.5009V4.49906H18.4969V3.50156H16.5019V2.4975H14.5003V1.5H9.49969V2.4975H7.49813V3.50156H5.49656V4.49906H4.49906V5.49656H3.50156V7.49813H2.4975V9.49969H1.5V14.5003H2.4975V16.5019H3.50156V18.4969H4.49906V19.5009H5.49656V20.4984H7.49813V21.5025H9.49969V22.5H14.5003V21.5025H16.5019V20.4984H18.4969V19.5009H19.5009V18.4969H20.4984V16.5019H21.5025V14.5003H22.5V9.49969H21.5025V7.49813ZM9.49969 5.49656H10.4972V4.49906H13.5028V5.49656H14.5003V8.50219H13.5028V9.49969H10.4972V8.50219H9.49969V5.49656ZM16.5019 18.4969H15.4978V19.5009H10.4972V18.4969H9.49969V11.5012H10.4972V10.4972H13.5028V11.5012H14.5003V16.5019H15.4978V17.4994H16.5019V18.4969Z" fill="#000001"/>
</g>
</svg>
