<svg width="24" height="24" viewBox="0 0 24 24" fill="none" xmlns="http://www.w3.org/2000/svg">
<g id="interface-essential-home-2">
<g id="Group">
<path id="Vector" d="M2.00204 12.4988H3.99704V11.5012H5.00111V10.4972H5.99861V9.49969H7.00267V8.50219H8.00017V7.49813H8.99767V6.50062H10.0017V5.49656H10.9992V4.49906H13.0008V5.49656H13.9983V6.50062H15.0024V7.49813H15.9999V8.50219H16.9974V9.49969H18.0014V10.4972H18.9989V11.5012H19.9964V12.4988H21.998V10.4972H21.0005V9.49969H19.9964V8.50219H18.9989V7.49813H18.0014V6.50062H16.9974V5.49656H15.9999V4.49906H15.0024V3.50156H13.9983V2.4975H13.0008V1.5H10.9992V2.4975H10.0017V3.50156H8.99767V4.49906H8.00017V5.49656H7.00267V6.50062H5.99861V7.49813H5.00111V8.50219H3.99704V9.49969H2.99954V10.4972H2.00204V12.4988Z" fill="#000001"/>
<path id="Vector_2" d="M18.9989 21.5026H15.0024V16.502H13.9983V22.5001H19.9964V13.4963H18.9989V21.5026Z" fill="#000001"/>
<path id="Vector_3" d="M18.9989 12.4988H18.0014V13.4963H18.9989V12.4988Z" fill="#000001"/>
<path id="Vector_4" d="M18.0014 11.5012H16.9973V12.4987H18.0014V11.5012Z" fill="#000001"/>
<path id="Vector_5" d="M16.9973 10.4971H15.9998V11.5011H16.9973V10.4971Z" fill="#000001"/>
<path id="Vector_6" d="M15.9998 9.49976H15.0023V10.4973H15.9998V9.49976Z" fill="#000001"/>
<path id="Vector_7" d="M15.0024 8.5022H13.9983V9.4997H15.0024V8.5022Z" fill="#000001"/>
<path id="Vector_8" d="M13.9983 15.4978H13.0008V16.5019H13.9983V15.4978Z" fill="#000001"/>
<path id="Vector_9" d="M13.9983 7.49805H13.0008V8.50211H13.9983V7.49805Z" fill="#000001"/>
<path id="Vector_10" d="M13.0008 14.5002H10.9992V15.4977H13.0008V14.5002Z" fill="#000001"/>
<path id="Vector_11" d="M13.0008 6.50073H10.9992V7.49823H13.0008V6.50073Z" fill="#000001"/>
<path id="Vector_12" d="M10.9992 15.4978H10.0017V16.5019H10.9992V15.4978Z" fill="#000001"/>
<path id="Vector_13" d="M10.9992 7.49805H10.0017V8.50211H10.9992V7.49805Z" fill="#000001"/>
<path id="Vector_14" d="M10.0017 16.502H8.99766V21.5026H5.0011V13.4963H3.99704V22.5001H10.0017V16.502Z" fill="#000001"/>
<path id="Vector_15" d="M10.0017 8.5022H8.99768V9.4997H10.0017V8.5022Z" fill="#000001"/>
<path id="Vector_16" d="M8.99768 9.49976H8.00018V10.4973H8.99768V9.49976Z" fill="#000001"/>
<path id="Vector_17" d="M8.00015 10.4971H7.00266V11.5011H8.00015V10.4971Z" fill="#000001"/>
<path id="Vector_18" d="M7.00266 11.5012H5.9986V12.4987H7.00266V11.5012Z" fill="#000001"/>
<path id="Vector_19" d="M5.9986 12.4988H5.0011V13.4963H5.9986V12.4988Z" fill="#000001"/>
</g>
</g>
</svg>
