<svg width="24" height="24" viewBox="0 0 24 24" fill="none" xmlns="http://www.w3.org/2000/svg">
<g id="interface-essential-keyboard-button-direction-1">
<g id="Group">
<path id="Vector" d="M16.5019 7.49813V1.5H7.50469V7.49813H1.5V16.5019H7.50469V22.5H16.5019V16.5019H22.5V7.49813H16.5019ZM21.5025 15.4978H15.5044V21.5025H8.50219V15.4978H2.50406V8.50219H8.50219V2.4975H15.5044V8.50219H21.5025V15.4978Z" fill="#000001"/>
<path id="Vector_2" d="M18.5035 13.4963H19.501V12.4988H20.4985V11.5013H19.501V10.4973H18.5035V9.49976H17.4994V14.5004H18.5035V13.4963Z" fill="#000001"/>
<path id="Vector_3" d="M14.5003 12.4988H13.5028V13.4963H14.5003V12.4988Z" fill="#000001"/>
<path id="Vector_4" d="M14.5003 10.4971H13.5028V11.5011H14.5003V10.4971Z" fill="#000001"/>
<path id="Vector_5" d="M9.49969 17.4993V18.4968H10.5038V19.5008H11.5013V20.4983H12.4988V19.5008H13.5028V18.4968H14.5003V17.4993H9.49969Z" fill="#000001"/>
<path id="Vector_6" d="M13.5028 4.49896H12.4988V3.50146H11.5013V4.49896H10.5038V5.49646H9.49969V6.50053H14.5003V5.49646H13.5028V4.49896Z" fill="#000001"/>
<path id="Vector_7" d="M13.5028 13.4963H10.5037V14.5004H13.5028V13.4963Z" fill="#000001"/>
<path id="Vector_8" d="M10.5038 12.4988H9.49969V13.4963H10.5038V12.4988Z" fill="#000001"/>
<path id="Vector_9" d="M10.5038 10.4971H9.49969V11.5011H10.5038V10.4971Z" fill="#000001"/>
<path id="Vector_10" d="M5.50315 10.4973H4.49909V11.5013H3.50159V12.4988H4.49909V13.4963H5.50315V14.5004H6.50065V9.49976H5.50315V10.4973Z" fill="#000001"/>
</g>
</g>
</svg>
