<svg width="24" height="24" viewBox="0 0 24 24" fill="none" xmlns="http://www.w3.org/2000/svg">
<g id="interface-essential-refresh">
<g id="Group">
<path id="Vector" d="M20.4984 9.49951H19.5009V14.5001H20.4984V9.49951Z" fill="#000001"/>
<path id="Vector_2" d="M19.5009 14.5002H18.5034V16.5018H19.5009V14.5002Z" fill="#000001"/>
<path id="Vector_3" d="M19.5009 7.49805H18.5034V9.49961H19.5009V7.49805Z" fill="#000001"/>
<path id="Vector_4" d="M19.5009 6.50059V5.50309H20.4984V4.49902H15.4978V9.49965H16.5019V8.50215H17.4994V7.49809H18.5034V6.50059H19.5009Z" fill="#000001"/>
<path id="Vector_5" d="M18.5034 16.5017H17.4993V17.4992H18.5034V16.5017Z" fill="#000001"/>
<path id="Vector_6" d="M17.4993 17.4993H16.5018V18.5033H17.4993V17.4993Z" fill="#000001"/>
<path id="Vector_7" d="M16.5019 18.5034H14.5003V19.5009H16.5019V18.5034Z" fill="#000001"/>
<path id="Vector_8" d="M14.5003 19.5007H10.4971V20.4982H14.5003V19.5007Z" fill="#000001"/>
<path id="Vector_9" d="M13.5028 3.50146H9.49963V4.49896H13.5028V3.50146Z" fill="#000001"/>
<path id="Vector_10" d="M9.49967 4.49902H7.49811V5.50309H9.49967V4.49902Z" fill="#000001"/>
<path id="Vector_11" d="M7.49811 5.50293H6.50061V6.50043H7.49811V5.50293Z" fill="#000001"/>
<path id="Vector_12" d="M6.50061 6.50049H5.50311V7.49799H6.50061V6.50049Z" fill="#000001"/>
<path id="Vector_13" d="M4.49903 17.4993V18.5034H3.50153V19.5009H8.50215V14.5002H7.49809V15.4977H6.50059V16.5018H5.50309V17.4993H4.49903Z" fill="#000001"/>
<path id="Vector_14" d="M5.50309 14.5002H4.49902V16.5018H5.50309V14.5002Z" fill="#000001"/>
<path id="Vector_15" d="M5.50309 7.49805H4.49902V9.49961H5.50309V7.49805Z" fill="#000001"/>
<path id="Vector_16" d="M4.49903 9.49951H3.50153V14.5001H4.49903V9.49951Z" fill="#000001"/>
</g>
</g>
</svg>
