<svg width="24" height="24" viewBox="0 0 24 24" fill="none" xmlns="http://www.w3.org/2000/svg">
<g id="internet-network-www">
<g id="Group">
<path id="Vector" d="M21.4959 7.49805H20.4984V8.50211H18.4969V7.49805H17.4994V8.50211H6.50062V7.49805H5.49656V8.50211H3.50156V7.49805H2.4975V9.49961H1.5V14.5002H2.4975V16.5018H3.50156V15.4977H5.49656V16.5018H6.50062V15.4977H17.4994V16.5018H18.4969V15.4977H20.4984V16.5018H21.4959V14.5002H22.5V9.49961H21.4959V7.49805ZM8.49562 13.4962H7.49813V14.5002H6.50062V13.4962H5.49656V14.5002H4.49906V13.4962H3.50156V10.4971H4.49906V13.4962H5.49656V11.5012H6.50062V13.4962H7.49813V10.4971H8.49562V13.4962ZM14.5003 13.4962H13.4963V14.5002H12.4988V13.4962H11.5012V14.5002H10.4972V13.4962H9.49969V10.4971H10.4972V13.4962H11.5012V11.5012H12.4988V13.4962H13.4963V10.4971H14.5003V13.4962ZM20.4984 13.4962H19.5009V14.5002H18.4969V13.4962H17.4994V14.5002H16.4953V13.4962H15.4978V10.4971H16.4953V13.4962H17.4994V11.5012H18.4969V13.4962H19.5009V10.4971H20.4984V13.4962Z" fill="#000001"/>
<path id="Vector_2" d="M20.4985 16.502H19.501V18.497H20.4985V16.502Z" fill="#000001"/>
<path id="Vector_3" d="M20.4985 5.49658H19.501V7.49814H20.4985V5.49658Z" fill="#000001"/>
<path id="Vector_4" d="M19.5009 18.4968H18.4968V19.5009H19.5009V18.4968Z" fill="#000001"/>
<path id="Vector_5" d="M19.5009 4.49902H18.4968V5.49652H19.5009V4.49902Z" fill="#000001"/>
<path id="Vector_6" d="M18.4969 6.50059V5.49652H15.4979V4.49902H14.5004V6.50059H16.4954V7.49809H17.4994V6.50059H18.4969Z" fill="#000001"/>
<path id="Vector_7" d="M18.4969 19.501H16.4954V20.4985H18.4969V19.501Z" fill="#000001"/>
<path id="Vector_8" d="M16.4954 17.4995H14.5004V19.501H15.4979V18.497H18.4969V17.4995H17.4994V16.502H16.4954V17.4995Z" fill="#000001"/>
<path id="Vector_9" d="M18.4969 3.50146H16.4954V4.49896H18.4969V3.50146Z" fill="#000001"/>
<path id="Vector_10" d="M16.4954 20.4985H14.5004V21.5026H16.4954V20.4985Z" fill="#000001"/>
<path id="Vector_11" d="M16.4954 2.49756H14.5004V3.50162H16.4954V2.49756Z" fill="#000001"/>
<path id="Vector_12" d="M14.5003 19.501H13.4962V20.4985H14.5003V19.501Z" fill="#000001"/>
<path id="Vector_13" d="M14.5003 3.50146H13.4962V4.49896H14.5003V3.50146Z" fill="#000001"/>
<path id="Vector_14" d="M13.4962 20.4985H12.4987V21.5026H11.5012V20.4985H10.4971V21.5026H9.49963V22.5001H14.5003V21.5026H13.4962V20.4985Z" fill="#000001"/>
<path id="Vector_15" d="M14.5003 6.50073H9.49963V7.49823H14.5003V6.50073Z" fill="#000001"/>
<path id="Vector_16" d="M14.5003 16.502H9.49963V17.4995H14.5003V16.502Z" fill="#000001"/>
<path id="Vector_17" d="M10.4971 3.50156H11.5012V2.4975H12.4987V3.50156H13.4962V2.4975H14.5003V1.5H9.49963V2.4975H10.4971V3.50156Z" fill="#000001"/>
<path id="Vector_18" d="M10.4971 19.501H9.49963V20.4985H10.4971V19.501Z" fill="#000001"/>
<path id="Vector_19" d="M10.4971 3.50146H9.49963V4.49896H10.4971V3.50146Z" fill="#000001"/>
<path id="Vector_20" d="M9.49973 20.4985H7.49817V21.5026H9.49973V20.4985Z" fill="#000001"/>
<path id="Vector_21" d="M9.49973 2.49756H7.49817V3.50162H9.49973V2.49756Z" fill="#000001"/>
<path id="Vector_22" d="M7.49814 19.501H5.49658V20.4985H7.49814V19.501Z" fill="#000001"/>
<path id="Vector_23" d="M7.49814 6.50059H9.49971V4.49902H8.49564V5.49652H5.49658V6.50059H6.50064V7.49809H7.49814V6.50059Z" fill="#000001"/>
<path id="Vector_24" d="M7.49814 3.50146H5.49658V4.49896H7.49814V3.50146Z" fill="#000001"/>
<path id="Vector_25" d="M5.49658 17.4995V18.497H8.49564V19.501H9.49971V17.4995H7.49814V16.502H6.50064V17.4995H5.49658Z" fill="#000001"/>
<path id="Vector_26" d="M5.49652 18.4968H4.49902V19.5009H5.49652V18.4968Z" fill="#000001"/>
<path id="Vector_27" d="M5.49652 4.49902H4.49902V5.49652H5.49652V4.49902Z" fill="#000001"/>
<path id="Vector_28" d="M4.49909 16.502H3.50159V18.497H4.49909V16.502Z" fill="#000001"/>
<path id="Vector_29" d="M4.49909 5.49658H3.50159V7.49814H4.49909V5.49658Z" fill="#000001"/>
</g>
</g>
</svg>
