<svg width="24" height="24" viewBox="0 0 24 24" fill="none" xmlns="http://www.w3.org/2000/svg">
<g id="interface-essential-pacman-loading">
<g id="Group">
<g id="Group_2">
<path id="Vector" d="M12.4987 14.5003H13.4962V15.4978H15.4978V16.5018H16.4953V17.4993H15.4978V18.4968H13.4962V19.5009H12.4987V20.4984H13.4962V21.5025H15.4978V22.5H18.4969V21.5025H20.4984V20.4984H21.4959V18.4968H22.5V15.4978H21.4959V13.5028H20.4984V12.4987H18.4969V11.5012H15.4978V12.4987H13.4962V13.5028H12.4987V14.5003ZM17.4994 14.5003H18.4969V15.4978H17.4994V14.5003Z" fill="#000001"/>
<path id="Vector_2" d="M21.4959 5.49658H20.4984V6.50064H21.4959V5.49658Z" fill="#000001"/>
<path id="Vector_3" d="M18.4969 8.5022H17.4994V9.4997H18.4969V8.5022Z" fill="#000001"/>
<path id="Vector_4" d="M18.4969 5.49658H17.4994V6.50064H18.4969V5.49658Z" fill="#000001"/>
<path id="Vector_5" d="M18.4969 2.49756H17.4994V3.50162H18.4969V2.49756Z" fill="#000001"/>
<path id="Vector_6" d="M15.4978 5.49658H14.4937V6.50064H15.4978V5.49658Z" fill="#000001"/>
<path id="Vector_7" d="M12.4988 16.502H11.4947V17.4995H12.4988V16.502Z" fill="#000001"/>
<path id="Vector_8" d="M12.4988 5.49658H11.4947V10.4972H12.4988V5.49658Z" fill="#000001"/>
<path id="Vector_9" d="M11.4947 10.4971H10.4972V11.5011H11.4947V10.4971Z" fill="#000001"/>
<path id="Vector_10" d="M11.4947 3.50146H10.4972V5.49646H11.4947V3.50146Z" fill="#000001"/>
<path id="Vector_11" d="M10.4972 9.49976H9.49969V10.4973H10.4972V9.49976Z" fill="#000001"/>
<path id="Vector_12" d="M10.4972 2.49756H9.49969V3.50162H10.4972V2.49756Z" fill="#000001"/>
<path id="Vector_13" d="M9.4997 16.502H8.49564V17.4995H9.4997V16.502Z" fill="#000001"/>
<path id="Vector_14" d="M9.4997 10.4971H8.49564V11.5011H9.4997V10.4971Z" fill="#000001"/>
<path id="Vector_15" d="M9.4997 5.49658H8.49564V6.50064H9.4997V5.49658Z" fill="#000001"/>
<path id="Vector_16" d="M8.49561 9.49976H7.49811V10.4973H8.49561V9.49976Z" fill="#000001"/>
<path id="Vector_17" d="M7.49811 10.4971H6.49405V11.5011H7.49811V10.4971Z" fill="#000001"/>
<path id="Vector_18" d="M7.49811 5.49658H6.49405V6.50064H7.49811V5.49658Z" fill="#000001"/>
<path id="Vector_19" d="M6.49405 19.501H5.49655V20.4985H6.49405V19.501Z" fill="#000001"/>
<path id="Vector_20" d="M6.49405 16.502H5.49655V17.4995H6.49405V16.502Z" fill="#000001"/>
<path id="Vector_21" d="M6.49405 13.5029H5.49655V14.5004H6.49405V13.5029Z" fill="#000001"/>
<path id="Vector_22" d="M6.49405 9.49976H5.49655V10.4973H6.49405V9.49976Z" fill="#000001"/>
<path id="Vector_23" d="M9.49968 1.5H4.49905V2.4975H9.49968V1.5Z" fill="#000001"/>
<path id="Vector_24" d="M5.49655 10.4971H4.49905V11.5011H5.49655V10.4971Z" fill="#000001"/>
<path id="Vector_25" d="M4.49906 9.49976H3.495V10.4973H4.49906V9.49976Z" fill="#000001"/>
<path id="Vector_26" d="M4.49906 2.49756H3.495V3.50162H4.49906V2.49756Z" fill="#000001"/>
<path id="Vector_27" d="M3.495 16.502H2.4975V17.4995H3.495V16.502Z" fill="#000001"/>
<path id="Vector_28" d="M3.495 10.4971H2.4975V11.5011H3.495V10.4971Z" fill="#000001"/>
<path id="Vector_29" d="M3.495 3.50146H2.4975V5.49646H3.495V3.50146Z" fill="#000001"/>
</g>
<path id="Vector_30" d="M2.4975 5.49658H1.5V10.4972H2.4975V5.49658Z" fill="#000001"/>
</g>
</g>
</svg>
