<svg width="24" height="24" viewBox="0 0 24 24" fill="none" xmlns="http://www.w3.org/2000/svg">
<g id="internet-network-cloud-off">
<g id="Group">
<path id="Vector" d="M22.5 11.5012H21.496V15.4978H22.5V11.5012Z" fill="#000001"/>
<path id="Vector_2" d="M21.4959 19.5009H20.4984V18.4969H19.5009V17.4994H18.4969V16.5019H17.4994V15.4978H16.4953V14.5003H15.4978V13.4963H14.5003V12.4988H13.4963V11.5012H12.4988V10.4972H11.5012V9.49969H10.4972V8.50219H9.49969V7.49813H8.49562V6.50062H7.49813V5.49656H6.50062V4.49906H5.49656V3.50156H4.49906V2.4975H3.50156V1.5H1.5V3.50156H2.4975V4.49906H3.50156V5.49656H4.49906V6.50062H5.49656V7.49813H6.50062V8.50219H7.49813V9.49969H8.49562V10.4972H9.49969V11.5012H10.4972V12.4988H11.5012V13.4963H12.4988V14.5003H13.4963V15.4978H14.5003V16.5019H15.4978V17.4994H16.4953V18.4969H17.4994V19.5009H18.4969V20.4984H19.5009V21.5025H20.4984V22.5H22.5V20.4984H21.4959V19.5009Z" fill="#000001"/>
<path id="Vector_3" d="M21.4959 15.4978H20.4984V16.5019H21.4959V15.4978Z" fill="#000001"/>
<path id="Vector_4" d="M21.4959 10.4971H20.4984V11.5011H21.4959V10.4971Z" fill="#000001"/>
<path id="Vector_5" d="M20.4985 9.49976H19.501V10.4973H20.4985V9.49976Z" fill="#000001"/>
<path id="Vector_6" d="M17.4994 8.50211V7.49805H16.4954V9.49961H19.501V8.50211H17.4994Z" fill="#000001"/>
<path id="Vector_7" d="M16.4953 9.49976H15.4978V10.4973H16.4953V9.49976Z" fill="#000001"/>
<path id="Vector_8" d="M16.4953 6.50073H15.4978V7.49823H16.4953V6.50073Z" fill="#000001"/>
<path id="Vector_9" d="M15.4979 10.4971H14.5004V11.5011H15.4979V10.4971Z" fill="#000001"/>
<path id="Vector_10" d="M15.4978 5.49658H13.4962V6.50064H15.4978V5.49658Z" fill="#000001"/>
<path id="Vector_11" d="M14.5003 17.4993H3.50159V18.4968H14.5003V17.4993Z" fill="#000001"/>
<path id="Vector_12" d="M13.4963 4.49902H10.4972V5.49652H13.4963V4.49902Z" fill="#000001"/>
<path id="Vector_13" d="M10.4971 5.49658H9.49963V6.50064H10.4971V5.49658Z" fill="#000001"/>
<path id="Vector_14" d="M6.50065 9.49976H3.50159V10.4973H6.50065V9.49976Z" fill="#000001"/>
<path id="Vector_15" d="M3.50162 16.502H2.49756V17.4995H3.50162V16.502Z" fill="#000001"/>
<path id="Vector_16" d="M3.50162 10.4971H2.49756V11.5011H3.50162V10.4971Z" fill="#000001"/>
<path id="Vector_17" d="M2.4975 11.5012H1.5V16.5018H2.4975V11.5012Z" fill="#000001"/>
</g>
</g>
</svg>
