<svg width="24" height="24" viewBox="0 0 24 24" fill="none" xmlns="http://www.w3.org/2000/svg">
<g id="interface-essential-translate">
<g id="Group">
<path id="Vector" d="M22.5 13.5029H21.4959V20.4986H22.5V13.5029Z" fill="#000001"/>
<path id="Vector_2" d="M21.4959 20.4985H20.4984V21.5026H21.4959V20.4985Z" fill="#000001"/>
<path id="Vector_3" d="M21.4959 12.4988H20.4984V13.5028H21.4959V12.4988Z" fill="#000001"/>
<path id="Vector_4" d="M21.4959 6.50073H20.4984V9.49979H21.4959V6.50073Z" fill="#000001"/>
<path id="Vector_5" d="M20.4984 5.49658H19.4944V6.50064H20.4984V5.49658Z" fill="#000001"/>
<path id="Vector_6" d="M20.4985 21.5024H13.4963V22.4999H20.4985V21.5024Z" fill="#000001"/>
<path id="Vector_7" d="M18.4969 17.4993H15.4978V14.5002H14.4938V20.4984H15.4978V18.4968H18.4969V20.4984H19.4944V14.5002H18.4969V17.4993Z" fill="#000001"/>
<path id="Vector_8" d="M18.4969 13.5029H15.4978V14.5004H18.4969V13.5029Z" fill="#000001"/>
<path id="Vector_9" d="M20.4985 11.5012H13.4963V12.4987H20.4985V11.5012Z" fill="#000001"/>
<path id="Vector_10" d="M15.4978 2.49756V3.50162H14.4938V4.49912H13.4963V5.49662H14.4938V6.50068H15.4978V7.49818H16.4953V5.49662H19.4944V4.49912H16.4953V2.49756H15.4978Z" fill="#000001"/>
<path id="Vector_11" d="M13.4963 20.4985H12.4988V21.5026H13.4963V20.4985Z" fill="#000001"/>
<path id="Vector_12" d="M13.4963 12.4988H12.4988V13.5028H13.4963V12.4988Z" fill="#000001"/>
<path id="Vector_13" d="M12.4988 13.5029H11.4947V20.4986H12.4988V13.5029Z" fill="#000001"/>
<path id="Vector_14" d="M12.4988 3.50146H11.4947V10.4971H12.4988V3.50146Z" fill="#000001"/>
<path id="Vector_15" d="M11.4947 10.4971H10.4972V11.5011H11.4947V10.4971Z" fill="#000001"/>
<path id="Vector_16" d="M11.4947 2.49756H10.4972V3.50162H11.4947V2.49756Z" fill="#000001"/>
<path id="Vector_17" d="M8.49562 6.50053H9.49968V5.49646H10.4972V4.49896H7.49812V3.50146H6.49406V4.49896H3.495V5.49646H8.49562V6.50053Z" fill="#000001"/>
<path id="Vector_18" d="M8.49565 21.5026V20.4985H9.49971V19.501H10.4972V18.497H9.49971V17.4995H8.49565V16.502H7.49815V18.497H4.49908V19.501H7.49815V21.5026H8.49565Z" fill="#000001"/>
<path id="Vector_19" d="M10.4972 11.5012H3.495V12.4987H10.4972V11.5012Z" fill="#000001"/>
<path id="Vector_20" d="M9.49967 9.49976H8.49561V10.4973H9.49967V9.49976Z" fill="#000001"/>
<path id="Vector_21" d="M8.49561 8.5022H7.49811V9.4997H8.49561V8.5022Z" fill="#000001"/>
<path id="Vector_22" d="M8.49561 6.50073H7.49811V7.49823H8.49561V6.50073Z" fill="#000001"/>
<path id="Vector_23" d="M7.49814 7.49805H6.49408V8.50211H7.49814V7.49805Z" fill="#000001"/>
<path id="Vector_24" d="M6.49408 8.5022H5.49658V9.4997H6.49408V8.5022Z" fill="#000001"/>
<path id="Vector_25" d="M6.49408 6.50073H5.49658V7.49823H6.49408V6.50073Z" fill="#000001"/>
<path id="Vector_26" d="M5.49658 9.49976H4.49908V10.4973H5.49658V9.49976Z" fill="#000001"/>
<path id="Vector_27" d="M10.4972 1.5H3.495V2.4975H10.4972V1.5Z" fill="#000001"/>
<path id="Vector_28" d="M4.49906 17.4993H3.495V18.4968H4.49906V17.4993Z" fill="#000001"/>
<path id="Vector_29" d="M3.495 14.5002H2.4975V17.4993H3.495V14.5002Z" fill="#000001"/>
<path id="Vector_30" d="M3.495 10.4971H2.4975V11.5011H3.495V10.4971Z" fill="#000001"/>
<path id="Vector_31" d="M3.495 2.49756H2.4975V3.50162H3.495V2.49756Z" fill="#000001"/>
<path id="Vector_32" d="M2.4975 3.50146H1.5V10.4971H2.4975V3.50146Z" fill="#000001"/>
</g>
</g>
</svg>
