<svg width="24" height="24" viewBox="0 0 24 24" fill="none" xmlns="http://www.w3.org/2000/svg">
<g id="interface-essential-hierarchy-1">
<g id="Group">
<path id="Vector" d="M21.496 17.4994H20.4985V15.4978H19.4944V17.4994H18.4969V18.4969H17.4994V21.5025H18.4969V22.5H21.496V21.5025H22.5V18.4969H21.496V17.4994Z" fill="#000001"/>
<path id="Vector_2" d="M19.4944 14.5002H18.4969V15.4977H19.4944V14.5002Z" fill="#000001"/>
<path id="Vector_3" d="M12.4988 13.5029V10.4973H14.4938V9.49976H9.49971V10.4973H11.4947V13.5029H5.49658V14.5004H11.4947V17.4994H10.4972V18.4969H9.49971V21.5026H10.4972V22.5001H13.4963V21.5026H14.4938V18.4969H13.4963V17.4994H12.4988V14.5004H18.4969V13.5029H12.4988Z" fill="#000001"/>
<path id="Vector_4" d="M16.4953 3.50146H15.4978V8.50209H16.4953V3.50146Z" fill="#000001"/>
<path id="Vector_5" d="M15.4978 8.5022H14.4938V9.4997H15.4978V8.5022Z" fill="#000001"/>
<path id="Vector_6" d="M15.4978 2.49756H14.4938V3.50162H15.4978V2.49756Z" fill="#000001"/>
<path id="Vector_7" d="M14.4938 6.50073H13.4963V7.49823H14.4938V6.50073Z" fill="#000001"/>
<path id="Vector_8" d="M14.4938 4.49902H13.4963V5.49652H14.4938V4.49902Z" fill="#000001"/>
<path id="Vector_9" d="M13.4963 7.49805H10.4972V8.50211H13.4963V7.49805Z" fill="#000001"/>
<path id="Vector_10" d="M14.4938 1.5H9.49969V2.4975H14.4938V1.5Z" fill="#000001"/>
<path id="Vector_11" d="M10.4972 6.50073H9.49969V7.49823H10.4972V6.50073Z" fill="#000001"/>
<path id="Vector_12" d="M10.4972 4.49902H9.49969V5.49652H10.4972V4.49902Z" fill="#000001"/>
<path id="Vector_13" d="M9.49967 8.5022H8.49561V9.4997H9.49967V8.5022Z" fill="#000001"/>
<path id="Vector_14" d="M9.49967 2.49756H8.49561V3.50162H9.49967V2.49756Z" fill="#000001"/>
<path id="Vector_15" d="M8.49561 3.50146H7.49811V8.50209H8.49561V3.50146Z" fill="#000001"/>
<path id="Vector_16" d="M5.49658 14.5002H4.49908V15.4977H5.49658V14.5002Z" fill="#000001"/>
<path id="Vector_17" d="M3.495 17.4994H2.4975V18.4969H1.5V21.5025H2.4975V22.5H5.49656V21.5025H6.49406V18.4969H5.49656V17.4994H4.49906V15.4978H3.495V17.4994Z" fill="#000001"/>
</g>
</g>
</svg>
