<svg width="24" height="24" viewBox="0 0 24 24" fill="none" xmlns="http://www.w3.org/2000/svg">
<g id="interface-essential-loading-25-percent-1">
<g id="Group">
<path id="Vector" d="M2.99954 9.99854H2.00204V14.9992H2.99954V9.99854Z" fill="#000001"/>
<path id="Vector_2" d="M4.0036 14.999H2.99954V17.0006H4.0036V14.999Z" fill="#000001"/>
<path id="Vector_3" d="M4.0036 7.99683H2.99954V9.99839H4.0036V7.99683Z" fill="#000001"/>
<path id="Vector_4" d="M5.0011 17.0007H4.0036V18.9957H5.0011V17.0007Z" fill="#000001"/>
<path id="Vector_5" d="M5.0011 5.99536H4.0036V7.99692H5.0011V5.99536Z" fill="#000001"/>
<path id="Vector_6" d="M7.00266 18.9956H5.0011V19.9997H7.00266V18.9956Z" fill="#000001"/>
<path id="Vector_7" d="M7.00266 4.9978H5.0011V5.9953H7.00266V4.9978Z" fill="#000001"/>
<path id="Vector_8" d="M8.99766 19.9998H7.00266V20.9973H8.99766V19.9998Z" fill="#000001"/>
<path id="Vector_9" d="M8.99766 4.00024H7.00266V4.99774H8.99766V4.00024Z" fill="#000001"/>
<path id="Vector_10" d="M10.0017 17.0007H8.99768V17.9982H10.0017V17.0007Z" fill="#000001"/>
<path id="Vector_11" d="M10.0017 14.0017H8.99768V14.9992H10.0017V14.0017Z" fill="#000001"/>
<path id="Vector_12" d="M10.9992 12.9975V12H8.99768V10.9959H10.9992V7.99683H8.00018V9.00089H10.0017V9.99839H8.00018V12.9975H10.9992Z" fill="#000001"/>
<path id="Vector_13" d="M10.9992 15.9966H10.0017V17.0006H10.9992V15.9966Z" fill="#000001"/>
<path id="Vector_14" d="M12.0033 14.999H10.9992V15.9965H12.0033V14.999Z" fill="#000001"/>
<path id="Vector_15" d="M13.9983 20.9973H8.99768V22.0014H13.9983V20.9973Z" fill="#000001"/>
<path id="Vector_16" d="M13.0008 17.0007H12.0033V17.9982H13.0008V17.0007Z" fill="#000001"/>
<path id="Vector_17" d="M13.0008 14.0017H12.0033V14.9992H13.0008V14.0017Z" fill="#000001"/>
<path id="Vector_18" d="M15.0024 9.99839H13.0008V9.00089H15.0024V7.99683H12.0033V10.9959H13.9983V12H12.0033V12.9975H15.0024V9.99839Z" fill="#000001"/>
<path id="Vector_19" d="M15.9999 19.9998H13.9983V20.9973H15.9999V19.9998Z" fill="#000001"/>
<path id="Vector_20" d="M18.0014 18.9956H15.9998V19.9997H18.0014V18.9956Z" fill="#000001"/>
<path id="Vector_21" d="M18.9989 17.0007H18.0014V18.9957H18.9989V17.0007Z" fill="#000001"/>
<path id="Vector_22" d="M20.003 14.999H18.9989V17.0006H20.003V14.999Z" fill="#000001"/>
<path id="Vector_23" d="M10.9992 4.99784H13.0008V5.99534H15.0024V6.9994H17.0039V9.00097H18.0014V10.996H18.9989V12.9975H20.003V14.9991H21.0005V12.9975H21.998V9.99847H21.0005V7.9969H20.003V5.99534H18.9989V4.99784H18.0014V4.00034H15.9999V2.99628H13.9983V1.99878H10.9992V2.99628H8.99768V4.00034H10.9992V4.99784Z" fill="#000001"/>
</g>
</g>
</svg>
