<svg width="24" height="24" viewBox="0 0 24 24" fill="none" xmlns="http://www.w3.org/2000/svg">
<g id="interface-essential-scroll-horizontal">
<g id="Group">
<path id="Vector" d="M7.49811 16.4985H6.50061V17.5026H7.49811V16.4985Z" fill="#000001"/>
<path id="Vector_2" d="M17.4994 16.4985H16.5019V17.5026H17.4994V16.4985Z" fill="#000001"/>
<path id="Vector_3" d="M6.50061 15.501H5.50311V16.4985H6.50061V15.501Z" fill="#000001"/>
<path id="Vector_4" d="M18.5035 15.501H17.4994V16.4985H18.5035V15.501Z" fill="#000001"/>
<path id="Vector_5" d="M5.50312 14.4971H4.49905V15.5011H5.50312V14.4971Z" fill="#000001"/>
<path id="Vector_6" d="M16.5019 7.50146H15.4978V16.4987H16.5019V7.50146Z" fill="#000001"/>
<path id="Vector_7" d="M19.5009 14.4971H18.5034V15.5011H19.5009V14.4971Z" fill="#000001"/>
<path id="Vector_8" d="M4.49906 13.4995H3.50156V14.497H4.49906V13.4995Z" fill="#000001"/>
<path id="Vector_9" d="M20.4984 13.4995H19.5009V14.497H20.4984V13.4995Z" fill="#000001"/>
<path id="Vector_10" d="M3.50156 12.502H2.4975V13.4995H3.50156V12.502Z" fill="#000001"/>
<path id="Vector_11" d="M13.5028 9.50293H10.4972V10.5004H9.49969V13.4995H10.4972V14.497H13.5028V13.4995H14.5003V10.5004H13.5028V9.50293Z" fill="#000001"/>
<path id="Vector_12" d="M21.5025 12.502H20.4984V13.4995H21.5025V12.502Z" fill="#000001"/>
<path id="Vector_13" d="M2.4975 11.498H1.5V12.5021H2.4975V11.498Z" fill="#000001"/>
<path id="Vector_14" d="M22.5 11.498H21.5025V12.5021H22.5V11.498Z" fill="#000001"/>
<path id="Vector_15" d="M3.50156 10.5005H2.4975V11.498H3.50156V10.5005Z" fill="#000001"/>
<path id="Vector_16" d="M21.5025 10.5005H20.4984V11.498H21.5025V10.5005Z" fill="#000001"/>
<path id="Vector_17" d="M4.49906 9.50293H3.50156V10.5004H4.49906V9.50293Z" fill="#000001"/>
<path id="Vector_18" d="M20.4984 9.50293H19.5009V10.5004H20.4984V9.50293Z" fill="#000001"/>
<path id="Vector_19" d="M5.50312 8.49878H4.49905V9.50284H5.50312V8.49878Z" fill="#000001"/>
<path id="Vector_20" d="M8.5022 7.50146H7.49814V16.4987H8.5022V7.50146Z" fill="#000001"/>
<path id="Vector_21" d="M19.5009 8.49878H18.5034V9.50284H19.5009V8.49878Z" fill="#000001"/>
<path id="Vector_22" d="M6.50061 7.50146H5.50311V8.49896H6.50061V7.50146Z" fill="#000001"/>
<path id="Vector_23" d="M18.5035 7.50146H17.4994V8.49896H18.5035V7.50146Z" fill="#000001"/>
<path id="Vector_24" d="M7.49811 6.49731H6.50061V7.50138H7.49811V6.49731Z" fill="#000001"/>
<path id="Vector_25" d="M17.4994 6.49731H16.5019V7.50138H17.4994V6.49731Z" fill="#000001"/>
</g>
</g>
</svg>
