<svg width="24" height="24" viewBox="0 0 24 24" fill="none" xmlns="http://www.w3.org/2000/svg">
<g id="logo-spotify">
<path id="Vector" d="M21.4959 7.49813H20.4984V5.49656H19.4944V4.49906H18.4969V3.50156H16.4953V2.4975H14.5003V1.5H9.49969V2.4975H7.49813V3.50156H5.49656V4.49906H4.49906V5.49656H3.495V7.49813H2.4975V9.49969H1.5V14.5003H2.4975V16.5019H3.495V18.4969H4.49906V19.5009H5.49656V20.4984H7.49813V21.5025H9.49969V22.5H14.5003V21.5025H16.4953V20.4984H18.4969V19.5009H19.4944V18.4969H20.4984V16.5019H21.4959V14.5003H22.5V9.49969H21.4959V7.49813ZM17.4994 19.5009H15.4978V18.4969H13.4963V17.4994H8.49562V18.4969H6.49406V17.4994H7.49813V16.5019H9.49969V15.4978H11.4947V16.5019H15.4978V17.4994H16.4953V18.4969H17.4994V19.5009ZM19.4944 14.5003H18.4969V15.4978H16.4953V14.5003H14.5003V13.5028H12.4988V12.4988H8.49562V13.5028H6.49406V14.5003H4.49906V13.5028H3.495V12.4988H5.49656V11.5012H7.49813V10.4972H13.4963V11.5012H16.4953V12.4988H17.4994V13.5028H19.4944V14.5003ZM20.4984 10.4972H18.4969V9.49969H16.4953V8.50219H13.4963V7.49813H8.49562V8.50219H5.49656V7.49813H4.49906V6.50062H6.49406V5.49656H8.49562V4.49906H14.5003V5.49656H15.4978V6.50062H17.4994V7.49813H18.4969V8.50219H20.4984V10.4972Z" fill="#000001"/>
</g>
</svg>
