<svg width="24" height="24" viewBox="0 0 24 24" fill="none" xmlns="http://www.w3.org/2000/svg">
<g id="logo-snapchat">
<path id="Vector" d="M21.4959 2.4975H20.4984V1.5H3.495V2.4975H2.4975V3.50156H1.5V20.4984H2.4975V21.5025H3.495V22.5H20.4984V21.5025H21.4959V20.4984H22.5V3.50156H21.4959V2.4975ZM19.4944 16.5019H18.4969V17.4994H15.4978V18.4969H13.4963V19.5009H10.4972V18.4969H8.49562V17.4994H5.49656V16.5019H4.49906V15.4978H6.49406V14.5003H7.49813V12.4988H6.49406V11.5012H5.49656V9.49969H7.49813V10.4972H8.49562V6.50062H9.49969V5.49656H10.4972V4.49906H13.4963V5.49656H14.5003V6.50062H15.4978V10.4972H16.4953V9.49969H18.4969V11.5012H17.4994V12.4988H16.4953V14.5003H17.4994V15.4978H19.4944V16.5019Z" fill="#000001"/>
</g>
</svg>
