<svg width="24" height="24" viewBox="0 0 24 24" fill="none" xmlns="http://www.w3.org/2000/svg">
<g id="logo-twitch-1">
<g id="Group">
<path id="Vector" d="M2.4975 16.5019H3.495V18.4969H4.49906V19.5009H5.49656V20.4984H7.49813V21.5025H9.49969V22.5H14.5003V21.5025H16.4953V20.4984H18.4969V19.5009H19.4944V18.4969H20.4984V16.5019H21.4959V14.5003H22.5V9.49969H21.4959V7.49813H20.4984V5.49656H19.4944V4.49906H18.4969V3.50156H16.4953V2.4975H14.5003V1.5H9.49969V2.4975H7.49813V3.50156H5.49656V4.49906H4.49906V5.49656H3.495V7.49813H2.4975V9.49969H1.5V14.5003H2.4975V16.5019ZM5.49656 6.50062H18.4969V13.5028H17.4994V14.5003H16.4953V15.4978H15.4978V16.5019H11.4947V17.4994H10.4972V18.4969H9.49969V19.5009H7.49813V17.4994H6.49406V15.4978H5.49656V6.50062Z" fill="#000001"/>
<path id="Vector_2" d="M17.4993 8.5022H7.49805V16.5019H8.49555V18.4969H9.49961V17.4994H10.4971V16.5019H11.4946V15.4978H15.4977V14.5003H16.4952V13.5028H17.4993V8.5022ZM12.4987 13.5028H11.4946V9.4997H12.4987V13.5028ZM15.4977 13.5028H14.5002V9.4997H15.4977V13.5028Z" fill="#000001"/>
</g>
</g>
</svg>
