<svg width="24" height="24" viewBox="0 0 24 24" fill="none" xmlns="http://www.w3.org/2000/svg">
<g id="logo-twitch-2">
<g id="Group">
<path id="Vector" d="M22.5002 9.49976H21.4961V14.5004H22.5002V9.49976Z" fill="#000001"/>
<path id="Vector_2" d="M21.496 14.5002H20.4985V16.5018H21.496V14.5002Z" fill="#000001"/>
<path id="Vector_3" d="M21.496 7.49805H20.4985V9.49961H21.496V7.49805Z" fill="#000001"/>
<path id="Vector_4" d="M20.4982 16.502H19.4941V18.497H20.4982V16.502Z" fill="#000001"/>
<path id="Vector_5" d="M20.4982 5.49658H19.4941V7.49814H20.4982V5.49658Z" fill="#000001"/>
<path id="Vector_6" d="M19.4946 18.4968H18.4971V19.5009H19.4946V18.4968Z" fill="#000001"/>
<path id="Vector_7" d="M19.4946 4.49902H18.4971V5.49652H19.4946V4.49902Z" fill="#000001"/>
<path id="Vector_8" d="M18.4967 19.501H16.4951V20.4985H18.4967V19.501Z" fill="#000001"/>
<path id="Vector_9" d="M17.4992 13.5029H16.4951V14.5004H17.4992V13.5029Z" fill="#000001"/>
<path id="Vector_10" d="M5.49658 6.50073V14.5004H6.49408V16.502H7.49814V18.497H9.49971V17.4995H8.49564V14.5004H7.49814V8.5023H17.4994V13.5029H18.4969V6.50073H5.49658Z" fill="#000001"/>
<path id="Vector_11" d="M18.4967 3.50146H16.4951V4.49896H18.4967V3.50146Z" fill="#000001"/>
<path id="Vector_12" d="M16.4955 14.5002H15.498V15.4977H16.4955V14.5002Z" fill="#000001"/>
<path id="Vector_13" d="M16.4955 20.4985H14.5005V21.5026H16.4955V20.4985Z" fill="#000001"/>
<path id="Vector_14" d="M15.498 9.49976H14.5005V13.5029H15.498V9.49976Z" fill="#000001"/>
<path id="Vector_15" d="M16.4955 2.49756H14.5005V3.50162H16.4955V2.49756Z" fill="#000001"/>
<path id="Vector_16" d="M15.4977 15.4978H10.4971V16.5019H15.4977V15.4978Z" fill="#000001"/>
<path id="Vector_17" d="M14.5001 21.5024H9.49951V22.4999H14.5001V21.5024Z" fill="#000001"/>
<path id="Vector_18" d="M12.4987 9.49976H11.4946V13.5029H12.4987V9.49976Z" fill="#000001"/>
<path id="Vector_19" d="M14.5001 1.5H9.49951V2.4975H14.5001V1.5Z" fill="#000001"/>
<path id="Vector_20" d="M10.497 16.502H9.49951V17.4995H10.497V16.502Z" fill="#000001"/>
<path id="Vector_21" d="M9.49961 20.4985H7.49805V21.5026H9.49961V20.4985Z" fill="#000001"/>
<path id="Vector_22" d="M9.49961 2.49756H7.49805V3.50162H9.49961V2.49756Z" fill="#000001"/>
<path id="Vector_23" d="M7.49814 19.501H5.49658V20.4985H7.49814V19.501Z" fill="#000001"/>
<path id="Vector_24" d="M7.49814 3.50146H5.49658V4.49896H7.49814V3.50146Z" fill="#000001"/>
<path id="Vector_25" d="M5.49652 18.4968H4.49902V19.5009H5.49652V18.4968Z" fill="#000001"/>
<path id="Vector_26" d="M5.49652 4.49902H4.49902V5.49652H5.49652V4.49902Z" fill="#000001"/>
<path id="Vector_27" d="M4.49918 16.502H3.49512V18.497H4.49918V16.502Z" fill="#000001"/>
<path id="Vector_28" d="M4.49918 5.49658H3.49512V7.49814H4.49918V5.49658Z" fill="#000001"/>
<path id="Vector_29" d="M3.49506 14.5002H2.49756V16.5018H3.49506V14.5002Z" fill="#000001"/>
<path id="Vector_30" d="M3.49506 7.49805H2.49756V9.49961H3.49506V7.49805Z" fill="#000001"/>
<path id="Vector_31" d="M2.4975 9.49976H1.5V14.5004H2.4975V9.49976Z" fill="#000001"/>
</g>
</g>
</svg>
