<svg width="24" height="24" viewBox="0 0 24 24" fill="none" xmlns="http://www.w3.org/2000/svg">
<g id="logo-social-media-youtube">
<g id="Group">
<path id="Vector" d="M22.5002 7.49805H21.4961V16.5018H22.5002V7.49805Z" fill="#000001"/>
<path id="Vector_2" d="M21.496 16.502H20.4985V17.4995H21.496V16.502Z" fill="#000001"/>
<path id="Vector_3" d="M21.496 6.50049H20.4985V7.49799H21.496V6.50049Z" fill="#000001"/>
<path id="Vector_4" d="M20.4982 17.4993H19.4941V18.4968H20.4982V17.4993Z" fill="#000001"/>
<path id="Vector_5" d="M20.4982 5.49658H19.4941V6.50064H20.4982V5.49658Z" fill="#000001"/>
<path id="Vector_6" d="M19.4945 6.50049H4.49918V7.49799H3.49512V16.5017H4.49918V17.4992H19.4945V16.5017H20.4986V7.49799H19.4945V6.50049ZM14.5004 12.4986H13.4964V13.5027H12.4989V14.5002H10.4973V15.4977H9.4998V8.50205H10.4973V9.49955H12.4989V10.4971H13.4964V11.5011H14.5004V12.4986Z" fill="#000001"/>
<path id="Vector_7" d="M19.4943 18.4968H4.49902V19.5009H19.4943V18.4968Z" fill="#000001"/>
<path id="Vector_8" d="M19.4943 4.49902H4.49902V5.49652H19.4943V4.49902Z" fill="#000001"/>
<path id="Vector_9" d="M4.49918 17.4993H3.49512V18.4968H4.49918V17.4993Z" fill="#000001"/>
<path id="Vector_10" d="M4.49918 5.49658H3.49512V6.50064H4.49918V5.49658Z" fill="#000001"/>
<path id="Vector_11" d="M3.49506 16.502H2.49756V17.4995H3.49506V16.502Z" fill="#000001"/>
<path id="Vector_12" d="M3.49506 6.50049H2.49756V7.49799H3.49506V6.50049Z" fill="#000001"/>
<path id="Vector_13" d="M2.4975 7.49805H1.5V16.5018H2.4975V7.49805Z" fill="#000001"/>
</g>
</g>
</svg>
