<svg width="24" height="24" viewBox="0 0 24 24" fill="none" xmlns="http://www.w3.org/2000/svg">
<g id="logo-social-media-old-instagram">
<g id="Group">
<path id="Vector" d="M21.4961 3.50146V8.50209H14.5005V9.49959H15.498V10.4971H16.4955V9.49959H21.4961V20.4983H22.5002V3.50146H21.4961Z" fill="#000001"/>
<path id="Vector_2" d="M21.496 20.4985H20.4985V21.5026H21.496V20.4985Z" fill="#000001"/>
<path id="Vector_3" d="M21.496 2.49756H20.4985V3.50162H21.496V2.49756Z" fill="#000001"/>
<path id="Vector_4" d="M20.4986 21.5024H3.49512V22.4999H20.4986V21.5024Z" fill="#000001"/>
<path id="Vector_5" d="M19.4946 4.49902H18.4971V6.50059H19.4946V4.49902Z" fill="#000001"/>
<path id="Vector_6" d="M18.4967 3.50146H16.4951V4.49896H18.4967V3.50146Z" fill="#000001"/>
<path id="Vector_7" d="M17.4992 10.4971H16.4951V15.4977H17.4992V10.4971Z" fill="#000001"/>
<path id="Vector_8" d="M18.4967 6.50073H16.4951V7.49823H18.4967V6.50073Z" fill="#000001"/>
<path id="Vector_9" d="M16.4955 15.4978H15.498V16.5019H16.4955V15.4978Z" fill="#000001"/>
<path id="Vector_10" d="M16.4955 4.49902H15.498V6.50059H16.4955V4.49902Z" fill="#000001"/>
<path id="Vector_11" d="M15.498 16.502H14.5005V17.4995H15.498V16.502Z" fill="#000001"/>
<path id="Vector_12" d="M9.49967 11.5013H8.49561V14.5004H9.49967V15.4979H10.4972V16.5019H13.4962V15.4979H14.5003V14.5004H15.4978V11.5013H14.5003V10.4973H13.4962V9.49976H10.4972V10.4973H9.49967V11.5013ZM11.4947 11.5013H13.4962V13.5029H12.4987V12.4988H11.4947V11.5013Z" fill="#000001"/>
<path id="Vector_13" d="M14.5001 7.49805H9.49951V8.50211H14.5001V7.49805Z" fill="#000001"/>
<path id="Vector_14" d="M14.5001 17.4993H9.49951V18.4968H14.5001V17.4993Z" fill="#000001"/>
<path id="Vector_15" d="M9.49967 16.502H8.49561V17.4995H9.49967V16.502Z" fill="#000001"/>
<path id="Vector_16" d="M8.49555 15.4978H7.49805V16.5019H8.49555V15.4978Z" fill="#000001"/>
<path id="Vector_17" d="M7.4982 10.4971H6.49414V15.4977H7.4982V10.4971Z" fill="#000001"/>
<path id="Vector_18" d="M3.49506 20.4985H2.49756V21.5026H3.49506V20.4985Z" fill="#000001"/>
<path id="Vector_19" d="M2.4975 9.49969H3.495V10.4972H6.49406V9.49969H7.49813V10.4972H8.49562V9.49969H9.49969V8.50219H8.49562V2.4975H20.4984V1.5H3.495V2.4975H2.4975V3.50156H3.495V8.50219H2.4975V3.50156H1.5V20.4984H2.4975V9.49969ZM6.49406 2.4975H7.49813V8.50219H6.49406V2.4975ZM4.49906 2.4975H5.49656V8.50219H4.49906V2.4975Z" fill="#000001"/>
</g>
</g>
</svg>
