<svg width="24" height="24" viewBox="0 0 24 24" fill="none" xmlns="http://www.w3.org/2000/svg">
<g id="logo-linkedin">
<g id="Group">
<path id="Vector" d="M22.4999 3.50146H21.4958V20.4983H22.4999V3.50146Z" fill="#000001"/>
<path id="Vector_2" d="M21.496 20.4985H20.4985V21.5026H21.496V20.4985Z" fill="#000001"/>
<path id="Vector_3" d="M21.496 2.49756H20.4985V3.50162H21.496V2.49756Z" fill="#000001"/>
<path id="Vector_4" d="M20.4984 4.49902H19.4944V19.5009H20.4984V4.49902Z" fill="#000001"/>
<path id="Vector_5" d="M20.4986 21.5024H3.49512V22.4999H20.4986V21.5024Z" fill="#000001"/>
<path id="Vector_6" d="M19.4943 19.501H4.49902V20.4985H19.4943V19.501Z" fill="#000001"/>
<path id="Vector_7" d="M16.4952 11.5011H15.4977V10.4971H13.4961V11.5011H12.4986V10.4971H10.4971V16.5018H12.4986V13.5027H13.4961V12.4986H14.5002V13.5027H15.4977V16.5018H17.4993V12.4986H16.4952V11.5011Z" fill="#000001"/>
<path id="Vector_8" d="M8.4957 10.4971H6.49414V16.5018H8.4957V10.4971Z" fill="#000001"/>
<path id="Vector_9" d="M8.4957 7.49805H6.49414V9.49961H8.4957V7.49805Z" fill="#000001"/>
<path id="Vector_10" d="M19.4943 3.50146H4.49902V4.49896H19.4943V3.50146Z" fill="#000001"/>
<path id="Vector_11" d="M20.4986 1.5H3.49512V2.4975H20.4986V1.5Z" fill="#000001"/>
<path id="Vector_12" d="M4.49918 4.49902H3.49512V19.5009H4.49918V4.49902Z" fill="#000001"/>
<path id="Vector_13" d="M3.49506 20.4985H2.49756V21.5026H3.49506V20.4985Z" fill="#000001"/>
<path id="Vector_14" d="M3.49506 2.49756H2.49756V3.50162H3.49506V2.49756Z" fill="#000001"/>
<path id="Vector_15" d="M2.4975 3.50146H1.5V20.4983H2.4975V3.50146Z" fill="#000001"/>
</g>
</g>
</svg>
