<svg width="24" height="24" viewBox="0 0 24 24" fill="none" xmlns="http://www.w3.org/2000/svg">
<g id="logo-social-media-dropbox">
<g id="Group">
<path id="Vector" d="M21.5026 7.00269H20.4985V8.00019H21.5026V7.00269Z" fill="#000001"/>
<path id="Vector_2" d="M20.4985 8.00024H19.501V8.99774H20.4985V8.00024Z" fill="#000001"/>
<path id="Vector_3" d="M18.4971 13.9982V15.0023H20.4986V13.0007H19.5011V13.9982H18.4971Z" fill="#000001"/>
<path id="Vector_4" d="M19.5011 11.9968H18.4971V13.0009H19.5011V11.9968Z" fill="#000001"/>
<path id="Vector_5" d="M19.5011 8.9978H18.4971V10.0019H19.5011V8.9978Z" fill="#000001"/>
<path id="Vector_6" d="M20.4986 5.99854H18.4971V7.0026H20.4986V5.99854Z" fill="#000001"/>
<path id="Vector_7" d="M18.497 15.0024H16.502V15.9999H18.497V15.0024Z" fill="#000001"/>
<path id="Vector_8" d="M16.502 10.9992H17.4995V11.9967H18.497V10.0017H16.502V10.9992Z" fill="#000001"/>
<path id="Vector_9" d="M18.497 5.00122H16.502V5.99872H18.497V5.00122Z" fill="#000001"/>
<path id="Vector_10" d="M16.5021 8.9978H15.498V10.0019H16.5021V8.9978Z" fill="#000001"/>
<path id="Vector_11" d="M16.5021 3.99707H14.5005V5.00113H16.5021V3.99707Z" fill="#000001"/>
<path id="Vector_12" d="M14.5002 15.0023H13.5027V13.9982H12.4986V13.0007H10.4971V13.9982H11.5011V18.9989H10.4971V20.0029H12.4986V18.9989H14.5002V18.0014H16.5018V15.9998H14.5002V15.0023Z" fill="#000001"/>
<path id="Vector_13" d="M16.5021 10.9993H14.5005V11.9968H16.5021V10.9993Z" fill="#000001"/>
<path id="Vector_14" d="M15.4979 8.00024H13.5029V8.99774H15.4979V8.00024Z" fill="#000001"/>
<path id="Vector_15" d="M14.5004 5.00122H13.5029V5.99872H14.5004V5.00122Z" fill="#000001"/>
<path id="Vector_16" d="M14.5006 11.9968H12.499V13.0009H14.5006V11.9968Z" fill="#000001"/>
<path id="Vector_17" d="M13.5027 8.0001V5.99854H12.4986V7.0026H11.5011V5.99854H10.4971V8.0001H13.5027Z" fill="#000001"/>
<path id="Vector_18" d="M10.4974 18.0015H8.50244V18.999H10.4974V18.0015Z" fill="#000001"/>
<path id="Vector_19" d="M10.497 13.9983H9.49951V15.0024H10.497V13.9983Z" fill="#000001"/>
<path id="Vector_20" d="M10.4974 11.9968H8.50244V13.0009H10.4974V11.9968Z" fill="#000001"/>
<path id="Vector_21" d="M10.4974 8.00024H8.50244V8.99774H10.4974V8.00024Z" fill="#000001"/>
<path id="Vector_22" d="M10.497 5.00122H9.49951V5.99872H10.497V5.00122Z" fill="#000001"/>
<path id="Vector_23" d="M9.49994 15.0024H8.50244V15.9999H9.49994V15.0024Z" fill="#000001"/>
<path id="Vector_24" d="M9.49961 3.99707H7.49805V5.00113H9.49961V3.99707Z" fill="#000001"/>
<path id="Vector_25" d="M8.50205 16H6.50049V18.0016H8.50205V16Z" fill="#000001"/>
<path id="Vector_26" d="M8.50205 10.9993H6.50049V11.9968H8.50205V10.9993Z" fill="#000001"/>
<path id="Vector_27" d="M8.50205 8.9978H6.50049V10.0019H8.50205V8.9978Z" fill="#000001"/>
<path id="Vector_28" d="M7.49842 5.00122H5.50342V5.99872H7.49842V5.00122Z" fill="#000001"/>
<path id="Vector_29" d="M6.50059 15.0024H4.49902V15.9999H6.50059V15.0024Z" fill="#000001"/>
<path id="Vector_30" d="M6.50092 10.0017H5.50342V10.9992H6.50092V10.0017Z" fill="#000001"/>
<path id="Vector_31" d="M5.50309 10.9993H4.49902V11.9968H5.50309V10.9993Z" fill="#000001"/>
<path id="Vector_32" d="M5.50309 8.9978H4.49902V10.0019H5.50309V8.9978Z" fill="#000001"/>
<path id="Vector_33" d="M5.50303 5.99854H3.50146V7.0026H5.50303V5.99854Z" fill="#000001"/>
<path id="Vector_34" d="M4.49912 13.9982H3.50162V13.0007H2.49756V15.0023H4.49912V13.9982Z" fill="#000001"/>
<path id="Vector_35" d="M4.49896 11.9968H3.50146V13.0009H4.49896V11.9968Z" fill="#000001"/>
<path id="Vector_36" d="M4.49896 8.00024H3.50146V8.99774H4.49896V8.00024Z" fill="#000001"/>
<path id="Vector_37" d="M3.50162 7.00269H2.49756V8.00019H3.50162V7.00269Z" fill="#000001"/>
</g>
</g>
</svg>
