<svg width="24" height="24" viewBox="0 0 24 24" fill="none" xmlns="http://www.w3.org/2000/svg">
<g id="logo-soundcloud-2">
<g id="Group">
<path id="Vector" d="M21.5027 12.5019H20.4987V11.5044H19.5012V10.5004H17.4996V11.5044H16.5021V12.5019H15.5046V11.5044H16.5021V10.5004H17.4996V8.49882H16.5021V7.50132H15.5046V6.50382H13.503V5.49976H11.5015V18.5001H19.5012V17.5026H20.4987V16.5051H21.5027V15.501H22.5002V13.4994H21.5027V12.5019Z" fill="#000001"/>
<path id="Vector_2" d="M10.5036 6.50391H9.49951V18.5002H10.5036V6.50391Z" fill="#000001"/>
<path id="Vector_3" d="M8.50238 7.50122H7.50488V18.5H8.50238V7.50122Z" fill="#000001"/>
<path id="Vector_4" d="M6.50043 10.5005H5.50293V18.5002H6.50043V10.5005Z" fill="#000001"/>
<path id="Vector_5" d="M4.49896 10.5005H3.50146V17.5027H4.49896V10.5005Z" fill="#000001"/>
<path id="Vector_6" d="M2.50406 12.502H1.5V16.5051H2.50406V12.502Z" fill="#000001"/>
</g>
</g>
</svg>
