<svg width="24" height="24" viewBox="0 0 24 24" fill="none" xmlns="http://www.w3.org/2000/svg">
<g id="logo-social-media-tiktok-circle">
<g id="Group">
<path id="Vector" d="M21.4959 7.49813H20.4984V5.49656H19.4944V4.49906H18.4969V3.50156H16.4953V2.4975H14.5003V1.5H9.49969V2.4975H7.49813V3.50156H5.49656V4.49906H4.49906V5.49656H3.495V7.49813H2.4975V9.49969H1.5V14.5003H2.4975V16.5019H3.495V18.4969H4.49906V19.5009H5.49656V20.4984H7.49813V21.5025H9.49969V22.5H14.5003V21.5025H16.4953V20.4984H18.4969V19.5009H19.4944V18.4969H20.4984V16.5019H21.4959V14.5003H22.5V9.49969H21.4959V7.49813ZM20.4984 11.5012H19.4944V12.4988H16.4953V17.4994H15.4978V18.4969H14.5003V19.5009H13.4963V20.4984H8.49562V19.5009H7.49813V18.4969H6.49406V17.4994H5.49656V15.4978H4.49906V11.5012H5.49656V10.4972H6.49406V9.49969H10.4972V12.4988H9.49969V15.4978H11.4947V4.49906H12.4988V3.50156H14.5003V4.49906H15.4978V5.49656H16.4953V6.50062H17.4994V7.49813H19.4944V8.50219H20.4984V11.5012Z" fill="#000001"/>
<path id="Vector_2" d="M7.4982 10.4971V11.5012H6.49414V15.4978H7.4982V17.4993H8.4957V18.4968H13.4963V17.4993H14.5004V9.49965H16.4954V10.4971H19.4945V8.50215H17.4995V7.49809H16.4954V6.50059H15.4979V5.49652H14.5004V4.49902H12.4988V15.4978H11.4948V16.5018H9.49977V15.4978H8.4957V12.4987H9.49977V10.4971H7.4982Z" fill="#000001"/>
</g>
</g>
</svg>
