<svg width="24" height="24" viewBox="0 0 24 24" fill="none" xmlns="http://www.w3.org/2000/svg">
<g id="logo-social-media-instagram-circle">
<g id="Group">
<path id="Vector" d="M2.4975 16.5019H3.495V18.4969H4.49906V19.5009H5.49656V20.4984H7.49813V21.5025H9.49969V22.5H14.5003V21.5025H16.4953V20.4984H18.4969V19.5009H19.4944V18.4969H20.4984V16.5019H21.4959V14.5003H22.5V9.49969H21.4959V7.49813H20.4984V5.49656H19.4944V4.49906H18.4969V3.50156H16.4953V2.4975H14.5003V1.5H9.49969V2.4975H7.49813V3.50156H5.49656V4.49906H4.49906V5.49656H3.495V7.49813H2.4975V9.49969H1.5V14.5003H2.4975V16.5019ZM3.495 9.49969H4.49906V7.49813H5.49656V6.50062H6.49406V5.49656H7.49813V4.49906H9.49969V3.50156H14.5003V4.49906H16.4953V5.49656H17.4994V6.50062H18.4969V7.49813H19.4944V9.49969H20.4984V14.5003H19.4944V16.5019H18.4969V17.4994H17.4994V18.4969H16.4953V19.5009H14.5003V20.4984H9.49969V19.5009H7.49813V18.4969H6.49406V17.4994H5.49656V16.5019H4.49906V14.5003H3.495V9.49969Z" fill="#000001"/>
<path id="Vector_2" d="M19.4943 11.5012H16.4953V14.5003H15.4978V15.4978H14.5003V16.5018H13.4962V17.4993H10.4971V16.5018H9.49965V15.4978H8.49559V14.5003H7.49809V11.5012H4.49902V14.5003H5.49652V16.5018H6.49402V17.4993H7.49809V18.4968H9.49965V19.5009H14.5003V18.4968H16.4953V17.4993H17.4993V16.5018H18.4968V14.5003H19.4943V11.5012Z" fill="#000001"/>
<path id="Vector_3" d="M10.497 15.4977H13.4961V14.5002H14.5001V11.5011H13.4961V13.5027H11.4945V11.5011H13.4961V10.4971H10.497V11.5011H9.49951V14.5002H10.497V15.4977Z" fill="#000001"/>
<path id="Vector_4" d="M9.49965 10.4971V9.49965H10.4971V8.50215H13.4962V9.49965H14.5003V10.4971H19.4943V9.49965H18.4968V7.49809H17.4993V6.50059H16.4953V8.50215H14.5003V6.50059H16.4953V5.49652H14.5003V4.49902H9.49965V5.49652H7.49809V6.50059H6.49402V7.49809H5.49652V9.49965H4.49902V10.4971H9.49965Z" fill="#000001"/>
</g>
</g>
</svg>
