<svg width="24" height="24" viewBox="0 0 24 24" fill="none" xmlns="http://www.w3.org/2000/svg">
<g id="logo-twitter">
<g id="Group">
<path id="Vector" d="M20.4952 9.00416V10.0017H21.4992V8.0001H18.5002V5.99854H17.4961V9.00416H20.4952Z" fill="#000001"/>
<path id="Vector_2" d="M20.4955 10.0017H19.498V10.9992H20.4955V10.0017Z" fill="#000001"/>
<path id="Vector_3" d="M19.498 10.9993H18.5005V12.0033H19.498V10.9993Z" fill="#000001"/>
<path id="Vector_4" d="M18.5002 12.0032H17.4961V15.9997H18.5002V12.0032Z" fill="#000001"/>
<path id="Vector_5" d="M17.4965 15.9998H16.499V18.0013H17.4965V15.9998Z" fill="#000001"/>
<path id="Vector_6" d="M17.4965 5.00098H16.499V5.99848H17.4965V5.00098Z" fill="#000001"/>
<path id="Vector_7" d="M16.499 18.0015H15.5015V18.999H16.499V18.0015Z" fill="#000001"/>
<path id="Vector_8" d="M16.499 4.00366H15.5015V5.00116H16.499V4.00366Z" fill="#000001"/>
<path id="Vector_9" d="M15.5011 18.9988H14.4971V20.0028H15.5011V18.9988Z" fill="#000001"/>
<path id="Vector_10" d="M15.5011 7.00269H13.4995V9.00425H15.5011V7.00269Z" fill="#000001"/>
<path id="Vector_11" d="M4.49604 20.0028V18.9988H3.49854V21.0003H14.4973V20.0028H4.49604Z" fill="#000001"/>
<path id="Vector_12" d="M15.5012 2.99951H11.498V4.00357H15.5012V2.99951Z" fill="#000001"/>
<path id="Vector_13" d="M11.498 4.00366H10.5005V5.00116H11.498V4.00366Z" fill="#000001"/>
<path id="Vector_14" d="M10.5006 5.00098H9.49658V5.99848H10.5006V5.00098Z" fill="#000001"/>
<path id="Vector_15" d="M9.49646 9.00416V5.99854H8.49896V8.0001H7.50146V9.00416H9.49646Z" fill="#000001"/>
<path id="Vector_16" d="M7.50162 15.9999H8.49912V15.0024H6.49756V17.004H7.50162V15.9999Z" fill="#000001"/>
<path id="Vector_17" d="M7.50162 7.00269H6.49756V8.00019H7.50162V7.00269Z" fill="#000001"/>
<path id="Vector_18" d="M6.4975 17.0039H5.5V18.0014H6.4975V17.0039Z" fill="#000001"/>
<path id="Vector_19" d="M6.4975 13.9983H5.5V15.0024H6.4975V13.9983Z" fill="#000001"/>
<path id="Vector_20" d="M6.4975 5.99854H5.5V7.0026H6.4975V5.99854Z" fill="#000001"/>
<path id="Vector_21" d="M5.50016 18.0015H4.49609V18.999H5.50016V18.0015Z" fill="#000001"/>
<path id="Vector_22" d="M5.50016 13.0007H4.49609V13.9982H5.50016V13.0007Z" fill="#000001"/>
<path id="Vector_23" d="M5.50016 5.00098H4.49609V5.99848H5.50016V5.00098Z" fill="#000001"/>
<path id="Vector_24" d="M4.49604 12.0032H3.49854V13.0007H4.49604V12.0032Z" fill="#000001"/>
<path id="Vector_25" d="M3.49848 5.00116H4.49598V4.00366H2.50098V12.0033H3.49848V5.00116Z" fill="#000001"/>
</g>
</g>
</svg>
