<svg width="24" height="24" viewBox="0 0 24 24" fill="none" xmlns="http://www.w3.org/2000/svg">
<g id="logo-soundcloud-1">
<g id="Group">
<path id="Vector" d="M22.4999 12H21.5024V16.0031H22.4999V12Z" fill="#000001"/>
<path id="Vector_2" d="M21.5026 16.0032H20.4985V17.0007H21.5026V16.0032Z" fill="#000001"/>
<path id="Vector_3" d="M21.5026 11.0024H20.4985V11.9999H21.5026V11.0024Z" fill="#000001"/>
<path id="Vector_4" d="M20.4985 17.0007H19.501V17.9982H20.4985V17.0007Z" fill="#000001"/>
<path id="Vector_5" d="M20.4985 9.99854H19.501V11.0026H20.4985V9.99854Z" fill="#000001"/>
<path id="Vector_6" d="M12.499 17.9981V6.00187H13.503V4.9978H11.5015V19.0022H19.5012V17.9981H12.499Z" fill="#000001"/>
<path id="Vector_7" d="M19.5011 9.00098H17.4995V9.99848H19.5011V9.00098Z" fill="#000001"/>
<path id="Vector_8" d="M17.4995 9.99854H16.502V11.0026H17.4995V9.99854Z" fill="#000001"/>
<path id="Vector_9" d="M17.4995 7.99683H16.502V9.00089H17.4995V7.99683Z" fill="#000001"/>
<path id="Vector_10" d="M16.5019 11.0024H15.5044V11.9999H16.5019V11.0024Z" fill="#000001"/>
<path id="Vector_11" d="M16.5019 6.99927H15.5044V7.99677H16.5019V6.99927Z" fill="#000001"/>
<path id="Vector_12" d="M15.5045 6.00195H13.5029V6.99945H15.5045V6.00195Z" fill="#000001"/>
<path id="Vector_13" d="M10.5036 6.00195H9.49951V19.0023H10.5036V6.00195Z" fill="#000001"/>
<path id="Vector_14" d="M8.50238 6.99927H7.50488V19.0021H8.50238V6.99927Z" fill="#000001"/>
<path id="Vector_15" d="M6.50043 9.99854H5.50293V19.0023H6.50043V9.99854Z" fill="#000001"/>
<path id="Vector_16" d="M4.49896 9.99854H3.50146V17.9982H4.49896V9.99854Z" fill="#000001"/>
<path id="Vector_17" d="M2.50406 12H1.5V17.0006H2.50406V12Z" fill="#000001"/>
</g>
</g>
</svg>
