<svg width="24" height="24" viewBox="0 0 24 24" fill="none" xmlns="http://www.w3.org/2000/svg">
<g id="logo-social-media-instagram">
<g id="Group">
<path id="Vector" d="M22.5002 3.50146H21.4961V20.4983H22.5002V3.50146Z" fill="#000001"/>
<path id="Vector_2" d="M21.496 20.4985H20.4985V21.5026H21.496V20.4985Z" fill="#000001"/>
<path id="Vector_3" d="M21.496 2.49756H20.4985V3.50162H21.496V2.49756Z" fill="#000001"/>
<path id="Vector_4" d="M20.4986 21.5024H3.49512V22.4999H20.4986V21.5024Z" fill="#000001"/>
<path id="Vector_5" d="M19.4945 4.49896H18.497V3.50146H5.49668V4.49896H4.49918V5.49646H3.49512V18.4968H4.49918V19.5008H5.49668V20.4983H18.497V19.5008H19.4945V18.4968H20.4986V5.49646H19.4945V4.49896ZM18.497 17.4993H17.4995V18.4968H6.49418V17.4993H5.49668V6.50053H6.49418V5.49646H17.4995V6.50053H18.497V17.4993Z" fill="#000001"/>
<path id="Vector_6" d="M17.4996 6.50073H15.498V8.5023H17.4996V6.50073Z" fill="#000001"/>
<path id="Vector_7" d="M15.4977 9.4997H14.5002V8.5022H9.49961V9.4997H8.49555V10.4972H7.49805V15.4978H8.49555V16.5019H9.49961V17.4994H14.5002V16.5019H15.4977V15.4978H16.4952V10.4972H15.4977V9.4997ZM14.5002 14.5003H13.4962V15.4978H10.4971V14.5003H9.49961V11.5013H10.4971V10.4972H13.4962V11.5013H14.5002V14.5003Z" fill="#000001"/>
<path id="Vector_8" d="M20.4986 1.5H3.49512V2.4975H20.4986V1.5Z" fill="#000001"/>
<path id="Vector_9" d="M3.49506 20.4985H2.49756V21.5026H3.49506V20.4985Z" fill="#000001"/>
<path id="Vector_10" d="M3.49506 2.49756H2.49756V3.50162H3.49506V2.49756Z" fill="#000001"/>
<path id="Vector_11" d="M2.4975 3.50146H1.5V20.4983H2.4975V3.50146Z" fill="#000001"/>
</g>
</g>
</svg>
