<svg width="24" height="24" viewBox="0 0 24 24" fill="none" xmlns="http://www.w3.org/2000/svg">
<g id="logo-social-media-tiktok">
<g id="Group">
<path id="Vector" d="M22.5002 3.50146H21.4961V20.4983H22.5002V3.50146Z" fill="#000001"/>
<path id="Vector_2" d="M21.496 20.4985H20.4985V21.5026H21.496V20.4985Z" fill="#000001"/>
<path id="Vector_3" d="M21.496 2.49756H20.4985V3.50162H21.496V2.49756Z" fill="#000001"/>
<path id="Vector_4" d="M20.4986 21.5024H3.49512V22.4999H20.4986V21.5024Z" fill="#000001"/>
<path id="Vector_5" d="M19.4945 7.49803H17.4995V8.50209H16.4954V7.49803H15.4979V6.50053H14.5004V5.49646H15.4979V4.49896H14.5004V3.50146H12.4989V4.49896H11.4948V16.5018H10.4973V17.4993H8.49574V16.5018H7.49824V12.4987H8.49574V11.5012H9.4998V8.50209H6.49418V9.49959H5.49668V10.4971H4.49918V11.5012H3.49512V16.5018H4.49918V12.4987H5.49668V11.5012H6.49418V10.4971H7.49824V11.5012H6.49418V12.4987H5.49668V16.5018H4.49918V18.4968H5.49668V17.4993H6.49418V18.4968H7.49824V19.5008H6.49418V20.4983H12.4989V19.5008H13.4964V18.4968H14.5004V17.4993H15.4979V10.4971H16.4954V11.5012H19.4945V10.4971H20.4986V8.50209H19.4945V7.49803ZM14.5004 16.5018H13.4964V9.49959H14.5004V16.5018Z" fill="#000001"/>
<path id="Vector_6" d="M17.4992 6.50073H16.4951V7.49823H17.4992V6.50073Z" fill="#000001"/>
<path id="Vector_7" d="M16.4955 5.49658H15.498V6.50064H16.4955V5.49658Z" fill="#000001"/>
<path id="Vector_8" d="M6.49408 18.4968H5.49658V19.5009H6.49408V18.4968Z" fill="#000001"/>
<path id="Vector_9" d="M20.4986 1.5H3.49512V2.4975H20.4986V1.5Z" fill="#000001"/>
<path id="Vector_10" d="M3.49506 20.4985H2.49756V21.5026H3.49506V20.4985Z" fill="#000001"/>
<path id="Vector_11" d="M3.49506 2.49756H2.49756V3.50162H3.49506V2.49756Z" fill="#000001"/>
<path id="Vector_12" d="M2.4975 3.50146H1.5V20.4983H2.4975V3.50146Z" fill="#000001"/>
</g>
</g>
</svg>
