<svg width="24" height="24" viewBox="0 0 24 24" fill="none" xmlns="http://www.w3.org/2000/svg">
<g id="logo-whatapp">
<g id="Group">
<path id="Vector" d="M22.5002 9.00098H21.4961V14.9991H22.5002V9.00098Z" fill="#000001"/>
<path id="Vector_2" d="M21.496 14.999H20.4985V17.0006H21.496V14.999Z" fill="#000001"/>
<path id="Vector_3" d="M21.496 6.99951H20.4985V9.00107H21.496V6.99951Z" fill="#000001"/>
<path id="Vector_4" d="M20.4982 17.0007H19.4941V18.9957H20.4982V17.0007Z" fill="#000001"/>
<path id="Vector_5" d="M20.4982 4.9978H19.4941V6.99937H20.4982V4.9978Z" fill="#000001"/>
<path id="Vector_6" d="M19.4945 18.9956H17.4995V19.9997H19.4945V18.9956Z" fill="#000001"/>
<path id="Vector_7" d="M19.4945 4.00024H17.4995V4.99774H19.4945V4.00024Z" fill="#000001"/>
<path id="Vector_8" d="M17.4995 12.9975H14.5004V14.0016H13.4963V12.9975H12.4988V12H11.4948V10.996H10.4973V9.99849H11.4948V6.99942H10.4973V5.99536H7.4982V6.99942H6.49414V9.99849H7.4982V12H8.4957V12.9975H9.49977V14.0016H10.4973V14.9991H11.4948V15.9966H12.4988V17.0007H14.5004V17.9982H17.4995V17.0007H18.497V14.0016H17.4995V12.9975Z" fill="#000001"/>
<path id="Vector_9" d="M17.4996 19.9998H15.498V20.9973H17.4996V19.9998Z" fill="#000001"/>
<path id="Vector_10" d="M17.4996 2.99634H15.498V4.0004H17.4996V2.99634Z" fill="#000001"/>
<path id="Vector_11" d="M15.4976 20.9973H9.49951V22.0014H15.4976V20.9973Z" fill="#000001"/>
<path id="Vector_12" d="M15.4976 1.99878H9.49951V2.99628H15.4976V1.99878Z" fill="#000001"/>
<path id="Vector_13" d="M9.49977 19.9998H6.49414V20.9973H9.49977V19.9998Z" fill="#000001"/>
<path id="Vector_14" d="M9.49961 2.99634H7.49805V4.0004H9.49961V2.99634Z" fill="#000001"/>
<path id="Vector_15" d="M7.49814 4.00024H5.49658V4.99774H7.49814V4.00024Z" fill="#000001"/>
<path id="Vector_16" d="M3.495 20.9973V19.9998H2.4975V20.9973H1.5V22.0013H6.49406V20.9973H3.495Z" fill="#000001"/>
<path id="Vector_17" d="M5.49652 17.0007H4.49902V18.9957H5.49652V17.0007Z" fill="#000001"/>
<path id="Vector_18" d="M5.49652 4.9978H4.49902V6.99937H5.49652V4.9978Z" fill="#000001"/>
<path id="Vector_19" d="M4.49918 18.9956H3.49512V19.9997H4.49918V18.9956Z" fill="#000001"/>
<path id="Vector_20" d="M4.49918 14.999H3.49512V17.0006H4.49918V14.999Z" fill="#000001"/>
<path id="Vector_21" d="M4.49918 6.99951H3.49512V9.00107H4.49918V6.99951Z" fill="#000001"/>
<path id="Vector_22" d="M3.49506 9.00098H2.49756V14.9991H3.49506V9.00098Z" fill="#000001"/>
</g>
</g>
</svg>
