<svg width="24" height="24" viewBox="0 0 24 24" fill="none" xmlns="http://www.w3.org/2000/svg">
<g id="logo-discord">
<g id="Group">
<path id="Vector" d="M21.4959 7.49813H20.4984V5.49656H19.4944V4.49906H18.4969V3.50156H16.4953V2.4975H14.5003V1.5H9.49969V2.4975H7.49813V3.50156H5.49656V4.49906H4.49906V5.49656H3.495V7.49813H2.4975V9.49969H1.5V14.5003H2.4975V16.5019H3.495V18.4969H4.49906V19.5009H5.49656V20.4984H7.49813V21.5025H9.49969V22.5H14.5003V21.5025H16.4953V20.4984H18.4969V19.5009H19.4944V18.4969H20.4984V16.5019H21.4959V14.5003H22.5V9.49969H21.4959V7.49813ZM20.4984 15.4978H19.4944V16.5019H18.4969V17.4994H17.4994V18.4969H13.4963V17.4994H16.4953V15.4978H7.49813V17.4994H10.4972V18.4969H6.49406V17.4994H5.49656V16.5019H4.49906V15.4978H3.495V10.4972H4.49906V8.50219H5.49656V7.49813H6.49406V6.50062H10.4972V7.49813H13.4963V6.50062H17.4994V7.49813H18.4969V8.50219H19.4944V10.4972H20.4984V15.4978Z" fill="#000001"/>
<path id="Vector_2" d="M15.4979 10.4971H13.4963V12.4986H15.4979V10.4971Z" fill="#000001"/>
<path id="Vector_3" d="M10.4972 10.4971H8.49561V12.4986H10.4972V10.4971Z" fill="#000001"/>
</g>
</g>
</svg>
