<svg width="24" height="24" viewBox="0 0 24 24" fill="none" xmlns="http://www.w3.org/2000/svg">
<g id="logo-pinterest">
<g id="Group">
<path id="Vector" d="M22.5002 3.50146H21.4961V20.4983H22.5002V3.50146Z" fill="#000001"/>
<path id="Vector_2" d="M21.496 20.4985H20.4985V21.5026H21.496V20.4985Z" fill="#000001"/>
<path id="Vector_3" d="M21.496 2.49756H20.4985V3.50162H21.496V2.49756Z" fill="#000001"/>
<path id="Vector_4" d="M20.4986 21.5024H3.49512V22.4999H20.4986V21.5024Z" fill="#000001"/>
<path id="Vector_5" d="M17.4994 5.49646H16.4953V4.49896H14.5003V3.50146H10.4972V4.49896H8.49564V5.49646H7.49814V6.50053H6.49408V7.49803H5.49658V10.4971H6.49408V11.5012H7.49814V10.4971H8.49564V8.50209H9.49971V7.49803H14.5003V8.50209H15.4978V10.4971H14.5003V12.4987H13.4963V13.5027H11.4947V12.4987H12.4988V10.4971H11.4947V9.49959H9.49971V10.4971H8.49564V12.4987H7.49814V14.5002H6.49408V16.5018H5.49658V19.5008H6.49408V20.4983H7.49814V19.5008H8.49564V17.4993H9.49971V15.4977H11.4947V16.5018H14.5003V15.4977H15.4978V14.5002H16.4953V13.5027H17.4994V11.5012H18.4969V7.49803H17.4994V5.49646Z" fill="#000001"/>
<path id="Vector_6" d="M20.4986 1.5H3.49512V2.4975H20.4986V1.5Z" fill="#000001"/>
<path id="Vector_7" d="M3.49506 20.4985H2.49756V21.5026H3.49506V20.4985Z" fill="#000001"/>
<path id="Vector_8" d="M3.49506 2.49756H2.49756V3.50162H3.49506V2.49756Z" fill="#000001"/>
<path id="Vector_9" d="M2.4975 3.50146H1.5V20.4983H2.4975V3.50146Z" fill="#000001"/>
</g>
</g>
</svg>
