<svg width="24" height="24" viewBox="0 0 24 24" fill="none" xmlns="http://www.w3.org/2000/svg">
<g id="map-navigation-compass-direction">
<g id="Group">
<path id="Vector" d="M16.4951 11.5013H15.4976V10.5038H14.5001V9.49974H13.4961V8.50224H12.4986V7.49817H11.5011V6.50067H10.497V5.50317H9.49951V17.4994H10.497V16.5019H11.5011V15.5044H12.4986V14.5004H13.4961V13.5029H17.4992V12.4988H16.4951V11.5013ZM11.5011 13.5029H10.497V9.49974H11.5011V13.5029Z" fill="#000001"/>
<path id="Vector_2" d="M22.5002 9.49976H21.4961V14.5004H22.5002V9.49976Z" fill="#000001"/>
<path id="Vector_3" d="M21.496 14.5002H20.4985V16.5018H21.496V14.5002Z" fill="#000001"/>
<path id="Vector_4" d="M21.496 7.49805H20.4985V9.49961H21.496V7.49805Z" fill="#000001"/>
<path id="Vector_5" d="M20.4985 16.502H19.501V18.5035H20.4985V16.502Z" fill="#000001"/>
<path id="Vector_6" d="M20.4985 5.50317H19.501V7.49817H20.4985V5.50317Z" fill="#000001"/>
<path id="Vector_7" d="M19.5011 18.5034H18.4971V19.5009H19.5011V18.5034Z" fill="#000001"/>
<path id="Vector_8" d="M19.5011 4.49902H18.4971V5.50309H19.5011V4.49902Z" fill="#000001"/>
<path id="Vector_9" d="M18.4967 19.501H16.4951V20.4985H18.4967V19.501Z" fill="#000001"/>
<path id="Vector_10" d="M18.4967 3.50146H16.4951V4.49896H18.4967V3.50146Z" fill="#000001"/>
<path id="Vector_11" d="M16.4955 20.4985H14.5005V21.5026H16.4955V20.4985Z" fill="#000001"/>
<path id="Vector_12" d="M16.4955 2.50415H14.5005V3.50165H16.4955V2.50415Z" fill="#000001"/>
<path id="Vector_13" d="M14.5001 21.5024H9.49951V22.4999H14.5001V21.5024Z" fill="#000001"/>
<path id="Vector_14" d="M14.5001 1.5H9.49951V2.50406H14.5001V1.5Z" fill="#000001"/>
<path id="Vector_15" d="M9.49961 20.4985H7.49805V21.5026H9.49961V20.4985Z" fill="#000001"/>
<path id="Vector_16" d="M9.49961 2.50415H7.49805V3.50165H9.49961V2.50415Z" fill="#000001"/>
<path id="Vector_17" d="M7.49814 19.501H5.49658V20.4985H7.49814V19.501Z" fill="#000001"/>
<path id="Vector_18" d="M7.49814 3.50146H5.49658V4.49896H7.49814V3.50146Z" fill="#000001"/>
<path id="Vector_19" d="M5.49652 18.5034H4.49902V19.5009H5.49652V18.5034Z" fill="#000001"/>
<path id="Vector_20" d="M5.49652 4.49902H4.49902V5.50309H5.49652V4.49902Z" fill="#000001"/>
<path id="Vector_21" d="M4.49918 16.502H3.49512V18.5035H4.49918V16.502Z" fill="#000001"/>
<path id="Vector_22" d="M4.49918 5.50317H3.49512V7.49817H4.49918V5.50317Z" fill="#000001"/>
<path id="Vector_23" d="M3.49506 14.5002H2.49756V16.5018H3.49506V14.5002Z" fill="#000001"/>
<path id="Vector_24" d="M3.49506 7.49805H2.49756V9.49961H3.49506V7.49805Z" fill="#000001"/>
<path id="Vector_25" d="M2.4975 9.49976H1.5V14.5004H2.4975V9.49976Z" fill="#000001"/>
</g>
</g>
</svg>
