<svg width="24" height="24" viewBox="0 0 24 24" fill="none" xmlns="http://www.w3.org/2000/svg">
<g id="map-navigation-pin-location-2">
<g id="Group">
<path id="Vector" d="M21.499 18.4968H20.5015V20.4984H21.499V18.4968Z" fill="#000001"/>
<path id="Vector_2" d="M20.5016 17.4993H18.5V18.4968H20.5016V17.4993Z" fill="#000001"/>
<path id="Vector_3" d="M20.5016 20.4985H18.5V21.496H20.5016V20.4985Z" fill="#000001"/>
<path id="Vector_4" d="M18.5001 16.4954H16.4985V17.4994H18.5001V16.4954Z" fill="#000001"/>
<path id="Vector_5" d="M18.4999 5.49658H17.5024V10.4972H18.4999V5.49658Z" fill="#000001"/>
<path id="Vector_6" d="M18.4998 21.4958H5.49951V22.4999H18.4998V21.4958Z" fill="#000001"/>
<path id="Vector_7" d="M17.5026 10.4971H16.4985V13.4961H17.5026V10.4971Z" fill="#000001"/>
<path id="Vector_8" d="M17.5026 3.49512H16.4985V5.49668H17.5026V3.49512Z" fill="#000001"/>
<path id="Vector_9" d="M16.4985 13.4963H15.501V15.4979H16.4985V13.4963Z" fill="#000001"/>
<path id="Vector_10" d="M15.5009 15.4978H14.5034V17.4994H15.5009V15.4978Z" fill="#000001"/>
<path id="Vector_11" d="M16.4984 2.49756H14.5034V3.49506H16.4984V2.49756Z" fill="#000001"/>
<path id="Vector_12" d="M14.5031 17.4993H13.499V18.4968H14.5031V17.4993Z" fill="#000001"/>
<path id="Vector_13" d="M14.5031 5.49658H13.499V6.49408H14.5031V5.49658Z" fill="#000001"/>
<path id="Vector_14" d="M13.4995 18.4968H12.502V19.4943H13.4995V18.4968Z" fill="#000001"/>
<path id="Vector_15" d="M12.5016 19.4944H11.4976V20.4984H12.5016V19.4944Z" fill="#000001"/>
<path id="Vector_16" d="M11.4975 18.4968H10.5V19.4943H11.4975V18.4968Z" fill="#000001"/>
<path id="Vector_17" d="M14.5031 1.5H9.50244V2.4975H14.5031V1.5Z" fill="#000001"/>
<path id="Vector_18" d="M10.4999 17.4993H9.50244V18.4968H10.4999V17.4993Z" fill="#000001"/>
<path id="Vector_19" d="M9.5026 10.4971H10.5001V11.4946H13.4992V10.4971H14.5032V9.49965H15.5007V6.49402H14.5032V8.49559H13.4992V6.49402H12.5017V5.49652H13.4992V4.49902H10.5001V5.49652H9.5026V6.49402H8.49854V9.49965H9.5026V10.4971Z" fill="#000001"/>
<path id="Vector_20" d="M9.5026 15.4978H8.49854V17.4994H9.5026V15.4978Z" fill="#000001"/>
<path id="Vector_21" d="M9.50254 2.49756H7.50098V3.49506H9.50254V2.49756Z" fill="#000001"/>
<path id="Vector_22" d="M8.49848 13.4963H7.50098V15.4979H8.49848V13.4963Z" fill="#000001"/>
<path id="Vector_23" d="M7.50107 16.4954H5.49951V17.4994H7.50107V16.4954Z" fill="#000001"/>
<path id="Vector_24" d="M7.50113 10.4971H6.49707V13.4961H7.50113V10.4971Z" fill="#000001"/>
<path id="Vector_25" d="M7.50113 3.49512H6.49707V5.49668H7.50113V3.49512Z" fill="#000001"/>
<path id="Vector_26" d="M6.49701 5.49658H5.49951V10.4972H6.49701V5.49658Z" fill="#000001"/>
<path id="Vector_27" d="M5.49961 20.4985H3.49805V21.496H5.49961V20.4985Z" fill="#000001"/>
<path id="Vector_28" d="M5.49961 17.4993H3.49805V18.4968H5.49961V17.4993Z" fill="#000001"/>
<path id="Vector_29" d="M3.49799 18.4968H2.50049V20.4984H3.49799V18.4968Z" fill="#000001"/>
</g>
</g>
</svg>
