<svg width="24" height="24" viewBox="0 0 24 24" fill="none" xmlns="http://www.w3.org/2000/svg">
<g id="map-navigation-pin-location-trip">
<g id="Group">
<path id="Vector" d="M18.5035 10.9958H16.5019V11.9999H15.5044V14.0015H16.5019V14.999H18.5035V14.0015H19.501V11.9999H18.5035V10.9958Z" fill="#000001"/>
<path id="Vector_2" d="M21.5026 10.9958H20.4985V11.9999H21.5026V10.9958Z" fill="#000001"/>
<path id="Vector_3" d="M20.4985 9.99854H19.501V10.996H20.4985V9.99854Z" fill="#000001"/>
<path id="Vector_4" d="M19.501 9.00098H15.5044V9.99848H19.501V9.00098Z" fill="#000001"/>
<path id="Vector_5" d="M15.5046 9.99854H14.5005V10.996H15.5046V9.99854Z" fill="#000001"/>
<path id="Vector_6" d="M14.5004 10.9958H13.5029V11.9999H14.5004V10.9958Z" fill="#000001"/>
<path id="Vector_7" d="M22.4999 12H21.5024V15.9966H22.4999V12Z" fill="#000001"/>
<path id="Vector_8" d="M21.5026 15.9966H20.4985V17.9981H21.5026V15.9966Z" fill="#000001"/>
<path id="Vector_9" d="M20.4985 17.998H19.501V19.9996H20.4985V17.998Z" fill="#000001"/>
<path id="Vector_10" d="M19.5009 19.9998H18.5034V20.9973H19.5009V19.9998Z" fill="#000001"/>
<path id="Vector_11" d="M18.5035 20.9973H16.502V22.0014H18.5035V20.9973Z" fill="#000001"/>
<path id="Vector_12" d="M16.5019 19.9998H15.5044V20.9973H16.5019V19.9998Z" fill="#000001"/>
<path id="Vector_13" d="M15.5046 17.998H14.5005V19.9996H15.5046V17.998Z" fill="#000001"/>
<path id="Vector_14" d="M14.5004 15.9966H13.5029V17.9981H14.5004V15.9966Z" fill="#000001"/>
<path id="Vector_15" d="M14.5001 20.9973H12.4985V22.0014H14.5001V20.9973Z" fill="#000001"/>
<path id="Vector_16" d="M13.5026 12H12.4985V15.9966H13.5026V12Z" fill="#000001"/>
<path id="Vector_17" d="M11.5014 4.9978H10.5039V9.00093H11.5014V4.9978Z" fill="#000001"/>
<path id="Vector_18" d="M11.5011 20.9973H9.49951V22.0014H11.5011V20.9973Z" fill="#000001"/>
<path id="Vector_19" d="M10.5036 9.00098H9.49951V10.996H10.5036V9.00098Z" fill="#000001"/>
<path id="Vector_20" d="M10.5036 4.00024H9.49951V4.99774H10.5036V4.00024Z" fill="#000001"/>
<path id="Vector_21" d="M9.49945 10.9958H8.50195V12.9974H9.49945V10.9958Z" fill="#000001"/>
<path id="Vector_22" d="M9.49945 2.99634H8.50195V4.0004H9.49945V2.99634Z" fill="#000001"/>
<path id="Vector_23" d="M8.50211 12.9976H7.49805V14.0016H8.50211V12.9976Z" fill="#000001"/>
<path id="Vector_24" d="M8.50205 20.9973H6.50049V22.0014H8.50205V20.9973Z" fill="#000001"/>
<path id="Vector_25" d="M7.49809 4.00024H5.50309V4.99774H4.49902V6.99931H5.50309V7.99681H7.49809V6.99931H8.50215V4.99774H7.49809V4.00024Z" fill="#000001"/>
<path id="Vector_26" d="M6.50043 19.0022H5.50293V20.9972H6.50043V19.0022Z" fill="#000001"/>
<path id="Vector_27" d="M6.50043 15.9966H5.50293V17.9981H6.50043V15.9966Z" fill="#000001"/>
<path id="Vector_28" d="M7.49793 14.0017H5.50293V14.9992H7.49793V14.0017Z" fill="#000001"/>
<path id="Vector_29" d="M8.50215 1.99878H4.49902V2.99628H8.50215V1.99878Z" fill="#000001"/>
<path id="Vector_30" d="M5.50309 12.9976H4.49902V14.0016H5.50309V12.9976Z" fill="#000001"/>
<path id="Vector_31" d="M4.49896 10.9958H3.50146V12.9974H4.49896V10.9958Z" fill="#000001"/>
<path id="Vector_32" d="M4.49896 2.99634H3.50146V4.0004H4.49896V2.99634Z" fill="#000001"/>
<path id="Vector_33" d="M3.50141 9.00098H2.50391V10.996H3.50141V9.00098Z" fill="#000001"/>
<path id="Vector_34" d="M3.50141 4.00024H2.50391V4.99774H3.50141V4.00024Z" fill="#000001"/>
<path id="Vector_35" d="M2.50406 4.9978H1.5V9.00093H2.50406V4.9978Z" fill="#000001"/>
</g>
</g>
</svg>
