<svg width="24" height="24" viewBox="0 0 24 24" fill="none" xmlns="http://www.w3.org/2000/svg">
<g id="map-navigation-pin-location-1">
<g id="Group">
<path id="Vector" d="M19.498 6.49414H18.5005V11.4948H19.498V6.49414Z" fill="#000001"/>
<path id="Vector_2" d="M18.5004 11.4946H17.5029V14.4937H18.5004V11.4946Z" fill="#000001"/>
<path id="Vector_3" d="M18.5004 4.49902H17.5029V6.49402H18.5004V4.49902Z" fill="#000001"/>
<path id="Vector_4" d="M17.5026 14.4937H16.4985V16.4952H17.5026V14.4937Z" fill="#000001"/>
<path id="Vector_5" d="M17.5026 3.49512H16.4985V4.49918H17.5026V3.49512Z" fill="#000001"/>
<path id="Vector_6" d="M16.4985 16.4954H15.501V18.4969H16.4985V16.4954Z" fill="#000001"/>
<path id="Vector_7" d="M15.5012 9.49965H14.5037V7.49809H13.4996V6.49402H12.5021V5.49652H13.4996V4.49902H10.5005V5.49652H9.50303V6.49402H8.49896V7.49809H7.50146V10.4971H8.49896V11.4946H9.50303V12.4987H10.5005V13.4962H13.4996V12.4987H14.5037V11.4946H15.5012V10.4971H16.4987V7.49809H15.5012V9.49965Z" fill="#000001"/>
<path id="Vector_8" d="M15.5014 18.4968H14.5039V19.4943H15.5014V18.4968Z" fill="#000001"/>
<path id="Vector_9" d="M15.5014 6.49414H14.5039V7.4982H15.5014V6.49414Z" fill="#000001"/>
<path id="Vector_10" d="M16.4989 2.49756H14.5039V3.49506H16.4989V2.49756Z" fill="#000001"/>
<path id="Vector_11" d="M14.5036 19.4944H13.4995V20.4984H14.5036V19.4944Z" fill="#000001"/>
<path id="Vector_12" d="M14.5036 5.49658H13.4995V6.49408H14.5036V5.49658Z" fill="#000001"/>
<path id="Vector_13" d="M13.4995 20.4985H12.502V21.496H13.4995V20.4985Z" fill="#000001"/>
<path id="Vector_14" d="M12.5021 21.4958H11.498V22.4999H12.5021V21.4958Z" fill="#000001"/>
<path id="Vector_15" d="M11.498 20.4985H10.5005V21.496H11.498V20.4985Z" fill="#000001"/>
<path id="Vector_16" d="M14.5036 1.5H9.50293V2.4975H14.5036V1.5Z" fill="#000001"/>
<path id="Vector_17" d="M10.5004 19.4944H9.50293V20.4984H10.5004V19.4944Z" fill="#000001"/>
<path id="Vector_18" d="M9.50309 18.4968H8.49902V19.4943H9.50309V18.4968Z" fill="#000001"/>
<path id="Vector_19" d="M9.50303 2.49756H7.50146V3.49506H9.50303V2.49756Z" fill="#000001"/>
<path id="Vector_20" d="M8.49896 16.4954H7.50146V18.4969H8.49896V16.4954Z" fill="#000001"/>
<path id="Vector_21" d="M7.50162 14.4937H6.49756V16.4952H7.50162V14.4937Z" fill="#000001"/>
<path id="Vector_22" d="M7.50162 3.49512H6.49756V4.49918H7.50162V3.49512Z" fill="#000001"/>
<path id="Vector_23" d="M6.4975 11.4946H5.5V14.4937H6.4975V11.4946Z" fill="#000001"/>
<path id="Vector_24" d="M6.4975 4.49902H5.5V6.49402H6.4975V4.49902Z" fill="#000001"/>
<path id="Vector_25" d="M5.49994 6.49414H4.50244V11.4948H5.49994V6.49414Z" fill="#000001"/>
</g>
</g>
</svg>
