<svg width="24" height="24" viewBox="0 0 24 24" fill="none" xmlns="http://www.w3.org/2000/svg">
<g id="map-navigation-location-focus">
<g id="Group">
<path id="Vector" d="M19.5009 11.5013V9.49976H18.5034V14.5004H19.5009V12.4988H22.5V11.5013H19.5009Z" fill="#000001"/>
<path id="Vector_2" d="M18.5036 14.5002H17.4995V16.5018H18.5036V14.5002Z" fill="#000001"/>
<path id="Vector_3" d="M18.5036 7.49805H17.4995V9.49961H18.5036V7.49805Z" fill="#000001"/>
<path id="Vector_4" d="M17.4995 16.502H16.502V17.4995H17.4995V16.502Z" fill="#000001"/>
<path id="Vector_5" d="M17.4995 6.50073H16.502V7.49823H17.4995V6.50073Z" fill="#000001"/>
<path id="Vector_6" d="M16.5021 17.4993H14.5005V18.5033H16.5021V17.4993Z" fill="#000001"/>
<path id="Vector_7" d="M15.5043 8.50211H13.5027V7.49805H10.5037V8.50211H8.50211V10.4971H7.49805V13.5027H8.50211V15.4977H10.5037V16.5018H13.5027V15.4977H15.5043V13.5027H16.5018V10.4971H15.5043V8.50211ZM12.4987 10.4971H13.5027V11.5012H12.4987V10.4971ZM10.5037 10.4971H11.5012V11.5012H10.5037V10.4971ZM14.5002 13.5027H13.5027V14.5002H10.5037V13.5027H9.49961V12.4987H10.5037V13.5027H13.5027V12.4987H14.5002V13.5027Z" fill="#000001"/>
<path id="Vector_8" d="M16.5021 5.50317H14.5005V6.50067H16.5021V5.50317Z" fill="#000001"/>
<path id="Vector_9" d="M9.49951 18.5034V19.5009H11.5011V22.5H12.4986V19.5009H14.5001V18.5034H9.49951Z" fill="#000001"/>
<path id="Vector_10" d="M14.5001 5.50312V4.49906H12.4986V1.5H11.5011V4.49906H9.49951V5.50312H14.5001Z" fill="#000001"/>
<path id="Vector_11" d="M9.49961 17.4993H7.49805V18.5033H9.49961V17.4993Z" fill="#000001"/>
<path id="Vector_12" d="M9.49961 5.50317H7.49805V6.50067H9.49961V5.50317Z" fill="#000001"/>
<path id="Vector_13" d="M7.49799 16.502H6.50049V17.4995H7.49799V16.502Z" fill="#000001"/>
<path id="Vector_14" d="M7.49799 6.50073H6.50049V7.49823H7.49799V6.50073Z" fill="#000001"/>
<path id="Vector_15" d="M6.50043 14.5002H5.50293V16.5018H6.50043V14.5002Z" fill="#000001"/>
<path id="Vector_16" d="M6.50043 7.49805H5.50293V9.49961H6.50043V7.49805Z" fill="#000001"/>
<path id="Vector_17" d="M5.50312 9.49976H4.49906V11.5013H1.5V12.4988H4.49906V14.5004H5.50312V9.49976Z" fill="#000001"/>
</g>
</g>
</svg>
