<svg width="24" height="24" viewBox="0 0 24 24" fill="none" xmlns="http://www.w3.org/2000/svg">
<g id="mobile-phone">
<g id="Group">
<path id="Vector" d="M17.9982 5.49658H17.0007V21.496H17.9982V5.49658Z" fill="#000001"/>
<path id="Vector_2" d="M17.0008 21.4958H6.99951V22.4999H17.0008V21.4958Z" fill="#000001"/>
<path id="Vector_3" d="M16.0031 15.4978H14.999V16.4953H16.0031V15.4978Z" fill="#000001"/>
<path id="Vector_4" d="M16.0031 13.4963H14.999V14.4938H16.0031V13.4963Z" fill="#000001"/>
<path id="Vector_5" d="M16.0033 19.4944H14.0017V20.4984H16.0033V19.4944Z" fill="#000001"/>
<path id="Vector_6" d="M16.0033 17.4993H14.0017V18.4968H16.0033V17.4993Z" fill="#000001"/>
<path id="Vector_7" d="M8.00342 6.49414V12.4988H16.0031V6.49414H8.00342ZM13.004 8.4957H12V9.49977H11.0025V10.4973H9.99842V11.4948H9.00092V7.4982H13.004V8.4957Z" fill="#000001"/>
<path id="Vector_8" d="M14.0017 14.4938H13.0042V13.4963H11.0026V14.4938H9.99854V15.4979H11.0026V16.4954H13.0042V15.4979H14.0017V14.4938Z" fill="#000001"/>
<path id="Vector_9" d="M13.0042 19.4944H11.0027V20.4984H13.0042V19.4944Z" fill="#000001"/>
<path id="Vector_10" d="M13.0042 17.4993H11.0027V18.4968H13.0042V17.4993Z" fill="#000001"/>
<path id="Vector_11" d="M9.99842 19.4944H8.00342V20.4984H9.99842V19.4944Z" fill="#000001"/>
<path id="Vector_12" d="M9.99842 17.4993H8.00342V18.4968H9.99842V17.4993Z" fill="#000001"/>
<path id="Vector_13" d="M9.00092 15.4978H8.00342V16.4953H9.00092V15.4978Z" fill="#000001"/>
<path id="Vector_14" d="M9.00092 13.4963H8.00342V14.4938H9.00092V13.4963Z" fill="#000001"/>
<path id="Vector_15" d="M8.00357 1.5H6.99951V2.4975H8.00357V1.5Z" fill="#000001"/>
<path id="Vector_16" d="M6.99945 5.49662H17.0007V4.49912H9.00102V2.49756H8.00352V4.49912H6.99945V2.49756H6.00195V21.496H6.99945V5.49662Z" fill="#000001"/>
</g>
</g>
</svg>
