<svg width="24" height="24" viewBox="0 0 24 24" fill="none" xmlns="http://www.w3.org/2000/svg">
<g id="money-payments-diamond">
<g id="Group">
<path id="Vector" d="M22.4999 20.4985H21.4958V21.5026H22.4999V20.4985Z" fill="#000001"/>
<path id="Vector_2" d="M21.496 2.49756H20.4985V3.50162H19.501V4.49912H20.4985V5.50318H21.496V4.49912H22.5V3.50162H21.496V2.49756Z" fill="#000001"/>
<path id="Vector_3" d="M21.496 16.502H20.4985V17.4995H21.496V16.502Z" fill="#000001"/>
<path id="Vector_4" d="M20.4985 17.4993H19.501V18.5033H20.4985V17.4993Z" fill="#000001"/>
<path id="Vector_5" d="M20.4985 15.4978H19.501V16.5019H20.4985V15.4978Z" fill="#000001"/>
<path id="Vector_6" d="M20.4985 11.5012H19.501V12.4987H20.4985V11.5012Z" fill="#000001"/>
<path id="Vector_7" d="M20.4985 7.49805H19.501V8.50211H20.4985V7.49805Z" fill="#000001"/>
<path id="Vector_8" d="M19.5009 16.502H18.4968V17.4995H19.5009V16.502Z" fill="#000001"/>
<path id="Vector_9" d="M19.5009 12.4988H18.4968V13.5028H19.5009V12.4988Z" fill="#000001"/>
<path id="Vector_10" d="M19.5009 6.50073H18.4968V7.49823H19.5009V6.50073Z" fill="#000001"/>
<path id="Vector_11" d="M18.4968 13.5029H17.4993V14.5004H18.4968V13.5029Z" fill="#000001"/>
<path id="Vector_12" d="M18.4968 5.50317H17.4993V6.50067H18.4968V5.50317Z" fill="#000001"/>
<path id="Vector_13" d="M17.4994 22.5V21.5025H18.4969V20.4985H17.4994V19.501H16.4953V20.4985H15.4978V21.5025H16.4953V22.5H17.4994Z" fill="#000001"/>
<path id="Vector_14" d="M17.4994 14.5002H16.4954V15.4977H17.4994V14.5002Z" fill="#000001"/>
<path id="Vector_15" d="M16.4953 15.4978H15.4978V16.5019H16.4953V15.4978Z" fill="#000001"/>
<path id="Vector_16" d="M16.4953 11.5012H15.4978V12.4987H16.4953V11.5012Z" fill="#000001"/>
<path id="Vector_17" d="M16.4953 7.49805H15.4978V8.50211H16.4953V7.49805Z" fill="#000001"/>
<path id="Vector_18" d="M16.4953 2.49756H15.4978V3.50162H16.4953V2.49756Z" fill="#000001"/>
<path id="Vector_19" d="M15.4977 16.502H14.5002V17.4995H15.4977V16.502Z" fill="#000001"/>
<path id="Vector_20" d="M15.4977 12.4988H14.5002V14.5003H15.4977V12.4988Z" fill="#000001"/>
<path id="Vector_21" d="M15.4977 6.50073H14.5002V7.49823H15.4977V6.50073Z" fill="#000001"/>
<path id="Vector_22" d="M14.5004 14.5002H13.4963V16.5018H14.5004V14.5002Z" fill="#000001"/>
<path id="Vector_23" d="M13.4963 16.502H12.4988V19.501H13.4963V18.5035H14.5003V17.4995H13.4963V16.502Z" fill="#000001"/>
<path id="Vector_24" d="M13.4963 1.5H12.4988V2.4975H13.4963V1.5Z" fill="#000001"/>
<path id="Vector_25" d="M12.4986 19.501H10.4971V20.4985H12.4986V19.501Z" fill="#000001"/>
<path id="Vector_26" d="M10.4972 16.502H9.49967V17.4995H8.49561V18.5035H9.49967V19.501H10.4972V16.502Z" fill="#000001"/>
<path id="Vector_27" d="M9.49967 14.5002H8.49561V16.5018H9.49967V14.5002Z" fill="#000001"/>
<path id="Vector_28" d="M8.49555 16.502H7.49805V17.4995H8.49555V16.502Z" fill="#000001"/>
<path id="Vector_29" d="M8.49555 12.4988H7.49805V14.5003H8.49555V12.4988Z" fill="#000001"/>
<path id="Vector_30" d="M8.49555 6.50073H7.49805V7.49823H8.49555V6.50073Z" fill="#000001"/>
<path id="Vector_31" d="M8.49555 2.49756H7.49805V3.50162H8.49555V2.49756Z" fill="#000001"/>
<path id="Vector_32" d="M7.49823 19.501H6.50073V20.4985H7.49823V19.501Z" fill="#000001"/>
<path id="Vector_33" d="M7.49823 15.4978H6.50073V16.5019H7.49823V15.4978Z" fill="#000001"/>
<path id="Vector_34" d="M7.49823 11.5012H6.50073V12.4987H7.49823V11.5012Z" fill="#000001"/>
<path id="Vector_35" d="M7.49823 7.49805H6.50073V8.50211H7.49823V7.49805Z" fill="#000001"/>
<path id="Vector_36" d="M8.49564 5.50309V6.50059H9.49971V5.50309H13.4963V6.50059H14.5003V5.50309H17.4994V4.49902H5.49658V5.50309H8.49564Z" fill="#000001"/>
<path id="Vector_37" d="M6.50064 14.5002H5.49658V15.4977H6.50064V14.5002Z" fill="#000001"/>
<path id="Vector_38" d="M5.49652 13.5029H4.49902V14.5004H5.49652V13.5029Z" fill="#000001"/>
<path id="Vector_39" d="M5.49652 5.50317H4.49902V6.50067H5.49652V5.50317Z" fill="#000001"/>
<path id="Vector_40" d="M4.49918 17.4993H3.49512V18.5033H4.49918V17.4993Z" fill="#000001"/>
<path id="Vector_41" d="M4.49918 12.4988H3.49512V13.5028H4.49918V12.4988Z" fill="#000001"/>
<path id="Vector_42" d="M4.49918 6.50073H3.49512V7.49823H4.49918V6.50073Z" fill="#000001"/>
<path id="Vector_43" d="M3.49506 21.5024H2.49756V22.4999H3.49506V21.5024Z" fill="#000001"/>
<path id="Vector_44" d="M3.49506 18.5034H2.49756V19.5009H3.49506V18.5034Z" fill="#000001"/>
<path id="Vector_45" d="M3.49506 16.502H2.49756V17.4995H3.49506V16.502Z" fill="#000001"/>
<path id="Vector_46" d="M3.49506 11.5012H2.49756V12.4987H3.49506V11.5012Z" fill="#000001"/>
<path id="Vector_47" d="M2.4975 10.4972H5.49656V11.5013H6.50062V10.4972H16.4953V11.5013H17.4994V10.4972H20.4984V11.5013H21.4959V8.5022H20.4984V9.4997H17.4994V8.5022H16.4953V9.4997H6.50062V8.5022H5.49656V9.4997H2.4975V8.5022H1.5V11.5013H2.4975V10.4972Z" fill="#000001"/>
<path id="Vector_48" d="M3.49506 7.49805H2.49756V8.50211H3.49506V7.49805Z" fill="#000001"/>
<path id="Vector_49" d="M2.4975 4.49906H3.495V3.50156H4.49906V2.4975H3.495V1.5H2.4975V2.4975H1.5V3.50156H2.4975V4.49906Z" fill="#000001"/>
<path id="Vector_50" d="M2.4975 17.4993H1.5V18.5033H2.4975V17.4993Z" fill="#000001"/>
</g>
</g>
</svg>
