<svg width="24" height="24" viewBox="0 0 24 24" fill="none" xmlns="http://www.w3.org/2000/svg">
<g id="money-payments-accounting-bill-money-1">
<g id="Group">
<path id="Vector" d="M22.4999 4.50244H21.4958V15.5012H22.4999V4.50244Z" fill="#000001"/>
<path id="Vector_2" d="M22.5 19.4976H1.5V20.5016H22.5V19.4976Z" fill="#000001"/>
<path id="Vector_3" d="M22.5 17.5027H1.5V18.5002H22.5V17.5027Z" fill="#000001"/>
<path id="Vector_4" d="M21.496 15.5012H2.49756V16.4987H21.496V15.5012Z" fill="#000001"/>
<path id="Vector_5" d="M20.4985 13.4995H19.501V14.497H20.4985V13.4995Z" fill="#000001"/>
<path id="Vector_6" d="M20.4985 5.49976H19.501V6.49726H20.4985V5.49976Z" fill="#000001"/>
<path id="Vector_7" d="M18.4968 8.49896H19.5009V11.498H18.4968V12.5021H20.4984V7.50146H18.4968V8.49896Z" fill="#000001"/>
<path id="Vector_8" d="M17.4993 13.4995H14.5002V14.497H18.4968V12.502H17.4993V13.4995Z" fill="#000001"/>
<path id="Vector_9" d="M18.4968 9.49634H17.4993V10.5004H18.4968V9.49634Z" fill="#000001"/>
<path id="Vector_10" d="M14.5002 5.49976V6.49726H17.4993V7.50132H18.4968V5.49976H14.5002Z" fill="#000001"/>
<path id="Vector_11" d="M17.4994 10.5005H16.4954V11.498H17.4994V10.5005Z" fill="#000001"/>
<path id="Vector_12" d="M17.4994 8.49902H16.4954V9.49652H17.4994V8.49902Z" fill="#000001"/>
<path id="Vector_13" d="M16.4953 9.49634H15.4978V10.5004H16.4953V9.49634Z" fill="#000001"/>
<path id="Vector_14" d="M14.5004 10.5005H13.4963V12.5021H14.5004V10.5005Z" fill="#000001"/>
<path id="Vector_15" d="M14.5004 7.50146H13.4963V8.49896H14.5004V7.50146Z" fill="#000001"/>
<path id="Vector_16" d="M12.4986 10.5004H13.4961V9.49632H12.4986V7.50132H13.4961V6.49726H12.4986V5.49976H11.5011V6.49726H10.4971V7.50132H11.5011V9.49632H10.4971V10.5004H11.5011V12.5019H10.4971V13.4994H11.5011V14.4969H12.4986V13.4994H13.4961V12.5019H12.4986V10.5004Z" fill="#000001"/>
<path id="Vector_17" d="M10.4973 11.498H9.49976V12.5021H10.4973V11.498Z" fill="#000001"/>
<path id="Vector_18" d="M10.4973 7.50146H9.49976V9.49646H10.4973V7.50146Z" fill="#000001"/>
<path id="Vector_19" d="M6.50064 13.4995V12.502H5.49658V14.497H9.49971V13.4995H6.50064Z" fill="#000001"/>
<path id="Vector_20" d="M8.49555 9.49634H7.49805V10.5004H8.49555V9.49634Z" fill="#000001"/>
<path id="Vector_21" d="M7.49823 10.5005H6.50073V11.498H7.49823V10.5005Z" fill="#000001"/>
<path id="Vector_22" d="M7.49823 8.49902H6.50073V9.49652H7.49823V8.49902Z" fill="#000001"/>
<path id="Vector_23" d="M6.50064 9.49634H5.49658V10.5004H6.50064V9.49634Z" fill="#000001"/>
<path id="Vector_24" d="M6.50064 6.49726H9.49971V5.49976H5.49658V7.50132H6.50064V6.49726Z" fill="#000001"/>
<path id="Vector_25" d="M4.49918 11.498V8.49896H5.49668V7.50146H3.49512V12.5021H5.49668V11.498H4.49918Z" fill="#000001"/>
<path id="Vector_26" d="M4.49918 13.4995H3.49512V14.497H4.49918V13.4995Z" fill="#000001"/>
<path id="Vector_27" d="M4.49918 5.49976H3.49512V6.49726H4.49918V5.49976Z" fill="#000001"/>
<path id="Vector_28" d="M21.496 3.49829H2.49756V4.50235H21.496V3.49829Z" fill="#000001"/>
<path id="Vector_29" d="M2.4975 4.50244H1.5V15.5012H2.4975V4.50244Z" fill="#000001"/>
</g>
</g>
</svg>
