<svg width="24" height="24" viewBox="0 0 24 24" fill="none" xmlns="http://www.w3.org/2000/svg">
<g id="money-payments-accounting-calculator">
<g id="Group">
<path id="Vector" d="M19.4975 3.50146H18.5V20.4983H19.4975V3.50146Z" fill="#000001"/>
<path id="Vector_2" d="M18.4999 20.4985H17.5024V21.5026H18.4999V20.4985Z" fill="#000001"/>
<path id="Vector_3" d="M18.4999 2.49756H17.5024V3.50162H18.4999V2.49756Z" fill="#000001"/>
<path id="Vector_4" d="M17.5024 17.4993H10.5002V20.4983H17.5024V17.4993Z" fill="#000001"/>
<path id="Vector_5" d="M17.5026 21.5024H6.49731V22.4999H17.5026V21.5024Z" fill="#000001"/>
<path id="Vector_6" d="M17.5025 13.5029H14.5034V16.502H17.5025V13.5029ZM16.4984 15.4979H15.5009V14.5004H16.4984V15.4979Z" fill="#000001"/>
<path id="Vector_7" d="M17.5025 9.49976H14.5034V12.4988H17.5025V9.49976ZM16.4984 11.5013H15.5009V10.4973H16.4984V11.5013Z" fill="#000001"/>
<path id="Vector_8" d="M6.49731 3.50146V8.50209H17.5026V3.50146H6.49731ZM16.4986 7.49803H7.50138V4.49896H16.4986V7.49803Z" fill="#000001"/>
<path id="Vector_9" d="M15.5009 5.50317H14.5034V6.50067H15.5009V5.50317Z" fill="#000001"/>
<path id="Vector_10" d="M13.4995 5.50317H12.502V6.50067H13.4995V5.50317Z" fill="#000001"/>
<path id="Vector_11" d="M13.4993 13.5029H10.5002V16.502H13.4993V13.5029ZM12.5018 15.4979H11.4977V14.5004H12.5018V15.4979Z" fill="#000001"/>
<path id="Vector_12" d="M13.4993 9.49976H10.5002V12.4988H13.4993V9.49976ZM12.5018 11.5013H11.4977V10.4973H12.5018V11.5013Z" fill="#000001"/>
<path id="Vector_13" d="M9.50622 20.4983V17.4993H6.49731V20.4983H9.50622ZM7.50466 18.5033H8.50216V19.5008H7.50138L7.50466 18.5033Z" fill="#000001"/>
<path id="Vector_14" d="M9.50622 13.5029H6.49731V16.502H9.50622V13.5029ZM8.50216 15.4979H7.50138V14.5004H8.49888L8.50216 15.4979Z" fill="#000001"/>
<path id="Vector_15" d="M9.50622 9.49976H6.49731V12.4988H9.50622V9.49976ZM8.50216 11.5013H7.50138V10.4973H8.49888L8.50216 11.5013Z" fill="#000001"/>
<path id="Vector_16" d="M17.5026 1.5H6.49731V2.4975H17.5026V1.5Z" fill="#000001"/>
<path id="Vector_17" d="M6.49726 20.4985H5.49976V21.5026H6.49726V20.4985Z" fill="#000001"/>
<path id="Vector_18" d="M6.49726 2.49756H5.49976V3.50162H6.49726V2.49756Z" fill="#000001"/>
<path id="Vector_19" d="M5.4997 3.50146H4.5022V20.4983H5.4997V3.50146Z" fill="#000001"/>
</g>
</g>
</svg>
