<svg width="24" height="24" viewBox="0 0 24 24" fill="none" xmlns="http://www.w3.org/2000/svg">
<g id="money-payments-saving-treasure">
<g id="Group">
<path id="Vector" d="M21.4959 8.00352H20.4984V6.99945H19.5009V6.00195H14.5003V6.99945H13.4963V8.00352H12.4988V12.0001H3.495V11.0026H2.4975V12.0001H1.5V19.9998H2.4975V14.9991H6.50062V21.0038H3.495V22.0013H20.4984V21.0038H17.4994V14.9991H21.4959V19.9998H22.5V12.0001H21.4959V8.00352ZM14.5003 9.00102H15.4978V8.00352H16.4953V6.99945H17.4994V8.00352H18.4969V9.00102H15.4978V9.99852H18.4969V11.0026H19.5009V12.0001H18.4969V11.0026H15.4978V9.99852H14.5003V9.00102ZM2.4975 14.0016V13.0041H9.49969V14.0016H2.4975ZM16.4953 21.0038H7.49813V14.9991H9.49969V16.0032H10.4972V13.0041H11.5012V14.9991H12.4988V13.0041H13.4963V16.0032H14.5003V14.9991H16.4953V21.0038ZM21.4959 14.0016H14.5003V13.0041H21.4959V14.0016Z" fill="#000001"/>
<path id="Vector_2" d="M21.496 19.9998H20.4985V21.0038H21.496V19.9998Z" fill="#000001"/>
<path id="Vector_3" d="M21.496 3.00293H20.4985V4.00043H21.496V3.00293Z" fill="#000001"/>
<path id="Vector_4" d="M20.4985 4.00024H19.501V5.00431H20.4985V4.00024Z" fill="#000001"/>
<path id="Vector_5" d="M17.4994 1.99878H16.4954V5.0044H17.4994V1.99878Z" fill="#000001"/>
<path id="Vector_6" d="M14.5004 4.00024H13.4963V5.00431H14.5004V4.00024Z" fill="#000001"/>
<path id="Vector_7" d="M13.4963 3.00293H12.4988V4.00043H13.4963V3.00293Z" fill="#000001"/>
<path id="Vector_8" d="M13.4961 16.0032H10.4971V17.0007H13.4961V16.0032Z" fill="#000001"/>
<path id="Vector_9" d="M11.5011 9.99854H10.4971V11.0026H11.5011V9.99854Z" fill="#000001"/>
<path id="Vector_10" d="M3.49506 9.99847H4.49912V11.0025H9.49975V9.99847H10.4972V9.00097H11.5013V6.9994H13.4963V6.0019H11.5013V4.00034H10.4972V3.00284H9.49975V1.99878H4.49912V3.00284H3.49506V4.00034H2.49756V9.00097H3.49506V9.99847ZM4.49912 5.0044H5.49662V4.00034H6.50068V3.00284H7.49818V4.00034H8.49568V5.0044H5.49662V6.0019H8.49568V6.9994H9.49975V8.00347H8.49568V9.00097H7.49818V9.99847H6.50068V9.00097H5.49662V8.00347H8.49568V6.9994H5.49662V6.0019H4.49912V5.0044Z" fill="#000001"/>
<path id="Vector_11" d="M3.49506 19.9998H2.49756V21.0038H3.49506V19.9998Z" fill="#000001"/>
<path id="Vector_12" d="M2.4975 9.00098H1.5V11.0025H2.4975V9.00098Z" fill="#000001"/>
</g>
</g>
</svg>
