<svg width="24" height="24" viewBox="0 0 24 24" fill="none" xmlns="http://www.w3.org/2000/svg">
<g id="money-payments-credit-card-visa">
<g id="Group">
<path id="Vector" d="M21.4961 17.0005H20.4986V17.998H3.49512V19.0021H4.49918V19.9996H21.4961V19.0021H22.5001V6.99927H21.4961V17.0005Z" fill="#000001"/>
<path id="Vector_2" d="M20.4985 4.9978H19.501V16.0031H20.4985V4.9978Z" fill="#000001"/>
<path id="Vector_3" d="M17.4994 8.00342H15.4978V9.00092H17.4994V8.00342Z" fill="#000001"/>
<path id="Vector_4" d="M17.4993 9.99848H15.4977V9.00098H14.5002V12.9975H15.4977V11.0025H17.4993V12.9975H18.4968V9.00098H17.4993V9.99848Z" fill="#000001"/>
<path id="Vector_5" d="M13.4963 11.0024H12.4988V11.9999H13.4963V11.0024Z" fill="#000001"/>
<path id="Vector_6" d="M12.4986 9.99829H10.4971V11.0024H12.4986V9.99829Z" fill="#000001"/>
<path id="Vector_7" d="M13.4961 8.00342H10.4971V9.00092H13.4961V8.00342Z" fill="#000001"/>
<path id="Vector_8" d="M12.4988 12H9.49976V12.9975H12.4988V12Z" fill="#000001"/>
<path id="Vector_9" d="M10.4973 9.00098H9.49976V9.99848H10.4973V9.00098Z" fill="#000001"/>
<path id="Vector_10" d="M8.49555 8.00342H7.49805V12.9975H8.49555V8.00342Z" fill="#000001"/>
<path id="Vector_11" d="M6.50064 8.00342H5.49658V12H6.50064V8.00342Z" fill="#000001"/>
<path id="Vector_12" d="M5.49652 12H4.49902V12.9975H5.49652V12Z" fill="#000001"/>
<path id="Vector_13" d="M4.49918 8.00342H3.49512V12H4.49918V8.00342Z" fill="#000001"/>
<path id="Vector_14" d="M19.501 4.00024H2.49756V4.99774H19.501V4.00024Z" fill="#000001"/>
<path id="Vector_15" d="M19.501 16.0032H2.49756V17.0007H19.501V16.0032Z" fill="#000001"/>
<path id="Vector_16" d="M2.4975 4.9978H1.5V16.0031H2.4975V4.9978Z" fill="#000001"/>
</g>
</g>
</svg>
