<svg width="24" height="24" viewBox="0 0 24 24" fill="none" xmlns="http://www.w3.org/2000/svg">
<g id="money-payments-smartphone-pay-dollar">
<g id="Group">
<path id="Vector" d="M20.5016 9.49976H19.4976V14.5004H20.5016V9.49976Z" fill="#000001"/>
<path id="Vector_2" d="M19.4977 14.5002H18.5002V15.4977H19.4977V14.5002Z" fill="#000001"/>
<path id="Vector_3" d="M19.4977 8.49561H18.5002V9.49967H19.4977V8.49561Z" fill="#000001"/>
<path id="Vector_4" d="M18.5002 15.4978H17.4961V16.5019H18.5002V15.4978Z" fill="#000001"/>
<path id="Vector_5" d="M18.5002 7.49805H17.4961V8.49555H18.5002V7.49805Z" fill="#000001"/>
<path id="Vector_6" d="M16.4986 20.4984H4.50235V3.50156H7.50142V4.49906H13.4995V3.50156H16.4986V5.49656H17.4961V2.4975H16.4986V1.5H4.50235V2.4975H3.49829V21.4959H4.50235V22.5H16.4986V21.4959H17.4961V18.4969H16.4986V20.4984ZM10.5005 2.4975H12.502V3.50156H10.5005V2.4975ZM8.49892 2.4975H9.49642V3.50156H8.49892V2.4975Z" fill="#000001"/>
<path id="Vector_7" d="M17.496 12.4988H16.4985V13.4963H17.496V12.4988Z" fill="#000001"/>
<path id="Vector_8" d="M17.496 16.502H12.502V17.4995H17.496V16.502Z" fill="#000001"/>
<path id="Vector_9" d="M16.4986 11.5012H13.4995V12.4987H16.4986V11.5012Z" fill="#000001"/>
<path id="Vector_10" d="M13.4995 13.4963V14.5004H14.497V15.4979H15.5011V14.5004H16.4986V13.4963H13.4995Z" fill="#000001"/>
<path id="Vector_11" d="M16.4986 10.4972V9.49967H15.5011V8.49561H14.497V9.49967H13.4995V10.4972H16.4986Z" fill="#000001"/>
<path id="Vector_12" d="M17.496 6.50073H12.502V7.49823H17.496V6.50073Z" fill="#000001"/>
<path id="Vector_13" d="M13.4995 10.4971H12.502V11.5011H13.4995V10.4971Z" fill="#000001"/>
<path id="Vector_14" d="M12.5021 15.4978H11.498V16.5019H12.5021V15.4978Z" fill="#000001"/>
<path id="Vector_15" d="M12.5021 7.49805H11.498V8.49555H12.5021V7.49805Z" fill="#000001"/>
<path id="Vector_16" d="M11.498 14.5002H10.5005V15.4977H11.498V14.5002Z" fill="#000001"/>
<path id="Vector_17" d="M11.498 8.49561H10.5005V9.49967H11.498V8.49561Z" fill="#000001"/>
<path id="Vector_18" d="M10.5004 9.49976H9.49634V14.5004H10.5004V9.49976Z" fill="#000001"/>
</g>
</g>
</svg>
