<svg width="24" height="24" viewBox="0 0 24 24" fill="none" xmlns="http://www.w3.org/2000/svg">
<g id="money-payments-currency-euro-dollar-exchange">
<g id="Group">
<path id="Vector" d="M22.4999 4.49902H21.4958V9.49965H22.4999V4.49902Z" fill="#000001"/>
<path id="Vector_2" d="M21.496 9.49976H20.4985V10.4973H21.496V9.49976Z" fill="#000001"/>
<path id="Vector_3" d="M21.496 3.50146H20.4985V4.49896H21.496V3.50146Z" fill="#000001"/>
<path id="Vector_4" d="M19.501 19.5011V16.502H21.496V15.4979H20.4985V14.5004H19.501V13.5029H18.4969V14.5004H17.4994V15.4979H16.4954V16.502H18.4969V19.5011H19.501Z" fill="#000001"/>
<path id="Vector_5" d="M20.4985 10.4971H19.501V11.5011H20.4985V10.4971Z" fill="#000001"/>
<path id="Vector_6" d="M20.4985 2.49756H19.501V3.50162H20.4985V2.49756Z" fill="#000001"/>
<path id="Vector_7" d="M19.5009 7.49805H18.4968V8.50211H19.5009V7.49805Z" fill="#000001"/>
<path id="Vector_8" d="M18.4968 19.501H17.4993V20.4985H18.4968V19.501Z" fill="#000001"/>
<path id="Vector_9" d="M19.5009 11.5012H14.5002V12.4987H19.5009V11.5012Z" fill="#000001"/>
<path id="Vector_10" d="M18.4969 6.50073H15.4978V7.49823H18.4969V6.50073Z" fill="#000001"/>
<path id="Vector_11" d="M15.4978 8.5022V9.4997H16.4953V10.4972H17.4994V9.4997H18.4969V8.5022H15.4978Z" fill="#000001"/>
<path id="Vector_12" d="M18.4969 5.50303V4.49896H17.4994V3.50146H16.4953V4.49896H15.4978V5.50303H18.4969Z" fill="#000001"/>
<path id="Vector_13" d="M17.4995 20.4985H13.4963V21.5026H17.4995V20.4985Z" fill="#000001"/>
<path id="Vector_14" d="M19.5009 1.5H14.5002V2.4975H19.5009V1.5Z" fill="#000001"/>
<path id="Vector_15" d="M15.4977 5.50317H14.5002V6.50067H15.4977V5.50317Z" fill="#000001"/>
<path id="Vector_16" d="M14.5004 10.4971H13.4963V11.5011H14.5004V10.4971Z" fill="#000001"/>
<path id="Vector_17" d="M14.5004 2.49756H13.4963V3.50162H14.5004V2.49756Z" fill="#000001"/>
<path id="Vector_18" d="M13.4963 9.49976H12.4988V10.4973H13.4963V9.49976Z" fill="#000001"/>
<path id="Vector_19" d="M13.4963 3.50146H12.4988V4.49896H13.4963V3.50146Z" fill="#000001"/>
<path id="Vector_20" d="M12.4987 14.5002H11.5012V19.5009H12.4987V14.5002Z" fill="#000001"/>
<path id="Vector_21" d="M12.4987 4.49902H11.5012V9.49965H12.4987V4.49902Z" fill="#000001"/>
<path id="Vector_22" d="M11.5011 19.501H10.4971V20.4985H11.5011V19.501Z" fill="#000001"/>
<path id="Vector_23" d="M11.5011 13.5029H10.4971V14.5004H11.5011V13.5029Z" fill="#000001"/>
<path id="Vector_24" d="M10.4973 20.4985H9.49976V21.5026H10.4973V20.4985Z" fill="#000001"/>
<path id="Vector_25" d="M10.4973 12.4988H9.49976V13.5028H10.4973V12.4988Z" fill="#000001"/>
<path id="Vector_26" d="M9.49965 21.5024H4.49902V22.4999H9.49965V21.5024Z" fill="#000001"/>
<path id="Vector_27" d="M10.4973 2.49756H6.50073V3.50162H10.4973V2.49756Z" fill="#000001"/>
<path id="Vector_28" d="M8.49573 19.501H6.50073V20.4985H8.49573V19.501Z" fill="#000001"/>
<path id="Vector_29" d="M8.49573 13.5029H6.50073V14.5004H8.49573V13.5029Z" fill="#000001"/>
<path id="Vector_30" d="M5.49668 19.5009H6.50074V18.5034H7.49824V17.4993H5.49668V16.5018H8.49574V15.4977H6.50074V14.5002H5.49668V15.4977H3.49512V16.5018H4.49918V17.4993H3.49512V18.5034H5.49668V19.5009Z" fill="#000001"/>
<path id="Vector_31" d="M9.49965 11.5012H4.49902V12.4987H9.49965V11.5012Z" fill="#000001"/>
<path id="Vector_32" d="M6.50064 3.50146H5.49658V4.49896H6.50064V3.50146Z" fill="#000001"/>
<path id="Vector_33" d="M4.49918 20.4985H3.49512V21.5026H4.49918V20.4985Z" fill="#000001"/>
<path id="Vector_34" d="M4.49918 12.4988H3.49512V13.5028H4.49918V12.4988Z" fill="#000001"/>
<path id="Vector_35" d="M3.49506 9.49965H4.49912V10.4971H5.49662V9.49965H6.50068V8.50215H7.49818V7.49809H5.49662V4.49902H4.49912V7.49809H2.49756V8.50215H3.49506V9.49965Z" fill="#000001"/>
<path id="Vector_36" d="M3.49506 19.501H2.49756V20.4985H3.49506V19.501Z" fill="#000001"/>
<path id="Vector_37" d="M3.49506 13.5029H2.49756V14.5004H3.49506V13.5029Z" fill="#000001"/>
<path id="Vector_38" d="M2.4975 14.5002H1.5V19.5009H2.4975V14.5002Z" fill="#000001"/>
</g>
</g>
</svg>
