<svg width="24" height="24" viewBox="0 0 24 24" fill="none" xmlns="http://www.w3.org/2000/svg">
<g id="money-payments-bank">
<g id="Group">
<path id="Vector" d="M21.4959 8.5023H20.4984V7.49823H19.5009V8.5023H17.4994V9.49979H18.4969V17.4995H16.4953V14.5004H15.4978V17.4995H14.5003V15.4979H13.4963V17.4995H10.4972V15.4979H9.49969V17.4995H8.49562V14.5004H7.49813V17.4995H5.49656V9.49979H6.50062V8.5023H4.49906V7.49823H3.495V8.5023H2.4975V6.50073H1.5V9.49979H2.4975V19.501H1.5V22.5001H22.5V19.501H21.4959V9.49979H22.5V6.50073H21.4959V8.5023ZM19.5009 9.49979H20.4984V17.4995H19.5009V9.49979ZM3.495 9.49979H4.49906V17.4995H3.495V9.49979ZM3.495 18.5035H20.4984V19.501H3.495V18.5035ZM21.4959 21.5026H2.4975V20.4985H21.4959V21.5026Z" fill="#000001"/>
<path id="Vector_2" d="M21.496 5.50317H19.501V6.50067H21.496V5.50317Z" fill="#000001"/>
<path id="Vector_3" d="M19.5008 6.50073H17.4993V7.49823H19.5008V6.50073Z" fill="#000001"/>
<path id="Vector_4" d="M19.5008 4.49902H17.4993V5.50309H19.5008V4.49902Z" fill="#000001"/>
<path id="Vector_5" d="M17.4994 5.50317H15.4978V6.50067H17.4994V5.50317Z" fill="#000001"/>
<path id="Vector_6" d="M17.4994 3.50146H15.4978V4.49896H17.4994V3.50146Z" fill="#000001"/>
<path id="Vector_7" d="M15.4979 4.49902H13.4963V5.50309H15.4979V4.49902Z" fill="#000001"/>
<path id="Vector_8" d="M15.4979 2.49756H13.4963V3.50162H15.4979V2.49756Z" fill="#000001"/>
<path id="Vector_9" d="M10.4971 5.50317V6.50067H9.49961V7.49817H8.49555V8.50224H7.49805V11.5013H8.49555V12.4988H9.49961V13.5029H10.4971V14.5004H13.4962V13.5029H14.5002V12.4988H15.4977V11.5013H16.4952V8.50224H15.4977V7.49817H14.5002V6.50067H13.4962V5.50317H10.4971ZM13.4962 7.49817V8.50224H10.4971V9.49974H13.4962V10.4972H14.5002V11.5013H13.4962V12.4988H12.4987V13.5029H11.5012V12.4988H10.4971V11.5013H13.4962V10.4972H10.4971V9.49974H9.49961V8.50224H10.4971V7.49817H11.5012V6.50067H12.4987V7.49817H13.4962Z" fill="#000001"/>
<path id="Vector_10" d="M13.4961 3.50146H10.4971V4.49896H13.4961V3.50146Z" fill="#000001"/>
<path id="Vector_11" d="M13.4961 1.5H10.4971V2.4975H13.4961V1.5Z" fill="#000001"/>
<path id="Vector_12" d="M10.4972 4.49902H8.49561V5.50309H10.4972V4.49902Z" fill="#000001"/>
<path id="Vector_13" d="M10.4972 2.49756H8.49561V3.50162H10.4972V2.49756Z" fill="#000001"/>
<path id="Vector_14" d="M8.49573 5.50317H6.50073V6.50067H8.49573V5.50317Z" fill="#000001"/>
<path id="Vector_15" d="M8.49573 3.50146H6.50073V4.49896H8.49573V3.50146Z" fill="#000001"/>
<path id="Vector_16" d="M6.50059 6.50073H4.49902V7.49823H6.50059V6.50073Z" fill="#000001"/>
<path id="Vector_17" d="M6.50059 4.49902H4.49902V5.50309H6.50059V4.49902Z" fill="#000001"/>
<path id="Vector_18" d="M4.49912 5.50317H2.49756V6.50067H4.49912V5.50317Z" fill="#000001"/>
</g>
</g>
</svg>
