<svg width="24" height="24" viewBox="0 0 24 24" fill="none" xmlns="http://www.w3.org/2000/svg">
<g id="money-payments-self-payment">
<g id="Group">
<path id="Vector" d="M12.502 16.4952V15.4977H19.5042V14.5002H4.50229V15.4977H11.5045V16.4952H2.50073V22.4999H21.4992V16.4952H12.502ZM20.5017 21.4959H3.50479V17.4993H20.5017V21.4959Z" fill="#000001"/>
<path id="Vector_2" d="M20.5017 2.49756H19.5042V14.5004H20.5017V2.49756Z" fill="#000001"/>
<path id="Vector_3" d="M18.5002 8.49561H17.5027V10.4972H18.5002V8.49561Z" fill="#000001"/>
<path id="Vector_4" d="M18.5002 5.49658H17.5027V6.50064H18.5002V5.49658Z" fill="#000001"/>
<path id="Vector_5" d="M18.5001 19.4944H5.49976V20.4984H18.5001V19.4944Z" fill="#000001"/>
<path id="Vector_6" d="M16.5052 4.49918V3.49512H15.5012V4.49918H14.5037V5.49668H15.5012V7.49824H14.5037V8.49574H15.5012V10.4973H14.5037V11.4948H15.5012V12.4989H16.5052V11.4948H17.5027V10.4973H16.5052V8.49574H17.5027V7.49824H16.5052V5.49668H17.5027V4.49918H16.5052Z" fill="#000001"/>
<path id="Vector_7" d="M14.5036 9.49976H13.4995V10.4973H14.5036V9.49976Z" fill="#000001"/>
<path id="Vector_8" d="M14.5036 5.49658H13.4995V7.49814H14.5036V5.49658Z" fill="#000001"/>
<path id="Vector_9" d="M12.5019 11.4946H11.5044V12.4987H12.5019V11.4946Z" fill="#000001"/>
<path id="Vector_10" d="M12.5019 9.49976H11.5044V10.4973H12.5019V9.49976Z" fill="#000001"/>
<path id="Vector_11" d="M10.5003 11.4946H8.49878V12.4987H10.5003V11.4946Z" fill="#000001"/>
<path id="Vector_12" d="M10.5003 9.49976H8.49878V10.4973H10.5003V9.49976Z" fill="#000001"/>
<path id="Vector_13" d="M7.50132 11.4946H5.49976V12.4987H7.50132V11.4946Z" fill="#000001"/>
<path id="Vector_14" d="M7.50132 9.49976H5.49976V10.4973H7.50132V9.49976Z" fill="#000001"/>
<path id="Vector_15" d="M5.50317 8.49574H12.5054V3.49512H5.50317V8.49574ZM9.5063 4.49918H10.5038V5.49668H9.5063V4.49918ZM7.50474 4.49918H8.50224V5.49668H7.50146L7.50474 4.49918ZM7.50474 6.50074H10.5038V7.49824H7.50146L7.50474 6.50074Z" fill="#000001"/>
<path id="Vector_16" d="M19.5041 1.5H4.5022V2.4975H19.5041V1.5Z" fill="#000001"/>
<path id="Vector_17" d="M4.50238 2.49756H3.50488V14.5004H4.50238V2.49756Z" fill="#000001"/>
</g>
</g>
</svg>
