<svg width="24" height="24" viewBox="0 0 24 24" fill="none" xmlns="http://www.w3.org/2000/svg">
<g id="money-payments-accounting-bill-money-2">
<g id="Group">
<path id="Vector" d="M22.4999 5.50317H21.4958V6.50067H22.4999V5.50317Z" fill="#000001"/>
<path id="Vector_2" d="M20.4985 11.5013V12.4988H19.501V13.5029H20.4985V14.5004H19.501V15.4979H20.4985V16.5019H19.501V17.4994H21.496V9.49976H20.4985V10.4973H19.501V11.5013H20.4985Z" fill="#000001"/>
<path id="Vector_3" d="M21.4959 4.49902H18.4968V5.50309H21.4959V4.49902Z" fill="#000001"/>
<path id="Vector_4" d="M18.4968 6.50073V7.49823H19.5009V8.5023H20.4984V7.49823H21.4959V6.50073H18.4968Z" fill="#000001"/>
<path id="Vector_5" d="M21.4959 3.50156V2.4975H20.4984V1.5H19.5009V2.4975H18.4968V3.50156H21.4959Z" fill="#000001"/>
<path id="Vector_6" d="M19.5008 9.49976H17.4993V10.4973H19.5008V9.49976Z" fill="#000001"/>
<path id="Vector_7" d="M8.49564 11.5012H10.4972V12.4987H11.5013V13.5027H13.4963V14.5002H11.5013V15.4977H13.4963V16.5018H11.5013V17.4993H13.4963V18.5034H11.5013V19.5009H13.4963V20.4984H15.4978V19.5009H17.4994V18.5034H19.501V17.4993H17.4994V16.5018H19.501V15.4977H17.4994V14.5002H19.501V13.5027H17.4994V12.4987H19.501V11.5012H17.4994V10.4971H15.4978V9.49961H13.4963V8.50211H11.5013V7.49805H9.49971V8.50211H7.49814V9.49961H5.49658V10.4971H8.49564V11.5012Z" fill="#000001"/>
<path id="Vector_8" d="M18.4968 3.50146H17.4993V4.49896H18.4968V3.50146Z" fill="#000001"/>
<path id="Vector_9" d="M17.4994 6.50073H15.4978V7.49823H17.4994V6.50073Z" fill="#000001"/>
<path id="Vector_10" d="M15.4979 5.50317H13.4963V6.50067H15.4979V5.50317Z" fill="#000001"/>
<path id="Vector_11" d="M13.4962 6.50073H11.5012V7.49823H13.4962V6.50073Z" fill="#000001"/>
<path id="Vector_12" d="M13.4962 20.4985H11.5012V21.5026H13.4962V20.4985Z" fill="#000001"/>
<path id="Vector_13" d="M11.5011 4.49902H10.4971V5.50309H11.5011V4.49902Z" fill="#000001"/>
<path id="Vector_14" d="M10.4971 20.4986H11.5012V19.5011H10.4971V18.5036H11.5012V17.4995H10.4971V16.502H11.5012V15.4979H10.4971V14.5004H11.5012V13.5029H9.49961V14.5004H7.49805V15.4979H9.49961V16.502H7.49805V17.4995H9.49961V18.5036H7.49805V19.5011H9.49961V20.4986H7.49805V21.5026H9.49961V22.5001H11.5012V21.5026H10.4971V20.4986Z" fill="#000001"/>
<path id="Vector_15" d="M10.4972 1.5H8.49561V2.4975H10.4972V1.5Z" fill="#000001"/>
<path id="Vector_16" d="M10.4972 5.50317H8.49561V6.50067H10.4972V5.50317Z" fill="#000001"/>
<path id="Vector_17" d="M10.4972 3.50146H8.49561V4.49896H10.4972V3.50146Z" fill="#000001"/>
<path id="Vector_18" d="M8.49555 2.49756H7.49805V3.50162H8.49555V2.49756Z" fill="#000001"/>
<path id="Vector_19" d="M7.49814 19.501H5.49658V20.4985H7.49814V19.501Z" fill="#000001"/>
<path id="Vector_20" d="M7.49814 13.5029H5.49658V14.5004H7.49814V13.5029Z" fill="#000001"/>
<path id="Vector_21" d="M7.49814 17.4993H5.49658V18.5033H7.49814V17.4993Z" fill="#000001"/>
<path id="Vector_22" d="M7.49814 15.4978H5.49658V16.5019H7.49814V15.4978Z" fill="#000001"/>
<path id="Vector_23" d="M6.50064 5.50317H5.49658V6.50067H6.50064V5.50317Z" fill="#000001"/>
<path id="Vector_24" d="M5.49668 18.5034H3.49512V19.5009H5.49668V18.5034Z" fill="#000001"/>
<path id="Vector_25" d="M5.49668 16.502H3.49512V17.4995H5.49668V16.502Z" fill="#000001"/>
<path id="Vector_26" d="M5.49668 14.5002H3.49512V15.4977H5.49668V14.5002Z" fill="#000001"/>
<path id="Vector_27" d="M5.49668 12.4988H3.49512V13.5028H5.49668V12.4988Z" fill="#000001"/>
<path id="Vector_28" d="M5.49668 10.4971H3.49512V11.5011H5.49668V10.4971Z" fill="#000001"/>
<path id="Vector_29" d="M2.49756 6.50073V7.49823H3.49506V8.5023H4.49912V7.49823H5.49662V6.50073H2.49756Z" fill="#000001"/>
<path id="Vector_30" d="M5.49662 3.50156V2.4975H4.49912V1.5H3.49506V2.4975H2.49756V3.50156H5.49662Z" fill="#000001"/>
<path id="Vector_31" d="M3.495 17.4993H2.4975V16.5018H3.495V15.4978H2.4975V14.5003H3.495V13.5028H2.4975V12.4987H3.495V11.5012H1.5V18.5034H3.495V17.4993Z" fill="#000001"/>
<path id="Vector_32" d="M5.49662 4.49902H2.49756V5.50309H5.49662V4.49902Z" fill="#000001"/>
<path id="Vector_33" d="M2.4975 3.50146H1.5V4.49896H2.4975V3.50146Z" fill="#000001"/>
</g>
</g>
</svg>
