<svg width="24" height="24" viewBox="0 0 24 24" fill="none" xmlns="http://www.w3.org/2000/svg">
<g id="money-payments-calculator-app">
<g id="Group">
<path id="Vector" d="M3.49823 11.9983H10.5004V19.0005H4.49573V18.003H3.49823V20.0045H4.49573V21.002H19.4976V20.0045H20.5017V19.0005H21.4992V4.99937H20.5017V3.9953H19.4976V2.9978H4.49573V3.9953H10.5004V10.9975H3.49823V4.99937H2.50073V17.9997H3.49823V11.9983ZM11.4979 3.99858H17.496V5.00265H18.5001V11.0008H11.4979V3.99858ZM11.4979 11.9983H18.5001V18.003H17.496V19.0005H11.4979V11.9983Z" fill="#000001"/>
<path id="Vector_2" d="M16.4986 15.998H13.4995V16.9955H16.4986V15.998Z" fill="#000001"/>
<path id="Vector_3" d="M16.4986 13.9966H13.4995V15.0006H16.4986V13.9966Z" fill="#000001"/>
<path id="Vector_4" d="M16.4986 7.00098H13.4995V7.99848H16.4986V7.00098Z" fill="#000001"/>
<path id="Vector_5" d="M8.49896 15.998H7.50146V16.9955H8.49896V15.998Z" fill="#000001"/>
<path id="Vector_6" d="M8.49896 13.9966H7.50146V15.0006H8.49896V13.9966Z" fill="#000001"/>
<path id="Vector_7" d="M7.50138 15.0007H6.49731V15.9982H7.50138V15.0007Z" fill="#000001"/>
<path id="Vector_8" d="M6.49726 8.99589H7.50132V7.99839H8.49882V7.00089H7.50132V5.99683H6.49726V7.00089H5.49976V7.99839H6.49726V8.99589Z" fill="#000001"/>
<path id="Vector_9" d="M6.49726 15.998H5.49976V16.9955H6.49726V15.998Z" fill="#000001"/>
<path id="Vector_10" d="M6.49726 13.9966H5.49976V15.0006H6.49726V13.9966Z" fill="#000001"/>
<path id="Vector_11" d="M4.49579 3.99536H3.49829V4.99942H4.49579V3.99536Z" fill="#000001"/>
</g>
</g>
</svg>
