<svg width="24" height="24" viewBox="0 0 24 24" fill="none" xmlns="http://www.w3.org/2000/svg">
<g id="money-payments-credit-card-mastercard">
<g id="Group">
<path id="Vector" d="M21.4961 17.0005H20.4986V17.998H3.49512V19.0021H4.49918V19.9996H21.4961V19.0021H22.5001V6.99927H21.4961V17.0005Z" fill="#000001"/>
<path id="Vector_2" d="M20.4985 4.9978H19.501V16.0031H20.4985V4.9978Z" fill="#000001"/>
<path id="Vector_3" d="M16.4952 8.00327H15.4977V6.99921H14.5002V6.00171H11.5011V6.99921H10.4971V8.00327H11.5011V9.00077H12.4986V11.9998H11.5011V12.9973H10.4971V14.0014H11.5011V14.9989H14.5002V14.0014H15.4977V12.9973H16.4952V11.9998H17.4993V9.00077H16.4952V8.00327Z" fill="#000001"/>
<path id="Vector_4" d="M10.4973 12H9.49976V12.9975H10.4973V12Z" fill="#000001"/>
<path id="Vector_5" d="M10.4973 8.00342H9.49976V9.00092H10.4973V8.00342Z" fill="#000001"/>
<path id="Vector_6" d="M9.49961 12.9973H8.49555V14.0014H7.49805V14.9989H10.4971V14.0014H9.49961V12.9973Z" fill="#000001"/>
<path id="Vector_7" d="M8.49555 9.99848H7.49805V11.0025H8.49555V12H9.49961V9.00098H8.49555V9.99848Z" fill="#000001"/>
<path id="Vector_8" d="M8.49555 8.00327H9.49961V6.99921H10.4971V6.00171H7.49805V6.99921H8.49555V8.00327Z" fill="#000001"/>
<path id="Vector_9" d="M8.49555 12H7.49805V12.9975H8.49555V12Z" fill="#000001"/>
<path id="Vector_10" d="M8.49555 8.00342H7.49805V9.00092H8.49555V8.00342Z" fill="#000001"/>
<path id="Vector_11" d="M7.49823 12.9973H6.50073V14.0014H7.49823V12.9973Z" fill="#000001"/>
<path id="Vector_12" d="M7.49823 11.0024H6.50073V11.9999H7.49823V11.0024Z" fill="#000001"/>
<path id="Vector_13" d="M7.49823 9.00098H6.50073V9.99848H7.49823V9.00098Z" fill="#000001"/>
<path id="Vector_14" d="M7.49823 6.99927H6.50073V8.00333H7.49823V6.99927Z" fill="#000001"/>
<path id="Vector_15" d="M6.50064 12H5.49658V12.9975H6.50064V12Z" fill="#000001"/>
<path id="Vector_16" d="M6.50064 8.00342H5.49658V9.00092H6.50064V8.00342Z" fill="#000001"/>
<path id="Vector_17" d="M6.50059 11.0025V9.99848H5.49652V9.00098H4.49902V12H5.49652V11.0025H6.50059Z" fill="#000001"/>
<path id="Vector_18" d="M19.501 4.00024H2.49756V4.99774H19.501V4.00024Z" fill="#000001"/>
<path id="Vector_19" d="M19.501 16.0032H2.49756V17.0007H19.501V16.0032Z" fill="#000001"/>
<path id="Vector_20" d="M2.4975 4.9978H1.5V16.0031H2.4975V4.9978Z" fill="#000001"/>
</g>
</g>
</svg>
