<svg width="24" height="24" viewBox="0 0 24 24" fill="none" xmlns="http://www.w3.org/2000/svg">
<g id="money-payments-cash-payment-coin">
<g id="Group">
<path id="Vector" d="M14.5004 21.0005H6.50073V21.998H14.5004V21.0005Z" fill="#000001"/>
<path id="Vector_2" d="M17.4993 20.0029H14.5002V21.0004H17.4993V20.0029Z" fill="#000001"/>
<path id="Vector_3" d="M11.5012 18.9987V18.0012H4.49902V18.9987H5.50309V21.0003H6.50059V18.9987H11.5012Z" fill="#000001"/>
<path id="Vector_4" d="M9.49978 15.9997V15.0022H2.50415V15.9997H3.50165V18.0013H4.49915V15.9997H9.49978Z" fill="#000001"/>
<path id="Vector_5" d="M2.50406 13.0007H1.5V15.0023H2.50406V13.0007Z" fill="#000001"/>
<path id="Vector_6" d="M13.5028 12.0032H12.4988V13.0007H13.5028V12.0032Z" fill="#000001"/>
<path id="Vector_7" d="M8.50215 12.0032H4.49902V13.0007H8.50215V12.0032Z" fill="#000001"/>
<path id="Vector_8" d="M12.4987 10.0017H11.5012V12.0033H12.4987V10.0017Z" fill="#000001"/>
<path id="Vector_9" d="M9.4997 10.999H8.5022V12.0031H9.4997V10.999Z" fill="#000001"/>
<path id="Vector_10" d="M4.49896 10.999H3.50146V12.0031H4.49896V10.999Z" fill="#000001"/>
<path id="Vector_11" d="M6.50059 10.9991V10.0016H7.49809V8.99756H4.49902V10.0016H5.50309V10.9991H6.50059Z" fill="#000001"/>
<path id="Vector_12" d="M3.50165 10.0017H2.50415V10.9992H3.50165V10.0017Z" fill="#000001"/>
<path id="Vector_13" d="M11.5012 8H10.5037V10.0016H11.5012V8Z" fill="#000001"/>
<path id="Vector_14" d="M2.50406 5.00098H1.5V10.0016H2.50406V5.00098Z" fill="#000001"/>
<path id="Vector_15" d="M19.5008 7.99683V8.99433H18.5033V9.99839H19.5008V18.9956H17.4993V20.0062H19.5008V21.0037H22.4999V7.99683H19.5008ZM21.5024 18.9956H20.4983V16.994H21.5024V18.9956Z" fill="#000001"/>
<path id="Vector_16" d="M18.5033 8H17.4993V8.9975H18.5033V8Z" fill="#000001"/>
<path id="Vector_17" d="M8.50211 8H7.49805V8.9975H8.50211V8Z" fill="#000001"/>
<path id="Vector_18" d="M17.4994 7.00269H15.5044V8.00019H17.4994V7.00269Z" fill="#000001"/>
<path id="Vector_19" d="M10.5038 7.00269H9.49976V8.00019H10.5038V7.00269Z" fill="#000001"/>
<path id="Vector_20" d="M7.49809 7.00269H4.49902V8.00019H7.49809V7.00269Z" fill="#000001"/>
<path id="Vector_21" d="M15.5043 5.99854H14.5002V7.0026H15.5043V5.99854Z" fill="#000001"/>
<path id="Vector_22" d="M4.49896 5.99854H3.50146V7.0026H4.49896V5.99854Z" fill="#000001"/>
<path id="Vector_23" d="M14.5004 5.00098H13.5029V5.99848H14.5004V5.00098Z" fill="#000001"/>
<path id="Vector_24" d="M7.49809 5.99842V5.00092H6.50059V4.00342H5.50309V5.00092H4.49902V5.99842H7.49809Z" fill="#000001"/>
<path id="Vector_25" d="M13.5028 4.00342H12.4988V5.00092H13.5028V4.00342Z" fill="#000001"/>
<path id="Vector_26" d="M9.4997 4.00342H8.5022V7.00248H9.4997V4.00342Z" fill="#000001"/>
<path id="Vector_27" d="M3.50165 4.00342H2.50415V5.00092H3.50165V4.00342Z" fill="#000001"/>
<path id="Vector_28" d="M12.4988 2.99951H9.49976V4.00357H12.4988V2.99951Z" fill="#000001"/>
<path id="Vector_29" d="M4.49896 2.99951H3.50146V4.00357H4.49896V2.99951Z" fill="#000001"/>
<path id="Vector_30" d="M8.50215 2.00195H4.49902V2.99945H8.50215V2.00195Z" fill="#000001"/>
</g>
</g>
</svg>
