<svg width="24" height="24" viewBox="0 0 24 24" fill="none" xmlns="http://www.w3.org/2000/svg">
<g id="multiple-user">
<g id="Group">
<path id="Vector" d="M22.4999 13.4995H21.5024V14.5036H22.4999V13.4995Z" fill="#000001"/>
<path id="Vector_2" d="M21.5025 12.502H19.501V13.4995H21.5025V12.502Z" fill="#000001"/>
<path id="Vector_3" d="M20.4985 10.5005H19.501V11.5046H20.4985V10.5005Z" fill="#000001"/>
<path id="Vector_4" d="M16.5017 11.5045V9.50292H15.5042V8.49886H14.5002V6.50386H15.5042V5.49979H19.5008V6.50386H20.4983V10.5004H21.5023V4.50229H20.4983V3.49823H19.5008V2.50073H15.5042V3.49823H14.5002V4.50229H13.5027V7.50136H10.5036V4.50229H9.49953V3.49823H8.50203V2.50073H4.49891V3.49823H3.50141V4.50229H2.50391V10.5004H3.50141V6.50386H4.49891V5.49979H8.50203V6.50386H9.49953V8.49886H8.50203V9.50292H7.50453V11.5045H4.49891V12.502H7.50453V16.4985H8.50203V11.5045H9.49953V10.5004H14.5002V11.5045H15.5042V16.4985H16.5017V12.502H19.5008V11.5045H16.5017Z" fill="#000001"/>
<path id="Vector_5" d="M18.5036 20.5017H17.4995V21.4992H18.5036V20.5017Z" fill="#000001"/>
<path id="Vector_6" d="M17.4995 19.5042H16.502V20.5017H17.4995V19.5042Z" fill="#000001"/>
<path id="Vector_7" d="M16.5021 18.5H14.5005V19.5041H16.5021V18.5Z" fill="#000001"/>
<path id="Vector_8" d="M15.5046 16.4985H14.5005V17.5026H15.5046V16.4985Z" fill="#000001"/>
<path id="Vector_9" d="M14.5004 12.502H13.5029V14.5035H14.5004V12.502Z" fill="#000001"/>
<path id="Vector_10" d="M14.5001 17.5027H9.49951V18.5002H14.5001V17.5027Z" fill="#000001"/>
<path id="Vector_11" d="M13.503 15.501H10.5039V16.4985H13.503V15.501Z" fill="#000001"/>
<path id="Vector_12" d="M10.5036 12.502H9.49951V14.5035H10.5036V12.502Z" fill="#000001"/>
<path id="Vector_13" d="M9.49945 16.4985H8.50195V17.5026H9.49945V16.4985Z" fill="#000001"/>
<path id="Vector_14" d="M9.49988 18.5H7.50488V19.5041H9.49988V18.5Z" fill="#000001"/>
<path id="Vector_15" d="M7.50455 19.5042H6.50049V20.5017H7.50455V19.5042Z" fill="#000001"/>
<path id="Vector_16" d="M6.50043 20.5017H5.50293V21.4992H6.50043V20.5017Z" fill="#000001"/>
<path id="Vector_17" d="M4.49896 10.5005H3.50146V11.5046H4.49896V10.5005Z" fill="#000001"/>
<path id="Vector_18" d="M4.49891 12.502H2.50391V13.4995H4.49891V12.502Z" fill="#000001"/>
<path id="Vector_19" d="M2.50406 13.4995H1.5V14.5036H2.50406V13.4995Z" fill="#000001"/>
</g>
</g>
</svg>
