<svg width="24" height="24" viewBox="0 0 24 24" fill="none" xmlns="http://www.w3.org/2000/svg">
<g id="music-disk-cd-2">
<g id="Group">
<path id="Vector" d="M22.4999 9.49951H21.4958V14.5001H22.4999V9.49951Z" fill="#000001"/>
<path id="Vector_2" d="M21.496 14.5005H20.4985V16.5021H21.496V14.5005Z" fill="#000001"/>
<path id="Vector_3" d="M21.496 7.49805H20.4985V9.49961H21.496V7.49805Z" fill="#000001"/>
<path id="Vector_4" d="M20.4985 16.502H19.501V18.5035H20.4985V16.502Z" fill="#000001"/>
<path id="Vector_5" d="M20.4985 5.50293H19.501V7.49793H20.4985V5.50293Z" fill="#000001"/>
<path id="Vector_6" d="M19.5009 18.5034H18.4968V19.5009H19.5009V18.5034Z" fill="#000001"/>
<path id="Vector_7" d="M19.5009 4.49902H18.4968V5.50309H19.5009V4.49902Z" fill="#000001"/>
<path id="Vector_8" d="M18.4968 11.5015H17.4993V14.5005H18.4968V11.5015Z" fill="#000001"/>
<path id="Vector_9" d="M18.497 19.501H16.502V20.4985H18.497V19.501Z" fill="#000001"/>
<path id="Vector_10" d="M17.4995 15.498H16.502V16.5021H17.4995V15.498Z" fill="#000001"/>
<path id="Vector_11" d="M18.497 3.50146H16.502V4.49896H18.497V3.50146Z" fill="#000001"/>
<path id="Vector_12" d="M16.5019 16.502H15.4978V17.4995H16.5019V16.502Z" fill="#000001"/>
<path id="Vector_13" d="M16.5019 9.49951H15.4978V14.5001H16.5019V9.49951Z" fill="#000001"/>
<path id="Vector_14" d="M16.5018 20.4985H14.5002V21.5026H16.5018V20.4985Z" fill="#000001"/>
<path id="Vector_15" d="M15.4977 14.5005H14.5002V15.498H15.4977V14.5005Z" fill="#000001"/>
<path id="Vector_16" d="M15.4977 8.50195H14.5002V9.49945H15.4977V8.50195Z" fill="#000001"/>
<path id="Vector_17" d="M16.5018 2.50391H14.5002V3.50141H16.5018V2.50391Z" fill="#000001"/>
<path id="Vector_18" d="M15.4979 17.4995H13.4963V18.5036H15.4979V17.4995Z" fill="#000001"/>
<path id="Vector_19" d="M14.5004 15.498H9.49976V16.5021H14.5004V15.498Z" fill="#000001"/>
<path id="Vector_20" d="M14.5004 21.5024H9.49976V22.4999H14.5004V21.5024Z" fill="#000001"/>
<path id="Vector_21" d="M14.5004 10.5036H13.4963V9.49951H10.4973V10.5036H9.49976V13.5026H10.4973V14.5001H13.4963V13.5026H14.5004V10.5036ZM12.4988 12.4986H11.5013V11.5011H12.4988V12.4986Z" fill="#000001"/>
<path id="Vector_22" d="M14.5004 7.49805H9.49976V8.50211H14.5004V7.49805Z" fill="#000001"/>
<path id="Vector_23" d="M14.5004 1.5H9.49976V2.50406H14.5004V1.5Z" fill="#000001"/>
<path id="Vector_24" d="M11.5013 5.50293H8.5022V6.50043H11.5013V5.50293Z" fill="#000001"/>
<path id="Vector_25" d="M9.49961 20.4985H7.49805V21.5026H9.49961V20.4985Z" fill="#000001"/>
<path id="Vector_26" d="M9.4997 14.5005H8.5022V15.498H9.4997V14.5005Z" fill="#000001"/>
<path id="Vector_27" d="M9.4997 8.50195H8.5022V9.49945H9.4997V8.50195Z" fill="#000001"/>
<path id="Vector_28" d="M9.49961 2.50391H7.49805V3.50141H9.49961V2.50391Z" fill="#000001"/>
<path id="Vector_29" d="M8.50211 9.49951H7.49805V14.5001H8.50211V9.49951Z" fill="#000001"/>
<path id="Vector_30" d="M8.50211 6.50049H7.49805V7.49799H8.50211V6.50049Z" fill="#000001"/>
<path id="Vector_31" d="M7.49814 19.501H5.49658V20.4985H7.49814V19.501Z" fill="#000001"/>
<path id="Vector_32" d="M7.49823 7.49805H6.50073V8.50211H7.49823V7.49805Z" fill="#000001"/>
<path id="Vector_33" d="M7.49814 3.50146H5.49658V4.49896H7.49814V3.50146Z" fill="#000001"/>
<path id="Vector_34" d="M6.50064 8.50195H5.49658V11.501H6.50064V8.50195Z" fill="#000001"/>
<path id="Vector_35" d="M5.49652 18.5034H4.49902V19.5009H5.49652V18.5034Z" fill="#000001"/>
<path id="Vector_36" d="M5.49652 4.49902H4.49902V5.50309H5.49652V4.49902Z" fill="#000001"/>
<path id="Vector_37" d="M4.49896 16.502H3.50146V18.5035H4.49896V16.502Z" fill="#000001"/>
<path id="Vector_38" d="M4.49896 5.50293H3.50146V7.49793H4.49896V5.50293Z" fill="#000001"/>
<path id="Vector_39" d="M3.50162 14.5005H2.49756V16.5021H3.50162V14.5005Z" fill="#000001"/>
<path id="Vector_40" d="M3.50162 7.49805H2.49756V9.49961H3.50162V7.49805Z" fill="#000001"/>
<path id="Vector_41" d="M2.4975 9.49951H1.5V14.5001H2.4975V9.49951Z" fill="#000001"/>
</g>
</g>
</svg>
