<svg width="24" height="24" viewBox="0 0 24 24" fill="none" xmlns="http://www.w3.org/2000/svg">
<g id="music-album-cd-disk-playlist">
<g id="Group">
<path id="Vector" d="M22.4999 9.49609H21.5024V14.4967H22.4999V9.49609Z" fill="#000001"/>
<path id="Vector_2" d="M21.5024 14.4966H20.5049V16.4981H21.5024V14.4966Z" fill="#000001"/>
<path id="Vector_3" d="M21.5024 7.50098H20.5049V9.49598H21.5024V7.50098Z" fill="#000001"/>
<path id="Vector_4" d="M20.505 16.4985H19.501V17.496H20.505V16.4985Z" fill="#000001"/>
<path id="Vector_5" d="M20.505 9.49609H19.501V10.5002H20.505V9.49609Z" fill="#000001"/>
<path id="Vector_6" d="M20.505 6.49707H19.501V7.50113H20.505V6.49707Z" fill="#000001"/>
<path id="Vector_7" d="M19.5009 8.49854H18.5034V9.49604H19.5009V8.49854Z" fill="#000001"/>
<path id="Vector_8" d="M17.4995 13.4994H18.5035V10.5003H17.4995V6.49717H19.501V5.49967H17.4995V4.49561H16.502V19.4975H17.4995V18.5H19.501V17.4959H17.4995V13.4994Z" fill="#000001"/>
<path id="Vector_9" d="M16.502 19.4976H2.50415V20.5016H16.502V19.4976Z" fill="#000001"/>
<path id="Vector_10" d="M13.5027 11.4975H11.5012V12.495H10.5037V14.4966H11.5012V15.5007H13.5027V14.4966H14.5002V7.50098H13.5027V11.4975ZM13.5027 13.4991H12.5052V12.495H13.5027V13.4991Z" fill="#000001"/>
<path id="Vector_11" d="M13.5028 6.49707H11.5012V7.50113H13.5028V6.49707Z" fill="#000001"/>
<path id="Vector_12" d="M11.5013 7.50098H9.49976V8.49848H11.5013V7.50098Z" fill="#000001"/>
<path id="Vector_13" d="M9.49964 8.49854H7.50464V9.49604H9.49964V8.49854Z" fill="#000001"/>
<path id="Vector_14" d="M6.50053 13.4992H4.50553V14.4967H3.50146V16.4983H4.50553V17.4958H6.50053V16.4983H7.50459V9.49609H6.50053V13.4992ZM6.50053 15.5008H5.50303V14.4967H6.50053V15.5008Z" fill="#000001"/>
<path id="Vector_15" d="M16.502 3.49805H2.50415V4.49555H16.502V3.49805Z" fill="#000001"/>
<path id="Vector_16" d="M2.50406 4.49561H1.5V19.4975H2.50406V4.49561Z" fill="#000001"/>
</g>
</g>
</svg>
