<svg width="24" height="24" viewBox="0 0 24 24" fill="none" xmlns="http://www.w3.org/2000/svg">
<g id="music-vinyl-record">
<g id="Group">
<path id="Vector" d="M21.4959 9.49969V7.49813H20.4984V5.50312H19.5009V4.49906H18.4969V3.50156H16.5019V2.50406H14.5003V1.5H9.49969V2.50406H7.49813V3.50156H5.49656V4.49906H4.49906V5.50312H3.50156V7.49813H2.4975V9.49969H1.5V14.5003H2.4975V16.5019H3.50156V18.5034H4.49906V19.5009H5.49656V20.4984H7.49813V21.5025H9.49969V22.5H14.5003V21.5025H16.5019V20.4984H18.4969V19.5009H19.5009V18.5034H20.4984V16.5019H21.4959V14.5003H22.5V9.49969H21.4959ZM13.4963 5.50312H15.4978V6.50062H16.5019V7.49813H17.4994V8.50219H18.4969V10.5038H17.4994V8.50219H16.5019V7.49813H15.4978V6.50062H13.4963V5.50312ZM18.4969 12.4988V14.5003H17.4994V15.4978H16.5019V16.5019H15.4978V17.4994H14.5003V18.5034H12.4988V17.4994H14.5003V16.5019H15.4978V15.4978H16.5019V14.5003H17.4994V12.4988H18.4969ZM4.49906 8.50219V11.5012H3.50156V8.50219H4.49906V7.49813H5.49656V6.50062H6.50062V5.50312H7.49813V4.49906H8.50219V3.50156H11.5012V4.49906H8.50219V5.50312H7.49813V6.50062H6.50062V7.49813H5.49656V8.50219H4.49906ZM11.5012 5.50312V6.50062H9.49969V7.49813H8.50219V8.50219H7.49813V9.49969H6.50062V11.5012H5.49656V9.49969H6.50062V8.50219H7.49813V7.49813H8.50219V6.50062H9.49969V5.50312H11.5012ZM10.4972 18.5034H8.50219V17.4994H7.49813V16.5019H6.50062V15.4978H5.49656V13.5028H6.50062V15.4978H7.49813V16.5019H8.50219V17.4994H10.4972V18.5034ZM9.49969 13.5028V10.5038H10.4972V9.49969H13.4963V10.5038H14.5003V13.5028H13.4963V14.5003H10.4972V13.5028H9.49969ZM20.4984 15.4978H19.5009V16.5019H18.4969V17.4994H17.4994V18.5034H16.5019V19.5009H15.4978V20.4984H12.4988V19.5009H15.4978V18.5034H16.5019V17.4994H17.4994V16.5019H18.4969V15.4978H19.5009V12.4988H20.4984V15.4978Z" fill="#000001"/>
<path id="Vector_2" d="M12.4987 11.5015H11.5012V12.499H12.4987V11.5015Z" fill="#000001"/>
</g>
</g>
</svg>
