<svg width="24" height="24" viewBox="0 0 24 24" fill="none" xmlns="http://www.w3.org/2000/svg">
<g id="music-disk-cd-1">
<g id="Group">
<path id="Vector" d="M22.4999 9.49951H21.4958V14.5001H22.4999V9.49951Z" fill="#000001"/>
<path id="Vector_2" d="M20.4985 15.498H19.501V18.5036H20.4985V16.5021H21.496V14.5005H20.4985V15.498Z" fill="#000001"/>
<path id="Vector_3" d="M21.496 7.49805H20.4985V9.49961H21.496V7.49805Z" fill="#000001"/>
<path id="Vector_4" d="M20.4985 5.50293H19.501V7.49793H20.4985V5.50293Z" fill="#000001"/>
<path id="Vector_5" d="M19.5009 18.5034H18.4968V19.5009H19.5009V18.5034Z" fill="#000001"/>
<path id="Vector_6" d="M19.5009 4.49902H18.4968V5.50309H19.5009V4.49902Z" fill="#000001"/>
<path id="Vector_7" d="M19.5008 14.5005H17.4993V15.498H19.5008V14.5005Z" fill="#000001"/>
<path id="Vector_8" d="M18.4968 8.50195H17.4993V10.5035H18.4968V8.50195Z" fill="#000001"/>
<path id="Vector_9" d="M15.4977 19.501V20.4985H14.5002V21.5025H16.5018V20.4985H18.4968V19.501H15.4977Z" fill="#000001"/>
<path id="Vector_10" d="M17.4995 7.49805H16.502V8.50211H17.4995V7.49805Z" fill="#000001"/>
<path id="Vector_11" d="M18.497 3.50146H16.502V4.49896H18.497V3.50146Z" fill="#000001"/>
<path id="Vector_12" d="M16.5019 6.50049H15.4978V7.49799H16.5019V6.50049Z" fill="#000001"/>
<path id="Vector_13" d="M15.4977 17.4995H14.5002V19.5011H15.4977V17.4995Z" fill="#000001"/>
<path id="Vector_14" d="M14.5002 14.5001H17.4993V13.5026H15.4977V9.49951H14.5002V14.5001Z" fill="#000001"/>
<path id="Vector_15" d="M15.4979 5.50293H13.4963V6.50043H15.4979V5.50293Z" fill="#000001"/>
<path id="Vector_16" d="M16.5018 2.50391H14.5002V3.50141H16.5018V2.50391Z" fill="#000001"/>
<path id="Vector_17" d="M14.5004 21.5024H9.49976V22.4999H14.5004V21.5024Z" fill="#000001"/>
<path id="Vector_18" d="M9.49976 14.5005V15.498H13.4963V17.4996H14.5004V14.5005H9.49976Z" fill="#000001"/>
<path id="Vector_19" d="M13.4961 10.5039H10.4971V13.503H13.4961V10.5039ZM12.4986 12.4989H11.5011V11.5014H12.4986V12.4989Z" fill="#000001"/>
<path id="Vector_20" d="M14.5004 1.5H9.49976V2.50406H14.5004V1.5Z" fill="#000001"/>
<path id="Vector_21" d="M14.5004 9.49961V8.50211H10.4973V7.49805H9.49976V9.49961H14.5004Z" fill="#000001"/>
<path id="Vector_22" d="M9.49961 20.4985H7.49805V21.5026H9.49961V20.4985Z" fill="#000001"/>
<path id="Vector_23" d="M9.49961 9.49951H7.49805V10.5036H8.50211V14.5001H9.49961V9.49951Z" fill="#000001"/>
<path id="Vector_24" d="M9.4997 5.50293H8.5022V7.49793H9.4997V5.50293Z" fill="#000001"/>
<path id="Vector_25" d="M7.49814 19.501H5.49658V20.4985H7.49814V19.501Z" fill="#000001"/>
<path id="Vector_26" d="M7.49814 8.50195H5.49658V9.49945H7.49814V8.50195Z" fill="#000001"/>
<path id="Vector_27" d="M7.49814 5.50297H8.50221V3.50141H9.49971V2.50391H7.49814V3.50141H5.49658V4.49891H7.49814V5.50297Z" fill="#000001"/>
<path id="Vector_28" d="M5.49652 18.5034H4.49902V19.5009H5.49652V18.5034Z" fill="#000001"/>
<path id="Vector_29" d="M5.49652 4.49902H4.49902V5.50309H5.49652V4.49902Z" fill="#000001"/>
<path id="Vector_30" d="M4.49896 16.502H3.50146V18.5035H4.49896V16.502Z" fill="#000001"/>
<path id="Vector_31" d="M3.50162 14.5005H2.49756V16.5021H3.50162V14.5005Z" fill="#000001"/>
<path id="Vector_32" d="M3.50162 8.50199H5.49662V7.49793H4.49912V5.50293H3.50162V7.49793H2.49756V9.49949H3.50162V8.50199Z" fill="#000001"/>
<path id="Vector_33" d="M2.4975 9.49951H1.5V14.5001H2.4975V9.49951Z" fill="#000001"/>
</g>
</g>
</svg>
