<svg width="24" height="24" viewBox="0 0 24 24" fill="none" xmlns="http://www.w3.org/2000/svg">
<g id="music-microphone-off">
<g id="Group">
<path id="Vector" d="M21.5025 13.5029H20.505V15.5045H19.5009V16.502H18.5034V17.4995H19.5009V18.5036H20.505V20.5051H21.5025V19.5011H22.5V14.5004H21.5025V13.5029Z" fill="#000001"/>
<path id="Vector_2" d="M18.5036 19.5009H17.4995V18.5034H16.502V19.5009H15.5045V20.505H13.5029V21.5025H14.5004V22.5H19.5011V21.5025H20.5051V20.505H18.5036V19.5009Z" fill="#000001"/>
<path id="Vector_3" d="M15.5045 14.5005H16.502V15.5046H17.4995V14.5005H18.5036V13.503H20.5051V12.499H19.5011V11.5015H14.5004V12.499H13.5029V13.503H15.5045V14.5005Z" fill="#000001"/>
<path id="Vector_4" d="M14.5003 18.5036V17.4995H15.5043V16.502H14.5003V15.5045H13.5028V13.5029H12.5053V14.5004H11.5012V19.5011H12.5053V20.5051H13.5028V18.5036H14.5003Z" fill="#000001"/>
<path id="Vector_5" d="M11.5012 12.4987H12.5053V9.49959H13.5028V10.5037H14.5003V7.50459H13.5028V8.50209H12.5053V3.50146H11.5012V12.4987Z" fill="#000001"/>
<path id="Vector_6" d="M11.5013 20.505H10.5038V19.501H8.50228V16.5019H10.5038V15.5044H4.50571V16.5019H7.50478V19.501H4.50571V20.505H2.50415V22.5H12.5054V21.5025H11.5013V20.505Z" fill="#000001"/>
<path id="Vector_7" d="M11.5012 12.4985H10.5037V13.5026H11.5012V12.4985Z" fill="#000001"/>
<path id="Vector_8" d="M11.5012 2.50391H10.5037V3.50141H11.5012V2.50391Z" fill="#000001"/>
<path id="Vector_9" d="M10.5038 6.50049H9.49976V7.50455H10.5038V6.50049Z" fill="#000001"/>
<path id="Vector_10" d="M10.5038 4.49902H9.49976V5.50309H10.5038V4.49902Z" fill="#000001"/>
<path id="Vector_11" d="M10.5038 13.5029H5.50317V14.5004H10.5038V13.5029Z" fill="#000001"/>
<path id="Vector_12" d="M8.50214 7.50488H7.50464V8.50238H8.50214V7.50488Z" fill="#000001"/>
<path id="Vector_13" d="M8.50214 5.50293H7.50464V6.50043H8.50214V5.50293Z" fill="#000001"/>
<path id="Vector_14" d="M8.50214 3.50146H7.50464V4.49896H8.50214V3.50146Z" fill="#000001"/>
<path id="Vector_15" d="M10.5038 1.5H5.50317V2.50406H10.5038V1.5Z" fill="#000001"/>
<path id="Vector_16" d="M6.50067 6.50049H5.50317V7.50455H6.50067V6.50049Z" fill="#000001"/>
<path id="Vector_17" d="M6.50067 4.49902H5.50317V5.50309H6.50067V4.49902Z" fill="#000001"/>
<path id="Vector_18" d="M5.50312 12.4985H4.50562V13.5026H5.50312V12.4985Z" fill="#000001"/>
<path id="Vector_19" d="M5.50312 2.50391H4.50562V3.50141H5.50312V2.50391Z" fill="#000001"/>
<path id="Vector_20" d="M4.50553 14.5005H3.50146V15.5046H4.50553V14.5005Z" fill="#000001"/>
<path id="Vector_21" d="M3.50165 13.5029H2.50415V14.5004H3.50165V13.5029Z" fill="#000001"/>
<path id="Vector_22" d="M2.50406 9.49959H3.50156V12.4987H4.50562V3.50146H3.50156V8.50209H2.50406V7.50459H1.5V13.5027H2.50406V9.49959Z" fill="#000001"/>
</g>
</g>
</svg>
