<svg width="24" height="24" viewBox="0 0 24 24" fill="none" xmlns="http://www.w3.org/2000/svg">
<g id="music-microphone-1">
<g id="Group">
<path id="Vector" d="M13.0042 9.49959V10.5037H14.0017V9.49959H17.9982V10.5037H19.0023V9.49959H19.9998V11.5012H21.0038V9.49959H22.0013V5.50303H21.0038V3.50146H19.9998V5.50303H19.0023V4.49896H17.9982V5.50303H14.0017V4.49896H13.0042V5.50303H12.0001V3.50146H11.0026V5.50303H9.99854V9.49959H11.0026V11.5012H12.0001V9.49959H13.0042ZM19.0023 6.50053H21.0038V8.50209H19.0023V6.50053ZM14.0017 6.50053H17.9982V8.50209H14.0017V6.50053ZM11.0026 8.50209V6.50053H13.0042V8.50209H11.0026Z" fill="#000001"/>
<path id="Vector_2" d="M17.0006 20.5052H17.9981V19.5011H19.0022V12.4989H19.9997V11.5014H17.9981V10.5039H17.0006V12.4989H14.9991V10.5039H14.0016V11.5014H12V12.4989H13.0041V19.5011H14.0016V20.5052H14.9991V21.5027H17.0006V20.5052ZM14.0016 17.4995V14.5005H14.9991V17.4995H14.0016ZM16.0031 19.5011H14.9991V18.5036H16.0031V19.5011Z" fill="#000001"/>
<path id="Vector_3" d="M14.9991 21.5024H12V22.4999H14.9991V21.5024Z" fill="#000001"/>
<path id="Vector_4" d="M14.0016 4.49906H14.9991V2.50406H17.0006V4.49906H17.9981V3.50156H19.9997V2.50406H17.9981V1.5H14.0016V2.50406H12V3.50156H14.0016V4.49906Z" fill="#000001"/>
<path id="Vector_5" d="M11.9999 20.5049H11.0024V21.5024H11.9999V20.5049Z" fill="#000001"/>
<path id="Vector_6" d="M11.0026 19.501H9.99854V20.505H11.0026V19.501Z" fill="#000001"/>
<path id="Vector_7" d="M9.99848 17.4995H9.00098V19.5011H9.99848V17.4995Z" fill="#000001"/>
<path id="Vector_8" d="M9.00102 16.502H6.00195V17.4995H9.00102V16.502Z" fill="#000001"/>
<path id="Vector_9" d="M6.00189 17.4995H5.00439V18.5036H6.00189V17.4995Z" fill="#000001"/>
<path id="Vector_10" d="M5.00431 18.5034H4.00024V19.5009H5.00431V18.5034Z" fill="#000001"/>
<path id="Vector_11" d="M4.00034 19.501H1.99878V20.505H4.00034V19.501Z" fill="#000001"/>
</g>
</g>
</svg>
