<svg width="24" height="24" viewBox="0 0 24 24" fill="none" xmlns="http://www.w3.org/2000/svg">
<g id="music-walkman-cassette">
<g id="Group">
<path id="Vector" d="M22.4999 5.49658H21.5024V17.4994H22.4999V5.49658Z" fill="#000001"/>
<path id="Vector_2" d="M21.5024 17.4995H20.5049V18.497H21.5024V17.4995Z" fill="#000001"/>
<path id="Vector_3" d="M20.505 15.4976H19.501V16.4951H20.505V15.4976Z" fill="#000001"/>
<path id="Vector_4" d="M20.505 9.49951H19.501V12.4986H20.505V9.49951Z" fill="#000001"/>
<path id="Vector_5" d="M20.505 6.50049H19.501V7.49799H20.505V6.50049Z" fill="#000001"/>
<path id="Vector_6" d="M19.5008 17.4995H18.5033V18.497H15.5043V17.4995H8.50209V18.497H5.50303V17.4995H4.50553V18.497H3.50146V19.5011H20.5049V18.497H19.5008V17.4995Z" fill="#000001"/>
<path id="Vector_7" d="M19.5009 12.4985H18.5034V13.496H19.5009V12.4985Z" fill="#000001"/>
<path id="Vector_8" d="M19.5009 8.49561H18.5034V9.49967H19.5009V8.49561Z" fill="#000001"/>
<path id="Vector_9" d="M18.5033 16.4951H17.4993V17.4992H18.5033V16.4951Z" fill="#000001"/>
<path id="Vector_10" d="M16.5019 12.4987H15.5044V9.49961H16.5019V8.49555H18.5035V7.49805H5.50317V8.49555H7.50474V9.49961H8.50224V12.4987H7.50474V13.4962H5.50317V14.5002H18.5035V13.4962H16.5019V12.4987ZM14.5004 11.4946H9.49974V8.49555H14.5004V11.4946Z" fill="#000001"/>
<path id="Vector_11" d="M18.5035 9.49951H16.502V12.4986H18.5035V9.49951Z" fill="#000001"/>
<path id="Vector_12" d="M13.5029 9.49951H12.5054V10.497H13.5029V9.49951Z" fill="#000001"/>
<path id="Vector_13" d="M11.5012 9.49951H10.5037V10.497H11.5012V9.49951Z" fill="#000001"/>
<path id="Vector_14" d="M17.4995 15.4976H6.50073V16.4951H17.4995V15.4976Z" fill="#000001"/>
<path id="Vector_15" d="M6.50067 16.4951H5.50317V17.4992H6.50067V16.4951Z" fill="#000001"/>
<path id="Vector_16" d="M7.50474 9.49951H5.50317V12.4986H7.50474V9.49951Z" fill="#000001"/>
<path id="Vector_17" d="M5.50312 12.4985H4.50562V13.496H5.50312V12.4985Z" fill="#000001"/>
<path id="Vector_18" d="M5.50312 8.49561H4.50562V9.49967H5.50312V8.49561Z" fill="#000001"/>
<path id="Vector_19" d="M4.50553 15.4976H3.50146V16.4951H4.50553V15.4976Z" fill="#000001"/>
<path id="Vector_20" d="M4.50553 9.49951H3.50146V12.4986H4.50553V9.49951Z" fill="#000001"/>
<path id="Vector_21" d="M4.50553 6.50049H3.50146V7.49799H4.50553V6.50049Z" fill="#000001"/>
<path id="Vector_22" d="M21.5026 4.49902H2.50415V5.49652H21.5026V4.49902Z" fill="#000001"/>
<path id="Vector_23" d="M3.50165 17.4995H2.50415V18.497H3.50165V17.4995Z" fill="#000001"/>
<path id="Vector_24" d="M2.50406 5.49658H1.5V17.4994H2.50406V5.49658Z" fill="#000001"/>
</g>
</g>
</svg>
