<svg width="24" height="24" viewBox="0 0 24 24" fill="none" xmlns="http://www.w3.org/2000/svg">
<g id="music-clef-sheet">
<g id="Group">
<path id="Vector" d="M22.5 7.50488H11.5012V8.50238H22.5V7.50488Z" fill="#000001"/>
<path id="Vector_2" d="M22.4999 19.501H10.5037V20.505H22.4999V19.501Z" fill="#000001"/>
<path id="Vector_3" d="M22.5001 16.502H12.5054V17.4995H22.5001V16.502Z" fill="#000001"/>
<path id="Vector_4" d="M22.5001 13.5029H13.5029V14.5004H22.5001V13.5029Z" fill="#000001"/>
<path id="Vector_5" d="M22.5001 10.5039H12.5054V11.5014H22.5001V10.5039Z" fill="#000001"/>
<path id="Vector_6" d="M12.5053 12.4985H11.5012V15.5042H12.5053V12.4985Z" fill="#000001"/>
<path id="Vector_7" d="M12.5053 2.50391H11.5012V5.50297H12.5053V2.50391Z" fill="#000001"/>
<path id="Vector_8" d="M11.5012 15.5044H10.5037V16.5019H11.5012V15.5044Z" fill="#000001"/>
<path id="Vector_9" d="M11.5012 11.5015H10.5037V12.499H11.5012V11.5015Z" fill="#000001"/>
<path id="Vector_10" d="M11.5012 5.50293H10.5037V6.50043H11.5012V5.50293Z" fill="#000001"/>
<path id="Vector_11" d="M11.5013 1.5H9.49976V2.50406H11.5013V1.5Z" fill="#000001"/>
<path id="Vector_12" d="M10.5038 16.5017H9.49974V11.5011H10.5038V10.5036H9.49974V7.50453H10.5038V6.50047H9.49974V2.50391H8.50224V7.50453H7.50474V8.50203H8.50224V10.5036H7.50474V11.5011H8.50224V13.5027H7.50474V14.5002H8.50224V16.5017H6.50067V17.4992H8.50224V18.5033H6.50067V19.5008H5.50317V21.5023H6.50067V22.4998H8.50224V21.5023H9.49974V17.4992H10.5038V16.5017Z" fill="#000001"/>
<path id="Vector_13" d="M7.50479 11.5015H6.50073V13.503H7.50479V11.5015Z" fill="#000001"/>
<path id="Vector_14" d="M7.50479 8.50195H6.50073V9.49945H7.50479V8.50195Z" fill="#000001"/>
<path id="Vector_15" d="M6.50067 15.5044H5.50317V16.5019H6.50067V15.5044Z" fill="#000001"/>
<path id="Vector_16" d="M6.50067 9.49951H5.50317V10.5036H6.50067V9.49951Z" fill="#000001"/>
<path id="Vector_17" d="M5.50312 10.5039H4.50562V15.5045H5.50312V10.5039Z" fill="#000001"/>
<path id="Vector_18" d="M4.50563 19.501H1.5V20.505H4.50563V19.501Z" fill="#000001"/>
<path id="Vector_19" d="M4.50563 16.502H1.5V17.4995H4.50563V16.502Z" fill="#000001"/>
<path id="Vector_20" d="M3.50156 13.5029H1.5V14.5004H3.50156V13.5029Z" fill="#000001"/>
<path id="Vector_21" d="M3.50156 10.5039H1.5V11.5014H3.50156V10.5039Z" fill="#000001"/>
<path id="Vector_22" d="M5.50312 7.50488H1.5V8.50238H5.50312V7.50488Z" fill="#000001"/>
</g>
</g>
</svg>
