<svg width="24" height="24" viewBox="0 0 24 24" fill="none" xmlns="http://www.w3.org/2000/svg">
<g id="music-notes-music-1">
<g id="Group">
<path id="Vector" d="M21.0004 6.50391H19.9963V8.49891H21.0004V6.50391Z" fill="#000001"/>
<path id="Vector_2" d="M19.9963 5.5H18.9988V6.50406H19.9963V5.5Z" fill="#000001"/>
<path id="Vector_3" d="M18.9989 4.50244H17.9949V5.49994H18.9989V4.50244Z" fill="#000001"/>
<path id="Vector_4" d="M13.9982 16.4988H15.9998V15.5013H16.9973V4.50254H17.9948V3.49848H16.9973V2.50098H15.9998V12.5022H13.9982V13.4997H13.0007V15.5013H13.9982V16.4988Z" fill="#000001"/>
<path id="Vector_5" d="M10.9992 11.498H9.99512V13.4996H10.9992V11.498Z" fill="#000001"/>
<path id="Vector_6" d="M9.99506 10.5005H8.99756V11.498H9.99506V10.5005Z" fill="#000001"/>
<path id="Vector_7" d="M8.99774 9.50293H8.00024V10.5004H8.99774V9.50293Z" fill="#000001"/>
<path id="Vector_8" d="M3.99701 21.4993H5.99857V20.5018H6.99607V9.50303H8.00014V8.49896H6.99607V7.50146H5.99857V17.5027H3.99701V18.5002H2.99951V20.5018H3.99701V21.4993Z" fill="#000001"/>
</g>
</g>
</svg>
