<svg width="24" height="24" viewBox="0 0 24 24" fill="none" xmlns="http://www.w3.org/2000/svg">
<g id="music-microphone-2">
<g id="Group">
<path id="Vector" d="M17.4994 8.50209H16.5019V3.50146H15.4978V12.4987H16.5019V9.49959H17.4994V13.5027H18.4969V7.50459H17.4994V8.50209Z" fill="#000001"/>
<path id="Vector_2" d="M17.4995 13.5029H16.502V14.5004H17.4995V13.5029Z" fill="#000001"/>
<path id="Vector_3" d="M16.5019 14.5005H15.4978V15.5046H16.5019V14.5005Z" fill="#000001"/>
<path id="Vector_4" d="M15.4977 12.4985H14.5002V13.5026H15.4977V12.4985Z" fill="#000001"/>
<path id="Vector_5" d="M15.4977 2.50391H14.5002V3.50141H15.4977V2.50391Z" fill="#000001"/>
<path id="Vector_6" d="M8.5023 15.5044V16.5019H11.5014V19.501H8.5023V20.505H6.50073V22.5H17.4995V20.505H15.4979V19.501H12.4989V16.5019H15.4979V15.5044H8.5023Z" fill="#000001"/>
<path id="Vector_7" d="M14.5004 6.50049H13.5029V7.50455H14.5004V6.50049Z" fill="#000001"/>
<path id="Vector_8" d="M14.5004 4.49902H13.5029V5.50309H14.5004V4.49902Z" fill="#000001"/>
<path id="Vector_9" d="M14.5004 13.5029H9.49976V14.5004H14.5004V13.5029Z" fill="#000001"/>
<path id="Vector_10" d="M12.4987 7.50488H11.5012V8.50238H12.4987V7.50488Z" fill="#000001"/>
<path id="Vector_11" d="M12.4987 5.50293H11.5012V6.50043H12.4987V5.50293Z" fill="#000001"/>
<path id="Vector_12" d="M12.4987 3.50146H11.5012V4.49896H12.4987V3.50146Z" fill="#000001"/>
<path id="Vector_13" d="M14.5004 1.5H9.49976V2.50406H14.5004V1.5Z" fill="#000001"/>
<path id="Vector_14" d="M10.4973 6.50049H9.49976V7.50455H10.4973V6.50049Z" fill="#000001"/>
<path id="Vector_15" d="M10.4973 4.49902H9.49976V5.50309H10.4973V4.49902Z" fill="#000001"/>
<path id="Vector_16" d="M9.4997 12.4985H8.5022V13.5026H9.4997V12.4985Z" fill="#000001"/>
<path id="Vector_17" d="M9.4997 2.50391H8.5022V3.50141H9.4997V2.50391Z" fill="#000001"/>
<path id="Vector_18" d="M8.50235 14.5005H7.49829V15.5046H8.50235V14.5005Z" fill="#000001"/>
<path id="Vector_19" d="M7.49823 13.5029H6.50073V14.5004H7.49823V13.5029Z" fill="#000001"/>
<path id="Vector_20" d="M6.50067 9.49959H7.49817V12.4987H8.50224V3.50146H7.49817V8.50209H6.50067V7.50459H5.50317V13.5027H6.50067V9.49959Z" fill="#000001"/>
</g>
</g>
</svg>
