<svg width="24" height="24" viewBox="0 0 24 24" fill="none" xmlns="http://www.w3.org/2000/svg">
<g id="music-radio-stereo">
<g id="Group">
<path id="Vector" d="M22.4999 14.5005H21.5024V20.5052H22.4999V14.5005Z" fill="#000001"/>
<path id="Vector_2" d="M21.5024 20.5049H20.5049V21.5024H21.5024V20.5049Z" fill="#000001"/>
<path id="Vector_3" d="M21.5024 13.5029H20.5049V14.5004H21.5024V13.5029Z" fill="#000001"/>
<path id="Vector_4" d="M21.5024 8.50195H20.5049V9.49945H21.5024V8.50195Z" fill="#000001"/>
<path id="Vector_5" d="M19.5009 17.4995H18.5034V18.5035H19.5009V19.501H20.505V16.502H19.5009V17.4995Z" fill="#000001"/>
<path id="Vector_6" d="M20.505 2.50391H19.5009V4.49891H18.5034V6.50047H20.505V2.50391Z" fill="#000001"/>
<path id="Vector_7" d="M20.5049 21.5024H3.50146V22.4999H20.5049V21.5024Z" fill="#000001"/>
<path id="Vector_8" d="M18.5035 18.5034H17.4995V19.5009H16.502V20.505H19.501V19.5009H18.5035V18.5034Z" fill="#000001"/>
<path id="Vector_9" d="M17.4995 17.4994H18.5035V16.5019H19.501V15.5044H16.502V16.5019H17.4995V17.4994Z" fill="#000001"/>
<path id="Vector_10" d="M17.4994 18.5035V17.4995H16.5019V16.502H15.5044V19.501H16.5019V18.5035H17.4994Z" fill="#000001"/>
<path id="Vector_11" d="M17.4995 9.49951H16.502V10.5036H17.4995V9.49951Z" fill="#000001"/>
<path id="Vector_12" d="M16.5019 2.50391H15.5044V3.50141H16.5019V2.50391Z" fill="#000001"/>
<path id="Vector_13" d="M15.5044 14.5005H8.5022V15.5046H15.5044V14.5005Z" fill="#000001"/>
<path id="Vector_14" d="M14.5004 7.50465V6.50059H15.5044V5.50309H14.5004V4.49902H13.5029V5.50309H12.5054V6.50059H13.5029V7.50465H14.5004Z" fill="#000001"/>
<path id="Vector_15" d="M9.49976 16.502V19.501H14.5004V16.502H9.49976ZM11.5013 18.5035H10.5038V17.4995H11.5013V18.5035ZM13.5029 18.5035H12.5054V17.4995H13.5029V18.5035Z" fill="#000001"/>
<path id="Vector_16" d="M10.5038 2.50391H9.49976V3.50141H10.5038V2.50391Z" fill="#000001"/>
<path id="Vector_17" d="M16.5018 8.50195H7.50464V9.49945H16.5018V8.50195Z" fill="#000001"/>
<path id="Vector_18" d="M9.4997 3.50146H8.5022V4.49896H9.4997V3.50146Z" fill="#000001"/>
<path id="Vector_19" d="M9.4997 1.5H8.5022V2.50406H9.4997V1.5Z" fill="#000001"/>
<path id="Vector_20" d="M7.50479 17.4995H6.50073V18.5035H7.50479V19.501H8.5023V16.502H7.50479V17.4995Z" fill="#000001"/>
<path id="Vector_21" d="M8.50214 2.50391H7.50464V3.50141H8.50214V2.50391Z" fill="#000001"/>
<path id="Vector_22" d="M7.50479 9.49951H6.50073V10.5036H7.50479V9.49951Z" fill="#000001"/>
<path id="Vector_23" d="M6.50062 18.5034H5.50312V19.5009H4.50562V20.505H7.50468V19.5009H6.50062V18.5034Z" fill="#000001"/>
<path id="Vector_24" d="M5.50312 17.4994H6.50062V16.5019H7.50468V15.5044H4.50562V16.5019H5.50312V17.4994Z" fill="#000001"/>
<path id="Vector_25" d="M6.50067 5.50293H5.50317V6.50043H6.50067V5.50293Z" fill="#000001"/>
<path id="Vector_26" d="M5.50303 18.5035V17.4995H4.50553V16.502H3.50146V19.501H4.50553V18.5035H5.50303Z" fill="#000001"/>
<path id="Vector_27" d="M7.50459 13.503V14.5005H8.50209V13.503H15.5043V14.5005H16.5018V13.503H20.5049V12.4989H18.5033V10.5039H17.4993V12.4989H16.5018V11.5014H14.5002V12.4989H13.5027V11.5014H10.5037V12.4989H9.49959V11.5014H7.50459V12.4989H6.50053V10.5039H5.50303V12.4989H3.50146V13.503H7.50459Z" fill="#000001"/>
<path id="Vector_28" d="M3.50165 20.5049H2.50415V21.5024H3.50165V20.5049Z" fill="#000001"/>
<path id="Vector_29" d="M3.50165 13.5029H2.50415V14.5004H3.50165V13.5029Z" fill="#000001"/>
<path id="Vector_30" d="M3.50165 4.49902V7.50465H2.50415V9.49965H4.50571V5.50309H5.50321V4.49902H3.50165Z" fill="#000001"/>
<path id="Vector_31" d="M2.50406 14.5005H1.5V20.5052H2.50406V14.5005Z" fill="#000001"/>
<path id="Vector_32" d="M2.50406 2.50391H1.5V3.50141H2.50406V2.50391Z" fill="#000001"/>
</g>
</g>
</svg>
