<svg width="24" height="24" viewBox="0 0 24 24" fill="none" xmlns="http://www.w3.org/2000/svg">
<g id="music-speaker">
<g id="Group">
<path id="Vector" d="M21.4992 2.50098H2.50073V21.4994H21.4992V2.50098ZM20.5017 20.5019H9.5062V3.49848H20.505L20.5017 20.5019Z" fill="#000001"/>
<path id="Vector_2" d="M19.5041 18.5005H18.5V19.5045H19.5041V18.5005Z" fill="#000001"/>
<path id="Vector_3" d="M19.5041 12.5024H18.5V16.499H19.5041V12.5024Z" fill="#000001"/>
<path id="Vector_4" d="M19.5041 4.50244H18.5V5.49994H19.5041V4.50244Z" fill="#000001"/>
<path id="Vector_5" d="M18.5002 16.499H17.5027V17.5031H18.5002V16.499Z" fill="#000001"/>
<path id="Vector_6" d="M18.5002 11.498H17.5027V12.5021H18.5002V11.498Z" fill="#000001"/>
<path id="Vector_7" d="M17.5026 13.4995H16.4985V15.5011H17.5026V13.4995Z" fill="#000001"/>
<path id="Vector_8" d="M17.5026 6.50391H16.4985V8.49891H17.5026V6.50391Z" fill="#000001"/>
<path id="Vector_9" d="M17.5026 17.5029H13.4995V18.5004H17.5026V17.5029Z" fill="#000001"/>
<path id="Vector_10" d="M16.4987 12.5024H14.5037V13.4999H16.4987V12.5024Z" fill="#000001"/>
<path id="Vector_11" d="M16.4987 5.5H14.5037V6.50406H16.4987V5.5Z" fill="#000001"/>
<path id="Vector_12" d="M16.4987 15.5015H14.5037V16.499H16.4987V15.5015Z" fill="#000001"/>
<path id="Vector_13" d="M17.5026 10.5005H13.4995V11.498H17.5026V10.5005Z" fill="#000001"/>
<path id="Vector_14" d="M16.4987 8.49902H14.5037V9.50309H16.4987V8.49902Z" fill="#000001"/>
<path id="Vector_15" d="M14.5036 13.4995H13.4995V15.5011H14.5036V13.4995Z" fill="#000001"/>
<path id="Vector_16" d="M14.5036 6.50391H13.4995V8.49891H14.5036V6.50391Z" fill="#000001"/>
<path id="Vector_17" d="M13.4995 16.499H12.502V17.5031H13.4995V16.499Z" fill="#000001"/>
<path id="Vector_18" d="M13.4995 11.498H12.502V12.5021H13.4995V11.498Z" fill="#000001"/>
<path id="Vector_19" d="M12.5019 12.5024H11.5044V16.499H12.5019V12.5024Z" fill="#000001"/>
<path id="Vector_20" d="M11.5046 18.5005H10.5005V19.5045H11.5046V18.5005Z" fill="#000001"/>
<path id="Vector_21" d="M11.5046 4.50244H10.5005V5.49994H11.5046V4.50244Z" fill="#000001"/>
</g>
</g>
</svg>
