<svg width="24" height="24" viewBox="0 0 24 24" fill="none" xmlns="http://www.w3.org/2000/svg">
<g id="music-notes-music-2">
<g id="Group">
<path id="Vector" d="M22.4999 14.5005H21.5024V16.5021H22.4999V14.5005Z" fill="#000001"/>
<path id="Vector_2" d="M22.4999 10.5039H21.5024V11.5014H22.4999V10.5039Z" fill="#000001"/>
<path id="Vector_3" d="M22.4999 8.50195H21.5024V9.49945H22.4999V8.50195Z" fill="#000001"/>
<path id="Vector_4" d="M22.4999 6.50049H21.5024V7.50455H22.4999V6.50049Z" fill="#000001"/>
<path id="Vector_5" d="M21.5024 13.5029H20.5049V14.5004H21.5024V13.5029Z" fill="#000001"/>
<path id="Vector_6" d="M21.5024 9.49951H20.5049V10.5036H21.5024V9.49951Z" fill="#000001"/>
<path id="Vector_7" d="M21.5024 7.50488H20.5049V8.50238H21.5024V7.50488Z" fill="#000001"/>
<path id="Vector_8" d="M21.5024 2.50391H20.5049V4.49891H21.5024V2.50391Z" fill="#000001"/>
<path id="Vector_9" d="M19.501 12.499V11.5015H18.5035V18.5037H16.5019V19.5012H15.5044V21.5027H16.5019V22.5002H18.5035V21.5027H19.501V13.503H20.505V12.499H19.501Z" fill="#000001"/>
<path id="Vector_10" d="M20.505 4.49902H19.501V5.50309H20.505V4.49902Z" fill="#000001"/>
<path id="Vector_11" d="M20.505 1.5H18.5034V2.50406H20.505V1.5Z" fill="#000001"/>
<path id="Vector_12" d="M19.5009 5.50293H18.5034V6.50043H19.5009V5.50293Z" fill="#000001"/>
<path id="Vector_13" d="M18.5033 6.50049H17.4993V7.50455H18.5033V6.50049Z" fill="#000001"/>
<path id="Vector_14" d="M18.5033 2.50391H17.4993V3.50141H18.5033V2.50391Z" fill="#000001"/>
<path id="Vector_15" d="M17.4995 9.49951H16.502V10.5036H17.4995V9.49951Z" fill="#000001"/>
<path id="Vector_16" d="M17.4995 5.50293H16.502V6.50043H17.4995V5.50293Z" fill="#000001"/>
<path id="Vector_17" d="M17.4994 1.5H15.5044V2.50406H17.4994V1.5Z" fill="#000001"/>
<path id="Vector_18" d="M16.5019 14.5005H15.5044V16.5021H16.5019V14.5005Z" fill="#000001"/>
<path id="Vector_19" d="M16.5019 10.5039H15.5044V11.5014H16.5019V10.5039Z" fill="#000001"/>
<path id="Vector_20" d="M16.5019 8.50195H15.5044V9.49945H16.5019V8.50195Z" fill="#000001"/>
<path id="Vector_21" d="M16.5019 4.49902H15.5044V5.50309H16.5019V4.49902Z" fill="#000001"/>
<path id="Vector_22" d="M15.5045 16.502H13.5029V17.4995H15.5045V16.502Z" fill="#000001"/>
<path id="Vector_23" d="M15.5045 13.5029H13.5029V14.5004H15.5045V13.5029Z" fill="#000001"/>
<path id="Vector_24" d="M15.5043 9.49951H14.5002V10.5036H15.5043V9.49951Z" fill="#000001"/>
<path id="Vector_25" d="M15.5043 2.50391H14.5002V4.49891H15.5043V2.50391Z" fill="#000001"/>
<path id="Vector_26" d="M13.5029 14.5005H12.5054V16.5021H13.5029V14.5005Z" fill="#000001"/>
<path id="Vector_27" d="M12.5052 21.5025V20.505H13.5027V19.5009H12.5052V18.5034H11.5012V19.5009H10.5037V20.505H11.5012V21.5025H12.5052Z" fill="#000001"/>
<path id="Vector_28" d="M11.5013 1.5H9.49976V2.50406H11.5013V1.5Z" fill="#000001"/>
<path id="Vector_29" d="M9.4997 7.50453V8.50203H8.5022V10.5036H9.4997V11.5011H11.5013V10.5036H12.5053V2.50391H11.5013V7.50453H9.4997Z" fill="#000001"/>
<path id="Vector_30" d="M9.4997 15.5044H8.5022V16.5019H9.4997V15.5044Z" fill="#000001"/>
<path id="Vector_31" d="M8.50214 16.502H7.50464V17.4995H8.50214V16.502Z" fill="#000001"/>
<path id="Vector_32" d="M8.50214 14.5005H7.50464V15.5046H8.50214V14.5005Z" fill="#000001"/>
<path id="Vector_33" d="M9.49964 2.50391H7.50464V3.50141H9.49964V2.50391Z" fill="#000001"/>
<path id="Vector_34" d="M7.50479 19.501H6.50073V20.505H7.50479V19.501Z" fill="#000001"/>
<path id="Vector_35" d="M7.50479 15.5044H6.50073V16.5019H7.50479V15.5044Z" fill="#000001"/>
<path id="Vector_36" d="M6.50067 18.5034H5.50317V19.5009H6.50067V18.5034Z" fill="#000001"/>
<path id="Vector_37" d="M7.50474 3.50146H5.50317V4.49896H7.50474V3.50146Z" fill="#000001"/>
<path id="Vector_38" d="M5.50312 19.501H4.50562V20.505H5.50312V19.501Z" fill="#000001"/>
<path id="Vector_39" d="M2.50406 14.5003H4.50562V13.5028H5.50312V4.49902H4.50562V10.5037H2.50406V11.5012H1.5V13.5028H2.50406V14.5003Z" fill="#000001"/>
<path id="Vector_40" d="M4.50553 18.5034H3.50146V19.5009H4.50553V18.5034Z" fill="#000001"/>
<path id="Vector_41" d="M3.50165 19.501H2.50415V20.505H3.50165V19.501Z" fill="#000001"/>
</g>
</g>
</svg>
