<svg width="24" height="24" viewBox="0 0 24 24" fill="none" xmlns="http://www.w3.org/2000/svg">
<g id="music-headphones-human">
<g id="Group">
<path id="Vector" d="M21.998 10H21.0005V13.9966H21.998V10Z" fill="#000001"/>
<path id="Vector_2" d="M7.99998 10.0003H8.99748V8.99623H10.0015V7.99873H13.9981V8.99623H15.0022V7.99873H18.0012V8.99623H18.9987V16.9959H20.0028V15.0009H21.0003V13.9969H20.0028V10.0003H21.0003V8.99623H20.0028V4.99967H18.9987V5.99717H18.0012V4.99967H15.9997V3.99561H8.99748V4.99967H7.99998V5.99717H7.00248V7.99873H5.99842V4.99967H5.00092V7.99873H4.00342V8.99623H7.99998V10.0003Z" fill="#000001"/>
<path id="Vector_3" d="M18.9987 16.9956H18.0012V17.9997H18.9987V16.9956Z" fill="#000001"/>
<path id="Vector_4" d="M18.9987 3.99561H18.0012V4.99967H18.9987V3.99561Z" fill="#000001"/>
<path id="Vector_5" d="M18.0014 15.001H16.9973V15.9985H18.0014V15.001Z" fill="#000001"/>
<path id="Vector_6" d="M18.0014 11.9951H16.9973V13.9967H18.0014V11.9951Z" fill="#000001"/>
<path id="Vector_7" d="M18.0014 2.99805H16.9973V3.99555H18.0014V2.99805Z" fill="#000001"/>
<path id="Vector_8" d="M8.99754 18V20.0048H7.00254V21.0023H5.00098V21.9998H21.0004V21.0023H18.9988V20.0048H16.9972V19.0008H18.0013V18.0033L8.99754 18ZM15.9997 20.9991H12.0032V20.0048H10.0016V19.0008H16.003L15.9997 20.9991Z" fill="#000001"/>
<path id="Vector_9" d="M16.9974 15.9985H13.9983V16.996H16.9974V15.9985Z" fill="#000001"/>
<path id="Vector_10" d="M13.9982 15.001H13.0007V15.9985H13.9982V15.001Z" fill="#000001"/>
<path id="Vector_11" d="M13.0007 11.9951H12.0032V13.9967H13.0007V11.9951Z" fill="#000001"/>
<path id="Vector_12" d="M13.9982 8.99609H12.0032V10.0002H13.9982V8.99609Z" fill="#000001"/>
<path id="Vector_13" d="M10.0016 10H8.99756V13.9966H10.0016V10Z" fill="#000001"/>
<path id="Vector_14" d="M16.9972 2.00049H8V2.99799H16.9972V2.00049Z" fill="#000001"/>
<path id="Vector_15" d="M8.9975 16.9956H8V17.9997H8.9975V16.9956Z" fill="#000001"/>
<path id="Vector_16" d="M8.9975 13.9966H8V15.0006H8.9975V13.9966Z" fill="#000001"/>
<path id="Vector_17" d="M4.00342 15.001V15.9985H7.00248V16.996H7.99998V15.001H4.00342Z" fill="#000001"/>
<path id="Vector_18" d="M8.00019 2.99805H7.00269V3.99555H8.00019V2.99805Z" fill="#000001"/>
<path id="Vector_19" d="M7.0026 3.99561H5.99854V4.99967H7.0026V3.99561Z" fill="#000001"/>
<path id="Vector_20" d="M5.99848 10H5.00098V10.9975H5.99848V10Z" fill="#000001"/>
<path id="Vector_21" d="M5.00092 10.9976H4.00342V12.9991H5.00092V10.9976Z" fill="#000001"/>
<path id="Vector_22" d="M4.00357 13.9966H2.99951V15.0006H4.00357V13.9966Z" fill="#000001"/>
<path id="Vector_23" d="M4.00357 8.99609H2.99951V10.0002H4.00357V8.99609Z" fill="#000001"/>
<path id="Vector_24" d="M2.99945 10H2.00195V13.9966H2.99945V10Z" fill="#000001"/>
</g>
</g>
</svg>
