<svg width="24" height="24" viewBox="0 0 24 24" fill="none" xmlns="http://www.w3.org/2000/svg">
<g id="non-gmo-fertilizer">
<g id="Group">
<path id="Vector" d="M22.0014 12.0032H20.9973V13.0007H22.0014V12.0032Z" fill="#000001"/>
<path id="Vector_2" d="M22.0014 10.0017H20.9973V10.9992H22.0014V10.0017Z" fill="#000001"/>
<path id="Vector_3" d="M22.0014 8H20.9973V8.9975H22.0014V8Z" fill="#000001"/>
<path id="Vector_4" d="M22.0014 5.99854H20.9973V7.0026H22.0014V5.99854Z" fill="#000001"/>
<path id="Vector_5" d="M22.0014 3.99707H20.9973V5.00113H22.0014V3.99707Z" fill="#000001"/>
<path id="Vector_6" d="M22.0014 2.00195H20.9973V2.99945H22.0014V2.00195Z" fill="#000001"/>
<path id="Vector_7" d="M19.9997 12.0032H19.0022V13.0007H19.9997V12.0032Z" fill="#000001"/>
<path id="Vector_8" d="M19.9997 10.0017H19.0022V10.9992H19.9997V10.0017Z" fill="#000001"/>
<path id="Vector_9" d="M19.9997 8H19.0022V8.9975H19.9997V8Z" fill="#000001"/>
<path id="Vector_10" d="M19.9997 5.99854H19.0022V7.0026H19.9997V5.99854Z" fill="#000001"/>
<path id="Vector_11" d="M19.9997 3.99707H19.0022V5.00113H19.9997V3.99707Z" fill="#000001"/>
<path id="Vector_12" d="M19.9997 2.00195H19.0022V2.99945H19.9997V2.00195Z" fill="#000001"/>
<path id="Vector_13" d="M17.9982 12.0032H17.0007V13.0007H17.9982V12.0032Z" fill="#000001"/>
<path id="Vector_14" d="M17.9982 10.0017H17.0007V10.9992H17.9982V10.0017Z" fill="#000001"/>
<path id="Vector_15" d="M17.9982 8H17.0007V8.9975H17.9982V8Z" fill="#000001"/>
<path id="Vector_16" d="M17.9982 5.99854H17.0007V7.0026H17.9982V5.99854Z" fill="#000001"/>
<path id="Vector_17" d="M17.9982 3.99707H17.0007V5.00113H17.9982V3.99707Z" fill="#000001"/>
<path id="Vector_18" d="M17.9982 2.00195H17.0007V2.99945H17.9982V2.00195Z" fill="#000001"/>
<path id="Vector_19" d="M15.9965 10.0017H14.999V10.9992H15.9965V10.0017Z" fill="#000001"/>
<path id="Vector_20" d="M15.9965 8H14.999V8.9975H15.9965V8Z" fill="#000001"/>
<path id="Vector_21" d="M15.9965 5.99854H14.999V7.0026H15.9965V5.99854Z" fill="#000001"/>
<path id="Vector_22" d="M15.9965 3.99707H14.999V5.00113H15.9965V3.99707Z" fill="#000001"/>
<path id="Vector_23" d="M14.0016 8H12.9976V8.9975H14.0016V8Z" fill="#000001"/>
<path id="Vector_24" d="M14.0016 5.99854H12.9976V7.0026H14.0016V5.99854Z" fill="#000001"/>
<path id="Vector_25" d="M12.9975 10.999H12V21.0003H12.9975V10.999Z" fill="#000001"/>
<path id="Vector_26" d="M11.9999 10.0017H11.0024V10.9992H11.9999V10.0017Z" fill="#000001"/>
<path id="Vector_27" d="M12.0001 21.0005H2.99634V21.998H12.0001V21.0005Z" fill="#000001"/>
<path id="Vector_28" d="M11.0026 3.99707H9.99854V5.00113H11.0026V3.99707Z" fill="#000001"/>
<path id="Vector_29" d="M9.99837 12.0032H4.99774V13.0007H4.00024V18.0013H4.99774V18.9988H6.00181V18.0013H6.99931V18.9988H7.99681V18.0013H9.00087V18.9988H9.99837V18.0013H11.0024V13.0007H9.99837V12.0032ZM6.99931 16.003H4.99774V14.0015H6.99931V16.003ZM9.99837 16.003H7.99681V14.0015H9.99837V16.003Z" fill="#000001"/>
<path id="Vector_30" d="M9.99843 2.99951H4.9978V3.99701H9.99843V2.99951Z" fill="#000001"/>
<path id="Vector_31" d="M11.0026 10.0016V8.99754H7.99696V8.00004H12.0001V7.00254H7.99696V5.99848H9.99853V5.00098H4.9979V5.99848H6.99946V7.00254H2.99634V8.00004H6.99946V8.99754H4.0004V10.0016H11.0026Z" fill="#000001"/>
<path id="Vector_32" d="M4.99774 3.99707H4.00024V5.00113H4.99774V3.99707Z" fill="#000001"/>
<path id="Vector_33" d="M4.0004 10.0017H2.99634V10.9992H4.0004V10.0017Z" fill="#000001"/>
<path id="Vector_34" d="M2.99628 10.999H1.99878V21.0003H2.99628V10.999Z" fill="#000001"/>
<path id="Vector_35" d="M2.99628 8H1.99878V8.9975H2.99628V8Z" fill="#000001"/>
</g>
</g>
</svg>
