<svg width="24" height="24" viewBox="0 0 24 24" fill="none" xmlns="http://www.w3.org/2000/svg">
<g id="notification-email">
<g id="Group">
<path id="Vector" d="M21.4962 2.50406H20.4987V1.5H17.4996V2.50406H16.5021V3.50156H15.498V6.50062H16.5021V7.50469H17.4996V8.50219H20.4987V7.50469H21.4962V6.50062H22.5002V3.50156H21.4962V2.50406ZM19.5012 7.50469H18.4971V6.50062H19.5012V7.50469ZM19.5012 5.50312H18.4971V2.50406H19.5012V5.50312Z" fill="#000001"/>
<path id="Vector_2" d="M20.4985 11.5012H19.501V21.5025H20.4985V11.5012Z" fill="#000001"/>
<path id="Vector_3" d="M19.501 21.5024H2.49756V22.4999H19.501V21.5024Z" fill="#000001"/>
<path id="Vector_4" d="M14.5005 12.5054V16.5019H18.4971V12.5054H14.5005ZM17.4996 15.5044H15.498V13.5029H17.4996V15.5044Z" fill="#000001"/>
<path id="Vector_5" d="M10.4971 19.501H3.50146V20.505H10.4971V19.501Z" fill="#000001"/>
<path id="Vector_6" d="M14.5002 4.50562H6.50049V5.50312H14.5002V4.50562Z" fill="#000001"/>
<path id="Vector_7" d="M15.4978 8.50224V7.50474H6.50059V5.50317H5.49652V7.50474H4.49902V8.50224H15.4978Z" fill="#000001"/>
<path id="Vector_8" d="M7.49803 16.502H3.50146V17.4995H7.49803V16.502Z" fill="#000001"/>
<path id="Vector_9" d="M19.501 11.5013V10.5038H18.4969V9.4997H17.4994V10.5038H4.49912V8.5022H3.50162V10.5038H2.49756V11.5013H19.501Z" fill="#000001"/>
<path id="Vector_10" d="M2.4975 11.5012H1.5V21.5025H2.4975V11.5012Z" fill="#000001"/>
</g>
</g>
</svg>
