<svg width="24" height="24" viewBox="0 0 24 24" fill="none" xmlns="http://www.w3.org/2000/svg">
<g id="pet-animals-rabbit-1">
<g id="Group">
<path id="Vector" d="M21.5026 2.50391V3.50141H18.5035V4.49891H17.4995V5.50297H16.502V7.50453H17.4995V10.5036H18.5035V7.50453H19.501V6.50047H21.5026V5.50297H22.5001V2.50391H21.5026Z" fill="#000001"/>
<path id="Vector_2" d="M21.5026 14.5005H20.4985V18.5036H21.5026V14.5005Z" fill="#000001"/>
<path id="Vector_3" d="M20.4985 18.5034H19.501V19.5009H20.4985V18.5034Z" fill="#000001"/>
<path id="Vector_4" d="M20.4985 12.4985H19.501V14.5001H20.4985V12.4985Z" fill="#000001"/>
<path id="Vector_5" d="M19.5009 19.501H18.5034V20.505H19.5009V19.501Z" fill="#000001"/>
<path id="Vector_6" d="M19.5009 10.5039H18.5034V12.4989H19.5009V10.5039Z" fill="#000001"/>
<path id="Vector_7" d="M21.5026 1.5H17.4995V2.50406H21.5026V1.5Z" fill="#000001"/>
<path id="Vector_8" d="M18.5035 20.5049H16.502V21.5024H18.5035V20.5049Z" fill="#000001"/>
<path id="Vector_9" d="M18.5035 14.5005H15.5044V15.5046H18.5035V14.5005Z" fill="#000001"/>
<path id="Vector_10" d="M17.4995 2.50391H16.502V3.50141H17.4995V2.50391Z" fill="#000001"/>
<path id="Vector_11" d="M17.4994 16.502H15.5044V17.4995H17.4994V16.502Z" fill="#000001"/>
<path id="Vector_12" d="M16.5019 11.5015H15.5044V12.499H16.5019V11.5015Z" fill="#000001"/>
<path id="Vector_13" d="M16.5019 3.50146H15.5044V4.49896H16.5019V3.50146Z" fill="#000001"/>
<path id="Vector_14" d="M16.5021 21.5024H7.50488V22.4999H16.5021V21.5024Z" fill="#000001"/>
<path id="Vector_15" d="M15.5046 4.49902H14.5005V7.50465H15.5046V4.49902Z" fill="#000001"/>
<path id="Vector_16" d="M10.5039 13.5029V14.5004H11.5014V15.5045H12.4989V14.5004H13.503V13.5029H10.5039Z" fill="#000001"/>
<path id="Vector_17" d="M14.5001 7.50488H9.49951V8.50238H14.5001V7.50488Z" fill="#000001"/>
<path id="Vector_18" d="M9.49945 4.49902H8.50195V7.50465H9.49945V4.49902Z" fill="#000001"/>
<path id="Vector_19" d="M8.50238 11.5015H7.50488V12.499H8.50238V11.5015Z" fill="#000001"/>
<path id="Vector_20" d="M8.50238 3.50146H7.50488V4.49896H8.50238V3.50146Z" fill="#000001"/>
<path id="Vector_21" d="M7.50449 20.5049H5.50293V21.5024H7.50449V20.5049Z" fill="#000001"/>
<path id="Vector_22" d="M8.50205 16.502H6.50049V17.4995H8.50205V16.502Z" fill="#000001"/>
<path id="Vector_23" d="M8.50199 14.5005H5.50293V15.5046H8.50199V14.5005Z" fill="#000001"/>
<path id="Vector_24" d="M7.50455 2.50391H6.50049V3.50141H7.50455V2.50391Z" fill="#000001"/>
<path id="Vector_25" d="M6.50062 7.50453H7.50469V5.50297H6.50062V4.49891H5.50312V3.50141H2.50406V2.50391H1.5V5.50297H2.50406V6.50047H4.49906V7.50453H5.50312V10.5036H6.50062V7.50453Z" fill="#000001"/>
<path id="Vector_26" d="M5.50309 19.501H4.49902V20.505H5.50309V19.501Z" fill="#000001"/>
<path id="Vector_27" d="M5.50309 10.5039H4.49902V12.4989H5.50309V10.5039Z" fill="#000001"/>
<path id="Vector_28" d="M4.49896 18.5034H3.50146V19.5009H4.49896V18.5034Z" fill="#000001"/>
<path id="Vector_29" d="M4.49896 12.4985H3.50146V14.5001H4.49896V12.4985Z" fill="#000001"/>
<path id="Vector_30" d="M6.50047 1.5H2.50391V2.50406H6.50047V1.5Z" fill="#000001"/>
<path id="Vector_31" d="M3.50141 14.5005H2.50391V18.5036H3.50141V14.5005Z" fill="#000001"/>
</g>
</g>
</svg>
