<svg width="24" height="24" viewBox="0 0 24 24" fill="none" xmlns="http://www.w3.org/2000/svg">
<g id="pet-animals-ox">
<g id="Group">
<path id="Vector" d="M22.4999 10.5039H21.5024V11.5014H22.4999V10.5039Z" fill="#000001"/>
<path id="Vector_2" d="M22.4999 4.49902H21.5024V7.50465H22.4999V4.49902Z" fill="#000001"/>
<path id="Vector_3" d="M21.5026 9.49951H20.4985V10.5036H21.5026V9.49951Z" fill="#000001"/>
<path id="Vector_4" d="M21.5026 7.50488H20.4985V8.50238H21.5026V7.50488Z" fill="#000001"/>
<path id="Vector_5" d="M21.5026 3.50146H20.4985V4.49896H21.5026V3.50146Z" fill="#000001"/>
<path id="Vector_6" d="M17.4995 11.5015V14.5005H18.5036V12.499H21.5026V11.5015H17.4995Z" fill="#000001"/>
<path id="Vector_7" d="M19.5009 3.50156H20.4984V2.50406H21.5025V1.5H18.5034V2.50406H19.5009V3.50156Z" fill="#000001"/>
<path id="Vector_8" d="M20.4984 8.50195H18.5034V9.49945H20.4984V8.50195Z" fill="#000001"/>
<path id="Vector_9" d="M19.5011 4.49902H18.5036V5.50309H17.4995V6.50059H19.5011V4.49902Z" fill="#000001"/>
<path id="Vector_10" d="M18.5036 2.50391H17.4995V4.49891H18.5036V2.50391Z" fill="#000001"/>
<path id="Vector_11" d="M17.4995 14.5005H16.502V17.4996H17.4995V14.5005Z" fill="#000001"/>
<path id="Vector_12" d="M17.4995 10.5039H16.502V11.5014H17.4995V10.5039Z" fill="#000001"/>
<path id="Vector_13" d="M17.4995 6.50049H16.502V7.50455H17.4995V6.50049Z" fill="#000001"/>
<path id="Vector_14" d="M15.5042 16.502H12.4986V17.4995H11.5011V16.502H8.50205V17.4995H7.50455V18.5035H6.50049V20.5051H7.50455V21.5026H8.50205V22.5001H15.5042V21.5026H16.5017V20.5051H17.4992V18.5035H16.5017V17.4995H15.5042V16.502ZM14.5002 19.501H13.5027V20.5051H10.5036V19.501H9.49955V18.5035H11.5011V19.501H12.4986V18.5035H14.5002V19.501Z" fill="#000001"/>
<path id="Vector_15" d="M15.5046 12.4985H14.5005V13.5026H15.5046V12.4985Z" fill="#000001"/>
<path id="Vector_16" d="M16.5021 5.50293H14.5005V6.50043H16.5021V5.50293Z" fill="#000001"/>
<path id="Vector_17" d="M14.5004 13.5029H13.5029V14.5004H14.5004V13.5029Z" fill="#000001"/>
<path id="Vector_18" d="M14.5001 4.49902H9.49951V5.50309H14.5001V4.49902Z" fill="#000001"/>
<path id="Vector_19" d="M10.5036 13.5029H9.49951V14.5004H10.5036V13.5029Z" fill="#000001"/>
<path id="Vector_20" d="M9.49945 12.4985H8.50195V13.5026H9.49945V12.4985Z" fill="#000001"/>
<path id="Vector_21" d="M9.49988 5.50293H7.50488V6.50043H9.49988V5.50293Z" fill="#000001"/>
<path id="Vector_22" d="M7.50455 14.5005H6.50049V17.4996H7.50455V14.5005Z" fill="#000001"/>
<path id="Vector_23" d="M7.50455 6.50049H6.50049V7.50455H7.50455V6.50049Z" fill="#000001"/>
<path id="Vector_24" d="M6.50047 11.5015H2.50391V12.499H5.50297V14.5005H6.50047V11.5015Z" fill="#000001"/>
<path id="Vector_25" d="M6.50043 2.50391H5.50293V4.49891H6.50043V2.50391Z" fill="#000001"/>
<path id="Vector_26" d="M5.50303 8.50195H3.50146V9.49945H5.50303V8.50195Z" fill="#000001"/>
<path id="Vector_27" d="M4.49902 6.50059H6.50059V5.50309H5.50309V4.49902H4.49902V6.50059Z" fill="#000001"/>
<path id="Vector_28" d="M4.49891 2.50406H5.50297V1.5H2.50391V2.50406H3.50141V3.50156H4.49891V2.50406Z" fill="#000001"/>
<path id="Vector_29" d="M3.50141 9.49951H2.50391V10.5036H3.50141V9.49951Z" fill="#000001"/>
<path id="Vector_30" d="M3.50141 7.50488H2.50391V8.50238H3.50141V7.50488Z" fill="#000001"/>
<path id="Vector_31" d="M3.50141 3.50146H2.50391V4.49896H3.50141V3.50146Z" fill="#000001"/>
<path id="Vector_32" d="M2.50406 10.5039H1.5V11.5014H2.50406V10.5039Z" fill="#000001"/>
<path id="Vector_33" d="M2.50406 4.49902H1.5V7.50465H2.50406V4.49902Z" fill="#000001"/>
</g>
</g>
</svg>
