<svg width="24" height="24" viewBox="0 0 24 24" fill="none" xmlns="http://www.w3.org/2000/svg">
<g id="pet-animals-cat">
<g id="Group">
<path id="Vector" d="M21.5025 10.0015H20.4984V13.0005H18.5034V14.0046H20.4984V15.0021H18.5034V15.9996H20.4984V17.0037H21.5025V15.9996H22.5V15.0021H21.5025V14.0046H22.5V13.0005H21.5025V10.0015Z" fill="#000001"/>
<path id="Vector_2" d="M20.4985 17.0039H19.501V18.0014H20.4985V17.0039Z" fill="#000001"/>
<path id="Vector_3" d="M20.4985 8H19.501V10.0016H20.4985V8Z" fill="#000001"/>
<path id="Vector_4" d="M19.5009 18.0015H18.5034V19.0055H19.5009V18.0015Z" fill="#000001"/>
<path id="Vector_5" d="M19.5009 6.00537H18.5034V8.00037H19.5009V6.00537Z" fill="#000001"/>
<path id="Vector_6" d="M18.5036 4.00342H17.4995V6.00498H18.5036V4.00342Z" fill="#000001"/>
<path id="Vector_7" d="M18.5035 19.0054H16.502V20.0029H18.5035V19.0054Z" fill="#000001"/>
<path id="Vector_8" d="M17.4995 16H16.502V17.0041H17.4995V16Z" fill="#000001"/>
<path id="Vector_9" d="M17.4995 14.0049H16.502V15.0024H17.4995V14.0049Z" fill="#000001"/>
<path id="Vector_10" d="M17.4995 2.99951H16.502V4.00357H17.4995V2.99951Z" fill="#000001"/>
<path id="Vector_11" d="M16.5019 4.00342H15.5044V5.00092H16.5019V4.00342Z" fill="#000001"/>
<path id="Vector_12" d="M16.5021 20.0029H7.50488V21.0004H16.5021V20.0029Z" fill="#000001"/>
<path id="Vector_13" d="M15.5046 7.00244H14.5005V9.004H15.5046V7.00244Z" fill="#000001"/>
<path id="Vector_14" d="M15.5046 5.00098H14.5005V6.00504H15.5046V5.00098Z" fill="#000001"/>
<path id="Vector_15" d="M14.5004 10.999H13.5029V12.0031H14.5004V10.999Z" fill="#000001"/>
<path id="Vector_16" d="M13.5026 16H12.4985V17.0041H13.5026V16Z" fill="#000001"/>
<path id="Vector_17" d="M9.49951 13.001V14.005H10.5036V15.0025H12.4986V14.005H13.5026V13.001H9.49951Z" fill="#000001"/>
<path id="Vector_18" d="M12.4989 17.0039H10.5039V18.0014H12.4989V17.0039Z" fill="#000001"/>
<path id="Vector_19" d="M11.5011 7.00287V9.00443H12.4986V7.00287H14.5001V6.00537H9.49951V7.00287H11.5011Z" fill="#000001"/>
<path id="Vector_20" d="M9.49945 10.999H8.50195V12.0031H9.49945V10.999Z" fill="#000001"/>
<path id="Vector_21" d="M9.49945 7.00244H8.50195V9.004H9.49945V7.00244Z" fill="#000001"/>
<path id="Vector_22" d="M9.49945 5.00098H8.50195V6.00504H9.49945V5.00098Z" fill="#000001"/>
<path id="Vector_23" d="M8.50238 4.00342H7.50488V5.00092H8.50238V4.00342Z" fill="#000001"/>
<path id="Vector_24" d="M7.50449 19.0054H5.50293V20.0029H7.50449V19.0054Z" fill="#000001"/>
<path id="Vector_25" d="M7.50455 16H6.50049V17.0041H7.50455V16Z" fill="#000001"/>
<path id="Vector_26" d="M7.50455 14.0049H6.50049V15.0024H7.50455V14.0049Z" fill="#000001"/>
<path id="Vector_27" d="M7.50455 2.99951H6.50049V4.00357H7.50455V2.99951Z" fill="#000001"/>
<path id="Vector_28" d="M6.50043 4.00342H5.50293V6.00498H6.50043V4.00342Z" fill="#000001"/>
<path id="Vector_29" d="M5.50309 18.0015H4.49902V19.0055H5.50309V18.0015Z" fill="#000001"/>
<path id="Vector_30" d="M5.50309 6.00537H4.49902V8.00037H5.50309V6.00537Z" fill="#000001"/>
<path id="Vector_31" d="M4.49896 17.0039H3.50146V18.0014H4.49896V17.0039Z" fill="#000001"/>
<path id="Vector_32" d="M5.50312 15.9996V15.0021H3.50156V14.0046H5.50312V13.0005H3.50156V10.0015H2.50406V13.0005H1.5V14.0046H2.50406V15.0021H1.5V15.9996H2.50406V17.0037H3.50156V15.9996H5.50312Z" fill="#000001"/>
<path id="Vector_33" d="M4.49896 8H3.50146V10.0016H4.49896V8Z" fill="#000001"/>
</g>
</g>
</svg>
