<svg width="24" height="24" viewBox="0 0 24 24" fill="none" xmlns="http://www.w3.org/2000/svg">
<g id="pet-animals-bear">
<g id="Group">
<path id="Vector" d="M22.4999 4.49902H21.5024V8.50215H22.4999V4.49902Z" fill="#000001"/>
<path id="Vector_2" d="M20.4985 11.501H19.501V15.4975H20.4985V11.501Z" fill="#000001"/>
<path id="Vector_3" d="M21.5025 8.50195H19.501V9.49945H21.5025V8.50195Z" fill="#000001"/>
<path id="Vector_4" d="M19.5009 15.4976H18.5034V17.4991H19.5009V15.4976Z" fill="#000001"/>
<path id="Vector_5" d="M19.5009 9.49951H18.5034V11.5011H19.5009V9.49951Z" fill="#000001"/>
<path id="Vector_6" d="M20.4984 5.49658H18.5034V7.49814H20.4984V5.49658Z" fill="#000001"/>
<path id="Vector_7" d="M21.5024 3.50146H17.4993V4.49896H21.5024V3.50146Z" fill="#000001"/>
<path id="Vector_8" d="M18.5033 17.4995H17.4993V18.497H18.5033V17.4995Z" fill="#000001"/>
<path id="Vector_9" d="M17.4994 18.4966H15.5044V19.5006H17.4994V18.4966Z" fill="#000001"/>
<path id="Vector_10" d="M17.4994 4.49902H15.5044V5.49652H17.4994V4.49902Z" fill="#000001"/>
<path id="Vector_11" d="M15.5043 8.50195H14.5002V9.49945H15.5043V8.50195Z" fill="#000001"/>
<path id="Vector_12" d="M15.5044 19.501H8.5022V20.4985H15.5044V19.501Z" fill="#000001"/>
<path id="Vector_13" d="M14.5004 13.4961H13.5029V14.5002H14.5004V13.4961Z" fill="#000001"/>
<path id="Vector_14" d="M9.49976 10.4971V11.5011H10.5038V12.4986H11.5013V13.4961H12.4988V12.4986H13.5029V11.5011H14.5004V10.4971H9.49976Z" fill="#000001"/>
<path id="Vector_15" d="M13.5028 14.5H11.5012V15.4975H13.5028V14.5Z" fill="#000001"/>
<path id="Vector_16" d="M15.5044 3.50146H8.5022V4.49896H15.5044V3.50146Z" fill="#000001"/>
<path id="Vector_17" d="M9.4997 8.50195H8.5022V9.49945H9.4997V8.50195Z" fill="#000001"/>
<path id="Vector_18" d="M8.5023 18.4966H6.50073V19.5006H8.5023V18.4966Z" fill="#000001"/>
<path id="Vector_19" d="M8.5023 4.49902H6.50073V5.49652H8.5023V4.49902Z" fill="#000001"/>
<path id="Vector_20" d="M6.50067 17.4995H5.50317V18.497H6.50067V17.4995Z" fill="#000001"/>
<path id="Vector_21" d="M5.50309 15.4976H4.49902V17.4991H5.50309V15.4976Z" fill="#000001"/>
<path id="Vector_22" d="M5.50309 9.49951H4.49902V11.5011H5.50309V9.49951Z" fill="#000001"/>
<path id="Vector_23" d="M4.49896 11.501H3.50146V15.4975H4.49896V11.501Z" fill="#000001"/>
<path id="Vector_24" d="M4.49915 8.50195H2.50415V9.49945H4.49915V8.50195Z" fill="#000001"/>
<path id="Vector_25" d="M5.50303 5.49658H3.50146V7.49814H5.50303V5.49658Z" fill="#000001"/>
<path id="Vector_26" d="M6.50071 3.50146H2.50415V4.49896H6.50071V3.50146Z" fill="#000001"/>
<path id="Vector_27" d="M2.50406 4.49902H1.5V8.50215H2.50406V4.49902Z" fill="#000001"/>
</g>
</g>
</svg>
