<svg width="24" height="24" viewBox="0 0 24 24" fill="none" xmlns="http://www.w3.org/2000/svg">
<g id="pet-animals-frog-face">
<g id="Group">
<path id="Vector" d="M22.4999 11.5015H21.5024V16.5021H22.4999V11.5015Z" fill="#000001"/>
<path id="Vector_2" d="M21.5026 16.502H20.4985V18.497H21.5026V16.502Z" fill="#000001"/>
<path id="Vector_3" d="M21.5026 10.4971H20.4985V11.5011H21.5026V10.4971Z" fill="#000001"/>
<path id="Vector_4" d="M21.5026 4.49902H20.4985V9.49965H21.5026V4.49902Z" fill="#000001"/>
<path id="Vector_5" d="M20.4985 18.4971H19.501V19.5011H20.4985V18.4971Z" fill="#000001"/>
<path id="Vector_6" d="M20.4985 9.49951H19.501V10.497H20.4985V9.49951Z" fill="#000001"/>
<path id="Vector_7" d="M20.4985 3.50146H19.501V4.49896H20.4985V3.50146Z" fill="#000001"/>
<path id="Vector_8" d="M19.5011 5.49652H18.5036V4.49902H15.5046V5.49652H14.5005V8.50215H15.5046V9.49965H18.5036V8.50215H19.5011V5.49652ZM17.4996 6.50059H16.5021V5.49652H17.4996V6.50059Z" fill="#000001"/>
<path id="Vector_9" d="M19.5011 19.501H17.4995V20.4985H19.5011V19.501Z" fill="#000001"/>
<path id="Vector_10" d="M17.4992 20.4985H6.50049V21.5026H17.4992V20.4985Z" fill="#000001"/>
<path id="Vector_11" d="M19.5011 2.49756H14.5005V3.50162H19.5011V2.49756Z" fill="#000001"/>
<path id="Vector_12" d="M14.5004 11.5015H13.5029V12.499H14.5004V11.5015Z" fill="#000001"/>
<path id="Vector_13" d="M14.5004 3.50146H13.5029V4.49896H14.5004V3.50146Z" fill="#000001"/>
<path id="Vector_14" d="M13.5026 9.49951H12.4985V10.497H13.5026V9.49951Z" fill="#000001"/>
<path id="Vector_15" d="M13.5026 4.49902H12.4985V6.50059H13.5026V4.49902Z" fill="#000001"/>
<path id="Vector_16" d="M13.503 12.499H11.5015V13.4965H13.503V12.499Z" fill="#000001"/>
<path id="Vector_17" d="M12.499 6.50049H11.5015V7.49799H12.499V6.50049Z" fill="#000001"/>
<path id="Vector_18" d="M11.5014 9.49951H10.5039V10.497H11.5014V9.49951Z" fill="#000001"/>
<path id="Vector_19" d="M11.5014 4.49902H10.5039V6.50059H11.5014V4.49902Z" fill="#000001"/>
<path id="Vector_20" d="M10.5036 3.50146H9.49951V4.49896H10.5036V3.50146Z" fill="#000001"/>
<path id="Vector_21" d="M8.50215 4.49902H5.50309V5.49652H4.49902V8.50215H5.50309V9.49965H8.50215V8.50215H9.49965V5.49652H8.50215V4.49902ZM7.50465 6.50059H6.50059V5.49652H7.50465V6.50059Z" fill="#000001"/>
<path id="Vector_22" d="M6.50059 19.501H4.49902V20.4985H6.50059V19.501Z" fill="#000001"/>
<path id="Vector_23" d="M9.49965 2.49756H4.49902V3.50162H9.49965V2.49756Z" fill="#000001"/>
<path id="Vector_24" d="M4.49896 18.4971H3.50146V19.5011H4.49896V18.4971Z" fill="#000001"/>
<path id="Vector_25" d="M4.49896 9.49951H3.50146V10.497H4.49896V9.49951Z" fill="#000001"/>
<path id="Vector_26" d="M4.49896 3.50146H3.50146V4.49896H4.49896V3.50146Z" fill="#000001"/>
<path id="Vector_27" d="M3.50141 16.502H2.50391V18.497H3.50141V16.502Z" fill="#000001"/>
<path id="Vector_28" d="M3.50141 10.4971H2.50391V11.5011H3.50141V10.4971Z" fill="#000001"/>
<path id="Vector_29" d="M3.50141 4.49902H2.50391V9.49965H3.50141V4.49902Z" fill="#000001"/>
<path id="Vector_30" d="M2.50406 11.5015H1.5V16.5021H2.50406V11.5015Z" fill="#000001"/>
</g>
</g>
</svg>
