<svg width="24" height="24" viewBox="0 0 24 24" fill="none" xmlns="http://www.w3.org/2000/svg">
<g id="pet-animals-turtle">
<g id="Group">
<path id="Vector" d="M22.4999 12.4985H21.5024V13.5026H22.4999V12.4985Z" fill="#000001"/>
<path id="Vector_2" d="M21.5026 13.5029H20.4985V14.5004H21.5026V13.5029Z" fill="#000001"/>
<path id="Vector_3" d="M20.4985 16.502H19.501V18.5035H20.4985V16.502Z" fill="#000001"/>
<path id="Vector_4" d="M20.4985 14.5005H19.501V15.5046H20.4985V14.5005Z" fill="#000001"/>
<path id="Vector_5" d="M19.5009 15.5044H18.5034V16.5019H19.5009V15.5044Z" fill="#000001"/>
<path id="Vector_6" d="M19.501 18.5034H16.502V19.5009H19.501V18.5034Z" fill="#000001"/>
<path id="Vector_7" d="M17.4995 5.50293H16.502V6.50043H17.4995V5.50293Z" fill="#000001"/>
<path id="Vector_8" d="M16.5019 17.4995H15.5044V18.5036H16.5019V17.4995Z" fill="#000001"/>
<path id="Vector_9" d="M15.5043 16.502H14.5002V17.4995H15.5043V16.502Z" fill="#000001"/>
<path id="Vector_10" d="M14.5004 15.5044H13.5029V16.5019H14.5004V15.5044Z" fill="#000001"/>
<path id="Vector_11" d="M16.5018 4.49902H11.5012V5.50309H16.5018V4.49902Z" fill="#000001"/>
<path id="Vector_12" d="M13.5028 16.502H11.5012V17.4995H13.5028V16.502Z" fill="#000001"/>
<path id="Vector_13" d="M11.5012 15.5044H10.5037V16.5019H11.5012V15.5044Z" fill="#000001"/>
<path id="Vector_14" d="M10.5038 16.502H9.49976V17.4995H10.5038V16.502Z" fill="#000001"/>
<path id="Vector_15" d="M9.49979 17.4995H6.50073V18.5036H9.49979V17.4995Z" fill="#000001"/>
<path id="Vector_16" d="M8.50214 14.5005H7.50464V15.5046H8.50214V14.5005Z" fill="#000001"/>
<path id="Vector_17" d="M8.50214 11.501H7.50464V12.4985H8.50214V11.501Z" fill="#000001"/>
<path id="Vector_18" d="M8.50214 9.49949V8.50199H9.49964V9.49949H10.5037V11.5011H9.49964V12.4986H8.50214V13.5026H9.49964V14.5001H18.5034V13.5026H19.5009V12.4986H21.5025V11.5011H20.4984V9.49949H19.5009V11.5011H18.5034V12.4986H17.4993V11.5011H16.5018V9.49949H17.4993V8.50199H18.5034V9.49949H19.5009V7.50449H18.5034V6.50043H17.4993V7.50449H16.5018V8.50199H12.4987V6.50043H11.5012V5.50293H9.49964V6.50043H8.50214V7.50449H7.50464V9.49949H8.50214ZM11.5012 12.4986H12.4987V11.5011H15.5043V12.4986H16.5018V13.5026H11.5012V12.4986Z" fill="#000001"/>
<path id="Vector_19" d="M7.50479 15.5044H6.50073V16.5019H7.50479V15.5044Z" fill="#000001"/>
<path id="Vector_20" d="M7.50479 13.5029H6.50073V14.5004H7.50479V13.5029Z" fill="#000001"/>
<path id="Vector_21" d="M7.50479 9.49951H6.50073V11.5011H7.50479V9.49951Z" fill="#000001"/>
<path id="Vector_22" d="M7.50479 6.50049H6.50073V7.50455H7.50479V6.50049Z" fill="#000001"/>
<path id="Vector_23" d="M6.50067 16.502H5.50317V17.4995H6.50067V16.502Z" fill="#000001"/>
<path id="Vector_24" d="M6.50067 12.4985H5.50317V13.5026H6.50067V12.4985Z" fill="#000001"/>
<path id="Vector_25" d="M5.50309 11.501H4.49902V12.4985H5.50309V11.501Z" fill="#000001"/>
<path id="Vector_26" d="M6.50053 5.50293H3.50146V6.50043H6.50053V5.50293Z" fill="#000001"/>
<path id="Vector_27" d="M4.49915 10.5039H2.50415V11.5014H4.49915V10.5039Z" fill="#000001"/>
<path id="Vector_28" d="M4.49896 8.50195H3.50146V9.49945H4.49896V8.50195Z" fill="#000001"/>
<path id="Vector_29" d="M3.50165 6.50049H2.50415V7.50455H3.50165V6.50049Z" fill="#000001"/>
<path id="Vector_30" d="M2.50406 7.50488H1.5V10.5039H2.50406V7.50488Z" fill="#000001"/>
</g>
</g>
</svg>
