<svg width="24" height="24" viewBox="0 0 24 24" fill="none" xmlns="http://www.w3.org/2000/svg">
<g id="pet-animals-rabbit-2">
<g id="Group">
<path id="Vector" d="M20.4985 14.5005H19.501V19.5011H20.4985V14.5005Z" fill="#000001"/>
<path id="Vector_2" d="M19.5012 19.501H18.5037V20.505H19.5012V19.501Z" fill="#000001"/>
<path id="Vector_3" d="M19.5012 12.4985H18.5037V14.5001H19.5012V12.4985Z" fill="#000001"/>
<path id="Vector_4" d="M18.5036 3.50146H17.4995V12.4987H18.5036V3.50146Z" fill="#000001"/>
<path id="Vector_5" d="M18.5035 20.5049H16.502V21.5024H18.5035V20.5049Z" fill="#000001"/>
<path id="Vector_6" d="M17.4995 2.50391H16.502V3.50141H17.4995V2.50391Z" fill="#000001"/>
<path id="Vector_7" d="M16.5021 1.5H14.5005V2.50406H16.5021V1.5Z" fill="#000001"/>
<path id="Vector_8" d="M16.5021 21.5024H7.50488V22.4999H16.5021V21.5024Z" fill="#000001"/>
<path id="Vector_9" d="M15.5046 13.5029H14.5005V14.5004H15.5046V13.5029Z" fill="#000001"/>
<path id="Vector_10" d="M16.5021 4.49902H14.5005V10.5037H16.5021V4.49902Z" fill="#000001"/>
<path id="Vector_11" d="M14.5004 16.502H13.5029V17.4995H14.5004V16.502Z" fill="#000001"/>
<path id="Vector_12" d="M14.5004 2.50391H13.5029V3.50141H14.5004V2.50391Z" fill="#000001"/>
<path id="Vector_13" d="M13.5028 3.50146H12.4988V11.5012H13.5028V3.50146Z" fill="#000001"/>
<path id="Vector_14" d="M13.503 17.4995H11.5015V18.5036H13.503V17.4995Z" fill="#000001"/>
<path id="Vector_15" d="M11.5014 16.5021H12.4989V15.5046H13.503V14.5005H10.5039V15.5046H11.5014V16.5021Z" fill="#000001"/>
<path id="Vector_16" d="M12.499 11.5015H11.5015V12.499H12.499V11.5015Z" fill="#000001"/>
<path id="Vector_17" d="M11.5014 3.50146H10.5039V11.5012H11.5014V3.50146Z" fill="#000001"/>
<path id="Vector_18" d="M10.5038 2.50391H9.49976V3.50141H10.5038V2.50391Z" fill="#000001"/>
<path id="Vector_19" d="M9.49994 13.5029H8.50244V14.5004H9.49994V13.5029Z" fill="#000001"/>
<path id="Vector_20" d="M9.49988 1.5H7.50488V2.50406H9.49988V1.5Z" fill="#000001"/>
<path id="Vector_21" d="M9.49988 4.49902H7.50488V10.5037H9.49988V4.49902Z" fill="#000001"/>
<path id="Vector_22" d="M7.50474 20.5049H5.50317V21.5024H7.50474V20.5049Z" fill="#000001"/>
<path id="Vector_23" d="M7.50479 2.50391H6.50073V3.50141H7.50479V2.50391Z" fill="#000001"/>
<path id="Vector_24" d="M6.50067 3.50146H5.50317V12.4987H6.50067V3.50146Z" fill="#000001"/>
<path id="Vector_25" d="M5.50333 19.501H4.49927V20.505H5.50333V19.501Z" fill="#000001"/>
<path id="Vector_26" d="M5.50333 12.4985H4.49927V14.5001H5.50333V12.4985Z" fill="#000001"/>
<path id="Vector_27" d="M4.49921 14.5005H3.50171V19.5011H4.49921V14.5005Z" fill="#000001"/>
</g>
</g>
</svg>
