<svg width="24" height="24" viewBox="0 0 24 24" fill="none" xmlns="http://www.w3.org/2000/svg">
<g id="pet-animals-buffalo">
<g id="Group">
<path id="Vector" d="M20.4985 12.4989V13.503H22.5001V10.5039H21.5026V12.4989H20.4985Z" fill="#000001"/>
<path id="Vector_2" d="M22.4999 2.50391H21.5024V7.50453H22.4999V2.50391Z" fill="#000001"/>
<path id="Vector_3" d="M21.5026 9.49951H20.4985V10.5036H21.5026V9.49951Z" fill="#000001"/>
<path id="Vector_4" d="M20.4985 15.5044H19.501V19.501H20.4985V15.5044Z" fill="#000001"/>
<path id="Vector_5" d="M19.501 8.50238H15.5044V9.49988H17.4994V14.5005H18.5035V12.4989H20.4985V11.5014H18.5035V9.49988H20.4985V8.50238H21.5025V7.50488H19.501V8.50238Z" fill="#000001"/>
<path id="Vector_6" d="M20.4984 2.50406H21.5025V1.5H18.5034V2.50406H19.5009V4.49906H20.4984V2.50406Z" fill="#000001"/>
<path id="Vector_7" d="M19.5009 14.5005H18.5034V15.5046H19.5009V14.5005Z" fill="#000001"/>
<path id="Vector_8" d="M19.5008 19.501H17.4993V20.505H19.5008V19.501Z" fill="#000001"/>
<path id="Vector_9" d="M19.5008 4.49902H17.4993V5.50309H19.5008V4.49902Z" fill="#000001"/>
<path id="Vector_10" d="M17.4994 20.5049H15.5044V21.5024H17.4994V20.5049Z" fill="#000001"/>
<path id="Vector_11" d="M17.4994 3.50146H15.5044V4.49896H17.4994V3.50146Z" fill="#000001"/>
<path id="Vector_12" d="M13.5029 11.5015V12.499H14.5004V13.503H15.5045V12.499H16.502V11.5015H13.5029Z" fill="#000001"/>
<path id="Vector_13" d="M15.5045 2.50391H13.5029V3.50141H15.5045V2.50391Z" fill="#000001"/>
<path id="Vector_14" d="M15.5044 21.5024H8.5022V22.4999H15.5044V21.5024Z" fill="#000001"/>
<path id="Vector_15" d="M8.5022 15.5044V18.5035H9.4997V16.5019H10.5038V18.5035H9.4997V19.501H14.5003V18.5035H13.5028V16.5019H14.5003V18.5035H15.5044V15.5044H8.5022Z" fill="#000001"/>
<path id="Vector_16" d="M15.5045 7.50488H13.5029V8.50238H15.5045V7.50488Z" fill="#000001"/>
<path id="Vector_17" d="M13.5028 6.50049H12.4988V7.50455H13.5028V6.50049Z" fill="#000001"/>
<path id="Vector_18" d="M13.5028 3.50146H12.4988V4.49896H13.5028V3.50146Z" fill="#000001"/>
<path id="Vector_19" d="M12.4987 4.49902H11.5012V6.50059H12.4987V4.49902Z" fill="#000001"/>
<path id="Vector_20" d="M11.5012 6.50049H10.5037V7.50455H11.5012V6.50049Z" fill="#000001"/>
<path id="Vector_21" d="M11.5012 3.50146H10.5037V4.49896H11.5012V3.50146Z" fill="#000001"/>
<path id="Vector_22" d="M10.5038 2.50391H8.5022V3.50141H10.5038V2.50391Z" fill="#000001"/>
<path id="Vector_23" d="M8.50214 13.503H9.49964V12.499H10.5037V11.5015H7.50464V12.499H8.50214V13.503Z" fill="#000001"/>
<path id="Vector_24" d="M10.5038 7.50488H8.5022V8.50238H10.5038V7.50488Z" fill="#000001"/>
<path id="Vector_25" d="M8.5023 20.5049H6.50073V21.5024H8.5023V20.5049Z" fill="#000001"/>
<path id="Vector_26" d="M8.5023 3.50146H6.50073V4.49896H8.5023V3.50146Z" fill="#000001"/>
<path id="Vector_27" d="M6.50059 19.501H4.49902V20.505H6.50059V19.501Z" fill="#000001"/>
<path id="Vector_28" d="M6.50071 9.49988H8.50228V8.50238H4.49915V7.50488H2.50415V8.50238H3.50165V9.49988H5.50321V11.5014H3.50165V12.4989H5.50321V14.5005H6.50071V9.49988Z" fill="#000001"/>
<path id="Vector_29" d="M5.50309 14.5005H4.49902V15.5046H5.50309V14.5005Z" fill="#000001"/>
<path id="Vector_30" d="M6.50059 4.49902H4.49902V5.50309H6.50059V4.49902Z" fill="#000001"/>
<path id="Vector_31" d="M4.49896 15.5044H3.50146V19.501H4.49896V15.5044Z" fill="#000001"/>
<path id="Vector_32" d="M3.50165 4.49906H4.49915V2.50406H5.50321V1.5H2.50415V2.50406H3.50165V4.49906Z" fill="#000001"/>
<path id="Vector_33" d="M3.50165 9.49951H2.50415V10.5036H3.50165V9.49951Z" fill="#000001"/>
<path id="Vector_34" d="M2.50406 10.5039H1.5V13.503H3.50156V12.4989H2.50406V10.5039Z" fill="#000001"/>
<path id="Vector_35" d="M2.50406 2.50391H1.5V7.50453H2.50406V2.50391Z" fill="#000001"/>
</g>
</g>
</svg>
