<svg width="24" height="24" viewBox="0 0 24 24" fill="none" xmlns="http://www.w3.org/2000/svg">
<g id="pet-animals-frog">
<g id="Group">
<path id="Vector" d="M22.4999 11.5015H21.5024V18.5037H22.4999V11.5015Z" fill="#000001"/>
<path id="Vector_2" d="M21.5026 18.5034H20.4985V19.5009H21.5026V18.5034Z" fill="#000001"/>
<path id="Vector_3" d="M21.5026 9.49951H20.4985V11.5011H21.5026V9.49951Z" fill="#000001"/>
<path id="Vector_4" d="M20.4985 19.501H19.501V20.505H20.4985V19.501Z" fill="#000001"/>
<path id="Vector_5" d="M20.4985 7.50488H19.501V9.49988H20.4985V7.50488Z" fill="#000001"/>
<path id="Vector_6" d="M19.5009 20.5049H18.5034V21.5024H19.5009V20.5049Z" fill="#000001"/>
<path id="Vector_7" d="M19.5009 6.50049H18.5034V7.50455H19.5009V6.50049Z" fill="#000001"/>
<path id="Vector_8" d="M18.5036 3.50146H17.4995V6.50053H18.5036V3.50146Z" fill="#000001"/>
<path id="Vector_9" d="M12.4986 21.5025V20.505H14.5002V19.501H11.5011V20.505H6.50049V21.5025H11.5011V22.5H18.5033V21.5025H12.4986Z" fill="#000001"/>
<path id="Vector_10" d="M17.4995 2.50391H16.502V3.50141H17.4995V2.50391Z" fill="#000001"/>
<path id="Vector_11" d="M16.5021 11.5015H14.5005V12.499H16.5021V11.5015Z" fill="#000001"/>
<path id="Vector_12" d="M15.5046 18.5034H14.5005V19.5009H15.5046V18.5034Z" fill="#000001"/>
<path id="Vector_13" d="M16.502 1.5H13.5029V2.50406H16.502V1.5Z" fill="#000001"/>
<path id="Vector_14" d="M14.5004 17.4995H13.5029V18.5036H14.5004V17.4995Z" fill="#000001"/>
<path id="Vector_15" d="M14.5004 12.4985H13.5029V13.5026H14.5004V12.4985Z" fill="#000001"/>
<path id="Vector_16" d="M15.5045 3.50146H13.5029V5.50303H15.5045V3.50146Z" fill="#000001"/>
<path id="Vector_17" d="M13.5026 13.5029H12.4985V17.4995H13.5026V13.5029Z" fill="#000001"/>
<path id="Vector_18" d="M13.5026 2.50391H12.4985V3.50141H13.5026V2.50391Z" fill="#000001"/>
<path id="Vector_19" d="M12.499 3.50146H11.5015V5.50303H12.499V3.50146Z" fill="#000001"/>
<path id="Vector_20" d="M11.5014 18.5034H10.5039V19.5009H11.5014V18.5034Z" fill="#000001"/>
<path id="Vector_21" d="M10.5036 15.5044H9.49951V18.5035H10.5036V15.5044Z" fill="#000001"/>
<path id="Vector_22" d="M11.5011 5.50293H9.49951V6.50043H11.5011V5.50293Z" fill="#000001"/>
<path id="Vector_23" d="M9.49945 14.5005H8.50195V15.5046H9.49945V14.5005Z" fill="#000001"/>
<path id="Vector_24" d="M9.49945 7.50488H8.50195V8.50238H9.49945V7.50488Z" fill="#000001"/>
<path id="Vector_25" d="M9.49945 3.50146H8.50195V5.50303H9.49945V3.50146Z" fill="#000001"/>
<path id="Vector_26" d="M8.50238 2.50391H7.50488V3.50141H8.50238V2.50391Z" fill="#000001"/>
<path id="Vector_27" d="M8.50199 8.50195H5.50293V9.49945H8.50199V8.50195Z" fill="#000001"/>
<path id="Vector_28" d="M6.50043 19.501H5.50293V20.505H6.50043V19.501Z" fill="#000001"/>
<path id="Vector_29" d="M7.50465 1.5H4.49902V2.50406H7.50465V1.5Z" fill="#000001"/>
<path id="Vector_30" d="M2.50406 21.5024V20.5049H1.5V22.4999H6.50062V21.5024H2.50406Z" fill="#000001"/>
<path id="Vector_31" d="M8.50209 13.5029H3.50146V14.5004H8.50209V13.5029Z" fill="#000001"/>
<path id="Vector_32" d="M6.50059 3.50146H4.49902V5.50303H6.50059V3.50146Z" fill="#000001"/>
<path id="Vector_33" d="M4.49891 19.5009H5.50297V18.5034H3.50141V19.5009H2.50391V20.505H4.49891V19.5009Z" fill="#000001"/>
<path id="Vector_34" d="M4.49896 6.50049H3.50146V8.50205H4.49896V6.50049Z" fill="#000001"/>
<path id="Vector_35" d="M4.49896 2.50391H3.50146V3.50141H4.49896V2.50391Z" fill="#000001"/>
<path id="Vector_36" d="M3.50141 17.4995H2.50391V18.5036H3.50141V17.4995Z" fill="#000001"/>
<path id="Vector_37" d="M3.50141 8.50195H2.50391V10.5035H3.50141V8.50195Z" fill="#000001"/>
<path id="Vector_38" d="M3.50141 3.50146H2.50391V6.50053H3.50141V3.50146Z" fill="#000001"/>
<path id="Vector_39" d="M3.50156 15.5045V14.5005H2.50406V10.5039H1.5V17.4995H2.50406V15.5045H3.50156Z" fill="#000001"/>
</g>
</g>
</svg>
