<svg width="24" height="24" viewBox="0 0 24 24" fill="none" xmlns="http://www.w3.org/2000/svg">
<g id="pet-animals-pig">
<g id="Group">
<path id="Vector" d="M22.4999 10.999H21.5024V14.9956H22.4999V10.999Z" fill="#000001"/>
<path id="Vector_2" d="M22.4999 3.99707H21.5024V8.0002H22.4999V3.99707Z" fill="#000001"/>
<path id="Vector_3" d="M21.5026 14.9956H20.4985V16.9972H21.5026V14.9956Z" fill="#000001"/>
<path id="Vector_4" d="M21.5026 8H20.4985V10.9991H21.5026V8Z" fill="#000001"/>
<path id="Vector_5" d="M20.4985 16.9976H19.501V17.9951H20.4985V16.9976Z" fill="#000001"/>
<path id="Vector_6" d="M20.4985 6.99609H19.501V8.00016H20.4985V6.99609Z" fill="#000001"/>
<path id="Vector_7" d="M19.5009 17.9946H18.5034V18.9987H19.5009V17.9946Z" fill="#000001"/>
<path id="Vector_8" d="M19.5009 5.99854H18.5034V6.99604H19.5009V5.99854Z" fill="#000001"/>
<path id="Vector_9" d="M21.5026 2.99951H16.502V3.99701H21.5026V2.99951Z" fill="#000001"/>
<path id="Vector_10" d="M18.5035 18.999H15.5044V19.9965H18.5035V18.999Z" fill="#000001"/>
<path id="Vector_11" d="M16.5019 3.99707H15.5044V4.99457H16.5019V3.99707Z" fill="#000001"/>
<path id="Vector_12" d="M15.5046 12H8.50238V12.9975H7.50488V16.0031H8.50238V17.0006H15.5046V16.0031H16.5021V12.9975H15.5046V12ZM11.5014 16.0031H9.49988V14.0016H11.5014V16.0031ZM14.5005 16.0031H12.4989V14.0016H14.5005V16.0031Z" fill="#000001"/>
<path id="Vector_13" d="M15.5041 19.9966H8.50195V21.0006H15.5041V19.9966Z" fill="#000001"/>
<path id="Vector_14" d="M14.5004 9.99512H13.5029V10.9992H14.5004V9.99512Z" fill="#000001"/>
<path id="Vector_15" d="M10.5036 9.99512H9.49951V10.9992H10.5036V9.99512Z" fill="#000001"/>
<path id="Vector_16" d="M15.5041 2.99951H8.50195V3.99701H15.5041V2.99951Z" fill="#000001"/>
<path id="Vector_17" d="M8.50199 18.999H5.50293V19.9965H8.50199V18.999Z" fill="#000001"/>
<path id="Vector_18" d="M8.50238 3.99707H7.50488V4.99457H8.50238V3.99707Z" fill="#000001"/>
<path id="Vector_19" d="M5.50309 17.9946H4.49902V18.9987H5.50309V17.9946Z" fill="#000001"/>
<path id="Vector_20" d="M5.50309 5.99854H4.49902V6.99604H5.50309V5.99854Z" fill="#000001"/>
<path id="Vector_21" d="M4.49896 16.9976H3.50146V17.9951H4.49896V16.9976Z" fill="#000001"/>
<path id="Vector_22" d="M4.49896 6.99609H3.50146V8.00016H4.49896V6.99609Z" fill="#000001"/>
<path id="Vector_23" d="M7.50453 2.99951H2.50391V3.99701H7.50453V2.99951Z" fill="#000001"/>
<path id="Vector_24" d="M3.50141 14.9956H2.50391V16.9972H3.50141V14.9956Z" fill="#000001"/>
<path id="Vector_25" d="M3.50141 8H2.50391V10.9991H3.50141V8Z" fill="#000001"/>
<path id="Vector_26" d="M2.50406 10.999H1.5V14.9956H2.50406V10.999Z" fill="#000001"/>
<path id="Vector_27" d="M2.50406 3.99707H1.5V8.0002H2.50406V3.99707Z" fill="#000001"/>
</g>
</g>
</svg>
