<svg width="24" height="24" viewBox="0 0 24 24" fill="none" xmlns="http://www.w3.org/2000/svg">
<g id="pet-animals-gorilla">
<g id="Group">
<path id="Vector" d="M21.4992 10.4971H20.4951V17.4993H21.4992V10.4971Z" fill="#000001"/>
<path id="Vector_2" d="M20.4955 17.4995H19.498V18.497H20.4955V17.4995Z" fill="#000001"/>
<path id="Vector_3" d="M20.4955 7.49805H19.498V10.4971H20.4955V7.49805Z" fill="#000001"/>
<path id="Vector_4" d="M19.498 18.4971H18.5005V19.5011H19.498V18.4971Z" fill="#000001"/>
<path id="Vector_5" d="M19.498 5.49658H18.5005V7.49814H19.498V5.49658Z" fill="#000001"/>
<path id="Vector_6" d="M18.5002 4.49902H17.4961V5.49652H18.5002V4.49902Z" fill="#000001"/>
<path id="Vector_7" d="M18.5006 19.501H16.499V20.4985H18.5006V19.501Z" fill="#000001"/>
<path id="Vector_8" d="M17.4965 7.49805H16.499V8.50211H17.4965V7.49805Z" fill="#000001"/>
<path id="Vector_9" d="M7.50162 16.5017H8.49912V17.4992H15.5013V16.5017H16.4988V14.5001H17.4963V10.497H16.4988V9.49951H7.50162V10.497H6.49756V14.5001H7.50162V16.5017ZM14.4972 10.497H15.5013V12.4986H14.4972V10.497ZM12.4957 13.4961H13.4997V14.5001H12.4957V13.4961ZM10.5007 13.4961H11.4982V14.5001H10.5007V13.4961ZM8.49912 10.497H9.49662V12.4986H8.49912V10.497Z" fill="#000001"/>
<path id="Vector_10" d="M16.4986 6.50049H13.4995V7.49799H16.4986V6.50049Z" fill="#000001"/>
<path id="Vector_11" d="M16.4987 20.4985H7.50146V21.5026H16.4987V20.4985Z" fill="#000001"/>
<path id="Vector_12" d="M17.4961 3.50146H14.4971V4.49896H17.4961V3.50146Z" fill="#000001"/>
<path id="Vector_13" d="M13.4996 7.49805H10.5005V8.50211H13.4996V7.49805Z" fill="#000001"/>
<path id="Vector_14" d="M14.4972 2.49756H9.49658V3.50162H14.4972V2.49756Z" fill="#000001"/>
<path id="Vector_15" d="M10.5005 6.50049H7.50146V7.49799H10.5005V6.50049Z" fill="#000001"/>
<path id="Vector_16" d="M9.49662 3.50146H6.49756V4.49896H9.49662V3.50146Z" fill="#000001"/>
<path id="Vector_17" d="M7.50156 19.501H5.5V20.4985H7.50156V19.501Z" fill="#000001"/>
<path id="Vector_18" d="M7.50162 7.49805H6.49756V8.50211H7.50162V7.49805Z" fill="#000001"/>
<path id="Vector_19" d="M6.4975 4.49902H5.5V5.49652H6.4975V4.49902Z" fill="#000001"/>
<path id="Vector_20" d="M5.50016 18.4971H4.49609V19.5011H5.50016V18.4971Z" fill="#000001"/>
<path id="Vector_21" d="M5.50016 5.49658H4.49609V7.49814H5.50016V5.49658Z" fill="#000001"/>
<path id="Vector_22" d="M4.49604 17.4995H3.49854V18.497H4.49604V17.4995Z" fill="#000001"/>
<path id="Vector_23" d="M4.49604 7.49805H3.49854V10.4971H4.49604V7.49805Z" fill="#000001"/>
<path id="Vector_24" d="M3.49848 10.4971H2.50098V17.4993H3.49848V10.4971Z" fill="#000001"/>
</g>
</g>
</svg>
