<svg width="24" height="24" viewBox="0 0 24 24" fill="none" xmlns="http://www.w3.org/2000/svg">
<g id="pet-animals-dog">
<g id="Group">
<path id="Vector" d="M21.496 14.5004H20.4985V15.5044H21.496V16.5019H22.5001V12.5054H21.496V14.5004Z" fill="#000001"/>
<path id="Vector_2" d="M21.496 16.502H20.4985V18.5035H21.496V16.502Z" fill="#000001"/>
<path id="Vector_3" d="M21.496 10.5039H20.4985V12.5055H21.496V10.5039Z" fill="#000001"/>
<path id="Vector_4" d="M20.4985 18.5034H19.501V19.5009H20.4985V18.5034Z" fill="#000001"/>
<path id="Vector_5" d="M20.4986 13.5029H18.4971V14.5004H20.4986V13.5029Z" fill="#000001"/>
<path id="Vector_6" d="M20.4985 3.50146H19.501V10.5037H20.4985V3.50146Z" fill="#000001"/>
<path id="Vector_7" d="M19.5011 19.501H18.4971V20.505H19.5011V19.501Z" fill="#000001"/>
<path id="Vector_8" d="M18.497 3.50156H19.5011V1.5H17.4995V2.50406H18.497V3.50156Z" fill="#000001"/>
<path id="Vector_9" d="M18.4971 12.5054H14.5005V13.5029H18.4971V12.5054Z" fill="#000001"/>
<path id="Vector_10" d="M18.4971 20.5049H15.498V21.5024H18.4971V20.5049Z" fill="#000001"/>
<path id="Vector_11" d="M18.4971 7.50492V4.50586H17.4996V5.50336H16.5021V6.50086H15.498V7.50492H18.4971Z" fill="#000001"/>
<path id="Vector_12" d="M17.4995 2.50391H16.502V3.50141H17.4995V2.50391Z" fill="#000001"/>
<path id="Vector_13" d="M16.5021 10.5039H15.498V11.5014H16.5021V10.5039Z" fill="#000001"/>
<path id="Vector_14" d="M16.5021 3.50146H15.498V4.50553H16.5021V3.50146Z" fill="#000001"/>
<path id="Vector_15" d="M15.498 4.50586H14.5005V5.50336H15.498V4.50586Z" fill="#000001"/>
<path id="Vector_16" d="M15.4978 21.5024H8.49561V22.4999H15.4978V21.5024Z" fill="#000001"/>
<path id="Vector_17" d="M14.5002 15.5044H13.4961V16.5019H14.5002V15.5044Z" fill="#000001"/>
<path id="Vector_18" d="M9.49951 11.5015V12.5055H10.497V13.503H11.5011V14.5005H12.4986V13.503H13.4961V12.5055H14.5001V11.5015H9.49951Z" fill="#000001"/>
<path id="Vector_19" d="M13.4965 16.502H11.5015V17.4995H13.4965V16.502Z" fill="#000001"/>
<path id="Vector_20" d="M14.5001 5.50293H9.49951V6.50043H14.5001V5.50293Z" fill="#000001"/>
<path id="Vector_21" d="M9.49967 4.50586H8.49561V5.50336H9.49967V4.50586Z" fill="#000001"/>
<path id="Vector_22" d="M8.49564 20.5049H5.49658V21.5024H8.49564V20.5049Z" fill="#000001"/>
<path id="Vector_23" d="M9.49971 12.5054H5.49658V13.5029H9.49971V12.5054Z" fill="#000001"/>
<path id="Vector_24" d="M8.49555 10.5039H7.49805V11.5014H8.49555V10.5039Z" fill="#000001"/>
<path id="Vector_25" d="M8.49555 3.50146H7.49805V4.50553H8.49555V3.50146Z" fill="#000001"/>
<path id="Vector_26" d="M8.49564 7.50492V6.50086H7.49814V5.50336H6.50064V4.50586H5.49658V7.50492H8.49564Z" fill="#000001"/>
<path id="Vector_27" d="M7.49799 2.50391H6.50049V3.50141H7.49799V2.50391Z" fill="#000001"/>
<path id="Vector_28" d="M5.49652 19.501H4.49902V20.505H5.49652V19.501Z" fill="#000001"/>
<path id="Vector_29" d="M5.49652 2.50406H6.50059V1.5H4.49902V3.50156H5.49652V2.50406Z" fill="#000001"/>
<path id="Vector_30" d="M4.49896 18.5034H3.50146V19.5009H4.49896V18.5034Z" fill="#000001"/>
<path id="Vector_31" d="M5.49646 13.5029H3.50146V14.5004H5.49646V13.5029Z" fill="#000001"/>
<path id="Vector_32" d="M4.49896 3.50146H3.50146V10.5037H4.49896V3.50146Z" fill="#000001"/>
<path id="Vector_33" d="M3.50162 16.502H2.49756V18.5035H3.50162V16.502Z" fill="#000001"/>
<path id="Vector_34" d="M3.50156 15.5044V14.5004H2.4975V12.5054H1.5V16.5019H2.4975V15.5044H3.50156Z" fill="#000001"/>
<path id="Vector_35" d="M3.50162 10.5039H2.49756V12.5055H3.50162V10.5039Z" fill="#000001"/>
</g>
</g>
</svg>
