<svg width="24" height="24" viewBox="0 0 24 24" fill="none" xmlns="http://www.w3.org/2000/svg">
<g id="phone-off-2">
<g id="Group">
<path id="Vector" d="M20.5017 13.4963H19.4977V15.4979H18.5002V16.4954H17.4961V17.4995H18.5002V18.497H19.4977V20.4985H20.5017V19.4945H21.4992V14.5004H20.5017V13.4963Z" fill="#000001"/>
<path id="Vector_2" d="M17.496 19.4943H16.4985V18.4968H15.501V19.4943H14.4969V20.4984H12.4954V21.4959H13.4994V22.5H18.5V21.4959H19.4975V20.4984H17.496V19.4943Z" fill="#000001"/>
<path id="Vector_3" d="M14.4969 14.5003H15.501V15.4978H16.4985V14.5003H17.496V13.4962H19.4975V12.4987H18.5V11.4946H13.4994V12.4987H12.4954V13.4962H14.4969V14.5003Z" fill="#000001"/>
<path id="Vector_4" d="M13.4996 18.497V17.4995H14.4971V16.4954H13.4996V15.4979H12.4955V13.4963H11.498V14.5004H10.5005V19.4945H11.498V20.4985H12.4955V18.497H13.4996Z" fill="#000001"/>
<path id="Vector_5" d="M11.498 3.49512H10.5005V7.49824H11.498V3.49512Z" fill="#000001"/>
<path id="Vector_6" d="M10.5003 7.49805H8.49878V8.49555H10.5003V7.49805Z" fill="#000001"/>
<path id="Vector_7" d="M10.5004 2.49756H9.49634V3.49506H10.5004V2.49756Z" fill="#000001"/>
<path id="Vector_8" d="M9.49628 14.5002H8.49878V15.4977H9.49628V14.5002Z" fill="#000001"/>
<path id="Vector_9" d="M9.49632 1.5H5.49976V2.4975H9.49632V1.5Z" fill="#000001"/>
<path id="Vector_10" d="M7.50146 19.4944H8.49896V18.4969H9.49646V16.4954H7.50146V19.4944Z" fill="#000001"/>
<path id="Vector_11" d="M8.49896 8.49561H7.50146V14.5003H8.49896V8.49561Z" fill="#000001"/>
<path id="Vector_12" d="M7.50146 3.49512V6.50074H9.49646V4.49918H8.49896V3.49512H7.50146Z" fill="#000001"/>
<path id="Vector_13" d="M9.49632 20.4985H5.49976V21.496H9.49632V20.4985Z" fill="#000001"/>
<path id="Vector_14" d="M5.49991 19.4944H4.49585V20.4984H5.49991V19.4944Z" fill="#000001"/>
<path id="Vector_15" d="M5.49991 2.49756H4.49585V3.49506H5.49991V2.49756Z" fill="#000001"/>
<path id="Vector_16" d="M4.49579 17.4993H3.49829V19.4943H4.49579V17.4993Z" fill="#000001"/>
<path id="Vector_17" d="M4.49579 3.49512H3.49829V5.49668H4.49579V3.49512Z" fill="#000001"/>
<path id="Vector_18" d="M3.49823 5.49658H2.50073V17.4994H3.49823V5.49658Z" fill="#000001"/>
</g>
</g>
</svg>
