<svg width="24" height="24" viewBox="0 0 24 24" fill="none" xmlns="http://www.w3.org/2000/svg">
<g id="phone-vibrate">
<g id="Group">
<path id="Vector" d="M22.0014 17.4993H20.9973V18.4968H22.0014V17.4993Z" fill="#000001"/>
<path id="Vector_2" d="M22.0014 13.4963H20.9973V14.5004H22.0014V13.4963Z" fill="#000001"/>
<path id="Vector_3" d="M22.0014 9.49976H20.9973V10.4973H22.0014V9.49976Z" fill="#000001"/>
<path id="Vector_4" d="M22.0014 5.49658H20.9973V6.50064H22.0014V5.49658Z" fill="#000001"/>
<path id="Vector_5" d="M20.9973 16.4954H19.9998V17.4994H20.9973V16.4954Z" fill="#000001"/>
<path id="Vector_6" d="M20.9973 14.5002H19.9998V15.4977H20.9973V14.5002Z" fill="#000001"/>
<path id="Vector_7" d="M20.9973 12.4988H19.9998V13.4963H20.9973V12.4988Z" fill="#000001"/>
<path id="Vector_8" d="M20.9973 10.4971H19.9998V11.4946H20.9973V10.4971Z" fill="#000001"/>
<path id="Vector_9" d="M20.9973 8.49561H19.9998V9.49967H20.9973V8.49561Z" fill="#000001"/>
<path id="Vector_10" d="M20.9973 6.50073H19.9998V7.49823H20.9973V6.50073Z" fill="#000001"/>
<path id="Vector_11" d="M19.9997 15.4978H18.9956V16.4953H19.9997V15.4978Z" fill="#000001"/>
<path id="Vector_12" d="M19.9997 11.4946H18.9956V12.4987H19.9997V11.4946Z" fill="#000001"/>
<path id="Vector_13" d="M19.9997 7.49805H18.9956V8.49555H19.9997V7.49805Z" fill="#000001"/>
<path id="Vector_14" d="M6.99942 22.5H17.0007V21.4959H17.9982V2.4975H17.0007V1.5H6.99942V2.4975H5.99536V21.4959H6.99942V22.5ZM12 2.4975H13.995V3.495H12V2.4975ZM9.99849 2.4975H10.996V3.495H9.99849V2.4975ZM6.99942 3.495H9.00099V4.49906H14.9991V3.495H17.0007V20.4984H6.99942V3.495Z" fill="#000001"/>
<path id="Vector_15" d="M15.9965 14.5002H14.999V15.4977H15.9965V14.5002Z" fill="#000001"/>
<path id="Vector_16" d="M14.9992 11.4946H13.9951V12.4987H14.9992V11.4946Z" fill="#000001"/>
<path id="Vector_17" d="M14.9992 9.49976H13.9951V10.4973H14.9992V9.49976Z" fill="#000001"/>
<path id="Vector_18" d="M14.9991 15.4978H12.9976V16.4953H14.9991V15.4978Z" fill="#000001"/>
<path id="Vector_19" d="M13.9951 10.4971H12.9976V11.4946H13.9951V10.4971Z" fill="#000001"/>
<path id="Vector_20" d="M12.9974 14.5002H10.9958V15.4977H12.9974V14.5002Z" fill="#000001"/>
<path id="Vector_21" d="M10.996 10.4971H9.99854V11.4946H10.996V10.4971Z" fill="#000001"/>
<path id="Vector_22" d="M10.996 15.4978H9.00098V16.4953H10.996V15.4978Z" fill="#000001"/>
<path id="Vector_23" d="M9.99848 11.4946H9.00098V12.4987H9.99848V11.4946Z" fill="#000001"/>
<path id="Vector_24" d="M9.99848 9.49976H9.00098V10.4973H9.99848V9.49976Z" fill="#000001"/>
<path id="Vector_25" d="M9.00089 14.5002H7.99683V15.4977H9.00089V14.5002Z" fill="#000001"/>
<path id="Vector_26" d="M4.99774 15.4978H4.00024V16.4953H4.99774V15.4978Z" fill="#000001"/>
<path id="Vector_27" d="M4.99774 11.4946H4.00024V12.4987H4.99774V11.4946Z" fill="#000001"/>
<path id="Vector_28" d="M4.99774 7.49805H4.00024V8.49555H4.99774V7.49805Z" fill="#000001"/>
<path id="Vector_29" d="M4.0004 16.4954H2.99634V17.4994H4.0004V16.4954Z" fill="#000001"/>
<path id="Vector_30" d="M4.0004 14.5002H2.99634V15.4977H4.0004V14.5002Z" fill="#000001"/>
<path id="Vector_31" d="M4.0004 12.4988H2.99634V13.4963H4.0004V12.4988Z" fill="#000001"/>
<path id="Vector_32" d="M4.0004 10.4971H2.99634V11.4946H4.0004V10.4971Z" fill="#000001"/>
<path id="Vector_33" d="M4.0004 8.49561H2.99634V9.49967H4.0004V8.49561Z" fill="#000001"/>
<path id="Vector_34" d="M4.0004 6.50073H2.99634V7.49823H4.0004V6.50073Z" fill="#000001"/>
<path id="Vector_35" d="M2.99628 17.4993H1.99878V18.4968H2.99628V17.4993Z" fill="#000001"/>
<path id="Vector_36" d="M2.99628 13.4963H1.99878V14.5004H2.99628V13.4963Z" fill="#000001"/>
<path id="Vector_37" d="M2.99628 9.49976H1.99878V10.4973H2.99628V9.49976Z" fill="#000001"/>
<path id="Vector_38" d="M2.99628 5.49658H1.99878V6.50064H2.99628V5.49658Z" fill="#000001"/>
</g>
</g>
</svg>
