<svg width="24" height="24" viewBox="0 0 24 24" fill="none" xmlns="http://www.w3.org/2000/svg">
<g id="phone-scan-qr-code-2">
<g id="Group">
<path id="Vector" d="M22.5 11.4946H19.501V12.4987H22.5V11.4946Z" fill="#000001"/>
<path id="Vector_2" d="M20.4985 16.4954H19.501V19.4944H20.4985V16.4954Z" fill="#000001"/>
<path id="Vector_3" d="M20.4985 4.49902H19.501V7.49809H20.4985V4.49902Z" fill="#000001"/>
<path id="Vector_4" d="M19.501 19.4944H16.502V20.4984H19.501V19.4944Z" fill="#000001"/>
<path id="Vector_5" d="M19.501 3.49512H16.502V4.49918H19.501V3.49512Z" fill="#000001"/>
<path id="Vector_6" d="M17.4993 14.5002H14.5002V17.4993H17.4993V14.5002ZM16.5018 16.4952H15.4977V15.4977H16.5018V16.4952Z" fill="#000001"/>
<path id="Vector_7" d="M17.4995 10.4971H16.502V13.4961H17.4995V10.4971Z" fill="#000001"/>
<path id="Vector_8" d="M14.5002 9.49979H17.4993V6.50073H14.5002V9.49979ZM15.4977 7.49823H16.5018V8.49573H15.4977V7.49823Z" fill="#000001"/>
<path id="Vector_9" d="M14.5003 12.4986H12.4988V13.4961H15.4978V10.4971H14.5003V12.4986Z" fill="#000001"/>
<path id="Vector_10" d="M13.4963 16.4954H12.4988V17.4994H13.4963V16.4954Z" fill="#000001"/>
<path id="Vector_11" d="M12.4987 19.4944H11.5012V22.5H12.4987V19.4944Z" fill="#000001"/>
<path id="Vector_12" d="M10.4971 14.5002V17.4993H11.5011V15.4977H13.4961V14.5002H10.4971Z" fill="#000001"/>
<path id="Vector_13" d="M10.4971 9.49967H12.4986V11.4947H13.4961V8.49561H10.4971V9.49967Z" fill="#000001"/>
<path id="Vector_14" d="M13.4961 6.50073H10.4971V7.49823H13.4961V6.50073Z" fill="#000001"/>
<path id="Vector_15" d="M12.4987 1.5H11.5012V4.49906H12.4987V1.5Z" fill="#000001"/>
<path id="Vector_16" d="M11.5011 10.4971H10.4971V13.4961H11.5011V10.4971Z" fill="#000001"/>
<path id="Vector_17" d="M9.4997 8.49561H8.5022V10.4972H9.4997V8.49561Z" fill="#000001"/>
<path id="Vector_18" d="M6.50073 14.5002V17.4993H9.49979V14.5002H6.50073ZM8.5023 16.4952H7.49823V15.4977H8.5023V16.4952Z" fill="#000001"/>
<path id="Vector_19" d="M7.49823 10.4971H6.50073V13.4961H7.49823V12.4986H9.49979V11.4946H7.49823V10.4971Z" fill="#000001"/>
<path id="Vector_20" d="M6.50073 6.50073V9.49979H7.49823V7.49823H9.49979V6.50073H6.50073Z" fill="#000001"/>
<path id="Vector_21" d="M7.49809 19.4944H4.49902V20.4984H7.49809V19.4944Z" fill="#000001"/>
<path id="Vector_22" d="M7.49809 3.49512H4.49902V4.49918H7.49809V3.49512Z" fill="#000001"/>
<path id="Vector_23" d="M4.49896 16.4954H3.50146V19.4944H4.49896V16.4954Z" fill="#000001"/>
<path id="Vector_24" d="M4.49906 11.4946H1.5V12.4987H4.49906V11.4946Z" fill="#000001"/>
<path id="Vector_25" d="M4.49896 4.49902H3.50146V7.49809H4.49896V4.49902Z" fill="#000001"/>
</g>
</g>
</svg>
