<svg width="24" height="24" viewBox="0 0 24 24" fill="none" xmlns="http://www.w3.org/2000/svg">
<g id="phone-signal-full">
<g id="Group">
<path id="Vector" d="M20.5016 4.00024H18.5V4.99774H19.4975V18.9956H18.5V19.9996H20.5016V18.9956H21.4991V4.99774H20.5016V4.00024Z" fill="#000001"/>
<path id="Vector_2" d="M18.5002 4.9978H17.5027V18.9956H18.5002V4.9978Z" fill="#000001"/>
<path id="Vector_3" d="M15.5011 6.99927H13.4995V7.99677H14.497V18.9955H13.4995V19.9996H15.5011V18.9955H16.4986V7.99677H15.5011V6.99927Z" fill="#000001"/>
<path id="Vector_4" d="M13.4995 7.99683H12.502V18.9956H13.4995V7.99683Z" fill="#000001"/>
<path id="Vector_5" d="M10.5003 9.99829H8.49878V10.9958H9.50284V18.9955H8.49878V19.9995H10.5003V18.9955H11.4978V10.9958H10.5003V9.99829Z" fill="#000001"/>
<path id="Vector_6" d="M8.49896 10.9958H7.50146V18.9955H8.49896V10.9958Z" fill="#000001"/>
<path id="Vector_7" d="M5.49985 12.9973H3.49829V13.9948H4.50235V18.9954H3.49829V19.9995H5.49985V18.9954H6.49735V13.9948H5.49985V12.9973Z" fill="#000001"/>
<path id="Vector_8" d="M3.49823 13.9949H2.50073V18.9955H3.49823V13.9949Z" fill="#000001"/>
</g>
</g>
</svg>
