<svg width="24" height="24" viewBox="0 0 24 24" fill="none" xmlns="http://www.w3.org/2000/svg">
<g id="phone-scan-qr-code-1">
<g id="Group">
<path id="Vector" d="M21.5026 17.5027H20.4985V20.5017H21.5026V17.5027Z" fill="#000001"/>
<path id="Vector_2" d="M21.5026 3.49829H20.4985V6.50392H21.5026V3.49829Z" fill="#000001"/>
<path id="Vector_3" d="M20.4986 2.50073H17.4995V3.49823H20.4986V2.50073Z" fill="#000001"/>
<path id="Vector_4" d="M20.4986 20.5017H17.4995V21.4992H20.4986V20.5017Z" fill="#000001"/>
<path id="Vector_5" d="M18.4969 5.50317H5.49658V18.5035H18.4969V5.50317ZM14.5003 10.5038H15.4978V13.5029H12.4988V12.5054H14.5003V10.5038ZM10.4972 6.50724H13.4963V7.50474H10.4972V6.50724ZM10.4972 8.50224H13.4963V11.5013H12.4988V9.5063H10.4972V8.50224ZM10.4972 10.5038H11.5013V13.5029H10.4972V10.5038ZM9.49971 17.506H6.50064V14.5069H9.49971V17.506ZM9.49971 12.5054H7.49814V13.5029H6.50064V10.5038H7.49814V11.5013H9.49971V12.5054ZM9.49971 10.5038H8.50221V8.50224H9.49971V10.5038ZM9.49971 7.50474H7.49814V9.5063H6.50064V6.50396H9.49971V7.50474ZM13.4963 17.506H12.4988V16.5019H13.4963V17.506ZM13.4963 15.5044H11.5013V17.506H10.4972V14.5069H13.4963V15.5044ZM17.4994 17.506H14.5003V14.5069H17.4994V17.506ZM17.4994 13.5029H16.5019V10.5038H17.4994V13.5029ZM17.4994 9.5063H14.5003V6.50396H17.4994V9.5063Z" fill="#000001"/>
<path id="Vector_6" d="M16.5019 15.501H15.4978V16.4985H16.5019V15.501Z" fill="#000001"/>
<path id="Vector_7" d="M16.5019 7.50146H15.4978V8.49896H16.5019V7.50146Z" fill="#000001"/>
<path id="Vector_8" d="M8.50235 15.501H7.49829V16.4985H8.50235V15.501Z" fill="#000001"/>
<path id="Vector_9" d="M6.50077 20.5017H3.50171V21.4992H6.50077V20.5017Z" fill="#000001"/>
<path id="Vector_10" d="M6.50077 2.50073H3.50171V3.49823H6.50077V2.50073Z" fill="#000001"/>
<path id="Vector_11" d="M3.50162 17.5027H2.49756V20.5017H3.50162V17.5027Z" fill="#000001"/>
<path id="Vector_12" d="M3.50162 3.49829H2.49756V6.50392H3.50162V3.49829Z" fill="#000001"/>
</g>
</g>
</svg>
