<svg width="24" height="24" viewBox="0 0 24 24" fill="none" xmlns="http://www.w3.org/2000/svg">
<g id="phone-actions-remove-1">
<g id="Group">
<path id="Vector" d="M22.4999 3.50146H21.5024V20.4983H22.4999V3.50146Z" fill="#000001"/>
<path id="Vector_2" d="M21.5026 20.4985H20.4985V21.496H21.5026V20.4985Z" fill="#000001"/>
<path id="Vector_3" d="M20.4983 21.4958H3.50146V22.4999H20.4983V21.4958Z" fill="#000001"/>
<path id="Vector_4" d="M15.4977 17.4993H8.50211V18.4968H7.49805V19.5008H15.4977V18.4968H16.5018V10.4971H15.4977V17.4993Z" fill="#000001"/>
<path id="Vector_5" d="M7.49823 5.49646H8.5023V6.50053H14.5004V5.49646H15.4979V3.50146H7.49823V4.49896H6.50073V13.4962H7.49823V5.49646ZM11.5014 4.49896H13.4964V5.49646H11.5014V4.49896ZM9.49979 4.49896H10.4973V5.49646H9.49979V4.49896Z" fill="#000001"/>
<path id="Vector_6" d="M4.49906 20.4984V19.5009H5.49656V18.4969H6.50062V17.4994H7.49813V16.4953H8.50219V15.4978H9.49969V14.5003H10.4972V13.4963H11.5012V12.4988H12.4988V11.5012H13.4963V10.4972H14.5003V9.49969H15.4978V8.49562H16.5019V7.49813H17.4994V6.50062H18.4969V5.49656H19.5009V4.49906H20.4984V3.50156H21.5025V2.4975H20.4984V1.5H3.50156V2.4975H19.5009V3.50156H18.4969V4.49906H17.4994V5.49656H16.5019V6.50062H15.4978V7.49813H14.5003V8.49562H13.4963V9.49969H12.4988V10.4972H11.5012V11.5012H10.4972V12.4988H9.49969V13.4963H8.50219V14.5003H7.49813V15.4978H6.50062V16.4953H5.49656V17.4994H4.49906V18.4969H3.50156V19.5009H2.4975V3.50156H1.5V20.4984H2.4975V21.4959H3.50156V20.4984H4.49906Z" fill="#000001"/>
<path id="Vector_7" d="M3.50162 2.49756H2.49756V3.50162H3.50162V2.49756Z" fill="#000001"/>
</g>
</g>
</svg>
