<svg width="24" height="24" viewBox="0 0 24 24" fill="none" xmlns="http://www.w3.org/2000/svg">
<g id="phone-incoming-call">
<g id="Group">
<path id="Vector" d="M21.5025 13.5028H15.4978V15.4978H16.5019V16.5018H21.5025V18.4968H22.5V11.5012H21.5025V13.5028Z" fill="#000001"/>
<path id="Vector_2" d="M21.5026 18.4968H20.4985V19.5009H21.5026V18.4968Z" fill="#000001"/>
<path id="Vector_3" d="M21.5026 10.4973H20.4985V11.5014H21.5026V10.4973Z" fill="#000001"/>
<path id="Vector_4" d="M20.4985 9.49976H19.501V10.4973H20.4985V9.49976Z" fill="#000001"/>
<path id="Vector_5" d="M19.5008 18.4968H18.4968V19.5009H17.4993V20.4984H20.4983V19.5009H19.5008V18.4968Z" fill="#000001"/>
<path id="Vector_6" d="M18.4968 17.4995H17.4993V18.497H18.4968V17.4995Z" fill="#000001"/>
<path id="Vector_7" d="M18.4968 2.49756H17.4993V3.50162H18.4968V2.49756Z" fill="#000001"/>
<path id="Vector_8" d="M17.4995 18.4968H16.502V19.5009H17.4995V18.4968Z" fill="#000001"/>
<path id="Vector_9" d="M17.4995 3.50171H16.502V4.49921H17.4995V3.50171Z" fill="#000001"/>
<path id="Vector_10" d="M17.4993 20.4985H14.5002V21.5026H17.4993V20.4985Z" fill="#000001"/>
<path id="Vector_11" d="M16.5019 4.49902H15.4978V5.50309H16.5019V4.49902Z" fill="#000001"/>
<path id="Vector_12" d="M15.4978 12.4988H8.5022V13.5028H15.4978V12.4988Z" fill="#000001"/>
<path id="Vector_13" d="M12.4987 2.49756H11.5012V5.50318H12.4987V2.49756Z" fill="#000001"/>
<path id="Vector_14" d="M8.50211 4.49902H7.49805V5.50309H8.50211V4.49902Z" fill="#000001"/>
<path id="Vector_15" d="M2.4975 13.5028V11.5012H1.5V15.4978H2.4975V16.5018H7.49813V15.4978H8.50219V13.5028H2.4975Z" fill="#000001"/>
<path id="Vector_16" d="M7.49823 3.50171H6.50073V4.49921H7.49823V3.50171Z" fill="#000001"/>
<path id="Vector_17" d="M19.5009 8.5022H4.49902V9.4997H19.5009V8.5022Z" fill="#000001"/>
<path id="Vector_18" d="M6.50064 2.49756H5.49658V3.50162H6.50064V2.49756Z" fill="#000001"/>
<path id="Vector_19" d="M4.49896 9.49976H3.50146V10.4973H4.49896V9.49976Z" fill="#000001"/>
<path id="Vector_20" d="M3.50162 10.4973H2.49756V11.5014H3.50162V10.4973Z" fill="#000001"/>
</g>
</g>
</svg>
