<svg width="24" height="24" viewBox="0 0 24 24" fill="none" xmlns="http://www.w3.org/2000/svg">
<g id="phone-off-1">
<g id="Group">
<path id="Vector" d="M22.4999 3.50146H21.5024V20.4983H22.4999V3.50146Z" fill="#000001"/>
<path id="Vector_2" d="M21.5026 20.4985H20.4985V21.496H21.5026V20.4985Z" fill="#000001"/>
<path id="Vector_3" d="M20.4985 14.5002H19.501V17.4993H20.4985V14.5002Z" fill="#000001"/>
<path id="Vector_4" d="M20.4983 21.4958H3.50146V22.4999H20.4983V21.4958Z" fill="#000001"/>
<path id="Vector_5" d="M19.5009 13.4963H18.4968V14.5004H19.5009V13.4963Z" fill="#000001"/>
<path id="Vector_6" d="M18.4968 15.4978H17.4993V17.4994H18.4968V15.4978Z" fill="#000001"/>
<path id="Vector_7" d="M18.4968 12.4988H17.4993V13.4963H18.4968V12.4988Z" fill="#000001"/>
<path id="Vector_8" d="M17.4995 14.5002H16.502V15.4977H17.4995V14.5002Z" fill="#000001"/>
<path id="Vector_9" d="M17.4994 11.5012H15.4978V12.4987H17.4994V11.5012Z" fill="#000001"/>
<path id="Vector_10" d="M16.5019 16.4954H15.4978V17.4994H16.5019V16.4954Z" fill="#000001"/>
<path id="Vector_11" d="M16.5018 13.4963H14.5002V14.5004H16.5018V13.4963Z" fill="#000001"/>
<path id="Vector_12" d="M15.4977 15.4978H14.5002V16.4953H15.4977V15.4978Z" fill="#000001"/>
<path id="Vector_13" d="M13.4963 14.5002H12.4988V18.4968H13.4963V14.5002Z" fill="#000001"/>
<path id="Vector_14" d="M13.4963 5.49658H12.4988V8.49564H13.4963V5.49658Z" fill="#000001"/>
<path id="Vector_15" d="M12.4987 18.4968H11.5012V19.5009H12.4987V18.4968Z" fill="#000001"/>
<path id="Vector_16" d="M12.4987 13.4963H11.5012V14.5004H12.4987V13.4963Z" fill="#000001"/>
<path id="Vector_17" d="M12.4987 4.49902H11.5012V5.49652H12.4987V4.49902Z" fill="#000001"/>
<path id="Vector_18" d="M11.5013 9.49976H9.49976V10.4973H11.5013V9.49976Z" fill="#000001"/>
<path id="Vector_19" d="M11.5012 19.501H7.49805V20.4985H11.5012V19.501Z" fill="#000001"/>
<path id="Vector_20" d="M9.49976 18.4969H10.4973V17.4994H11.5013V15.4978H9.49976V18.4969Z" fill="#000001"/>
<path id="Vector_21" d="M10.4973 5.49658H9.49976V8.49564H11.5013V6.50064H10.4973V5.49658Z" fill="#000001"/>
<path id="Vector_22" d="M9.4997 10.4971H8.5022V12.4986H9.4997V10.4971Z" fill="#000001"/>
<path id="Vector_23" d="M11.5012 3.50146H7.49805V4.49896H11.5012V3.50146Z" fill="#000001"/>
<path id="Vector_24" d="M7.49823 18.4968H6.50073V19.5009H7.49823V18.4968Z" fill="#000001"/>
<path id="Vector_25" d="M7.49823 4.49902H6.50073V5.49652H7.49823V4.49902Z" fill="#000001"/>
<path id="Vector_26" d="M6.50064 5.49658H5.49658V7.49814H6.50064V5.49658Z" fill="#000001"/>
<path id="Vector_27" d="M5.49652 7.49805H4.49902V16.4952H5.49652V7.49805Z" fill="#000001"/>
<path id="Vector_28" d="M4.49906 20.4984V19.5009H5.49656V18.4969H6.50062V17.4994H7.49813V16.4953H8.50219V15.4978H9.49969V14.5003H10.4972V13.4963H11.5012V12.4988H12.4988V11.5012H13.4963V10.4972H14.5003V9.49969H15.4978V8.49562H16.5019V7.49813H17.4994V6.50062H18.4969V5.49656H19.5009V4.49906H20.4984V3.50156H21.5025V2.4975H20.4984V1.5H3.50156V2.4975H19.5009V3.50156H18.4969V4.49906H17.4994V5.49656H16.5019V6.50062H15.4978V7.49813H14.5003V8.49562H13.4963V9.49969H12.4988V10.4972H11.5012V11.5012H10.4972V12.4988H9.49969V13.4963H8.50219V14.5003H7.49813V15.4978H6.50062V16.4953H5.49656V17.4994H4.49906V18.4969H3.50156V19.5009H2.4975V3.50156H1.5V20.4984H2.4975V21.4959H3.50156V20.4984H4.49906Z" fill="#000001"/>
<path id="Vector_29" d="M3.50162 2.49756H2.49756V3.50162H3.50162V2.49756Z" fill="#000001"/>
</g>
</g>
</svg>
