<svg width="24" height="24" viewBox="0 0 24 24" fill="none" xmlns="http://www.w3.org/2000/svg">
<g id="phone-actions-remove-2">
<g id="Group">
<path id="Vector" d="M21.5025 14.5004V13.4963H20.4984V15.4979H19.5009V16.4954H18.4968V17.4995H19.5009V18.497H20.4984V20.4985H21.5025V19.4945H22.5V14.5004H21.5025Z" fill="#000001"/>
<path id="Vector_2" d="M18.497 19.4943H17.4995V18.4968H16.502V19.4943H15.4979V20.4984H13.4963V21.4959H14.5004V22.5H19.501V21.4959H20.4985V20.4984H18.497V19.4943Z" fill="#000001"/>
<path id="Vector_3" d="M15.4979 14.5003H16.502V15.4978H17.4995V14.5003H18.497V13.4962H20.4985V12.4987H19.501V11.4946H14.5004V12.4987H13.4963V13.4962H15.4979V14.5003Z" fill="#000001"/>
<path id="Vector_4" d="M14.5003 18.497V17.4995H15.4978V16.4954H14.5003V15.4979H13.4962V13.4963H12.4987V14.5004H11.5012V19.4945H12.4987V20.4985H13.4962V18.497H14.5003Z" fill="#000001"/>
<path id="Vector_5" d="M12.4986 8.49561H10.4971V9.49967H12.4986V8.49561Z" fill="#000001"/>
<path id="Vector_6" d="M12.4988 22.5V21.4959H11.5012V20.4984H2.4975V3.495H5.49656V4.49906H11.5012V3.495H14.5003V10.4972H15.4978V2.4975H14.5003V1.5H2.4975V2.4975H1.5V21.4959H2.4975V22.5H12.4988ZM8.50219 2.4975H10.4972V3.495H8.50219V2.4975ZM6.50062 2.4975H7.49813V3.495H6.50062V2.4975Z" fill="#000001"/>
<path id="Vector_7" d="M11.5013 12.4988H5.49658V13.4963H11.5013V12.4988Z" fill="#000001"/>
<path id="Vector_8" d="M6.50059 8.49561H4.49902V9.49967H6.50059V8.49561Z" fill="#000001"/>
</g>
</g>
</svg>
