<svg width="24" height="24" viewBox="0 0 24 24" fill="none" xmlns="http://www.w3.org/2000/svg">
<g id="photography-light-mode-flash-on">
<g id="Group">
<path id="Vector" d="M22.4999 9.49976H21.5024V14.5004H22.4999V9.49976Z" fill="#000001"/>
<path id="Vector_2" d="M21.5024 14.5002H20.5049V16.5018H21.5024V14.5002Z" fill="#000001"/>
<path id="Vector_3" d="M21.5024 7.50464H20.5049V9.49964H21.5024V7.50464Z" fill="#000001"/>
<path id="Vector_4" d="M20.505 16.502H19.501V18.5035H20.505V16.502Z" fill="#000001"/>
<path id="Vector_5" d="M20.505 5.50317H19.501V7.50474H20.505V5.50317Z" fill="#000001"/>
<path id="Vector_6" d="M19.5009 18.5034H18.5034V19.5009H19.5009V18.5034Z" fill="#000001"/>
<path id="Vector_7" d="M19.5009 4.50562H18.5034V5.50312H19.5009V4.50562Z" fill="#000001"/>
<path id="Vector_8" d="M18.5035 19.501H16.502V20.505H18.5035V19.501Z" fill="#000001"/>
<path id="Vector_9" d="M18.5035 3.50146H16.502V4.50553H18.5035V3.50146Z" fill="#000001"/>
<path id="Vector_10" d="M16.5021 20.5049H14.5005V21.5024H16.5021V20.5049Z" fill="#000001"/>
<path id="Vector_11" d="M16.5021 2.50415H14.5005V3.50165H16.5021V2.50415Z" fill="#000001"/>
<path id="Vector_12" d="M11.5011 5.50317V6.50067H10.5036V7.50474H9.50611V8.50224H8.50205V9.49974H7.50455V10.5038H6.50049V12.5054H7.50455V13.5029H10.5036V14.5004H9.50611V16.5019H8.50205V18.5035H10.5036V17.4994H11.5011V16.5019H12.5052V15.5044H13.5027V14.5004H14.5002V13.5029H15.5042V11.5013H14.5002V10.5038H12.5052V9.49974H13.5027V8.50224H14.5002V7.50474H15.5042V5.50317H11.5011Z" fill="#000001"/>
<path id="Vector_13" d="M14.5004 21.5024H9.50635V22.4999H14.5004V21.5024Z" fill="#000001"/>
<path id="Vector_14" d="M14.5004 1.5H9.50635V2.50406H14.5004V1.5Z" fill="#000001"/>
<path id="Vector_15" d="M9.50645 20.5049H7.50488V21.5024H9.50645V20.5049Z" fill="#000001"/>
<path id="Vector_16" d="M9.50645 2.50415H7.50488V3.50165H9.50645V2.50415Z" fill="#000001"/>
<path id="Vector_17" d="M7.50449 19.501H5.50293V20.505H7.50449V19.501Z" fill="#000001"/>
<path id="Vector_18" d="M7.50449 3.50146H5.50293V4.50553H7.50449V3.50146Z" fill="#000001"/>
<path id="Vector_19" d="M5.50336 18.5034H4.50586V19.5009H5.50336V18.5034Z" fill="#000001"/>
<path id="Vector_20" d="M5.50336 4.50562H4.50586V5.50312H5.50336V4.50562Z" fill="#000001"/>
<path id="Vector_21" d="M4.50553 16.502H3.50146V18.5035H4.50553V16.502Z" fill="#000001"/>
<path id="Vector_22" d="M4.50553 5.50317H3.50146V7.50474H4.50553V5.50317Z" fill="#000001"/>
<path id="Vector_23" d="M3.50141 14.5002H2.50391V16.5018H3.50141V14.5002Z" fill="#000001"/>
<path id="Vector_24" d="M3.50141 7.50464H2.50391V9.49964H3.50141V7.50464Z" fill="#000001"/>
<path id="Vector_25" d="M2.50406 9.49976H1.5V14.5004H2.50406V9.49976Z" fill="#000001"/>
</g>
</g>
</svg>
