<svg width="24" height="24" viewBox="0 0 24 24" fill="none" xmlns="http://www.w3.org/2000/svg">
<g id="photography-taking-pictures-circle-alternate">
<g id="Group">
<path id="Vector" d="M22.4999 9.49976H21.5024V14.5004H22.4999V9.49976Z" fill="#000001"/>
<path id="Vector_2" d="M21.5024 14.5002H20.5049V16.5018H21.5024V14.5002Z" fill="#000001"/>
<path id="Vector_3" d="M21.5024 7.50464H20.5049V9.49964H21.5024V7.50464Z" fill="#000001"/>
<path id="Vector_4" d="M20.505 16.502H19.501V18.5035H20.505V16.502Z" fill="#000001"/>
<path id="Vector_5" d="M20.505 5.50317H19.501V7.50474H20.505V5.50317Z" fill="#000001"/>
<path id="Vector_6" d="M19.5009 18.5034H18.5034V19.5009H19.5009V18.5034Z" fill="#000001"/>
<path id="Vector_7" d="M19.5009 4.50562H18.5034V5.50312H19.5009V4.50562Z" fill="#000001"/>
<path id="Vector_8" d="M18.5034 9.49976H17.5059V16.5019H18.5034V9.49976Z" fill="#000001"/>
<path id="Vector_9" d="M18.5035 19.501H16.502V20.505H18.5035V19.501Z" fill="#000001"/>
<path id="Vector_10" d="M18.5035 3.50146H16.502V4.50553H18.5035V3.50146Z" fill="#000001"/>
<path id="Vector_11" d="M17.5058 16.502H6.50049V17.4995H17.5058V16.502Z" fill="#000001"/>
<path id="Vector_12" d="M16.5019 10.5037H15.5044V11.5012H16.5019V10.5037Z" fill="#000001"/>
<path id="Vector_13" d="M16.5021 20.5049H14.5005V21.5024H16.5021V20.5049Z" fill="#000001"/>
<path id="Vector_14" d="M17.5061 8.5022H14.5005V9.4997H17.5061V8.5022Z" fill="#000001"/>
<path id="Vector_15" d="M16.5021 2.50415H14.5005V3.50165H16.5021V2.50415Z" fill="#000001"/>
<path id="Vector_16" d="M13.5029 13.5027H12.5054V12.5052H11.5013V11.5012H13.5029V10.5037H10.5038V11.5012H9.50635V14.5002H10.5038V15.5043H13.5029V14.5002H14.5004V11.5012H13.5029V13.5027Z" fill="#000001"/>
<path id="Vector_17" d="M14.5004 7.50464H13.5029V8.50214H14.5004V7.50464Z" fill="#000001"/>
<path id="Vector_18" d="M14.5004 21.5024H9.50635V22.4999H14.5004V21.5024Z" fill="#000001"/>
<path id="Vector_19" d="M13.503 6.50073H10.5039V7.50479H13.503V6.50073Z" fill="#000001"/>
<path id="Vector_20" d="M14.5004 1.5H9.50635V2.50406H14.5004V1.5Z" fill="#000001"/>
<path id="Vector_21" d="M10.5038 7.50464H9.50635V8.50214H10.5038V7.50464Z" fill="#000001"/>
<path id="Vector_22" d="M9.50645 20.5049H7.50488V21.5024H9.50645V20.5049Z" fill="#000001"/>
<path id="Vector_23" d="M9.50645 2.50415H7.50488V3.50165H9.50645V2.50415Z" fill="#000001"/>
<path id="Vector_24" d="M9.50611 8.5022H6.50049V9.4997H9.50611V8.5022Z" fill="#000001"/>
<path id="Vector_25" d="M7.50449 19.501H5.50293V20.505H7.50449V19.501Z" fill="#000001"/>
<path id="Vector_26" d="M7.50449 3.50146H5.50293V4.50553H7.50449V3.50146Z" fill="#000001"/>
<path id="Vector_27" d="M6.50043 9.49976H5.50293V16.5019H6.50043V9.49976Z" fill="#000001"/>
<path id="Vector_28" d="M5.50336 18.5034H4.50586V19.5009H5.50336V18.5034Z" fill="#000001"/>
<path id="Vector_29" d="M5.50336 4.50562H4.50586V5.50312H5.50336V4.50562Z" fill="#000001"/>
<path id="Vector_30" d="M4.50553 16.502H3.50146V18.5035H4.50553V16.502Z" fill="#000001"/>
<path id="Vector_31" d="M4.50553 5.50317H3.50146V7.50474H4.50553V5.50317Z" fill="#000001"/>
<path id="Vector_32" d="M3.50141 14.5002H2.50391V16.5018H3.50141V14.5002Z" fill="#000001"/>
<path id="Vector_33" d="M3.50141 7.50464H2.50391V9.49964H3.50141V7.50464Z" fill="#000001"/>
<path id="Vector_34" d="M2.50406 9.49976H1.5V14.5004H2.50406V9.49976Z" fill="#000001"/>
</g>
</g>
</svg>
