<svg width="24" height="24" viewBox="0 0 24 24" fill="none" xmlns="http://www.w3.org/2000/svg">
<g id="photography-photo-image">
<g id="Group">
<path id="Vector" d="M21.5026 12.4988H20.4985V13.4963H21.5026V18.4969H22.5001V5.49658H21.5026V12.4988Z" fill="#000001"/>
<path id="Vector_2" d="M21.5026 18.4968H20.4985V19.5009H21.5026V18.4968Z" fill="#000001"/>
<path id="Vector_3" d="M21.5026 4.49902H20.4985V5.49652H21.5026V4.49902Z" fill="#000001"/>
<path id="Vector_4" d="M20.4985 9.49951H19.501V10.497H20.4985V9.49951Z" fill="#000001"/>
<path id="Vector_5" d="M10.5037 19.5009V18.4968H8.50209V19.5009H3.50146V20.4984H20.4983V19.5009H10.5037Z" fill="#000001"/>
<path id="Vector_6" d="M18.5037 12.4987H17.4996V11.5012H14.5005V12.4987H13.503V13.4962H11.5015V14.5003H13.503V15.4978H14.5005V16.4953H16.5021V15.4978H18.5037V14.5003H20.4987V13.4962H18.5037V12.4987Z" fill="#000001"/>
<path id="Vector_7" d="M19.5009 10.4971H18.5034V11.5011H19.5009V10.4971Z" fill="#000001"/>
<path id="Vector_8" d="M16.5019 8.49561H15.5044V10.4972H16.5019V8.49561Z" fill="#000001"/>
<path id="Vector_9" d="M14.5001 16.4951H12.4985V17.4992H14.5001V16.4951Z" fill="#000001"/>
<path id="Vector_10" d="M13.5026 10.4971H12.4985V11.5011H13.5026V10.4971Z" fill="#000001"/>
<path id="Vector_11" d="M12.499 9.49951H11.5015V10.497H12.499V9.49951Z" fill="#000001"/>
<path id="Vector_12" d="M12.4989 17.4993H10.5039V18.4968H12.4989V17.4993Z" fill="#000001"/>
<path id="Vector_13" d="M11.5011 12.4985H9.49951V13.496H11.5011V12.4985Z" fill="#000001"/>
<path id="Vector_14" d="M9.49955 11.5012H6.50049V12.4987H9.49955V11.5012Z" fill="#000001"/>
<path id="Vector_15" d="M6.50059 12.4985H4.49902V13.496H6.50059V12.4985Z" fill="#000001"/>
<path id="Vector_16" d="M20.4983 3.50146H3.50146V4.49896H20.4983V3.50146Z" fill="#000001"/>
<path id="Vector_17" d="M4.49896 13.4961H3.50146V14.5002H4.49896V13.4961Z" fill="#000001"/>
<path id="Vector_18" d="M3.50141 18.4968H2.50391V19.5009H3.50141V18.4968Z" fill="#000001"/>
<path id="Vector_19" d="M3.50141 4.49902H2.50391V5.49652H3.50141V4.49902Z" fill="#000001"/>
<path id="Vector_20" d="M2.50406 15.4978H3.50156V14.5003H2.50406V5.49658H1.5V18.4969H2.50406V15.4978Z" fill="#000001"/>
</g>
</g>
</svg>
