<svg width="24" height="24" viewBox="0 0 24 24" fill="none" xmlns="http://www.w3.org/2000/svg">
<g id="photography-frame-picture">
<g id="Group">
<path id="Vector" d="M22.4999 17.4961H21.5024V19.4977H22.4999V17.4961Z" fill="#000001"/>
<path id="Vector_2" d="M22.4999 4.50244H21.5024V6.49744H22.4999V4.50244Z" fill="#000001"/>
<path id="Vector_3" d="M21.5024 6.49731H20.5049V17.4961H21.5024V6.49731Z" fill="#000001"/>
<path id="Vector_4" d="M21.5025 3.49829H19.501V4.50235H21.5025V3.49829Z" fill="#000001"/>
<path id="Vector_5" d="M21.5025 19.4976H19.501V20.5016H21.5025V19.4976Z" fill="#000001"/>
<path id="Vector_6" d="M19.5012 18.5002H4.50586V19.4977H19.5012V18.5002Z" fill="#000001"/>
<path id="Vector_7" d="M4.50586 6.49731V17.4961H19.5012V6.49731H4.50586ZM18.5037 14.497H16.5021V16.4986H15.5046V14.497H16.5021V13.4995H18.5037V14.497ZM18.5037 8.49888H17.5062V9.49638H18.5037V12.502H17.5062V9.49638H16.5021V11.4979H15.5046V13.4995H13.503V14.497H11.5015V15.5011H14.5005V16.4986H11.5015V15.5011H10.504V16.4986H5.50336V7.50138H18.5037V8.49888Z" fill="#000001"/>
<path id="Vector_8" d="M15.5046 10.5005H14.5005V11.498H15.5046V10.5005Z" fill="#000001"/>
<path id="Vector_9" d="M14.5004 9.49634H12.5054V10.5004H14.5004V9.49634Z" fill="#000001"/>
<path id="Vector_10" d="M13.5029 12.502H12.5054V13.4995H13.5029V12.502Z" fill="#000001"/>
<path id="Vector_11" d="M12.5055 10.5005H11.5015V12.5021H12.5055V10.5005Z" fill="#000001"/>
<path id="Vector_12" d="M11.5014 8.49902H10.5039V9.49652H11.5014V8.49902Z" fill="#000001"/>
<path id="Vector_13" d="M10.5038 13.4995H9.50635V14.497H10.5038V13.4995Z" fill="#000001"/>
<path id="Vector_14" d="M9.50602 14.4971H8.50195V15.5011H9.50602V14.4971Z" fill="#000001"/>
<path id="Vector_15" d="M9.50602 12.502H8.50195V13.4995H9.50602V12.502Z" fill="#000001"/>
<path id="Vector_16" d="M9.50602 9.49634H8.50195V10.5004H9.50602V9.49634Z" fill="#000001"/>
<path id="Vector_17" d="M8.50238 13.4995H7.50488V14.497H8.50238V13.4995Z" fill="#000001"/>
<path id="Vector_18" d="M8.50238 10.5005H7.50488V11.498H8.50238V10.5005Z" fill="#000001"/>
<path id="Vector_19" d="M8.50238 8.49902H7.50488V9.49652H8.50238V8.49902Z" fill="#000001"/>
<path id="Vector_20" d="M7.50455 9.49634H6.50049V10.5004H7.50455V9.49634Z" fill="#000001"/>
<path id="Vector_21" d="M19.5012 4.50244H4.50586V5.49994H19.5012V4.50244Z" fill="#000001"/>
<path id="Vector_22" d="M4.50547 3.49829H2.50391V4.50235H4.50547V3.49829Z" fill="#000001"/>
<path id="Vector_23" d="M4.50547 19.4976H2.50391V20.5016H4.50547V19.4976Z" fill="#000001"/>
<path id="Vector_24" d="M3.50141 6.49731H2.50391V17.4961H3.50141V6.49731Z" fill="#000001"/>
<path id="Vector_25" d="M2.50406 17.4961H1.5V19.4977H2.50406V17.4961Z" fill="#000001"/>
<path id="Vector_26" d="M2.50406 4.50244H1.5V6.49744H2.50406V4.50244Z" fill="#000001"/>
</g>
</g>
</svg>
