<svg width="24" height="24" viewBox="0 0 24 24" fill="none" xmlns="http://www.w3.org/2000/svg">
<g id="photography-retouch-wand">
<g id="Group">
<path id="Vector" d="M22.4999 9.49976H21.5024V14.5004H22.4999V9.49976Z" fill="#000001"/>
<path id="Vector_2" d="M21.5024 14.5002H20.5049V16.5018H21.5024V14.5002Z" fill="#000001"/>
<path id="Vector_3" d="M21.5024 7.50464H20.5049V9.49964H21.5024V7.50464Z" fill="#000001"/>
<path id="Vector_4" d="M20.505 16.502H19.501V18.5035H20.505V16.502Z" fill="#000001"/>
<path id="Vector_5" d="M20.505 5.50317H19.501V7.50474H20.505V5.50317Z" fill="#000001"/>
<path id="Vector_6" d="M19.5009 18.5034H18.5034V19.5009H19.5009V18.5034Z" fill="#000001"/>
<path id="Vector_7" d="M19.5009 11.5012H18.5034V12.5053H17.5059V13.5028H18.5034V14.5003H19.5009V13.5028H20.5049V12.5053H19.5009V11.5012Z" fill="#000001"/>
<path id="Vector_8" d="M19.5009 4.50562H18.5034V5.50312H19.5009V4.50562Z" fill="#000001"/>
<path id="Vector_9" d="M18.5034 8.5022H17.5059V9.4997H18.5034V8.5022Z" fill="#000001"/>
<path id="Vector_10" d="M18.5035 19.501H16.502V20.505H18.5035V19.501Z" fill="#000001"/>
<path id="Vector_11" d="M17.506 15.5044H16.502V16.5019H17.506V15.5044Z" fill="#000001"/>
<path id="Vector_12" d="M18.5035 3.50146H16.502V4.50553H18.5035V3.50146Z" fill="#000001"/>
<path id="Vector_13" d="M16.5019 5.50317H15.5044V6.50067H16.5019V5.50317Z" fill="#000001"/>
<path id="Vector_14" d="M16.5021 20.5049H14.5005V21.5024H16.5021V20.5049Z" fill="#000001"/>
<path id="Vector_15" d="M16.5021 2.50415H14.5005V3.50165H16.5021V2.50415Z" fill="#000001"/>
<path id="Vector_16" d="M14.5004 14.5002H13.5029V15.5043H12.5054V16.5018H13.5029V17.4993H14.5004V16.5018H15.5044V15.5043H14.5004V14.5002Z" fill="#000001"/>
<path id="Vector_17" d="M14.5004 21.5024H9.50635V22.4999H14.5004V21.5024Z" fill="#000001"/>
<path id="Vector_18" d="M11.5014 14.5002H10.5039V15.5043H11.5014V14.5002Z" fill="#000001"/>
<path id="Vector_19" d="M10.5038 13.5028H11.5013V14.5003H12.5054V13.5028H13.5029V12.5053H14.5004V11.5012H15.5045V10.5037H16.502V9.49964H15.5045V8.50214H14.5004V7.50464H13.5029V8.50214H12.5054V9.49964H11.5013V10.5037H10.5038V11.5012H9.50635V12.5053H10.5038V13.5028Z" fill="#000001"/>
<path id="Vector_20" d="M11.5013 3.50146H10.5038V4.50553H9.50635V5.50303H10.5038V6.50053H11.5013V5.50303H12.5054V4.50553H11.5013V3.50146Z" fill="#000001"/>
<path id="Vector_21" d="M14.5004 1.5H9.50635V2.50406H14.5004V1.5Z" fill="#000001"/>
<path id="Vector_22" d="M10.5038 15.5044H9.50635V16.5019H10.5038V15.5044Z" fill="#000001"/>
<path id="Vector_23" d="M9.50645 20.5049H7.50488V21.5024H9.50645V20.5049Z" fill="#000001"/>
<path id="Vector_24" d="M9.50602 16.502H8.50195V17.4995H9.50602V16.502Z" fill="#000001"/>
<path id="Vector_25" d="M9.50602 12.5054H8.50195V13.5029H9.50602V12.5054Z" fill="#000001"/>
<path id="Vector_26" d="M9.50602 7.50464H8.50195V8.50214H9.50602V7.50464Z" fill="#000001"/>
<path id="Vector_27" d="M9.50645 2.50415H7.50488V3.50165H9.50645V2.50415Z" fill="#000001"/>
<path id="Vector_28" d="M8.50238 17.4993H7.50488V18.5033H8.50238V17.4993Z" fill="#000001"/>
<path id="Vector_29" d="M8.50238 13.5029H7.50488V14.5004H8.50238V13.5029Z" fill="#000001"/>
<path id="Vector_30" d="M6.50043 18.5034V19.5009H5.50293V20.505H7.50449V18.5034H6.50043Z" fill="#000001"/>
<path id="Vector_31" d="M7.50455 14.5002H6.50049V15.5043H7.50455V14.5002Z" fill="#000001"/>
<path id="Vector_32" d="M7.50449 3.50146H5.50293V4.50553H7.50449V3.50146Z" fill="#000001"/>
<path id="Vector_33" d="M6.50043 15.5044H5.50293V16.5019H6.50043V15.5044Z" fill="#000001"/>
<path id="Vector_34" d="M6.50086 7.50464H5.50336V8.50214H4.50586V9.49964H5.50336V10.5037H6.50086V9.49964H7.50492V8.50214H6.50086V7.50464Z" fill="#000001"/>
<path id="Vector_35" d="M5.50336 18.5034H4.50586V19.5009H5.50336V18.5034Z" fill="#000001"/>
<path id="Vector_36" d="M5.50303 17.4995V16.502H3.50146V18.5035H4.50553V17.4995H5.50303Z" fill="#000001"/>
<path id="Vector_37" d="M5.50336 4.50562H4.50586V5.50312H5.50336V4.50562Z" fill="#000001"/>
<path id="Vector_38" d="M4.50553 5.50317H3.50146V7.50474H4.50553V5.50317Z" fill="#000001"/>
<path id="Vector_39" d="M3.50141 14.5002H2.50391V16.5018H3.50141V14.5002Z" fill="#000001"/>
<path id="Vector_40" d="M3.50141 7.50464H2.50391V9.49964H3.50141V7.50464Z" fill="#000001"/>
<path id="Vector_41" d="M2.50406 9.49976H1.5V14.5004H2.50406V9.49976Z" fill="#000001"/>
</g>
</g>
</svg>
