<svg width="24" height="24" viewBox="0 0 24 24" fill="none" xmlns="http://www.w3.org/2000/svg">
<g id="photography-picture-polaroid">
<g id="Group">
<path id="Vector" d="M22.0009 4.00024H21.0034V21.0037H22.0009V4.00024Z" fill="#000001"/>
<path id="Vector_2" d="M21.0034 21.0037H4V22.0012H21.0034V21.0037Z" fill="#000001"/>
<path id="Vector_3" d="M19.9995 3.00293H19.002V19.0023H19.9995V3.00293Z" fill="#000001"/>
<path id="Vector_4" d="M17.0006 11.0025H14.999V12H17.0006V14.9991H18.0046V5.00439H17.0006V11.0025Z" fill="#000001"/>
<path id="Vector_5" d="M14.9991 14.0017H14.0016V14.9992H5.00439V16.0033H17.0006V14.9992H14.9991V14.0017Z" fill="#000001"/>
<path id="Vector_6" d="M14.999 12H14.0015V13.0041H14.999V12Z" fill="#000001"/>
<path id="Vector_7" d="M14.0014 13.0042H13.0039V14.0016H14.0014V13.0042Z" fill="#000001"/>
<path id="Vector_8" d="M13.0041 9.99852H14.9991V9.00102H16.0031V6.99945H14.9991V6.00195H13.0041V6.99945H12V9.00102H13.0041V9.99852Z" fill="#000001"/>
<path id="Vector_9" d="M13.0041 12H12V13.0041H13.0041V12Z" fill="#000001"/>
<path id="Vector_10" d="M11.9999 11.0024H11.0024V11.9999H11.9999V11.0024Z" fill="#000001"/>
<path id="Vector_11" d="M11.0024 9.99854H10.0049V11.0026H11.0024V9.99854Z" fill="#000001"/>
<path id="Vector_12" d="M10.005 9.00098H8.00342V9.99848H10.005V9.00098Z" fill="#000001"/>
<path id="Vector_13" d="M8.00309 9.99854H6.99902V11.0026H8.00309V9.99854Z" fill="#000001"/>
<path id="Vector_14" d="M6.99896 11.0024H6.00146V11.9999H6.99896V11.0024Z" fill="#000001"/>
<path id="Vector_15" d="M17.0006 4.00024H5.00439V5.00431H17.0006V4.00024Z" fill="#000001"/>
<path id="Vector_16" d="M5.00406 13.0041H6.00156V12H5.00406V5.00439H4V14.9991H5.00406V13.0041Z" fill="#000001"/>
<path id="Vector_17" d="M19.0018 1.99878H3.00244V3.00284H19.0018V1.99878Z" fill="#000001"/>
<path id="Vector_18" d="M19.0018 19.0022H3.00244V19.9997H19.0018V19.0022Z" fill="#000001"/>
<path id="Vector_19" d="M3.0026 3.00293H1.99854V19.0023H3.0026V3.00293Z" fill="#000001"/>
</g>
</g>
</svg>
