<svg width="24" height="24" viewBox="0 0 24 24" fill="none" xmlns="http://www.w3.org/2000/svg">
<g id="photography-focus-flower">
<g id="Group">
<path id="Vector" d="M18.5002 16.9973H17.5027V18.0013H16.4986V18.9988H15.5011V20.0029H14.4971V21.0004H17.5027V20.0029H18.5002V18.9988H19.4977V15.9998H18.5002V16.9973Z" fill="#000001"/>
<path id="Vector_2" d="M17.5026 10.0016H18.5001V2.00195H16.4985V2.99945H17.5026V10.0016Z" fill="#000001"/>
<path id="Vector_3" d="M17.5026 10.0017H16.4985V10.9992H17.5026V10.0017Z" fill="#000001"/>
<path id="Vector_4" d="M16.4985 2.99951H15.501V4.00357H16.4985V2.99951Z" fill="#000001"/>
<path id="Vector_5" d="M15.5011 18.9988V18.0013H16.4986V16.9972H17.5026V15.9997H18.5001V15.0022H15.5011V15.9997H14.497V16.9972H13.4995V20.0028H14.497V18.9988H15.5011Z" fill="#000001"/>
<path id="Vector_6" d="M16.4986 10.999H14.4971V12.0031H16.4986V10.999Z" fill="#000001"/>
<path id="Vector_7" d="M15.5011 4.00342H14.4971V5.00092H15.5011V4.00342Z" fill="#000001"/>
<path id="Vector_8" d="M14.497 12.0032H9.50293V13.0007H11.4979V21.9979H12.502V13.0007H14.497V12.0032Z" fill="#000001"/>
<path id="Vector_9" d="M14.497 2.99951H13.4995V4.00357H14.497V2.99951Z" fill="#000001"/>
<path id="Vector_10" d="M13.4996 2.00195H10.5005V2.99945H13.4996V2.00195Z" fill="#000001"/>
<path id="Vector_11" d="M10.5004 2.99951H9.50293V4.00357H10.5004V2.99951Z" fill="#000001"/>
<path id="Vector_12" d="M9.50312 15.9997H8.49906V15.0022H5.5V15.9997H6.4975V16.9972H7.50156V18.0013H8.49906V18.9988H9.50312V20.0028H10.5006V16.9972H9.50312V15.9997Z" fill="#000001"/>
<path id="Vector_13" d="M9.50303 10.999H7.50146V12.0031H9.50303V10.999Z" fill="#000001"/>
<path id="Vector_14" d="M9.50309 4.00342H8.49902V5.00092H9.50309V4.00342Z" fill="#000001"/>
<path id="Vector_15" d="M8.499 18.9988H7.5015V18.0013H6.49744V16.9973H5.49994V15.9998H4.50244V18.9988H5.49994V20.0029H6.49744V21.0004H9.50307V20.0029H8.499V18.9988Z" fill="#000001"/>
<path id="Vector_16" d="M8.49896 2.99951H7.50146V4.00357H8.49896V2.99951Z" fill="#000001"/>
<path id="Vector_17" d="M7.50162 10.0017H6.49756V10.9992H7.50162V10.0017Z" fill="#000001"/>
<path id="Vector_18" d="M6.4975 2.99945H7.50156V2.00195H5.5V10.0016H6.4975V2.99945Z" fill="#000001"/>
</g>
</g>
</svg>
