<svg width="24" height="24" viewBox="0 0 24 24" fill="none" xmlns="http://www.w3.org/2000/svg">
<g id="photography-file-picture">
<g id="Group">
<path id="Vector" d="M19.4974 5.49656H18.4999V4.49906H17.5024V3.495H16.4984V2.4975H15.5009V1.5H3.49805V22.5H20.5015V6.50062H19.4974V5.49656ZM19.4974 21.4959H4.50211V2.4975H14.4968V7.49813H19.4974V21.4959Z" fill="#000001"/>
<path id="Vector_2" d="M14.4967 14.5004V13.4964H13.4992V14.5004H7.50107V13.4964H6.49701V6.50073H5.49951V17.4995H6.49701V15.4979H17.5023V17.4995H18.4998V8.49573H17.5023V13.4964H16.4983V14.5004H14.4967Z" fill="#000001"/>
<path id="Vector_3" d="M17.5024 17.4993H6.49707V18.4968H17.5024V17.4993Z" fill="#000001"/>
<path id="Vector_4" d="M16.4985 12.4988H15.501V13.4963H16.4985V12.4988Z" fill="#000001"/>
<path id="Vector_5" d="M15.5011 11.5012H13.4995V12.4987H15.5011V11.5012Z" fill="#000001"/>
<path id="Vector_6" d="M13.4995 12.4988H12.502V13.4963H13.4995V12.4988Z" fill="#000001"/>
<path id="Vector_7" d="M12.5016 11.5012H11.4976V12.4987H12.5016V11.5012Z" fill="#000001"/>
<path id="Vector_8" d="M11.4979 10.4971H9.50293V11.5011H11.4979V10.4971Z" fill="#000001"/>
<path id="Vector_9" d="M9.5026 11.5012H8.49854V12.4987H9.5026V11.5012Z" fill="#000001"/>
<path id="Vector_10" d="M8.49848 12.4988H7.50098V13.4963H8.49848V12.4988Z" fill="#000001"/>
<path id="Vector_11" d="M9.50254 7.49805H7.50098V9.49961H9.50254V7.49805Z" fill="#000001"/>
<path id="Vector_12" d="M12.5018 5.49658H6.49707V6.50064H12.5018V5.49658Z" fill="#000001"/>
</g>
</g>
</svg>
