<svg width="24" height="24" viewBox="0 0 24 24" fill="none" xmlns="http://www.w3.org/2000/svg">
<g id="photography-camera-1">
<g id="Group">
<path id="Vector" d="M14.0015 10.5036V11.5011H14.999V15.5042H15.9965V11.5011H20.9971V17.4992H22.0012V6.50049H20.9971V10.5036H14.0015Z" fill="#000001"/>
<path id="Vector_2" d="M20.997 17.4993H19.9995V18.5033H20.997V17.4993Z" fill="#000001"/>
<path id="Vector_3" d="M20.997 5.50317H19.9995V6.50067H20.997V5.50317Z" fill="#000001"/>
<path id="Vector_4" d="M19.9995 7.50464H19.002V8.50214H19.9995V7.50464Z" fill="#000001"/>
<path id="Vector_5" d="M19.9994 18.5034H4V19.5009H19.9994V18.5034Z" fill="#000001"/>
<path id="Vector_6" d="M19.0022 8.5022H15.9966V9.4997H19.0022V8.5022Z" fill="#000001"/>
<path id="Vector_7" d="M19.0022 6.50049H15.9966V7.50455H19.0022V6.50049Z" fill="#000001"/>
<path id="Vector_8" d="M15.9965 7.50464H14.999V8.50214H15.9965V7.50464Z" fill="#000001"/>
<path id="Vector_9" d="M14.999 15.5044H14.0015V16.5019H14.999V15.5044Z" fill="#000001"/>
<path id="Vector_10" d="M19.9993 4.49902H12.9971V5.50309H19.9993V4.49902Z" fill="#000001"/>
<path id="Vector_11" d="M11.0021 15.5043H12.9971V14.5003H14.0012V12.4987H12.9971V13.5028H11.9996V12.4987H12.9971V11.5012H11.0021V12.4987H9.99805V14.5003H11.0021V15.5043Z" fill="#000001"/>
<path id="Vector_12" d="M14.0012 9.49976H9.99805V10.5038H14.0012V9.49976Z" fill="#000001"/>
<path id="Vector_13" d="M14.0012 16.502H9.99805V17.4995H14.0012V16.502Z" fill="#000001"/>
<path id="Vector_14" d="M12.9975 5.50317H12V6.50067H12.9975V5.50317Z" fill="#000001"/>
<path id="Vector_15" d="M9.99799 15.5044H9.00049V16.5019H9.99799V15.5044Z" fill="#000001"/>
<path id="Vector_16" d="M9.99809 4.49902H6.99902V5.50309H9.99809V4.49902Z" fill="#000001"/>
<path id="Vector_17" d="M6.99912 8.5022H4.99756V9.4997H6.99912V8.5022Z" fill="#000001"/>
<path id="Vector_18" d="M11.9997 7.50474V6.50067H11.0022V5.50317H9.99812V6.50067H6.99906V5.50317H6.00156V6.50067H4V7.50474H11.9997Z" fill="#000001"/>
<path id="Vector_19" d="M4.00016 17.4993H2.99609V18.5033H4.00016V17.4993Z" fill="#000001"/>
<path id="Vector_20" d="M4.00016 7.50464H2.99609V8.50214H4.00016V7.50464Z" fill="#000001"/>
<path id="Vector_21" d="M2.99604 11.5013H7.99666V15.5044H9.00072V11.5013H9.99822V10.5038H2.99604V8.5022H1.99854V17.4994H2.99604V11.5013Z" fill="#000001"/>
</g>
</g>
</svg>
