<svg width="24" height="24" viewBox="0 0 24 24" fill="none" xmlns="http://www.w3.org/2000/svg">
<g id="photography-equipment-film-print">
<g id="Group">
<path id="Vector" d="M19.501 1.5V22.5H22.5V1.5H19.501ZM21.5025 21.5025H20.505V20.505H21.5025V21.5025ZM21.5025 19.5009H20.505V18.5034H21.5025V19.5009ZM21.5025 17.4994H20.505V16.5019H21.5025V17.4994ZM21.5025 15.5044H20.505V14.5003H21.5025V15.5044ZM21.5025 13.5028H20.505V12.5053H21.5025V13.5028ZM21.5025 11.5012H20.505V10.5038H21.5025V11.5012ZM21.5025 9.49969H20.505V8.50219H21.5025V9.49969ZM21.5025 7.50469H20.505V6.50062H21.5025V7.50469ZM21.5025 5.50312H20.505V4.50562H21.5025V5.50312ZM21.5025 3.50156H20.505V2.50406H21.5025V3.50156Z" fill="#000001"/>
<path id="Vector_2" d="M18.5034 21.5024H17.5059V22.4999H18.5034V21.5024Z" fill="#000001"/>
<path id="Vector_3" d="M18.5034 10.5037H17.5059V17.4993H18.5034V10.5037Z" fill="#000001"/>
<path id="Vector_4" d="M18.5034 1.5H17.5059V6.50063H18.5034V1.5Z" fill="#000001"/>
<path id="Vector_5" d="M17.5058 20.5049H6.50049V21.5024H17.5058V20.5049Z" fill="#000001"/>
<path id="Vector_6" d="M17.5058 17.4993H6.50049V18.5033H17.5058V17.4993Z" fill="#000001"/>
<path id="Vector_7" d="M16.5019 14.5002H15.5044V15.5043H16.5019V14.5002Z" fill="#000001"/>
<path id="Vector_8" d="M17.5058 6.50073H6.50049V7.50479H17.5058V6.50073Z" fill="#000001"/>
<path id="Vector_9" d="M15.5046 12.5054H14.5005V13.5029H15.5046V12.5054Z" fill="#000001"/>
<path id="Vector_10" d="M15.5044 15.5044H12.5054V16.5019H15.5044V15.5044Z" fill="#000001"/>
<path id="Vector_11" d="M13.5029 12.5054H12.5054V13.5029H13.5029V12.5054Z" fill="#000001"/>
<path id="Vector_12" d="M12.5055 14.5002H11.5015V15.5043H12.5055V14.5002Z" fill="#000001"/>
<path id="Vector_13" d="M17.5058 9.49976H6.50049V10.5038H17.5058V9.49976Z" fill="#000001"/>
<path id="Vector_14" d="M6.50043 21.5024H5.50293V22.4999H6.50043V21.5024Z" fill="#000001"/>
<path id="Vector_15" d="M6.50043 10.5037H5.50293V17.4993H6.50043V10.5037Z" fill="#000001"/>
<path id="Vector_16" d="M6.50043 1.5H5.50293V6.50063H6.50043V1.5Z" fill="#000001"/>
<path id="Vector_17" d="M1.5 1.5V22.5H4.50562V1.5H1.5ZM3.50156 21.5025H2.50406V20.505H3.50156V21.5025ZM3.50156 19.5009H2.50406V18.5034H3.50156V19.5009ZM3.50156 17.4994H2.50406V16.5019H3.50156V17.4994ZM3.50156 15.5044H2.50406V14.5003H3.50156V15.5044ZM3.50156 13.5028H2.50406V12.5053H3.50156V13.5028ZM3.50156 11.5012H2.50406V10.5038H3.50156V11.5012ZM3.50156 9.49969H2.50406V8.50219H3.50156V9.49969ZM3.50156 7.50469H2.50406V6.50062H3.50156V7.50469ZM3.50156 5.50312H2.50406V4.50562H3.50156V5.50312ZM3.50156 3.50156H2.50406V2.50406H3.50156V3.50156Z" fill="#000001"/>
</g>
</g>
</svg>
