<svg width="24" height="24" viewBox="0 0 24 24" fill="none" xmlns="http://www.w3.org/2000/svg">
<g id="real-estate-building-ad">
<g id="Group">
<path id="Vector" d="M21.5025 14.5003H13.5028V12.4988H20.505V11.5012H19.5009V10.4972H20.505V9.49969H13.5028V8.49562H11.5012V6.50062H13.5028V1.5H2.50406V6.50062H4.50562V8.49562H2.50406V20.4984H1.5V22.5H2.50406V21.4959H3.50156V22.5H5.50312V21.4959H6.50062V22.5H8.50219V21.4959H9.49969V22.5H11.5012V21.4959H12.5053V22.5H13.5028V21.4959H14.5003V22.5H16.5019V21.4959H17.5059V22.5H19.5009V21.4959H20.505V22.5H22.5V20.4984H21.5025V15.4978H22.5V13.4963H21.5025V14.5003ZM17.5059 10.4972H18.5034V11.5012H17.5059V10.4972ZM15.5044 10.4972H16.5019V11.5012H15.5044V10.4972ZM13.5028 10.4972H14.5003V11.5012H13.5028V10.4972ZM3.50156 5.49656V2.4975H12.5053V5.49656H3.50156ZM10.5038 6.50062V8.49562H5.50312V6.50062H10.5038ZM7.50469 20.4984H5.50312V16.4953H7.50469V20.4984ZM12.5053 15.4978H9.49969V18.4969H12.5053V20.4984H8.50219V15.4978H4.50562V20.4984H3.50156V9.49969H12.5053V15.4978ZM11.5012 16.4953V17.4994H10.5038V16.4953H11.5012ZM20.505 20.4984H13.5028V15.4978H20.505V20.4984Z" fill="#000001"/>
<path id="Vector_2" d="M21.5024 12.4985H20.5049V13.496H21.5024V12.4985Z" fill="#000001"/>
<path id="Vector_3" d="M19.5009 16.4951H17.5059V18.4967H19.5009V16.4951Z" fill="#000001"/>
<path id="Vector_4" d="M16.5021 16.4951H14.5005V18.4967H16.5021V16.4951Z" fill="#000001"/>
<path id="Vector_5" d="M11.5011 12.4985H9.49951V13.496H11.5011V12.4985Z" fill="#000001"/>
<path id="Vector_6" d="M11.5011 10.4971H9.49951V11.5011H11.5011V10.4971Z" fill="#000001"/>
<path id="Vector_7" d="M11.5014 3.49512H10.5039V4.49918H11.5014V3.49512Z" fill="#000001"/>
<path id="Vector_8" d="M8.50238 3.49512H7.50488V4.49918H8.50238V3.49512Z" fill="#000001"/>
<path id="Vector_9" d="M7.50492 12.4985H4.50586V13.496H7.50492V12.4985Z" fill="#000001"/>
<path id="Vector_10" d="M7.50492 10.4971H4.50586V11.5011H7.50492V10.4971Z" fill="#000001"/>
<path id="Vector_11" d="M5.50336 3.49512H4.50586V4.49918H5.50336V3.49512Z" fill="#000001"/>
</g>
</g>
</svg>
