<svg width="24" height="24" viewBox="0 0 24 24" fill="none" xmlns="http://www.w3.org/2000/svg">
<g id="real-estate-building-2">
<g id="Group">
<path id="Vector" d="M19.501 21.4959V3.495H18.5035V2.4975H19.501V3.495H20.4985V1.5H3.50162V3.495H4.49912V2.4975H5.50318V3.495H4.49912V21.4959H2.49756V22.5H21.5026V21.4959H19.501ZM16.5019 2.4975H17.4994V3.495H16.5019V2.4975ZM14.5004 2.4975H15.4979V3.495H14.5004V2.4975ZM12.4988 2.4975H13.5029V3.495H12.4988V2.4975ZM10.4972 2.4975H11.5013V3.495H10.4972V2.4975ZM8.50225 2.4975H9.49975V3.495H8.50225V2.4975ZM6.50068 2.4975H7.49818V3.495H6.50068V2.4975ZM8.50225 21.4959H5.50318V18.4969H8.50225V21.4959ZM8.50225 17.4994H5.50318V16.4953H8.50225V17.4994ZM11.5013 21.4959H9.49975V16.4953H11.5013V21.4959ZM14.5004 21.4959H12.4988V16.4953H14.5004V21.4959ZM18.5035 21.4959H15.4979V18.4969H18.5035V21.4959ZM18.5035 17.4994H15.4979V16.4953H18.5035V17.4994ZM18.5035 15.4978H5.50318V4.49906H18.5035V15.4978Z" fill="#000001"/>
<path id="Vector_2" d="M17.4996 10.4971H14.5005V14.5002H17.4996V10.4971ZM16.5021 12.4986H15.498V11.5011H16.5021V12.4986Z" fill="#000001"/>
<path id="Vector_3" d="M17.4996 9.49971V5.49658H14.5005V9.49971H17.4996ZM15.498 6.50064H16.5021V7.49814H15.498V6.50064Z" fill="#000001"/>
<path id="Vector_4" d="M13.5027 10.4971H10.4971V14.5002H13.5027V10.4971ZM12.4986 12.4986H11.5011V11.5011H12.4986V12.4986Z" fill="#000001"/>
<path id="Vector_5" d="M13.5027 9.49971V5.49658H10.4971V9.49971H13.5027ZM11.5011 6.50064H12.4986V7.49814H11.5011V6.50064Z" fill="#000001"/>
<path id="Vector_6" d="M9.49955 10.4971H6.50049V14.5002H9.49955V10.4971ZM8.50205 12.4986H7.49799V11.5011H8.50205V12.4986Z" fill="#000001"/>
<path id="Vector_7" d="M9.49955 9.49971V5.49658H6.50049V9.49971H9.49955ZM7.49799 6.50064H8.50205V7.49814H7.49799V6.50064Z" fill="#000001"/>
</g>
</g>
</svg>
