<svg width="24" height="24" viewBox="0 0 24 24" fill="none" xmlns="http://www.w3.org/2000/svg">
<g id="real-estate-building-1">
<g id="Group">
<path id="Vector" d="M1.5 1.5V3.495H2.50406V2.4975H15.5044V3.495H2.50406V11.5012H1.5V13.4963H2.50406V12.4988H15.5044V13.4963H2.50406V21.4959H1.5V22.5H22.5V21.4959H21.5025V13.4963H16.5019V12.4988H21.5025V13.4963H22.5V11.5012H21.5025V3.495H16.5019V2.4975H21.5025V3.495H22.5V1.5H1.5ZM5.50312 21.4959V16.4953H8.50219V21.4959H5.50312ZM9.49969 21.4959V15.4978H4.50562V21.4959H3.50156V14.5003H15.5044V21.4959H9.49969ZM20.505 14.5003V21.4959H16.5019V14.5003H20.505ZM3.50156 11.5012V4.49906H15.5044V11.5012H3.50156ZM20.505 4.49906V11.5012H16.5019V4.49906H20.505Z" fill="#000001"/>
<path id="Vector_2" d="M10.5039 15.498V20.4987H14.5005V15.498H10.5039ZM13.503 17.4996H12.5055V18.4971H11.5014V16.4955H13.503V17.4996V17.4996Z" fill="#000001"/>
<path id="Vector_3" d="M12.5055 5.49658H10.5039V10.4972H14.5005V5.49658H12.5055ZM13.503 7.49814H12.5055V8.49564H11.5014V6.50064H13.503V7.49814Z" fill="#000001"/>
<path id="Vector_4" d="M6.50049 19.5011H7.50455V18.4971H6.50049V19.5011Z" fill="#000001"/>
<path id="Vector_5" d="M4.50586 5.49658V10.4972H8.50242V5.49658H4.50586ZM7.50492 7.49814H6.50086V8.49564H5.50336V6.50064H7.50492V7.49814Z" fill="#000001"/>
</g>
</g>
</svg>
