<svg width="24" height="24" viewBox="0 0 24 24" fill="none" xmlns="http://www.w3.org/2000/svg">
<g id="real-estate-building-3">
<g id="Group">
<path id="Vector" d="M22.4999 8.49561H21.5024V9.49967H22.4999V8.49561Z" fill="#000001"/>
<path id="Vector_2" d="M21.5024 15.498H18.5034V16.4955H17.5059V19.5012H18.5034V20.4987H19.5009V22.5002H20.5049V20.4987H21.5024V19.5012H22.4999V16.4955H21.5024V15.498Z" fill="#000001"/>
<path id="Vector_3" d="M21.5024 7.49805H20.5049V8.49555H21.5024V7.49805Z" fill="#000001"/>
<path id="Vector_4" d="M21.5024 9.49951H17.5059V10.497H21.5024V9.49951Z" fill="#000001"/>
<path id="Vector_5" d="M20.505 6.50049H18.5034V7.49799H20.505V6.50049Z" fill="#000001"/>
<path id="Vector_6" d="M18.5034 7.49805H17.5059V8.49555H18.5034V7.49805Z" fill="#000001"/>
<path id="Vector_7" d="M17.506 8.49561H16.502V9.49967H17.506V8.49561Z" fill="#000001"/>
<path id="Vector_8" d="M15.5046 8.49574H14.5005V6.50074H15.5046V5.49668H13.503V3.49512H12.5055V5.49668H11.5014V3.49512H10.5039V5.49668H8.50238V6.50074H9.49988V8.49574H8.50238V16.4954H7.50488V22.5001H16.5021V16.4954H15.5046V8.49574ZM12.5055 6.50074H13.503V8.49574H12.5055V6.50074ZM10.5039 6.50074H11.5014V8.49574H10.5039V6.50074ZM9.49988 9.4998H14.5005V16.4954H9.49988V9.4998ZM11.5014 20.4986H10.5039V19.5011H11.5014V20.4986ZM13.503 20.4986H12.5055V19.5011H13.503V20.4986ZM15.5046 21.4961H14.5005V18.497H9.49988V21.4961H8.50238V17.4995H15.5046V21.4961Z" fill="#000001"/>
<path id="Vector_9" d="M13.5029 14.5005H12.5054V15.498H13.5029V14.5005Z" fill="#000001"/>
<path id="Vector_10" d="M13.5029 12.4985H12.5054V13.496H13.5029V12.4985Z" fill="#000001"/>
<path id="Vector_11" d="M13.5029 10.4971H12.5054V11.5011H13.5029V10.4971Z" fill="#000001"/>
<path id="Vector_12" d="M12.5055 1.5H11.5015V3.495H12.5055V1.5Z" fill="#000001"/>
<path id="Vector_13" d="M11.5014 14.5005H10.5039V15.498H11.5014V14.5005Z" fill="#000001"/>
<path id="Vector_14" d="M11.5014 12.4985H10.5039V13.496H11.5014V12.4985Z" fill="#000001"/>
<path id="Vector_15" d="M11.5014 10.4971H10.5039V11.5011H11.5014V10.4971Z" fill="#000001"/>
<path id="Vector_16" d="M7.50455 4.49902H6.50049V5.49652H7.50455V4.49902Z" fill="#000001"/>
<path id="Vector_17" d="M6.50043 3.49512H5.50293V4.49918H6.50043V3.49512Z" fill="#000001"/>
<path id="Vector_18" d="M5.50312 15.498H2.50406V16.4955H1.5V19.5012H2.50406V20.4987H3.50156V22.5002H4.50562V20.4987H5.50312V19.5012H6.50062V16.4955H5.50312V15.498Z" fill="#000001"/>
<path id="Vector_19" d="M6.50047 5.49658H2.50391V6.50064H6.50047V5.49658Z" fill="#000001"/>
<path id="Vector_20" d="M5.50303 2.49756H3.50146V3.49506H5.50303V2.49756Z" fill="#000001"/>
<path id="Vector_21" d="M3.50141 3.49512H2.50391V4.49918H3.50141V3.49512Z" fill="#000001"/>
<path id="Vector_22" d="M2.50406 4.49902H1.5V5.49652H2.50406V4.49902Z" fill="#000001"/>
</g>
</g>
</svg>
