<svg width="24" height="24" viewBox="0 0 24 24" fill="none" xmlns="http://www.w3.org/2000/svg">
<g id="real-estate-building-4">
<g id="Group">
<path id="Vector" d="M21.0004 9.49969H19.9964V12.4988H14.9958V15.4978H19.9964V16.4953H12V2.4975H13.004V1.5H11.0025V6.50062H9.99842V7.49813H11.0025V9.49969H9.99842V8.49562H9.00092V9.49969H7.99686V8.49562H6.99607V9.49969H5.99857V8.49562H5.00107V9.49969H3.99701V7.49813H2.99951V22.5H21.0004V9.49969ZM18.0014 14.5003H16.0031V13.4963H18.0047L18.0014 14.5003ZM8.99764 21.4959H3.99701V19.5009H8.99764V21.4959ZM10.9992 21.4959H9.99514V18.4969H3.99701V13.4963H10.9992V21.4959ZM10.9992 12.4988H9.99514V11.5012H8.99764V12.4988H7.99686V11.5012H6.99607V12.4988H5.99857V11.5012H5.00107V12.4988H3.99701V10.4972H10.9992V12.4988ZM13.9983 21.4959H12V19.5009H14.0015L13.9983 21.4959ZM13.9983 18.4969H12V17.4994H14.0015L13.9983 18.4969ZM16.9973 21.4959H14.9958V17.4994H16.9973V21.4959ZM19.9964 21.4959H18.0014V19.5009H19.9964V21.4959ZM19.9964 18.4969H18.0014V17.4994H19.9964V18.4969Z" fill="#000001"/>
<path id="Vector_2" d="M18.9991 10.4971H16.9976V11.5011H18.9991V10.4971Z" fill="#000001"/>
<path id="Vector_3" d="M13.998 6.50064V9.49971H19.9962V7.49814H18.9987V5.49658H18.0012V6.50064H13.998ZM16.9971 8.49564H14.9955V7.49814H16.9971V8.49564Z" fill="#000001"/>
<path id="Vector_4" d="M18.0016 4.49902H16.9976V5.49652H18.0016V4.49902Z" fill="#000001"/>
<path id="Vector_5" d="M16.9972 3.49512H14.9956V4.49918H16.9972V3.49512Z" fill="#000001"/>
<path id="Vector_6" d="M14.996 10.4971H13.001V11.5011H14.996V10.4971Z" fill="#000001"/>
<path id="Vector_7" d="M13.9985 14.5005H13.001V15.498H13.9985V14.5005Z" fill="#000001"/>
<path id="Vector_8" d="M13.9985 4.49902H13.001V5.49652H13.9985V4.49902Z" fill="#000001"/>
<path id="Vector_9" d="M14.996 2.49756H13.001V3.49506H14.996V2.49756Z" fill="#000001"/>
<path id="Vector_10" d="M9.99506 16.4951H8.99756V17.4992H9.99506V16.4951Z" fill="#000001"/>
<path id="Vector_11" d="M9.99506 14.5005H8.99756V15.498H9.99506V14.5005Z" fill="#000001"/>
<path id="Vector_12" d="M8.00016 16.4951H6.99609V17.4992H8.00016V16.4951Z" fill="#000001"/>
<path id="Vector_13" d="M8.00016 14.5005H6.99609V15.498H8.00016V14.5005Z" fill="#000001"/>
<path id="Vector_14" d="M9.99504 6.50074V5.49668H8.00004V3.49512H6.99598V5.49668H5.00098V6.50074H9.99504Z" fill="#000001"/>
<path id="Vector_15" d="M5.99848 16.4951H5.00098V17.4992H5.99848V16.4951Z" fill="#000001"/>
<path id="Vector_16" d="M5.99848 14.5005H5.00098V15.498H5.99848V14.5005Z" fill="#000001"/>
<path id="Vector_17" d="M5.00113 6.50049H3.99707V7.49799H5.00113V6.50049Z" fill="#000001"/>
</g>
</g>
</svg>
