<svg width="24" height="24" viewBox="0 0 24 24" fill="none" xmlns="http://www.w3.org/2000/svg">
<g id="real-estate-building-house">
<g id="Group">
<path id="Vector" d="M21.5025 13.5028H20.4984V12.5053H19.5009V11.5012H18.5034V1.5H8.50219V7.50469H7.49813V5.50312H5.50312V2.50406H4.49906V5.50312H2.4975V7.50469H1.5V22.5H21.5025V16.5019H22.5V14.5003H21.5025V13.5028ZM3.50156 6.50062H6.50062V7.50469H3.50156V6.50062ZM8.50219 14.5003H7.49813V16.5019H8.50219V21.5025H2.4975V8.50219H8.50219V14.5003ZM9.49969 2.50406H17.4994V9.50625H16.5019V8.50219H15.4978V7.50469H14.5003V8.50219H13.5028V9.50625H12.4988V10.5038H11.5012V11.5012H10.5038V12.5053H9.49969V2.50406ZM20.4984 21.5025H17.4994V17.5059H16.5019V21.5025H13.5028V20.505H14.5003V19.5009H13.5028V17.5059H12.4988V21.5025H9.49969V14.5003H10.5038V13.5028H11.5012V12.5053H12.4988V11.5012H13.5028V10.5038H14.5003V9.50625H15.4978V10.5038H16.5019V11.5012H17.4994V12.5053H18.5034V13.5028H19.5009V14.5003H20.4984V21.5025Z" fill="#000001"/>
<path id="Vector_2" d="M18.5037 14.5005H11.5015V15.5046H18.5037V14.5005Z" fill="#000001"/>
<path id="Vector_3" d="M16.502 16.502H13.5029V17.506H16.502V16.502Z" fill="#000001"/>
<path id="Vector_4" d="M16.5021 3.50146H14.5005V5.50303H16.5021V3.50146Z" fill="#000001"/>
<path id="Vector_5" d="M12.4989 6.50049H10.5039V8.50205H12.4989V6.50049Z" fill="#000001"/>
<path id="Vector_6" d="M12.4989 3.50146H10.5039V5.50303H12.4989V3.50146Z" fill="#000001"/>
<path id="Vector_7" d="M6.50059 18.5034H4.49902V20.505H6.50059V18.5034Z" fill="#000001"/>
<path id="Vector_8" d="M6.50059 14.5005H4.49902V16.5021H6.50059V14.5005Z" fill="#000001"/>
<path id="Vector_9" d="M6.50059 10.5039H4.49902V12.5055H6.50059V10.5039Z" fill="#000001"/>
</g>
</g>
</svg>
