<svg width="24" height="24" viewBox="0 0 24 24" fill="none" xmlns="http://www.w3.org/2000/svg">
<g id="real-estate-sign-building">
<g id="Group">
<path id="Vector" d="M22.4999 8.49561H21.5024V20.4984H22.4999V8.49561Z" fill="#000001"/>
<path id="Vector_2" d="M21.5024 20.4985H20.5049V21.496H21.5024V20.4985Z" fill="#000001"/>
<path id="Vector_3" d="M21.5024 7.49805H20.5049V8.49555H21.5024V7.49805Z" fill="#000001"/>
<path id="Vector_4" d="M20.5052 21.4961H7.50488V22.5002H20.5052V21.4961Z" fill="#000001"/>
<path id="Vector_5" d="M19.5007 12.4987H18.5032V19.5009H14.5001V18.4969H17.5057V17.4994H14.5001V16.4953H17.5057V14.5003H14.5001V13.4962H16.5016V12.4987H14.5001V9.49967H15.5041V8.49561H13.5026V11.5012H9.49945V12.4987H13.5026V19.5009H9.49945V12.4987H8.50195V20.4984H19.5007V12.4987Z" fill="#000001"/>
<path id="Vector_6" d="M19.5008 2.49756H18.5033V3.49506H10.5037V2.49756H9.49959V3.49506H4.50553V2.49756H3.50146V22.5001H4.50553V4.49912H9.49959V6.50068H7.50459V7.49818H20.5049V6.50068H19.5008V4.49912H22.4999V3.49506H19.5008V2.49756ZM18.5033 6.50068H10.5037V4.49912H18.5033V6.50068Z" fill="#000001"/>
<path id="Vector_7" d="M18.5034 11.5015H17.5059V12.499H18.5034V11.5015Z" fill="#000001"/>
<path id="Vector_8" d="M17.506 10.4971H16.502V11.5011H17.506V10.4971Z" fill="#000001"/>
<path id="Vector_9" d="M16.5019 9.49951H15.5044V10.497H16.5019V9.49951Z" fill="#000001"/>
<path id="Vector_10" d="M12.5055 16.4951H10.5039V18.4967H12.5055V16.4951Z" fill="#000001"/>
<path id="Vector_11" d="M12.5055 13.4961H10.5039V15.4977H12.5055V13.4961Z" fill="#000001"/>
<path id="Vector_12" d="M7.50455 20.4985H6.50049V21.496H7.50455V20.4985Z" fill="#000001"/>
<path id="Vector_13" d="M7.50455 7.49805H6.50049V8.49555H7.50455V7.49805Z" fill="#000001"/>
<path id="Vector_14" d="M6.50043 8.49561H5.50293V20.4984H6.50043V8.49561Z" fill="#000001"/>
<path id="Vector_15" d="M3.50141 1.5H2.50391V2.4975H3.50141V1.5Z" fill="#000001"/>
<path id="Vector_16" d="M2.50406 2.49756H1.5V22.5001H2.50406V2.49756Z" fill="#000001"/>
</g>
</g>
</svg>
