<svg width="24" height="24" viewBox="0 0 24 24" fill="none" xmlns="http://www.w3.org/2000/svg">
<g id="real-estate-building-factory">
<g id="Group">
<path id="Vector" d="M16.5019 14.5003V5.49652H15.5044V4.49902H12.5053V5.49652H11.5012V14.5003H9.49969V6.50059H8.50219V5.49652H5.50312V6.50059H4.50562V14.5003H1.5V22.5H22.5V14.5003H16.5019ZM12.5053 7.49809H15.5044V8.49559H12.5053V7.49809ZM12.5053 9.49965H15.5044V14.5003H12.5053V9.49965ZM5.50312 8.49559H8.50219V9.49965H5.50312V8.49559ZM5.50312 10.4971H8.50219V14.5003H5.50312V10.4971ZM6.50062 21.4959H2.50406V15.4978H6.50062V21.4959ZM21.5025 21.4959H7.50469V15.4978H21.5025V21.4959Z" fill="#000001"/>
<path id="Vector_2" d="M20.5051 16.4951H16.502V20.4982H20.5051V16.4951ZM19.501 18.4967H18.5035V19.5007H17.506V17.4992H19.501V18.4967Z" fill="#000001"/>
<path id="Vector_3" d="M18.5034 1.5H17.5059V2.4975H18.5034V1.5Z" fill="#000001"/>
<path id="Vector_4" d="M17.506 2.49756H16.502V3.49506H17.506V2.49756Z" fill="#000001"/>
<path id="Vector_5" d="M16.5021 1.5H14.5005V2.4975H16.5021V1.5Z" fill="#000001"/>
<path id="Vector_6" d="M15.5041 16.4951H8.50195V20.4982H15.5041V16.4951ZM11.501 18.4967H10.5035V19.5007H9.49945V17.4992H11.501V18.4967ZM14.5001 18.4967H13.5026V19.5007H12.5051V17.4992H14.5001V18.4967Z" fill="#000001"/>
<path id="Vector_7" d="M14.5004 2.49756H13.5029V3.49506H14.5004V2.49756Z" fill="#000001"/>
<path id="Vector_8" d="M11.5014 2.49756H10.5039V3.49506H11.5014V2.49756Z" fill="#000001"/>
<path id="Vector_9" d="M10.5035 3.49512H8.50195V4.49918H10.5035V3.49512Z" fill="#000001"/>
<path id="Vector_10" d="M8.50238 2.49756H7.50488V3.49506H8.50238V2.49756Z" fill="#000001"/>
<path id="Vector_11" d="M7.50455 3.49512H6.50049V4.49918H7.50455V3.49512Z" fill="#000001"/>
</g>
</g>
</svg>
