<svg width="24" height="24" viewBox="0 0 24 24" fill="none" xmlns="http://www.w3.org/2000/svg">
<g id="romance-love-letter-open">
<g id="Group">
<path id="Vector" d="M21.496 11.4945H20.4985V12.4986H21.496V20.4983H22.5001V9.49951H21.496V11.4945Z" fill="#000001"/>
<path id="Vector_2" d="M21.496 20.4985H20.4985V21.496H21.496V20.4985Z" fill="#000001"/>
<path id="Vector_3" d="M21.496 8.49561H20.4985V9.49967H21.496V8.49561Z" fill="#000001"/>
<path id="Vector_4" d="M19.5011 20.4985H18.497V21.496H5.49668V20.4985H4.49918V21.496H3.49512V22.5001H20.4986V21.496H19.5011V20.4985Z" fill="#000001"/>
<path id="Vector_5" d="M18.4968 19.4941H17.4993V20.4982H18.4968V19.4941Z" fill="#000001"/>
<path id="Vector_6" d="M17.4994 18.4971H16.4954V19.4946H17.4994V18.4971Z" fill="#000001"/>
<path id="Vector_7" d="M18.4969 13.4961H16.4954V14.5002H18.4969V13.4961Z" fill="#000001"/>
<path id="Vector_8" d="M16.4953 17.4995H15.4978V18.497H16.4953V17.4995Z" fill="#000001"/>
<path id="Vector_9" d="M15.4977 16.4951H14.5002V17.4992H15.4977V16.4951Z" fill="#000001"/>
<path id="Vector_10" d="M16.4952 14.5005H14.5002V15.498H16.4952V14.5005Z" fill="#000001"/>
<path id="Vector_11" d="M15.4977 2.49756H14.5002V3.49506H15.4977V2.49756Z" fill="#000001"/>
<path id="Vector_12" d="M14.5003 8.49561H12.4987V9.49967H11.5012V8.49561H9.49967V9.49967H8.49561V11.4947H9.49967V12.4987H10.4972V13.4962H11.5012V14.5003H12.4987V13.4962H13.4962V12.4987H14.5003V11.4947H15.4978V9.49967H14.5003V8.49561Z" fill="#000001"/>
<path id="Vector_13" d="M14.5004 15.498H9.49976V16.4955H14.5004V15.498Z" fill="#000001"/>
<path id="Vector_14" d="M14.5004 1.5H9.49976V2.4975H14.5004V1.5Z" fill="#000001"/>
<path id="Vector_15" d="M9.49967 16.4951H8.49561V17.4992H9.49967V16.4951Z" fill="#000001"/>
<path id="Vector_16" d="M9.49961 14.5005H7.49805V15.498H9.49961V14.5005Z" fill="#000001"/>
<path id="Vector_17" d="M9.49967 2.49756H8.49561V3.49506H9.49967V2.49756Z" fill="#000001"/>
<path id="Vector_18" d="M8.49555 17.4995H7.49805V18.497H8.49555V17.4995Z" fill="#000001"/>
<path id="Vector_19" d="M7.49823 18.4971H6.50073V19.4946H7.49823V18.4971Z" fill="#000001"/>
<path id="Vector_20" d="M7.49814 13.4961H5.49658V14.5002H7.49814V13.4961Z" fill="#000001"/>
<path id="Vector_21" d="M6.50064 19.4941H5.49658V20.4982H6.50064V19.4941Z" fill="#000001"/>
<path id="Vector_22" d="M4.49918 12.4989H3.49512V13.4964H5.49668V5.49668H18.497V13.4964H20.4986V12.4989H19.5011V8.49574H20.4986V7.49824H19.5011V4.49918H16.4954V3.49512H15.4979V4.49918H8.49574V3.49512H7.49824V4.49918H4.49918V7.49824H3.49512V8.49574H4.49918V12.4989Z" fill="#000001"/>
<path id="Vector_23" d="M3.49506 20.4985H2.49756V21.496H3.49506V20.4985Z" fill="#000001"/>
<path id="Vector_24" d="M3.49506 8.49561H2.49756V9.49967H3.49506V8.49561Z" fill="#000001"/>
<path id="Vector_25" d="M2.4975 12.4986H3.495V11.4945H2.4975V9.49951H1.5V20.4983H2.4975V12.4986Z" fill="#000001"/>
</g>
</g>
</svg>
