<svg width="24" height="24" viewBox="0 0 24 24" fill="none" xmlns="http://www.w3.org/2000/svg">
<g id="romance-heart-lock">
<g id="Group">
<path id="Vector" d="M21.4992 9.49951H20.5017V14.5001H21.4992V9.49951Z" fill="#000001"/>
<path id="Vector_2" d="M20.5017 14.5005H19.5042V16.5021H20.5017V14.5005Z" fill="#000001"/>
<path id="Vector_3" d="M20.5017 8.50195H19.5042V9.49945H20.5017V8.50195Z" fill="#000001"/>
<path id="Vector_4" d="M19.5041 16.502H18.5V17.4995H19.5041V16.502Z" fill="#000001"/>
<path id="Vector_5" d="M18.5002 17.4995H17.5027V18.5036H18.5002V17.4995Z" fill="#000001"/>
<path id="Vector_6" d="M19.5042 7.49805H17.5027V8.50211H19.5042V7.49805Z" fill="#000001"/>
<path id="Vector_7" d="M17.5026 18.5034H16.4985V19.5009H17.5026V18.5034Z" fill="#000001"/>
<path id="Vector_8" d="M15.5011 6.50053H13.4995V7.49803H17.5026V6.50053H16.4986V3.50146H15.5011V6.50053Z" fill="#000001"/>
<path id="Vector_9" d="M16.4987 19.501H14.5037V20.4985H16.4987V19.501Z" fill="#000001"/>
<path id="Vector_10" d="M15.5012 2.49756H14.5037V3.50162H15.5012V2.49756Z" fill="#000001"/>
<path id="Vector_11" d="M13.4995 13.503H12.502V12.499H13.4995V11.5015H10.5004V12.499H9.50293V14.5005H10.5004V15.498H11.5045V18.5037H12.502V15.498H13.4995V14.5005H14.5036V12.499H13.4995V13.503Z" fill="#000001"/>
<path id="Vector_12" d="M14.5035 20.4985H12.502V21.5026H14.5035V20.4985Z" fill="#000001"/>
<path id="Vector_13" d="M13.4995 7.49805H12.502V8.50211H13.4995V7.49805Z" fill="#000001"/>
<path id="Vector_14" d="M12.5019 21.5024H11.5044V22.4999H12.5019V21.5024Z" fill="#000001"/>
<path id="Vector_15" d="M12.5019 8.50195H11.5044V9.49945H12.5019V8.50195Z" fill="#000001"/>
<path id="Vector_16" d="M11.5045 20.4985H9.50293V21.5026H11.5045V20.4985Z" fill="#000001"/>
<path id="Vector_17" d="M11.5046 7.49805H10.5005V8.50211H11.5046V7.49805Z" fill="#000001"/>
<path id="Vector_18" d="M14.5036 1.5H9.50293V2.4975H14.5036V1.5Z" fill="#000001"/>
<path id="Vector_19" d="M9.50303 19.501H7.50146V20.4985H9.50303V19.501Z" fill="#000001"/>
<path id="Vector_20" d="M9.50284 2.49756H8.49878V3.50162H9.50284V2.49756Z" fill="#000001"/>
<path id="Vector_21" d="M10.5005 7.49803V6.50053H8.49891V3.50146H7.50141V6.50053H6.50391V7.49803H10.5005Z" fill="#000001"/>
<path id="Vector_22" d="M7.50141 18.5034H6.50391V19.5009H7.50141V18.5034Z" fill="#000001"/>
<path id="Vector_23" d="M6.50382 17.4995H5.49976V18.5036H6.50382V17.4995Z" fill="#000001"/>
<path id="Vector_24" d="M6.50376 7.49805H4.5022V8.50211H6.50376V7.49805Z" fill="#000001"/>
<path id="Vector_25" d="M5.4997 16.502H4.5022V17.4995H5.4997V16.502Z" fill="#000001"/>
<path id="Vector_26" d="M4.50235 14.5005H3.49829V16.5021H4.50235V14.5005Z" fill="#000001"/>
<path id="Vector_27" d="M4.50235 8.50195H3.49829V9.49945H4.50235V8.50195Z" fill="#000001"/>
<path id="Vector_28" d="M3.49823 9.49951H2.50073V14.5001H3.49823V9.49951Z" fill="#000001"/>
</g>
</g>
</svg>
