<svg width="24" height="24" viewBox="0 0 24 24" fill="none" xmlns="http://www.w3.org/2000/svg">
<g id="school-science-dna">
<g id="Group">
<path id="Vector" d="M18.0013 9.49951V11.4945H5.99848V9.49951H5.00098V14.5001H5.99848V12.4986H18.0013V14.5001H18.9988V9.49951H18.0013Z" fill="#000001"/>
<path id="Vector_2" d="M5.99854 14.5005V15.498H6.99604V16.4955H8.9976V15.498H14.9957V16.4955H16.9973V15.498H18.0013V14.5005H5.99854Z" fill="#000001"/>
<path id="Vector_3" d="M8.0001 20.4982V19.4941H6.99604V20.4982H5.99854V22.4998H6.99604V21.4957H16.9973V22.4998H18.0013V20.4982H16.9973V19.4941H15.9998V20.4982H8.0001Z" fill="#000001"/>
<path id="Vector_4" d="M15.9996 18.4971H13.998V19.4946H15.9996V18.4971Z" fill="#000001"/>
<path id="Vector_5" d="M14.9955 16.4951H13.998V17.4992H14.9955V16.4951Z" fill="#000001"/>
<path id="Vector_6" d="M14.9955 6.49414H13.998V7.4982H14.9955V6.49414Z" fill="#000001"/>
<path id="Vector_7" d="M15.9996 4.49902H13.998V5.49652H15.9996V4.49902Z" fill="#000001"/>
<path id="Vector_8" d="M13.998 17.4995H10.0015V18.497H13.998V17.4995Z" fill="#000001"/>
<path id="Vector_9" d="M13.998 5.49658H10.0015V6.49408H13.998V5.49658Z" fill="#000001"/>
<path id="Vector_10" d="M10.0016 18.4971H8V19.4946H10.0016V18.4971Z" fill="#000001"/>
<path id="Vector_11" d="M10.0016 16.4951H8.99756V17.4992H10.0016V16.4951Z" fill="#000001"/>
<path id="Vector_12" d="M10.0016 6.49414H8.99756V7.4982H10.0016V6.49414Z" fill="#000001"/>
<path id="Vector_13" d="M10.0016 4.49902H8V5.49652H10.0016V4.49902Z" fill="#000001"/>
<path id="Vector_14" d="M15.9998 3.495V4.49906H16.9973V3.495H18.0013V1.5H16.9973V2.4975H6.99604V1.5H5.99854V3.495H6.99604V4.49906H8.0001V3.495H15.9998Z" fill="#000001"/>
<path id="Vector_15" d="M18.0013 9.49961V8.49555H16.9973V7.49805H14.9957V8.49555H8.9976V7.49805H6.99604V8.49555H5.99854V9.49961H18.0013Z" fill="#000001"/>
</g>
</g>
</svg>
