<svg width="24" height="24" viewBox="0 0 24 24" fill="none" xmlns="http://www.w3.org/2000/svg">
<g id="school-science-bag">
<g id="Group">
<path id="Vector" d="M22.5002 13.4961H21.4961V19.4942H22.5002V13.4961Z" fill="#000001"/>
<path id="Vector_2" d="M19.4946 13.4962H21.4961V12.4987H19.4946V8.49561H18.4971V21.4959H19.4946V20.4984H21.4961V19.4944H19.4946V13.4962Z" fill="#000001"/>
<path id="Vector_3" d="M18.497 6.49414H17.4995V8.4957H18.497V6.49414Z" fill="#000001"/>
<path id="Vector_4" d="M18.4969 21.4961H5.49658V22.5002H18.4969V21.4961Z" fill="#000001"/>
<path id="Vector_5" d="M17.4992 14.5005H16.4951V19.4946H17.4992V14.5005Z" fill="#000001"/>
<path id="Vector_6" d="M17.4996 5.49658H15.498V6.49408H17.4996V5.49658Z" fill="#000001"/>
<path id="Vector_7" d="M16.4952 19.4941H7.49805V20.4982H16.4952V19.4941Z" fill="#000001"/>
<path id="Vector_8" d="M8.49561 15.498V16.4955H9.49967V18.4971H10.4972V16.4955H15.4978V15.498H8.49561Z" fill="#000001"/>
<path id="Vector_9" d="M13.4961 1.5H10.4971V2.4975H13.4961V1.5Z" fill="#000001"/>
<path id="Vector_10" d="M10.497 10.4971H11.4945V11.4946H12.4986V10.4971H13.4961V9.49961H14.4936V8.49555H13.4961V7.49805H12.4986V8.49555H11.4945V7.49805H10.497V8.49555H9.49951V9.49961H10.497V10.4971Z" fill="#000001"/>
<path id="Vector_11" d="M15.4978 5.49662V4.49912H14.4937V2.49756H13.4962V4.49912H10.4972V2.49756H9.49967V4.49912H8.49561V5.49662H15.4978Z" fill="#000001"/>
<path id="Vector_12" d="M16.4952 13.4961H7.49805V14.5002H16.4952V13.4961Z" fill="#000001"/>
<path id="Vector_13" d="M8.4957 5.49658H6.49414V6.49408H8.4957V5.49658Z" fill="#000001"/>
<path id="Vector_14" d="M7.4982 14.5005H6.49414V19.4946H7.4982V14.5005Z" fill="#000001"/>
<path id="Vector_15" d="M6.49408 6.49414H5.49658V8.4957H6.49408V6.49414Z" fill="#000001"/>
<path id="Vector_16" d="M5.49662 8.49561H4.49912V12.4987H2.49756V13.4962H4.49912V19.4944H2.49756V20.4984H4.49912V21.4959H5.49662V8.49561Z" fill="#000001"/>
<path id="Vector_17" d="M2.4975 13.4961H1.5V19.4942H2.4975V13.4961Z" fill="#000001"/>
</g>
</g>
</svg>
