<svg width="24" height="24" viewBox="0 0 24 24" fill="none" xmlns="http://www.w3.org/2000/svg">
<g id="school-science-graduation-cap">
<g id="Group">
<path id="Vector" d="M21.4957 6.49414H20.4982V8.4957H18.4967V9.49977H16.4951V10.4973H18.4967V13.4963H17.4992V14.5004H18.4967V16.4954H19.4942V9.49977H20.4982V18.497H19.4942V22.5001H22.4998V18.497H21.4957V6.49414Z" fill="#000001"/>
<path id="Vector_2" d="M20.4986 5.49658H18.4971V6.49408H20.4986V5.49658Z" fill="#000001"/>
<path id="Vector_3" d="M18.497 16.4951H17.4995V17.4992H18.497V16.4951Z" fill="#000001"/>
<path id="Vector_4" d="M18.4968 7.49805H14.4937V8.49555H18.4968V7.49805Z" fill="#000001"/>
<path id="Vector_5" d="M18.4967 4.49902H16.4951V5.49652H18.4967V4.49902Z" fill="#000001"/>
<path id="Vector_6" d="M17.4996 17.4995H15.498V18.497H17.4996V17.4995Z" fill="#000001"/>
<path id="Vector_7" d="M17.4996 14.5005H15.498V15.498H17.4996V14.5005Z" fill="#000001"/>
<path id="Vector_8" d="M16.4952 10.4971H14.4937V11.4946H16.4952V10.4971Z" fill="#000001"/>
<path id="Vector_9" d="M16.4952 3.49512H14.4937V4.49918H16.4952V3.49512Z" fill="#000001"/>
<path id="Vector_10" d="M15.4977 18.4971H7.49805V19.4946H15.4977V18.4971Z" fill="#000001"/>
<path id="Vector_11" d="M15.4977 15.498H7.49805V16.4955H15.4977V15.498Z" fill="#000001"/>
<path id="Vector_12" d="M14.4935 11.4946H12.4985V12.4987H14.4935V11.4946Z" fill="#000001"/>
<path id="Vector_13" d="M14.4936 6.49414H10.4971V7.4982H14.4936V6.49414Z" fill="#000001"/>
<path id="Vector_14" d="M14.4935 2.49756H12.4985V3.49506H14.4935V2.49756Z" fill="#000001"/>
<path id="Vector_15" d="M12.4986 1.5H10.4971V2.4975H12.4986V1.5Z" fill="#000001"/>
<path id="Vector_16" d="M12.4986 12.4985H10.4971V13.496H12.4986V12.4985Z" fill="#000001"/>
<path id="Vector_17" d="M10.4972 2.49756H8.49561V3.49506H10.4972V2.49756Z" fill="#000001"/>
<path id="Vector_18" d="M10.4972 11.4946H8.49561V12.4987H10.4972V11.4946Z" fill="#000001"/>
<path id="Vector_19" d="M8.4957 3.49512H6.49414V4.49918H8.4957V3.49512Z" fill="#000001"/>
<path id="Vector_20" d="M7.49814 17.4995H5.49658V18.497H7.49814V17.4995Z" fill="#000001"/>
<path id="Vector_21" d="M7.49814 14.5005H5.49658V15.498H7.49814V14.5005Z" fill="#000001"/>
<path id="Vector_22" d="M8.4957 10.4971H6.49414V11.4946H8.4957V10.4971Z" fill="#000001"/>
<path id="Vector_23" d="M6.49402 4.49902H4.49902V5.49652H6.49402V4.49902Z" fill="#000001"/>
<path id="Vector_24" d="M5.49652 16.4951H4.49902V17.4992H5.49652V16.4951Z" fill="#000001"/>
<path id="Vector_25" d="M5.49662 14.5003V13.4962H4.49912V10.4972H6.49412V9.49967H4.49912V8.49561H2.49756V9.49967H3.49506V16.4953H4.49912V14.5003H5.49662Z" fill="#000001"/>
<path id="Vector_26" d="M4.49912 5.49658H2.49756V6.49408H4.49912V5.49658Z" fill="#000001"/>
<path id="Vector_27" d="M2.4975 6.49414H1.5V8.4957H2.4975V6.49414Z" fill="#000001"/>
</g>
</g>
</svg>
