<svg width="24" height="24" viewBox="0 0 24 24" fill="none" xmlns="http://www.w3.org/2000/svg">
<g id="search-coding">
<g id="Group">
<path id="Vector" d="M21.0038 17.0023H19.9998V16.0015H19.0023V15.004H17.9982V13.0024H17.0007V15.004H16.0032V16.0015H14.9991V17.0056H13.0042V18.0031H14.9991V19.0006H16.0032V20.0046H17.0007V21.0021H17.9982V21.9996H21.0038V21.0021H22.0013V18.0031H21.0038V17.0023ZM21.0038 20.0013H19.9998V18.9973H19.0023V17.9998H17.9982V17.0023H19.0023V17.9998H19.9998V18.9973H21.0038V20.0013Z" fill="#000001"/>
<path id="Vector_2" d="M19.0022 7.99854H17.9982V12.9992H19.0022V7.99854Z" fill="#000001"/>
<path id="Vector_3" d="M17.9981 5.99707H17.0006V7.99863H17.9981V5.99707Z" fill="#000001"/>
<path id="Vector_4" d="M17.0007 4.99951H16.0032V5.99701H17.0007V4.99951Z" fill="#000001"/>
<path id="Vector_5" d="M16.0032 10.0002H14.9991V10.9977H16.0032V10.0002Z" fill="#000001"/>
<path id="Vector_6" d="M16.0032 4.00195H14.9991V4.99945H16.0032V4.00195Z" fill="#000001"/>
<path id="Vector_7" d="M14.9991 10.9976H14.0016V12.0016H14.9991V10.9976Z" fill="#000001"/>
<path id="Vector_8" d="M14.9991 8.99609H14.0016V10.0002H14.9991V8.99609Z" fill="#000001"/>
<path id="Vector_9" d="M14.0016 12.0017H13.0042V12.9992H14.0016V12.0017Z" fill="#000001"/>
<path id="Vector_10" d="M14.0016 7.99854H13.0042V8.99604H14.0016V7.99854Z" fill="#000001"/>
<path id="Vector_11" d="M14.9991 2.99805H13.0042V4.00211H14.9991V2.99805Z" fill="#000001"/>
<path id="Vector_12" d="M13.004 17.9998H8.00342V18.9973H13.004V17.9998Z" fill="#000001"/>
<path id="Vector_13" d="M12.0001 7.99854H11.0026V10.0001H12.0001V7.99854Z" fill="#000001"/>
<path id="Vector_14" d="M11.0025 10.0002H9.99841V10.9977H11.0025V10.0002Z" fill="#000001"/>
<path id="Vector_15" d="M9.99848 10.9976H9.00098V12.9991H9.99848V10.9976Z" fill="#000001"/>
<path id="Vector_16" d="M13.004 2.00049H8.00342V2.99799H13.004V2.00049Z" fill="#000001"/>
<path id="Vector_17" d="M8.00352 17.0024H6.00195V17.9999H8.00352V17.0024Z" fill="#000001"/>
<path id="Vector_18" d="M8.00345 12.0017H6.99939V12.9992H8.00345V12.0017Z" fill="#000001"/>
<path id="Vector_19" d="M8.00345 7.99854H6.99939V8.99604H8.00345V7.99854Z" fill="#000001"/>
<path id="Vector_20" d="M8.00352 2.99805H6.00195V4.00211H8.00352V2.99805Z" fill="#000001"/>
<path id="Vector_21" d="M6.99945 10.9976H6.00195V12.0016H6.99945V10.9976Z" fill="#000001"/>
<path id="Vector_22" d="M6.99945 8.99609H6.00195V10.0002H6.99945V8.99609Z" fill="#000001"/>
<path id="Vector_23" d="M6.00189 15.9983H5.00439V17.0024H6.00189V15.9983Z" fill="#000001"/>
<path id="Vector_24" d="M6.00189 10.0002H5.00439V10.9977H6.00189V10.0002Z" fill="#000001"/>
<path id="Vector_25" d="M6.00189 4.00195H5.00439V4.99945H6.00189V4.00195Z" fill="#000001"/>
<path id="Vector_26" d="M5.00443 15.0007H4.00037V15.9982H5.00443V15.0007Z" fill="#000001"/>
<path id="Vector_27" d="M5.00443 4.99951H4.00037V5.99701H5.00443V4.99951Z" fill="#000001"/>
<path id="Vector_28" d="M4.00031 12.9993H3.00281V15.0008H4.00031V12.9993Z" fill="#000001"/>
<path id="Vector_29" d="M4.00031 5.99707H3.00281V7.99863H4.00031V5.99707Z" fill="#000001"/>
<path id="Vector_30" d="M3.00284 7.99854H1.99878V12.9992H3.00284V7.99854Z" fill="#000001"/>
</g>
</g>
</svg>
