<svg width="24" height="24" viewBox="0 0 24 24" fill="none" xmlns="http://www.w3.org/2000/svg">
<g id="search-user">
<g id="Group">
<path id="Vector" d="M21.0036 17.0007H19.9995V16.0032H19.002V14.9991H17.998V13.0042H17.0005V14.9991H16.003V16.0032H14.9989V17.0007H13.0039V17.9982H14.9989V19.0023H16.003V19.9998H17.0005V21.0038H17.998V22.0013H21.0036V21.0038H22.0011V17.9982H21.0036V17.0007ZM21.0036 19.9998H19.9995V19.0023H19.002V17.9982H17.998V17.0007H19.002V17.9982H19.9995V19.0023H21.0036V19.9998Z" fill="#000001"/>
<path id="Vector_2" d="M19.0021 8.00342H17.998V13.004H19.0021V8.00342Z" fill="#000001"/>
<path id="Vector_3" d="M17.998 6.00195H17.0005V8.00352H17.998V6.00195Z" fill="#000001"/>
<path id="Vector_4" d="M17.0004 5.00439H16.0029V6.00189H17.0004V5.00439Z" fill="#000001"/>
<path id="Vector_5" d="M16.0031 4.00024H14.999V5.00431H16.0031V4.00024Z" fill="#000001"/>
<path id="Vector_6" d="M14.0014 14.0017H13.0039V14.9992H14.0014V14.0017Z" fill="#000001"/>
<path id="Vector_7" d="M14.9989 3.00293H13.0039V4.00043H14.9989V3.00293Z" fill="#000001"/>
<path id="Vector_8" d="M13.004 14.999H8.00342V16.0031H13.004V14.999Z" fill="#000001"/>
<path id="Vector_9" d="M13.0041 9.99854H12V12.0001H13.0041V9.99854Z" fill="#000001"/>
<path id="Vector_10" d="M13.004 17.998H8.00342V19.0021H13.004V17.998Z" fill="#000001"/>
<path id="Vector_11" d="M11.9996 13.0042H9.00049V14.0016H11.9996V13.0042Z" fill="#000001"/>
<path id="Vector_12" d="M13.004 1.99878H8.00342V3.00284H13.004V1.99878Z" fill="#000001"/>
<path id="Vector_13" d="M9.00092 9.99854H8.00342V12.0001H9.00092V9.99854Z" fill="#000001"/>
<path id="Vector_14" d="M8.00303 17.0007H6.00146V17.9982H8.00303V17.0007Z" fill="#000001"/>
<path id="Vector_15" d="M8.00309 14.0017H6.99902V14.9992H8.00309V14.0017Z" fill="#000001"/>
<path id="Vector_16" d="M8.00303 3.00293H6.00146V4.00043H8.00303V3.00293Z" fill="#000001"/>
<path id="Vector_17" d="M6.99896 9.00096H8.00303V8.00346H13.0037V9.00096H14.0012V14.0016H14.9987V6.99939H14.0012V6.00189H13.0037V5.00439H8.00303V6.00189H6.99896V6.99939H6.00146V14.0016H6.99896V9.00096Z" fill="#000001"/>
<path id="Vector_18" d="M6.00162 16.0032H4.99756V17.0007H6.00162V16.0032Z" fill="#000001"/>
<path id="Vector_19" d="M6.00162 4.00024H4.99756V5.00431H6.00162V4.00024Z" fill="#000001"/>
<path id="Vector_20" d="M4.9975 14.999H4V16.0031H4.9975V14.999Z" fill="#000001"/>
<path id="Vector_21" d="M4.9975 5.00439H4V6.00189H4.9975V5.00439Z" fill="#000001"/>
<path id="Vector_22" d="M3.99994 13.0042H3.00244V14.9991H3.99994V13.0042Z" fill="#000001"/>
<path id="Vector_23" d="M3.99994 6.00195H3.00244V8.00352H3.99994V6.00195Z" fill="#000001"/>
<path id="Vector_24" d="M3.0026 8.00342H1.99854V13.004H3.0026V8.00342Z" fill="#000001"/>
</g>
</g>
</svg>
