<svg width="24" height="24" viewBox="0 0 24 24" fill="none" xmlns="http://www.w3.org/2000/svg">
<g id="send-email">
<g id="Group">
<path id="Vector" d="M13.5029 5.50317V6.50067H12.5054V8.50224H13.5029V7.49817H14.5004V6.50067H21.5026V7.49817H20.5051V8.50224H21.5026V9.49974H22.5001V5.50317H13.5029Z" fill="#000001"/>
<path id="Vector_2" d="M21.5024 9.49976H20.5049V11.5013H21.5024V9.49976Z" fill="#000001"/>
<path id="Vector_3" d="M19.5011 12.4987H11.5014V11.5012H10.5039V13.5028H20.5052V11.5012H19.5011V12.4987Z" fill="#000001"/>
<path id="Vector_4" d="M20.505 8.5022H19.501V9.4997H20.505V8.5022Z" fill="#000001"/>
<path id="Vector_5" d="M19.5009 3.50171H18.5034V4.49921H19.5009V3.50171Z" fill="#000001"/>
<path id="Vector_6" d="M2.50406 14.5005V3.50171H1.5V17.4995H2.50406V18.5036H7.50469V19.5011H8.50219V18.5036H12.5053V19.5011H13.5028V18.5036H18.5034V17.4995H19.5009V14.5005H2.50406Z" fill="#000001"/>
<path id="Vector_7" d="M19.501 9.49976H16.502V10.5038H19.501V9.49976Z" fill="#000001"/>
<path id="Vector_8" d="M16.5019 8.5022H15.5044V9.4997H16.5019V8.5022Z" fill="#000001"/>
<path id="Vector_9" d="M15.5046 7.49829H14.5005V8.50235H15.5046V7.49829Z" fill="#000001"/>
<path id="Vector_10" d="M7.50455 20.4985V19.501H6.50049V21.5025H14.5002V19.501H13.5027V20.4985H7.50455Z" fill="#000001"/>
<path id="Vector_11" d="M12.5055 8.5022H11.5015V11.5013H12.5055V8.5022Z" fill="#000001"/>
<path id="Vector_12" d="M10.5039 8.5022H7.50488V9.4997H10.5039V8.5022Z" fill="#000001"/>
<path id="Vector_13" d="M9.49955 10.5039H6.50049V11.5014H9.49955V10.5039Z" fill="#000001"/>
<path id="Vector_14" d="M9.49955 6.50073H6.50049V7.49823H9.49955V6.50073Z" fill="#000001"/>
<path id="Vector_15" d="M6.50043 8.5022H5.50293V9.4997H6.50043V8.5022Z" fill="#000001"/>
<path id="Vector_16" d="M5.50309 10.5039H4.49902V11.5014H5.50309V10.5039Z" fill="#000001"/>
<path id="Vector_17" d="M5.50309 6.50073H4.49902V7.49823H5.50309V6.50073Z" fill="#000001"/>
<path id="Vector_18" d="M18.5033 2.49756H2.50391V3.50162H18.5033V2.49756Z" fill="#000001"/>
</g>
</g>
</svg>
