<svg width="24" height="24" viewBox="0 0 24 24" fill="none" xmlns="http://www.w3.org/2000/svg">
<g id="shopping-shipping-products-gift">
<g id="Group">
<path id="Vector" d="M22.4999 8.5022H21.5024V9.4997H22.4999V8.5022Z" fill="#000001"/>
<path id="Vector_2" d="M22.4999 5.50317H21.5024V6.50067H22.4999V5.50317Z" fill="#000001"/>
<path id="Vector_3" d="M21.5026 6.50073H20.4985V7.50479H21.5026V6.50073Z" fill="#000001"/>
<path id="Vector_4" d="M21.5026 4.49902H20.4985V5.50309H21.5026V4.49902Z" fill="#000001"/>
<path id="Vector_5" d="M19.5008 12.4987H4.49896V10.5037H3.50146V13.5027H4.49896V19.5008H5.50303V18.5033H7.50459V21.5024H6.50053V19.5008H5.50303V22.4999H18.5033V19.5008H17.4993V21.5024H16.5018V18.5033H18.5033V19.5008H19.5008V13.5027H20.4983V10.5037H19.5008V12.4987ZM7.50459 17.4993H5.50303V15.5043H7.50459V17.4993ZM7.50459 14.5002H5.50303V13.5027H7.50459V14.5002ZM10.5037 21.5024H8.50209V18.5033H10.5037V21.5024ZM10.5037 17.4993H8.50209V15.5043H10.5037V17.4993ZM10.5037 14.5002H8.50209V13.5027H10.5037V14.5002ZM15.5043 21.5024H13.5027V18.5033H15.5043V21.5024ZM15.5043 17.4993H13.5027V15.5043H15.5043V17.4993ZM15.5043 14.5002H13.5027V13.5027H15.5043V14.5002ZM18.5033 17.4993H16.5018V15.5043H18.5033V17.4993ZM18.5033 14.5002H16.5018V13.5027H18.5033V14.5002Z" fill="#000001"/>
<path id="Vector_6" d="M20.4985 5.50317H19.501V6.50067H20.4985V5.50317Z" fill="#000001"/>
<path id="Vector_7" d="M18.5033 6.50073H17.4993V8.5023H18.5033V6.50073Z" fill="#000001"/>
<path id="Vector_8" d="M19.501 1.5H17.4995V2.50406H16.502V4.49906H17.4995V3.50156H18.5035V2.50406H19.501V1.5Z" fill="#000001"/>
<path id="Vector_9" d="M17.4993 5.50317H14.5002V6.50067H17.4993V5.50317Z" fill="#000001"/>
<path id="Vector_10" d="M14.5004 6.50073H13.5029V7.50479H14.5004V6.50073Z" fill="#000001"/>
<path id="Vector_11" d="M14.5004 3.50146H13.5029V4.49896H14.5004V3.50146Z" fill="#000001"/>
<path id="Vector_12" d="M12.4987 6.50073H11.5012V7.50479H12.4987V6.50073Z" fill="#000001"/>
<path id="Vector_13" d="M10.5038 6.50073H9.49976V7.50479H10.5038V6.50073Z" fill="#000001"/>
<path id="Vector_14" d="M9.4997 2.50415H8.5022V3.50165H9.4997V2.50415Z" fill="#000001"/>
<path id="Vector_15" d="M9.49979 5.50317H6.50073V6.50067H9.49979V5.50317Z" fill="#000001"/>
<path id="Vector_16" d="M17.4993 9.49964V8.50214H16.5018V9.49964H15.5043V8.50214H16.5018V7.50464H14.5003V8.50214H13.5028V7.50464H12.4987V9.49964H11.5012V7.50464H10.5037V8.50214H9.49965V7.50464H7.50465V8.50214H8.50215V9.49964H7.50465V8.50214H6.50059V9.49964H4.49902V10.5037H19.5009V9.49964H17.4993Z" fill="#000001"/>
<path id="Vector_17" d="M6.50067 6.50073H5.50317V8.5023H6.50067V6.50073Z" fill="#000001"/>
<path id="Vector_18" d="M4.49896 6.50073H3.50146V7.50479H4.49896V6.50073Z" fill="#000001"/>
<path id="Vector_19" d="M3.50165 1.5V2.50406H2.50415V3.50156H3.50165V4.49906H4.49915V3.50156H5.50321V2.50406H4.49915V1.5H3.50165Z" fill="#000001"/>
<path id="Vector_20" d="M3.50165 7.50464H2.50415V8.50214H3.50165V7.50464Z" fill="#000001"/>
<path id="Vector_21" d="M3.50165 5.50317H2.50415V6.50067H3.50165V5.50317Z" fill="#000001"/>
<path id="Vector_22" d="M2.50406 6.50073H1.5V7.50479H2.50406V6.50073Z" fill="#000001"/>
</g>
</g>
</svg>
