<svg width="24" height="24" viewBox="0 0 24 24" fill="none" xmlns="http://www.w3.org/2000/svg">
<g id="shopping-shipping-cart">
<g id="Group">
<path id="Vector" d="M22.4999 8.5022H21.4958V11.5013H22.4999V8.5022Z" fill="#000001"/>
<path id="Vector_2" d="M21.496 11.5012H20.4985V14.5003H21.496V11.5012Z" fill="#000001"/>
<path id="Vector_3" d="M20.4985 14.5002H19.501V16.5018H20.4985V14.5002Z" fill="#000001"/>
<path id="Vector_4" d="M19.5009 10.5037H18.4968V13.5027H19.5009V10.5037Z" fill="#000001"/>
<path id="Vector_5" d="M19.501 16.502H9.49976V17.4995H19.501V16.502Z" fill="#000001"/>
<path id="Vector_6" d="M18.4968 13.5029H17.4993V15.4979H18.4968V13.5029Z" fill="#000001"/>
<path id="Vector_7" d="M15.4977 10.5037H14.5002V15.4977H15.4977V10.5037Z" fill="#000001"/>
<path id="Vector_8" d="M12.4987 13.5029H11.4946V15.4979H12.4987V13.5029Z" fill="#000001"/>
<path id="Vector_9" d="M11.4946 10.5037H10.4971V13.5027H11.4946V10.5037Z" fill="#000001"/>
<path id="Vector_10" d="M9.49967 20.4984V21.5025H10.4972V22.5H12.4987V21.5025H13.4962V20.4984H15.4978V21.5025H16.4953V22.5H18.4969V21.5025H19.5009V20.4984H21.4959V19.5009H18.4969V18.5034H16.4953V19.5009H12.4987V18.5034H10.4972V19.5009H8.49561V20.4984H9.49967Z" fill="#000001"/>
<path id="Vector_11" d="M9.49967 17.4993H8.49561V18.5033H9.49967V17.4993Z" fill="#000001"/>
<path id="Vector_12" d="M9.49967 13.5029H8.49561V16.502H9.49967V13.5029Z" fill="#000001"/>
<path id="Vector_13" d="M8.49555 18.5034H7.49805V19.5009H8.49555V18.5034Z" fill="#000001"/>
<path id="Vector_14" d="M8.49555 10.5037H7.49805V13.5027H8.49555V10.5037Z" fill="#000001"/>
<path id="Vector_15" d="M7.49823 10.5037V8.50211H21.496V7.49805H6.50073V10.5037H7.49823Z" fill="#000001"/>
<path id="Vector_16" d="M6.50064 5.50317H5.49658V7.49817H6.50064V5.50317Z" fill="#000001"/>
<path id="Vector_17" d="M5.49652 3.50146H4.49902V5.50303H5.49652V3.50146Z" fill="#000001"/>
<path id="Vector_18" d="M4.49918 2.49756H3.49512V3.50162H4.49918V2.49756Z" fill="#000001"/>
<path id="Vector_19" d="M3.495 1.5H1.5V2.4975H3.495V1.5Z" fill="#000001"/>
</g>
</g>
</svg>
