<svg width="24" height="24" viewBox="0 0 24 24" fill="none" xmlns="http://www.w3.org/2000/svg">
<g id="shopping-shipping-warehouse-truck-delivery">
<g id="Group">
<path id="Vector" d="M21.5026 16.5017H20.4985V19.5007H21.5026V18.5032H22.5001V12.4985H21.5026V16.5017Z" fill="#000001"/>
<path id="Vector_2" d="M21.5026 11.5012H20.4985V12.4987H21.5026V11.5012Z" fill="#000001"/>
<path id="Vector_3" d="M20.4983 15.4978H17.4993V16.5019H20.4983V15.4978Z" fill="#000001"/>
<path id="Vector_4" d="M20.4983 19.5007H17.4993V20.4982H20.4983V19.5007Z" fill="#000001"/>
<path id="Vector_5" d="M19.5009 17.4993H18.5034V18.5033H19.5009V17.4993Z" fill="#000001"/>
<path id="Vector_6" d="M18.5034 10.497H16.5019V9.49949H15.5044V8.50199H13.5028V9.49949H12.4988V13.5026H10.5038V12.4986H11.5013V11.5011H8.5022V12.4986H9.4997V15.4976H10.5038V14.5001H13.5028V12.4986H14.5003V11.5011H20.4984V10.497H19.5009V5.50293H18.5034V10.497Z" fill="#000001"/>
<path id="Vector_7" d="M18.5033 4.49902H17.4993V5.50309H18.5033V4.49902Z" fill="#000001"/>
<path id="Vector_8" d="M17.4993 16.5019H16.5018V17.4994H15.5043V15.4978H14.5002V18.5034H16.5018V19.5009H17.4993V16.5019Z" fill="#000001"/>
<path id="Vector_9" d="M14.5004 18.5034H13.5029V19.5009H14.5004V18.5034Z" fill="#000001"/>
<path id="Vector_10" d="M14.5004 14.5002H13.5029V15.4977H14.5004V14.5002Z" fill="#000001"/>
<path id="Vector_11" d="M17.4993 3.50146H11.5012V4.49896H17.4993V3.50146Z" fill="#000001"/>
<path id="Vector_12" d="M13.5027 19.5007H10.5037V20.4982H13.5027V19.5007Z" fill="#000001"/>
<path id="Vector_13" d="M12.4987 16.5017H11.5012V17.4992H12.4987V16.5017Z" fill="#000001"/>
<path id="Vector_14" d="M11.5012 4.49902H10.5037V5.50309H11.5012V4.49902Z" fill="#000001"/>
<path id="Vector_15" d="M10.5038 18.5034H9.49976V19.5009H10.5038V18.5034Z" fill="#000001"/>
<path id="Vector_16" d="M10.5038 5.50293H9.49976V6.50043H10.5038V5.50293Z" fill="#000001"/>
<path id="Vector_17" d="M9.49964 15.4978H8.50214V17.4994H7.50464V18.5034H9.49964V15.4978Z" fill="#000001"/>
<path id="Vector_18" d="M9.4997 6.50049H8.5022V8.50205H9.4997V6.50049Z" fill="#000001"/>
<path id="Vector_19" d="M8.50214 8.5022H7.50464V10.4972H8.50214V8.5022Z" fill="#000001"/>
<path id="Vector_20" d="M7.50469 10.4971H6.50062V15.4978H5.50312V4.49902H3.50156V13.5028H1.5V14.5003H3.50156V17.4993H1.5V18.5034H4.49906V17.4993H5.50312V16.5018H6.50062V17.4993H7.50469V10.4971Z" fill="#000001"/>
</g>
</g>
</svg>
