<svg width="24" height="24" viewBox="0 0 24 24" fill="none" xmlns="http://www.w3.org/2000/svg">
<g id="shopping-shipping-shop">
<g id="Group">
<path id="Vector" d="M21.4959 9.49965H18.4969V7.49809H21.4959V5.50309H20.4984V6.50059H18.4969V5.50309H17.4994V6.50059H14.4937V4.49902H13.4963V6.50059H10.4972V4.49902H9.49969V6.50059H6.49406V5.50309H5.49656V6.50059H3.495V5.50309H2.4975V7.49809H5.49656V9.49965H2.4975V7.49809H1.5V10.5037H2.4975V21.5025H1.5V22.5H22.5V21.5025H21.4959V10.5037H22.5V7.49809H21.4959V9.49965ZM14.4937 7.49809H17.4994V9.49965H14.4937V7.49809ZM10.4972 7.49809H13.4963V9.49965H10.4972V7.49809ZM6.49406 7.49809H9.49969V9.49965H6.49406V7.49809ZM20.4984 21.5025H11.4947V12.4987H10.4972V21.5025H5.49656V12.4987H4.49906V21.5025H3.495V10.5037H20.4984V21.5025Z" fill="#000001"/>
<path id="Vector_2" d="M20.4984 4.49902H19.4944V5.50309H20.4984V4.49902Z" fill="#000001"/>
<path id="Vector_3" d="M19.4944 12.4987H18.4969V14.5003H16.4953V12.4987H18.4969V11.5012H13.4963V12.4987H15.4978V14.5003H13.4963V12.4987H12.4988V18.5034H19.4944V12.4987ZM15.4978 17.4993H13.4963V15.4978H15.4978V17.4993ZM18.4969 17.4993H16.4953V15.4978H18.4969V17.4993Z" fill="#000001"/>
<path id="Vector_4" d="M19.4943 3.50146H18.4968V4.49896H19.4943V3.50146Z" fill="#000001"/>
<path id="Vector_5" d="M17.4994 4.49902H16.4954V5.50309H17.4994V4.49902Z" fill="#000001"/>
<path id="Vector_6" d="M10.4972 11.5012H5.49658V12.4987H10.4972V11.5012Z" fill="#000001"/>
<path id="Vector_7" d="M7.4982 15.4978H6.49414V17.4994H7.4982V15.4978Z" fill="#000001"/>
<path id="Vector_8" d="M7.4982 4.49902H6.49414V5.50309H7.4982V4.49902Z" fill="#000001"/>
<path id="Vector_9" d="M7.49814 4.49906H8.49564V3.50156H10.4972V4.49906H11.4947V3.50156H12.4988V4.49906H13.4963V3.50156H15.4978V4.49906H16.4953V3.50156H18.4969V1.5H5.49658V3.50156H7.49814V4.49906Z" fill="#000001"/>
<path id="Vector_10" d="M5.49652 3.50146H4.49902V4.49896H5.49652V3.50146Z" fill="#000001"/>
<path id="Vector_11" d="M4.49918 4.49902H3.49512V5.50309H4.49918V4.49902Z" fill="#000001"/>
</g>
</g>
</svg>
