<svg width="24" height="24" viewBox="0 0 24 24" fill="none" xmlns="http://www.w3.org/2000/svg">
<g id="shopping-shipping-upload-information">
<g id="Group">
<path id="Vector" d="M22.4999 3.50146H21.5024V20.5049H22.4999V3.50146Z" fill="#000001"/>
<path id="Vector_2" d="M21.5026 20.5049H20.4985V21.5024H21.5026V20.5049Z" fill="#000001"/>
<path id="Vector_3" d="M21.5026 2.50415H20.4985V3.50165H21.5026V2.50415Z" fill="#000001"/>
<path id="Vector_4" d="M20.4983 21.5024H3.50146V22.4999H20.4983V21.5024Z" fill="#000001"/>
<path id="Vector_5" d="M18.5035 8.5023H17.4994V7.50479H16.5019V6.50073H15.5044V7.50479H14.5003V8.5023H13.5028V9.49979H12.4988V10.5039H14.5003V15.5045H17.4994V10.5039H19.501V9.49979H18.5035V8.5023Z" fill="#000001"/>
<path id="Vector_6" d="M18.5035 17.4993H5.50317V18.5033H18.5035V17.4993Z" fill="#000001"/>
<path id="Vector_7" d="M6.50059 15.5045H9.49965V10.5039H11.5012V9.49979H10.5037V8.5023H9.49965V7.50479H8.50215V6.50073H7.50465V7.50479H6.50059V8.5023H5.50309V9.49979H4.49902V10.5039H6.50059V15.5045Z" fill="#000001"/>
<path id="Vector_8" d="M20.4983 1.5H3.50146V2.50406H20.4983V1.5Z" fill="#000001"/>
<path id="Vector_9" d="M3.50165 20.5049H2.50415V21.5024H3.50165V20.5049Z" fill="#000001"/>
<path id="Vector_10" d="M3.50165 2.50415H2.50415V3.50165H3.50165V2.50415Z" fill="#000001"/>
<path id="Vector_11" d="M2.50406 3.50146H1.5V20.5049H2.50406V3.50146Z" fill="#000001"/>
</g>
</g>
</svg>
