<svg width="24" height="24" viewBox="0 0 24 24" fill="none" xmlns="http://www.w3.org/2000/svg">
<g id="shopping-shipping-delivery-person-motorcycle">
<g id="Group">
<path id="Vector" d="M22.4999 15.0022H21.5024V18.0013H22.4999V15.0022Z" fill="#000001"/>
<path id="Vector_2" d="M12.4987 2.00195V10.0016H11.5012V10.9991H10.5037V13.0007H11.5012V15.0023H12.4987V13.0007H19.5008V13.9982H20.4983V13.0007H21.5024V10.9991H22.4999V2.00195H12.4987ZM21.5024 10.0016H13.5027V2.99945H16.5018V5.00102H18.5033V2.99945H21.5024V10.0016Z" fill="#000001"/>
<path id="Vector_3" d="M21.5026 13.9983H20.4985V15.0024H21.5026V13.9983Z" fill="#000001"/>
<path id="Vector_4" d="M20.4985 15.9997H19.501V18.0013H13.5029V15.9997H12.4988V16.9972H11.5013V15.0022H10.5038V16.9972H8.50224V18.0013H5.50317V18.9988H8.50224V20.0028H9.49974V18.9988H13.5029V20.0028H14.5004V18.9988H19.501V20.0028H20.4985V18.9988H21.5025V18.0013H20.4985V15.9997Z" fill="#000001"/>
<path id="Vector_5" d="M20.4985 5.99854H19.501V7.0026H20.4985V5.99854Z" fill="#000001"/>
<path id="Vector_6" d="M19.5009 20.0029H18.5034V21.0004H19.5009V20.0029Z" fill="#000001"/>
<path id="Vector_7" d="M19.5009 15.0022H18.5034V15.9997H19.5009V15.0022Z" fill="#000001"/>
<path id="Vector_8" d="M20.4983 8H17.4993V8.9975H20.4983V8Z" fill="#000001"/>
<path id="Vector_9" d="M18.5033 5.99854H17.4993V7.0026H18.5033V5.99854Z" fill="#000001"/>
<path id="Vector_10" d="M18.5035 21.0005H15.5044V21.998H18.5035V21.0005Z" fill="#000001"/>
<path id="Vector_11" d="M17.4994 15.9998H15.5044V16.9973H17.4994V15.9998Z" fill="#000001"/>
<path id="Vector_12" d="M18.5034 13.9983H14.5002V15.0024H18.5034V13.9983Z" fill="#000001"/>
<path id="Vector_13" d="M15.5043 20.0029H14.5002V21.0004H15.5043V20.0029Z" fill="#000001"/>
<path id="Vector_14" d="M14.5004 15.0022H13.5029V15.9997H14.5004V15.0022Z" fill="#000001"/>
<path id="Vector_15" d="M8.50214 20.0029H7.50464V21.0004H8.50214V20.0029Z" fill="#000001"/>
<path id="Vector_16" d="M7.50479 15.0022H6.50073V15.9997H7.50479V16.9972H8.5023V8.99756H7.50479V15.0022Z" fill="#000001"/>
<path id="Vector_17" d="M7.50474 8.00004H8.50224V8.99754H9.49974V8.00004H11.5013V7.00254H9.49974V5.99848H8.50224V5.00098H5.50317V5.99848H7.50474V8.00004Z" fill="#000001"/>
<path id="Vector_18" d="M7.50465 21.0005H4.49902V21.998H7.50465V21.0005Z" fill="#000001"/>
<path id="Vector_19" d="M6.50053 7.00269H5.50303V8.99769H3.50146V10.0017H5.50303V10.9992H6.50053V7.00269Z" fill="#000001"/>
<path id="Vector_20" d="M5.50309 10.999H4.49902V13.0006H5.50309V10.999Z" fill="#000001"/>
<path id="Vector_21" d="M5.50303 5.99854H3.50146V7.0026H5.50303V5.99854Z" fill="#000001"/>
<path id="Vector_22" d="M4.49896 20.0029H3.50146V21.0004H4.49896V20.0029Z" fill="#000001"/>
<path id="Vector_23" d="M6.50071 15.0023V13.9982H4.49915V13.0007H3.50165V13.9982H2.50415V15.0023H6.50071Z" fill="#000001"/>
<path id="Vector_24" d="M5.50312 18.0013V16.9972H2.50406V15.0022H1.5V18.0013H2.50406V20.0028H3.50156V18.0013H5.50312Z" fill="#000001"/>
<path id="Vector_25" d="M3.50165 7.00269H2.50415V8.99769H3.50165V7.00269Z" fill="#000001"/>
</g>
</g>
</svg>
