<svg width="24" height="24" viewBox="0 0 24 24" fill="none" xmlns="http://www.w3.org/2000/svg">
<g id="shopping-shipping-barcode">
<g id="Group">
<path id="Vector" d="M1.99878 13.0039H22.0013V10.0049H1.99878V13.0039ZM3.00284 11.0024H21.0038V11.9999H3.00284V11.0024Z" fill="#000001"/>
<path id="Vector_2" d="M21.0038 14.0015H19.9998V19.9996H21.0038V14.0015Z" fill="#000001"/>
<path id="Vector_3" d="M21.0038 4.00024H19.9998V9.00087H21.0038V4.00024Z" fill="#000001"/>
<path id="Vector_4" d="M19.0021 14.0015H18.0046V19.9996H19.0021V14.0015Z" fill="#000001"/>
<path id="Vector_5" d="M19.0021 4.00024H18.0046V9.00087H19.0021V4.00024Z" fill="#000001"/>
<path id="Vector_6" d="M17.0006 4.00024H14.999V9.00087H17.0006V4.00024Z" fill="#000001"/>
<path id="Vector_7" d="M17.0006 14.0015H14.999V19.9996H17.0006V14.0015Z" fill="#000001"/>
<path id="Vector_8" d="M14.0016 14.0015H13.0042V19.9996H14.0016V14.0015Z" fill="#000001"/>
<path id="Vector_9" d="M14.0016 4.00024H13.0042V9.00087H14.0016V4.00024Z" fill="#000001"/>
<path id="Vector_10" d="M10.005 4.00024H8.00342V9.00087H10.005V4.00024Z" fill="#000001"/>
<path id="Vector_11" d="M10.005 14.0015H8.00342V19.9996H10.005V14.0015Z" fill="#000001"/>
<path id="Vector_12" d="M6.99945 14.0015H6.00195V19.9996H6.99945V14.0015Z" fill="#000001"/>
<path id="Vector_13" d="M6.99945 4.00024H6.00195V9.00087H6.99945V4.00024Z" fill="#000001"/>
<path id="Vector_14" d="M5.00449 4.00024H3.00293V9.00087H5.00449V4.00024Z" fill="#000001"/>
<path id="Vector_15" d="M5.00449 14.0015H3.00293V19.9996H5.00449V14.0015Z" fill="#000001"/>
</g>
</g>
</svg>
