<svg width="24" height="24" viewBox="0 0 24 24" fill="none" xmlns="http://www.w3.org/2000/svg">
<g id="shopping-shipping-delivery-truck">
<g id="Group">
<path id="Vector" d="M21.5025 12.5021V11.498H20.4984V10.5005H19.5009V9.49646H18.5034V11.498H17.4994V12.5021H16.5019V9.49646H18.5034V8.49896H13.5028V7.50146H12.4988V14.4971H2.50406V11.498H1.5V18.5002H2.50406V15.5012H12.4988V18.5002H8.50219V17.4962H7.49813V20.5018H8.50219V19.4977H14.5003V20.5018H15.5044V17.4962H14.5003V18.5002H13.5028V9.49646H15.5044V13.4996H16.5019V14.4971H21.5025V18.5002H22.5V12.5021H21.5025Z" fill="#000001"/>
<path id="Vector_2" d="M19.5009 17.4961H18.5034V20.5017H19.5009V19.4977H21.5025V18.5002H19.5009V17.4961Z" fill="#000001"/>
<path id="Vector_3" d="M18.5035 20.5017H15.5044V21.4992H18.5035V20.5017Z" fill="#000001"/>
<path id="Vector_4" d="M17.4995 18.5H16.502V19.4975H17.4995V18.5Z" fill="#000001"/>
<path id="Vector_5" d="M18.5035 16.4985H15.5044V17.496H18.5035V16.4985Z" fill="#000001"/>
<path id="Vector_6" d="M10.5038 5.4997V9.49626H9.49976V10.5003H11.5013V4.5022H9.49976V5.4997H10.5038Z" fill="#000001"/>
<path id="Vector_7" d="M9.49961 5.49976H7.49805V6.49726H9.49961V5.49976Z" fill="#000001"/>
<path id="Vector_8" d="M7.49817 12.502V11.4979H9.49974V10.5004H7.49817V6.49731H5.50317V7.50138H6.50067V11.4979H5.50317V12.502H7.49817Z" fill="#000001"/>
<path id="Vector_9" d="M9.49961 3.49829H7.49805V4.50235H9.49961V3.49829Z" fill="#000001"/>
<path id="Vector_10" d="M7.49809 16.4985H4.49902V17.496H7.49809V16.4985Z" fill="#000001"/>
<path id="Vector_11" d="M7.49817 2.50073H5.50317V3.49823H7.49817V2.50073Z" fill="#000001"/>
<path id="Vector_12" d="M7.49809 20.5017H4.49902V21.4992H7.49809V20.5017Z" fill="#000001"/>
<path id="Vector_13" d="M6.50067 18.5H5.50317V19.4975H6.50067V18.5Z" fill="#000001"/>
<path id="Vector_14" d="M5.50303 10.5005H3.50146V11.498H5.50303V10.5005Z" fill="#000001"/>
<path id="Vector_15" d="M5.50303 3.49829H3.50146V4.50235H5.50303V3.49829Z" fill="#000001"/>
<path id="Vector_16" d="M4.49915 17.4961H3.50165V18.5002H2.50415V19.4977H3.50165V20.5017H4.49915V17.4961Z" fill="#000001"/>
<path id="Vector_17" d="M5.50303 5.49976H3.50146V6.49726H5.50303V5.49976Z" fill="#000001"/>
<path id="Vector_18" d="M2.50406 9.49626V5.4997H3.50156V4.5022H1.5V10.5003H3.50156V9.49626H2.50406Z" fill="#000001"/>
</g>
</g>
</svg>
