<svg width="24" height="24" viewBox="0 0 24 24" fill="none" xmlns="http://www.w3.org/2000/svg">
<g id="shopping-shipping-bag-1">
<g id="Group">
<path id="Vector" d="M22.0013 6.00199H18.0047V3.00293H17.0007V6.00199H13.0041V3.00293H12V6.00199H6.9994V3.00293H6.0019V6.00199H1.99878V22.0014H22.0013V6.00199ZM14.9991 21.0039H3.00284V6.99949H14.9991V21.0039ZM21.0038 21.0039H19.9997V19.9998H19.0022V19.0023H18.0047V19.9998H17.0007V21.0039H16.0032V19.9998H17.0007V19.0023H18.0047V6.99949H19.0022V19.0023H19.9997V19.9998H21.0038V21.0039Z" fill="#000001"/>
<path id="Vector_2" d="M17.0007 1.99878H13.0042V3.00284H17.0007V1.99878Z" fill="#000001"/>
<path id="Vector_3" d="M12.0001 1.99878H6.99951V3.00284H12.0001V1.99878Z" fill="#000001"/>
</g>
</g>
</svg>
