<svg width="24" height="24" viewBox="0 0 24 24" fill="none" xmlns="http://www.w3.org/2000/svg">
<g id="shopping-shipping-basket">
<g id="Group">
<path id="Vector" d="M2.4975 19.9997H3.50156V19.0022H6.50062V21.0038H4.49906V22.0013H19.5009V21.0038H17.4994V19.0022H20.4984V19.9997H21.5025V12H22.5V11.0025H19.5009V9.00098H18.5034V11.0025H5.50312V9.00098H4.49906V11.0025H1.5V12H2.4975V19.9997ZM17.4994 12H20.4984V14.0016H17.4994V12ZM17.4994 14.9991H20.4984V18.0047H17.4994V14.9991ZM12.4988 12H16.5019V14.0016H12.4988V12ZM12.4988 14.9991H16.5019V18.0047H12.4988V14.9991ZM12.4988 19.0022H16.5019V21.0038H12.4988V19.0022ZM7.49813 12H11.5012V14.0016H7.49813V12ZM7.49813 14.9991H11.5012V18.0047H7.49813V14.9991ZM7.49813 19.0022H11.5012V21.0038H7.49813V19.0022ZM3.50156 12H6.50062V14.0016H3.50156V12ZM3.50156 14.9991H6.50062V18.0047H3.50156V14.9991Z" fill="#000001"/>
<path id="Vector_2" d="M20.4985 19.9998H19.501V21.0038H20.4985V19.9998Z" fill="#000001"/>
<path id="Vector_3" d="M18.5033 6.99951H17.4993V9.00107H18.5033V6.99951Z" fill="#000001"/>
<path id="Vector_4" d="M17.4995 5.00439H16.502V6.99939H17.4995V5.00439Z" fill="#000001"/>
<path id="Vector_5" d="M10.5037 5.0044V6.0019H11.5012V6.9994H12.4987V6.0019H13.5027V5.0044H16.5018V4.00034H13.5027V3.00284H12.4987V1.99878H11.5012V3.00284H10.5037V4.00034H7.49805V5.0044H10.5037Z" fill="#000001"/>
<path id="Vector_6" d="M7.49823 5.00439H6.50073V6.99939H7.49823V5.00439Z" fill="#000001"/>
<path id="Vector_7" d="M6.50067 6.99951H5.50317V9.00107H6.50067V6.99951Z" fill="#000001"/>
<path id="Vector_8" d="M4.49896 19.9998H3.50146V21.0038H4.49896V19.9998Z" fill="#000001"/>
</g>
</g>
</svg>
