<svg width="24" height="24" viewBox="0 0 24 24" fill="none" xmlns="http://www.w3.org/2000/svg">
<g id="shopping-shipping-shipment-deliver">
<g id="Group">
<path id="Vector" d="M14.5004 21.0005H6.50073V21.998H14.5004V21.0005Z" fill="#000001"/>
<path id="Vector_2" d="M17.4993 20.0029H14.5002V21.0004H17.4993V20.0029Z" fill="#000001"/>
<path id="Vector_3" d="M11.5012 18.9987V18.0012H4.49902V18.9987H5.49652V21.0003H6.50059V18.9987H11.5012Z" fill="#000001"/>
<path id="Vector_4" d="M5.49662 15.9997V15.0022H2.49756V15.9997H3.49506V18.0013H4.49912V15.9997H5.49662Z" fill="#000001"/>
<path id="Vector_5" d="M9.49961 15.0022V13.9981H11.5012V13.0006H9.49961V8H7.49805V8.9975H8.49555V13.9981H7.49805V15.0022H9.49961Z" fill="#000001"/>
<path id="Vector_6" d="M7.49814 13.0007H5.49658V13.9982H7.49814V13.0007Z" fill="#000001"/>
<path id="Vector_7" d="M2.4975 13.0007H1.5V15.0023H2.4975V13.0007Z" fill="#000001"/>
<path id="Vector_8" d="M13.4962 12.0032H11.5012V13.0007H13.4962V12.0032Z" fill="#000001"/>
<path id="Vector_9" d="M5.49668 12.0032H3.49512V13.0007H5.49668V12.0032Z" fill="#000001"/>
<path id="Vector_10" d="M3.49506 7.00254H5.49662V5.99848H3.49506V5.00098H2.49756V12.0032H3.49506V7.00254Z" fill="#000001"/>
<path id="Vector_11" d="M19.5008 7.99683V8.99433H18.4968V9.99839H19.5008V18.9956H17.4993V20.0062H19.5008V21.0037H22.4999V7.99683H19.5008ZM21.4958 18.9956H20.4983V16.994H21.4958V18.9956Z" fill="#000001"/>
<path id="Vector_12" d="M18.4968 8H17.4993V8.9975H18.4968V8Z" fill="#000001"/>
<path id="Vector_13" d="M17.4994 7.00269H15.4978V8.00019H17.4994V7.00269Z" fill="#000001"/>
<path id="Vector_14" d="M11.5013 7.00269H9.49976V8.00019H11.5013V7.00269Z" fill="#000001"/>
<path id="Vector_15" d="M6.50064 5.99854V7.0026H5.49658V8.0001H7.49814V5.99854H6.50064Z" fill="#000001"/>
<path id="Vector_16" d="M11.5012 5.99848V7.00254H13.4962V12.0032H14.5003V5.00098H13.4962V5.99848H11.5012Z" fill="#000001"/>
<path id="Vector_17" d="M9.49961 5.00098H7.49805V5.99848H9.49961V5.00098Z" fill="#000001"/>
<path id="Vector_18" d="M13.4962 4.00342H11.5012V5.00092H13.4962V4.00342Z" fill="#000001"/>
<path id="Vector_19" d="M10.4973 5.00107V4.00357H11.5013V2.99951H9.49976V5.00107H10.4973Z" fill="#000001"/>
<path id="Vector_20" d="M5.49668 4.00342H3.49512V5.00092H5.49668V4.00342Z" fill="#000001"/>
<path id="Vector_21" d="M7.49814 2.99951H5.49658V4.00357H7.49814V2.99951Z" fill="#000001"/>
<path id="Vector_22" d="M9.49961 2.00195H7.49805V2.99945H9.49961V2.00195Z" fill="#000001"/>
</g>
</g>
</svg>
