<svg width="24" height="24" viewBox="0 0 24 24" fill="none" xmlns="http://www.w3.org/2000/svg">
<g id="shopping-shipping-crack-1">
<g id="Group">
<path id="Vector" d="M17.4995 3.49829H16.502V9.50298H17.4995V3.49829Z" fill="#000001"/>
<path id="Vector_2" d="M16.5019 9.50293H15.5044V11.4979H16.5019V9.50293Z" fill="#000001"/>
<path id="Vector_3" d="M15.5046 11.4978H14.5005V12.5019H15.5046V11.4978Z" fill="#000001"/>
<path id="Vector_4" d="M9.49988 12.502V13.4995H11.5014V17.5026H8.50238V18.5001H7.50488V20.5016H8.50238V21.4991H15.5046V20.5016H16.5021V18.5001H15.5046V17.5026H12.4989V13.4995H14.5005V12.502H9.49988Z" fill="#000001"/>
<path id="Vector_5" d="M12.499 7.50146H11.5015V8.49896H12.499V7.50146Z" fill="#000001"/>
<path id="Vector_6" d="M11.5014 5.4997H10.5039V6.50376H12.4989V7.50126H13.503V5.4997H12.4989V4.5022H11.5014V5.4997Z" fill="#000001"/>
<path id="Vector_7" d="M11.5014 8.49878H10.5039V9.50284H11.5014V8.49878Z" fill="#000001"/>
<path id="Vector_8" d="M9.4997 11.4978H8.5022V12.5019H9.4997V11.4978Z" fill="#000001"/>
<path id="Vector_9" d="M12.4989 3.49823V4.50229H13.503V3.49823H16.5021V2.50073H7.50488V3.49823H12.4989Z" fill="#000001"/>
<path id="Vector_10" d="M8.50238 9.50293H7.50488V11.4979H8.50238V9.50293Z" fill="#000001"/>
<path id="Vector_11" d="M7.50479 3.49829H6.50073V9.50298H7.50479V3.49829Z" fill="#000001"/>
</g>
</g>
</svg>
