<svg width="24" height="24" viewBox="0 0 24 24" fill="none" xmlns="http://www.w3.org/2000/svg">
<g id="shopping-shipping-bag-2">
<g id="Group">
<path id="Vector" d="M21.4959 5.50321H19.5009V6.50071H18.4969V5.50321H17.4994V7.50478H13.4963V6.50071H16.4953V5.50321H14.5003V4.49915H17.4994V3.50165H15.4978V2.50415H14.5003V3.50165H13.4963V4.49915H12.4988V7.50478H11.5012V5.50321H10.4972V7.50478H8.49562V6.50071H7.49813V7.50478H5.49656V6.50071H4.49906V7.50478H3.495V3.50165H2.4975V7.50478H1.5V16.502H2.4975V8.50228H16.4953V15.5045H17.4994V21.5026H3.495V22.5001H18.4969V21.5026H19.5009V20.5051H20.4984V19.501H21.4959V18.5035H22.5V13.5029H21.4959V5.50321Z" fill="#000001"/>
<path id="Vector_2" d="M19.5009 3.50146H18.4968V5.50303H19.5009V3.50146Z" fill="#000001"/>
<path id="Vector_3" d="M18.4968 2.50415H17.4993V3.50165H18.4968V2.50415Z" fill="#000001"/>
<path id="Vector_4" d="M17.4994 1.5H15.4978V2.50406H17.4994V1.5Z" fill="#000001"/>
<path id="Vector_5" d="M12.4987 10.5037H11.5012V12.4987H12.4987V10.5037Z" fill="#000001"/>
<path id="Vector_6" d="M12.4987 3.50146H11.5012V4.49896H12.4987V3.50146Z" fill="#000001"/>
<path id="Vector_7" d="M10.4973 4.49902H9.49976V5.50309H10.4973V4.49902Z" fill="#000001"/>
<path id="Vector_8" d="M9.49967 5.50317H8.49561V6.50067H9.49967V5.50317Z" fill="#000001"/>
<path id="Vector_9" d="M11.5012 12.4988H7.49805V13.5028H11.5012V12.4988Z" fill="#000001"/>
<path id="Vector_10" d="M9.49961 4.49915V3.50165H11.5012V2.50415H8.49555V3.50165H7.49805V4.49915H9.49961Z" fill="#000001"/>
<path id="Vector_11" d="M7.49823 10.5037H6.50073V12.4987H7.49823V10.5037Z" fill="#000001"/>
<path id="Vector_12" d="M7.49823 4.49902H6.50073V5.50309H7.49823V4.49902Z" fill="#000001"/>
<path id="Vector_13" d="M6.50064 5.50317H5.49658V6.50067H6.50064V5.50317Z" fill="#000001"/>
<path id="Vector_14" d="M5.49652 4.49902H4.49902V5.50309H5.49652V4.49902Z" fill="#000001"/>
<path id="Vector_15" d="M7.49824 2.50415H3.49512V3.50165H7.49824V2.50415Z" fill="#000001"/>
<path id="Vector_16" d="M3.49506 16.502H2.49756V21.5026H3.49506V16.502Z" fill="#000001"/>
</g>
</g>
</svg>
