<svg width="24" height="24" viewBox="0 0 24 24" fill="none" xmlns="http://www.w3.org/2000/svg">
<g id="shopping-shipping-weight-kg">
<g id="Group">
<path id="Vector" d="M19.9998 12.4988V8.50225H19.0023V6.50068H12.9976V5.49662H14.0017V3.50162H12.9976V2.49756H9.00105V3.50162H8.00355V5.49662H9.00105V6.50068H4.99793V7.49818H16.0032V11.5013H17.0007V14.5004H17.9982V20.4985H3.00293V21.5026H19.0023V20.4985H19.9998V19.501H20.9973V18.4969H22.0014V15.4979H20.9973V12.4988H19.9998ZM12.0001 5.49662H9.99855V3.50162H12.0001V5.49662Z" fill="#000001"/>
<path id="Vector_2" d="M12.9976 14.5004H14.0016V15.4979H14.9991V13.4963H12.9976V14.5004Z" fill="#000001"/>
<path id="Vector_3" d="M14.0016 11.5012H12V12.4987H14.0016V11.5012Z" fill="#000001"/>
<path id="Vector_4" d="M14.0016 15.4978H12V16.5019H14.0016V15.4978Z" fill="#000001"/>
<path id="Vector_5" d="M11.9999 12.4988H11.0024V15.4978H11.9999V12.4988Z" fill="#000001"/>
<path id="Vector_6" d="M9.99848 15.4978H9.00098V16.5019H9.99848V15.4978Z" fill="#000001"/>
<path id="Vector_7" d="M9.99848 11.5012H9.00098V12.4987H9.99848V11.5012Z" fill="#000001"/>
<path id="Vector_8" d="M9.00092 14.5005H8.00342V15.498H9.00092V14.5005Z" fill="#000001"/>
<path id="Vector_9" d="M9.00092 12.4988H8.00342V13.4963H9.00092V12.4988Z" fill="#000001"/>
<path id="Vector_10" d="M6.99945 11.5012H6.00195V16.5018H6.99945V14.5003H8.00352V13.4962H6.99945V11.5012Z" fill="#000001"/>
<path id="Vector_11" d="M4.99774 7.49829H4.00024V11.5014H4.99774V7.49829Z" fill="#000001"/>
<path id="Vector_12" d="M4.00043 11.5012H3.00293V14.5003H4.00043V11.5012Z" fill="#000001"/>
<path id="Vector_13" d="M3.00284 14.5005H1.99878V20.4986H3.00284V14.5005Z" fill="#000001"/>
</g>
</g>
</svg>
