<svg width="24" height="24" viewBox="0 0 24 24" fill="none" xmlns="http://www.w3.org/2000/svg">
<g id="shopping-shipping-crack-2">
<g id="Group">
<path id="Vector" d="M17.4995 3.99707H16.502V10.0018H17.4995V3.99707Z" fill="#000001"/>
<path id="Vector_2" d="M16.5019 18.9988H15.5044V21.0003H16.5019V18.9988Z" fill="#000001"/>
<path id="Vector_3" d="M16.5019 10.0017H15.5044V11.9967H16.5019V10.0017Z" fill="#000001"/>
<path id="Vector_4" d="M15.5046 11.9966H14.5005V13.0006H15.5046V11.9966Z" fill="#000001"/>
<path id="Vector_5" d="M15.5044 21.0005H8.5022V21.998H15.5044V21.0005Z" fill="#000001"/>
<path id="Vector_6" d="M9.4997 13.0007V13.9982H11.5013V18.0014H8.5022V18.9989H11.5013V20.0029H12.4988V18.9989H15.5044V18.0014H12.4988V13.9982H14.5003V13.0007H9.4997Z" fill="#000001"/>
<path id="Vector_7" d="M14.5004 3.99695V2.99945H15.5044V2.00195H12.4988V2.99945H11.5013V3.99695H10.5038V5.00102H9.49976V5.99852H11.5013V7.00258H10.5038V8.00008H9.49976V8.99758H11.5013V8.00008H12.4988V7.00258H13.5029V5.99852H14.5004V5.00102H13.5029V3.99695H14.5004Z" fill="#000001"/>
<path id="Vector_8" d="M9.4997 11.9966H8.5022V13.0006H9.4997V11.9966Z" fill="#000001"/>
<path id="Vector_9" d="M9.49988 2.99951H7.50488V3.99701H9.49988V2.99951Z" fill="#000001"/>
<path id="Vector_10" d="M8.50238 18.9988H7.50488V21.0003H8.50238V18.9988Z" fill="#000001"/>
<path id="Vector_11" d="M8.50238 10.0017H7.50488V11.9967H8.50238V10.0017Z" fill="#000001"/>
<path id="Vector_12" d="M7.50479 3.99707H6.50073V10.0018H7.50479V3.99707Z" fill="#000001"/>
</g>
</g>
</svg>
