<svg width="24" height="24" viewBox="0 0 24 24" fill="none" xmlns="http://www.w3.org/2000/svg">
<g id="shopping-shipping-loading-box">
<g id="Group">
<path id="Vector" d="M21.5026 12.502H20.4985V13.4995H21.5026V12.502Z" fill="#000001"/>
<path id="Vector_2" d="M19.5009 11.5046H14.5003V10.5005H13.5028V11.5046H10.5038V10.5005H9.49969V11.5046H4.49906V12.5021H12.4988V13.4996H13.5028V20.5017H5.50312V15.5011H11.5012V14.5036H3.50156V13.4996H2.4975V14.5036H1.5V15.5011H4.49906V21.4992H19.5009V15.5011H22.5V13.4996H21.5025V14.5036H19.5009V12.5021H20.4984V10.5005H19.5009V11.5046ZM18.5034 20.5017H14.5003V12.5021H18.5034V20.5017Z" fill="#000001"/>
<path id="Vector_3" d="M15.4978 9.50284H20.4984V10.5003H21.5025V9.50284H22.5V8.49878H15.4978V9.50284Z" fill="#000001"/>
<path id="Vector_4" d="M15.4977 9.50293H14.5002V10.5004H15.4977V9.50293Z" fill="#000001"/>
<path id="Vector_5" d="M12.4987 13.4995H11.5012V14.5036H12.4987V13.4995Z" fill="#000001"/>
<path id="Vector_6" d="M10.5038 7.50136H11.5013V8.49886H12.4988V7.50136H13.5029V6.50386H14.5004V5.49979H12.4988V2.50073H11.5013V5.49979H9.49976V6.50386H10.5038V7.50136Z" fill="#000001"/>
<path id="Vector_7" d="M9.4997 9.50293H8.5022V10.5004H9.4997V9.50293Z" fill="#000001"/>
<path id="Vector_8" d="M4.49896 12.502H3.50146V13.4995H4.49896V12.502Z" fill="#000001"/>
<path id="Vector_9" d="M4.49896 10.5005H3.50146V11.5046H4.49896V10.5005Z" fill="#000001"/>
<path id="Vector_10" d="M8.50219 9.50284V8.49878H1.5V9.50284H2.4975V10.5003H3.50156V9.50284H8.50219Z" fill="#000001"/>
</g>
</g>
</svg>
