<svg width="24" height="24" viewBox="0 0 24 24" fill="none" xmlns="http://www.w3.org/2000/svg">
<g id="shopping-shipping-discount-coupon">
<g id="Group">
<path id="Vector" d="M19.9963 9.49974V10.5038H21.9979V5.50317H21.0004V9.49974H19.9963Z" fill="#000001"/>
<path id="Vector_2" d="M21.0004 14.5002V18.5033H21.9979V13.5027H19.9963V14.5002H21.0004Z" fill="#000001"/>
<path id="Vector_3" d="M21.0005 18.5034H2.99951V19.5009H21.0005V18.5034Z" fill="#000001"/>
<path id="Vector_4" d="M19.9963 10.5037H18.9988V13.5027H19.9963V10.5037Z" fill="#000001"/>
<path id="Vector_5" d="M15.9998 12.4988H13.9982V13.5028H13.0007V15.5044H13.9982V16.5019H15.9998V15.5044H16.9973V13.5028H15.9998V12.4988Z" fill="#000001"/>
<path id="Vector_6" d="M15.0024 8.50214H13.9983V9.49964H13.0008V10.5037H11.9967V11.5012H10.9992V12.4987H10.0017V13.5028H8.99769V14.5003H8.00019V15.5043H7.00269V16.5018H8.99769V15.5043H10.0017V14.5003H10.9992V13.5028H11.9967V12.4987H13.0008V11.5012H13.9983V10.5037H15.0024V9.49964H15.9999V8.50214H16.9974V7.50464H15.0024V8.50214Z" fill="#000001"/>
<path id="Vector_7" d="M8.00019 11.5012H10.0017V10.5037H10.9992V8.50214H10.0017V7.50464H8.00019V8.50214H7.00269V10.5037H8.00019V11.5012Z" fill="#000001"/>
<path id="Vector_8" d="M5.00113 10.5037H3.99707V13.5027H5.00113V10.5037Z" fill="#000001"/>
<path id="Vector_9" d="M21.0005 4.49902H2.99951V5.50309H21.0005V4.49902Z" fill="#000001"/>
<path id="Vector_10" d="M2.99945 9.49974V5.50317H2.00195V10.5038H3.99695V9.49974H2.99945Z" fill="#000001"/>
<path id="Vector_11" d="M2.99945 14.5002H3.99695V13.5027H2.00195V18.5033H2.99945V14.5002Z" fill="#000001"/>
</g>
</g>
</svg>
