<svg width="24" height="24" viewBox="0 0 24 24" fill="none" xmlns="http://www.w3.org/2000/svg">
<g id="shopping-shipping-receipt-slip">
<g id="Group">
<path id="Vector" d="M21.4991 22.5V1.5H19.4976V2.50406H20.4951V21.5025H19.4976V22.5H21.4991Z" fill="#000001"/>
<path id="Vector_2" d="M19.4975 20.5049H18.5V21.5024H19.4975V20.5049Z" fill="#000001"/>
<path id="Vector_3" d="M19.4975 2.50415H18.5V3.50165H19.4975V2.50415Z" fill="#000001"/>
<path id="Vector_4" d="M18.5002 19.501H17.4961V20.505H18.5002V19.501Z" fill="#000001"/>
<path id="Vector_5" d="M18.5002 13.5029H17.4961V15.5045H18.5002V13.5029Z" fill="#000001"/>
<path id="Vector_6" d="M18.5002 10.5037H17.4961V11.5012H18.5002V10.5037Z" fill="#000001"/>
<path id="Vector_7" d="M18.5002 3.50146H17.4961V4.49896H18.5002V3.50146Z" fill="#000001"/>
<path id="Vector_8" d="M17.496 20.5049H16.4985V21.5024H17.496V20.5049Z" fill="#000001"/>
<path id="Vector_9" d="M16.4986 9.4997V8.5022H15.5011V9.4997H14.4971V10.5038H15.5011V12.4988H14.4971V13.5028H15.5011V15.5044H14.4971V16.5019H15.5011V17.4994H16.4986V16.5019H17.4961V15.5044H16.4986V13.5028H17.4961V12.4988H16.4986V10.5038H17.4961V9.4997H16.4986Z" fill="#000001"/>
<path id="Vector_10" d="M17.496 2.50415H16.4985V3.50165H17.496V2.50415Z" fill="#000001"/>
<path id="Vector_11" d="M16.4985 21.5024H15.501V22.4999H16.4985V21.5024Z" fill="#000001"/>
<path id="Vector_12" d="M16.4985 1.5H15.501V2.50406H16.4985V1.5Z" fill="#000001"/>
<path id="Vector_13" d="M15.5011 20.5049H14.4971V21.5024H15.5011V20.5049Z" fill="#000001"/>
<path id="Vector_14" d="M15.5011 2.50415H14.4971V3.50165H15.5011V2.50415Z" fill="#000001"/>
<path id="Vector_15" d="M14.497 19.501H13.4995V20.505H14.497V19.501Z" fill="#000001"/>
<path id="Vector_16" d="M14.497 14.5002H13.4995V15.5043H14.497V14.5002Z" fill="#000001"/>
<path id="Vector_17" d="M14.497 10.5037H13.4995V12.4987H14.497V10.5037Z" fill="#000001"/>
<path id="Vector_18" d="M14.497 3.50146H13.4995V4.49896H14.497V3.50146Z" fill="#000001"/>
<path id="Vector_19" d="M13.4994 20.5049H12.4954V21.5024H13.4994V20.5049Z" fill="#000001"/>
<path id="Vector_20" d="M13.4994 2.50415H12.4954V3.50165H13.4994V2.50415Z" fill="#000001"/>
<path id="Vector_21" d="M12.4953 21.5024H11.4978V22.4999H12.4953V21.5024Z" fill="#000001"/>
<path id="Vector_22" d="M12.4953 1.5H11.4978V2.50406H12.4953V1.5Z" fill="#000001"/>
<path id="Vector_23" d="M11.498 20.5049H10.5005V21.5024H11.498V20.5049Z" fill="#000001"/>
<path id="Vector_24" d="M11.498 2.50415H10.5005V3.50165H11.498V2.50415Z" fill="#000001"/>
<path id="Vector_25" d="M10.5004 19.501H9.49634V20.505H10.5004V19.501Z" fill="#000001"/>
<path id="Vector_26" d="M11.4978 16.502H8.49878V17.4995H11.4978V16.502Z" fill="#000001"/>
<path id="Vector_27" d="M11.4978 13.5029H8.49878V14.5004H11.4978V13.5029Z" fill="#000001"/>
<path id="Vector_28" d="M11.4978 10.5037H8.49878V11.5012H11.4978V10.5037Z" fill="#000001"/>
<path id="Vector_29" d="M11.4978 7.50464H8.49878V8.50214H11.4978V7.50464Z" fill="#000001"/>
<path id="Vector_30" d="M10.5004 3.50146H9.49634V4.49896H10.5004V3.50146Z" fill="#000001"/>
<path id="Vector_31" d="M9.49628 20.5049H8.49878V21.5024H9.49628V20.5049Z" fill="#000001"/>
<path id="Vector_32" d="M9.49628 2.50415H8.49878V3.50165H9.49628V2.50415Z" fill="#000001"/>
<path id="Vector_33" d="M8.49896 21.5024H7.50146V22.4999H8.49896V21.5024Z" fill="#000001"/>
<path id="Vector_34" d="M8.49896 1.5H7.50146V2.50406H8.49896V1.5Z" fill="#000001"/>
<path id="Vector_35" d="M7.50138 20.5049H6.49731V21.5024H7.50138V20.5049Z" fill="#000001"/>
<path id="Vector_36" d="M7.50138 2.50415H6.49731V3.50165H7.50138V2.50415Z" fill="#000001"/>
<path id="Vector_37" d="M6.49726 19.501H5.49976V20.505H6.49726V19.501Z" fill="#000001"/>
<path id="Vector_38" d="M7.50132 15.5044H5.49976V17.4994H7.50132V15.5044Z" fill="#000001"/>
<path id="Vector_39" d="M7.50132 12.4988H5.49976V14.5003H7.50132V12.4988Z" fill="#000001"/>
<path id="Vector_40" d="M7.50132 9.49976H5.49976V11.5013H7.50132V9.49976Z" fill="#000001"/>
<path id="Vector_41" d="M7.50132 6.50073H5.49976V8.5023H7.50132V6.50073Z" fill="#000001"/>
<path id="Vector_42" d="M6.49726 3.50146H5.49976V4.49896H6.49726V3.50146Z" fill="#000001"/>
<path id="Vector_43" d="M5.49991 20.5049H4.49585V21.5024H5.49991V20.5049Z" fill="#000001"/>
<path id="Vector_44" d="M5.49991 2.50415H4.49585V3.50165H5.49991V2.50415Z" fill="#000001"/>
<path id="Vector_45" d="M3.49823 2.50406H4.49573V1.5H2.50073V22.5H4.49573V21.5025H3.49823V2.50406Z" fill="#000001"/>
</g>
</g>
</svg>
