<svg width="24" height="24" viewBox="0 0 24 24" fill="none" xmlns="http://www.w3.org/2000/svg">
<g id="single-user-shield">
<g id="Group">
<path id="Vector" d="M20.4985 4.49902H19.501V15.4978H20.4985V4.49902Z" fill="#000001"/>
<path id="Vector_2" d="M19.5006 15.4978H18.4966V17.4994H19.5006V15.4978Z" fill="#000001"/>
<path id="Vector_3" d="M18.497 17.4993H17.4995V18.5033H18.497V17.4993Z" fill="#000001"/>
<path id="Vector_4" d="M19.5011 3.50146H17.4995V4.49896H19.5011V3.50146Z" fill="#000001"/>
<path id="Vector_5" d="M17.4995 18.5034H16.502V19.5009H17.4995V18.5034Z" fill="#000001"/>
<path id="Vector_6" d="M16.5016 19.501H15.4976V20.4985H16.5016V19.501Z" fill="#000001"/>
<path id="Vector_7" d="M16.5016 15.4978H15.4976V16.5019H16.5016V15.4978Z" fill="#000001"/>
<path id="Vector_8" d="M16.5017 6.50067H15.4977V5.50317H8.50205V6.50067H7.49799V7.49817H6.50049V15.4979H7.49799V11.5013H8.50205V10.5038H15.4977V11.5013H16.5017V15.4979H17.4992V7.49817H16.5017V6.50067Z" fill="#000001"/>
<path id="Vector_9" d="M17.4991 2.50415H15.4976V3.50165H17.4991V2.50415Z" fill="#000001"/>
<path id="Vector_10" d="M15.4975 16.502H14.5V17.4995H15.4975V16.502Z" fill="#000001"/>
<path id="Vector_11" d="M15.4975 12.4988H14.5V14.5003H15.4975V12.4988Z" fill="#000001"/>
<path id="Vector_12" d="M15.4979 20.4985H13.5029V21.5026H15.4979V20.4985Z" fill="#000001"/>
<path id="Vector_13" d="M14.5001 17.4993H9.49951V18.5033H14.5001V17.4993Z" fill="#000001"/>
<path id="Vector_14" d="M13.5027 21.5024H10.4971V22.4999H13.5027V21.5024Z" fill="#000001"/>
<path id="Vector_15" d="M13.5027 15.4978H10.4971V16.5019H13.5027V15.4978Z" fill="#000001"/>
<path id="Vector_16" d="M10.497 20.4985H8.50195V21.5026H10.497V20.4985Z" fill="#000001"/>
<path id="Vector_17" d="M15.4976 1.5H8.50195V2.50406H15.4976V1.5Z" fill="#000001"/>
<path id="Vector_18" d="M9.49945 16.502H8.50195V17.4995H9.49945V16.502Z" fill="#000001"/>
<path id="Vector_19" d="M9.49945 12.4988H8.50195V14.5003H9.49945V12.4988Z" fill="#000001"/>
<path id="Vector_20" d="M8.50211 19.501H7.49805V20.4985H8.50211V19.501Z" fill="#000001"/>
<path id="Vector_21" d="M8.50211 15.4978H7.49805V16.5019H8.50211V15.4978Z" fill="#000001"/>
<path id="Vector_22" d="M8.50205 2.50415H6.50049V3.50165H8.50205V2.50415Z" fill="#000001"/>
<path id="Vector_23" d="M7.49799 18.5034H6.50049V19.5009H7.49799V18.5034Z" fill="#000001"/>
<path id="Vector_24" d="M6.50064 17.4993H5.49658V18.5033H6.50064V17.4993Z" fill="#000001"/>
<path id="Vector_25" d="M6.50059 3.50146H4.49902V4.49896H6.50059V3.50146Z" fill="#000001"/>
<path id="Vector_26" d="M5.49652 15.4978H4.49902V17.4994H5.49652V15.4978Z" fill="#000001"/>
<path id="Vector_27" d="M4.49896 4.49902H3.50146V15.4978H4.49896V4.49902Z" fill="#000001"/>
</g>
</g>
</svg>
