<svg width="24" height="24" viewBox="0 0 24 24" fill="none" xmlns="http://www.w3.org/2000/svg">
<g id="social-rewards-rating-star-1">
<g id="Group">
<path id="Vector" d="M22.4999 9.49951H21.5024V10.497H22.4999V9.49951Z" fill="#000001"/>
<path id="Vector_2" d="M21.5026 10.4971H20.4985V11.4946H21.5026V10.4971Z" fill="#000001"/>
<path id="Vector_3" d="M20.4985 19.501H19.501V21.496H20.4985V19.501Z" fill="#000001"/>
<path id="Vector_4" d="M19.5011 17.4995H18.4971V19.5011H19.5011V17.4995Z" fill="#000001"/>
<path id="Vector_5" d="M20.4986 11.4946H18.4971V12.4987H20.4986V11.4946Z" fill="#000001"/>
<path id="Vector_6" d="M19.5011 21.4961H17.4995V22.5002H19.5011V21.4961Z" fill="#000001"/>
<path id="Vector_7" d="M18.497 15.498H17.4995V17.4996H18.497V15.498Z" fill="#000001"/>
<path id="Vector_8" d="M18.497 12.4985H17.4995V13.496H18.497V12.4985Z" fill="#000001"/>
<path id="Vector_9" d="M17.4995 20.4985H16.502V21.496H17.4995V20.4985Z" fill="#000001"/>
<path id="Vector_10" d="M17.4995 13.4961H16.502V15.4977H17.4995V13.4961Z" fill="#000001"/>
<path id="Vector_11" d="M16.5021 19.501H14.5005V20.4985H16.5021V19.501Z" fill="#000001"/>
<path id="Vector_12" d="M21.5027 8.49561H15.498V9.49967H21.5027V8.49561Z" fill="#000001"/>
<path id="Vector_13" d="M15.498 6.50049H14.5005V8.49549H15.498V6.50049Z" fill="#000001"/>
<path id="Vector_14" d="M14.5004 18.4971H13.5029V19.5011H14.5004V18.4971Z" fill="#000001"/>
<path id="Vector_15" d="M14.5004 12.4985H13.5029V13.496H14.5004V12.4985Z" fill="#000001"/>
<path id="Vector_16" d="M14.5004 4.49902H13.5029V6.50059H14.5004V4.49902Z" fill="#000001"/>
<path id="Vector_17" d="M13.5026 17.4995H12.4985V18.497H13.5026V17.4995Z" fill="#000001"/>
<path id="Vector_18" d="M13.5026 10.4971H12.4985V11.4946H13.5026V10.4971Z" fill="#000001"/>
<path id="Vector_19" d="M13.5026 2.49756H12.4985V4.49912H13.5026V2.49756Z" fill="#000001"/>
<path id="Vector_20" d="M12.499 16.4951H11.5015V17.4992H12.499V16.4951Z" fill="#000001"/>
<path id="Vector_21" d="M13.5027 13.4961H10.4971V14.5002H13.5027V13.4961Z" fill="#000001"/>
<path id="Vector_22" d="M12.499 1.5H11.5015V2.4975H12.499V1.5Z" fill="#000001"/>
<path id="Vector_23" d="M11.5011 17.4995H10.4971V18.497H11.5011V17.4995Z" fill="#000001"/>
<path id="Vector_24" d="M11.5011 10.4971H10.4971V11.4946H11.5011V10.4971Z" fill="#000001"/>
<path id="Vector_25" d="M11.5011 2.49756H10.4971V4.49912H11.5011V2.49756Z" fill="#000001"/>
<path id="Vector_26" d="M10.497 18.4971H9.49951V19.5011H10.497V18.4971Z" fill="#000001"/>
<path id="Vector_27" d="M10.497 12.4985H9.49951V13.496H10.497V12.4985Z" fill="#000001"/>
<path id="Vector_28" d="M10.497 4.49902H9.49951V6.50059H10.497V4.49902Z" fill="#000001"/>
<path id="Vector_29" d="M9.49945 6.50049H8.50195V8.49549H9.49945V6.50049Z" fill="#000001"/>
<path id="Vector_30" d="M9.49961 19.501H7.49805V20.4985H9.49961V19.501Z" fill="#000001"/>
<path id="Vector_31" d="M7.49799 20.4985H6.50049V21.496H7.49799V20.4985Z" fill="#000001"/>
<path id="Vector_32" d="M7.49799 13.4961H6.50049V15.4977H7.49799V13.4961Z" fill="#000001"/>
<path id="Vector_33" d="M6.50043 15.498H5.50293V17.4996H6.50043V15.498Z" fill="#000001"/>
<path id="Vector_34" d="M6.50043 12.4985H5.50293V13.496H6.50043V12.4985Z" fill="#000001"/>
<path id="Vector_35" d="M6.50059 21.4961H4.49902V22.5002H6.50059V21.4961Z" fill="#000001"/>
<path id="Vector_36" d="M5.50309 17.4995H4.49902V19.5011H5.50309V17.4995Z" fill="#000001"/>
<path id="Vector_37" d="M5.50303 11.4946H3.50146V12.4987H5.50303V11.4946Z" fill="#000001"/>
<path id="Vector_38" d="M4.49896 19.501H3.50146V21.496H4.49896V19.501Z" fill="#000001"/>
<path id="Vector_39" d="M8.50225 8.49561H2.49756V9.49967H8.50225V8.49561Z" fill="#000001"/>
<path id="Vector_40" d="M3.50162 10.4971H2.49756V11.4946H3.50162V10.4971Z" fill="#000001"/>
<path id="Vector_41" d="M2.4975 9.49951H1.5V10.497H2.4975V9.49951Z" fill="#000001"/>
</g>
</g>
</svg>
