<svg width="24" height="24" viewBox="0 0 24 24" fill="none" xmlns="http://www.w3.org/2000/svg">
<g id="social-rewards-trends-hot-flame">
<g id="Group">
<path id="Vector" d="M14.9957 14.5005H13.0007V15.498H11.9966V14.5005H9.99506V15.498H8.99756V17.4996H9.99506V18.4971H10.9991V19.5011H11.9966V20.4986H13.0007V19.5011H13.9982V18.4971H14.9957V17.4996H15.9997V15.498H14.9957V14.5005Z" fill="#000001"/>
<path id="Vector_2" d="M21.0006 8.49561H19.9966V16.4953H21.0006V8.49561Z" fill="#000001"/>
<path id="Vector_3" d="M19.9965 16.4951H18.999V18.4967H19.9965V16.4951Z" fill="#000001"/>
<path id="Vector_4" d="M19.9965 7.49805H18.999V8.49555H19.9965V7.49805Z" fill="#000001"/>
<path id="Vector_5" d="M18.9987 18.4971H17.9946V19.5011H18.9987V18.4971Z" fill="#000001"/>
<path id="Vector_6" d="M18.9987 6.50049H17.9946V7.49799H18.9987V6.50049Z" fill="#000001"/>
<path id="Vector_7" d="M17.9951 19.501H16.9976V20.4985H17.9951V19.501Z" fill="#000001"/>
<path id="Vector_8" d="M17.9951 5.49658H16.9976V6.50064H17.9951V5.49658Z" fill="#000001"/>
<path id="Vector_9" d="M16.9975 20.4985H16V21.496H16.9975V20.4985Z" fill="#000001"/>
<path id="Vector_10" d="M16.9975 4.49902H16V5.49652H16.9975V4.49902Z" fill="#000001"/>
<path id="Vector_11" d="M15.9997 3.49512H14.9956V4.49918H15.9997V3.49512Z" fill="#000001"/>
<path id="Vector_12" d="M15.9997 21.4961H8V22.5002H15.9997V21.4961Z" fill="#000001"/>
<path id="Vector_13" d="M14.996 2.49756H13.001V3.49506H14.996V2.49756Z" fill="#000001"/>
<path id="Vector_14" d="M11.9965 7.49805H10.999V11.4946H11.9965V7.49805Z" fill="#000001"/>
<path id="Vector_15" d="M10.9992 4.49902H9.99512V7.49809H10.9992V4.49902Z" fill="#000001"/>
<path id="Vector_16" d="M9.99506 3.49512H8.99756V4.49918H9.99506V3.49512Z" fill="#000001"/>
<path id="Vector_17" d="M13.0008 2.4975V1.5H6.99609V2.4975H8.00016V3.495H8.99766V2.4975H13.0008Z" fill="#000001"/>
<path id="Vector_18" d="M10.9991 11.4946H8V12.4987H10.9991V11.4946Z" fill="#000001"/>
<path id="Vector_19" d="M8.00016 20.4985H6.99609V21.496H8.00016V20.4985Z" fill="#000001"/>
<path id="Vector_20" d="M8.00016 10.4971H6.99609V11.4946H8.00016V10.4971Z" fill="#000001"/>
<path id="Vector_21" d="M6.99598 19.501H5.00098V20.4985H6.99598V19.501Z" fill="#000001"/>
<path id="Vector_22" d="M6.99598 8.49561H5.99848V9.49967H5.00098V10.4972H6.99598V8.49561Z" fill="#000001"/>
<path id="Vector_23" d="M5.00113 18.4971H3.99707V19.5011H5.00113V18.4971Z" fill="#000001"/>
<path id="Vector_24" d="M5.00113 10.4971H3.99707V13.4961H5.00113V10.4971Z" fill="#000001"/>
<path id="Vector_25" d="M3.99701 13.4961H2.99951V18.4967H3.99701V13.4961Z" fill="#000001"/>
</g>
</g>
</svg>
