<svg width="24" height="24" viewBox="0 0 24 24" fill="none" xmlns="http://www.w3.org/2000/svg">
<g id="social-rewards-vip-crown-king">
<g id="Group">
<path id="Vector" d="M22.4999 7.00244H21.5024V8.99744H22.4999V7.00244Z" fill="#000001"/>
<path id="Vector_2" d="M19.5011 10.9991H20.4986V15.0022H13.5029V16.003H14.5004V17.0005H13.5029V18.0046H20.4986V20.0062H21.5026V8.99756H19.5011V10.9991ZM16.502 16.9972H15.4979V16.003H16.502V16.9972ZM20.4986 16.9972H18.497V16.003H20.4986V16.9972Z" fill="#000001"/>
<path id="Vector_3" d="M20.4986 8.0001V7.0026H21.5027V5.99854H19.5011V7.0026H18.4971V8.9976H19.5011V8.0001H20.4986Z" fill="#000001"/>
<path id="Vector_4" d="M12.4987 20.0031V18.999H11.5012V20.0031H3.50146V21.0006H20.4983V20.0031H12.4987Z" fill="#000001"/>
<path id="Vector_5" d="M15.498 11.9966V13.0007H16.5021V13.9982H17.4996V13.0007H18.4971V11.9966H19.5011V10.9991H18.4971V10.0016H17.4996V8.99756H16.5021V10.0016H15.498V10.9991H14.5005V11.9966H15.498Z" fill="#000001"/>
<path id="Vector_6" d="M14.5004 10.0015H13.5029V10.999H14.5004V10.0015Z" fill="#000001"/>
<path id="Vector_7" d="M14.5004 3.99707H13.5029V7.0027H14.5004V3.99707Z" fill="#000001"/>
<path id="Vector_8" d="M13.5026 18.0015H12.4985V18.999H13.5026V18.0015Z" fill="#000001"/>
<path id="Vector_9" d="M13.5026 13.998H12.4985V15.0021H13.5026V13.998Z" fill="#000001"/>
<path id="Vector_10" d="M13.5026 8.99756H12.4985V10.0016H13.5026V8.99756Z" fill="#000001"/>
<path id="Vector_11" d="M12.499 16H11.5015V16.9975H12.499V16Z" fill="#000001"/>
<path id="Vector_12" d="M12.499 13.001H11.5015V13.9985H12.499V13.001Z" fill="#000001"/>
<path id="Vector_13" d="M12.4986 7.99994H13.5027V7.00244H10.4971V7.99994H11.5011V8.99744H12.4986V7.99994Z" fill="#000001"/>
<path id="Vector_14" d="M12.499 5.00098H11.5015V5.99848H12.499V5.00098Z" fill="#000001"/>
<path id="Vector_15" d="M13.5027 2.99951H10.4971V3.99701H13.5027V2.99951Z" fill="#000001"/>
<path id="Vector_16" d="M11.5011 18.0015H10.4971V18.999H11.5011V18.0015Z" fill="#000001"/>
<path id="Vector_17" d="M11.5011 13.998H10.4971V15.0021H11.5011V13.998Z" fill="#000001"/>
<path id="Vector_18" d="M11.5011 8.99756H10.4971V10.0016H11.5011V8.99756Z" fill="#000001"/>
<path id="Vector_19" d="M10.497 10.0015H9.49951V10.999H10.497V10.0015Z" fill="#000001"/>
<path id="Vector_20" d="M10.497 3.99707H9.49951V7.0027H10.497V3.99707Z" fill="#000001"/>
<path id="Vector_21" d="M5.50309 11.9966V13.0007H6.50059V13.9982H7.49809V13.0007H8.50215V11.9966H9.49965V10.9991H8.50215V10.0016H7.49809V8.99756H6.50059V10.0016H5.50309V10.9991H4.49902V11.9966H5.50309Z" fill="#000001"/>
<path id="Vector_22" d="M3.50162 8.0001H4.49912V8.9976H5.50318V7.0026H4.49912V5.99854H2.49756V7.0026H3.50162V8.0001Z" fill="#000001"/>
<path id="Vector_23" d="M10.4972 18.0014V16.9974H9.49975V16.0032H10.4972V15.0057H3.50162V11.0025H4.49912V9.00098H2.49756V20.0063H3.50162V18.0047L10.4972 18.0014ZM7.49818 16.0032H8.50225V17.0007H7.49818V16.0032ZM3.50162 16.0032H5.50318V17.0007H3.50162V16.0032Z" fill="#000001"/>
<path id="Vector_24" d="M2.4975 7.00244H1.5V8.99744H2.4975V7.00244Z" fill="#000001"/>
</g>
</g>
</svg>
