<svg width="24" height="24" viewBox="0 0 24 24" fill="none" xmlns="http://www.w3.org/2000/svg">
<g id="social-rewards-certified-ribbon">
<g id="Group">
<path id="Vector" d="M19.5009 2.49756H18.5034V21.496H19.5009V2.49756Z" fill="#000001"/>
<path id="Vector_2" d="M18.5035 21.4961H16.502V22.5002H18.5035V21.4961Z" fill="#000001"/>
<path id="Vector_3" d="M16.5019 20.4985H15.5044V21.496H16.5019V20.4985Z" fill="#000001"/>
<path id="Vector_4" d="M16.5021 6.50049H15.5046V7.49799H14.5005V8.49549H13.503V9.49955H12.4989V10.4971H11.5014V11.4946H10.5039V10.4971H9.49988V9.49955H8.50238V10.4971H7.50488V11.4946H8.50238V12.4986H9.49988V13.4961H10.5039V14.5002H11.5014V13.4961H12.4989V12.4986H13.503V11.4946H14.5005V10.4971H15.5046V9.49955H16.5021V8.49549H17.4996V7.49799H16.5021V6.50049Z" fill="#000001"/>
<path id="Vector_5" d="M15.5046 19.501H14.5005V20.4985H15.5046V19.501Z" fill="#000001"/>
<path id="Vector_6" d="M14.5004 18.4971H13.5029V19.5011H14.5004V18.4971Z" fill="#000001"/>
<path id="Vector_7" d="M13.5026 17.4995H12.4985V18.497H13.5026V17.4995Z" fill="#000001"/>
<path id="Vector_8" d="M12.4985 16.4951H11.501V17.4992H12.4985V16.4951Z" fill="#000001"/>
<path id="Vector_9" d="M11.5014 17.4995H10.5039V18.497H11.5014V17.4995Z" fill="#000001"/>
<path id="Vector_10" d="M10.5036 18.4971H9.49951V19.5011H10.5036V18.4971Z" fill="#000001"/>
<path id="Vector_11" d="M9.49945 19.501H8.50195V20.4985H9.49945V19.501Z" fill="#000001"/>
<path id="Vector_12" d="M8.50238 20.4985H7.50488V21.496H8.50238V20.4985Z" fill="#000001"/>
<path id="Vector_13" d="M18.5032 1.5H5.50293V2.4975H18.5032V1.5Z" fill="#000001"/>
<path id="Vector_14" d="M7.50449 21.4961H5.50293V22.5002H7.50449V21.4961Z" fill="#000001"/>
<path id="Vector_15" d="M5.50309 2.49756H4.49902V21.496H5.50309V2.49756Z" fill="#000001"/>
</g>
</g>
</svg>
