<svg width="24" height="24" viewBox="0 0 24 24" fill="none" xmlns="http://www.w3.org/2000/svg">
<g id="social-rewards-rating-star-2">
<g id="Group">
<path id="Vector" d="M21.5025 8.49562H15.4978V9.49969H14.5003V10.4972H13.5028V11.4947H12.4988V4.49906H13.5028V2.4975H12.4988V1.5H11.5012V2.4975H10.4972V4.49906H9.49969V6.50062H8.50219V8.49562H2.4975V9.49969H1.5V10.4972H2.4975V11.4947H3.50156V12.4988H5.50312V13.4963H6.50062V15.4978H7.49813V14.5003H9.49969V13.4963H11.5012V14.5003H10.4972V15.4978H9.49969V16.4953H8.50219V17.4994H7.49813V18.4969H6.50062V19.5009H5.50312V20.4984H4.49906V19.5009H3.50156V21.4959H4.49906V22.5H6.50062V21.4959H7.49813V20.4984H9.49969V19.5009H10.4972V18.4969H11.5012V17.4994H12.4988V14.5003H13.5028V15.4978H14.5003V16.4953H15.4978V17.4994H16.5019V18.4969H17.4994V19.5009H18.4969V21.4959H17.4994V22.5H19.5009V21.4959H20.4984V19.5009H19.5009V17.4994H18.4969V15.4978H17.4994V13.4963H18.4969V12.4988H16.5019V13.4963H12.4988V12.4988H15.4978V11.4947H16.5019V10.4972H20.4984V11.4947H21.5025V10.4972H22.5V9.49969H21.5025V8.49562ZM10.4972 12.4988H8.50219V11.4947H6.50062V10.4972H4.49906V9.49969H9.49969V10.4972H10.4972V12.4988Z" fill="#000001"/>
<path id="Vector_2" d="M20.4986 11.4946H18.4971V12.4987H20.4986V11.4946Z" fill="#000001"/>
<path id="Vector_3" d="M17.4995 20.4985H16.502V21.496H17.4995V20.4985Z" fill="#000001"/>
<path id="Vector_4" d="M16.5021 19.501H14.5005V20.4985H16.5021V19.501Z" fill="#000001"/>
<path id="Vector_5" d="M15.498 6.50049H14.5005V8.49549H15.498V6.50049Z" fill="#000001"/>
<path id="Vector_6" d="M14.5004 18.4971H13.5029V19.5011H14.5004V18.4971Z" fill="#000001"/>
<path id="Vector_7" d="M14.5004 4.49902H13.5029V6.50059H14.5004V4.49902Z" fill="#000001"/>
<path id="Vector_8" d="M13.5026 17.4995H12.4985V18.497H13.5026V17.4995Z" fill="#000001"/>
<path id="Vector_9" d="M6.50043 15.498H5.50293V17.4996H6.50043V15.498Z" fill="#000001"/>
<path id="Vector_10" d="M5.50309 17.4995H4.49902V19.5011H5.50309V17.4995Z" fill="#000001"/>
</g>
</g>
</svg>
