<svg width="24" height="24" viewBox="0 0 24 24" fill="none" xmlns="http://www.w3.org/2000/svg">
<g id="social-rewards-like-circle">
<g id="Group">
<path id="Vector" d="M22.5002 9.49951H21.4961V14.5001H22.5002V9.49951Z" fill="#000001"/>
<path id="Vector_2" d="M21.496 14.5005H20.4985V16.5021H21.496V14.5005Z" fill="#000001"/>
<path id="Vector_3" d="M21.496 7.49805H20.4985V9.49961H21.496V7.49805Z" fill="#000001"/>
<path id="Vector_4" d="M20.4985 16.502H19.501V18.497H20.4985V16.502Z" fill="#000001"/>
<path id="Vector_5" d="M20.4985 5.49658H19.501V7.49814H20.4985V5.49658Z" fill="#000001"/>
<path id="Vector_6" d="M19.5011 18.4971H18.4971V19.5011H19.5011V18.4971Z" fill="#000001"/>
<path id="Vector_7" d="M19.5011 4.49902H18.4971V5.49652H19.5011V4.49902Z" fill="#000001"/>
<path id="Vector_8" d="M17.4992 10.497H14.5002V9.49951H13.4961V11.5011H17.4992V12.4986H13.4961V13.5026H17.4992V14.5001H18.4967V9.49951H17.4992V10.497Z" fill="#000001"/>
<path id="Vector_9" d="M18.4967 19.501H16.4951V20.4985H18.4967V19.501Z" fill="#000001"/>
<path id="Vector_10" d="M18.4967 3.50146H16.4951V4.49896H18.4967V3.50146Z" fill="#000001"/>
<path id="Vector_11" d="M13.4961 14.5005V16.5021H9.49951V17.4996H16.4951V16.5021H14.5001V15.498H16.4951V16.5021H17.4992V14.5005H13.4961Z" fill="#000001"/>
<path id="Vector_12" d="M16.4955 20.4985H14.5005V21.5026H16.4955V20.4985Z" fill="#000001"/>
<path id="Vector_13" d="M17.4996 8.50195H14.5005V9.49945H17.4996V8.50195Z" fill="#000001"/>
<path id="Vector_14" d="M15.498 5.49658H14.5005V7.49814H15.498V5.49658Z" fill="#000001"/>
<path id="Vector_15" d="M16.4955 2.49756H14.5005V3.50162H16.4955V2.49756Z" fill="#000001"/>
<path id="Vector_16" d="M14.5002 7.49805H13.4961V8.50211H14.5002V7.49805Z" fill="#000001"/>
<path id="Vector_17" d="M14.5001 4.49902H12.4985V5.49652H14.5001V4.49902Z" fill="#000001"/>
<path id="Vector_18" d="M14.5001 21.5024H9.49951V22.4999H14.5001V21.5024Z" fill="#000001"/>
<path id="Vector_19" d="M13.496 13.5029H12.4985V14.5004H13.496V13.5029Z" fill="#000001"/>
<path id="Vector_20" d="M13.496 11.5015H12.4985V12.499H13.496V11.5015Z" fill="#000001"/>
<path id="Vector_21" d="M13.496 8.50195H12.4985V9.49945H13.496V8.50195Z" fill="#000001"/>
<path id="Vector_22" d="M12.4987 5.49658H11.4946V6.50064H12.4987V5.49658Z" fill="#000001"/>
<path id="Vector_23" d="M11.4946 6.50049H10.4971V7.49799H11.4946V6.50049Z" fill="#000001"/>
<path id="Vector_24" d="M14.5001 1.5H9.49951V2.4975H14.5001V1.5Z" fill="#000001"/>
<path id="Vector_25" d="M10.497 7.49805H9.49951V8.50211H10.497V7.49805Z" fill="#000001"/>
<path id="Vector_26" d="M9.49961 20.4985H7.49805V21.5026H9.49961V20.4985Z" fill="#000001"/>
<path id="Vector_27" d="M8.49564 15.4977V9.49961H9.49971V8.50211H8.49564V7.49805H5.49658V17.4993H8.49564V16.5018H9.49971V15.4977H8.49564ZM7.49814 15.4977H6.50064V13.5027H7.49814V15.4977Z" fill="#000001"/>
<path id="Vector_28" d="M9.49961 2.49756H7.49805V3.50162H9.49961V2.49756Z" fill="#000001"/>
<path id="Vector_29" d="M7.49814 19.501H5.49658V20.4985H7.49814V19.501Z" fill="#000001"/>
<path id="Vector_30" d="M7.49814 3.50146H5.49658V4.49896H7.49814V3.50146Z" fill="#000001"/>
<path id="Vector_31" d="M5.49652 18.4971H4.49902V19.5011H5.49652V18.4971Z" fill="#000001"/>
<path id="Vector_32" d="M5.49652 4.49902H4.49902V5.49652H5.49652V4.49902Z" fill="#000001"/>
<path id="Vector_33" d="M4.49918 16.502H3.49512V18.497H4.49918V16.502Z" fill="#000001"/>
<path id="Vector_34" d="M4.49918 5.49658H3.49512V7.49814H4.49918V5.49658Z" fill="#000001"/>
<path id="Vector_35" d="M3.49506 14.5005H2.49756V16.5021H3.49506V14.5005Z" fill="#000001"/>
<path id="Vector_36" d="M3.49506 7.49805H2.49756V9.49961H3.49506V7.49805Z" fill="#000001"/>
<path id="Vector_37" d="M2.4975 9.49951H1.5V14.5001H2.4975V9.49951Z" fill="#000001"/>
</g>
</g>
</svg>
