<svg width="24" height="24" viewBox="0 0 24 24" fill="none" xmlns="http://www.w3.org/2000/svg">
<g id="social-rewards-like-bubble">
<g id="Group">
<path id="Vector" d="M21.499 11.498H20.5015V12.5021H21.499V11.498Z" fill="#000001"/>
<path id="Vector_2" d="M20.5016 12.5024H19.4976V13.4999H20.5016V12.5024Z" fill="#000001"/>
<path id="Vector_3" d="M20.5016 10.5005H19.4976V11.498H20.5016V10.5005Z" fill="#000001"/>
<path id="Vector_4" d="M19.4975 13.4995H18.5V14.5036H19.4975V13.4995Z" fill="#000001"/>
<path id="Vector_5" d="M19.4975 9.50293H18.5V10.5004H19.4975V9.50293Z" fill="#000001"/>
<path id="Vector_6" d="M17.5025 17.503H14.5034V18.5005H18.5V14.5039H17.5025V17.503Z" fill="#000001"/>
<path id="Vector_7" d="M15.5006 11.498H13.499V12.5021H15.5006V13.4996H13.499V14.5036H14.5031V15.5011H15.5006V14.5036H16.4981V10.5005H15.5006V11.498Z" fill="#000001"/>
<path id="Vector_8" d="M17.5025 6.50406V9.50312H18.5V5.5H14.5034V6.50406H17.5025Z" fill="#000001"/>
<path id="Vector_9" d="M14.5031 18.5005H13.499V19.5045H14.5031V18.5005Z" fill="#000001"/>
<path id="Vector_10" d="M15.5006 9.50293H13.499V10.5004H15.5006V9.50293Z" fill="#000001"/>
<path id="Vector_11" d="M14.5031 4.50244H13.499V5.49994H14.5031V4.50244Z" fill="#000001"/>
<path id="Vector_12" d="M13.4995 19.5044H12.502V20.5019H13.4995V19.5044Z" fill="#000001"/>
<path id="Vector_13" d="M14.5031 15.5015H10.5V16.499H14.5031V15.5015Z" fill="#000001"/>
<path id="Vector_14" d="M13.4995 7.50146H12.502V9.50303H13.4995V7.50146Z" fill="#000001"/>
<path id="Vector_15" d="M13.4995 3.49854H12.502V4.5026H13.4995V3.49854Z" fill="#000001"/>
<path id="Vector_16" d="M12.5016 20.502H11.4976V21.4995H12.5016V20.502Z" fill="#000001"/>
<path id="Vector_17" d="M12.5016 6.50391H11.4976V7.50141H12.5016V6.50391Z" fill="#000001"/>
<path id="Vector_18" d="M12.5016 2.50098H11.4976V3.49848H12.5016V2.50098Z" fill="#000001"/>
<path id="Vector_19" d="M11.4975 19.5044H10.5V20.5019H11.4975V19.5044Z" fill="#000001"/>
<path id="Vector_20" d="M11.4975 7.50146H10.5V9.50303H11.4975V7.50146Z" fill="#000001"/>
<path id="Vector_21" d="M11.4975 3.49854H10.5V4.5026H11.4975V3.49854Z" fill="#000001"/>
<path id="Vector_22" d="M10.4999 18.5005H9.50244V19.5045H10.4999V18.5005Z" fill="#000001"/>
<path id="Vector_23" d="M9.50254 14.5036V10.5004H10.5V9.50293H7.50098V15.5011H10.5V14.5036H9.50254Z" fill="#000001"/>
<path id="Vector_24" d="M10.4999 4.50244H9.50244V5.49994H10.4999V4.50244Z" fill="#000001"/>
<path id="Vector_25" d="M6.50357 17.503V14.5039H5.49951V18.5005H9.50264V17.503H6.50357Z" fill="#000001"/>
<path id="Vector_26" d="M6.50357 6.50406H9.50264V5.5H5.49951V9.50312H6.50357V6.50406Z" fill="#000001"/>
<path id="Vector_27" d="M5.49945 13.4995H4.50195V14.5036H5.49945V13.4995Z" fill="#000001"/>
<path id="Vector_28" d="M5.49945 9.50293H4.50195V10.5004H5.49945V9.50293Z" fill="#000001"/>
<path id="Vector_29" d="M4.50211 12.5024H3.49805V13.4999H4.50211V12.5024Z" fill="#000001"/>
<path id="Vector_30" d="M4.50211 10.5005H3.49805V11.498H4.50211V10.5005Z" fill="#000001"/>
<path id="Vector_31" d="M3.49799 11.498H2.50049V12.5021H3.49799V11.498Z" fill="#000001"/>
</g>
</g>
</svg>
