<svg width="24" height="24" viewBox="0 0 24 24" fill="none" xmlns="http://www.w3.org/2000/svg">
<g id="social-rewards-certified-diploma">
<g id="Group">
<path id="Vector" d="M21.5026 17.0005H20.4985V17.998H22.5001V14.0015H21.5026V17.0005Z" fill="#000001"/>
<path id="Vector_2" d="M22.4999 10.9956H21.5024V11.9997H22.4999V10.9956Z" fill="#000001"/>
<path id="Vector_3" d="M1.5 1.99854V17.9979H11.5012V17.0004H2.4975V2.99604H21.5025V9.00072H22.5V1.99854H1.5Z" fill="#000001"/>
<path id="Vector_4" d="M21.5026 12H20.4985V12.9975H21.5026V12Z" fill="#000001"/>
<path id="Vector_5" d="M21.5026 9.99805H20.4985V10.9955H21.5026V9.99805Z" fill="#000001"/>
<path id="Vector_6" d="M19.5012 14.9986H17.4996V15.9961H16.5021V17.0002H15.498V15.9961H14.5005V14.9986H12.499V12.9971H11.5015V15.9961H12.499V22.0008H14.5005V20.9968H15.498V19.9993H16.5021V20.9968H17.4996V22.0008H19.5012V15.9961H20.4987V12.9971H19.5012V14.9986Z" fill="#000001"/>
<path id="Vector_7" d="M20.4986 6.00156V4H17.4995V4.9975H19.5011V6.00156H20.4986Z" fill="#000001"/>
<path id="Vector_8" d="M19.5011 9.99805H18.4971V12.9971H19.5011V9.99805Z" fill="#000001"/>
<path id="Vector_9" d="M18.497 12.9971H17.4995V14.0011H18.497V12.9971Z" fill="#000001"/>
<path id="Vector_10" d="M18.497 9.00049H17.4995V9.99799H18.497V9.00049Z" fill="#000001"/>
<path id="Vector_11" d="M19.5011 7.99652V9.99809H20.4986V6.99902H17.4995V7.99652H19.5011Z" fill="#000001"/>
<path id="Vector_12" d="M17.4996 14.0015H14.5005V14.999H17.4996V14.0015Z" fill="#000001"/>
<path id="Vector_13" d="M17.4995 6.00146H16.502V6.99896H17.4995V6.00146Z" fill="#000001"/>
<path id="Vector_14" d="M16.5021 4.99756H15.498V6.00162H16.5021V4.99756Z" fill="#000001"/>
<path id="Vector_15" d="M17.4996 7.99658H14.5005V9.00064H17.4996V7.99658Z" fill="#000001"/>
<path id="Vector_16" d="M15.498 6.00146H14.5005V6.99896H15.498V6.00146Z" fill="#000001"/>
<path id="Vector_17" d="M14.5004 12.9971H13.5029V14.0011H14.5004V12.9971Z" fill="#000001"/>
<path id="Vector_18" d="M14.5004 9.00049H13.5029V9.99799H14.5004V9.00049Z" fill="#000001"/>
<path id="Vector_19" d="M13.5026 9.99805H12.4985V12.9971H13.5026V9.99805Z" fill="#000001"/>
<path id="Vector_20" d="M12.499 7.99652H14.5005V6.99902H11.5015V9.99809H12.499V7.99652Z" fill="#000001"/>
<path id="Vector_21" d="M11.5011 12H10.4971V12.9975H11.5011V12Z" fill="#000001"/>
<path id="Vector_22" d="M11.5011 9.99805H10.4971V10.9955H11.5011V9.99805Z" fill="#000001"/>
<path id="Vector_23" d="M10.497 10.9956H9.49951V11.9997H10.497V10.9956Z" fill="#000001"/>
<path id="Vector_24" d="M14.5002 4.9975V4H3.50146V15.9963H10.4971V14.9988H4.49896V4.9975H14.5002Z" fill="#000001"/>
<path id="Vector_25" d="M8.50199 9.99805H5.50293V10.9955H8.50199V9.99805Z" fill="#000001"/>
<path id="Vector_26" d="M8.50199 6.00146H5.50293V9.00053H8.50199V6.00146Z" fill="#000001"/>
<path id="Vector_27" d="M8.50199 12H5.50293V12.9975H8.50199V12Z" fill="#000001"/>
</g>
</g>
</svg>
