<svg width="24" height="24" viewBox="0 0 24 24" fill="none" xmlns="http://www.w3.org/2000/svg">
<g id="social-rewards-reward-gift">
<g id="Group">
<path id="Vector" d="M18.9956 9.99814V10.9956H19.9997V17.0003H18.9956V17.9978H20.9972V10.9956H22.0012V7.99658H20.9972V9.99814H18.9956Z" fill="#000001"/>
<path id="Vector_2" d="M20.997 2.99609H19.9995V6.00172H20.997V2.99609Z" fill="#000001"/>
<path id="Vector_3" d="M2.99609 6.99906V7.99656H4.99766V6.99906H7.99672V7.99656H4.99766V9.00062H6.00172V10.9956H4.99766V11.9997H6.00172V17.9978H4.99766V19.0019H6.99922V19.9994H9.00078V14.0012H10.9958V12.9972H9.00078V10.9956H10.9958V9.99812H9.00078V9.00062H14.9989V9.99812H12.9973V10.9956H14.9989V12.9972H12.9973V14.0012H14.9989V19.0019H14.0014V19.9994H12.9973V20.9969H14.9989V19.9994H17.0005V19.0019H18.9955V17.9978H17.998V11.9997H18.9955V10.9956H17.998V9.00062H18.9955V7.99656H15.9964V6.99906H18.9955V7.99656H20.997V6.99906H19.9995V6.00156H18.9955V4H17.0005V4.9975H14.9989V6.00156H14.0014V4H12.9973V6.00156H10.9958V4H9.99828V6.99906H9.00078V4.9975H6.99922V4H4.99766V6.00156H4.00016V6.99906H2.99609ZM10.9958 6.99906H12.9973V7.99656H10.9958V6.99906Z" fill="#000001"/>
<path id="Vector_4" d="M19.9997 1.99854H15.9966V2.99604H19.9997V1.99854Z" fill="#000001"/>
<path id="Vector_5" d="M15.9965 2.99609H14.0015V4.00016H15.9965V2.99609Z" fill="#000001"/>
<path id="Vector_6" d="M12.9972 2.99609H10.9956V4.00016H12.9972V2.99609Z" fill="#000001"/>
<path id="Vector_7" d="M12.9972 20.9971H10.9956V22.0011H12.9972V20.9971Z" fill="#000001"/>
<path id="Vector_8" d="M12.9972 14.0015H10.9956V14.999H12.9972V14.0015Z" fill="#000001"/>
<path id="Vector_9" d="M12.9972 10.9956H10.9956V11.9997H12.9972V10.9956Z" fill="#000001"/>
<path id="Vector_10" d="M10.9955 19.9995H9.00049V20.997H10.9955V19.9995Z" fill="#000001"/>
<path id="Vector_11" d="M9.99814 2.99609H7.99658V4.00016H9.99814V2.99609Z" fill="#000001"/>
<path id="Vector_12" d="M7.99656 1.99854H4V2.99604H7.99656V1.99854Z" fill="#000001"/>
<path id="Vector_13" d="M4.0001 17.0003V10.9956H4.9976V9.99814H2.99604V7.99658H1.99854V10.9956H2.99604V17.9978H4.9976V17.0003H4.0001Z" fill="#000001"/>
<path id="Vector_14" d="M4.00016 2.99609H2.99609V6.00172H4.00016V2.99609Z" fill="#000001"/>
</g>
</g>
</svg>
