<svg width="24" height="24" viewBox="0 0 24 24" fill="none" xmlns="http://www.w3.org/2000/svg">
<g id="technology-drone-camera">
<g id="Group">
<path id="Vector" d="M22.5 9.49951H21.496V10.497H22.5V9.49951Z" fill="#000001"/>
<path id="Vector_2" d="M14.5004 10.497V9.49951H9.49975V10.497H2.49756V11.5011H7.49818V12.4986H8.49568V13.4961H11.4947V15.4976H9.49975V16.5017H14.5004V15.4976H12.4988V13.4961H15.4979V12.4986H16.4954V11.5011H21.496V10.497H14.5004Z" fill="#000001"/>
<path id="Vector_3" d="M17.4994 14.5H16.4954V16.5016H17.4994V14.5Z" fill="#000001"/>
<path id="Vector_4" d="M16.4953 13.4961H15.4978V14.5002H16.4953V13.4961Z" fill="#000001"/>
<path id="Vector_5" d="M21.496 9.49959V8.50209H18.4969V5.49646H21.496V4.49896H18.4969V3.50146H17.4994V4.49896H14.5004V5.49646H17.4994V8.50209H15.4979V9.49959H21.496Z" fill="#000001"/>
<path id="Vector_6" d="M15.4979 16.502H14.5004V19.501H15.4979V16.502Z" fill="#000001"/>
<path id="Vector_7" d="M15.4979 7.49805H14.5004V8.50211H15.4979V7.49805Z" fill="#000001"/>
<path id="Vector_8" d="M14.5003 19.501H9.49963V20.4985H14.5003V19.501Z" fill="#000001"/>
<path id="Vector_9" d="M12.4987 17.4995H11.4946V18.497H12.4987V17.4995Z" fill="#000001"/>
<path id="Vector_10" d="M14.5003 6.50049H9.49963V7.49799H14.5003V6.50049Z" fill="#000001"/>
<path id="Vector_11" d="M9.49967 16.502H8.49561V19.501H9.49967V16.502Z" fill="#000001"/>
<path id="Vector_12" d="M9.49967 7.49805H8.49561V8.50211H9.49967V7.49805Z" fill="#000001"/>
<path id="Vector_13" d="M8.49567 13.4961H7.49817V14.5002H8.49567V13.4961Z" fill="#000001"/>
<path id="Vector_14" d="M7.49811 14.5H6.50061V16.5016H7.49811V14.5Z" fill="#000001"/>
<path id="Vector_15" d="M8.49568 9.49959V8.50209H6.50068V5.49646H9.49975V4.49896H6.50068V3.50146H5.49662V4.49896H2.49756V5.49646H5.49662V8.50209H2.49756V9.49959H8.49568Z" fill="#000001"/>
<path id="Vector_16" d="M2.4975 9.49951H1.5V10.497H2.4975V9.49951Z" fill="#000001"/>
</g>
</g>
</svg>
