<svg width="24" height="24" viewBox="0 0 24 24" fill="none" xmlns="http://www.w3.org/2000/svg">
<g id="technology-robot-ai-signal-2">
<g id="Group">
<path id="Vector" d="M19.4977 10.4971H18.5002V7.49805H17.4961V15.4977H18.5002V11.5012H19.4977V12.4987H20.5017V9.49961H19.4977V10.4971Z" fill="#000001"/>
<path id="Vector_2" d="M16.4987 20.4985V22.5H17.4962V21.5025H19.4977V22.5H20.5018V19.501H19.4977V20.4985H16.4987Z" fill="#000001"/>
<path id="Vector_3" d="M19.4976 2.49756H18.5001V3.50162H19.4976V2.49756Z" fill="#000001"/>
<path id="Vector_4" d="M18.5002 3.50146H17.4961V4.49896H18.5002V3.50146Z" fill="#000001"/>
<path id="Vector_5" d="M18.5002 1.5H17.4961V2.4975H18.5002V1.5Z" fill="#000001"/>
<path id="Vector_6" d="M17.4962 15.498H16.4987V16.5021H17.4962V15.498Z" fill="#000001"/>
<path id="Vector_7" d="M17.4962 6.50049H16.4987V7.49799H17.4962V6.50049Z" fill="#000001"/>
<path id="Vector_8" d="M15.5011 10.497H14.497V9.49951H13.4995V11.5011H14.497V12.4986H15.5011V11.5011H16.4986V9.49951H15.5011V10.497Z" fill="#000001"/>
<path id="Vector_9" d="M16.4986 2.49756H15.5011V3.50162H16.4986V2.49756Z" fill="#000001"/>
<path id="Vector_10" d="M7.50147 16.502V17.4995H8.49897V18.497H4.49585V19.501H19.4977V18.497H15.5012V17.4995H16.4987V16.502H7.50147ZM14.4971 18.497H9.49647V17.4995H14.4971V18.497Z" fill="#000001"/>
<path id="Vector_11" d="M15.5011 3.50146H14.4971V4.49896H15.5011V3.50146Z" fill="#000001"/>
<path id="Vector_12" d="M15.5011 1.5H14.4971V2.4975H15.5011V1.5Z" fill="#000001"/>
<path id="Vector_13" d="M8.4989 20.4985V22.5001H9.4964V21.5026H14.497V22.5001H15.5011V20.4985H8.4989Z" fill="#000001"/>
<path id="Vector_14" d="M13.4995 2.49756H12.4955V3.50162H13.4995V2.49756Z" fill="#000001"/>
<path id="Vector_15" d="M12.4955 13.4961H11.498V14.5002H10.5005V15.4977H13.4996V14.5002H12.4955V13.4961Z" fill="#000001"/>
<path id="Vector_16" d="M12.4954 1.5H11.4979V2.4975H12.4954V1.5Z" fill="#000001"/>
<path id="Vector_17" d="M11.498 2.49756H10.5005V3.50162H11.498V2.49756Z" fill="#000001"/>
<path id="Vector_18" d="M10.5005 9.49951H9.49646V10.497H8.49896V9.49951H7.50146V11.5011H8.49896V12.4986H9.49646V11.5011H10.5005V9.49951Z" fill="#000001"/>
<path id="Vector_19" d="M8.49896 7.49803H9.49646V8.50209H14.4971V7.49803H15.5012V6.50053H16.4987V5.49646H12.4955V3.50146H11.498V5.49646H7.50146V6.50053H8.49896V7.49803Z" fill="#000001"/>
<path id="Vector_20" d="M9.4964 3.50146H8.4989V4.49896H9.4964V3.50146Z" fill="#000001"/>
<path id="Vector_21" d="M9.4964 1.5H8.4989V2.4975H9.4964V1.5Z" fill="#000001"/>
<path id="Vector_22" d="M8.49896 2.49756H7.50146V3.50162H8.49896V2.49756Z" fill="#000001"/>
<path id="Vector_23" d="M7.50138 15.498H6.49731V16.5021H7.50138V15.498Z" fill="#000001"/>
<path id="Vector_24" d="M7.50138 6.50049H6.49731V7.49799H7.50138V6.50049Z" fill="#000001"/>
<path id="Vector_25" d="M6.49735 7.49805H5.49985V10.4971H4.49579V9.49961H3.49829V12.4987H4.49579V11.5012H5.49985V15.4977H6.49735V7.49805Z" fill="#000001"/>
<path id="Vector_26" d="M6.49738 3.50146H5.49988V4.49896H6.49738V3.50146Z" fill="#000001"/>
<path id="Vector_27" d="M6.49738 1.5H5.49988V2.4975H6.49738V1.5Z" fill="#000001"/>
<path id="Vector_28" d="M5.49991 2.49756H4.49585V3.50162H5.49991V2.49756Z" fill="#000001"/>
<path id="Vector_29" d="M3.49829 22.5H4.49579V21.5025H6.49735V22.5H7.50142V20.4985H4.49579V19.501H3.49829V22.5Z" fill="#000001"/>
</g>
</g>
</svg>
