<svg width="24" height="24" viewBox="0 0 24 24" fill="none" xmlns="http://www.w3.org/2000/svg">
<g id="technology-drone-signal">
<g id="Group">
<path id="Vector" d="M18.4969 8.0001V6.99604H17.4994V8.0001H15.4978V6.99604H14.5003V5.99854H9.49969V6.99604H8.49562V8.0001H6.50062V6.99604H5.49656V8.0001H2.4975V6.99604H1.5V8.9976H2.4975V9.9951H4.49906V10.9992H8.49562V9.9951H9.49969V8.9976H10.4972V8.0001H13.4963V8.9976H14.5003V9.9951H15.4978V10.9992H19.5009V9.9951H21.4959V8.9976H22.5V6.99604H21.4959V8.0001H18.4969Z" fill="#000001"/>
<path id="Vector_2" d="M20.4985 2.99951H19.501V3.99701H17.4994V4.99451H19.501V5.99857H18.4969V6.99607H21.496V5.99857H20.4985V4.99451H22.5V3.99701H20.4985V2.99951Z" fill="#000001"/>
<path id="Vector_3" d="M17.4994 12.9941H16.4954V14.9957H17.4994V12.9941Z" fill="#000001"/>
<path id="Vector_4" d="M16.4953 17.9946H15.4978V18.9987H16.4953V17.9946Z" fill="#000001"/>
<path id="Vector_5" d="M15.4979 18.999H14.5004V19.9965H15.4979V18.999Z" fill="#000001"/>
<path id="Vector_6" d="M14.5004 13.9981H15.4979V12.994H16.4954V11.9965H15.4979V10.999H14.5004V13.9981Z" fill="#000001"/>
<path id="Vector_7" d="M14.5003 16.9976H13.4962V17.9951H14.5003V16.9976Z" fill="#000001"/>
<path id="Vector_8" d="M14.5003 13.998H13.4962V14.9955H14.5003V13.998Z" fill="#000001"/>
<path id="Vector_9" d="M14.5003 9.99512H13.4962V10.9992H14.5003V9.99512Z" fill="#000001"/>
<path id="Vector_10" d="M14.5003 19.9966H9.49963V21.0006H14.5003V19.9966Z" fill="#000001"/>
<path id="Vector_11" d="M13.4963 14.9956H10.4972V15.9997H13.4963V14.9956Z" fill="#000001"/>
<path id="Vector_12" d="M10.4972 10.999V13.9981H13.4963V10.999H10.4972ZM12.4988 12.994H11.4947V11.9998H12.4988V12.994Z" fill="#000001"/>
<path id="Vector_13" d="M13.4963 17.9946H10.4972V18.9987H13.4963V17.9946Z" fill="#000001"/>
<path id="Vector_14" d="M13.4963 8.99756H10.4972V9.99506H13.4963V8.99756Z" fill="#000001"/>
<path id="Vector_15" d="M10.4971 16.9976H9.49963V17.9951H10.4971V16.9976Z" fill="#000001"/>
<path id="Vector_16" d="M10.4971 13.998H9.49963V14.9955H10.4971V13.998Z" fill="#000001"/>
<path id="Vector_17" d="M10.4971 9.99512H9.49963V10.9992H10.4971V9.99512Z" fill="#000001"/>
<path id="Vector_18" d="M9.49967 18.999H8.49561V19.9965H9.49967V18.999Z" fill="#000001"/>
<path id="Vector_19" d="M9.49973 10.999H8.49567V11.9965H7.49817V12.994H8.49567V13.9981H9.49973V10.999Z" fill="#000001"/>
<path id="Vector_20" d="M8.49567 17.9946H7.49817V18.9987H8.49567V17.9946Z" fill="#000001"/>
<path id="Vector_21" d="M7.49811 12.9941H6.50061V14.9957H7.49811V12.9941Z" fill="#000001"/>
<path id="Vector_22" d="M5.49656 6.99607V5.99857H4.49906V4.99451H6.50062V3.99701H4.49906V2.99951H3.495V3.99701H1.5V4.99451H3.495V5.99857H2.4975V6.99607H5.49656Z" fill="#000001"/>
</g>
</g>
</svg>
