<svg width="24" height="24" viewBox="0 0 24 24" fill="none" xmlns="http://www.w3.org/2000/svg">
<g id="technology-robot-ai">
<g id="Group">
<path id="Vector" d="M21.4959 13.4961V6.50049H20.4984V12.4986H19.5009V11.5011H18.4968V19.5008H19.5009V18.4967H21.4959V17.4992H22.5V13.4961H21.4959Z" fill="#000001"/>
<path id="Vector_2" d="M18.4969 9.49951H17.4994V11.5011H18.4969V9.49951Z" fill="#000001"/>
<path id="Vector_3" d="M5.49658 19.501V20.4985H6.50064V21.5025H7.49814V20.4985H16.4953V21.5025H17.4994V20.4985H18.4969V19.501H5.49658Z" fill="#000001"/>
<path id="Vector_4" d="M17.4994 13.4961H16.4954V15.4977H17.4994V13.4961Z" fill="#000001"/>
<path id="Vector_5" d="M17.4994 8.50195H16.4954V9.49945H17.4994V8.50195Z" fill="#000001"/>
<path id="Vector_6" d="M16.4954 12.4985H14.5004V13.496H16.4954V12.4985Z" fill="#000001"/>
<path id="Vector_7" d="M16.4954 21.5024H7.49817V22.4999H16.4954V21.5024Z" fill="#000001"/>
<path id="Vector_8" d="M16.4954 15.498H14.5004V16.5021H16.4954V15.498Z" fill="#000001"/>
<path id="Vector_9" d="M14.5003 13.4961H13.4962V15.4977H14.5003V13.4961Z" fill="#000001"/>
<path id="Vector_10" d="M14.5003 2.49756H13.4962V3.50162H14.5003V2.49756Z" fill="#000001"/>
<path id="Vector_11" d="M13.4963 17.4995H10.4972V18.497H13.4963V17.4995Z" fill="#000001"/>
<path id="Vector_12" d="M13.4963 1.5H10.4972V2.4975H13.4963V1.5Z" fill="#000001"/>
<path id="Vector_13" d="M10.4971 13.4961H9.49963V15.4977H10.4971V13.4961Z" fill="#000001"/>
<path id="Vector_14" d="M10.4971 2.49756H9.49963V3.50162H10.4971V2.49756Z" fill="#000001"/>
<path id="Vector_15" d="M9.49973 12.4985H7.49817V13.496H9.49973V12.4985Z" fill="#000001"/>
<path id="Vector_16" d="M16.4954 8.50209V7.49803H12.4988V4.49896H13.4963V3.50146H10.4972V4.49896H11.4947V7.49803H7.49817V8.50209H16.4954Z" fill="#000001"/>
<path id="Vector_17" d="M9.49973 15.498H7.49817V16.5021H9.49973V15.498Z" fill="#000001"/>
<path id="Vector_18" d="M7.49811 13.4961H6.50061V15.4977H7.49811V13.4961Z" fill="#000001"/>
<path id="Vector_19" d="M7.49811 8.50195H6.50061V9.49945H7.49811V8.50195Z" fill="#000001"/>
<path id="Vector_20" d="M6.50064 9.49951H5.49658V11.5011H6.50064V9.49951Z" fill="#000001"/>
<path id="Vector_21" d="M5.49656 11.5011H4.49906V12.4986H3.495V6.50049H2.4975V13.4961H1.5V17.4992H2.4975V18.4967H4.49906V19.5008H5.49656V11.5011Z" fill="#000001"/>
</g>
</g>
</svg>
