<svg width="24" height="24" viewBox="0 0 24 24" fill="none" xmlns="http://www.w3.org/2000/svg">
<g id="technology-robot-ai-signal-1">
<g id="Group">
<path id="Vector" d="M21.4992 12.4985H20.5017V17.4992H21.4992V12.4985Z" fill="#000001"/>
<path id="Vector_2" d="M20.5016 2.49756H19.4976V6.50068H20.5016V2.49756Z" fill="#000001"/>
<path id="Vector_3" d="M19.4976 12.4986H20.5017V11.5011H19.4976V10.4971H18.5001V20.4983H19.4976V18.4968H20.5017V17.4993H19.4976V12.4986Z" fill="#000001"/>
<path id="Vector_4" d="M19.4976 6.50049H18.5001V7.49799H19.4976V6.50049Z" fill="#000001"/>
<path id="Vector_5" d="M19.4976 1.5H18.5001V2.4975H19.4976V1.5Z" fill="#000001"/>
<path id="Vector_6" d="M18.5002 20.4985H17.4961V21.5026H18.5002V20.4985Z" fill="#000001"/>
<path id="Vector_7" d="M18.5002 9.49951H17.4961V10.497H18.5002V9.49951Z" fill="#000001"/>
<path id="Vector_8" d="M17.496 12.4985H16.4985V14.5001H17.496V12.4985Z" fill="#000001"/>
<path id="Vector_9" d="M17.496 3.50146H16.4985V5.49646H17.496V3.50146Z" fill="#000001"/>
<path id="Vector_10" d="M17.4961 21.5024H6.49731V22.4999H17.4961V21.5024Z" fill="#000001"/>
<path id="Vector_11" d="M16.4985 11.5015H14.4969V12.499H16.4985V11.5015Z" fill="#000001"/>
<path id="Vector_12" d="M16.4986 5.49658H15.5011V6.50064H16.4986V5.49658Z" fill="#000001"/>
<path id="Vector_13" d="M16.4986 2.49756H15.5011V3.50162H16.4986V2.49756Z" fill="#000001"/>
<path id="Vector_14" d="M16.4985 14.5005H14.4969V15.498H16.4985V14.5005Z" fill="#000001"/>
<path id="Vector_15" d="M8.4989 17.4995V18.497H9.4964V19.5011H10.5005V20.4986H13.4995V19.5011H14.497V18.497H15.5011V17.4995H8.4989Z" fill="#000001"/>
<path id="Vector_16" d="M14.497 12.4985H13.4995V14.5001H14.497V12.4985Z" fill="#000001"/>
<path id="Vector_17" d="M10.5004 16.5021H13.4994V15.498H12.4954V14.5005H11.4979V15.498H10.5004V16.5021Z" fill="#000001"/>
<path id="Vector_18" d="M10.5004 12.4985H9.49634V14.5001H10.5004V12.4985Z" fill="#000001"/>
<path id="Vector_19" d="M9.49634 14.5005H7.50134V15.498H9.49634V14.5005Z" fill="#000001"/>
<path id="Vector_20" d="M9.49634 11.5015H7.50134V12.499H9.49634V11.5015Z" fill="#000001"/>
<path id="Vector_21" d="M17.4961 9.49969V8.50219H12.4954V6.50062H13.4995V5.49656H14.497V2.4975H13.4995V1.5H10.5004V2.4975H9.49638V5.49656H10.5004V6.50062H11.4979V8.50219H6.49731V9.49969H17.4961Z" fill="#000001"/>
<path id="Vector_22" d="M8.49884 5.49658H7.50134V6.50064H8.49884V5.49658Z" fill="#000001"/>
<path id="Vector_23" d="M8.49884 2.49756H7.50134V3.50162H8.49884V2.49756Z" fill="#000001"/>
<path id="Vector_24" d="M7.50138 12.4985H6.49731V14.5001H7.50138V12.4985Z" fill="#000001"/>
<path id="Vector_25" d="M7.50138 3.50146H6.49731V5.49646H7.50138V3.50146Z" fill="#000001"/>
<path id="Vector_26" d="M6.49726 20.4985H5.49976V21.5026H6.49726V20.4985Z" fill="#000001"/>
<path id="Vector_27" d="M6.49726 9.49951H5.49976V10.497H6.49726V9.49951Z" fill="#000001"/>
<path id="Vector_28" d="M5.49985 10.4971H4.49579V11.5011H3.49829V12.4986H4.49579V17.4993H3.49829V18.4968H4.49579V20.4983H5.49985V10.4971Z" fill="#000001"/>
<path id="Vector_29" d="M5.49979 6.50049H4.49573V7.49799H5.49979V6.50049Z" fill="#000001"/>
<path id="Vector_30" d="M5.49979 1.5H4.49573V2.4975H5.49979V1.5Z" fill="#000001"/>
<path id="Vector_31" d="M4.49579 2.49756H3.49829V6.50068H4.49579V2.49756Z" fill="#000001"/>
<path id="Vector_32" d="M3.49823 12.4985H2.50073V17.4992H3.49823V12.4985Z" fill="#000001"/>
</g>
</g>
</svg>
