<svg width="24" height="24" viewBox="0 0 24 24" fill="none" xmlns="http://www.w3.org/2000/svg">
<g id="transportation-motorcycle">
<g id="Group">
<path id="Vector" d="M22.5 13.5029H21.5025V16.502H22.5V13.5029Z" fill="#000001"/>
<path id="Vector_2" d="M21.5025 12.4985H20.505V13.5026H21.5025V12.4985Z" fill="#000001"/>
<path id="Vector_3" d="M20.505 14.5004H19.5009V16.502H13.5028V14.5004H12.5053V15.5045H11.5012V13.5029H10.5037V15.5045H8.50218V16.502H5.50311V17.4995H8.50218V18.5036H9.49968V17.4995H13.5028V18.5036H14.5003V17.4995H19.5009V18.5036H20.505V17.4995H21.5025V16.502H20.505V14.5004Z" fill="#000001"/>
<path id="Vector_4" d="M19.5009 18.5034H18.5034V19.5009H19.5009V18.5034Z" fill="#000001"/>
<path id="Vector_5" d="M19.5009 13.5029H18.5034V14.5004H19.5009V13.5029Z" fill="#000001"/>
<path id="Vector_6" d="M18.5034 19.501H15.5044V20.4985H18.5034V19.501Z" fill="#000001"/>
<path id="Vector_7" d="M17.5059 14.5H15.5044V15.5041H17.5059V14.5Z" fill="#000001"/>
<path id="Vector_8" d="M18.5034 12.4985H14.5003V13.5026H18.5034V12.4985Z" fill="#000001"/>
<path id="Vector_9" d="M15.5044 18.5034H14.5003V19.5009H15.5044V18.5034Z" fill="#000001"/>
<path id="Vector_10" d="M14.5003 13.5029H13.5028V14.5004H14.5003V13.5029Z" fill="#000001"/>
<path id="Vector_11" d="M12.5053 11.501H19.5009V12.4985H20.505V11.501H21.5025V9.49945H20.505V8.50195H11.5013V9.49945H10.5038V11.501H11.5013V13.5026H12.5053V11.501Z" fill="#000001"/>
<path id="Vector_12" d="M8.5022 18.5034H7.5047V19.5009H8.5022V18.5034Z" fill="#000001"/>
<path id="Vector_13" d="M7.50467 13.5027H6.50061V14.5002H7.50467V15.5043H8.50217V7.49805H7.50467V13.5027Z" fill="#000001"/>
<path id="Vector_14" d="M7.50468 6.50053H8.50218V7.49803H9.49968V6.50053H11.5012V5.50303H9.49968V4.49896H8.50218V3.50146H5.50311V4.49896H7.50468V6.50053Z" fill="#000001"/>
<path id="Vector_15" d="M7.50468 19.501H4.50562V20.4985H7.50468V19.501Z" fill="#000001"/>
<path id="Vector_16" d="M6.50062 5.50293H5.50312V7.49793H3.50156V8.50199H5.50312V9.49949H6.50062V5.50293Z" fill="#000001"/>
<path id="Vector_17" d="M5.50312 9.49951H4.50562V11.5011H5.50312V9.49951Z" fill="#000001"/>
<path id="Vector_18" d="M5.50312 4.49902H3.50156V5.50309H5.50312V4.49902Z" fill="#000001"/>
<path id="Vector_19" d="M4.50562 18.5034H3.50156V19.5009H4.50562V18.5034Z" fill="#000001"/>
<path id="Vector_20" d="M6.50062 13.5025V12.4985H4.50562V11.501H3.50156V12.4985H2.50406V13.5025H6.50062Z" fill="#000001"/>
<path id="Vector_21" d="M5.50312 16.502V15.5045H2.50406V13.5029H1.5V16.502H2.50406V18.5036H3.50156V16.502H5.50312Z" fill="#000001"/>
<path id="Vector_22" d="M3.50156 5.50293H2.50406V7.49793H3.50156V5.50293Z" fill="#000001"/>
</g>
</g>
</svg>
