<svg width="24" height="24" viewBox="0 0 24 24" fill="none" xmlns="http://www.w3.org/2000/svg">
<g id="transportation-plane">
<g id="Group">
<path id="Vector" d="M19.5009 4.49902V5.50309H21.4959V10.5037H18.4969V11.5012H14.5003V12.4987H10.4972V13.5028H7.49812V14.5003H2.4975V15.5043H3.50156V16.5018H12.4987V15.5043H11.5012V14.5003H13.4962V13.5028H16.5019V14.5003H17.4994V15.5043H18.4969V13.5028H20.4984V12.4987H21.4959V11.5012H22.5V4.49902H19.5009Z" fill="#000001"/>
<path id="Vector_2" d="M21.4959 17.4995H20.4984V19.5011H21.4959V17.4995Z" fill="#000001"/>
<path id="Vector_3" d="M20.4984 16.502H19.5009V17.4995H20.4984V16.502Z" fill="#000001"/>
<path id="Vector_4" d="M20.4985 19.501H18.4969V20.4985H20.4985V19.501Z" fill="#000001"/>
<path id="Vector_5" d="M19.501 15.5044H18.4969V16.5019H19.501V15.5044Z" fill="#000001"/>
<path id="Vector_6" d="M19.501 5.50293H18.4969V7.49793H19.501V5.50293Z" fill="#000001"/>
<path id="Vector_7" d="M18.4969 18.5034H16.5019V19.5009H18.4969V18.5034Z" fill="#000001"/>
<path id="Vector_8" d="M18.4969 7.49805H17.4994V8.50211H18.4969V7.49805Z" fill="#000001"/>
<path id="Vector_9" d="M17.4994 4.49902H16.5019V6.50059H17.4994V4.49902Z" fill="#000001"/>
<path id="Vector_10" d="M16.5019 17.4995H14.5003V18.5036H16.5019V17.4995Z" fill="#000001"/>
<path id="Vector_11" d="M16.5019 6.50049H15.4978V7.49799H16.5019V6.50049Z" fill="#000001"/>
<path id="Vector_12" d="M16.5019 3.50146H14.5003V4.49896H16.5019V3.50146Z" fill="#000001"/>
<path id="Vector_13" d="M14.5003 16.502H12.4987V17.4995H14.5003V16.502Z" fill="#000001"/>
<path id="Vector_14" d="M14.5003 4.49902H12.4987V5.50309H14.5003V4.49902Z" fill="#000001"/>
<path id="Vector_15" d="M13.4962 10.5034H12.4987V11.5009H13.4962V10.5034Z" fill="#000001"/>
<path id="Vector_16" d="M12.4988 5.50293H11.5013V6.50043H12.4988V5.50293Z" fill="#000001"/>
<path id="Vector_17" d="M11.5013 10.5034H10.4972V11.5009H11.5013V10.5034Z" fill="#000001"/>
<path id="Vector_18" d="M11.5013 6.50049H10.4972V7.49799H11.5013V6.50049Z" fill="#000001"/>
<path id="Vector_19" d="M9.4997 10.5034H8.49564V11.5009H9.4997V10.5034Z" fill="#000001"/>
<path id="Vector_20" d="M6.50061 10.5034H5.49655V12.4984H6.50061V10.5034Z" fill="#000001"/>
<path id="Vector_21" d="M5.49656 9.49961H17.4994V8.50211H15.4978V7.49805H14.5003V8.50211H10.4972V7.49805H9.49968V8.50211H4.49906V9.49961H3.50156V10.5037H5.49656V9.49961Z" fill="#000001"/>
<path id="Vector_22" d="M5.49656 13.5025V12.4985H2.4975V11.501H1.5V14.5H2.4975V13.5025H5.49656Z" fill="#000001"/>
<path id="Vector_23" d="M3.50156 10.5034H2.4975V11.5009H3.50156V10.5034Z" fill="#000001"/>
</g>
</g>
</svg>
