<svg width="24" height="24" viewBox="0 0 24 24" fill="none" xmlns="http://www.w3.org/2000/svg">
<g id="transportation-vintage-train">
<g id="Group">
<path id="Vector" d="M22.5 18.4971H21.4959V19.4946H22.5V18.4971Z" fill="#000001"/>
<path id="Vector_2" d="M21.4959 12.4985H20.4984V18.4967H21.4959V12.4985Z" fill="#000001"/>
<path id="Vector_3" d="M20.4984 11.4946H19.5009V12.4987H20.4984V11.4946Z" fill="#000001"/>
<path id="Vector_4" d="M20.4984 6.49414H19.5009V7.4982H20.4984V6.49414Z" fill="#000001"/>
<path id="Vector_5" d="M19.501 17.4995H18.4969V20.4986H19.501V19.4945H20.4985V18.497H19.501V17.4995Z" fill="#000001"/>
<path id="Vector_6" d="M18.4969 20.4985H17.4994V21.496H18.4969V20.4985Z" fill="#000001"/>
<path id="Vector_7" d="M18.4969 16.4951H17.4994V17.4992H18.4969V16.4951Z" fill="#000001"/>
<path id="Vector_8" d="M17.4994 21.4961H14.5003V22.5002H17.4994V21.4961Z" fill="#000001"/>
<path id="Vector_9" d="M17.4994 15.498H14.5003V16.4955H17.4994V15.498Z" fill="#000001"/>
<path id="Vector_10" d="M19.501 5.49658H13.4963V6.49408H19.501V5.49658Z" fill="#000001"/>
<path id="Vector_11" d="M14.5003 20.4985H13.4963V21.496H14.5003V20.4985Z" fill="#000001"/>
<path id="Vector_12" d="M14.5003 19.4945V20.4986H16.5019V17.4995H14.5003V18.497H13.4962V17.4995H12.4987V18.497H10.4972V17.4995H9.49967V18.497H8.49561V17.4995H6.50061V20.4986H8.49561V19.4945H9.49967V20.4986H10.4972V19.4945H12.4987V20.4986H13.4962V19.4945H14.5003Z" fill="#000001"/>
<path id="Vector_13" d="M14.5003 16.4951H13.4963V17.4992H14.5003V16.4951Z" fill="#000001"/>
<path id="Vector_14" d="M14.5003 2.49756H13.4963V3.49506H14.5003V2.49756Z" fill="#000001"/>
<path id="Vector_15" d="M19.501 11.4946V10.4971H18.4969V8.49555H19.501V7.49805H13.4963V8.49555H14.5003V10.4971H12.4988V11.4946H19.501ZM15.4978 8.49555H17.4994V10.4971H15.4978V8.49555Z" fill="#000001"/>
<path id="Vector_16" d="M13.4963 6.49414H12.4988V7.4982H13.4963V6.49414Z" fill="#000001"/>
<path id="Vector_17" d="M12.4987 9.49951H11.5012V10.497H12.4987V9.49951Z" fill="#000001"/>
<path id="Vector_18" d="M9.49967 20.4985H8.49561V21.496H9.49967V20.4985Z" fill="#000001"/>
<path id="Vector_19" d="M9.49967 16.4951H8.49561V17.4992H9.49967V16.4951Z" fill="#000001"/>
<path id="Vector_20" d="M3.50159 6.49414V12.4988H9.49971V6.49414H3.50159ZM8.49565 11.4948H4.49909V7.4982H8.49565V11.4948Z" fill="#000001"/>
<path id="Vector_21" d="M8.49564 21.4961H5.49658V22.5002H8.49564V21.4961Z" fill="#000001"/>
<path id="Vector_22" d="M8.49564 15.498H5.49658V16.4955H8.49564V15.498Z" fill="#000001"/>
<path id="Vector_23" d="M5.49658 20.4985H4.49908V21.496H5.49658V20.4985Z" fill="#000001"/>
<path id="Vector_24" d="M5.49658 16.4951H4.49908V17.4992H5.49658V16.4951Z" fill="#000001"/>
<path id="Vector_25" d="M4.49906 17.4995H3.50156V18.497H2.4975V19.4945H3.50156V20.4986H4.49906V17.4995Z" fill="#000001"/>
<path id="Vector_26" d="M13.4962 1.5H2.4975V2.4975H13.4962V1.5Z" fill="#000001"/>
<path id="Vector_27" d="M2.4975 4.49912H10.4972V9.49975H11.5012V4.49912H13.4963V3.49506H2.4975V2.49756H1.5V18.4969H2.4975V4.49912Z" fill="#000001"/>
</g>
</g>
</svg>
