<svg width="24" height="24" viewBox="0 0 24 24" fill="none" xmlns="http://www.w3.org/2000/svg">
<g id="transportation-train">
<g id="Group">
<path id="Vector" d="M3.49829 12.4989H20.5017V17.4995H21.4992V3.49512H20.5017V5.49668H3.49829V3.49512H2.50079V17.4995H3.49829V12.4989ZM12.502 6.49418H20.5017V11.4948H12.502V6.49418ZM3.49829 6.49418H11.498V11.4948H3.49829V6.49418Z" fill="#000001"/>
<path id="Vector_2" d="M20.5017 17.4995H19.4977V18.497H20.5017V17.4995Z" fill="#000001"/>
<path id="Vector_3" d="M20.5017 2.49756H19.4977V3.49506H20.5017V2.49756Z" fill="#000001"/>
<path id="Vector_4" d="M19.4977 14.5005H18.5002V16.4955H19.4977V14.5005Z" fill="#000001"/>
<path id="Vector_5" d="M4.50238 18.4971V19.4946H6.49738V20.4986H5.49988V21.4961H4.50238V22.5002H6.49738V21.4961H7.50144V20.4986H8.49894V19.4946H15.5011V20.4986H16.4986V21.4961H17.5027V22.5002H19.4977V21.4961H18.5002V20.4986H17.5027V19.4946H19.4977V18.4971H4.50238Z" fill="#000001"/>
<path id="Vector_6" d="M18.5002 13.4961H16.4986V14.5002H18.5002V13.4961Z" fill="#000001"/>
<path id="Vector_7" d="M18.5002 16.4951H16.4986V17.4992H18.5002V16.4951Z" fill="#000001"/>
<path id="Vector_8" d="M16.4986 14.5005H15.5011V16.4955H16.4986V14.5005Z" fill="#000001"/>
<path id="Vector_9" d="M13.4996 14.5005H10.5005V16.4955H13.4996V14.5005Z" fill="#000001"/>
<path id="Vector_10" d="M13.4996 3.49512H10.5005V4.49918H13.4996V3.49512Z" fill="#000001"/>
<path id="Vector_11" d="M8.4989 14.5005H7.5014V16.4955H8.4989V14.5005Z" fill="#000001"/>
<path id="Vector_12" d="M7.50144 13.4961H5.49988V14.5002H7.50144V13.4961Z" fill="#000001"/>
<path id="Vector_13" d="M7.50144 16.4951H5.49988V17.4992H7.50144V16.4951Z" fill="#000001"/>
<path id="Vector_14" d="M19.4977 1.5H4.50238V2.4975H19.4977V1.5Z" fill="#000001"/>
<path id="Vector_15" d="M5.49988 14.5005H4.50238V16.4955H5.49988V14.5005Z" fill="#000001"/>
<path id="Vector_16" d="M4.50235 17.4995H3.49829V18.497H4.50235V17.4995Z" fill="#000001"/>
<path id="Vector_17" d="M4.50235 2.49756H3.49829V3.49506H4.50235V2.49756Z" fill="#000001"/>
</g>
</g>
</svg>
