<svg width="24" height="24" viewBox="0 0 24 24" fill="none" xmlns="http://www.w3.org/2000/svg">
<g id="transportation-bicycle">
<g id="Group">
<path id="Vector" d="M22.5 12.4985H21.4959V17.4992H22.5V12.4985Z" fill="#000001"/>
<path id="Vector_2" d="M21.4959 17.4995H20.4984V18.497H21.4959V17.4995Z" fill="#000001"/>
<path id="Vector_3" d="M21.4959 11.501H20.4984V12.4985H21.4959V11.501Z" fill="#000001"/>
<path id="Vector_4" d="M20.4984 18.4971H15.4978V19.5011H20.4984V18.4971Z" fill="#000001"/>
<path id="Vector_5" d="M18.4969 14.5005H17.4994V15.498H18.4969V14.5005Z" fill="#000001"/>
<path id="Vector_6" d="M15.4978 17.4995H14.5003V18.497H15.4978V17.4995Z" fill="#000001"/>
<path id="Vector_7" d="M15.4978 11.501H14.5003V12.4985H15.4978V11.501Z" fill="#000001"/>
<path id="Vector_8" d="M15.4978 4.49902H12.4988V5.49652H15.4978V4.49902Z" fill="#000001"/>
<path id="Vector_9" d="M14.5003 12.4985H13.4963V14.5001H10.4972V12.4985H9.49971V14.5001H5.49658V13.496H4.49908V15.4976H9.49971V17.4992H10.4972V15.4976H13.4963V17.4992H14.5003V12.4985Z" fill="#000001"/>
<path id="Vector_10" d="M9.49967 17.4995H8.49561V18.497H9.49967V17.4995Z" fill="#000001"/>
<path id="Vector_11" d="M9.49967 11.501H8.49561V12.4985H9.49967V11.501Z" fill="#000001"/>
<path id="Vector_12" d="M8.49565 18.4971H3.50159V19.5011H8.49565V18.4971Z" fill="#000001"/>
<path id="Vector_13" d="M6.50064 12.4985H5.49658V13.496H6.50064V12.4985Z" fill="#000001"/>
<path id="Vector_14" d="M6.50065 11.5013V12.4988H7.49815V11.5013H8.49565V10.4972H15.4978V11.5013H16.5019V14.5003H17.4994V11.5013H20.4985V10.4972H17.4994V5.49658H15.4978V6.50064H16.5019V9.49971H8.49565V8.49564H10.4972V7.49814H9.49971V6.50064H7.49815V5.49658H5.49659V8.49564H7.49815V10.4972H3.50159V11.5013H6.50065Z" fill="#000001"/>
<path id="Vector_15" d="M3.50156 17.4995H2.4975V18.497H3.50156V17.4995Z" fill="#000001"/>
<path id="Vector_16" d="M3.50156 11.501H2.4975V12.4985H3.50156V11.501Z" fill="#000001"/>
<path id="Vector_17" d="M2.4975 12.4985H1.5V17.4992H2.4975V12.4985Z" fill="#000001"/>
</g>
</g>
</svg>
