<svg width="24" height="24" viewBox="0 0 24 24" fill="none" xmlns="http://www.w3.org/2000/svg">
<g id="transportation-helicopter">
<g id="Group">
<path id="Vector" d="M21.4959 9.50254H19.5009V7.50098H18.4969V9.50254H14.5003V10.5H20.4984V11.4975H21.4959V10.5H22.5V7.50098H21.4959V9.50254Z" fill="#000001"/>
<path id="Vector_2" d="M21.4959 6.49707H19.5009V7.50113H21.4959V6.49707Z" fill="#000001"/>
<path id="Vector_3" d="M20.4984 11.4976H19.5009V12.5016H20.4984V11.4976Z" fill="#000001"/>
<path id="Vector_4" d="M19.501 12.502H17.4994V13.4995H19.501V12.502Z" fill="#000001"/>
<path id="Vector_5" d="M15.4978 15.5011H16.5019V14.5036H17.4994V13.4995H15.4978V15.5011Z" fill="#000001"/>
<path id="Vector_6" d="M15.4978 15.501H14.5003V16.4985H15.4978V15.501Z" fill="#000001"/>
<path id="Vector_7" d="M14.5003 18.5H13.4962V19.4975H14.5003V18.5Z" fill="#000001"/>
<path id="Vector_8" d="M13.4962 12.502H12.4987V16.4985H9.49968V12.502H8.49562V16.4985H3.50156V17.5026H4.49906V19.4976H3.50156V20.5016H13.4962V19.4976H12.4987V17.5026H14.5003V16.4985H13.4962V12.502ZM11.5012 19.4976H5.49656V17.5026H11.5012V19.4976Z" fill="#000001"/>
<path id="Vector_9" d="M14.5003 8.49854H12.4987V9.5026H14.5003V8.49854Z" fill="#000001"/>
<path id="Vector_10" d="M12.4988 11.4976H9.49969V12.5016H12.4988V11.4976Z" fill="#000001"/>
<path id="Vector_11" d="M6.50062 8.49867H12.4988V7.50117H10.4972V6.49711H9.49969V4.50211H17.4994V3.49805H1.5V4.50211H8.49562V6.49711H7.49813V7.50117H5.49656V8.49867H4.49906V9.50273H6.50062V8.49867Z" fill="#000001"/>
<path id="Vector_12" d="M3.50156 18.5H2.4975V19.4975H3.50156V18.5Z" fill="#000001"/>
<path id="Vector_13" d="M3.50156 15.501H2.4975V16.4985H3.50156V15.501Z" fill="#000001"/>
<path id="Vector_14" d="M5.49656 14.5036V13.4995H6.50062V12.502H7.49813V9.50293H6.50062V11.4979H5.49656V10.5004H4.49906V9.50293H3.50156V10.5004H2.4975V11.4979H1.5V15.5011H2.4975V14.5036H5.49656Z" fill="#000001"/>
</g>
</g>
</svg>
