<svg width="24" height="24" viewBox="0 0 24 24" fill="none" xmlns="http://www.w3.org/2000/svg">
<g id="transportation-truck">
<g id="Group">
<path id="Vector" d="M21.4959 9.49971H20.4984V8.49564H19.5009V7.49814H18.4969V9.49971H17.4994V10.4972H16.5019V7.49814H18.4969V6.50064H13.4963V5.49658H12.4988V12.4988H2.4975V5.49658H1.5V16.4953H2.4975V13.4963H12.4988V16.4953H8.49562V15.4978H7.49813V18.4969H8.49562V17.4994H14.5003V18.4969H15.4978V15.4978H14.5003V16.4953H13.4963V7.49814H15.4978V11.5013H16.5019V12.4988H21.4959V16.4953H22.5V10.4972H21.4959V9.49971Z" fill="#000001"/>
<path id="Vector_2" d="M19.501 15.4976H18.4969V18.4966H19.501V17.4991H21.4959V16.4951H19.501V15.4976Z" fill="#000001"/>
<path id="Vector_3" d="M18.4969 18.4971H15.4978V19.5011H18.4969V18.4971Z" fill="#000001"/>
<path id="Vector_4" d="M17.4994 16.4951H16.5019V17.4992H17.4994V16.4951Z" fill="#000001"/>
<path id="Vector_5" d="M18.4969 14.5005H15.4978V15.498H18.4969V14.5005Z" fill="#000001"/>
<path id="Vector_6" d="M7.49815 14.5005H4.49908V15.498H7.49815V14.5005Z" fill="#000001"/>
<path id="Vector_7" d="M7.49815 18.4971H4.49908V19.5011H7.49815V18.4971Z" fill="#000001"/>
<path id="Vector_8" d="M6.50064 16.4951H5.49658V17.4992H6.50064V16.4951Z" fill="#000001"/>
<path id="Vector_9" d="M11.5013 9.49951H3.50159V10.497H11.5013V9.49951Z" fill="#000001"/>
<path id="Vector_10" d="M11.5013 7.49805H3.50159V8.49555H11.5013V7.49805Z" fill="#000001"/>
<path id="Vector_11" d="M4.49906 15.4976H3.50156V16.4951H2.4975V17.4991H3.50156V18.4966H4.49906V15.4976Z" fill="#000001"/>
<path id="Vector_12" d="M12.4987 4.49902H2.4975V5.49652H12.4987V4.49902Z" fill="#000001"/>
</g>
</g>
</svg>
