<svg width="24" height="24" viewBox="0 0 24 24" fill="none" xmlns="http://www.w3.org/2000/svg">
<g id="travel-wayfinding-beach-coconut-tree">
<g id="Group">
<path id="Vector" d="M22.5 16.502H18.5034V17.4995H22.5V16.502Z" fill="#000001"/>
<path id="Vector_2" d="M20.4985 10.4971H19.501V12.4986H20.4985V10.4971Z" fill="#000001"/>
<path id="Vector_3" d="M19.501 6.50064V7.49814H21.5025V5.49658H20.4985V6.50064H19.501Z" fill="#000001"/>
<path id="Vector_4" d="M20.4985 4.49902H19.501V5.49652H20.4985V4.49902Z" fill="#000001"/>
<path id="Vector_5" d="M19.5009 12.499H18.5034V13.4965H19.5009V12.499Z" fill="#000001"/>
<path id="Vector_6" d="M19.5009 9.49951H18.5034V10.497H19.5009V9.49951Z" fill="#000001"/>
<path id="Vector_7" d="M19.5011 5.49658H13.5029V6.50064H19.5011V5.49658Z" fill="#000001"/>
<path id="Vector_8" d="M19.5009 3.50146H18.5034V4.49896H19.5009V3.50146Z" fill="#000001"/>
<path id="Vector_9" d="M18.5036 17.4995H17.4995V18.497H18.5036V17.4995Z" fill="#000001"/>
<path id="Vector_10" d="M18.5036 11.5015H17.4995V12.499H18.5036V11.5015Z" fill="#000001"/>
<path id="Vector_11" d="M18.5036 8.50244H17.4995V9.49994H18.5036V8.50244Z" fill="#000001"/>
<path id="Vector_12" d="M17.4994 10.4971H15.5044V11.5011H17.4994V10.4971Z" fill="#000001"/>
<path id="Vector_13" d="M16.5017 14.5001H15.5042V12.4986H14.5001V11.5011H13.5026V10.497H12.4986V9.49951H9.49951V11.5011H10.5036V13.4961H11.5011V15.4976H12.4986V20.4983H11.5011V21.5023H18.5033V20.4983H17.4992V18.4967H16.5017V14.5001ZM14.5001 20.4983H13.5026V18.4967H14.5001V20.4983ZM14.5001 16.5017H13.5026V14.5001H12.4986V12.4986H11.5011V11.5011H12.4986V12.4986H13.5026V14.5001H14.5001V16.5017Z" fill="#000001"/>
<path id="Vector_14" d="M15.5045 9.49951H13.5029V10.497H15.5045V9.49951Z" fill="#000001"/>
<path id="Vector_15" d="M18.5032 2.49756H12.4985V3.50162H18.5032V2.49756Z" fill="#000001"/>
<path id="Vector_16" d="M12.4985 8.50205H17.4992V7.49799H13.5026V6.50049H12.4985V8.50205Z" fill="#000001"/>
<path id="Vector_17" d="M12.499 3.50146H11.5015V4.49896H12.499V3.50146Z" fill="#000001"/>
<path id="Vector_18" d="M11.5012 17.4995H7.49805V18.497H11.5012V17.4995Z" fill="#000001"/>
<path id="Vector_19" d="M11.5014 4.49902H10.5039V5.49652H11.5014V4.49902Z" fill="#000001"/>
<path id="Vector_20" d="M10.5036 5.49658H9.49951V6.50064H10.5036V5.49658Z" fill="#000001"/>
<path id="Vector_21" d="M9.49945 11.5015H8.50195V14.5005H9.49945V11.5015Z" fill="#000001"/>
<path id="Vector_22" d="M9.49945 4.49902H8.50195V5.49652H9.49945V4.49902Z" fill="#000001"/>
<path id="Vector_23" d="M8.50211 14.5005H7.49805V15.498H8.50211V14.5005Z" fill="#000001"/>
<path id="Vector_24" d="M7.49799 11.5011H8.50205V9.49951H6.50049V10.497H7.49799V11.5011Z" fill="#000001"/>
<path id="Vector_25" d="M7.49799 18.4971H6.50049V19.5011H7.49799V18.4971Z" fill="#000001"/>
<path id="Vector_26" d="M7.49799 15.498H6.50049V16.5021H7.49799V15.498Z" fill="#000001"/>
<path id="Vector_27" d="M7.49799 11.5015H6.50049V12.499H7.49799V11.5015Z" fill="#000001"/>
<path id="Vector_28" d="M4.49902 7.49799V8.50205H8.50215V6.50049H7.49809V7.49799H4.49902Z" fill="#000001"/>
<path id="Vector_29" d="M6.50043 12.499H5.50293V15.4981H6.50043V12.499Z" fill="#000001"/>
<path id="Vector_30" d="M6.50043 10.4971H5.50293V11.5011H6.50043V10.4971Z" fill="#000001"/>
<path id="Vector_31" d="M7.49809 5.49658H4.49902V6.50064H7.49809V5.49658Z" fill="#000001"/>
<path id="Vector_32" d="M6.50047 19.501H2.50391V20.4985H6.50047V19.501Z" fill="#000001"/>
<path id="Vector_33" d="M5.50309 11.5015H4.49902V12.499H5.50309V11.5015Z" fill="#000001"/>
<path id="Vector_34" d="M8.50209 3.50146H3.50146V4.49896H8.50209V3.50146Z" fill="#000001"/>
<path id="Vector_35" d="M4.49896 12.499H3.50146V14.5006H4.49896V12.499Z" fill="#000001"/>
<path id="Vector_36" d="M4.49896 8.50244H3.50146V9.49994H4.49896V8.50244Z" fill="#000001"/>
<path id="Vector_37" d="M4.49896 6.50049H3.50146V7.49799H4.49896V6.50049Z" fill="#000001"/>
<path id="Vector_38" d="M3.50141 14.5005H2.50391V15.498H3.50141V14.5005Z" fill="#000001"/>
<path id="Vector_39" d="M3.50141 9.49951H2.50391V10.497H3.50141V9.49951Z" fill="#000001"/>
<path id="Vector_40" d="M3.50141 7.49805H2.50391V8.50211H3.50141V7.49805Z" fill="#000001"/>
<path id="Vector_41" d="M3.50141 4.49902H2.50391V5.49652H3.50141V4.49902Z" fill="#000001"/>
<path id="Vector_42" d="M2.50406 20.4985H1.5V21.5026H2.50406V20.4985Z" fill="#000001"/>
<path id="Vector_43" d="M2.50406 10.4971H1.5V14.5002H2.50406V10.4971Z" fill="#000001"/>
<path id="Vector_44" d="M2.50406 5.49658H1.5V7.49814H2.50406V5.49658Z" fill="#000001"/>
</g>
</g>
</svg>
