<svg width="24" height="24" viewBox="0 0 24 24" fill="none" xmlns="http://www.w3.org/2000/svg">
<g id="travel-wayfinding-balloon">
<g id="Group">
<path id="Vector" d="M19.498 5.49658H18.5005V12.4988H19.498V5.49658Z" fill="#000001"/>
<path id="Vector_2" d="M18.5004 12.4985H17.5029V14.5001H18.5004V12.4985Z" fill="#000001"/>
<path id="Vector_3" d="M18.5004 3.50146H17.5029V5.49646H18.5004V3.50146Z" fill="#000001"/>
<path id="Vector_4" d="M17.5026 14.5005H16.4985V15.498H17.5026V14.5005Z" fill="#000001"/>
<path id="Vector_5" d="M16.4985 15.498H15.501V16.5021H16.4985V15.498Z" fill="#000001"/>
<path id="Vector_6" d="M17.5025 2.49756H15.501V3.50162H17.5025V2.49756Z" fill="#000001"/>
<path id="Vector_7" d="M15.5011 6.50049H14.4971V13.4961H15.5011V6.50049Z" fill="#000001"/>
<path id="Vector_8" d="M14.4971 13.4961H13.4996V16.5017H10.5006V13.4961H9.49652V16.5017H8.49902V17.4992H9.49652V19.5008H8.49902V21.5023H9.49652V22.4998H14.4971V21.5023H15.5012V19.5008H14.4971V17.4992H15.5012V16.5017H14.4971V13.4961ZM13.4996 19.5008H10.5006V17.4992H13.4996V19.5008Z" fill="#000001"/>
<path id="Vector_9" d="M9.49652 6.50062H10.5006V2.4975H13.4996V6.50062H14.4971V2.4975H15.5012V1.5H8.49902V2.4975H9.49652V6.50062Z" fill="#000001"/>
<path id="Vector_10" d="M9.49652 6.50049H8.49902V13.4961H9.49652V6.50049Z" fill="#000001"/>
<path id="Vector_11" d="M8.49896 15.498H7.50146V16.5021H8.49896V15.498Z" fill="#000001"/>
<path id="Vector_12" d="M8.49912 2.49756H6.49756V3.50162H8.49912V2.49756Z" fill="#000001"/>
<path id="Vector_13" d="M7.50162 14.5005H6.49756V15.498H7.50162V14.5005Z" fill="#000001"/>
<path id="Vector_14" d="M6.4975 12.4985H5.5V14.5001H6.4975V12.4985Z" fill="#000001"/>
<path id="Vector_15" d="M6.4975 3.50146H5.5V5.49646H6.4975V3.50146Z" fill="#000001"/>
<path id="Vector_16" d="M5.49994 5.49658H4.50244V12.4988H5.49994V5.49658Z" fill="#000001"/>
</g>
</g>
</svg>
