<svg width="24" height="24" viewBox="0 0 24 24" fill="none" xmlns="http://www.w3.org/2000/svg">
<g id="travel-wayfinding-pool-ladder">
<g id="Group">
<path id="Vector" d="M22.5001 19.501H20.4985V20.4985H22.5001V19.501Z" fill="#000001"/>
<path id="Vector_2" d="M20.4986 18.4971H17.4995V19.5011H20.4986V18.4971Z" fill="#000001"/>
<path id="Vector_3" d="M17.4994 20.4985V21.5026H13.5028V20.4985H10.5038V21.5026H6.50062V20.4985H3.50156V21.5026H1.5V22.5001H22.5V21.5026H20.4984V20.4985H17.4994Z" fill="#000001"/>
<path id="Vector_4" d="M17.4995 19.501H13.5029V20.4985H17.4995V19.501Z" fill="#000001"/>
<path id="Vector_5" d="M16.502 1.5H13.5029V2.4975H16.502V1.5Z" fill="#000001"/>
<path id="Vector_6" d="M13.5026 2.49756H12.4985V4.49912H13.5026V2.49756Z" fill="#000001"/>
<path id="Vector_7" d="M13.503 18.4971H10.5039V19.5011H13.503V18.4971Z" fill="#000001"/>
<path id="Vector_8" d="M10.5036 19.501H6.50049V20.4985H10.5036V19.501Z" fill="#000001"/>
<path id="Vector_9" d="M6.50053 1.5H3.50146V2.4975H6.50053V1.5Z" fill="#000001"/>
<path id="Vector_10" d="M6.50053 18.4971H3.50146V19.5011H6.50053V18.4971Z" fill="#000001"/>
<path id="Vector_11" d="M21.5025 16.5019H20.4984V15.4979H17.4994V2.49756H16.5019V7.49818H7.49813V2.49756H6.50062V15.4979H3.50156V16.5019H2.50406V17.4994H1.5V18.4969H3.50156V17.4994H6.50062V18.4969H10.5038V17.4994H13.5028V18.4969H17.4994V17.4994H20.4984V18.4969H22.5V17.4994H21.5025V16.5019ZM16.5019 17.4994H14.5003V16.5019H13.5028V15.4979H10.5038V16.5019H9.49969V17.4994H7.49813V13.4963H16.5019V17.4994ZM16.5019 12.4988H7.49813V8.50225H16.5019V12.4988Z" fill="#000001"/>
<path id="Vector_12" d="M3.50156 19.501H1.5V20.4985H3.50156V19.501Z" fill="#000001"/>
<path id="Vector_13" d="M3.50141 2.49756H2.50391V4.49912H3.50141V2.49756Z" fill="#000001"/>
</g>
</g>
</svg>
