<svg width="24" height="24" viewBox="0 0 24 24" fill="none" xmlns="http://www.w3.org/2000/svg">
<g id="travel-wayfinding-beach-umbrella">
<g id="Group">
<path id="Vector" d="M21.5025 21.5026H6.50062V20.4986H5.50312V21.5026H3.50156V20.4986H2.50406V21.5026H1.5V22.5001H22.5V17.4995H21.5025V21.5026Z" fill="#000001"/>
<path id="Vector_2" d="M20.4984 18.4971H18.5034V20.4986H20.4984V18.4971Z" fill="#000001"/>
<path id="Vector_3" d="M21.5026 16.502H17.4995V17.4995H21.5026V16.502Z" fill="#000001"/>
<path id="Vector_4" d="M19.5009 4.49902H18.5034V6.50059H19.5009V4.49902Z" fill="#000001"/>
<path id="Vector_5" d="M17.4995 19.501H16.502V20.4985H17.4995V19.501Z" fill="#000001"/>
<path id="Vector_6" d="M17.4995 17.4995H16.502V18.497H17.4995V17.4995Z" fill="#000001"/>
<path id="Vector_7" d="M18.5035 6.50049H16.502V7.49799H18.5035V6.50049Z" fill="#000001"/>
<path id="Vector_8" d="M18.5035 3.50146H16.502V4.49896H18.5035V3.50146Z" fill="#000001"/>
<path id="Vector_9" d="M16.5019 16.502H15.5044V17.4995H16.5019V16.502Z" fill="#000001"/>
<path id="Vector_10" d="M15.5046 19.501H14.5005V20.4985H15.5046V19.501Z" fill="#000001"/>
<path id="Vector_11" d="M14.5001 6.50049H13.5026V8.50205H12.4985V9.49955H14.5001V8.50205H16.5017V7.49799H14.5001V6.50049Z" fill="#000001"/>
<path id="Vector_12" d="M16.5021 2.49756H14.5005V3.50162H16.5021V2.49756Z" fill="#000001"/>
<path id="Vector_13" d="M14.5004 17.4995H13.5029V18.497H14.5004V17.4995Z" fill="#000001"/>
<path id="Vector_14" d="M13.5026 4.49902H12.4985V6.50059H13.5026V4.49902Z" fill="#000001"/>
<path id="Vector_15" d="M12.4989 18.4971H10.5039V20.4986H12.4989V18.4971Z" fill="#000001"/>
<path id="Vector_16" d="M15.5045 16.5021V15.498H13.503V14.5005H12.4989V15.498H10.5039V16.5021H15.5045Z" fill="#000001"/>
<path id="Vector_17" d="M12.499 12.4985H11.5015V14.5001H12.499V12.4985Z" fill="#000001"/>
<path id="Vector_18" d="M12.4989 3.50146H10.5039V4.49896H12.4989V3.50146Z" fill="#000001"/>
<path id="Vector_19" d="M12.4985 10.497V9.49951H10.5035V10.497H8.50195V11.5011H10.5035V12.4986H11.501V10.497H12.4985Z" fill="#000001"/>
<path id="Vector_20" d="M10.5035 16.502H8.50195V17.4995H10.5035V16.502Z" fill="#000001"/>
<path id="Vector_21" d="M9.49945 19.501H8.50195V20.4985H9.49945V19.501Z" fill="#000001"/>
<path id="Vector_22" d="M8.50211 17.4995H7.49805V18.497H8.50211V17.4995Z" fill="#000001"/>
<path id="Vector_23" d="M7.49799 9.49951H6.50049V12.4986H8.50205V11.5011H7.49799V9.49951Z" fill="#000001"/>
<path id="Vector_24" d="M7.49809 18.4971H4.49902V19.5011H7.49809V18.4971Z" fill="#000001"/>
<path id="Vector_25" d="M6.50043 6.50049H5.50293V9.49955H6.50043V6.50049Z" fill="#000001"/>
<path id="Vector_26" d="M6.50059 6.50062H7.49809V3.50156H10.5037V2.4975H14.5003V1.5H8.50215V2.4975H6.50059V3.50156H4.49902V4.49906H6.50059V6.50062Z" fill="#000001"/>
<path id="Vector_27" d="M6.50059 12.4985H4.49902V13.496H6.50059V12.4985Z" fill="#000001"/>
<path id="Vector_28" d="M4.49896 19.501H3.50146V20.4985H4.49896V19.501Z" fill="#000001"/>
<path id="Vector_29" d="M4.49896 4.49902H3.50146V6.50059H4.49896V4.49902Z" fill="#000001"/>
<path id="Vector_30" d="M4.49891 13.4961H2.50391V14.5002H4.49891V13.4961Z" fill="#000001"/>
<path id="Vector_31" d="M3.50141 6.50049H2.50391V9.49955H3.50141V6.50049Z" fill="#000001"/>
<path id="Vector_32" d="M2.50406 9.49951H1.5V13.4961H2.50406V9.49951Z" fill="#000001"/>
</g>
</g>
</svg>
