<svg width="24" height="24" viewBox="0 0 24 24" fill="none" xmlns="http://www.w3.org/2000/svg">
<g id="ui-design-website">
<g id="Group">
<path id="Vector" d="M21.5025 6.50394H2.50406V3.50488H1.5V20.5018H2.50406V7.50145H21.5025V20.5018H22.5V3.50488H21.5025V6.50394Z" fill="#000001"/>
<path id="Vector_2" d="M21.5026 20.5017H2.50415V21.4992H21.5026V20.5017Z" fill="#000001"/>
<path id="Vector_3" d="M19.5009 14.5037H18.5034V17.5027H19.5009V14.5037Z" fill="#000001"/>
<path id="Vector_4" d="M18.5033 17.5027H17.4993V18.5002H18.5033V17.5027Z" fill="#000001"/>
<path id="Vector_5" d="M18.5033 13.4995H17.4993V14.5036H18.5033V13.4995Z" fill="#000001"/>
<path id="Vector_6" d="M17.4993 18.5H14.5002V19.5041H17.4993V18.5Z" fill="#000001"/>
<path id="Vector_7" d="M17.4993 13.4994V12.5019H16.5018V8.50537H4.49902V14.5035H6.50059V13.4994H5.50309V9.50287H15.5043V12.5019H14.5003V13.4994H17.4993Z" fill="#000001"/>
<path id="Vector_8" d="M14.5004 17.5027H13.5029V18.5002H14.5004V17.5027Z" fill="#000001"/>
<path id="Vector_9" d="M14.5004 13.4995H13.5029V14.5036H14.5004V13.4995Z" fill="#000001"/>
<path id="Vector_10" d="M13.5028 14.5037H12.4988V17.5027H13.5028V14.5037Z" fill="#000001"/>
<path id="Vector_11" d="M8.50211 4.5022H7.49805V5.4997H8.50211V4.5022Z" fill="#000001"/>
<path id="Vector_12" d="M5.50309 15.501V16.5051H4.49902V17.5026H11.5012V14.5035H10.5037V13.4995H9.49965V12.502H8.50215V13.4995H7.49809V14.5035H6.50059V15.501H5.50309Z" fill="#000001"/>
<path id="Vector_13" d="M6.50067 4.5022H5.50317V5.4997H6.50067V4.5022Z" fill="#000001"/>
<path id="Vector_14" d="M4.49896 4.5022H3.50146V5.4997H4.49896V4.5022Z" fill="#000001"/>
<path id="Vector_15" d="M21.5026 2.50073H2.50415V3.50479H21.5026V2.50073Z" fill="#000001"/>
</g>
</g>
</svg>
