<svg width="24" height="24" viewBox="0 0 24 24" fill="none" xmlns="http://www.w3.org/2000/svg">
<g id="user-gender-male">
<g id="Group">
<path id="Vector" d="M16.499 2.50073V3.49823H19.4981V4.49573H20.5021V7.50136H21.4996V2.50073H16.499Z" fill="#000001"/>
<path id="Vector_2" d="M19.498 4.49585H18.5005V5.49991H19.498V4.49585Z" fill="#000001"/>
<path id="Vector_3" d="M18.5002 5.49976H17.4961V6.49726H18.5002V5.49976Z" fill="#000001"/>
<path id="Vector_4" d="M17.4965 11.4978H16.499V16.4984H17.4965V11.4978Z" fill="#000001"/>
<path id="Vector_5" d="M17.4965 6.49731H16.499V7.50138H17.4965V6.49731Z" fill="#000001"/>
<path id="Vector_6" d="M16.499 16.4985H15.5015V18.5001H16.499V16.4985Z" fill="#000001"/>
<path id="Vector_7" d="M16.499 9.49634H15.5015V11.4979H16.499V9.49634Z" fill="#000001"/>
<path id="Vector_8" d="M16.499 7.50146H15.5015V8.49896H16.499V7.50146Z" fill="#000001"/>
<path id="Vector_9" d="M15.5011 18.5H14.4971V19.4975H15.5011V18.5Z" fill="#000001"/>
<path id="Vector_10" d="M15.5011 8.49878H14.4971V9.49628H15.5011V8.49878Z" fill="#000001"/>
<path id="Vector_11" d="M14.4972 19.4976H12.4956V20.5016H14.4972V19.4976Z" fill="#000001"/>
<path id="Vector_12" d="M14.4972 7.50146H12.4956V8.49896H14.4972V7.50146Z" fill="#000001"/>
<path id="Vector_13" d="M12.4955 20.5017H7.50146V21.4992H12.4955V20.5017Z" fill="#000001"/>
<path id="Vector_14" d="M12.4955 6.49731H7.50146V7.50138H12.4955V6.49731Z" fill="#000001"/>
<path id="Vector_15" d="M7.50156 19.4976H5.5V20.5016H7.50156V19.4976Z" fill="#000001"/>
<path id="Vector_16" d="M7.50156 7.50146H5.5V8.49896H7.50156V7.50146Z" fill="#000001"/>
<path id="Vector_17" d="M5.50016 18.5H4.49609V19.4975H5.50016V18.5Z" fill="#000001"/>
<path id="Vector_18" d="M5.50016 8.49878H4.49609V9.49628H5.50016V8.49878Z" fill="#000001"/>
<path id="Vector_19" d="M4.49604 16.4985H3.49854V18.5001H4.49604V16.4985Z" fill="#000001"/>
<path id="Vector_20" d="M4.49604 9.49634H3.49854V11.4979H4.49604V9.49634Z" fill="#000001"/>
<path id="Vector_21" d="M3.49848 11.4978H2.50098V16.4984H3.49848V11.4978Z" fill="#000001"/>
</g>
</g>
</svg>
