<svg width="24" height="24" viewBox="0 0 24 24" fill="none" xmlns="http://www.w3.org/2000/svg">
<g id="user-sleep">
<g id="Group">
<path id="Vector" d="M21.0004 2.49756H20.0029V3.49506H21.0004V2.49756Z" fill="#000001"/>
<path id="Vector_2" d="M21.0006 5.49658H18.999V6.50064H21.0006V5.49658Z" fill="#000001"/>
<path id="Vector_3" d="M20.0031 3.49512H18.999V4.49918H20.0031V3.49512Z" fill="#000001"/>
<path id="Vector_4" d="M20.003 1.5H18.0015V2.4975H20.003V1.5Z" fill="#000001"/>
<path id="Vector_5" d="M18.999 4.49902H18.0015V5.49652H18.999V4.49902Z" fill="#000001"/>
<path id="Vector_6" d="M16.9975 6.50073H16V7.49823H16.9975V6.50073Z" fill="#000001"/>
<path id="Vector_7" d="M16.9974 9.49976H15.0024V10.4973H16.9974V9.49976Z" fill="#000001"/>
<path id="Vector_8" d="M15.9999 7.49805H15.0024V8.49555H15.9999V7.49805Z" fill="#000001"/>
<path id="Vector_9" d="M15.9996 5.49658H13.998V6.50064H15.9996V5.49658Z" fill="#000001"/>
<path id="Vector_10" d="M15.0021 8.49561H13.998V9.49967H15.0021V8.49561Z" fill="#000001"/>
<path id="Vector_11" d="M12.0031 11.4946H10.999V17.4993H12.0031V11.4946Z" fill="#000001"/>
<path id="Vector_12" d="M10.999 10.4971H10.0015V11.4946H10.999V10.4971Z" fill="#000001"/>
<path id="Vector_13" d="M10.999 3.49512H10.0015V7.49824H10.999V3.49512Z" fill="#000001"/>
<path id="Vector_14" d="M10.0018 13.4963H8.9977V21.496H8.00019V17.4995H7.0027V21.496H5.99863V13.4963H5.00113V17.4995H3.99707V18.497H5.00113V22.5001H10.0018V18.497H10.9993V17.4995H10.0018V13.4963Z" fill="#000001"/>
<path id="Vector_15" d="M10.0016 9.49976H8.99756V10.4973H10.0016V9.49976Z" fill="#000001"/>
<path id="Vector_16" d="M10.0016 7.49805H8.99756V8.49555H10.0016V7.49805Z" fill="#000001"/>
<path id="Vector_17" d="M10.0016 2.49756H8.99756V3.49506H10.0016V2.49756Z" fill="#000001"/>
<path id="Vector_18" d="M8.9976 8.49561H5.99854V9.49967H8.9976V8.49561Z" fill="#000001"/>
<path id="Vector_19" d="M8.9976 1.5H5.99854V2.4975H8.9976V1.5Z" fill="#000001"/>
<path id="Vector_20" d="M5.99848 9.49976H5.00098V10.4973H5.99848V9.49976Z" fill="#000001"/>
<path id="Vector_21" d="M5.99848 7.49805H5.00098V8.49555H5.99848V7.49805Z" fill="#000001"/>
<path id="Vector_22" d="M5.99848 2.49756H5.00098V3.49506H5.99848V2.49756Z" fill="#000001"/>
<path id="Vector_23" d="M5.00113 10.4971H3.99707V11.4946H5.00113V10.4971Z" fill="#000001"/>
<path id="Vector_24" d="M5.00113 3.49512H3.99707V7.49824H5.00113V3.49512Z" fill="#000001"/>
<path id="Vector_25" d="M3.99701 11.4946H2.99951V17.4993H3.99701V11.4946Z" fill="#000001"/>
</g>
</g>
</svg>
