<svg width="24" height="24" viewBox="0 0 24 24" fill="none" xmlns="http://www.w3.org/2000/svg">
<g id="user-woman-increasing-arrow">
<g id="Group">
<path id="Vector" d="M18.5 2.49756V3.49506H19.5041V4.49912H20.5016V5.49662H21.4991V2.49756H18.5Z" fill="#000001"/>
<path id="Vector_2" d="M21.4991 8.49561H12.502V9.49967H21.4991V8.49561Z" fill="#000001"/>
<path id="Vector_3" d="M19.5041 4.49902H18.5V5.49652H19.5041V4.49902Z" fill="#000001"/>
<path id="Vector_4" d="M18.4999 5.49658H17.5024V6.50064H18.4999V5.49658Z" fill="#000001"/>
<path id="Vector_5" d="M17.5026 4.49902H16.4985V5.49652H17.5026V4.49902Z" fill="#000001"/>
<path id="Vector_6" d="M16.4985 3.49512H15.501V4.49918H16.4985V3.49512Z" fill="#000001"/>
<path id="Vector_7" d="M15.5009 4.49902H14.5034V5.49652H15.5009V4.49902Z" fill="#000001"/>
<path id="Vector_8" d="M14.5031 5.49658H13.499V6.50064H14.5031V5.49658Z" fill="#000001"/>
<path id="Vector_9" d="M13.4995 6.50073H12.502V7.49823H13.4995V6.50073Z" fill="#000001"/>
<path id="Vector_10" d="M11.5041 11.4946H10.5V17.4993H11.5041V11.4946Z" fill="#000001"/>
<path id="Vector_11" d="M10.4999 10.4971H9.50244V11.4946H10.4999V10.4971Z" fill="#000001"/>
<path id="Vector_12" d="M4.50205 7.49813V5.49656H5.49955V4.49906H6.50361V3.495H7.50111V4.49906H8.49861V5.49656H9.50268V7.49813H8.49861V8.49562H10.5002V7.49813H11.5042V4.49906H10.5002V2.4975H9.50268V1.5H4.50205V2.4975H3.49799V4.49906H2.50049V7.49813H3.49799V8.49562H5.49955V7.49813H4.50205Z" fill="#000001"/>
<path id="Vector_13" d="M9.50602 13.4963H8.50195V15.4979H5.50289V13.4963H4.50211V17.4995H3.49805V18.497H4.50211V22.5001H9.50602V18.497H10.5035V17.4995H9.50602V13.4963ZM6.50367 21.496H5.50289V19.4945H6.50695L6.50367 21.496ZM8.49867 21.496H7.50117V19.4945H8.49867V21.496Z" fill="#000001"/>
<path id="Vector_14" d="M9.5026 9.49976H8.49854V10.4973H9.5026V9.49976Z" fill="#000001"/>
<path id="Vector_15" d="M7.50092 12.4988H6.50342V13.4963H7.50092V12.4988Z" fill="#000001"/>
<path id="Vector_16" d="M7.50092 10.4971H6.50342V11.4946H7.50092V10.4971Z" fill="#000001"/>
<path id="Vector_17" d="M8.49857 8.49561H5.49951V9.49967H8.49857V8.49561Z" fill="#000001"/>
<path id="Vector_18" d="M5.49945 9.49976H4.50195V10.4973H5.49945V9.49976Z" fill="#000001"/>
<path id="Vector_19" d="M4.50211 10.4971H3.49805V11.4946H4.50211V10.4971Z" fill="#000001"/>
<path id="Vector_20" d="M3.49799 11.4946H2.50049V17.4993H3.49799V11.4946Z" fill="#000001"/>
</g>
</g>
</svg>
