<svg width="24" height="24" viewBox="0 0 24 24" fill="none" xmlns="http://www.w3.org/2000/svg">
<g id="user-gender-female-male">
<g id="Group">
<path id="Vector" d="M16.9976 1.5V2.4975H18.9991V3.50156H19.9966V5.49656H21.0007V1.5H16.9976Z" fill="#000001"/>
<path id="Vector_2" d="M18.9987 8.5022H17.9946V11.5013H18.9987V8.5022Z" fill="#000001"/>
<path id="Vector_3" d="M18.9987 3.50146H17.9946V4.49896H18.9987V3.50146Z" fill="#000001"/>
<path id="Vector_4" d="M17.9951 11.5012H16.9976V13.4962H17.9951V11.5012Z" fill="#000001"/>
<path id="Vector_5" d="M17.9951 6.50073H16.9976V8.5023H17.9951V6.50073Z" fill="#000001"/>
<path id="Vector_6" d="M17.9951 4.49902H16.9976V5.49652H17.9951V4.49902Z" fill="#000001"/>
<path id="Vector_7" d="M16.9972 13.4963H14.9956V14.5004H16.9972V13.4963Z" fill="#000001"/>
<path id="Vector_8" d="M16.9972 5.49658H14.9956V6.50064H16.9972V5.49658Z" fill="#000001"/>
<path id="Vector_9" d="M12.9941 13.4963H11.9966V15.4979H14.9956V14.5004H12.9941V13.4963Z" fill="#000001"/>
<path id="Vector_10" d="M13.9982 10.4971H12.9941V13.4961H13.9982V10.4971Z" fill="#000001"/>
<path id="Vector_11" d="M14.9956 4.49902H11.9966V5.49652H14.9956V4.49902Z" fill="#000001"/>
<path id="Vector_12" d="M12.9941 8.5022H11.9966V10.4972H12.9941V8.5022Z" fill="#000001"/>
<path id="Vector_13" d="M11.9965 7.49805H10.999V8.50211H11.9965V7.49805Z" fill="#000001"/>
<path id="Vector_14" d="M11.9967 5.49658H9.99512V6.50064H11.9967V5.49658Z" fill="#000001"/>
<path id="Vector_15" d="M11.9967 15.4978H9.99512V16.5019H11.9967V15.4978Z" fill="#000001"/>
<path id="Vector_16" d="M10.9992 13.4963H9.99512V14.5004H10.9992V13.4963Z" fill="#000001"/>
<path id="Vector_17" d="M9.99506 11.5012H8.99756V13.4962H9.99506V11.5012Z" fill="#000001"/>
<path id="Vector_18" d="M6.99604 16.502V17.4995H8.0001V19.501H5.99854V20.4985H8.0001V22.5001H8.9976V20.4985H10.9992V19.501H8.9976V17.4995H9.9951V16.502H6.99604Z" fill="#000001"/>
<path id="Vector_19" d="M8.9975 8.5022H8V11.5013H8.9975V8.5022Z" fill="#000001"/>
<path id="Vector_20" d="M8.99766 8.5023H9.99516V6.50073H6.99609V7.49823H8.99766V8.5023Z" fill="#000001"/>
<path id="Vector_21" d="M6.99619 15.4978H4.99463V16.5019H6.99619V15.4978Z" fill="#000001"/>
<path id="Vector_22" d="M6.99619 7.49805H4.99463V8.50211H6.99619V7.49805Z" fill="#000001"/>
<path id="Vector_23" d="M4.99457 13.4963H3.99707V15.4979H4.99457V13.4963Z" fill="#000001"/>
<path id="Vector_24" d="M4.99457 8.5022H3.99707V10.4972H4.99457V8.5022Z" fill="#000001"/>
<path id="Vector_25" d="M3.99701 10.4971H2.99951V13.4961H3.99701V10.4971Z" fill="#000001"/>
</g>
</g>
</svg>
