<svg width="24" height="24" viewBox="0 0 24 24" fill="none" xmlns="http://www.w3.org/2000/svg">
<g id="user-man-love">
<g id="Group">
<path id="Vector" d="M15.0021 6.50068H15.9996V7.49818H16.9971V8.49568H18.0012V7.49818H18.9987V6.50068H20.0027V5.49662H21.0002V3.49506H20.0027V2.49756H18.9987V3.49506H18.0012V4.49912H16.9971V3.49506H15.9996V2.49756H15.0021V3.49506H13.998V5.49662H15.0021V6.50068Z" fill="#000001"/>
<path id="Vector_2" d="M12.0031 11.4946H10.999V17.4993H12.0031V11.4946Z" fill="#000001"/>
<path id="Vector_3" d="M10.999 10.4971H10.0015V11.4946H10.999V10.4971Z" fill="#000001"/>
<path id="Vector_4" d="M10.0018 13.4963H8.9977V15.4979H5.99863V13.4963H5.00113V17.4995H3.99707V18.497H5.00113V22.5001H7.0027V19.4945H8.00019V22.5001H10.0018V18.497H10.9993V17.4995H10.0018V13.4963Z" fill="#000001"/>
<path id="Vector_5" d="M10.0016 9.49976H8.99756V10.4973H10.0016V9.49976Z" fill="#000001"/>
<path id="Vector_6" d="M10.0016 7.49805H8.99756V8.49555H10.0016V7.49805Z" fill="#000001"/>
<path id="Vector_7" d="M7.99994 10.4971H7.00244V13.4961H7.99994V10.4971Z" fill="#000001"/>
<path id="Vector_8" d="M8.9976 8.49561H5.99854V9.49967H8.9976V8.49561Z" fill="#000001"/>
<path id="Vector_9" d="M5.99848 9.49976H5.00098V10.4973H5.99848V9.49976Z" fill="#000001"/>
<path id="Vector_10" d="M5.99848 7.49805H5.00098V8.49555H5.99848V7.49805Z" fill="#000001"/>
<path id="Vector_11" d="M5.00113 10.4971H3.99707V11.4946H5.00113V10.4971Z" fill="#000001"/>
<path id="Vector_12" d="M5.99863 5.49656V4.49906H8.9977V5.49656H10.0018V7.49813H10.9993V3.495H10.0018V2.4975H8.9977V1.5H5.99863V2.4975H5.00113V3.495H3.99707V7.49813H5.00113V5.49656H5.99863Z" fill="#000001"/>
<path id="Vector_13" d="M3.99701 11.4946H2.99951V17.4993H3.99701V11.4946Z" fill="#000001"/>
</g>
</g>
</svg>
