<svg width="24" height="24" viewBox="0 0 24 24" fill="none" xmlns="http://www.w3.org/2000/svg">
<g id="user-gender-female">
<g id="Group">
<path id="Vector" d="M19.5009 6.50073H18.5034V11.5014H19.5009V6.50073Z" fill="#000001"/>
<path id="Vector_2" d="M18.5036 11.5012H17.4995V13.4962H18.5036V11.5012Z" fill="#000001"/>
<path id="Vector_3" d="M18.5036 4.49902H17.4995V6.50059H18.5036V4.49902Z" fill="#000001"/>
<path id="Vector_4" d="M17.4995 13.4963H16.502V14.5004H17.4995V13.4963Z" fill="#000001"/>
<path id="Vector_5" d="M17.4995 3.50146H16.502V4.49896H17.4995V3.50146Z" fill="#000001"/>
<path id="Vector_6" d="M16.5021 14.5002H14.5005V15.4977H16.5021V14.5002Z" fill="#000001"/>
<path id="Vector_7" d="M16.5021 2.49756H14.5005V3.50162H16.5021V2.49756Z" fill="#000001"/>
<path id="Vector_8" d="M9.49951 15.4978V16.5019H11.5011V19.5009H9.49951V20.4984H11.5011V22.5H12.4986V20.4984H14.5001V19.5009H12.4986V16.5019H14.5001V15.4978H9.49951Z" fill="#000001"/>
<path id="Vector_9" d="M14.5001 1.5H9.49951V2.4975H14.5001V1.5Z" fill="#000001"/>
<path id="Vector_10" d="M9.49988 14.5002H7.50488V15.4977H9.49988V14.5002Z" fill="#000001"/>
<path id="Vector_11" d="M9.49988 2.49756H7.50488V3.50162H9.49988V2.49756Z" fill="#000001"/>
<path id="Vector_12" d="M7.50455 13.4963H6.50049V14.5004H7.50455V13.4963Z" fill="#000001"/>
<path id="Vector_13" d="M7.50455 3.50146H6.50049V4.49896H7.50455V3.50146Z" fill="#000001"/>
<path id="Vector_14" d="M6.50043 11.5012H5.50293V13.4962H6.50043V11.5012Z" fill="#000001"/>
<path id="Vector_15" d="M6.50043 4.49902H5.50293V6.50059H6.50043V4.49902Z" fill="#000001"/>
<path id="Vector_16" d="M5.50309 6.50073H4.49902V11.5014H5.50309V6.50073Z" fill="#000001"/>
</g>
</g>
</svg>
