<svg width="24" height="24" viewBox="0 0 24 24" fill="none" xmlns="http://www.w3.org/2000/svg">
<g id="user-single-aim">
<g id="Group">
<path id="Vector" d="M21.496 9.49976H20.4985V11.5013H19.501V12.4988H20.4985V14.5004H21.496V12.4988H22.5V11.5013H21.496V9.49976Z" fill="#000001"/>
<path id="Vector_2" d="M20.4985 14.5002H19.501V16.5018H20.4985V14.5002Z" fill="#000001"/>
<path id="Vector_3" d="M20.4985 7.49805H19.501V9.49961H20.4985V7.49805Z" fill="#000001"/>
<path id="Vector_4" d="M19.5011 16.502H18.4971V18.497H19.5011V16.502Z" fill="#000001"/>
<path id="Vector_5" d="M19.5011 5.49658H18.4971V7.49814H19.5011V5.49658Z" fill="#000001"/>
<path id="Vector_6" d="M17.4992 17.4993H16.4951V19.5008H18.4967V18.4968H17.4992V17.4993Z" fill="#000001"/>
<path id="Vector_7" d="M18.4967 4.49902H16.4951V5.49652H18.4967V4.49902Z" fill="#000001"/>
<path id="Vector_8" d="M16.4955 19.501H14.5005V20.4985H16.4955V19.501Z" fill="#000001"/>
<path id="Vector_9" d="M16.4955 16.502H14.5005V17.4995H16.4955V16.502Z" fill="#000001"/>
<path id="Vector_10" d="M15.498 14.5002H14.5005V15.4977H15.498V14.5002Z" fill="#000001"/>
<path id="Vector_11" d="M16.4955 3.50146H14.5005V4.49896H16.4955V3.50146Z" fill="#000001"/>
<path id="Vector_12" d="M14.5002 10.4971H13.4961V12.4986H14.5002V10.4971Z" fill="#000001"/>
<path id="Vector_13" d="M12.4986 19.501H11.4945V20.4985H9.49951V21.5025H11.4945V22.5H12.4986V21.5025H14.5001V20.4985H12.4986V19.501Z" fill="#000001"/>
<path id="Vector_14" d="M14.5001 15.4978H9.49951V16.5019H14.5001V15.4978Z" fill="#000001"/>
<path id="Vector_15" d="M13.4961 13.4963H10.4971V14.5004H13.4961V13.4963Z" fill="#000001"/>
<path id="Vector_16" d="M11.4945 4.49906H12.4986V3.50156H14.5001V2.4975H12.4986V1.5H11.4945V2.4975H9.49951V3.50156H11.4945V4.49906Z" fill="#000001"/>
<path id="Vector_17" d="M10.497 10.4971H9.49951V12.4986H10.497V10.4971Z" fill="#000001"/>
<path id="Vector_18" d="M9.49961 19.501H7.49805V20.4985H9.49961V19.501Z" fill="#000001"/>
<path id="Vector_19" d="M9.49961 16.502H7.49805V17.4995H9.49961V16.502Z" fill="#000001"/>
<path id="Vector_20" d="M9.49967 14.5002H8.49561V15.4977H9.49967V14.5002Z" fill="#000001"/>
<path id="Vector_21" d="M9.49961 3.50146H7.49805V4.49896H9.49961V3.50146Z" fill="#000001"/>
<path id="Vector_22" d="M8.49555 9.49971H9.49961V8.50221H14.5002V9.49971H15.4977V14.5003H16.4952V7.49814H15.4977V6.50064H14.5002V5.49658H9.49961V6.50064H8.49555V7.49814H7.49805V14.5003H8.49555V9.49971Z" fill="#000001"/>
<path id="Vector_23" d="M6.50064 17.4993V18.4968H5.49658V19.5008H7.49814V17.4993H6.50064Z" fill="#000001"/>
<path id="Vector_24" d="M7.49814 4.49902H5.49658V5.49652H7.49814V4.49902Z" fill="#000001"/>
<path id="Vector_25" d="M5.49652 16.502H4.49902V18.497H5.49652V16.502Z" fill="#000001"/>
<path id="Vector_26" d="M5.49652 5.49658H4.49902V7.49814H5.49652V5.49658Z" fill="#000001"/>
<path id="Vector_27" d="M4.49918 14.5002H3.49512V16.5018H4.49918V14.5002Z" fill="#000001"/>
<path id="Vector_28" d="M4.49918 7.49805H3.49512V9.49961H4.49918V7.49805Z" fill="#000001"/>
<path id="Vector_29" d="M4.49906 12.4988V11.5013H3.495V9.49976H2.4975V11.5013H1.5V12.4988H2.4975V14.5004H3.495V12.4988H4.49906Z" fill="#000001"/>
</g>
</g>
</svg>
