<svg width="24" height="24" viewBox="0 0 24 24" fill="none" xmlns="http://www.w3.org/2000/svg">
<g id="video-movies-square-off">
<g id="Group">
<path id="Vector" d="M22.4999 3.50244H21.5024V20.4993H22.4999V3.50244Z" fill="#000001"/>
<path id="Vector_2" d="M21.5025 20.499H20.4984V21.4965H21.5025V20.499Z" fill="#000001"/>
<path id="Vector_3" d="M20.4985 21.4961H3.50159V22.5002H20.4985V21.4961Z" fill="#000001"/>
<path id="Vector_4" d="M18.4968 9.50016H19.5009V14.5008H18.4968V15.4983H20.4984V8.49609H18.4968V9.50016Z" fill="#000001"/>
<path id="Vector_5" d="M18.4969 13.4971H17.4994V14.5011H18.4969V13.4971Z" fill="#000001"/>
<path id="Vector_6" d="M18.4969 9.50049H17.4994V10.498H18.4969V9.50049Z" fill="#000001"/>
<path id="Vector_7" d="M16.5019 12.499V11.5015H17.4994V10.498H15.4978V16.4962H16.5019V13.4971H17.4994V12.499H16.5019Z" fill="#000001"/>
<path id="Vector_8" d="M15.4978 16.4961H9.49963V17.5002H15.4978V16.4961Z" fill="#000001"/>
<path id="Vector_9" d="M14.5003 6.50146H4.49902V7.49896H14.5003V6.50146Z" fill="#000001"/>
<path id="Vector_10" d="M13.5028 13.4971H12.4987V14.5011H11.5012V15.4986H13.5028V13.4971Z" fill="#000001"/>
<path id="Vector_11" d="M8.50223 8.49609H7.49817V9.50016H8.50223V8.49609Z" fill="#000001"/>
<path id="Vector_12" d="M6.50064 13.4971H7.49814V12.499H8.50221V11.5015H9.49971V10.498H5.49658V14.5012H6.50064V13.4971Z" fill="#000001"/>
<path id="Vector_13" d="M6.50064 8.49609H5.49658V9.50016H6.50064V8.49609Z" fill="#000001"/>
<path id="Vector_14" d="M4.49906 20.4991V19.5016H5.49656V18.4975H6.50062V17.5H7.49813V16.496H8.50219V15.4985H9.49969V14.501H10.4972V13.4969H11.5012V12.4987H12.4988V11.5012H13.5028V10.4978H14.5003V9.50034H15.4978V8.49628H16.5019V7.49878H17.4994V6.50128H18.4969V5.49722H19.5009V4.49972H20.4984V3.50222H21.5025V2.49816H20.4984V1.5H3.50156V2.49816H19.5009V3.50222H18.4969V4.49972H17.4994V5.49722H16.5019V6.50128H15.4978V7.49878H14.5003V8.49628H13.5028V9.50034H12.4988V10.4978H11.5012V11.5012H10.4972V12.4987H9.49969V13.4969H8.50219V14.501H7.49813V15.4985H6.50062V16.496H5.49656V17.5H4.49906V18.4975H3.50156V19.5016H2.4975V3.50222H1.5V20.4991H2.4975V21.4959H3.50156V20.4991H4.49906Z" fill="#000001"/>
<path id="Vector_15" d="M4.49909 7.49902H3.50159V16.4962H4.49909V7.49902Z" fill="#000001"/>
<path id="Vector_16" d="M3.50162 2.49805H2.49756V3.50211H3.50162V2.49805Z" fill="#000001"/>
</g>
</g>
</svg>
