<svg width="24" height="24" viewBox="0 0 24 24" fill="none" xmlns="http://www.w3.org/2000/svg">
<g id="video-movies-vintage-tv-1">
<g id="Group">
<path id="Vector" d="M22.4999 10.999H21.5024V16.9971H22.4999V10.999Z" fill="#000001"/>
<path id="Vector_2" d="M21.5025 16.9976H20.4984V18.0016H21.5025V16.9976Z" fill="#000001"/>
<path id="Vector_3" d="M21.5025 9.99512H20.4984V10.9992H21.5025V9.99512Z" fill="#000001"/>
<path id="Vector_4" d="M20.4985 18.0015H19.501V19.9965H20.4985V18.0015Z" fill="#000001"/>
<path id="Vector_5" d="M20.4985 8H19.501V9.995H20.4985V8Z" fill="#000001"/>
<path id="Vector_6" d="M16.5019 19.9963V8.0001H19.5009V6.99604H11.5006V5.99854H10.5031V6.99604H7.49814V5.99854H6.50064V6.99604H2.50342V8.0001H15.4978V19.9963H2.50342V21.0004H19.5009V19.9963H16.5019Z" fill="#000001"/>
<path id="Vector_7" d="M18.5035 16.9976H17.4994V18.0016H18.5035V16.9976Z" fill="#000001"/>
<path id="Vector_8" d="M18.5035 14.9956H17.4994V15.9997H18.5035V14.9956Z" fill="#000001"/>
<path id="Vector_9" d="M18.5035 11.9966H17.4994V13.0006H18.5035V11.9966Z" fill="#000001"/>
<path id="Vector_10" d="M18.5035 9.99512H17.4994V10.9992H18.5035V9.99512Z" fill="#000001"/>
<path id="Vector_11" d="M12.4981 2.99951H11.5006V3.99701H12.4981V2.99951Z" fill="#000001"/>
<path id="Vector_12" d="M11.5006 3.99707H10.5031V5.00113H11.5006V3.99707Z" fill="#000001"/>
<path id="Vector_13" d="M10.5038 5.00098H7.49817V5.99848H10.5038V5.00098Z" fill="#000001"/>
<path id="Vector_14" d="M7.49811 3.99707H6.50061V5.00113H7.49811V3.99707Z" fill="#000001"/>
<path id="Vector_15" d="M6.50067 2.99951H5.50317V3.99701H6.50067V2.99951Z" fill="#000001"/>
<path id="Vector_16" d="M13.5021 8.99756H4.49704V9.99506H3.50085V18.0013H4.49704V18.9988H13.5008V18.0013H14.4983V9.99506H13.5008L13.5021 8.99756ZM9.49964 11.9999H10.503V13.004H9.49964V11.9999ZM6.50057 11.9999H7.49807V13.004H6.50057V11.9999ZM11.5005 14.999H10.503V16.003H6.49992V14.999H5.50307V14.0015H6.50057V14.999H10.5037V14.0015H11.5012L11.5005 14.999ZM13.5021 13.004H12.498V11.0024H10.503V9.99834H12.498V11.0024H13.5021V13.004Z" fill="#000001"/>
<path id="Vector_17" d="M2.50406 8H1.5V19.9962H2.50406V8Z" fill="#000001"/>
</g>
</g>
</svg>
