<svg width="24" height="24" viewBox="0 0 24 24" fill="none" xmlns="http://www.w3.org/2000/svg">
<g id="video-movies-vintage-tv-3">
<g id="Group">
<path id="Vector" d="M21.5025 6.99604H12.4987V5.99854H10.5037V6.99604H2.50403V8.0001H18.5034V19.9963H2.50403V21.0004H21.5025V19.9963H22.5V8.0001H21.5025V6.99604Z" fill="#000001"/>
<path id="Vector_2" d="M17.4994 18.0015H15.4978V18.999H17.4994V18.0015Z" fill="#000001"/>
<path id="Vector_3" d="M17.4994 16H15.4978V16.9975H17.4994V16Z" fill="#000001"/>
<path id="Vector_4" d="M17.4994 11.9966H15.4978V13.9981H17.4994V11.9966Z" fill="#000001"/>
<path id="Vector_5" d="M17.4994 8.99756H15.4978V10.9991H17.4994V8.99756Z" fill="#000001"/>
<path id="Vector_6" d="M15.4979 2.99951H14.5004V3.99701H15.4979V2.99951Z" fill="#000001"/>
<path id="Vector_7" d="M14.5003 9.99512H13.5028V18.0014H14.5003V9.99512Z" fill="#000001"/>
<path id="Vector_8" d="M14.5003 3.99707H13.5028V5.00113H14.5003V3.99707Z" fill="#000001"/>
<path id="Vector_9" d="M13.5028 5.00098H12.4988V5.99848H13.5028V5.00098Z" fill="#000001"/>
<path id="Vector_10" d="M10.5037 5.00098H9.49963V5.99848H10.5037V5.00098Z" fill="#000001"/>
<path id="Vector_11" d="M9.4997 3.99707H8.5022V5.00113H9.4997V3.99707Z" fill="#000001"/>
<path id="Vector_12" d="M8.50223 2.99951H7.49817V3.99701H8.50223V2.99951Z" fill="#000001"/>
<path id="Vector_13" d="M12.4987 9.99506H13.5028V8.99756H4.49902V9.99506H5.50309V18.0013H4.49902V18.9988H13.5028V18.0013H12.4987V9.99506ZM8.50215 18.0013H7.49809V9.99506H8.50215V18.0013ZM10.5037 18.0013H9.49965V9.99506H10.5037V18.0013Z" fill="#000001"/>
<path id="Vector_14" d="M4.49909 9.99512H3.50159V18.0014H4.49909V9.99512Z" fill="#000001"/>
<path id="Vector_15" d="M2.50406 8H1.5V19.9962H2.50406V8Z" fill="#000001"/>
</g>
</g>
</svg>
