<svg width="24" height="24" viewBox="0 0 24 24" fill="none" xmlns="http://www.w3.org/2000/svg">
<g id="video-movies-video-square">
<g id="Group">
<path id="Vector" d="M22.4999 3.50146H21.5024V20.4983H22.4999V3.50146Z" fill="#000001"/>
<path id="Vector_2" d="M21.5025 20.4985H20.4984V21.496H21.5025V20.4985Z" fill="#000001"/>
<path id="Vector_3" d="M21.5025 2.49756H20.4984V3.50162H21.5025V2.49756Z" fill="#000001"/>
<path id="Vector_4" d="M20.4985 21.4961H3.50159V22.5002H20.4985V21.4961Z" fill="#000001"/>
<path id="Vector_5" d="M18.4968 9.49967H19.5009V14.5003H18.4968V15.4978H20.4984V8.49561H18.4968V9.49967Z" fill="#000001"/>
<path id="Vector_6" d="M18.4969 13.4961H17.4994V14.5002H18.4969V13.4961Z" fill="#000001"/>
<path id="Vector_7" d="M18.4969 9.49951H17.4994V10.497H18.4969V9.49951Z" fill="#000001"/>
<path id="Vector_8" d="M16.5019 12.4987V11.5012H17.4994V10.4971H16.5019V7.49805H15.4978V16.4952H16.5019V13.4962H17.4994V12.4987H16.5019Z" fill="#000001"/>
<path id="Vector_9" d="M15.4978 16.4951H4.49902V17.4992H15.4978V16.4951Z" fill="#000001"/>
<path id="Vector_10" d="M5.49658 10.4971V15.4977H13.5028V10.4971H5.49658ZM10.4972 14.5002H9.49971V13.4961H10.4972V14.5002ZM12.4988 14.5002H11.5013V12.4986H7.49814V14.5002H6.50064V11.5011H12.4988V14.5002Z" fill="#000001"/>
<path id="Vector_11" d="M8.50223 8.49561H7.49817V9.49967H8.50223V8.49561Z" fill="#000001"/>
<path id="Vector_12" d="M6.50064 8.49561H5.49658V9.49967H6.50064V8.49561Z" fill="#000001"/>
<path id="Vector_13" d="M15.4978 6.50049H4.49902V7.49799H15.4978V6.50049Z" fill="#000001"/>
<path id="Vector_14" d="M20.4985 1.5H3.50159V2.4975H20.4985V1.5Z" fill="#000001"/>
<path id="Vector_15" d="M4.49909 7.49805H3.50159V16.4952H4.49909V7.49805Z" fill="#000001"/>
<path id="Vector_16" d="M3.50162 20.4985H2.49756V21.496H3.50162V20.4985Z" fill="#000001"/>
<path id="Vector_17" d="M3.50162 2.49756H2.49756V3.50162H3.50162V2.49756Z" fill="#000001"/>
<path id="Vector_18" d="M2.4975 3.50146H1.5V20.4983H2.4975V3.50146Z" fill="#000001"/>
</g>
</g>
</svg>
