<svg width="24" height="24" viewBox="0 0 24 24" fill="none" xmlns="http://www.w3.org/2000/svg">
<g id="video-movies-set-equipment">
<g id="Group">
<path id="Vector" d="M17.9982 1.5V2.4975H19.9997V3.50156H20.9972V4.49906H19.0022V3.50156H17.9982V2.4975H14.0016V3.50156H15.9966V4.49906H17.0007V5.49656H14.9991V4.49906H14.0016V3.50156H9.99847V4.49906H12V5.49656H12.9975V6.50062H11.0025V5.49656H9.99847V4.49906H6.0019V5.49656H7.9969V6.50062H9.00097V7.49813H6.9994V6.50062H6.0019V5.49656H1.99878V21.4959H3.00284V14.5003H20.9972V21.4959H22.0013V10.4972H3.00284V9.49969H6.0019V8.49562H9.99847V7.49813H14.0016V6.50062H17.9982V5.49656H22.0013V1.5H17.9982ZM17.9982 12.4988H19.0022V11.5012H20.9972V12.4988H19.9997V13.4963H17.9982V12.4988ZM12.9975 12.4988H14.0016V11.5012H15.9966V12.4988H14.9991V13.4963H12.9975V12.4988ZM7.9969 12.4988H9.00097V11.5012H11.0025V12.4988H9.99847V13.4963H7.9969V12.4988ZM4.00034 12.4988V11.5012H6.0019V12.4988H4.99784V13.4963H3.00284V12.4988H4.00034ZM4.99784 8.49562H3.00284V6.50062H4.00034V7.49813H4.99784V8.49562Z" fill="#000001"/>
<path id="Vector_2" d="M20.9972 21.4961H3.00281V22.5002H20.9972V21.4961Z" fill="#000001"/>
<path id="Vector_3" d="M19.0023 16.502H17.9982V17.4995H17.0007V16.502H15.9966V17.4995H14.9991V18.497H15.9966V19.501H17.0007V20.4985H17.9982V19.501H19.0023V18.497H19.9998V17.4995H19.0023V16.502Z" fill="#000001"/>
<path id="Vector_4" d="M12.9976 18.4971H6.00195V19.5011H12.9976V18.4971Z" fill="#000001"/>
<path id="Vector_5" d="M12.9976 16.502H6.00195V17.4995H12.9976V16.502Z" fill="#000001"/>
</g>
</g>
</svg>
