<svg width="24" height="24" viewBox="0 0 24 24" fill="none" xmlns="http://www.w3.org/2000/svg">
<g id="video-movies-vintage-tv-2">
<g id="Group">
<path id="Vector" d="M22.4999 2.49756H21.5024V15.4979H22.4999V2.49756Z" fill="#000001"/>
<path id="Vector_2" d="M2.50403 15.498V16.5021H5.50309V18.4971H6.50059V16.5021H7.49809V18.4971H8.50215V16.5021H15.4978V18.4971H16.5018V16.5021H17.4993V18.4971H18.5034V16.5021H21.5025V15.498H2.50403Z" fill="#000001"/>
<path id="Vector_3" d="M18.5035 21.4961H17.4994V22.5002H19.501V18.4971H18.5035V21.4961Z" fill="#000001"/>
<path id="Vector_4" d="M20.4985 13.4961H17.4994V14.5002H20.4985V13.4961Z" fill="#000001"/>
<path id="Vector_5" d="M20.4985 11.5015H17.4994V12.499H20.4985V11.5015Z" fill="#000001"/>
<path id="Vector_6" d="M17.4994 7.49805V10.4971H20.4985V7.49805H17.4994ZM19.501 9.49961H18.5035V8.49555H19.501V9.49961Z" fill="#000001"/>
<path id="Vector_7" d="M17.4994 3.50146V6.50053H20.4985V3.50146H17.4994ZM19.501 5.49646H18.5035V4.49896H19.501V5.49646Z" fill="#000001"/>
<path id="Vector_8" d="M17.4993 18.4971H16.5018V21.4961H17.4993V18.4971Z" fill="#000001"/>
<path id="Vector_9" d="M15.4978 4.49896H14.5003V3.50146H5.50315V4.49896H4.49909V5.49646H3.50159V12.4987H4.49909V13.4962H5.50315V14.5002H14.5003V13.4962H15.4978V12.4987H16.5019V5.49646H15.4978V4.49896ZM15.4978 8.49553H14.5003V7.49803H13.5028V6.50053H12.4988V7.49803H11.5013V8.49553H10.5038V9.49959H9.49971V8.49553H8.50221V10.4971H9.49971V11.5012H10.5038V10.4971H11.5013V9.49959H12.4988V8.49553H13.5028V9.49959H14.5003V10.4971H15.4978V11.5012H14.5003V10.4971H13.5028V9.49959H12.4988V10.4971H11.5013V11.5012H10.5038V12.4987H9.49971V11.5012H8.50221V10.4971H7.49815V8.49553H6.50065V9.49959H5.50315V10.4971H4.49909V9.49959H5.50315V8.49553H6.50065V7.49803H7.49815V5.49646H6.50065V6.50053H5.50315V7.49803H4.49909V6.50053H5.50315V5.49646H6.50065V4.49896H7.49815V5.49646H8.50221V7.49803H9.49971V8.49553H10.5038V7.49803H11.5013V6.50053H12.4988V5.49646H13.5028V6.50053H14.5003V7.49803H15.4978V8.49553Z" fill="#000001"/>
<path id="Vector_10" d="M8.50223 7.49805H7.49817V8.49555H8.50223V7.49805Z" fill="#000001"/>
<path id="Vector_11" d="M7.49811 18.4971H6.50061V21.4961H7.49811V18.4971Z" fill="#000001"/>
<path id="Vector_12" d="M5.50309 18.4971H4.49902V22.5002H6.50059V21.4961H5.50309V18.4971Z" fill="#000001"/>
<path id="Vector_13" d="M2.50406 3.50156H3.50156V2.4975H21.5025V1.5H2.50406V2.4975H1.5V15.4978H2.50406V3.50156Z" fill="#000001"/>
</g>
</g>
</svg>
