<svg width="24" height="24" viewBox="0 0 24 24" fill="none" xmlns="http://www.w3.org/2000/svg">
<g id="video-movies-player">
<g id="Group">
<path id="Vector" d="M22.0013 5.99561H20.9972V17.9984H22.0013V5.99561Z" fill="#000001"/>
<path id="Vector_2" d="M20.9973 17.9985H19.9998V18.996H20.9973V17.9985Z" fill="#000001"/>
<path id="Vector_3" d="M20.9973 4.99805H19.9998V5.99555H20.9973V4.99805Z" fill="#000001"/>
<path id="Vector_4" d="M20.0004 18.9956H4.00098V19.9997H20.0004V18.9956Z" fill="#000001"/>
<path id="Vector_5" d="M14.9998 9.99857H14.0023V9.00107H12.9975V7.99701H12V6.99951H9.00098V17.0008H12V15.9967H12.9975V14.9992H14.0023V13.9951H14.9998V12.9976H15.9966V10.9961H14.9998V9.99857Z" fill="#000001"/>
<path id="Vector_6" d="M20.0004 4.00049H4.00098V4.99799H20.0004V4.00049Z" fill="#000001"/>
<path id="Vector_7" d="M4.0004 17.9985H2.99634V18.996H4.0004V17.9985Z" fill="#000001"/>
<path id="Vector_8" d="M4.0004 4.99805H2.99634V5.99555H4.0004V4.99805Z" fill="#000001"/>
<path id="Vector_9" d="M2.99628 5.99561H1.99878V17.9984H2.99628V5.99561Z" fill="#000001"/>
</g>
</g>
</svg>
