<svg width="24" height="24" viewBox="0 0 24 24" fill="none" xmlns="http://www.w3.org/2000/svg">
<g id="video-movies-play">
<g id="Group">
<path id="Vector" d="M22.0013 3.50146H20.9972V20.4983H22.0013V3.50146Z" fill="#000001"/>
<path id="Vector_2" d="M20.9973 20.4985H19.9998V21.496H20.9973V20.4985Z" fill="#000001"/>
<path id="Vector_3" d="M20.9973 2.49756H19.9998V3.50162H20.9973V2.49756Z" fill="#000001"/>
<path id="Vector_4" d="M19.9997 21.4961H4.00037V22.5002H19.9997V21.4961Z" fill="#000001"/>
<path id="Vector_5" d="M18.9957 17.4995H17.9982V18.497H18.9957V17.4995Z" fill="#000001"/>
<path id="Vector_6" d="M17.9981 18.4971H17.0006V19.5011H17.9981V18.4971Z" fill="#000001"/>
<path id="Vector_7" d="M17.9981 16.4951H17.0006V17.4992H17.9981V16.4951Z" fill="#000001"/>
<path id="Vector_8" d="M7.99687 14.5005H9.00093V13.4965H18.9956V12.499H9.00093V11.5015H7.99687V12.499H4.9978V13.4965H7.99687V14.5005Z" fill="#000001"/>
<path id="Vector_9" d="M18.9956 9.49951H17.0006V10.497H18.9956V9.49951Z" fill="#000001"/>
<path id="Vector_10" d="M18.9956 7.49805H17.0006V8.49555H18.9956V7.49805Z" fill="#000001"/>
<path id="Vector_11" d="M17.0006 19.501H15.9966V20.4985H17.0006V19.501Z" fill="#000001"/>
<path id="Vector_12" d="M17.0006 15.498H15.9966V16.4955H17.0006V15.498Z" fill="#000001"/>
<path id="Vector_13" d="M14.9991 9.49951H12.9976V10.497H14.9991V9.49951Z" fill="#000001"/>
<path id="Vector_14" d="M14.9991 7.49805H12.9976V8.49555H14.9991V7.49805Z" fill="#000001"/>
<path id="Vector_15" d="M14.9991 5.49658H12.9976V6.50064H14.9991V5.49658Z" fill="#000001"/>
<path id="Vector_16" d="M12.9975 16.4955H12V15.498H10.996V20.4987H12V19.5012H12.9975V18.4971H14.0016V17.4996H12.9975V16.4955Z" fill="#000001"/>
<path id="Vector_17" d="M10.996 9.49951H9.00098V10.497H10.996V9.49951Z" fill="#000001"/>
<path id="Vector_18" d="M10.996 7.49805H9.00098V8.49555H10.996V7.49805Z" fill="#000001"/>
<path id="Vector_19" d="M10.996 5.49658H9.00098V6.50064H10.996V5.49658Z" fill="#000001"/>
<path id="Vector_20" d="M10.996 3.50146H9.00098V4.49896H10.996V3.50146Z" fill="#000001"/>
<path id="Vector_21" d="M7.99689 19.501H6.99939V20.4985H7.99689V19.501Z" fill="#000001"/>
<path id="Vector_22" d="M7.99689 15.498H6.99939V16.4955H7.99689V15.498Z" fill="#000001"/>
<path id="Vector_23" d="M6.99942 18.4971H5.99536V19.5011H6.99942V18.4971Z" fill="#000001"/>
<path id="Vector_24" d="M6.99942 16.4951H5.99536V17.4992H6.99942V16.4951Z" fill="#000001"/>
<path id="Vector_25" d="M6.99937 9.49951H4.9978V10.497H6.99937V9.49951Z" fill="#000001"/>
<path id="Vector_26" d="M6.99937 7.49805H4.9978V8.49555H6.99937V7.49805Z" fill="#000001"/>
<path id="Vector_27" d="M5.9953 17.4995H4.9978V18.497H5.9953V17.4995Z" fill="#000001"/>
<path id="Vector_28" d="M19.9997 1.5H4.00037V2.4975H19.9997V1.5Z" fill="#000001"/>
<path id="Vector_29" d="M4.0004 20.4985H2.99634V21.496H4.0004V20.4985Z" fill="#000001"/>
<path id="Vector_30" d="M4.0004 2.49756H2.99634V3.50162H4.0004V2.49756Z" fill="#000001"/>
<path id="Vector_31" d="M2.99628 3.50146H1.99878V20.4983H2.99628V3.50146Z" fill="#000001"/>
</g>
</g>
</svg>
