<svg width="24" height="24" viewBox="0 0 24 24" fill="none" xmlns="http://www.w3.org/2000/svg">
<g id="vintage-phone">
<g id="Group">
<path id="Vector" d="M21.998 4.49902H21.0005V7.49809H21.998V4.49902Z" fill="#000001"/>
<path id="Vector_2" d="M21.0004 14.4937H20.0029V20.4983H21.0004V14.4937Z" fill="#000001"/>
<path id="Vector_3" d="M21.0004 3.49512H20.0029V4.49918H21.0004V3.49512Z" fill="#000001"/>
<path id="Vector_4" d="M20.0028 20.4985H18.9988V21.496H20.0028V20.4985Z" fill="#000001"/>
<path id="Vector_5" d="M20.0028 12.4988H18.9988V14.4938H20.0028V12.4988Z" fill="#000001"/>
<path id="Vector_6" d="M21.0003 7.49805H18.0012V8.49555H21.0003V7.49805Z" fill="#000001"/>
<path id="Vector_7" d="M20.0028 2.49756H18.9988V3.49506H20.0028V2.49756Z" fill="#000001"/>
<path id="Vector_8" d="M18.9987 11.4946H18.0012V12.4987H18.9987V11.4946Z" fill="#000001"/>
<path id="Vector_9" d="M18.9988 21.4958H5.00098V22.4999H18.9988V21.4958Z" fill="#000001"/>
<path id="Vector_10" d="M18.0014 5.49658H17.0039V7.49814H18.0014V5.49658Z" fill="#000001"/>
<path id="Vector_11" d="M17.0039 4.49902H7.00269V5.49652H17.0039V4.49902Z" fill="#000001"/>
<path id="Vector_12" d="M15.9997 14.4937H15.0022V18.4968H15.9997V14.4937Z" fill="#000001"/>
<path id="Vector_13" d="M15.0024 18.4968H13.9983V19.4943H15.0024V18.4968Z" fill="#000001"/>
<path id="Vector_14" d="M15.0024 13.4963H13.9983V14.4938H15.0024V13.4963Z" fill="#000001"/>
<path id="Vector_15" d="M13.9983 19.4944H10.0017V20.4984H13.9983V19.4944Z" fill="#000001"/>
<path id="Vector_16" d="M13.0008 14.4937H10.9992V15.4977H10.0017V17.4993H10.9992V18.4968H13.0008V17.4993H13.9983V15.4977H13.0008V14.4937Z" fill="#000001"/>
<path id="Vector_17" d="M13.9983 12.4988H10.0017V13.4963H13.9983V12.4988Z" fill="#000001"/>
<path id="Vector_18" d="M10.0017 18.4968H9.00415V19.4943H10.0017V18.4968Z" fill="#000001"/>
<path id="Vector_19" d="M10.0017 13.4963H9.00415V14.4938H10.0017V13.4963Z" fill="#000001"/>
<path id="Vector_20" d="M9.00406 14.4937H8V18.4968H9.00406V14.4937Z" fill="#000001"/>
<path id="Vector_21" d="M8.0001 9.49967H10.0017V11.4947H13.9982V9.49967H15.9998V11.4947H18.0013V10.4972H17.0038V8.49561H13.0007V10.4972H10.9992V8.49561H7.0026V10.4972H5.99854V11.4947H8.0001V9.49967Z" fill="#000001"/>
<path id="Vector_22" d="M7.0026 5.49658H5.99854V7.49814H7.0026V5.49658Z" fill="#000001"/>
<path id="Vector_23" d="M18.9988 1.5H5.00098V2.4975H18.9988V1.5Z" fill="#000001"/>
<path id="Vector_24" d="M5.99848 11.4946H5.00098V12.4987H5.99848V11.4946Z" fill="#000001"/>
<path id="Vector_25" d="M5.00092 20.4985H4.00342V21.496H5.00092V20.4985Z" fill="#000001"/>
<path id="Vector_26" d="M5.00092 12.4988H4.00342V14.4938H5.00092V12.4988Z" fill="#000001"/>
<path id="Vector_27" d="M5.99857 7.49805H2.99951V8.49555H5.99857V7.49805Z" fill="#000001"/>
<path id="Vector_28" d="M5.00092 2.49756H4.00342V3.49506H5.00092V2.49756Z" fill="#000001"/>
<path id="Vector_29" d="M4.00357 14.4937H2.99951V20.4983H4.00357V14.4937Z" fill="#000001"/>
<path id="Vector_30" d="M4.00357 3.49512H2.99951V4.49918H4.00357V3.49512Z" fill="#000001"/>
<path id="Vector_31" d="M2.99945 4.49902H2.00195V7.49809H2.99945V4.49902Z" fill="#000001"/>
</g>
</g>
</svg>
