<svg width="24" height="24" viewBox="0 0 24 24" fill="none" xmlns="http://www.w3.org/2000/svg">
<g id="weather-umbrella-snowing">
<g id="Group">
<path id="Vector" d="M21.499 3.50146H20.5015V4.49896H21.499V3.50146Z" fill="#000001"/>
<path id="Vector_2" d="M19.5038 14.5003H15.5006V11.5012H14.5031V14.5003H9.50252V11.5012H8.49846V14.5003H4.50189V12.5053H3.50439V15.5043H11.5041V21.5025H12.5016V15.5043H20.5013V12.5053H19.5038V14.5003Z" fill="#000001"/>
<path id="Vector_3" d="M21.4989 7.50464H19.5039V9.49964H21.4989V7.50464Z" fill="#000001"/>
<path id="Vector_4" d="M19.5041 10.5037H18.5V12.5052H19.5041V10.5037Z" fill="#000001"/>
<path id="Vector_5" d="M19.5041 1.5H18.5V2.50406H19.5041V1.5Z" fill="#000001"/>
<path id="Vector_6" d="M18.4999 9.49976H17.5024V10.5038H18.4999V9.49976Z" fill="#000001"/>
<path id="Vector_7" d="M17.5026 5.50317H16.4985V6.50067H17.5026V5.50317Z" fill="#000001"/>
<path id="Vector_8" d="M17.5025 8.5022H15.501V9.4997H17.5025V8.5022Z" fill="#000001"/>
<path id="Vector_9" d="M15.5006 2.50415H13.499V4.49915H15.5006V2.50415Z" fill="#000001"/>
<path id="Vector_10" d="M14.5031 9.49976H13.499V11.5013H14.5031V9.49976Z" fill="#000001"/>
<path id="Vector_11" d="M11.504 21.5024H9.50244V22.4999H11.504V21.5024Z" fill="#000001"/>
<path id="Vector_12" d="M10.4999 9.49976H9.50244V11.5013H10.4999V9.49976Z" fill="#000001"/>
<path id="Vector_13" d="M10.5001 9.49979H11.5042V8.5023H12.5017V9.49979H13.4992V8.5023H15.5007V7.50479H12.5017V6.50073H11.5042V7.50479H8.49854V8.5023H10.5001V9.49979Z" fill="#000001"/>
<path id="Vector_14" d="M10.4999 3.50146H9.50244V4.49896H10.4999V3.50146Z" fill="#000001"/>
<path id="Vector_15" d="M9.5026 20.5049H8.49854V21.5024H9.5026V20.5049Z" fill="#000001"/>
<path id="Vector_16" d="M8.49842 8.5022H6.50342V9.4997H8.49842V8.5022Z" fill="#000001"/>
<path id="Vector_17" d="M7.50092 1.5H6.50342V2.50406H7.50092V1.5Z" fill="#000001"/>
<path id="Vector_18" d="M6.50357 9.49976H5.49951V10.5038H6.50357V9.49976Z" fill="#000001"/>
<path id="Vector_19" d="M5.49945 10.5037H4.50195V12.5052H5.49945V10.5037Z" fill="#000001"/>
<path id="Vector_20" d="M6.50352 5.50317H4.50195V7.50474H6.50352V5.50317Z" fill="#000001"/>
<path id="Vector_21" d="M4.50189 2.50415H3.50439V3.50165H4.50189V2.50415Z" fill="#000001"/>
<path id="Vector_22" d="M3.50455 7.50464H2.50049V8.50214H3.50455V7.50464Z" fill="#000001"/>
</g>
</g>
</svg>
