<svg width="24" height="24" viewBox="0 0 24 24" fill="none" xmlns="http://www.w3.org/2000/svg">
<g id="weather-cloud-sun-fine">
<g id="Group">
<path id="Vector" d="M22.5002 14.0049H21.4961V18.0014H22.5002V14.0049Z" fill="#000001"/>
<path id="Vector_2" d="M22.5001 9.00415H20.4985V10.0017H22.5001V9.00415Z" fill="#000001"/>
<path id="Vector_3" d="M21.496 18.0015H20.4985V19.0055H21.496V18.0015Z" fill="#000001"/>
<path id="Vector_4" d="M21.496 13.0007H20.4985V14.0048H21.496V13.0007Z" fill="#000001"/>
<path id="Vector_5" d="M21.496 4.00366H20.4985V5.00116H21.496V4.00366Z" fill="#000001"/>
<path id="Vector_6" d="M20.4985 19.0054H19.501V20.0029H20.4985V19.0054Z" fill="#000001"/>
<path id="Vector_7" d="M20.4985 12.0032H19.501V13.0007H20.4985V12.0032Z" fill="#000001"/>
<path id="Vector_8" d="M20.4985 5.00098H19.501V6.00504H20.4985V5.00098Z" fill="#000001"/>
<path id="Vector_9" d="M19.5008 20.0029H3.50146V21.0004H19.5008V20.0029Z" fill="#000001"/>
<path id="Vector_10" d="M16.4955 12.0032H15.498V13.0007H16.4955V12.0032Z" fill="#000001"/>
<path id="Vector_11" d="M16.4955 2.99951H15.498V5.00107H16.4955V2.99951Z" fill="#000001"/>
<path id="Vector_12" d="M15.498 13.0007H14.5005V14.0048H15.498V13.0007Z" fill="#000001"/>
<path id="Vector_13" d="M12.499 5.00098H11.5015V6.00504H12.499V5.00098Z" fill="#000001"/>
<path id="Vector_14" d="M11.5011 4.00366H10.4971V5.00116H11.5011V4.00366Z" fill="#000001"/>
<path id="Vector_15" d="M10.4972 8.00013H13.4962V9.00419H15.4978V10.0017H16.4953V12.0033H19.5009V8.00013H18.4969V7.00263H17.4994V6.00513H14.5003V7.00263H9.49967V8.00013H8.49561V9.00419H10.4972V8.00013Z" fill="#000001"/>
<path id="Vector_16" d="M9.49967 14.0049H8.49561V15.0024H9.49967V14.0049Z" fill="#000001"/>
<path id="Vector_17" d="M8.49555 13.0007H7.49805V14.0048H8.49555V13.0007Z" fill="#000001"/>
<path id="Vector_18" d="M8.49555 9.00415H7.49805V10.0017H8.49555V9.00415Z" fill="#000001"/>
<path id="Vector_19" d="M7.49803 13.0008V10.0017H6.50053V12.0033H3.50146V13.0008H7.49803Z" fill="#000001"/>
<path id="Vector_20" d="M3.50162 19.0054H2.49756V20.0029H3.50162V19.0054Z" fill="#000001"/>
<path id="Vector_21" d="M3.50162 13.0007H2.49756V14.0048H3.50162V13.0007Z" fill="#000001"/>
<path id="Vector_22" d="M2.4975 14.0049H1.5V19.0055H2.4975V14.0049Z" fill="#000001"/>
</g>
</g>
</svg>
