<svg width="24" height="24" viewBox="0 0 24 24" fill="none" xmlns="http://www.w3.org/2000/svg">
<g id="weather-moon">
<g id="Group">
<path id="Vector" d="M20.4985 9.49634H19.501V14.497H20.4985V9.49634Z" fill="#000001"/>
<path id="Vector_2" d="M19.5006 14.4971H18.4966V16.4986H19.5006V14.4971Z" fill="#000001"/>
<path id="Vector_3" d="M19.5006 7.50146H18.4966V9.49646H19.5006V7.50146Z" fill="#000001"/>
<path id="Vector_4" d="M18.497 16.4985H17.4995V17.496H18.497V16.4985Z" fill="#000001"/>
<path id="Vector_5" d="M18.497 6.49731H17.4995V7.50138H18.497V6.49731Z" fill="#000001"/>
<path id="Vector_6" d="M17.4992 17.4961H16.4951V18.5002H17.4992V17.4961Z" fill="#000001"/>
<path id="Vector_7" d="M17.4992 12.502H16.4951V13.4995H17.4992V12.502Z" fill="#000001"/>
<path id="Vector_8" d="M17.4992 5.49976H16.4951V6.49726H17.4992V5.49976Z" fill="#000001"/>
<path id="Vector_9" d="M16.495 9.49634H14.5V11.4979H16.495V9.49634Z" fill="#000001"/>
<path id="Vector_10" d="M16.495 18.5002H14.5V19.4977H16.495V18.5002Z" fill="#000001"/>
<path id="Vector_11" d="M15.4975 7.50146H14.5V8.49896H15.4975V7.50146Z" fill="#000001"/>
<path id="Vector_12" d="M16.495 4.49585H14.5V5.49991H16.495V4.49585Z" fill="#000001"/>
<path id="Vector_13" d="M14.5001 19.4976H9.49951V20.5016H14.5001V19.4976Z" fill="#000001"/>
<path id="Vector_14" d="M14.5001 14.4971H12.4985V16.4986H14.5001V14.4971Z" fill="#000001"/>
<path id="Vector_15" d="M11.5011 17.4961H10.4971V18.5002H11.5011V17.4961Z" fill="#000001"/>
<path id="Vector_16" d="M11.5011 11.498H10.4971V12.5021H11.5011V11.498Z" fill="#000001"/>
<path id="Vector_17" d="M14.5001 3.49829H9.49951V4.49579H14.5001V3.49829Z" fill="#000001"/>
<path id="Vector_18" d="M11.5011 6.49731H9.49951V8.49888H11.5011V6.49731Z" fill="#000001"/>
<path id="Vector_19" d="M9.49961 18.5002H7.49805V19.4977H9.49961V18.5002Z" fill="#000001"/>
<path id="Vector_20" d="M9.49967 15.5012H8.49561V16.4987H9.49967V15.5012Z" fill="#000001"/>
<path id="Vector_21" d="M9.49961 4.49585H7.49805V5.49991H9.49961V4.49585Z" fill="#000001"/>
<path id="Vector_22" d="M7.49799 17.4961H6.50049V18.5002H7.49799V17.4961Z" fill="#000001"/>
<path id="Vector_23" d="M7.49799 9.49634H6.50049V10.5004H7.49799V9.49634Z" fill="#000001"/>
<path id="Vector_24" d="M7.49799 5.49976H6.50049V6.49726H7.49799V5.49976Z" fill="#000001"/>
<path id="Vector_25" d="M6.50064 16.4985H5.49658V17.496H6.50064V16.4985Z" fill="#000001"/>
<path id="Vector_26" d="M7.49814 11.498H5.49658V13.4996H7.49814V11.498Z" fill="#000001"/>
<path id="Vector_27" d="M6.50064 6.49731H5.49658V7.50138H6.50064V6.49731Z" fill="#000001"/>
<path id="Vector_28" d="M5.49652 14.4971H4.49902V16.4986H5.49652V14.4971Z" fill="#000001"/>
<path id="Vector_29" d="M5.49652 7.50146H4.49902V9.49646H5.49652V7.50146Z" fill="#000001"/>
<path id="Vector_30" d="M4.49896 9.49634H3.50146V14.497H4.49896V9.49634Z" fill="#000001"/>
</g>
</g>
</svg>
