<svg width="24" height="24" viewBox="0 0 24 24" fill="none" xmlns="http://www.w3.org/2000/svg">
<g id="weather-cresent-moon-stars">
<g id="Group">
<path id="Vector" d="M20.997 9.00098H19.9995V9.99848H19.002V11.0025H19.9995V12H20.997V11.0025H22.001V9.99848H20.997V9.00098Z" fill="#000001"/>
<path id="Vector_2" d="M20.997 16.0032H19.9995V17.0007H20.997V16.0032Z" fill="#000001"/>
<path id="Vector_3" d="M19.0021 1.99878V3.00284H17.998V4.00034H19.0021V4.99784H19.9996V4.00034H20.9971V3.00284H19.9996V1.99878H19.0021Z" fill="#000001"/>
<path id="Vector_4" d="M19.0021 6.99951H17.998V8.00357H19.0021V6.99951Z" fill="#000001"/>
<path id="Vector_5" d="M17.9981 19.0022H17.0006V19.9997H15.9966V21.0038H17.0006V22.0013H17.9981V21.0038H19.0022V19.9997H17.9981V19.0022Z" fill="#000001"/>
<path id="Vector_6" d="M17.998 14.0017H17.0005V14.9992H17.998V14.0017Z" fill="#000001"/>
<path id="Vector_7" d="M15.9962 16.0032H9.99805V17.0007H14.9987V17.9982H15.9962V16.0032Z" fill="#000001"/>
<path id="Vector_8" d="M9.99805 6.99945V8.00352H15.9962V6.00195H14.9987V6.99945H9.99805Z" fill="#000001"/>
<path id="Vector_9" d="M14.9986 17.998H12.9971V19.0021H14.9986V17.998Z" fill="#000001"/>
<path id="Vector_10" d="M14.0016 14.0015V13.004H14.9991V11.9999H14.0016V11.0024H12.9975V11.9999H12V13.004H12.9975V14.0015H14.0016Z" fill="#000001"/>
<path id="Vector_11" d="M14.9986 4.9978H12.9971V6.00187H14.9986V4.9978Z" fill="#000001"/>
<path id="Vector_12" d="M12.9972 19.0022H7.99658V19.9997H12.9972V19.0022Z" fill="#000001"/>
<path id="Vector_13" d="M9.99799 14.999H9.00049V16.0031H9.99799V14.999Z" fill="#000001"/>
<path id="Vector_14" d="M9.99799 8.00342H9.00049V9.00092H9.99799V8.00342Z" fill="#000001"/>
<path id="Vector_15" d="M12.9972 4.00024H7.99658V4.99774H12.9972V4.00024Z" fill="#000001"/>
<path id="Vector_16" d="M9.00064 9.00098H7.99658V14.9991H9.00064V9.00098Z" fill="#000001"/>
<path id="Vector_17" d="M7.99646 17.998H6.00146V19.0021H7.99646V17.998Z" fill="#000001"/>
<path id="Vector_18" d="M7.99646 4.9978H6.00146V6.00187H7.99646V4.9978Z" fill="#000001"/>
<path id="Vector_19" d="M6.00162 17.0007H4.99756V17.9982H6.00162V17.0007Z" fill="#000001"/>
<path id="Vector_20" d="M6.00162 6.00195H4.99756V6.99945H6.00162V6.00195Z" fill="#000001"/>
<path id="Vector_21" d="M4.9975 14.999H4V17.0006H4.9975V14.999Z" fill="#000001"/>
<path id="Vector_22" d="M4.9975 6.99951H4V9.00107H4.9975V6.99951Z" fill="#000001"/>
<path id="Vector_23" d="M3.99994 21.0037H3.00244V22.0012H3.99994V21.0037Z" fill="#000001"/>
<path id="Vector_24" d="M3.99994 9.00098H3.00244V14.9991H3.99994V9.00098Z" fill="#000001"/>
<path id="Vector_25" d="M3.0026 4.00024H1.99854V4.99774H3.0026V4.00024Z" fill="#000001"/>
</g>
</g>
</svg>
