<svg width="24" height="24" viewBox="0 0 24 24" fill="none" xmlns="http://www.w3.org/2000/svg">
<g id="weather-snowman">
<g id="Group">
<path id="Vector" d="M19.5009 14.5002H18.5034V17.4993H19.5009V14.5002Z" fill="#000001"/>
<path id="Vector_2" d="M18.5036 17.4993H17.4995V19.5008H18.5036V17.4993Z" fill="#000001"/>
<path id="Vector_3" d="M18.5036 12.5054H17.4995V14.5004H18.5036V12.5054Z" fill="#000001"/>
<path id="Vector_4" d="M17.4995 19.501H16.502V20.505H17.4995V19.501Z" fill="#000001"/>
<path id="Vector_5" d="M17.4995 11.5012H16.502V12.5053H17.4995V11.5012Z" fill="#000001"/>
<path id="Vector_6" d="M16.5016 10.5037H15.4976V11.5012H16.5016V10.5037Z" fill="#000001"/>
<path id="Vector_7" d="M16.5021 20.5049H14.5005V21.5024H16.5021V20.5049Z" fill="#000001"/>
<path id="Vector_8" d="M15.498 9.49976H14.5005V10.5038H15.498V9.49976Z" fill="#000001"/>
<path id="Vector_9" d="M14.5004 6.50073H13.5029V7.50479H14.5004V6.50073Z" fill="#000001"/>
<path id="Vector_10" d="M14.5001 21.5024H9.49951V22.4999H14.5001V21.5024Z" fill="#000001"/>
<path id="Vector_11" d="M12.4989 17.4993H11.5014V18.5033H10.5039V19.5008H11.5014V20.5049H12.4989V19.5008H13.503V18.5033H12.4989V17.4993Z" fill="#000001"/>
<path id="Vector_12" d="M12.4989 12.5054H11.5014V13.5029H10.5039V14.5004H11.5014V15.5044H12.4989V14.5004H13.503V13.5029H12.4989V12.5054Z" fill="#000001"/>
<path id="Vector_13" d="M13.503 8.5022H10.5039V9.4997H13.503V8.5022Z" fill="#000001"/>
<path id="Vector_14" d="M14.5001 4.49906V5.50312H15.4976V9.49969H16.5017V6.50062H17.4992V5.50312H18.5033V3.50156H17.4992V2.50406H16.5017V1.5H14.5001V2.50406H13.5026V3.50156H9.49951V4.49906H14.5001Z" fill="#000001"/>
<path id="Vector_15" d="M10.5036 6.50073H9.49951V7.50479H10.5036V6.50073Z" fill="#000001"/>
<path id="Vector_16" d="M9.49961 20.5049H7.49805V21.5024H9.49961V20.5049Z" fill="#000001"/>
<path id="Vector_17" d="M9.49945 9.49976H8.50195V10.5038H9.49945V9.49976Z" fill="#000001"/>
<path id="Vector_18" d="M9.49945 4.49902H8.50195V5.50309H9.49945V4.49902Z" fill="#000001"/>
<path id="Vector_19" d="M8.50211 10.5037H7.49805V11.5012H8.50211V10.5037Z" fill="#000001"/>
<path id="Vector_20" d="M8.50211 5.50317H7.49805V9.49974H8.50211V5.50317Z" fill="#000001"/>
<path id="Vector_21" d="M7.49799 19.501H6.50049V20.505H7.49799V19.501Z" fill="#000001"/>
<path id="Vector_22" d="M7.49799 11.5012H6.50049V12.5053H7.49799V11.5012Z" fill="#000001"/>
<path id="Vector_23" d="M6.50043 17.4993H5.50293V19.5008H6.50043V17.4993Z" fill="#000001"/>
<path id="Vector_24" d="M6.50043 12.5054H5.50293V14.5004H6.50043V12.5054Z" fill="#000001"/>
<path id="Vector_25" d="M5.50309 14.5002H4.49902V17.4993H5.50309V14.5002Z" fill="#000001"/>
</g>
</g>
</svg>
