<svg width="24" height="24" viewBox="0 0 24 24" fill="none" xmlns="http://www.w3.org/2000/svg">
<g id="weather-umbrella">
<g id="Group">
<path id="Vector" d="M22.5002 11.5012H21.4961V14.5003H22.5002V11.5012Z" fill="#000001"/>
<path id="Vector_2" d="M21.496 14.5002H20.4985V15.5043H21.496V14.5002Z" fill="#000001"/>
<path id="Vector_3" d="M21.496 9.49976H20.4985V11.5013H21.496V9.49976Z" fill="#000001"/>
<path id="Vector_4" d="M20.4985 13.5029H19.501V14.5004H20.4985V13.5029Z" fill="#000001"/>
<path id="Vector_5" d="M20.4985 7.50464H19.501V9.49964H20.4985V7.50464Z" fill="#000001"/>
<path id="Vector_6" d="M19.5011 12.5054H17.4995V13.5029H19.5011V12.5054Z" fill="#000001"/>
<path id="Vector_7" d="M19.5011 6.50073H18.4971V7.50479H19.5011V6.50073Z" fill="#000001"/>
<path id="Vector_8" d="M18.497 5.50317H17.4995V6.50067H18.497V5.50317Z" fill="#000001"/>
<path id="Vector_9" d="M17.4992 13.5029H16.4951V14.5004H17.4992V13.5029Z" fill="#000001"/>
<path id="Vector_10" d="M16.4955 9.49976H15.498V11.5013H16.4955V9.49976Z" fill="#000001"/>
<path id="Vector_11" d="M17.4996 4.49902H15.498V5.50309H17.4996V4.49902Z" fill="#000001"/>
<path id="Vector_12" d="M16.4955 14.5002H14.5005V15.5043H16.4955V14.5002Z" fill="#000001"/>
<path id="Vector_13" d="M15.498 7.50464H14.5005V9.49964H15.498V7.50464Z" fill="#000001"/>
<path id="Vector_14" d="M14.5002 13.5029H13.4961V14.5004H14.5002V13.5029Z" fill="#000001"/>
<path id="Vector_15" d="M14.5002 6.50073H13.4961V7.50479H14.5002V6.50073Z" fill="#000001"/>
<path id="Vector_16" d="M10.4971 12.5054V13.5029H11.5011V21.5026H12.4986V13.5029H13.4961V12.5054H10.4971Z" fill="#000001"/>
<path id="Vector_17" d="M11.5011 21.5024H9.49951V22.4999H11.5011V21.5024Z" fill="#000001"/>
<path id="Vector_18" d="M10.497 13.5029H9.49951V14.5004H10.497V13.5029Z" fill="#000001"/>
<path id="Vector_19" d="M10.497 6.50073H9.49951V7.50479H10.497V6.50073Z" fill="#000001"/>
<path id="Vector_20" d="M15.4978 4.49906V3.50156H12.4987V1.5H11.5012V3.50156H8.49561V4.49906H15.4978Z" fill="#000001"/>
<path id="Vector_21" d="M9.49967 20.5049H8.49561V21.5024H9.49967V20.5049Z" fill="#000001"/>
<path id="Vector_22" d="M9.49967 7.50464H8.49561V9.49964H9.49967V7.50464Z" fill="#000001"/>
<path id="Vector_23" d="M9.49961 14.5002H7.49805V15.5043H9.49961V14.5002Z" fill="#000001"/>
<path id="Vector_24" d="M8.49555 9.49976H7.49805V11.5013H8.49555V9.49976Z" fill="#000001"/>
<path id="Vector_25" d="M8.49549 4.49902H6.50049V5.50309H8.49549V4.49902Z" fill="#000001"/>
<path id="Vector_26" d="M7.49799 13.5029H6.50049V14.5004H7.49799V13.5029Z" fill="#000001"/>
<path id="Vector_27" d="M6.50059 12.5054H4.49902V13.5029H6.50059V12.5054Z" fill="#000001"/>
<path id="Vector_28" d="M6.50064 5.50317H5.49658V6.50067H6.50064V5.50317Z" fill="#000001"/>
<path id="Vector_29" d="M5.49652 6.50073H4.49902V7.50479H5.49652V6.50073Z" fill="#000001"/>
<path id="Vector_30" d="M4.49896 13.5029H3.50146V14.5004H4.49896V13.5029Z" fill="#000001"/>
<path id="Vector_31" d="M4.49896 7.50464H3.50146V9.49964H4.49896V7.50464Z" fill="#000001"/>
<path id="Vector_32" d="M3.50162 14.5002H2.49756V15.5043H3.50162V14.5002Z" fill="#000001"/>
<path id="Vector_33" d="M3.50162 9.49976H2.49756V11.5013H3.50162V9.49976Z" fill="#000001"/>
<path id="Vector_34" d="M2.4975 11.5012H1.5V14.5003H2.4975V11.5012Z" fill="#000001"/>
</g>
</g>
</svg>
