<svg width="24" height="24" viewBox="0 0 24 24" fill="none" xmlns="http://www.w3.org/2000/svg">
<g id="weather-meteor">
<g id="Group">
<path id="Vector" d="M22.5002 7.50464H21.4961V8.50214H22.5002V7.50464Z" fill="#000001"/>
<path id="Vector_2" d="M22.5002 4.49902H21.4961V5.50309H22.5002V4.49902Z" fill="#000001"/>
<path id="Vector_3" d="M22.5002 1.5H21.4961V2.50406H22.5002V1.5Z" fill="#000001"/>
<path id="Vector_4" d="M21.496 10.5037H20.4985V11.5012H21.496V10.5037Z" fill="#000001"/>
<path id="Vector_5" d="M21.496 5.50317H20.4985V6.50067H21.496V5.50317Z" fill="#000001"/>
<path id="Vector_6" d="M21.496 2.50415H20.4985V3.50165H21.496V2.50415Z" fill="#000001"/>
<path id="Vector_7" d="M20.4985 11.5012H19.501V12.5053H20.4985V11.5012Z" fill="#000001"/>
<path id="Vector_8" d="M20.4985 6.50073H19.501V7.50479H20.4985V6.50073Z" fill="#000001"/>
<path id="Vector_9" d="M20.4985 3.50146H19.501V4.49896H20.4985V3.50146Z" fill="#000001"/>
<path id="Vector_10" d="M19.5011 12.5054H18.4971V14.5004H19.5011V12.5054Z" fill="#000001"/>
<path id="Vector_11" d="M19.5011 8.5022H18.4971V9.4997H19.5011V8.5022Z" fill="#000001"/>
<path id="Vector_12" d="M19.5011 4.49902H18.4971V5.50309H19.5011V4.49902Z" fill="#000001"/>
<path id="Vector_13" d="M19.5011 1.5H18.4971V2.50406H19.5011V1.5Z" fill="#000001"/>
<path id="Vector_14" d="M18.497 14.5002H17.4995V16.5018H18.497V14.5002Z" fill="#000001"/>
<path id="Vector_15" d="M18.497 9.49976H17.4995V10.5038H18.497V9.49976Z" fill="#000001"/>
<path id="Vector_16" d="M18.497 5.50317H17.4995V6.50067H18.497V5.50317Z" fill="#000001"/>
<path id="Vector_17" d="M18.497 2.50415H17.4995V3.50165H18.497V2.50415Z" fill="#000001"/>
<path id="Vector_18" d="M17.4992 16.502H16.4951V18.5035H17.4992V16.502Z" fill="#000001"/>
<path id="Vector_19" d="M17.4992 3.50146H16.4951V4.49896H17.4992V3.50146Z" fill="#000001"/>
<path id="Vector_20" d="M16.4955 11.5012H15.498V12.5053H16.4955V11.5012Z" fill="#000001"/>
<path id="Vector_21" d="M16.4955 7.50464H15.498V8.50214H16.4955V7.50464Z" fill="#000001"/>
<path id="Vector_22" d="M16.4955 1.5H15.498V2.50406H16.4955V1.5Z" fill="#000001"/>
<path id="Vector_23" d="M16.4955 18.5034H14.5005V19.5009H16.4955V18.5034Z" fill="#000001"/>
<path id="Vector_24" d="M15.498 4.49902H14.5005V5.50309H15.498V4.49902Z" fill="#000001"/>
<path id="Vector_25" d="M15.498 2.50415H14.5005V3.50165H15.498V2.50415Z" fill="#000001"/>
<path id="Vector_26" d="M14.5002 19.501H13.4961V20.505H14.5002V19.501Z" fill="#000001"/>
<path id="Vector_27" d="M14.5002 9.49976H13.4961V10.5038H14.5002V9.49976Z" fill="#000001"/>
<path id="Vector_28" d="M13.496 6.50073H12.4985V7.50479H13.496V6.50073Z" fill="#000001"/>
<path id="Vector_29" d="M13.496 2.50415H12.4985V3.50165H13.496V2.50415Z" fill="#000001"/>
<path id="Vector_30" d="M13.4965 20.5049H11.5015V21.5024H13.4965V20.5049Z" fill="#000001"/>
<path id="Vector_31" d="M12.499 7.50464H11.5015V8.50214H12.499V7.50464Z" fill="#000001"/>
<path id="Vector_32" d="M12.4986 3.50146H10.4971V4.49896H12.4986V3.50146Z" fill="#000001"/>
<path id="Vector_33" d="M11.5012 21.5024H7.49805V22.4999H11.5012V21.5024Z" fill="#000001"/>
<path id="Vector_34" d="M10.497 4.49902H9.49951V5.50309H10.497V4.49902Z" fill="#000001"/>
<path id="Vector_35" d="M9.49961 5.50317H7.49805V6.50067H9.49961V5.50317Z" fill="#000001"/>
<path id="Vector_36" d="M11.5012 19.501V18.5035H12.4987V17.4994H13.4962V16.5019H14.5003V12.5054H13.4962V11.5013H12.4987V10.5038H11.5012V9.49976H7.49809V10.5038H6.50059V11.5013H5.49652V12.5054H4.49902V16.5019H5.49652V17.4994H6.50059V18.5035H7.49809V19.501H11.5012ZM9.49965 11.5013H11.5012V12.5054H12.4987V13.5029H13.4962V15.5044H12.4987V13.5029H11.5012V12.5054H9.49965V11.5013Z" fill="#000001"/>
<path id="Vector_37" d="M7.49809 20.5049H4.49902V21.5024H7.49809V20.5049Z" fill="#000001"/>
<path id="Vector_38" d="M7.49814 6.50073H5.49658V7.50479H7.49814V6.50073Z" fill="#000001"/>
<path id="Vector_39" d="M5.49652 7.50464H4.49902V8.50214H5.49652V7.50464Z" fill="#000001"/>
<path id="Vector_40" d="M4.49896 19.501H3.50146V20.505H4.49896V19.501Z" fill="#000001"/>
<path id="Vector_41" d="M4.49896 8.5022H3.50146V9.4997H4.49896V8.5022Z" fill="#000001"/>
<path id="Vector_42" d="M3.50162 17.4993H2.49756V19.5008H3.50162V17.4993Z" fill="#000001"/>
<path id="Vector_43" d="M3.50162 9.49976H2.49756V11.5013H3.50162V9.49976Z" fill="#000001"/>
<path id="Vector_44" d="M2.4975 11.5012H1.5V17.4993H2.4975V11.5012Z" fill="#000001"/>
</g>
</g>
</svg>
