<svg width="24" height="24" viewBox="0 0 24 24" fill="none" xmlns="http://www.w3.org/2000/svg">
<g id="weather-wind-flag">
<g id="Group">
<path id="Vector" d="M22.5002 4.49902H21.4961V12.5053H22.5002V4.49902Z" fill="#000001"/>
<path id="Vector_2" d="M21.496 12.5054H20.4985V13.5029H21.496V12.5054Z" fill="#000001"/>
<path id="Vector_3" d="M21.496 3.50146H20.4985V4.49896H21.496V3.50146Z" fill="#000001"/>
<path id="Vector_4" d="M20.4985 13.5029H19.501V14.5004H20.4985V13.5029Z" fill="#000001"/>
<path id="Vector_5" d="M20.4985 2.50415H19.501V3.50165H20.4985V2.50415Z" fill="#000001"/>
<path id="Vector_6" d="M19.5007 4.49902H17.4992V5.50309H16.4951V11.5012H17.4992V12.5053H19.5007V11.5012H20.4982V5.50309H19.5007V4.49902Z" fill="#000001"/>
<path id="Vector_7" d="M17.4996 13.5029H16.4955V14.5004H14.5005V15.5045H17.4996V22.5001H18.4971V15.5045H19.5011V14.5004H17.4996V13.5029Z" fill="#000001"/>
<path id="Vector_8" d="M16.4955 12.5054H15.498V13.5029H16.4955V12.5054Z" fill="#000001"/>
<path id="Vector_9" d="M16.4955 3.50146H15.498V4.49896H16.4955V3.50146Z" fill="#000001"/>
<path id="Vector_10" d="M16.4955 3.50156H17.4996V2.50406H19.5011V1.5H14.5005V2.50406H16.4955V3.50156Z" fill="#000001"/>
<path id="Vector_11" d="M16.4952 19.501H13.4961V20.505H16.4952V19.501Z" fill="#000001"/>
<path id="Vector_12" d="M15.498 4.49902H14.5005V12.5053H15.498V4.49902Z" fill="#000001"/>
<path id="Vector_13" d="M14.5005 13.5029H11.5015V14.5004H14.5005V13.5029Z" fill="#000001"/>
<path id="Vector_14" d="M13.4961 18.5034H10.4971V19.5009H13.4961V18.5034Z" fill="#000001"/>
<path id="Vector_15" d="M14.5005 2.50415H11.5015V3.50165H14.5005V2.50415Z" fill="#000001"/>
<path id="Vector_16" d="M11.5012 3.50146H10.4971V4.49896H7.49805V5.50303H10.4971V11.5012H7.49805V12.5052H10.4971V13.5027H11.5012V3.50146Z" fill="#000001"/>
<path id="Vector_17" d="M10.4972 19.501H8.49561V20.505H10.4972V19.501Z" fill="#000001"/>
<path id="Vector_18" d="M10.4971 15.5044H7.49805V16.5019H10.4971V15.5044Z" fill="#000001"/>
<path id="Vector_19" d="M7.49799 14.5002H6.50049V15.5043H7.49799V14.5002Z" fill="#000001"/>
<path id="Vector_20" d="M7.49809 5.50317H6.50059V6.50067H4.49902V7.50474H6.50059V9.49974H4.49902V10.5038H6.50059V11.5013H7.49809V5.50317Z" fill="#000001"/>
<path id="Vector_21" d="M6.50053 13.5029H3.50146V14.5004H6.50053V13.5029Z" fill="#000001"/>
<path id="Vector_22" d="M6.50059 3.50146H4.49902V4.49896H6.50059V3.50146Z" fill="#000001"/>
<path id="Vector_23" d="M4.49896 7.50464H3.50146V9.49964H4.49896V7.50464Z" fill="#000001"/>
<path id="Vector_24" d="M4.49912 2.50415H2.49756V3.50165H4.49912V2.50415Z" fill="#000001"/>
<path id="Vector_25" d="M3.50156 14.5002H1.5V15.5043H3.50156V14.5002Z" fill="#000001"/>
<path id="Vector_26" d="M2.4975 3.50146H1.5V4.49896H2.4975V3.50146Z" fill="#000001"/>
</g>
</g>
</svg>
