<svg width="24" height="24" viewBox="0 0 24 24" fill="none" xmlns="http://www.w3.org/2000/svg">
<g id="weather-temperature-thermometer">
<g id="Group">
<path id="Vector" d="M18.9987 4.49902H14.9956V5.50309H18.9987V4.49902Z" fill="#000001"/>
<path id="Vector_2" d="M18.9987 12.5054H14.9956V13.5029H18.9987V12.5054Z" fill="#000001"/>
<path id="Vector_3" d="M18.9987 8.5022H14.9956V9.4997H18.9987V8.5022Z" fill="#000001"/>
<path id="Vector_4" d="M5.99848 21.5026H6.99598V22.5001H10.9991V21.5026H11.9999V20.5051H13.0039V16.502H11.9999V15.5045H11.0024V2.50415H9.99832V11.5013H7.99676V2.50415H6.99598V15.5045H5.99848V16.502H5.00098V20.5051H5.99848V21.5026ZM9.99504 16.502H10.9991V17.4995H11.9999V19.501H11.0024V17.4995H9.99832L9.99504 16.502Z" fill="#000001"/>
<path id="Vector_5" d="M9.995 1.5H8V2.50406H9.995V1.5Z" fill="#000001"/>
</g>
</g>
</svg>
