<svg width="24" height="24" viewBox="0 0 24 24" fill="none" xmlns="http://www.w3.org/2000/svg">
<g id="weather-rainbow">
<g id="Group">
<path id="Vector" d="M21.0004 7.00264H15.9998V8.00014H13.0008V8.99764H10.9992V10.0017H10.0017V10.9992H8.99764V13.0008H8.00014V15.9998H7.00264V21.0004H2.99951V21.9979H13.9983V21.0004H10.0017V15.9998H10.9992V13.9983H12.0033V13.0008H13.0008V12.0033H13.9983V10.9992H15.9998V10.0017H21.0004V13.9983H21.9979V2.99951H21.0004V7.00264Z" fill="#000001"/>
<path id="Vector_2" d="M21.0006 13.9983H16V15.0024H21.0006V13.9983Z" fill="#000001"/>
<path id="Vector_3" d="M21.0006 2.00195H16V2.99945H21.0006V2.00195Z" fill="#000001"/>
<path id="Vector_4" d="M15.9999 15.0022H15.0024V15.9997H15.9999V15.0022Z" fill="#000001"/>
<path id="Vector_5" d="M15.0021 15.9998H13.998V21.0004H15.0021V15.9998Z" fill="#000001"/>
<path id="Vector_6" d="M15.9996 2.99951H13.0005V3.99701H15.9996V2.99951Z" fill="#000001"/>
<path id="Vector_7" d="M13.0005 3.99707H10.0015V5.00113H13.0005V3.99707Z" fill="#000001"/>
<path id="Vector_8" d="M10.0016 5.00098H8V5.99848H10.0016V5.00098Z" fill="#000001"/>
<path id="Vector_9" d="M7.99994 5.99854H7.00244V7.0026H7.99994V5.99854Z" fill="#000001"/>
<path id="Vector_10" d="M7.0026 7.00269H5.99854V8.00019H7.0026V7.00269Z" fill="#000001"/>
<path id="Vector_11" d="M5.99848 8H5.00098V10.0016H5.99848V8Z" fill="#000001"/>
<path id="Vector_12" d="M5.00092 10.0017H4.00342V13.0008H5.00092V10.0017Z" fill="#000001"/>
<path id="Vector_13" d="M4.00357 13.0007H2.99951V15.9998H4.00357V13.0007Z" fill="#000001"/>
<path id="Vector_14" d="M2.99945 15.9998H2.00195V21.0004H2.99945V15.9998Z" fill="#000001"/>
</g>
</g>
</svg>
