<svg preserveAspectRatio="none" width="100%" height="100%" overflow="visible" style="display: block;" viewBox="0 0 80.935 19.1301" fill="none" xmlns="http://www.w3.org/2000/svg">
<g id="Frame" clip-path="url(#clip0_0_4)">
<path id="Vector" d="M18.5415 18.5415H13.2439V15.8927H10.5951V13.2439H7.94634V10.5951H5.29756V18.5415H0V0H5.29756V2.64879H7.94634V5.29757H10.5951V7.94635H13.2439V0H18.5415V18.5415ZM39.1522 18.5415H20.6108V0H39.1522V2.64879H25.9083V7.94635H36.5034V10.5951H25.9083V15.8927H39.1522V18.5415ZM59.7631 18.5415H54.4656V15.8927H51.8168V13.2439H49.168V15.8927H46.5192V18.5415H41.2217V0H46.5192V7.94635H49.168V5.29757H51.8168V7.94635H54.4656V0H59.7631V18.5415ZM80.3739 15.8927H77.7251V18.5415H64.4812V15.8927H61.8324V13.2439H67.13V15.8927H75.0763V10.5951H64.4812V7.94635H61.8324V2.64879H64.4812V0H75.0763V2.64879H77.7251V5.29757H72.4275V2.64879H67.13V7.94635H77.7251V10.5951H80.3739V15.8927Z" fill="var(--fill-0, #0F0E0C)"/>
</g>
<defs>
<clipPath id="clip0_0_4">
<rect width="80.935" height="19.1301" fill="white"/>
</clipPath>
</defs>
</svg>
