<svg preserveAspectRatio="none" width="100%" height="100%" overflow="visible" style="display: block;" viewBox="0 0 684.09 684.383" fill="none" xmlns="http://www.w3.org/2000/svg">
<g id="lines">
<g id="Vector">
</g>
<path id="Vector 197" d="M587.979 297.919C590.974 302.922 592.477 328.59 592.465 340.923L357.465 340.68L587.979 297.919Z" fill="#FEF8E2"/>
<g id="Vector_2">
</g>
<g id="Vector_3">
</g>
<g id="Vector_4">
</g>
<g id="Vector_5">
</g>
<g id="Vector_6">
</g>
<path id="Vector_7" opacity="0.1" d="M125.357 467.428C56.2534 347.738 97.2625 194.69 216.953 125.586C336.644 56.4831 489.692 97.4921 558.795 217.183C627.898 336.873 586.889 489.921 467.199 559.025C347.508 628.128 194.46 587.119 125.357 467.428Z" fill="#FCE184" stroke="#FCE184" stroke-width="3"/>
<g id="Vector_8">
</g>
<g id="Vector_9">
</g>
<g id="Vector_10">
</g>
<g id="Vector_11">
</g>
<g id="Vector_12">
</g>
<g id="Vector_13">
</g>
<path id="Vector_14" d="M202.922 422.756C158.508 345.827 184.865 247.459 261.794 203.044C338.723 158.63 437.091 184.987 481.506 261.916C525.92 338.845 499.563 437.213 422.634 481.628C345.705 526.042 247.337 499.685 202.922 422.756Z" fill="#FCE184" fill-opacity="0.3" stroke="#FCE184" stroke-width="3"/>
<path id="Vector_15" d="M502.785 533.494L181 150.006" stroke="#FCE184" stroke-width="3"/>
<path id="Vector_16" d="M533.637 502.643L150.148 180.858" stroke="#FCE184" stroke-width="3"/>
<path id="Vector_17" d="M558.66 466.902L125.12 216.598" stroke="#FCE184" stroke-width="3"/>
<path id="Vector_18" d="M577.074 427.374L106.656 256.156" stroke="#FCE184" stroke-width="3"/>
<path id="Vector_19" d="M588.371 385.23L95.368 298.3" stroke="#FCE184" stroke-width="3"/>
<path id="Vector_20" d="M427.504 576.958L256.286 106.54" stroke="#FCE184" stroke-width="3"/>
<path id="Vector_21" d="M385.363 588.251L298.433 95.2479" stroke="#FCE184" stroke-width="3"/>
<path id="Vector_22" d="M341.894 592.054L341.894 91.4453" stroke="#FCE184" stroke-width="3"/>
<path id="Vector_23" d="M298.434 588.25L385.363 95.2474" stroke="#FCE184" stroke-width="3"/>
<path id="Vector_24" d="M256.285 576.958L427.503 106.54" stroke="#FCE184" stroke-width="3"/>
<path id="Vector_25" d="M181.004 533.493L502.789 150.005" stroke="#FCE184" stroke-width="3"/>
<path id="Vector_26" d="M150.152 502.642L533.641 180.857" stroke="#FCE184" stroke-width="3"/>
<path id="Vector_27" d="M125.129 466.901L558.668 216.597" stroke="#FCE184" stroke-width="3"/>
<path id="Vector_28" d="M106.691 427.359L577.109 256.141" stroke="#FCE184" stroke-width="3"/>
<path id="Vector_29" d="M95.3944 385.214L588.397 298.285" stroke="#FCE184" stroke-width="3"/>
<path id="Vector_30" d="M378.309 404.994C367.165 411.428 354.511 414.786 341.643 414.725C328.775 414.663 316.154 411.184 305.072 404.643L341.991 342.089L378.309 404.994Z" fill="#FCE184" fill-opacity="0.6"/>
<path id="Vector_31" d="M306.156 405.135C294.951 398.807 285.628 389.616 279.141 378.503C272.654 367.389 269.236 354.751 269.237 341.883L341.874 341.887L306.156 405.135Z" fill="#FCE184" fill-opacity="0.6"/>
<g id="Vector_32">
</g>
<path id="Vector_33" d="M305.555 278.981C316.7 272.547 329.353 269.189 342.222 269.25C355.09 269.312 367.711 272.791 378.793 279.332L341.874 341.886L305.555 278.981Z" fill="#FCE184" fill-opacity="0.6"/>
<path id="Vector_34" d="M269.242 343.036C269.038 330.17 272.256 317.48 278.567 306.265C284.878 295.05 294.055 285.713 305.159 279.21L341.87 341.887L269.242 343.036Z" fill="#FCE184" fill-opacity="0.6"/>
<path id="Vector_35" d="M377.959 278.847C389.127 285.239 398.396 294.485 404.818 305.636C411.241 316.787 414.585 329.444 414.509 342.313L341.874 341.886L377.959 278.847Z" fill="#FCE184" fill-opacity="0.6"/>
<path id="Vector_36" d="M414.508 341.298C414.612 354.166 411.296 366.831 404.899 377.996C398.502 389.162 389.253 398.428 378.099 404.845L341.874 341.886L414.508 341.298Z" fill="#FCE184" fill-opacity="0.6"/>
<circle id="Vector_37" cx="341.991" cy="342.089" r="72.6368" transform="rotate(150 341.991 342.089)" stroke="#FCE184" stroke-width="3"/>
<path id="Vector_38" d="M467.113 558.808L216.809 125.268" stroke="#FCE184" stroke-width="3"/>
<path id="Vector_39" d="M216.848 558.819L467.152 125.279" stroke="#FCE184" stroke-width="3"/>
<path id="Vector_40" d="M592.223 342.094L91.6141 342.094" stroke="#FCE184" stroke-width="3"/>
</g>
</svg>
