<svg preserveAspectRatio="none" width="100%" height="100%" overflow="visible" style="display: block;" viewBox="0 0 18.4908 20.0343" fill="none" xmlns="http://www.w3.org/2000/svg">
<g id="Group">
<path id="Vector" d="M1.5411 9.24674V7.70564H0V9.24674V10.7878V12.3289H1.5411V10.7878V9.24674Z" fill="#0F0E0C"/>
<path id="Vector_2" d="M3.08407 15.4114V13.8703H1.54297V15.4114V16.9525H3.08407H4.62517V15.4114H3.08407Z" fill="#0F0E0C"/>
<path id="Vector_3" d="M4.62186 4.62329V3.08219H3.08077H1.53967V4.62329V6.16439H3.08077V4.62329H4.62186Z" fill="#0F0E0C"/>
<path id="Vector_4" d="M7.70307 1.5411H6.16197V3.0822H7.70307H9.24417H10.7853V1.5411H9.24417V0H7.70307V1.5411Z" fill="#0F0E0C"/>
<path id="Vector_5" d="M10.786 16.9521H9.24494H7.70384H6.16275V18.4932H7.70384V20.0343H9.24494V18.4932H10.786V16.9521Z" fill="#0F0E0C"/>
<path id="Vector_6" d="M10.79 6.16495V4.62385H9.24894H7.70784H6.16674V6.16495H4.62564V7.70605H3.08454V9.24715V10.7882V12.3293H4.62564V13.8704H6.16674V15.4115H7.70784H9.24894H10.79V13.8704H12.3311V12.3293H13.8722V10.7882V9.24715V7.70605H12.3311V6.16495H10.79Z" fill="#0F0E0C"/>
<path id="Vector_7" d="M12.3306 15.4113V16.9524H13.8717H15.4128V15.4113V13.8702H13.8717V15.4113H12.3306Z" fill="#0F0E0C"/>
<path id="Vector_8" d="M13.8684 4.62337V6.16447H15.4095V4.62337V3.08227H13.8684H12.3273V4.62337H13.8684Z" fill="#0F0E0C"/>
<path id="Vector_9" d="M15.4086 10.7877V12.3288H16.9497V10.7877H18.4908V9.24658H16.9497V7.70548H15.4086V9.24658V10.7877Z" fill="#0F0E0C"/>
</g>
</svg>
