<svg preserveAspectRatio="none" width="100%" height="100%" overflow="visible" style="display: block;" viewBox="0 0 69.2523 20.0346" fill="none" xmlns="http://www.w3.org/2000/svg">
<g id="Group">
<path id="Vector" d="M0 3.0822V20.0343H55.3794V18.4932H1.5411V1.5411H55.3794V0H0V3.0822Z" fill="#0F0E0C"/>
<path id="Vector_2" d="M9.24641 12.3287H10.7875V13.8698H12.3286V16.952H16.9519V13.8698H15.4108V10.7876H16.9519V4.62321H15.4108V3.08211H3.08202V16.952H6.16421V12.3287H9.24641ZM7.70531 9.24651H6.16421V6.16431H13.8697V9.24651H7.70531Z" fill="#0F0E0C"/>
<path id="Vector_3" d="M24.655 12.3285H29.2783V16.9518H32.3605V6.16415H30.8194V4.62305H29.2783V3.08195H21.5728V4.62305H20.0318V6.16415H18.4907V16.9518H21.5728V12.3285H24.655ZM23.1139 9.24635H21.5728V7.70525H23.1139V6.16415H27.7372V7.70525H29.2783V9.24635H23.1139Z" fill="#0F0E0C"/>
<path id="Vector_4" d="M35.4482 16.9524H46.2359V15.4113H47.777V4.6236H46.2359V3.0825H33.9071V16.9524H35.4482ZM38.5304 6.1647H44.6948V13.8702H36.9893V6.1647H38.5304Z" fill="#0F0E0C"/>
<path id="Vector_5" d="M50.7523 9.24617H49.2112V10.7873H50.7523V9.24617Z" fill="#0F0E0C"/>
<path id="Vector_6" d="M64.627 1.54117H67.7092V6.16447H69.2503V7.08893e-05H63.0859V1.54117H64.627Z" fill="#0F0E0C"/>
<path id="Vector_7" d="M67.7112 16.9524V18.4935H63.0879V20.0346H69.2523V13.8702H67.7112V16.9524Z" fill="#0F0E0C"/>
</g>
</svg>
