<svg preserveAspectRatio="none" width="100%" height="100%" overflow="visible" style="display: block;" viewBox="0 0 202.002 27.9365" fill="none" xmlns="http://www.w3.org/2000/svg">
<g id="Group">
<g id="Group_2">
<path id="Vector" d="M180.508 21.4898V19.3409H178.359V21.4898V23.6387H180.508H182.657V21.4898H180.508Z" fill="#FEF8E2"/>
<path id="Vector_2" d="M182.657 6.4475V4.29858H180.508H178.359V6.4475V8.59642H180.508V6.4475H182.657Z" fill="#FEF8E2"/>
<path id="Vector_3" d="M186.954 2.14892H184.805V4.29784H186.954H189.103H191.251V2.14892H189.103V0H186.954V2.14892Z" fill="#FEF8E2"/>
<path id="Vector_4" d="M191.251 23.6387H189.103H186.954H184.805V25.7876H186.954V27.9365H189.103V25.7876H191.251V23.6387Z" fill="#FEF8E2"/>
<path id="Vector_5" d="M191.252 8.59596V6.44703H189.104H186.955H184.806V8.59596H182.657V10.7449H180.508V12.8938V15.0427V17.1916H182.657V19.3406H184.806V21.4895H186.955H189.104H191.252V19.3406H193.401V17.1916H195.55V15.0427V12.8938V10.7449H193.401V8.59596H191.252Z" fill="#FEF8E2"/>
<path id="Vector_6" d="M193.398 21.4897V23.6387H195.547H197.696V21.4897V19.3408H195.547V21.4897H193.398Z" fill="#FEF8E2"/>
<path id="Vector_7" d="M195.547 6.4475V8.59642H197.696V6.4475V4.29858H195.547H193.398V6.4475H195.547Z" fill="#FEF8E2"/>
<path id="Vector_8" d="M197.703 15.0434V17.1924H199.852V15.0434H202.001V12.8945H199.852V10.7456H197.703V12.8945V15.0434Z" fill="#FEF8E2"/>
</g>
<path id="Vector_9" d="M0 4.29784V27.936H182.658V25.787H2.14892V2.14892C62.3101 2.14892 122.497 2.14892 182.658 2.14892V0C121.779 0 60.8789 0 0 0V4.29784Z" fill="#FEF8E2"/>
<path id="Vector_10" d="M12.8926 17.1921H15.0415V19.341H17.1904V23.6389H23.6372V19.341H21.4882V15.0432H23.6372V6.4475H21.4882V4.29858C15.8409 4.29858 9.94424 4.29858 4.29688 4.29858V23.6389H8.59472V17.1921H12.8926ZM10.7436 12.8943H8.59472V8.59642C12.0394 8.59642 15.8946 8.59642 19.3393 8.59642V12.8943C16.6467 12.8943 13.4362 12.8943 10.7436 12.8943Z" fill="#FEF8E2"/>
<path id="Vector_11" d="M34.3847 17.1921H40.8315V23.6389H45.1293V8.59642H42.9804V6.4475H40.8315V4.29858H30.0869V6.4475H27.938V8.59642H25.7891V23.6389H30.0869V17.1921H34.3847ZM32.2358 12.8943H30.0869V10.7453H32.2358V8.59642H38.6826V10.7453H40.8315V12.8943H32.2358Z" fill="#FEF8E2"/>
<path id="Vector_12" d="M49.4224 23.6389H64.4648V21.4899H66.6137V6.4475H64.4648V4.29858H47.2734V23.6389H49.4224ZM53.7202 8.59642H62.3159V19.341H51.5713V8.59642H53.7202Z" fill="#FEF8E2"/>
<path id="Vector_13" d="M70.9145 23.6389H83.8081V19.341H79.5102V8.59642H83.8081V6.4475H85.957V4.29858H68.7656V6.4475H70.9145V8.59642H75.2124V19.341H70.9145V21.4899H68.7656V23.6389H70.9145Z" fill="#FEF8E2"/>
<path id="Vector_14" d="M94.5488 17.1921H100.996V23.6389H105.293V8.59642H103.144V6.4475H100.996V4.29858H90.251V6.4475H88.102V8.59642H85.9531V23.6389H90.251V17.1921H94.5488ZM92.3999 12.8943H90.251V10.7453H92.3999V8.59642H98.8466V10.7453H100.996V12.8943H92.3999Z" fill="#FEF8E2"/>
<path id="Vector_15" d="M113.892 15.0432H116.041V17.1921H118.19V19.341H120.339V21.4899H122.488V23.6389H126.786V21.4899H128.935V4.29858H122.488V6.4475H124.637V15.0432H122.488V12.8943H120.339V10.7453H118.19V8.59642H116.041V6.4475H113.892V4.29858H109.594V6.4475H107.445V23.6389H113.892V21.4899H111.743V12.8943H113.892V15.0432Z" fill="#FEF8E2"/>
<path id="Vector_16" d="M139.682 23.6389H143.979V8.59642H150.426V6.4475H152.575V4.29858H131.086V8.59642H137.533V23.6389H139.682Z" fill="#FEF8E2"/>
<path id="Vector_17" d="M163.315 8.59642H171.911V6.4475H174.06V4.29858H156.869V6.4475H154.72V10.7453H156.869V12.8943H159.018V15.0432H161.166V17.1921H163.315V19.341H152.571V21.4899H150.422V23.6389H167.613V21.4899H169.762V17.1921H167.613V15.0432H165.464V12.8943H163.315V10.7453H161.166V8.59642H163.315Z" fill="#FEF8E2"/>
<path id="Vector_18" d="M178.36 10.7456V17.1924H176.211V15.0434H174.062V12.8945H176.211V10.7456H178.36Z" fill="#FEF8E2"/>
<path id="Vector_19" d="M195.555 2.14892H199.853V8.59568H202.002V0H193.406V2.14892H195.555Z" fill="#FEF8E2"/>
<path id="Vector_20" d="M199.853 23.6387V25.7876H193.406V27.9365H202.002V19.3408H199.853V23.6387Z" fill="#FEF8E2"/>
</g>
</svg>
