<svg preserveAspectRatio="none" width="100%" height="100%" overflow="visible" style="display: block;" viewBox="0 0 706.217 341.64" fill="none" xmlns="http://www.w3.org/2000/svg">
<path id="Vector 365" d="M642.631 0.204217C636.944 -0.928351 631.415 2.764 630.282 8.45132C629.15 14.1386 632.842 19.6672 638.53 20.7998L640.58 10.502L642.631 0.204217ZM640.678 10.5215L648.892 3.98024L646.498 0.974263L642.729 0.223747L640.678 10.5215ZM476.89 329.689L476.924 340.189V340.189L476.89 329.689ZM56.2701 330.887L56.1415 341.386H56.1418L56.2701 330.887ZM10.6 330.327L10.7286 319.828L10.6643 319.827H10.6V330.327ZM10.5 319.827C4.70101 319.827 0 324.528 0 330.327C0 336.126 4.70101 340.827 10.5 340.827V330.327V319.827ZM640.58 10.502L638.53 20.7998L638.628 20.8193L640.678 10.5215L642.729 0.223747L642.631 0.204217L640.58 10.502ZM640.678 10.5215L632.465 17.0629C663.004 55.4087 679.839 91.5 684.116 125.399C688.363 159.06 680.352 191.499 659.468 223.085L668.227 228.876L676.986 234.667C700.359 199.316 709.887 161.893 704.951 122.77C700.044 83.8838 680.976 44.2666 648.892 3.98024L640.678 10.5215ZM668.227 228.876L659.468 223.085C617.235 286.961 556.804 318.929 476.856 319.189L476.89 329.689L476.924 340.189C563.577 339.907 630.704 304.666 676.986 234.667L668.227 228.876ZM476.89 329.689L476.856 319.189C393.549 319.461 310.241 319.822 226.934 320.271L226.99 330.771L227.047 341.271C310.339 340.821 393.632 340.461 476.924 340.189L476.89 329.689ZM226.99 330.771L226.934 320.271C143.625 320.721 86.8062 320.759 56.3984 320.387L56.2701 330.887L56.1418 341.386C86.7608 341.76 143.756 341.721 227.047 341.271L226.99 330.771ZM56.2701 330.887L56.3987 320.387L10.7286 319.828L10.6 330.327L10.4714 340.826L56.1415 341.386L56.2701 330.887ZM10.6 330.327V319.827H10.5V330.327V340.827H10.6V330.327Z" fill="#0F0E0C"/>
</svg>
