<svg preserveAspectRatio="none" width="100%" height="100%" overflow="visible" style="display: block;" viewBox="0 0 729.026 375.998" fill="none" xmlns="http://www.w3.org/2000/svg">
<path id="Vector 364" d="M718.032 0.574906L707.042 0.0999067L707.04 0.14635L707.039 0.19281L718.032 0.574906ZM704.806 257.874L715.766 258.803L704.806 257.874ZM622.021 349.952L621.092 338.991L622.021 349.952ZM288.846 363.818L288.549 352.822L288.846 363.818ZM21.2435 358.683L18.1148 369.228L18.1277 369.232L18.1406 369.236L21.2435 358.683ZM11.1 355.673L14.2288 345.128L12.8291 344.712L11.3695 344.677L11.1 355.673ZM11.2696 344.674C5.19626 344.525 0.15221 349.328 0.00336742 355.401C-0.145475 361.475 4.65725 366.519 10.7306 366.668L11.0001 355.671L11.2696 344.674ZM718.036 0.474999L707.047 0L707.042 0.0999067L718.032 0.574906L729.022 1.0499L729.026 0.949998L718.036 0.474999ZM718.032 0.574906L707.039 0.19281C703.063 114.567 698.662 200.11 693.845 256.945L704.806 257.874L715.766 258.803C720.631 201.402 725.047 115.413 729.025 0.957002L718.032 0.574906ZM704.806 257.874L693.845 256.945C691.55 284.026 683.976 303.389 672.299 316.377C660.771 329.199 644.137 337.038 621.092 338.991L622.021 349.952L622.95 360.912C650.253 358.598 672.591 348.957 688.659 331.086C704.577 313.381 713.221 288.84 715.766 258.803L704.806 257.874ZM622.021 349.952L621.092 338.991C570.967 343.24 517.344 346.222 460.219 347.935L460.548 358.93L460.878 369.926C518.352 368.202 572.377 365.199 622.95 360.912L622.021 349.952ZM460.548 358.93L460.219 347.935C402.931 349.653 345.707 351.282 288.549 352.822L288.846 363.818L289.142 374.814C346.322 373.274 403.568 371.644 460.878 369.926L460.548 358.93ZM288.846 363.818L288.549 352.822C231.574 354.358 174.582 354.389 117.574 352.915L117.289 363.912L117.005 374.908C174.4 376.391 231.779 376.36 289.142 374.814L288.846 363.818ZM117.289 363.912L117.574 352.915C89.0102 352.177 66.8272 351.375 50.9748 350.512C43.0405 350.08 36.7823 349.638 32.145 349.19C29.8248 348.966 27.9886 348.748 26.5947 348.542C25.9008 348.439 25.3608 348.346 24.9549 348.265C24.7544 348.226 24.6028 348.192 24.494 348.167C24.3831 348.14 24.338 348.127 24.3465 348.129L21.2435 358.683L18.1406 369.236C20.9955 370.075 25.2816 370.629 30.0304 371.088C35.1041 371.578 41.7053 372.04 49.7788 372.48C65.9416 373.36 88.3671 374.168 117.005 374.908L117.289 363.912ZM21.2435 358.683L24.3723 348.137L14.2288 345.128L11.1 355.673L7.97131 366.219L18.1148 369.228L21.2435 358.683ZM11.1 355.673L11.3695 344.677L11.2696 344.674L11.0001 355.671L10.7306 366.668L10.8305 366.67L11.1 355.673Z" fill="#0F0E0C"/>
</svg>
