<svg preserveAspectRatio="none" width="100%" height="100%" overflow="visible" style="display: block;" viewBox="0 0 22.0919 721" fill="none" xmlns="http://www.w3.org/2000/svg">
<g id="Group 482108">
<path id="Vector 130" d="M12.1066 0.43934C11.5208 -0.146447 10.5711 -0.146447 9.98528 0.43934L0.43934 9.98528C-0.146447 10.5711 -0.146447 11.5208 0.43934 12.1066C1.02513 12.6924 1.97487 12.6924 2.56066 12.1066L11.0459 3.62132L19.5312 12.1066C20.117 12.6924 21.0668 12.6924 21.6525 12.1066C22.2383 11.5208 22.2383 10.5711 21.6525 9.98528L12.1066 0.43934ZM11.0459 189.5H12.5459V1.5H11.0459H9.54594V189.5H11.0459Z" fill="#FCE184"/>
<path id="Vector 131" d="M9.98528 720.561C10.5711 721.146 11.5208 721.146 12.1066 720.561L21.6525 711.015C22.2383 710.429 22.2383 709.479 21.6525 708.893C21.0668 708.308 20.117 708.308 19.5312 708.893L11.0459 717.379L2.56066 708.893C1.97487 708.308 1.02513 708.308 0.43934 708.893C-0.146447 709.479 -0.146447 710.429 0.43934 711.015L9.98528 720.561ZM11.046 521.5L9.54595 521.5L9.54594 719.5L11.0459 719.5L12.5459 719.5L12.546 521.5L11.046 521.5Z" fill="#FCE184"/>
</g>
</svg>
