<svg preserveAspectRatio="none" width="100%" height="100%" overflow="visible" style="display: block;" viewBox="0 0 521.619 200.043" fill="none" xmlns="http://www.w3.org/2000/svg">
<g id="Vector 196" filter="url(#filter0_d_0_4)">
<path d="M0.5 160.5V4.5C0.5 2.29086 2.29085 0.5 4.49999 0.5H513.119C515.328 0.5 517.119 2.29086 517.119 4.5V175.78C517.119 177.989 515.328 179.78 513.119 179.78H21.481C20.3006 179.78 19.1804 180.301 18.4204 181.204L7.56081 194.109C5.15816 196.965 0.500262 195.266 0.500234 191.534L0.5 160.5Z" fill="#FEF8E2"/>
<path d="M0.5 160.5V4.5C0.5 2.29086 2.29085 0.5 4.49999 0.5H513.119C515.328 0.5 517.119 2.29086 517.119 4.5V175.78C517.119 177.989 515.328 179.78 513.119 179.78H21.481C20.3006 179.78 19.1804 180.301 18.4204 181.204L7.56081 194.109C5.15816 196.965 0.500262 195.266 0.500234 191.534L0.5 160.5Z" stroke="#0F0E0C"/>
</g>
<defs>
<filter id="filter0_d_0_4" x="0" y="0" width="521.619" height="200.043" filterUnits="userSpaceOnUse" color-interpolation-filters="sRGB">
<feFlood flood-opacity="0" result="BackgroundImageFix"/>
<feColorMatrix in="SourceAlpha" type="matrix" values="0 0 0 0 0 0 0 0 0 0 0 0 0 0 0 0 0 0 127 0" result="hardAlpha"/>
<feOffset dx="4" dy="4"/>
<feComposite in2="hardAlpha" operator="out"/>
<feColorMatrix type="matrix" values="0 0 0 0 0 0 0 0 0 0 0 0 0 0 0 0 0 0 1 0"/>
<feBlend mode="normal" in2="BackgroundImageFix" result="effect1_dropShadow_0_4"/>
<feBlend mode="normal" in="SourceGraphic" in2="effect1_dropShadow_0_4" result="shape"/>
</filter>
</defs>
</svg>
