<svg preserveAspectRatio="none" width="100%" height="100%" overflow="visible" style="display: block;" viewBox="0 0 780.001 224.646" fill="none" xmlns="http://www.w3.org/2000/svg">
<g id="Group 1272628821">
<path id="Vector" d="M386.823 0.265625C395.739 0.265625 402.924 7.45111 402.924 16.3665V139.585C402.924 148.5 395.739 155.686 386.823 155.686H356.351C347.436 155.686 340.251 148.5 340.251 139.585V75.9796C340.251 75.5804 339.984 75.3143 339.585 75.3143C339.186 75.3143 339.186 75.3143 339.053 75.5804L291.682 148.234C288.754 152.758 283.698 155.553 278.242 155.553H244.311C231.004 155.553 223.419 140.25 231.536 129.738L326.013 6.51966C329.073 2.52771 333.73 0.265625 338.787 0.265625H386.69H386.823Z" fill="#0F0E0C"/>
<path id="Vector_2" d="M240.049 0.266146C234.594 0.266146 229.537 3.06051 226.61 7.58472L179.505 80.2382C179.505 80.3713 179.239 80.5044 178.973 80.5044C178.573 80.5044 178.307 80.2382 178.307 79.839V16.234C178.307 7.31859 171.122 0.133073 162.206 0.133073H124.416C118.96 0.133073 113.904 2.92744 110.976 7.45165L63.8712 80.1052C63.8712 80.2382 63.6051 80.3713 63.339 80.3713C62.9398 80.3713 62.6737 80.1052 62.6737 79.706V16.1009C62.6737 7.18552 55.4881 0 46.5728 0H16.1009C7.18556 0 0 7.18552 0 16.1009V139.319C0 148.234 7.18556 155.42 16.1009 155.42H63.7382C68.6616 155.42 73.4519 153.158 76.5124 149.166L109.912 105.787C111.775 103.392 115.634 104.722 115.634 107.783V139.452C115.634 148.368 122.819 155.553 131.734 155.553H179.372C184.295 155.553 189.085 153.291 192.146 149.299L286.888 26.0808C295.005 15.5686 287.421 0.266146 274.114 0.266146H239.916H240.049Z" fill="#0F0E0C"/>
<path id="Vector_3" d="M588.419 26.4792L469.858 191.347C455.487 211.307 432.866 223.549 408.382 224.48C401.463 224.746 394.277 224.613 387.092 224.613H340.519C331.603 224.613 324.418 217.428 324.418 208.512V186.557C324.418 177.641 331.603 170.456 340.519 170.456H404.789C413.705 170.456 420.89 163.27 420.89 154.355V16.4993C420.89 7.58396 428.076 0.398438 436.991 0.398438H467.862C476.778 0.398438 483.963 7.58396 483.963 16.4993V80.1044C483.963 80.5036 484.229 80.7698 484.628 80.7698C485.028 80.7698 485.028 80.7698 485.161 80.5036L532.266 7.85009C535.193 3.32588 540.383 0.531511 545.705 0.531511H576.044C589.35 0.531511 596.935 15.9671 588.685 26.4792H588.419Z" fill="#0F0E0C"/>
<path id="Vector_4" d="M776.306 26.4792L657.745 191.347C643.374 211.307 620.753 223.549 596.269 224.48C589.349 224.746 582.164 224.613 574.978 224.613H528.406C519.49 224.613 512.305 217.428 512.305 208.512V186.557C512.305 177.641 519.49 170.456 528.406 170.456H592.676C601.591 170.456 608.777 163.27 608.777 154.355V16.4993C608.777 7.58396 615.962 0.398438 624.878 0.398438H655.749C664.664 0.398438 671.85 7.58396 671.85 16.4993V80.1044C671.85 80.5036 672.116 80.7698 672.515 80.7698C672.914 80.7698 672.914 80.7698 673.047 80.5036L720.152 7.85009C723.08 3.32588 728.269 0.531511 733.592 0.531511H763.931C777.237 0.531511 784.822 15.9671 776.572 26.4792H776.306Z" fill="#0F0E0C"/>
</g>
</svg>
