<svg width="445" height="169" viewBox="0 0 445 169" fill="none" xmlns="http://www.w3.org/2000/svg">
<path d="M290.7 0.199219C297.4 0.199219 302.8 5.59919 302.8 12.2992V104.899C302.8 111.599 297.4 116.999 290.7 116.999H267.8C261.1 116.999 255.7 111.599 255.7 104.899V57.0992C255.7 56.7992 255.5 56.5992 255.2 56.5992C254.9 56.5992 254.9 56.5992 254.8 56.7992L219.2 111.399C217 114.799 213.2 116.899 209.1 116.899H183.6C173.6 116.899 167.9 105.399 174 97.4992L245 4.8992C247.3 1.8992 250.8 0.199219 254.6 0.199219H290.6H290.7Z" fill="currentColor"/>
<path d="M180.4 0.200012C176.3 0.200012 172.5 2.30001 170.3 5.70001L134.9 60.3C134.9 60.4 134.7 60.5 134.5 60.5C134.2 60.5 134 60.3 134 60V12.2C134 5.50001 128.6 0.100006 121.9 0.100006H93.5C89.4 0.100006 85.6 2.20001 83.4 5.60001L48 60.2C48 60.3 47.8 60.4 47.6 60.4C47.3 60.4 47.1 60.2 47.1 59.9V12.1C47.1 5.40001 41.7 0 35 0H12.1C5.40004 0 0 5.40001 0 12.1V104.7C0 111.4 5.40004 116.8 12.1 116.8H47.9C51.6 116.8 55.2 115.1 57.5 112.1L82.6 79.5C84 77.7 86.9 78.7 86.9 81V104.8C86.9 111.5 92.3 116.9 99 116.9H134.8C138.5 116.9 142.1 115.2 144.4 112.2L215.6 19.6C221.7 11.7 216 0.200012 206 0.200012H180.3H180.4Z" fill="currentColor"/>
<path d="M442.201 19.9008L353.101 143.801C342.301 158.801 325.301 168.001 306.901 168.701C301.701 168.901 296.301 168.801 290.901 168.801H255.901C249.201 168.801 243.801 163.401 243.801 156.701V140.201C243.801 133.501 249.201 128.101 255.901 128.101H304.201C310.901 128.101 316.301 122.701 316.301 116.001V12.4008C316.301 5.70079 321.701 0.300781 328.401 0.300781H351.601C358.301 0.300781 363.701 5.70079 363.701 12.4008V60.2008C363.701 60.5008 363.901 60.7008 364.201 60.7008C364.501 60.7008 364.501 60.7008 364.601 60.5008L400.001 5.90079C402.201 2.50079 406.101 0.400787 410.101 0.400787H432.901C442.901 0.400787 448.601 12.0008 442.401 19.9008H442.201Z" fill="currentColor"/>
</svg>
