<svg xmlns="http://www.w3.org/2000/svg" viewBox="0 0 16 16" width="16" height="16" shape-rendering="crispEdges">
  <rect x="0" y="0" width="5" height="12" fill="#95bad2"/>
  <g fill="#fce184">
    <rect x="5" y="4" width="1" height="4"/>
    <rect x="5" y="8" width="2" height="1"/>
    <rect x="5" y="0" width="6" height="4"/>
    <rect x="5" y="9" width="6" height="3"/>
    <rect x="7" y="6" width="1" height="1"/>
    <rect x="8" y="5" width="1" height="1"/>
    <rect x="9" y="8" width="2" height="1"/>
    <rect x="10" y="4" width="1" height="4"/>
  </g>
  <g fill="#ff7f7f">
    <rect x="6" y="6" width="1" height="1"/>
    <rect x="6" y="5" width="2" height="1"/>
    <rect x="6" y="4" width="4" height="1"/>
    <rect x="6" y="7" width="4" height="1"/>
    <rect x="7" y="8" width="2" height="1"/>
    <rect x="8" y="6" width="2" height="1"/>
    <rect x="9" y="5" width="1" height="1"/>
    <rect x="11" y="0" width="5" height="12"/>
  </g>
</svg>
