<svg xmlns="http://www.w3.org/2000/svg" viewBox="0 0 16 18" width="16" height="18" shape-rendering="crispEdges">
  <g fill="#0f0e0c">
    <rect x="1" y="7" width="1" height="6"/>
    <rect x="2" y="5" width="1" height="2"/>
    <rect x="2" y="13" width="1" height="2"/>
    <rect x="3" y="4" width="1" height="1"/>
    <rect x="3" y="7" width="1" height="1"/>
    <rect x="3" y="9" width="1" height="1"/>
    <rect x="3" y="15" width="1" height="1"/>
    <rect x="4" y="3" width="2" height="1"/>
    <rect x="4" y="6" width="3" height="1"/>
    <rect x="4" y="8" width="3" height="1"/>
    <rect x="6" y="2" width="6" height="1"/>
    <rect x="7" y="9" width="1" height="1"/>
    <rect x="7" y="13" width="4" height="2"/>
    <rect x="7" y="17" width="4" height="1"/>
    <rect x="8" y="15" width="2" height="1"/>
    <rect x="10" y="9" width="1" height="1"/>
    <rect x="11" y="6" width="3" height="1"/>
    <rect x="11" y="8" width="3" height="1"/>
    <rect x="12" y="3" width="2" height="1"/>
    <rect x="14" y="4" width="1" height="1"/>
    <rect x="14" y="7" width="1" height="1"/>
    <rect x="14" y="9" width="1" height="1"/>
    <rect x="14" y="15" width="1" height="1"/>
    <rect x="15" y="5" width="1" height="2"/>
    <rect x="15" y="13" width="1" height="2"/>
  </g>
  <g fill="#95bad2">
    <rect x="4" y="9" width="3" height="8"/>
    <rect x="6" y="17" width="1" height="1"/>
    <rect x="11" y="17" width="1" height="1"/>
    <rect x="11" y="9" width="3" height="8"/>
  </g>
  <g fill="#fce184">
    <rect x="2" y="7" width="1" height="1"/>
    <rect x="2" y="9" width="1" height="1"/>
    <rect x="2" y="8" width="2" height="1"/>
    <rect x="2" y="10" width="2" height="3"/>
    <rect x="3" y="6" width="1" height="1"/>
    <rect x="3" y="13" width="1" height="2"/>
    <rect x="3" y="5" width="12" height="1"/>
    <rect x="4" y="4" width="10" height="1"/>
    <rect x="4" y="7" width="10" height="1"/>
    <rect x="6" y="3" width="6" height="1"/>
    <rect x="7" y="15" width="1" height="1"/>
    <rect x="7" y="6" width="4" height="1"/>
    <rect x="7" y="8" width="4" height="1"/>
    <rect x="7" y="10" width="4" height="2"/>
    <rect x="7" y="16" width="4" height="1"/>
    <rect x="8" y="9" width="2" height="1"/>
    <rect x="10" y="15" width="1" height="1"/>
    <rect x="14" y="6" width="1" height="1"/>
    <rect x="14" y="13" width="1" height="2"/>
    <rect x="14" y="8" width="2" height="1"/>
    <rect x="14" y="10" width="2" height="3"/>
    <rect x="15" y="7" width="1" height="1"/>
    <rect x="15" y="9" width="1" height="1"/>
  </g>
  <rect x="7" y="12" width="4" height="1" fill="#ffffff"/>
</svg>
