<svg width="16" height="16" viewBox="0 0 16 16" fill="none" xmlns="http://www.w3.org/2000/svg">
<path d="M2 9H3V10H2V9ZM2 10H3V11H2V10ZM3 8H4V9H3V8ZM3 10H4V11H3V10ZM4 7H5V8H4V7ZM4 8H5V9H4V8ZM4 10H5V11H4V10ZM4 13H5V14H4V13ZM5 7H6V8H5V7ZM5 10H6V11H5V10ZM5 13H6V14H5V13ZM6 3H7V4H6V3ZM6 4H7V5H6V4ZM6 5H7V6H6V5ZM6 6H7V7H6V6ZM6 7H7V8H6V7ZM6 10H7V11H6V10ZM6 11H7V12H6V11ZM6 12H7V13H6V12ZM6 13H7V14H6V13ZM7 2H8V3H7V2ZM7 13H8V14H7V13ZM8 3H9V4H8V3ZM8 4H9V5H8V4ZM8 5H9V6H8V5ZM8 6H9V7H8V6ZM8 7H9V8H8V7ZM8 10H9V11H8V10ZM8 11H9V12H8V11ZM8 12H9V13H8V12ZM8 13H9V14H8V13ZM9 7H10V8H9V7ZM9 10H10V11H9V10ZM9 13H10V14H9V13ZM10 7H11V8H10V7ZM10 8H11V9H10V8ZM10 10H11V11H10V10ZM10 13H11V14H10V13ZM11 8H12V9H11V8ZM11 10H12V11H11V10ZM12 9H13V10H12V9ZM12 10H13V11H12V10Z" fill="black"/>
</svg>
