<svg width="16" height="16" viewBox="0 0 16 16" fill="none" xmlns="http://www.w3.org/2000/svg">
<path d="M4 8H5V9H4V8ZM5 7H6V8H5V7ZM5 8H6V9H5V8ZM5 12H6V13H5V12ZM5 13H6V14H5V13ZM6 6H7V7H6V6ZM6 7H7V8H6V7ZM6 8H7V9H6V8ZM6 10H7V11H6V10ZM6 11H7V12H6V11ZM6 12H7V13H6V12ZM7 5H8V6H7V5ZM7 6H8V7H7V6ZM7 7H8V8H7V7ZM7 8H8V9H7V8ZM7 9H8V10H7V9ZM7 10H8V11H7V10ZM7 11H8V12H7V11ZM8 4H9V5H8V4ZM8 5H9V6H8V5ZM8 6H9V7H8V6ZM8 7H9V8H8V7ZM8 8H9V9H8V8ZM8 9H9V10H8V9ZM8 10H9V11H8V10ZM9 3H10V4H9V3ZM9 4H10V5H9V4ZM9 5H10V6H9V5ZM9 7H10V8H9V7ZM9 8H10V9H9V8ZM9 9H10V10H9V9ZM10 2H11V3H10V2ZM10 3H11V4H10V3ZM10 7H11V8H10V7ZM10 8H11V9H10V8ZM11 7H12V8H11V7Z" fill="black"/>
</svg>
