<svg width="16" height="16" viewBox="0 0 16 16" fill="none" xmlns="http://www.w3.org/2000/svg">
<path d="M2 2H3V3H2V2ZM3 2H4V3H3V2ZM4 2H5V3H4V2ZM5 2H6V3H5V2ZM6 3H7V4H6V3ZM7 3H8V4H7V3ZM7 10H8V11H7V10ZM8 4H9V5H8V4ZM8 10H9V11H8V10ZM8 11H9V12H8V11ZM9 5H10V6H9V5ZM9 6H10V7H9V6ZM9 10H10V11H9V10ZM9 11H10V12H9V11ZM9 12H10V13H9V12ZM10 7H11V8H10V7ZM10 8H11V9H10V8ZM10 9H11V10H10V9ZM10 10H11V11H10V10ZM10 11H11V12H10V11ZM10 12H11V13H10V12ZM10 13H11V14H10V13ZM11 10H12V11H11V10ZM11 11H12V12H11V11ZM11 12H12V13H11V12ZM12 10H13V11H12V10ZM12 11H13V12H12V11ZM13 10H14V11H13V10Z" fill="black"/>
</svg>
