<svg width="16" height="16" viewBox="0 0 16 16" fill="none" xmlns="http://www.w3.org/2000/svg">
<path d="M2 2H3V3H2V2ZM2 13H3V14H2V13ZM3 2H4V3H3V2ZM3 8H4V9H3V8ZM3 13H4V14H3V13ZM4 2H5V3H4V2ZM4 7H5V8H4V7ZM4 8H5V9H4V8ZM4 9H5V10H4V9ZM4 13H5V14H4V13ZM5 2H6V3H5V2ZM5 6H6V7H5V6ZM5 7H6V8H5V7ZM5 8H6V9H5V8ZM5 9H6V10H5V9ZM5 10H6V11H5V10ZM5 13H6V14H5V13ZM6 2H7V3H6V2ZM6 5H7V6H6V5ZM6 6H7V7H6V6ZM6 7H7V8H6V7ZM6 8H7V9H6V8ZM6 9H7V10H6V9ZM6 10H7V11H6V10ZM6 11H7V12H6V11ZM6 13H7V14H6V13ZM7 2H8V3H7V2ZM7 7H8V8H7V7ZM7 8H8V9H7V8ZM7 9H8V10H7V9ZM7 13H8V14H7V13ZM8 2H9V3H8V2ZM8 7H9V8H8V7ZM8 8H9V9H8V8ZM8 9H9V10H8V9ZM8 13H9V14H8V13ZM9 2H10V3H9V2ZM9 7H10V8H9V7ZM9 8H10V9H9V8ZM9 9H10V10H9V9ZM9 13H10V14H9V13ZM10 2H11V3H10V2ZM10 4H11V5H10V4ZM10 5H11V6H10V5ZM10 6H11V7H10V6ZM10 7H11V8H10V7ZM10 8H11V9H10V8ZM10 9H11V10H10V9ZM10 13H11V14H10V13ZM11 2H12V3H11V2ZM11 4H12V5H11V4ZM11 5H12V6H11V5ZM11 6H12V7H11V6ZM11 7H12V8H11V7ZM11 8H12V9H11V8ZM11 9H12V10H11V9ZM11 13H12V14H11V13ZM12 2H13V3H12V2ZM12 13H13V14H12V13ZM13 2H14V3H13V2ZM13 13H14V14H13V13Z" fill="black"/>
</svg>
