<svg width="16" height="16" viewBox="0 0 16 16" fill="none" xmlns="http://www.w3.org/2000/svg">
<path d="M2 3H3V4H2V3ZM2 6H3V7H2V6ZM2 7H3V8H2V7ZM2 8H3V9H2V8ZM2 9H3V10H2V9ZM2 10H3V11H2V10ZM2 11H3V12H2V11ZM2 13H3V14H2V13ZM3 3H4V4H3V3ZM3 5H4V6H3V5ZM3 9H4V10H3V9ZM3 13H4V14H3V13ZM4 2H5V3H4V2ZM4 3H5V4H4V3ZM4 6H5V7H4V6ZM4 7H5V8H4V7ZM4 8H5V9H4V8ZM4 9H5V10H4V9ZM4 10H5V11H4V10ZM4 11H5V12H4V11ZM4 13H5V14H4V13ZM5 2H6V3H5V2ZM5 3H6V4H5V3ZM5 13H6V14H5V13ZM6 2H7V3H6V2ZM6 3H7V4H6V3ZM6 5H7V6H6V5ZM6 13H7V14H6V13ZM7 2H8V3H7V2ZM7 3H8V4H7V3ZM7 5H8V6H7V5ZM7 6H8V7H7V6ZM7 7H8V8H7V7ZM7 8H8V9H7V8ZM7 9H8V10H7V9ZM7 10H8V11H7V10ZM7 11H8V12H7V11ZM7 13H8V14H7V13ZM8 2H9V3H8V2ZM8 3H9V4H8V3ZM8 5H9V6H8V5ZM8 13H9V14H8V13ZM9 2H10V3H9V2ZM9 3H10V4H9V3ZM9 13H10V14H9V13ZM10 2H11V3H10V2ZM10 3H11V4H10V3ZM10 5H11V6H10V5ZM10 6H11V7H10V6ZM10 7H11V8H10V7ZM10 8H11V9H10V8ZM10 9H11V10H10V9ZM10 10H11V11H10V10ZM10 11H11V12H10V11ZM10 13H11V14H10V13ZM11 2H12V3H11V2ZM11 3H12V4H11V3ZM11 6H12V7H11V6ZM11 7H12V8H11V7ZM11 13H12V14H11V13ZM12 3H13V4H12V3ZM12 6H13V7H12V6ZM12 7H13V8H12V7ZM12 13H13V14H12V13ZM13 3H14V4H13V3ZM13 5H14V6H13V5ZM13 6H14V7H13V6ZM13 7H14V8H13V7ZM13 8H14V9H13V8ZM13 9H14V10H13V9ZM13 10H14V11H13V10ZM13 11H14V12H13V11ZM13 13H14V14H13V13Z" fill="black"/>
</svg>
