<svg width="16" height="16" viewBox="0 0 16 16" fill="none" xmlns="http://www.w3.org/2000/svg">
<path d="M3 8H4V9H3V8ZM4 8H5V9H4V8ZM4 9H5V10H4V9ZM4 10H5V11H4V10ZM4 11H5V12H4V11ZM5 3H6V4H5V3ZM5 4H6V5H5V4ZM5 5H6V6H5V5ZM5 8H6V9H5V8ZM5 10H6V11H5V10ZM5 12H6V13H5V12ZM5 13H6V14H5V13ZM6 2H7V3H6V2ZM6 6H7V7H6V6ZM6 8H7V9H6V8ZM6 9H7V10H6V9ZM6 11H7V12H6V11ZM7 2H8V3H7V2ZM7 6H8V7H7V6ZM7 8H8V9H7V8ZM7 10H8V11H7V10ZM7 12H8V13H7V12ZM7 13H8V14H7V13ZM8 2H9V3H8V2ZM8 6H9V7H8V6ZM8 8H9V9H8V8ZM8 9H9V10H8V9ZM8 11H9V12H8V11ZM9 3H10V4H9V3ZM9 4H10V5H9V4ZM9 5H10V6H9V5ZM9 8H10V9H9V8ZM9 10H10V11H9V10ZM9 12H10V13H9V12ZM9 13H10V14H9V13ZM10 8H11V9H10V8ZM10 9H11V10H10V9ZM10 10H11V11H10V10ZM10 11H11V12H10V11ZM11 8H12V9H11V8Z" fill="black"/>
</svg>
