<svg width="16" height="16" viewBox="0 0 16 16" fill="none" xmlns="http://www.w3.org/2000/svg">
<path d="M3 3H4V4H3V3ZM3 4H4V5H3V4ZM3 5H4V6H3V5ZM3 6H4V7H3V6ZM3 7H4V8H3V7ZM3 8H4V9H3V8ZM3 9H4V10H3V9ZM3 10H4V11H3V10ZM3 11H4V12H3V11ZM3 12H4V13H3V12ZM4 2H5V3H4V2ZM4 6H5V7H4V6ZM4 7H5V8H4V7ZM4 9H5V10H4V9ZM4 12H5V13H4V12ZM4 13H5V14H4V13ZM5 2H6V3H5V2ZM5 6H6V7H5V6ZM5 7H6V8H5V7ZM5 8H6V9H5V8ZM5 9H6V10H5V9ZM5 13H6V14H5V13ZM6 2H7V3H6V2ZM6 6H7V7H6V6ZM6 7H7V8H6V7ZM6 8H7V9H6V8ZM6 9H7V10H6V9ZM6 10H7V11H6V10ZM6 11H7V12H6V11ZM6 13H7V14H6V13ZM7 2H8V3H7V2ZM7 6H8V7H7V6ZM7 7H8V8H7V7ZM7 8H8V9H7V8ZM7 9H8V10H7V9ZM7 10H8V11H7V10ZM7 11H8V12H7V11ZM7 13H8V14H7V13ZM8 2H9V3H8V2ZM8 6H9V7H8V6ZM8 7H9V8H8V7ZM8 8H9V9H8V8ZM8 9H9V10H8V9ZM8 10H9V11H8V10ZM8 11H9V12H8V11ZM8 12H9V13H8V12ZM8 13H9V14H8V13ZM9 3H10V4H9V3ZM9 4H10V5H9V4ZM9 5H10V6H9V5ZM9 6H10V7H9V6ZM9 7H10V8H9V7ZM9 8H10V9H9V8ZM9 9H10V10H9V9ZM9 10H10V11H9V10ZM9 11H10V12H9V11ZM9 12H10V13H9V12ZM10 5H11V6H10V5ZM10 10H11V11H10V10ZM11 5H12V6H11V5ZM11 9H12V10H11V9ZM12 5H13V6H12V5ZM12 6H13V7H12V6ZM12 7H13V8H12V7ZM12 8H13V9H12V8Z" fill="black"/>
</svg>
