<svg width="16" height="16" viewBox="0 0 16 16" fill="none" xmlns="http://www.w3.org/2000/svg">
<path d="M3 2H4V3H3V2ZM3 3H4V4H3V3ZM3 4H4V5H3V4ZM3 5H4V6H3V5ZM3 6H4V7H3V6ZM3 7H4V8H3V7ZM3 8H4V9H3V8ZM3 9H4V10H3V9ZM3 10H4V11H3V10ZM3 11H4V12H3V11ZM3 12H4V13H3V12ZM3 13H4V14H3V13ZM4 2H5V3H4V2ZM4 13H5V14H4V13ZM5 2H6V3H5V2ZM5 4H6V5H5V4ZM5 6H6V7H5V6ZM5 8H6V9H5V8ZM5 10H6V11H5V10ZM5 11H6V12H5V11ZM5 12H6V13H5V12ZM5 13H6V14H5V13ZM6 2H7V3H6V2ZM6 13H7V14H6V13ZM7 2H8V3H7V2ZM7 4H8V5H7V4ZM7 6H8V7H7V6ZM7 8H8V9H7V8ZM7 10H8V11H7V10ZM7 11H8V12H7V11ZM7 12H8V13H7V12ZM7 13H8V14H7V13ZM8 2H9V3H8V2ZM8 13H9V14H8V13ZM9 2H10V3H9V2ZM9 4H10V5H9V4ZM9 6H10V7H9V6ZM9 8H10V9H9V8ZM9 10H10V11H9V10ZM9 11H10V12H9V11ZM9 12H10V13H9V12ZM9 13H10V14H9V13ZM10 2H11V3H10V2ZM10 13H11V14H10V13ZM11 2H12V3H11V2ZM11 3H12V4H11V3ZM11 4H12V5H11V4ZM11 5H12V6H11V5ZM11 6H12V7H11V6ZM11 7H12V8H11V7ZM11 8H12V9H11V8ZM11 9H12V10H11V9ZM11 10H12V11H11V10ZM11 11H12V12H11V11ZM11 12H12V13H11V12ZM11 13H12V14H11V13Z" fill="black"/>
</svg>
