<svg width="16" height="16" viewBox="0 0 16 16" fill="none" xmlns="http://www.w3.org/2000/svg">
<path d="M3 3H4V4H3V3ZM3 4H4V5H3V4ZM3 5H4V6H3V5ZM3 6H4V7H3V6ZM3 7H4V9H3V7ZM3 9H4V10H3V9ZM3 10H4V11H3V10ZM3 11H4V12H3V11ZM4 2H5V3H4V2ZM4 3H5V4H4V3ZM4 4H5V5H4V4ZM4 7H5V9H4V7ZM4 10H5V11H4V10ZM4 11H5V12H4V11ZM4 12H5V13H4V12ZM4 13H5V14H4V13ZM5 2H6V3H5V2ZM5 4H6V5H5V4ZM5 7H6V9H5V7ZM5 9H6V10H5V9ZM5 10H6V11H5V10ZM5 11H6V12H5V11ZM6 2H7V3H6V2ZM6 4H7V5H6V4ZM6 7H7V9H6V7ZM6 9H7V10H6V9ZM6 10H7V11H6V10ZM6 11H7V12H6V11ZM7 2H9V3H7V2ZM7 4H9V5H7V4ZM7 7H9V9H7V7ZM7 9H9V10H7V9ZM7 10H9V11H7V10ZM7 11H9V12H7V11ZM9 2H10V3H9V2ZM9 4H10V5H9V4ZM9 7H10V9H9V7ZM9 9H10V10H9V9ZM9 10H10V11H9V10ZM9 11H10V12H9V11ZM10 2H11V3H10V2ZM10 3H11V4H10V3ZM10 4H11V5H10V4ZM10 7H11V9H10V7ZM10 10H11V11H10V10ZM10 11H11V12H10V11ZM10 12H11V13H10V12ZM10 13H11V14H10V13ZM11 3H12V4H11V3ZM11 4H12V5H11V4ZM11 5H12V6H11V5ZM11 6H12V7H11V6ZM11 7H12V9H11V7ZM11 9H12V10H11V9ZM11 10H12V11H11V10ZM11 11H12V12H11V11Z" fill="black"/>
</svg>
