<svg width="16" height="16" viewBox="0 0 16 16" fill="none" xmlns="http://www.w3.org/2000/svg">
<path d="M2 2H3V3H2V2ZM2 3H3V4H2V3ZM2 4H3V5H2V4ZM2 5H3V6H2V5ZM2 6H3V7H2V6ZM2 7H3V8H2V7ZM2 8H3V9H2V8ZM2 9H3V10H2V9ZM2 10H3V11H2V10ZM3 2H4V3H3V2ZM3 3H4V4H3V3ZM3 4H4V5H3V4ZM3 5H4V6H3V5ZM3 6H4V7H3V6ZM3 7H4V8H3V7ZM3 8H4V9H3V8ZM3 11H4V12H3V11ZM4 2H5V3H4V2ZM4 3H5V4H4V3ZM4 4H5V5H4V4ZM4 5H5V6H4V5ZM4 6H5V7H4V6ZM4 7H5V8H4V7ZM4 8H5V9H4V8ZM4 11H5V12H4V11ZM5 3H6V4H5V3ZM5 4H6V5H5V4ZM5 5H6V6H5V5ZM5 6H6V7H5V6ZM5 7H6V8H5V7ZM5 8H6V9H5V8ZM5 12H6V13H5V12ZM6 4H7V5H6V4ZM6 5H7V6H6V5ZM6 6H7V7H6V6ZM6 7H7V8H6V7ZM6 8H7V9H6V8ZM6 9H7V10H6V9ZM6 13H7V14H6V13ZM7 5H8V6H7V5ZM7 6H8V7H7V6ZM7 7H8V8H7V7ZM7 8H8V9H7V8ZM7 9H8V10H7V9ZM7 10H8V11H7V10ZM7 11H8V12H7V11ZM7 13H8V14H7V13ZM8 4H9V5H8V4ZM8 10H9V11H8V10ZM8 13H9V14H8V13ZM9 3H10V4H9V3ZM9 9H10V10H9V9ZM9 12H10V13H9V12ZM10 2H11V3H10V2ZM10 8H11V9H10V8ZM10 11H11V12H10V11ZM11 2H12V3H11V2ZM11 8H12V9H11V8ZM11 11H12V12H11V11ZM12 2H13V3H12V2ZM12 3H13V4H12V3ZM12 4H13V5H12V4ZM12 5H13V6H12V5ZM12 6H13V7H12V6ZM12 7H13V8H12V7ZM12 8H13V9H12V8ZM12 9H13V10H12V9ZM12 10H13V11H12V10Z" fill="black"/>
</svg>
