<svg width="16" height="16" viewBox="0 0 16 16" fill="none" xmlns="http://www.w3.org/2000/svg">
<g id="calendar2 1">
<path id="Vector" d="M2 2H14V14H2V2ZM3 3V5H13V3H3ZM3 6V7H4V6H3ZM3 8V9H4V8H3ZM3 10V11H4V10H3ZM3 12V13H4V12H3ZM5 6V7H6V6H5ZM5 8V9H6V8H5ZM5 10V11H6V10H5ZM5 12V13H6V12H5ZM7 6V7H8V6H7ZM7 8V9H8V8H7ZM7 10V11H8V10H7ZM7 12V13H8V12H7ZM9 6V7H10V6H9ZM9 8V9H10V8H9ZM9 10V11H10V10H9ZM9 12V13H10V12H9ZM11 6V7H12V6H11ZM11 8V9H12V8H11ZM11 10V11H12V10H11ZM11 12V13H12V12H11Z" fill="black"/>
</g>
</svg>
