<svg width="16" height="16" viewBox="0 0 16 16" fill="none" xmlns="http://www.w3.org/2000/svg">
<path d="M2 13H3V14H2V13ZM3 12H4V13H3V12ZM4 7H5V8H4V7ZM4 8H5V9H4V8ZM4 9H5V10H4V9ZM4 10H5V11H4V10ZM4 11H5V12H4V11ZM5 8H6V9H5V8ZM6 9H7V10H6V9ZM6 10H7V11H6V10ZM6 11H7V12H6V11ZM7 7H8V8H7V7ZM8 2H9V3H8V2ZM8 3H9V4H8V3ZM8 4H9V5H8V4ZM8 5H9V6H8V5ZM8 6H9V7H8V6ZM9 3H10V4H9V3ZM9 13H10V14H9V13ZM10 4H11V5H10V4ZM10 5H11V6H10V5ZM10 12H11V13H10V12ZM11 8H12V9H11V8ZM11 9H12V10H11V9ZM11 10H12V11H11V10ZM11 11H12V12H11V11ZM12 9H13V10H12V9ZM13 10H14V11H13V10ZM13 11H14V12H13V11Z" fill="black"/>
</svg>
