<svg width="18" height="16" viewBox="0 0 18 16" fill="none" xmlns="http://www.w3.org/2000/svg">
<path d="M0 5H2V6H0V5ZM0 6H2V8H0V6ZM0 8H2V10H0V8ZM0 10H2V11H0V10ZM0 11H2V12H0V11ZM2 4H3V5H2V4ZM2 11H3V12H2V11ZM3 2H4V4H3V2ZM3 6H4V8H3V6ZM3 8H4V10H3V8ZM3 10H4V11H3V10ZM4 2H6V4H4V2ZM4 11H6V12H4V11ZM6 2H7V4H6V2ZM6 8H7V10H6V8ZM6 10H7V11H6V10ZM6 11H7V12H6V11ZM6 12H7V14H6V12ZM7 2H9V4H7V2ZM7 5H9V6H7V5ZM7 6H9V8H7V6ZM7 8H9V10H7V8ZM7 12H9V14H7V12ZM9 2H11V4H9V2ZM9 8H11V10H9V8ZM9 12H11V14H9V12ZM11 2H12V4H11V2ZM11 8H12V10H11V8ZM11 12H12V14H11V12ZM12 2H14V4H12V2ZM12 5H14V6H12V5ZM12 6H14V8H12V6ZM12 8H14V10H12V8ZM12 12H14V14H12V12ZM14 2H15V4H14V2ZM14 8H15V10H14V8ZM14 12H15V14H14V12ZM15 2H16V4H15V2ZM15 8H16V10H15V8ZM15 12H16V14H15V12ZM16 4H18V5H16V4ZM16 5H18V6H16V5ZM16 6H18V8H16V6ZM16 10H18V11H16V10ZM16 11H18V12H16V11Z" fill="black"/>
</svg>
