<svg width="21" height="16" viewBox="0 0 21 16" fill="none" xmlns="http://www.w3.org/2000/svg">
<path d="M0 9H2V11H0V9ZM0 11H2V12H0V11ZM2 7H3V9H2V7ZM2 9H3V11H2V9ZM2 11H3V12H2V11ZM3 7H5V9H3V7ZM3 9H5V11H3V9ZM3 11H5V12H3V11ZM3 12H5V14H3V12ZM5 5H7V7H5V5ZM5 7H7V9H5V7ZM5 9H7V11H5V9ZM5 11H7V12H5V11ZM5 12H7V14H5V12ZM7 4H9V5H7V4ZM7 7H9V9H7V7ZM7 9H9V11H7V9ZM7 11H9V12H7V11ZM9 2H10V4H9V2ZM9 7H10V9H9V7ZM9 9H10V11H9V9ZM9 11H10V12H9V11ZM10 2H12V4H10V2ZM10 7H12V9H10V7ZM10 9H12V11H10V9ZM10 11H12V12H10V11ZM12 2H14V4H12V2ZM12 4H14V5H12V4ZM12 5H14V7H12V5ZM12 7H14V9H12V7ZM12 9H14V11H12V9ZM12 11H14V12H12V11ZM14 2H16V4H14V2ZM14 7H16V9H14V7ZM14 9H16V11H14V9ZM14 11H16V12H14V11ZM14 12H16V14H14V12ZM16 2H18V4H16V2ZM16 7H18V9H16V7ZM16 9H18V11H16V9ZM16 11H18V12H16V11ZM16 12H18V14H16V12ZM18 4H19V5H18V4ZM18 5H19V7H18V5ZM18 7H19V9H18V7ZM18 9H19V11H18V9ZM18 11H19V12H18V11ZM19 5H21V7H19V5ZM19 7H21V9H19V7ZM19 9H21V11H19V9Z" fill="black"/>
</svg>
