<svg width="16" height="16" viewBox="0 0 16 16" fill="none" xmlns="http://www.w3.org/2000/svg">
<path d="M1 2H2V3H1V2ZM1 3H2V4H1V3ZM1 4H2V5H1V4ZM1 5H2V6H1V5ZM1 10H2V11H1V10ZM2 3H3V4H2V3ZM2 10H3V11H2V10ZM3 4H4V5H3V4ZM3 10H4V11H3V10ZM3 12H4V13H3V12ZM4 7H5V9H4V7ZM4 10H5V11H4V10ZM4 13H5V14H4V13ZM5 4H6V5H5V4ZM5 13H6V14H5V13ZM6 4H7V5H6V4ZM6 12H7V13H6V12ZM7 4H9V5H7V4ZM7 12H9V13H7V12ZM9 4H10V5H9V4ZM9 13H10V14H9V13ZM10 7H11V9H10V7ZM10 10H11V11H10V10ZM10 13H11V14H10V13ZM11 4H12V5H11V4ZM11 10H12V11H11V10ZM11 12H12V13H11V12ZM12 3H13V4H12V3ZM12 10H13V11H12V10ZM13 2H14V3H13V2ZM13 3H14V4H13V3ZM13 4H14V5H13V4ZM13 5H14V6H13V5ZM13 10H14V11H13V10Z" fill="black"/>
</svg>
