<svg width="16" height="16" viewBox="0 0 16 16" fill="none" xmlns="http://www.w3.org/2000/svg">
<path d="M4 4H5V5H4V4ZM4 5H5V6H4V5ZM4 6H5V7H4V6ZM4 7H5V8H4V7ZM5 3H6V4H5V3ZM5 4H6V5H5V4ZM5 7H6V8H5V7ZM5 8H6V9H5V8ZM5 10H6V11H5V10ZM5 11H6V12H5V11ZM5 12H6V13H5V12ZM6 2H7V3H6V2ZM6 3H7V4H6V3ZM6 9H7V10H6V9ZM6 10H7V11H6V10ZM6 11H7V12H6V11ZM6 12H7V13H6V12ZM6 13H7V14H6V13ZM7 2H8V3H7V2ZM7 9H8V10H7V9ZM7 10H8V11H7V10ZM7 11H8V12H7V11ZM7 12H8V13H7V12ZM7 13H8V14H7V13ZM8 2H9V3H8V2ZM8 10H9V11H8V10ZM8 11H9V12H8V11ZM8 12H9V13H8V12ZM9 2H10V3H9V2ZM9 8H10V9H9V8ZM10 3H11V4H10V3ZM10 7H11V8H10V7ZM10 8H11V9H10V8ZM10 9H11V10H10V9ZM10 10H11V11H10V10ZM10 11H11V12H10V11ZM11 4H12V5H11V4ZM11 5H12V6H11V5ZM11 6H12V7H11V6ZM11 8H12V9H11V8ZM11 9H12V10H11V9ZM11 10H12V11H11V10Z" fill="black"/>
</svg>
