<svg width="16" height="16" viewBox="0 0 16 16" fill="none" xmlns="http://www.w3.org/2000/svg">
<path d="M5 2H3V1H5V2ZM7 1H6V0H7V1ZM11 1H10V0H11V1ZM14 2H13V0H14V2ZM3 4H2V2H3V4ZM6 4H5V2H6V4ZM8 5H7V1H8V5ZM10 5H9V1H10V5ZM13 3H11V2H13V3ZM16 3H14V2H16V3ZM5 5H3V4H5V5ZM14 5H13V3H14V5ZM2 6H1V5H2V6ZM7 6H6V5H7V6ZM11 6H10V5H11V6ZM14 16H3V15H2V14H1V11V10H2V9H3V8H4V7H5V6H6V7H11V6H12V7H13V8H14V9H15V10H16V11V14H15V15H14V16ZM1 7H0V6H1V7ZM3 7H2V6H3V7ZM2 8H1V7H2V8ZM6 14H8V13H6V10H8V9H6V10H5V13H6V14ZM10 14H12V13H10V12H11V11H10V10H12V9H10V10H9V13H10V14Z" fill="black"/>
</svg>
