<svg width="16" height="16" viewBox="0 0 16 16" fill="none" xmlns="http://www.w3.org/2000/svg">
<path d="M3 4H4V5H3V4ZM3 5H4V6H3V5ZM3 6H4V7H3V6ZM3 7H4V8H3V7ZM3 8H4V9H3V8ZM3 9H4V10H3V9ZM3 10H4V11H3V10ZM3 11H4V12H3V11ZM3 12H4V13H3V12ZM3 13H4V14H3V13ZM4 4H5V5H4V4ZM4 13H5V14H4V13ZM5 3H6V4H5V3ZM5 4H6V5H5V4ZM5 6H6V7H5V6ZM5 8H6V9H5V8ZM5 13H6V14H5V13ZM6 3H7V4H6V3ZM6 4H7V5H6V4ZM6 6H7V7H6V6ZM6 8H7V9H6V8ZM6 13H7V14H6V13ZM7 2H8V3H7V2ZM7 3H8V4H7V3ZM7 4H8V5H7V4ZM7 6H8V7H7V6ZM7 8H8V9H7V8ZM7 9H8V10H7V9ZM7 10H8V11H7V10ZM7 11H8V12H7V11ZM7 13H8V14H7V13ZM8 2H9V3H8V2ZM8 3H9V4H8V3ZM8 4H9V5H8V4ZM8 6H9V7H8V6ZM8 8H9V9H8V8ZM8 9H9V10H8V9ZM8 10H9V11H8V10ZM8 11H9V12H8V11ZM8 13H9V14H8V13ZM9 3H10V4H9V3ZM9 4H10V5H9V4ZM9 6H10V7H9V6ZM9 8H10V9H9V8ZM9 13H10V14H9V13ZM10 3H11V4H10V3ZM10 4H11V5H10V4ZM10 6H11V7H10V6ZM10 8H11V9H10V8ZM10 13H11V14H10V13ZM11 4H12V5H11V4ZM11 13H12V14H11V13ZM12 4H13V5H12V4ZM12 5H13V6H12V5ZM12 6H13V7H12V6ZM12 7H13V8H12V7ZM12 8H13V9H12V8ZM12 9H13V10H12V9ZM12 10H13V11H12V10ZM12 11H13V12H12V11ZM12 12H13V13H12V12ZM12 13H13V14H12V13Z" fill="black"/>
</svg>
