<svg width="24" height="16" viewBox="0 0 24 16" fill="none" xmlns="http://www.w3.org/2000/svg">
<path d="M0 7H2V9H0V7ZM2 4H5V7H2V4ZM2 7H5V9H2V7ZM5 2H7V4H5V2ZM5 4H7V7H5V4ZM5 7H7V9H5V7ZM5 9H7V12H5V9ZM7 2H10V4H7V2ZM7 4H10V7H7V4ZM7 7H10V9H7V7ZM7 9H10V12H7V9ZM10 4H12V7H10V4ZM10 7H12V9H10V7ZM10 9H12V12H10V9ZM10 12H12V14H10V12ZM12 4H14V7H12V4ZM12 7H14V9H12V7ZM12 9H14V12H12V9ZM12 12H14V14H12V12ZM14 2H17V4H14V2ZM14 4H17V7H14V4ZM14 7H17V9H14V7ZM14 9H17V12H14V9ZM17 2H19V4H17V2ZM17 4H19V7H17V4ZM17 7H19V9H17V7ZM17 9H19V12H17V9ZM19 4H22V7H19V4ZM19 7H22V9H19V7ZM22 7H24V9H22V7Z" fill="black"/>
</svg>
