<svg width="16" height="16" viewBox="0 0 16 16" fill="none" xmlns="http://www.w3.org/2000/svg">
<path d="M2 8H3V9H2V8ZM2 9H3V10H2V9ZM3 7H4V8H3V7ZM3 8H4V9H3V8ZM3 9H4V10H3V9ZM3 10H4V12H3V10ZM4 7H6V8H4V7ZM4 8H6V9H4V8ZM4 9H6V10H4V9ZM4 10H6V12H4V10ZM6 3H7V4H6V3ZM6 4H7V6H6V4ZM6 6H7V7H6V6ZM6 7H7V8H6V7ZM6 8H7V9H6V8ZM6 9H7V10H6V9ZM6 13H7V14H6V13ZM7 2H8V3H7V2ZM7 3H8V4H7V3ZM7 4H8V6H7V4ZM7 6H8V7H7V6ZM7 7H8V8H7V7ZM7 8H8V9H7V8ZM7 9H8V10H7V9ZM7 10H8V12H7V10V10ZM7 12H8V13H7V12ZM7 13H8V14H7V13ZM8 3H9V4H8V3ZM8 4H9V6H8V4ZM8 6H9V7H8V6ZM8 7H9V8H8V7ZM8 8H9V9H8V8ZM8 9H9V10H8V9ZM8 13H9V14H8V13ZM9 7H11V8H9V7ZM9 8H11V9H9V8ZM9 9H11V10H9V9ZM9 10H11V12H9V10V10ZM11 7H12V8H11V7ZM11 8H12V9H11V8ZM11 9H12V10H11V9ZM11 10H12V12H11V10V10ZM12 8H13V9H12V8ZM12 9H13V10H12V9Z" fill="black"/>
</svg>
