<svg width="16" height="16" viewBox="0 0 16 16" fill="none" xmlns="http://www.w3.org/2000/svg">
<path d="M2 4H3V5H2V4ZM2 5H3V6H2V5ZM3 4H4V5H3V4ZM3 6H4V7H3V6ZM4 4H5V5H4V4ZM4 6H5V7H4V6ZM4 7H5V8H4V7ZM5 4H6V5H5V4ZM5 6H6V7H5V6ZM5 7H6V8H5V7ZM5 8H6V9H5V8ZM5 13H6V14H5V13ZM6 6H7V7H6V6ZM6 9H7V10H6V9ZM6 13H7V14H6V13ZM7 4H8V5H7V4ZM7 5H8V6H7V5ZM7 6H8V7H7V6ZM7 9H8V10H7V9ZM7 10H8V11H7V10ZM7 11H8V12H7V11ZM7 12H8V13H7V12ZM7 13H8V14H7V13ZM8 3H9V4H8V3ZM8 6H9V7H8V6ZM8 7H9V8H8V7ZM8 8H9V9H8V8ZM8 9H9V10H8V9ZM8 13H9V14H8V13ZM9 2H10V3H9V2ZM9 4H10V5H9V4ZM9 6H10V7H9V6ZM9 7H10V8H9V7ZM9 8H10V9H9V8ZM9 13H10V14H9V13ZM10 2H11V3H10V2ZM10 4H11V5H10V4ZM10 6H11V7H10V6ZM10 7H11V8H10V7ZM11 4H12V5H11V4ZM11 6H12V7H11V6ZM12 4H13V5H12V4ZM12 5H13V6H12V5Z" fill="black"/>
</svg>
