<svg width="16" height="16" viewBox="0 0 16 16" fill="none" xmlns="http://www.w3.org/2000/svg">
<path d="M0 2H1V3H0V2ZM0 3H1V5H0V3ZM0 5H1V6H0V5ZM0 6H1V7H0V6ZM0 7H1V9H0V7ZM0 9H1V10H0V9ZM0 10H1V11H0V10ZM1 2H3V3H1V2ZM1 3H3V5H1V3ZM1 5H3V6H1V5ZM1 6H3V7H1V6ZM1 7H3V9H1V7ZM1 9H3V10H1V9ZM1 10H3V11H1V10ZM1 11H3V13H1V11ZM3 2H4V3H3V2ZM3 3H4V5H3V3ZM3 5H4V6H3V5ZM3 7H4V9H3V7ZM3 10H4V11H3V10ZM3 11H4V13H3V11ZM3 13H4V14H3V13ZM4 2H5V3H4V2ZM4 3H5V5H4V3ZM4 6H5V7H4V6ZM4 9H5V10H4V9ZM4 11H5V13H4V11ZM4 13H5V14H4V13ZM5 2H7V3H5V2ZM5 3H7V5H5V3ZM5 5H7V6H5V5ZM5 7H7V9H5V7ZM5 10H7V11H5V10ZM5 11H7V13H5V11ZM5 13H7V14H5V13ZM7 2H8V3H7V2ZM7 3H8V5H7V3ZM7 6H8V7H7V6ZM7 9H8V10H7V9ZM7 11H8V13H7V11ZM7 13H8V14H7V13ZM8 2H9V3H8V2ZM8 3H9V5H8V3ZM8 5H9V6H8V5ZM8 7H9V9H8V7ZM8 10H9V11H8V10ZM8 11H9V13H8V11ZM8 13H9V14H8V13ZM9 2H11V3H9V2ZM9 3H11V5H9V3ZM9 5H11V6H9V5ZM9 6H11V7H9V6ZM9 7H11V9H9V7ZM9 9H11V10H9V9ZM9 10H11V11H9V10ZM9 11H11V13H9V11ZM11 2H12V3H11V2V2ZM11 3H12V5H11V3V3ZM11 5H12V6H11V5V5ZM11 6H12V7H11V6V6ZM11 7H12V9H11V7V7ZM11 9H12V10H11V9V9ZM11 10H12V11H11V10V10ZM12 3H13V5H12V3ZM12 9H13V10H12V9ZM13 3H15V5H13V3ZM13 7H15V9H13V7ZM15 5H16V6H15V5ZM15 6H16V7H15V6Z" fill="black"/>
</svg>
