<svg width="16" height="16" viewBox="0 0 16 16" fill="none" xmlns="http://www.w3.org/2000/svg">
<path d="M2 5H3V6H2V5ZM2 6H3V7H2V6ZM2 7H3V8H2V7ZM2 8H3V9H2V8ZM2 9H3V10H2V9ZM2 10H3V11H2V10ZM3 4H4V5H3V4ZM3 11H4V12H3V11ZM4 3H5V4H4V3ZM4 6H5V7H4V6ZM4 8H5V9H4V8ZM4 9H5V10H4V9ZM4 12H5V13H4V12ZM5 2H6V3H5V2ZM5 5H6V6H5V5ZM5 8H6V9H5V8ZM5 9H6V10H5V9ZM5 11H6V12H5V11ZM5 13H6V14H5V13ZM6 2H7V3H6V2ZM6 4H7V5H6V4ZM6 10H7V11H6V10ZM6 13H7V14H6V13ZM7 2H8V3H7V2ZM7 4H8V5H7V4ZM7 8H8V9H7V8ZM7 9H8V10H7V9ZM7 13H8V14H7V13ZM8 2H9V3H8V2ZM8 4H9V5H8V4ZM8 8H9V9H8V8ZM8 9H9V10H8V9ZM8 13H9V14H8V13ZM9 2H10V3H9V2ZM9 7H10V8H9V7ZM9 8H10V9H9V8ZM9 9H10V10H9V9ZM9 13H10V14H9V13ZM10 2H11V3H10V2ZM10 6H11V7H10V6ZM10 8H11V9H10V8ZM10 9H11V10H10V9ZM10 13H11V14H10V13ZM11 3H12V4H11V3ZM11 5H12V6H11V5ZM11 8H12V9H11V8ZM11 9H12V10H11V9ZM11 12H12V13H11V12ZM12 4H13V5H12V4ZM12 11H13V12H12V11ZM13 5H14V6H13V5ZM13 6H14V7H13V6ZM13 7H14V8H13V7ZM13 8H14V9H13V8ZM13 9H14V10H13V9ZM13 10H14V11H13V10Z" fill="black"/>
</svg>
