<svg width="16" height="16" viewBox="0 0 16 16" fill="none" xmlns="http://www.w3.org/2000/svg">
<path d="M2 7H3V8H2V7ZM2 8H3V9H2V8V8ZM3 6H4V7H3V6V6ZM3 9H4V10H3V9ZM4 5H5V6H4V5ZM4 10H5V11H4V10ZM5 4H6V5H5V4ZM5 5H6V6H5V5ZM5 10H6V11H5V10ZM5 11H6V12H5V11ZM6 3H7V4H6V3V3ZM6 12H7V13H6V12ZM7 2H8V3H7V2V2ZM7 7H8V8H7V7ZM7 8H8V9H7V8V8ZM7 13H8V14H7V13ZM8 2H9V3H8V2V2ZM8 7H9V8H8V7ZM8 8H9V9H8V8V8ZM8 13H9V14H8V13ZM9 3H10V4H9V3V3ZM9 12H10V13H9V12ZM10 4H11V5H10V4ZM10 5H11V6H10V5ZM10 10H11V11H10V10ZM10 11H11V12H10V11ZM11 5H12V6H11V5ZM11 10H12V11H11V10ZM12 6H13V7H12V6ZM12 9H13V10H12V9ZM13 7H14V8H13V7ZM13 8H14V9H13V8Z" fill="black"/>
</svg>
