<svg width="16" height="16" viewBox="0 0 16 16" fill="none" xmlns="http://www.w3.org/2000/svg">
<path d="M2 7H3V8H2V7ZM2 9H3V10H2V9ZM3 7H4V8H3V7ZM3 9H4V10H3V9ZM4 5H5V6H4V5ZM4 6H5V7H4V6ZM4 7H5V8H4V7ZM4 9H5V10H4V9ZM4 10H5V11H4V10ZM4 11H5V12H4V11ZM5 6H6V7H5V6ZM5 10H6V11H5V10ZM6 7H7V8H6V7ZM6 9H7V10H6V9ZM7 8H8V9H7V8ZM9 2H10V3H9V2ZM9 3H10V4H9V3ZM9 4H10V5H9V4ZM9 5H10V6H9V5ZM9 6H10V7H9V6ZM9 7H10V8H9V7ZM9 8H10V9H9V8ZM9 9H10V10H9V9ZM9 10H10V11H9V10ZM9 11H10V12H9V11ZM9 12H10V13H9V12ZM9 13H10V14H9V13ZM10 4H11V5H10V4ZM10 5H11V6H10V5ZM10 8H11V9H10V8ZM10 9H11V10H10V9ZM10 10H11V11H10V10ZM10 11H11V12H10V11ZM10 12H11V13H10V12ZM10 13H11V14H10V13ZM11 4H12V5H11V4ZM11 5H12V6H11V5ZM11 8H12V9H11V8ZM11 9H12V10H11V9ZM11 10H12V11H11V10ZM11 11H12V12H11V11ZM11 12H12V13H11V12ZM11 13H12V14H11V13ZM12 4H13V5H12V4ZM12 5H13V6H12V5ZM12 8H13V9H12V8ZM12 9H13V10H12V9ZM12 10H13V11H12V10ZM12 11H13V12H12V11ZM12 12H13V13H12V12ZM12 13H13V14H12V13ZM13 4H14V5H13V4ZM13 5H14V6H13V5ZM13 6H14V7H13V6ZM13 7H14V8H13V7ZM13 8H14V9H13V8ZM13 9H14V10H13V9ZM13 10H14V11H13V10ZM13 11H14V12H13V11ZM13 12H14V13H13V12ZM13 13H14V14H13V13Z" fill="black"/>
</svg>
