<svg width="16" height="16" viewBox="0 0 16 16" fill="none" xmlns="http://www.w3.org/2000/svg">
<path d="M3 6V9H2V8H1V7H2V6H3Z" fill="black"/>
<path d="M4 11V10H3V12H5V11H4Z" fill="black"/>
<path d="M5 4V3H3V5H4V4H5Z" fill="black"/>
<path d="M7 2H6V3H9V2H8V1H7V2Z" fill="black"/>
<path d="M9 12H6V13H7V14H8V13H9V12Z" fill="black"/>
<path d="M9 5V4H6V5H5V6H4V9H5V10H6V11H9V10H10V9H11V6H10V5H9Z" fill="black"/>
<path d="M10 11V12H12V10H11V11H10Z" fill="black"/>
<path d="M11 4V5H12V3H10V4H11Z" fill="black"/>
<path d="M12 9H13V8H14V7H13V6H12V9Z" fill="black"/>
</svg>
