<svg width="16" height="16" viewBox="0 0 16 16" fill="none" xmlns="http://www.w3.org/2000/svg">
<path d="M1 1H7V2H1V1ZM1 2H2V3H1V2ZM6 2H7V3H6V2ZM1 3H2V4H1V3ZM6 3H7V4H6V3ZM9 3H15V4H9V3ZM1 4H2V5H1V4ZM6 4H7V5H6V4ZM9 4H15V5H9V4ZM1 5H2V6H1V5ZM6 5H7V6H6V5ZM9 5H15V6H9V5ZM1 6H7V7H1V6ZM9 6H15V7H9V6ZM9 7H15V8H9V7ZM9 8H15V9H9V8ZM2 9H8V10H2V9ZM2 10H3V11H2V10ZM7 10H8V11H7V10ZM2 11H3V12H2V11ZM7 11H8V12H7V11ZM2 12H3V13H2V12ZM7 12H8V13H7V12ZM2 13H3V14H2V13ZM7 13H8V14H7V13ZM2 14H8V15H2V14Z" fill="black"/>
</svg>
