<svg width="16" height="16" viewBox="0 0 16 16" fill="none" xmlns="http://www.w3.org/2000/svg">
<path d="M1 1H7V2H1V1ZM9 1H15V2H9V1ZM1 2H7V3H1V2ZM9 2H10V3H9V2ZM14 2H15V3H14V2ZM1 3H7V4H1V3ZM9 3H10V4H9V3ZM14 3H15V4H14V3ZM1 4H7V5H1V4ZM9 4H10V5H9V4ZM14 4H15V5H14V4ZM1 5H7V6H1V5ZM9 5H10V6H9V5ZM14 5H15V6H14V5ZM1 6H7V7H1V6ZM9 6H15V7H9V6ZM1 9H7V10H1V9ZM9 9H15V10H9V9ZM1 10H2V11H1V10ZM6 10H7V11H6V10ZM9 10H10V11H9V10ZM14 10H15V11H14V10ZM1 11H2V12H1V11ZM6 11H7V12H6V11ZM9 11H10V12H9V11ZM14 11H15V12H14V11ZM1 12H2V13H1V12ZM6 12H7V13H6V12ZM9 12H10V13H9V12ZM14 12H15V13H14V12ZM1 13H2V14H1V13ZM6 13H7V14H6V13ZM9 13H10V14H9V13ZM14 13H15V14H14V13ZM1 14H7V15H1V14ZM9 14H15V15H9V14Z" fill="black"/>
</svg>
