<svg width="16" height="16" viewBox="0 0 16 16" fill="none" xmlns="http://www.w3.org/2000/svg">
<path d="M4 7H5V9H4V7ZM5 6H6V7H5V6ZM5 7H6V9H5V7ZM5 9H6V10H5V9ZM6 4H7V5H6V4ZM6 5H7V6H6V5ZM6 6H7V7H6V6ZM6 7H7V9H6V7ZM6 9H7V10H6V9ZM6 10H7V11H6V10ZM6 11H7V12H6V11ZM7 2H9V3H7V2ZM7 3H9V4H7V3ZM7 4H9V5H7V4ZM7 5H9V6H7V5ZM7 6H9V7H7V6ZM7 7H9V9H7V7ZM7 9H9V10H7V9ZM7 10H9V11H7V10ZM7 11H9V12H7V11ZM7 12H9V13H7V12ZM7 13H9V14H7V13ZM9 4H10V5H9V4ZM9 5H10V6H9V5ZM9 6H10V7H9V6ZM9 7H10V9H9V7ZM9 9H10V10H9V9ZM9 10H10V11H9V10ZM9 11H10V12H9V11V11ZM10 6H11V7H10V6ZM10 7H11V9H10V7ZM10 9H11V10H10V9ZM11 7H12V9H11V7Z" fill="black"/>
</svg>
