<svg width="16" height="16" viewBox="0 0 16 16" fill="none" xmlns="http://www.w3.org/2000/svg">
<path d="M4 2H5V3H4V2ZM4 3H5V4H4V3ZM4 4H5V5H4V4ZM4 5H5V6H4V5ZM4 6H5V7H4V6ZM4 7H5V8H4V7ZM4 8H5V9H4V8ZM4 9H5V10H4V9ZM4 10H5V11H4V10ZM4 11H5V12H4V11ZM4 12H5V13H4V12ZM4 13H5V14H4V13ZM5 2H6V3H5V2ZM5 13H6V14H5V13ZM6 2H7V3H6V2ZM6 5H7V6H6V5ZM6 7H7V8H6V7ZM6 9H7V10H6V9ZM6 11H7V12H6V11ZM6 13H7V14H6V13ZM7 7H8V8H7V7ZM7 9H8V10H7V9ZM7 11H8V12H7V11ZM7 13H8V14H7V13ZM8 2H9V3H8V2ZM8 3H9V4H8V3ZM8 4H9V5H8V4ZM8 5H9V6H8V5ZM8 7H9V8H8V7ZM8 11H9V12H8V11ZM8 13H9V14H8V13ZM9 3H10V4H9V3ZM9 4H10V5H9V4ZM9 5H10V6H9V5ZM9 7H10V8H9V7ZM9 9H10V10H9V9ZM9 11H10V12H9V11ZM9 13H10V14H9V13ZM10 4H11V5H10V4ZM10 5H11V6H10V5ZM10 13H11V14H10V13ZM11 5H12V6H11V5ZM11 7H12V8H11V7ZM11 8H12V9H11V8ZM11 9H12V10H11V9ZM11 10H12V11H11V10ZM11 11H12V12H11V11ZM11 12H12V13H11V12ZM11 13H12V14H11V13Z" fill="black"/>
</svg>
