<svg width="20" height="16" viewBox="0 0 20 16" fill="none" xmlns="http://www.w3.org/2000/svg">
<path d="M0 7H2V9H0V7ZM0 9H2V11H0V9ZM2 5H3V7H2V5ZM2 11H3V12H2V11ZM3 4H5V5H3V4ZM3 12H5V14H3V12ZM5 4H7V5H5V4ZM5 12H7V14H5V12ZM7 4H8V5H7V4ZM7 12H8V14H7V12ZM8 5H10V7H8V5ZM8 11H10V12H8V11ZM10 4H12V5H10V4ZM10 11H12V12H10V11ZM12 2H13V4H12V2ZM12 12H13V14H12V12ZM13 2H15V4H13V2ZM13 12H15V14H13V12ZM15 2H17V4H15V2ZM15 12H17V14H15V12ZM17 4H18V5H17V4ZM17 11H18V12H17V11ZM18 5H20V7H18V5ZM18 7H20V9H18V7ZM18 9H20V11H18V9Z" fill="black"/>
</svg>
