<svg width="16" height="16" viewBox="0 0 16 16" fill="none" xmlns="http://www.w3.org/2000/svg">
<path d="M4 4H5V5H4V4ZM4 12H5V13H4V12ZM5 3H6V4H5V3ZM5 6H6V7H5V6ZM5 10H6V11H5V10V10ZM5 13H6V14H5V13ZM6 2H7V3H6V2ZM6 5H7V6H6V5ZM6 10H7V11H6V10V10ZM6 13H7V14H6V13ZM7 2H8V3H7V2ZM7 4H8V5H7V4ZM7 8H8V9H7V8ZM7 9H8V10H7V9ZM7 13H8V14H7V13ZM8 2H9V3H8V2ZM8 4H9V5H8V4ZM8 7H9V8H8V7ZM8 12H9V13H8V12ZM9 2H10V3H9V2ZM9 5H10V6H9V5ZM9 6H10V7H9V6ZM9 9H10V10H9V9ZM9 10H10V11H9V10V10ZM9 11H10V12H9V11ZM10 3H11V4H10V3ZM10 8H11V9H10V8ZM11 4H12V5H11V4ZM11 5H12V6H11V5ZM11 6H12V7H11V6ZM11 7H12V8H11V7Z" fill="black"/>
</svg>
