<svg width="16" height="16" viewBox="0 0 16 16" fill="none" xmlns="http://www.w3.org/2000/svg">
<path d="M2 6H3V7H2V6ZM2 7H3V8H2V7ZM2 8H3V9H2V8ZM2 9H3V10H2V9ZM3 4H4V5H3V4ZM3 5H4V6H3V5ZM3 10H4V11H3V10V10ZM3 11H4V12H3V11ZM4 3H5V4H4V3ZM4 12H5V13H4V12ZM5 3H6V4H5V3ZM5 12H6V13H5V12ZM6 2H7V3H6V2ZM6 7H7V8H6V7ZM6 8H7V9H6V8ZM6 13H7V14H6V13ZM7 2H8V3H7V2ZM7 6H8V7H7V6ZM7 9H8V10H7V9ZM7 13H8V14H7V13ZM8 2H9V3H8V2ZM8 6H9V7H8V6ZM8 9H9V10H8V9ZM8 10H9V11H8V10V10ZM8 11H9V12H8V11ZM8 12H9V13H8V12ZM8 13H9V14H8V13ZM9 2H10V3H9V2ZM9 5H10V6H9V5ZM9 7H10V8H9V7ZM9 8H10V9H9V8ZM9 11H10V12H9V11ZM9 12H10V13H9V12ZM9 13H10V14H9V13ZM10 3H11V4H10V3ZM10 4H11V5H10V4ZM10 12H11V13H10V12ZM11 3H12V4H11V3ZM11 12H12V13H11V12ZM12 4H13V5H12V4ZM12 5H13V6H12V5ZM12 10H13V11H12V10V10ZM12 11H13V12H12V11ZM13 6H14V7H13V6ZM13 7H14V8H13V7ZM13 8H14V9H13V8ZM13 9H14V10H13V9Z" fill="black"/>
</svg>
