<svg width="16" height="16" viewBox="0 0 16 16" fill="none" xmlns="http://www.w3.org/2000/svg">
<g id="eye-hidden 1">
<path id="Vector" d="M1 7H2V8H1V7ZM2 6H3V7H2V6ZM2 8H3V9H2V8ZM3 5H5V6H3V5ZM3 9H5V10H3V9ZM4 12H5V13H4V12ZM5 4H10V5H5V4ZM5 11H6V12H5V11ZM6 6H8V7H7V8H6V6ZM6 10H7V11H6V10ZM7 9H8V10H7V9ZM8 8H9V9H8V8ZM8 10H11V11H8V10ZM9 7H10V8H9V7ZM10 6H11V7H10V6ZM11 5H12V6H11V5ZM11 9H13V10H11V9ZM12 4H13V5H12V4ZM13 3H14V4H13V3ZM13 6H14V7H13V6ZM13 8H14V9H13V8ZM14 7H15V8H14V7Z" fill="black"/>
</g>
</svg>
