<svg width="16" height="16" viewBox="0 0 16 16" fill="none" xmlns="http://www.w3.org/2000/svg">
<g id="film-strip-outline 1">
<path id="Vector" d="M3 1H4V2H3V1ZM3 3H4V4H3V3ZM3 5H4V6H3V5ZM3 7H4V8H3V7ZM3 9H4V10H3V9ZM3 11H4V12H3V11ZM3 13H4V14H3V13ZM5 1H6V2H5V1ZM5 5H6V10H5V5ZM5 13H6V14H5V13ZM6 2H9V3H6V2ZM6 4H9V5H6V4ZM6 10H9V11H6V10ZM6 12H9V13H6V12ZM9 1H10V2H9V1ZM9 5H10V10H9V5ZM9 13H10V14H9V13ZM11 1H12V2H11V1ZM11 3H12V4H11V3ZM11 5H12V6H11V5ZM11 7H12V8H11V7ZM11 9H12V10H11V9ZM11 11H12V12H11V11ZM11 13H12V14H11V13Z" fill="black"/>
</g>
</svg>
