<svg width="17" height="16" viewBox="0 0 17 16" fill="none" xmlns="http://www.w3.org/2000/svg">
<path d="M0 2H1V4H0V2ZM0 4H1V5H0V4ZM0 5H1V6H0V5ZM0 6H1V8H0V6ZM0 8H1V10H0V8ZM0 10H1V11H0V10ZM0 11H1V12H0V11ZM0 12H1V14H0V12ZM1 2H3V4H1V2ZM1 12H3V14H1V12ZM3 2H4V4H3V2ZM3 12H4V14H3V12ZM4 4H6V5H4V4ZM4 11H6V12H4V11ZM6 5H7V6H6V5ZM6 6H7V8H6V6ZM6 8H7V10H6V8ZM6 10H7V11H6V10ZM7 5H9V6H7V5ZM7 6H9V8H7V6ZM7 8H9V10H7V8ZM7 10H9V11H7V10ZM9 5H10V6H9V5ZM9 6H10V8H9V6ZM9 8H10V10H9V8ZM9 10H10V11H9V10ZM10 5H11V6H10V5ZM10 6H11V8H10V6ZM10 8H11V10H10V8ZM10 10H11V11H10V10ZM11 4H13V5H11V4V4ZM11 11H13V12H11V11V11ZM13 2H14V4H13V2ZM13 12H14V14H13V12ZM14 2H16V4H14V2ZM14 12H16V14H14V12ZM16 2H17V4H16V2ZM16 4H17V5H16V4ZM16 5H17V6H16V5ZM16 6H17V8H16V6ZM16 8H17V10H16V8ZM16 10H17V11H16V10ZM16 11H17V12H16V11ZM16 12H17V14H16V12Z" fill="black"/>
</svg>
