<svg width="16" height="16" viewBox="0 0 16 16" fill="none" xmlns="http://www.w3.org/2000/svg">
<path d="M0 5H1V6H0V5ZM0 6H1V7H0V6ZM0 7H1V9H0V7ZM1 5H3V6H1V5ZM1 6H3V7H1V6ZM1 7H3V9H1V7ZM3 3H4V5H3V3ZM3 5H4V6H3V5ZM3 6H4V7H3V6ZM3 7H4V9H3V7ZM4 3H5V5H4V3ZM4 5H5V6H4V5ZM4 6H5V7H4V6ZM4 10H5V11H4V10ZM4 11H5V13H4V11ZM4 13H5V14H4V13ZM5 3H7V5H5V3ZM5 5H7V6H5V5ZM5 6H7V7H5V6ZM5 7H7V9H5V7ZM5 9H7V10H5V9ZM5 10H7V11H5V10ZM5 11H7V13H5V11ZM5 13H7V14H5V13ZM7 2H8V3H7V2ZM7 3H8V5H7V3ZM7 5H8V6H7V5ZM7 6H8V7H7V6ZM7 7H8V9H7V7ZM7 9H8V10H7V9ZM7 11H8V13H7V11ZM7 13H8V14H7V13ZM8 2H9V3H8V2ZM8 3H9V5H8V3ZM8 5H9V6H8V5ZM8 6H9V7H8V6ZM8 7H9V9H8V7ZM8 9H9V10H8V9ZM8 11H9V13H8V11ZM8 13H9V14H8V13ZM9 2H11V3H9V2ZM9 3H11V5H9V3ZM9 5H11V6H9V5ZM9 6H11V7H9V6ZM9 7H11V9H9V7ZM9 9H11V10H9V9ZM9 10H11V11H9V10ZM9 11H11V13H9V11ZM11 2H12V3H11V2ZM11 3H12V5H11V3ZM11 5H12V6H11V5ZM11 6H12V7H11V6ZM11 7H12V9H11V7ZM11 9H12V10H11V9ZM11 10H12V11H11V10ZM11 11H12V13H11V11ZM12 3H13V5H12V3ZM12 5H13V6H12V5ZM12 6H13V7H12V6ZM12 7H13V9H12V7ZM12 9H13V10H12V9ZM12 10H13V11H12V10ZM13 3H15V5H13V3ZM13 5H15V6H13V5ZM13 6H15V7H13V6ZM13 7H15V9H13V7ZM13 9H15V10H13V9ZM13 10H15V11H13V10ZM15 5H16V6H15V5ZM15 6H16V7H15V6ZM15 7H16V9H15V7ZM15 9H16V10H15V9Z" fill="black"/>
</svg>
