<svg width="16" height="16" viewBox="0 0 16 16" fill="none" xmlns="http://www.w3.org/2000/svg">
<path d="M11 2H12V3H11V2ZM12 3H13V4H12V3ZM1 4H14V5H1V4ZM12 5H13V6H12V5ZM11 6H12V7H11V6ZM1 8H7V9H1V8ZM8 8H14V9H8V8ZM1 9H2V10H1V9ZM6 9H7V10H6V9ZM8 9H9V10H8V9ZM13 9H14V10H13V9ZM1 10H2V11H1V10ZM6 10H7V11H6V10ZM8 10H9V11H8V10ZM13 10H14V11H13V10ZM1 11H2V12H1V11ZM6 11H7V12H6V11ZM8 11H9V12H8V11ZM13 11H14V12H13V11ZM1 12H2V13H1V12ZM6 12H7V13H6V12ZM8 12H9V13H8V12ZM13 12H14V13H13V12ZM1 13H7V14H1V13ZM8 13H14V14H8V13Z" fill="black"/>
</svg>
