<svg width="16" height="16" viewBox="0 0 16 16" fill="none" xmlns="http://www.w3.org/2000/svg">
<path d="M2 1H8V2H2V1ZM11 1H12V2H11V1ZM2 2H3V3H2V2ZM7 2H8V3H7V2ZM11 2H12V3H11V2ZM2 3H3V4H2V3ZM7 3H8V4H7V3ZM11 3H12V4H11V3ZM2 4H3V5H2V4ZM7 4H8V5H7V4ZM11 4H12V5H11V4ZM2 5H3V6H2V5ZM7 5H8V6H7V5ZM11 5H12V6H11V5ZM2 6H8V7H2V6ZM11 6H12V7H11V6ZM11 7H12V8H11V7ZM2 8H8V9H2V8ZM11 8H12V9H11V8ZM2 9H3V10H2V9ZM7 9H8V10H7V9ZM11 9H12V10H11V9ZM2 10H3V11H2V10ZM7 10H8V11H7V10ZM11 10H12V11H11V10ZM2 11H3V12H2V11ZM7 11H8V12H7V11ZM9 11H10V12H9V11ZM11 11H12V12H11V11ZM13 11H14V12H13V11ZM2 12H3V13H2V12ZM7 12H8V13H7V12ZM10 12H13V13H10V12ZM2 13H8V14H2V13ZM11 13H12V14H11V13Z" fill="black"/>
</svg>
