<svg width="16" height="16" viewBox="0 0 16 16" fill="none" xmlns="http://www.w3.org/2000/svg">
<path d="M3 2H4V3H3V2ZM3 3H4V4H3V3ZM3 4H4V5H3V4ZM3 5H4V6H3V5ZM4 6H5V7H4V6ZM4 10H5V11H4V10ZM4 11H5V12H4V11ZM4 12H5V13H4V12ZM4 13H5V14H4V13ZM5 2H6V3H5V2ZM5 3H6V4H5V3ZM5 4H6V5H5V4ZM5 5H6V6H5V5ZM5 6H6V7H5V6ZM5 7H6V8H5V7ZM5 8H6V9H5V8ZM5 9H6V10H5V9ZM5 10H6V11H5V10ZM5 11H6V12H5V11ZM5 12H6V13H5V12ZM5 13H6V14H5V13ZM6 6H7V7H6V6ZM6 10H7V11H6V10ZM6 11H7V12H6V11ZM6 12H7V13H6V12ZM6 13H7V14H6V13ZM7 2H8V3H7V2ZM7 3H8V4H7V3ZM7 4H8V5H7V4ZM7 5H8V6H7V5ZM10 3H11V4H10V3ZM10 4H11V5H10V4ZM10 5H11V6H10V5ZM10 6H11V7H10V6ZM10 7H11V8H10V7ZM10 8H11V9H10V8ZM10 9H11V10H10V9ZM10 13H11V14H10V13ZM11 2H12V3H11V2ZM11 10H12V11H11V10ZM11 11H12V12H11V11ZM11 12H12V13H11V12ZM11 13H12V14H11V13ZM12 2H13V3H12V2ZM12 3H13V4H12V3ZM12 4H13V5H12V4ZM12 5H13V6H12V5ZM12 6H13V7H12V6ZM12 7H13V8H12V7ZM12 8H13V9H12V8ZM12 9H13V10H12V9ZM12 10H13V11H12V10ZM12 11H13V12H12V11ZM12 12H13V13H12V12ZM12 13H13V14H12V13Z" fill="black"/>
</svg>
