<svg width="16" height="16" viewBox="0 0 16 16" fill="none" xmlns="http://www.w3.org/2000/svg">
<path d="M9 13V14H6V13H9Z" fill="black"/>
<path d="M6 13H5V12H6V13Z" fill="black"/>
<path d="M10 13H9V12H10V13Z" fill="black"/>
<path d="M5 11V12H3V11H5Z" fill="black"/>
<path d="M8 12H7V10H6V9H3V11H2V2H5V3H6V4H7V5H8V10H9V11H8V12Z" fill="black"/>
<path d="M12 11V12H10V11H12Z" fill="black"/>
<path d="M13 11H12V9H10V8H12V3H10V2H13V11Z" fill="black"/>
<path d="M10 10H9V9H10V10Z" fill="black"/>
<path d="M9 5H8V4H9V5Z" fill="black"/>
<path d="M10 4H9V3H10V4Z" fill="black"/>
</svg>
