<svg width="16" height="16" viewBox="0 0 16 16" fill="none" xmlns="http://www.w3.org/2000/svg">
<path d="M1 9H2V10H1V9ZM1 10H2V11H1V10ZM1 11H2V12H1V11ZM1 12H2V13H1V12ZM2 9H3V10H2V9ZM2 12H3V13H2V12ZM3 10H4V11H3V10ZM3 11H4V12H3V11ZM4 3H5V4H4V3ZM4 4H5V5H4V4ZM4 5H5V6H4V5ZM4 7H5V9H4V7ZM4 9H5V10H4V9ZM4 12H5V13H4V12ZM4 13H5V14H4V13ZM5 2H6V3H5V2ZM5 6H6V7H5V6ZM5 7H6V9H5V7ZM5 13H6V14H5V13ZM6 2H7V3H6V2ZM6 4H7V5H6V4ZM6 6H7V7H6V6ZM6 7H7V9H6V7ZM6 10H7V11H6V10ZM6 11H7V12H6V11ZM6 13H7V14H6V13ZM7 2H9V3H7V2ZM7 6H9V7H7V6ZM7 7H9V9H7V7ZM7 10H9V11H7V10ZM7 11H9V12H7V11ZM7 13H9V14H7V13ZM9 3H10V4H9V3ZM9 4H10V5H9V4ZM9 5H10V6H9V5ZM9 7H10V9H9V7ZM9 10H10V11H9V10ZM9 11H10V12H9V11ZM9 13H10V14H9V13ZM10 2H11V3H10V2ZM10 6H11V7H10V6ZM10 7H11V9H10V7ZM10 10H11V11H10V10ZM10 11H11V12H10V11ZM10 13H11V14H10V13ZM11 2H12V3H11V2ZM11 4H12V5H11V4ZM11 6H12V7H11V6ZM11 7H12V9H11V7ZM11 10H12V11H11V10ZM11 11H12V12H11V11ZM11 13H12V14H11V13ZM12 2H13V3H12V2ZM12 6H13V7H12V6ZM12 7H13V9H12V7ZM12 13H13V14H12V13ZM13 3H14V4H13V3ZM13 4H14V5H13V4ZM13 5H14V6H13V5ZM13 7H14V9H13V7ZM13 9H14V10H13V9ZM13 10H14V11H13V10ZM13 11H14V12H13V11ZM13 12H14V13H13V12ZM13 13H14V14H13V13Z" fill="black"/>
</svg>
