<svg width="16" height="16" viewBox="0 0 16 16" fill="none" xmlns="http://www.w3.org/2000/svg">
<path d="M2 6H3V7H2V6ZM2 7H3V8H2V7ZM2 8H3V9H2V8ZM2 9H3V10H2V9ZM3 5H4V6H3V5ZM3 6H4V7H3V6ZM3 8H4V9H3V8ZM3 9H4V10H3V9ZM3 10H4V11H3V10ZM4 4H5V5H4V4ZM4 5H5V6H4V5ZM4 9H5V10H4V9ZM4 10H5V11H4V10ZM5 4H6V5H5V4ZM5 5H6V6H5V5ZM5 6H6V7H5V6ZM5 8H6V9H5V8V8ZM5 9H6V10H5V9ZM6 4H7V5H6V4ZM6 5H7V6H6V5ZM6 6H7V7H6V6ZM6 7H7V8H6V7ZM6 8H7V9H6V8ZM7 4H8V5H7V4ZM7 5H8V6H7V5ZM7 6H8V7H7V6ZM7 7H8V8H7V7ZM7 8H8V9H7V8ZM8 4H9V5H8V4ZM8 5H9V6H8V5ZM8 6H9V7H8V6ZM8 7H9V8H8V7ZM8 8H9V9H8V8ZM9 4H10V5H9V4ZM9 6H10V7H9V6ZM9 7H10V8H9V7ZM9 8H10V9H9V8ZM10 4H11V5H10V4ZM10 5H11V6H10V5ZM10 6H11V7H10V6ZM10 7H11V8H10V7ZM10 8H11V9H10V8ZM10 9H11V10H10V9ZM11 4H12V5H11V4ZM11 5H12V6H11V5ZM11 6H12V7H11V6ZM11 9H12V10H11V9ZM11 10H12V11H11V10ZM12 5H13V6H12V5ZM12 6H13V7H12V6ZM12 9H13V10H12V9ZM12 10H13V11H12V10ZM13 6H14V7H13V6ZM13 7H14V8H13V7ZM13 8H14V9H13V8V8ZM13 9H14V10H13V9Z" fill="black"/>
</svg>
