<svg width="16" height="16" viewBox="0 0 16 16" fill="none" xmlns="http://www.w3.org/2000/svg">
<path d="M1 1H2V2H1V1ZM14 1H15V2H14V1ZM1 2H2V3H1V2ZM14 2H15V3H14V2ZM1 3H2V4H1V3ZM14 3H15V4H14V3ZM1 4H2V5H1V4ZM14 4H15V5H14V4ZM1 5H2V6H1V5ZM5 5H11V6H5V5ZM14 5H15V6H14V5ZM1 6H2V7H1V6ZM5 6H11V7H5V6ZM14 6H15V7H14V6ZM1 7H2V8H1V7ZM5 7H11V8H5V7ZM14 7H15V8H14V7ZM1 8H2V9H1V8ZM5 8H11V9H5V8ZM14 8H15V9H14V8ZM1 9H2V10H1V9ZM5 9H11V10H5V9ZM14 9H15V10H14V9ZM1 10H2V11H1V10ZM5 10H11V11H5V10ZM14 10H15V11H14V10ZM1 11H2V12H1V11ZM14 11H15V12H14V11ZM1 12H2V13H1V12ZM14 12H15V13H14V12ZM1 13H2V14H1V13ZM14 13H15V14H14V13ZM1 14H2V15H1V14ZM14 14H15V15H14V14Z" fill="black"/>
</svg>
