<svg width="16" height="16" viewBox="0 0 16 16" fill="none" xmlns="http://www.w3.org/2000/svg">
<path d="M3 1H12V2H3V1ZM0 3H1V4H0V3ZM14 3H15V4H14V3ZM0 4H1V5H0V4ZM14 4H15V5H14V4ZM0 5H1V6H0V5ZM4 5H10V6H4V5ZM14 5H15V6H14V5ZM0 6H1V7H0V6ZM4 6H10V7H4V6ZM14 6H15V7H14V6ZM0 7H1V8H0V7ZM4 7H10V8H4V7ZM14 7H15V8H14V7ZM0 8H1V9H0V8ZM4 8H10V9H4V8ZM14 8H15V9H14V8ZM0 9H1V10H0V9ZM4 9H10V10H4V9ZM14 9H15V10H14V9ZM0 10H1V11H0V10ZM4 10H10V11H4V10ZM14 10H15V11H14V10ZM0 11H1V12H0V11ZM14 11H15V12H14V11ZM3 14H12V15H3V14Z" fill="black"/>
</svg>
