<svg width="16" height="16" viewBox="0 0 16 16" fill="none" xmlns="http://www.w3.org/2000/svg">
<path d="M2 4H3V5H2V4ZM2 13H3V14H2V13ZM3 4H4V5H3V4ZM3 13H4V14H3V13ZM4 4H5V5H4V4ZM4 7H5V8H4V7ZM4 8H5V9H4V8ZM4 9H5V10H4V9ZM4 10H5V11H4V10ZM4 13H5V14H4V13ZM5 3H6V4H5V3ZM5 4H6V5H5V4ZM5 6H6V7H5V6ZM5 11H6V12H5V11ZM5 13H6V14H5V13ZM6 3H7V4H6V3ZM6 4H7V5H6V4ZM6 6H7V7H6V6ZM6 9H7V10H6V9ZM6 11H7V12H6V11ZM6 13H7V14H6V13ZM7 2H8V3H7V2ZM7 3H8V4H7V3ZM7 4H8V5H7V4ZM7 7H8V8H7V7ZM7 9H8V10H7V9ZM7 10H8V11H7V10ZM7 13H8V14H7V13ZM8 2H9V3H8V2ZM8 3H9V4H8V3ZM8 4H9V5H8V4ZM8 13H9V14H8V13ZM9 3H10V4H9V3ZM9 4H10V5H9V4ZM9 7H10V8H9V7ZM9 11H10V12H9V11ZM9 13H10V14H9V13ZM10 3H11V4H10V3ZM10 4H11V5H10V4ZM10 6H11V7H10V6ZM10 8H11V9H10V8ZM10 11H11V12H10V11ZM10 13H11V14H10V13ZM11 4H12V5H11V4ZM11 6H12V7H11V6ZM11 9H12V10H11V9ZM11 10H12V11H11V10ZM11 13H12V14H11V13ZM12 4H13V5H12V4ZM12 13H13V14H12V13ZM13 4H14V5H13V4ZM13 13H14V14H13V13Z" fill="black"/>
</svg>
