<svg width="16" height="16" viewBox="0 0 16 16" fill="none" xmlns="http://www.w3.org/2000/svg">
<path d="M3 9H4V10H3V9ZM3 10H4V11H3V10ZM3 11H4V12H3V11ZM4 4H5V5H4V4ZM4 5H5V6H4V5ZM4 6H5V7H4V6ZM4 8H5V9H4V8ZM4 12H5V13H4V12ZM5 3H6V4H5V3ZM5 7H6V8H5V7ZM5 13H6V14H5V13ZM6 2H7V3H6V2ZM6 5H7V6H6V5ZM6 13H7V14H6V13ZM7 2H8V3H7V2ZM7 13H8V14H7V13ZM8 2H9V3H8V2ZM8 5H9V6H8V5ZM8 13H9V14H8V13ZM9 3H10V4H9V3ZM9 7H10V8H9V7ZM9 13H10V14H9V13ZM10 4H11V5H10V4ZM10 5H11V6H10V5ZM10 6H11V7H10V6ZM10 8H11V9H10V8ZM10 12H11V13H10V12ZM11 9H12V10H11V9ZM11 10H12V11H11V10ZM11 11H12V12H11V11Z" fill="black"/>
</svg>
