<svg width="19" height="16" viewBox="0 0 19 16" fill="none" xmlns="http://www.w3.org/2000/svg">
<path d="M2 3H3V4H2V3Z" fill="black"/>
<path d="M11 5H13V6H11V5Z" fill="black"/>
<path d="M0 5H1V6H0V5Z" fill="black"/>
<path d="M9 7H10V8H9V7Z" fill="black"/>
<path d="M6 5H8V6H6V5Z" fill="black"/>
<path d="M16 7H17V8H16V7Z" fill="black"/>
<path d="M0 6H1V7H0V6Z" fill="black"/>
<path d="M9 8H10V9H9V8Z" fill="black"/>
<path d="M6 6H8V7H6V6Z" fill="black"/>
<path d="M16 8H17V9H16V8Z" fill="black"/>
<path d="M0 7H1V8H0V7Z" fill="black"/>
<path d="M9 9H10V10H9V9Z" fill="black"/>
<path d="M6 7H8V8H6V7Z" fill="black"/>
<path d="M16 9H17V10H16V9Z" fill="black"/>
<path d="M2 9H3V10H2V9Z" fill="black"/>
<path d="M11 11H13V12H11V11Z" fill="black"/>
<path d="M3 9H4V10H3V9Z" fill="black"/>
<path d="M13 11H14V12H13V11Z" fill="black"/>
<path d="M3 10H4V11H3V10Z" fill="black"/>
<path d="M3 11H4V12H3V11Z" fill="black"/>
<path d="M4 11H5V12H4V11Z" fill="black"/>
<path d="M2 11H3V12H2V11Z" fill="black"/>
<path d="M3 12H4V13H3V12Z" fill="black"/>
<path d="M4 9H5V10H4V9Z" fill="black"/>
<path d="M14 11H15V12H14V11Z" fill="black"/>
<path d="M3 3H4V4H3V3Z" fill="black"/>
<path d="M13 5H14V6H13V5Z" fill="black"/>
<path d="M4 3H5V4H4V3Z" fill="black"/>
<path d="M14 5H15V6H14V5Z" fill="black"/>
<path d="M5 4H6V5H5V4Z" fill="black"/>
<path d="M15 6H16V7H15V6Z" fill="black"/>
<path d="M16 5H17V6H16V5Z" fill="black"/>
<path d="M17 4H18V5H17V4Z" fill="black"/>
<path d="M18 3H19V4H18V3Z" fill="black"/>
<path d="M18 4H19V5H18V4Z" fill="black"/>
<path d="M18 5H19V6H18V5Z" fill="black"/>
<path d="M17 3H18V4H17V3Z" fill="black"/>
<path d="M16 3H17V4H16V3Z" fill="black"/>
<path d="M1 4H2V5H1V4Z" fill="black"/>
<path d="M10 6H11V7H10V6Z" fill="black"/>
<path d="M5 8H6V9H5V8Z" fill="black"/>
<path d="M15 10H16V11H15V10Z" fill="black"/>
<path d="M1 8H2V9H1V8Z" fill="black"/>
<path d="M10 10H11V11H10V10Z" fill="black"/>
</svg>
