<svg width="16" height="16" viewBox="0 0 16 16" fill="none" xmlns="http://www.w3.org/2000/svg">
<path d="M2 5H3V6H2V5ZM2 6H3V7H2V6ZM2 9H3V10H2V9ZM2 10H3V11H2V10ZM3 4H4V5H3V4ZM3 7H4V8H3V7ZM3 11H4V12H3V11ZM4 3H5V4H4V3ZM4 4H5V5H4V4ZM4 7H5V8H4V7ZM4 12H5V13H4V12ZM5 3H6V4H5V3ZM5 5H6V6H5V5ZM5 6H6V7H5V6ZM5 12H6V13H5V12ZM6 2H7V3H6V2ZM6 13H7V14H6V13ZM7 2H8V3H7V2ZM7 13H8V14H7V13ZM8 2H9V3H8V2ZM8 13H9V14H8V13ZM9 2H10V3H9V2ZM9 13H10V14H9V13ZM10 3H11V4H10V3ZM10 9H11V10H10V9ZM10 10H11V11H10V10ZM10 12H11V13H10V12ZM11 3H12V4H11V3ZM11 8H12V9H11V8ZM11 11H12V12H11V11ZM11 12H12V13H11V12ZM12 4H13V5H12V4ZM12 8H13V9H12V8ZM12 11H13V12H12V11ZM13 5H14V6H13V5ZM13 6H14V7H13V6ZM13 9H14V10H13V9ZM13 10H14V11H13V10Z" fill="black"/>
</svg>
