<svg width="16" height="16" viewBox="0 0 16 16" fill="none" xmlns="http://www.w3.org/2000/svg">
<path d="M2 9H3V10H2V9ZM2 10H3V11H2V10ZM2 11H3V12H2V11ZM2 12H3V13H2V12ZM3 9H4V10H3V9ZM3 10H4V11H3V10ZM3 11H4V12H3V11ZM3 12H4V13H3V12ZM3 13H4V14H3V13V13ZM4 9H5V10H4V9ZM4 10H5V11H4V10ZM4 13H5V14H4V13V13ZM5 9H6V10H5V9ZM5 10H6V11H5V10ZM5 13H6V14H5V13V13ZM6 9H7V10H6V9ZM6 10H7V11H6V10ZM6 11H7V12H6V11ZM6 12H7V13H6V12ZM6 13H7V14H6V13ZM7 9H8V10H7V9ZM7 10H8V11H7V10ZM7 11H8V12H7V11ZM7 12H8V13H7V12ZM7 13H8V14H7V13V13ZM8 10H9V11H8V10ZM8 11H9V12H8V11ZM8 12H9V13H8V12ZM8 13H9V14H8V13ZM9 11H10V12H9V11ZM9 12H10V13H9V12ZM9 13H10V14H9V13V13ZM10 11H11V12H10V11ZM10 12H11V13H10V12ZM11 8H12V9H11V8ZM11 9H12V10H11V9ZM11 10H12V11H11V10ZM12 5H13V6H12V5ZM12 6H13V7H12V6ZM12 7H13V8H12V7ZM13 2H14V3H13V2ZM13 3H14V4H13V3ZM13 4H14V5H13V4Z" fill="black"/>
</svg>
