<svg width="16" height="16" viewBox="0 0 16 16" fill="none" xmlns="http://www.w3.org/2000/svg">
<path d="M0 7H1V9H0V7V7ZM0 9H1V10H0V9ZM0 10H1V11H0V10ZM1 6H3V7H1V6ZM1 11H3V13H1V11ZM3 13H4V14H3V13ZM4 2H5V3H4V2ZM4 3H5V5H4V3ZM4 5H5V6H4V5ZM4 6H5V7H4V6ZM4 7H5V9H4V7ZM4 9H5V10H4V9ZM4 13H5V14H4V13ZM5 13H7V14H5V13ZM7 2H8V3H7V2ZM7 3H8V5H7V3ZM7 5H8V6H7V5ZM7 6H8V7H7V6ZM7 7H8V9H7V7ZM7 9H8V10H7V9ZM7 13H8V14H7V13ZM8 13H10V14H8V13ZM10 2H11V3H10V2ZM10 3H11V5H10V3ZM10 5H11V6H10V5ZM10 6H11V7H10V6ZM10 7H11V9H10V7ZM10 9H11V10H10V9ZM10 13H11V14H10V13ZM11 13H12V14H11V13ZM12 6H14V7H12V6ZM12 11H14V13H12V11ZM14 7H15V9H14V7V7ZM14 9H15V10H14V9ZM14 10H15V11H14V10Z" fill="black"/>
</svg>
