<svg width="16" height="16" viewBox="0 0 16 16" fill="none" xmlns="http://www.w3.org/2000/svg">
<path d="M3 2H4V3H3V2ZM3 3H4V4H3V3ZM3 4H4V5H3V4ZM3 5H4V6H3V5ZM3 6H4V7H3V6ZM3 7H4V9H3V7ZM3 9H4V10H3V9ZM3 10H4V11H3V10V10ZM3 12H4V13H3V12ZM3 13H4V14H3V13ZM4 2H5V3H4V2ZM4 11H5V12H4V11ZM4 13H5V14H4V13ZM5 2H6V3H5V2ZM5 3H6V4H5V3ZM5 4H6V5H5V4ZM5 5H6V6H5V5ZM5 6H6V7H5V6ZM5 10H6V11H5V10V10ZM5 13H6V14H5V13ZM6 6H7V7H6V6ZM6 9H7V10H6V9ZM6 13H7V14H6V13ZM7 2H9V3H7V2ZM7 3H9V4H7V3ZM7 4H9V5H7V4ZM7 5H9V6H7V5ZM7 7H9V9H7V7ZM7 10H9V11H7V10V10ZM7 13H9V14H7V13ZM9 2H10V3H9V2ZM9 6H10V7H9V6ZM9 9H10V10H9V9ZM9 13H10V14H9V13ZM10 2H11V3H10V2ZM10 3H11V4H10V3ZM10 4H11V5H10V4ZM10 5H11V6H10V5ZM10 6H11V7H10V6ZM10 7H11V9H10V7ZM10 13H11V14H10V13ZM11 7H12V9H11V7ZM11 9H12V10H11V9ZM11 12H12V13H11V12ZM12 9H13V10H12V9ZM12 10H13V11H12V10V10ZM12 11H13V12H12V11Z" fill="black"/>
</svg>
