<svg width="16" height="16" viewBox="0 0 16 16" fill="none" xmlns="http://www.w3.org/2000/svg">
<path d="M2 10H3V11H2V10ZM2 11H3V12H2V11ZM2 12H3V13H2V12ZM3 10H4V11H3V10V10ZM3 13H4V14H3V13ZM4 10H5V11H4V10V10ZM4 13H5V14H4V13ZM5 3H6V4H5V3ZM5 4H6V5H5V4ZM5 5H6V6H5V5ZM5 6H6V7H5V6ZM5 7H6V8H5V7ZM5 8H6V9H5V8ZM5 9H6V10H5V9ZM5 10H6V11H5V10V10ZM5 13H6V14H5V13ZM6 3H7V4H6V3ZM6 10H7V11H6V10V10ZM6 13H7V14H6V13ZM7 2H8V3H7V2ZM7 3H8V4H7V3ZM7 4H8V5H7V4ZM7 5H8V6H7V5ZM7 6H8V7H7V6ZM7 7H8V8H7V7ZM7 13H8V14H7V13ZM8 2H9V3H8V2ZM8 13H9V14H8V13ZM9 2H10V3H9V2ZM9 3H10V4H9V3ZM9 4H10V5H9V4ZM9 5H10V6H9V5ZM9 6H10V7H9V6ZM9 7H10V8H9V7ZM9 13H10V14H9V13ZM10 3H11V4H10V3ZM10 13H11V14H10V13ZM11 3H12V4H11V3ZM11 4H12V5H11V4ZM11 5H12V6H11V5ZM11 6H12V7H11V6ZM11 7H12V8H11V7ZM11 8H12V9H11V8ZM11 13H12V14H11V13ZM12 4H13V5H12V4ZM12 12H13V13H12V12ZM13 4H14V5H13V4ZM13 5H14V6H13V5ZM13 6H14V7H13V6ZM13 7H14V8H13V7ZM13 8H14V9H13V8ZM13 9H14V10H13V9ZM13 10H14V11H13V10V10ZM13 11H14V12H13V11Z" fill="black"/>
</svg>
