<svg width="16" height="16" viewBox="0 0 16 16" fill="none" xmlns="http://www.w3.org/2000/svg">
<path d="M2 3H3V5H2V3ZM2 5H3V6H2V5ZM2 6H3V7H2V6ZM3 2H5V3H3V2ZM3 3H5V5H3V3ZM3 5H5V6H3V5ZM3 6H5V7H3V6ZM3 7H5V9H3V7ZM3 9H5V10H3V9ZM5 2H6V3H5V2ZM5 3H6V5H5V3ZM5 5H6V6H5V5ZM5 6H6V7H5V6ZM5 7H6V9H5V7ZM5 9H6V10H5V9ZM5 10H6V11H5V10ZM6 3H7V5H6V3ZM6 5H7V6H6V5ZM6 6H7V7H6V6ZM6 7H7V9H6V7ZM6 9H7V10H6V9ZM6 10H7V11H6V10ZM6 11H7V13H6V11ZM7 5H9V6H7V5ZM7 6H9V7H7V6ZM7 7H9V9H7V7ZM7 9H9V10H7V9ZM7 10H9V11H7V10ZM7 11H9V13H7V11ZM7 13H9V14H7V13ZM9 3H10V5H9V3ZM9 5H10V6H9V5ZM9 6H10V7H9V6ZM9 7H10V9H9V7ZM9 9H10V10H9V9ZM9 10H10V11H9V10ZM9 11H10V13H9V11ZM10 2H11V3H10V2ZM10 3H11V5H10V3ZM10 5H11V6H10V5ZM10 6H11V7H10V6ZM10 7H11V9H10V7ZM10 9H11V10H10V9ZM10 10H11V11H10V10ZM11 2H13V3H11V2ZM11 3H13V5H11V3ZM11 5H13V6H11V5ZM11 6H13V7H11V6ZM11 7H13V9H11V7ZM11 9H13V10H11V9ZM13 3H14V5H13V3ZM13 5H14V6H13V5ZM13 6H14V7H13V6Z" fill="black"/>
</svg>
