<svg width="16" height="16" viewBox="0 0 16 16" fill="none" xmlns="http://www.w3.org/2000/svg">
<path d="M0 11H1V13H0V11ZM0 13H1V14H0V13ZM1 10H3V11H1V10ZM1 13H3V14H1V13ZM3 9H4V10H3V9ZM3 13H4V14H3V13ZM4 9H5V10H4V9ZM4 13H5V14H4V13ZM5 7H7V9H5V7ZM5 13H7V14H5V13ZM7 7H8V9H7V7ZM7 13H8V14H7V13ZM8 6H9V7H8V6ZM8 11H9V13H8V11ZM9 5H11V6H9V5ZM9 10H11V11H9V10ZM11 2H12V3H11V2ZM11 3H12V5H11V3ZM11 9H12V10H11V9ZM12 2H13V3H12V2ZM12 7H13V9H12V7ZM12 9H13V10H12V9ZM12 10H13V11H12V10ZM12 11H13V13H12V11ZM12 13H13V14H12V13ZM13 2H15V3H13V2ZM13 7H15V9H13V7ZM13 9H15V10H13V9ZM13 10H15V11H13V10ZM13 11H15V13H13V11ZM13 13H15V14H13V13ZM15 3H16V5H15V3ZM15 5H16V6H15V5ZM15 6H16V7H15V6Z" fill="black"/>
</svg>
