<svg width="16" height="16" viewBox="0 0 16 16" fill="none" xmlns="http://www.w3.org/2000/svg">
<g id="home2 1">
<path id="Vector" d="M1 8.5H2V9.5H1V8.5ZM2 7.5H3V8.5H2V7.5ZM3 2.5H5V4.5H4V5.5H3V2.5ZM3 6.5H4V7.5H3V6.5ZM3 8.5H4V7.5H5V6.5H6V5.5H7V4.5H9V5.5H10V6.5H11V7.5H12V8.5H13V13.5H9V9.5H7V13.5H3V8.5ZM4 10.5V12.5H6V10.5H4ZM10 10.5V12.5H12V10.5H10ZM4 5.5H5V6.5H4V5.5ZM5 4.5H6V5.5H5V4.5ZM6 3.5H7V4.5H6V3.5ZM7 2.5H9V3.5H7V2.5ZM9 3.5H10V4.5H9V3.5ZM10 4.5H11V5.5H10V4.5ZM11 5.5H12V6.5H11V5.5ZM12 6.5H13V7.5H12V6.5ZM13 7.5H14V8.5H13V7.5ZM14 8.5H15V9.5H14V8.5Z" fill="black"/>
</g>
</svg>
