<svg width="16" height="16" viewBox="0 0 16 16" fill="none" xmlns="http://www.w3.org/2000/svg">
<path d="M2 13H3V14H2V13ZM3 13H4V14H3V13ZM4 13H5V14H4V13ZM5 13H6V14H5V13ZM6 12H7V13H6V12ZM7 5H8V6H7V5ZM7 12H8V13H7V12ZM8 4H9V5H8V4ZM8 5H9V6H8V5ZM8 11H9V12H8V11ZM9 3H10V4H9V3ZM9 4H10V5H9V4ZM9 5H10V6H9V5ZM9 9H10V10H9V9ZM9 10H10V11H9V10ZM10 2H11V3H10V2ZM10 3H11V4H10V3ZM10 4H11V5H10V4ZM10 5H11V6H10V5ZM10 6H11V7H10V6ZM10 7H11V8H10V7ZM10 8H11V9H10V8ZM11 3H12V4H11V3ZM11 4H12V5H11V4ZM11 5H12V6H11V5ZM12 4H13V5H12V4ZM12 5H13V6H12V5ZM13 5H14V6H13V5Z" fill="black"/>
</svg>
