<svg width="16" height="16" viewBox="0 0 16 16" fill="none" xmlns="http://www.w3.org/2000/svg">
<path d="M2 7H3V8H2V7ZM2 8H3V9H2V8ZM3 6H4V7H3V6ZM3 7H4V8H3V7ZM3 8H4V9H3V8ZM4 5H5V6H4V5ZM4 6H5V7H4V6ZM4 7H5V8H4V7ZM4 8H5V9H4V8ZM4 9H5V10H4V9ZM4 10H5V11H4V10ZM4 11H5V12H4V11ZM4 12H5V13H4V12ZM4 13H5V14H4V13ZM5 4H6V5H5V4ZM5 5H6V6H5V5ZM5 6H6V7H5V6ZM5 7H6V8H5V7ZM5 8H6V9H5V8ZM5 11H6V12H5V11ZM5 12H6V13H5V12ZM5 13H6V14H5V13ZM6 3H7V4H6V3ZM6 4H7V5H6V4ZM6 5H7V6H6V5ZM6 6H7V7H6V6ZM6 7H7V8H6V7ZM6 8H7V9H6V8ZM6 11H7V12H6V11ZM6 12H7V13H6V12ZM6 13H7V14H6V13ZM7 2H8V3H7V2ZM7 3H8V4H7V3ZM7 4H8V5H7V4ZM7 5H8V6H7V5ZM7 6H8V7H7V6ZM7 7H8V8H7V7ZM7 8H8V9H7V8ZM7 9H8V10H7V9ZM7 10H8V11H7V10ZM7 11H8V12H7V11ZM7 12H8V13H7V12ZM7 13H8V14H7V13ZM8 2H9V3H8V2ZM8 3H9V4H8V3ZM8 4H9V5H8V4ZM8 5H9V6H8V5ZM8 6H9V7H8V6ZM8 7H9V8H8V7ZM8 8H9V9H8V8ZM8 9H9V10H8V9ZM8 10H9V11H8V10ZM8 11H9V12H8V11ZM8 12H9V13H8V12ZM8 13H9V14H8V13ZM9 3H10V4H9V3ZM9 4H10V5H9V4ZM9 5H10V6H9V5ZM9 6H10V7H9V6ZM9 7H10V8H9V7ZM9 8H10V9H9V8ZM9 11H10V12H9V11ZM9 12H10V13H9V12ZM9 13H10V14H9V13ZM10 4H11V5H10V4ZM10 5H11V6H10V5ZM10 6H11V7H10V6ZM10 7H11V8H10V7ZM10 8H11V9H10V8ZM10 11H11V12H10V11ZM10 12H11V13H10V12ZM10 13H11V14H10V13ZM11 5H12V6H11V5ZM11 6H12V7H11V6ZM11 7H12V8H11V7ZM11 8H12V9H11V8ZM11 9H12V10H11V9ZM11 10H12V11H11V10ZM11 11H12V12H11V11ZM11 12H12V13H11V12ZM11 13H12V14H11V13ZM12 6H13V7H12V6ZM12 7H13V8H12V7ZM12 8H13V9H12V8ZM13 7H14V8H13V7ZM13 8H14V9H13V8Z" fill="black"/>
</svg>
