<svg width="16" height="16" viewBox="0 0 16 16" fill="none" xmlns="http://www.w3.org/2000/svg">
<path d="M1 5H2V6H1V5ZM1 6H2V7H1V6ZM1 7H2V9H1V7ZM1 9H2V10H1V9ZM1 10H2V11H1V10ZM1 11H2V12H1V11ZM1 12H2V13H1V12ZM1 13H2V14H1V13ZM2 5H3V6H2V5ZM2 9H3V10H2V9ZM2 10H3V11H2V10ZM2 13H3V14H2V13ZM3 2H4V3H3V2ZM3 3H4V4H3V3ZM3 5H4V6H3V5ZM3 9H4V10H3V9ZM3 10H4V11H3V10ZM3 13H4V14H3V13ZM4 2H5V3H4V2ZM4 4H5V5H4V4ZM4 5H5V6H4V5ZM4 6H5V7H4V6ZM4 7H5V9H4V7ZM4 9H5V10H4V9ZM4 10H5V11H4V10ZM4 11H5V12H4V11ZM4 12H5V13H4V12ZM4 13H5V14H4V13ZM5 3H6V4H5V3ZM5 4H6V5H5V4ZM5 5H6V6H5V5ZM5 6H6V7H5V6ZM5 7H6V9H5V7ZM5 9H6V10H5V9ZM5 10H6V11H5V10ZM5 11H6V12H5V11ZM5 12H6V13H5V12ZM5 13H6V14H5V13ZM6 2H7V3H6V2ZM6 4H7V5H6V4ZM6 5H7V6H6V5ZM6 9H7V10H6V9ZM6 10H7V11H6V10ZM6 13H7V14H6V13ZM7 2H9V3H7V2ZM7 3H9V4H7V3ZM7 5H9V6H7V5ZM7 9H9V10H7V9ZM7 10H9V11H7V10ZM7 13H9V14H7V13ZM9 5H10V6H9V5ZM9 9H10V10H9V9ZM9 10H10V11H9V10ZM9 13H10V14H9V13ZM10 5H11V6H10V5ZM10 9H11V10H10V9ZM10 10H11V11H10V10ZM10 13H11V14H10V13ZM11 5H12V6H11V5ZM11 9H12V10H11V9ZM11 10H12V11H11V10ZM11 13H12V14H11V13ZM12 5H13V6H12V5ZM12 9H13V10H12V9ZM12 10H13V11H12V10ZM12 13H13V14H12V13ZM13 5H14V6H13V5ZM13 6H14V7H13V6ZM13 7H14V9H13V7ZM13 9H14V10H13V9ZM13 10H14V11H13V10ZM13 11H14V12H13V11ZM13 12H14V13H13V12ZM13 13H14V14H13V13Z" fill="black"/>
</svg>
