<svg width="16" height="16" viewBox="0 0 16 16" fill="none" xmlns="http://www.w3.org/2000/svg">
<path d="M2 2H3V3H2V2ZM2 13H3V14H2V13ZM3 2H4V3H3V2ZM3 5H4V6H3V5ZM3 6H4V7H3V6ZM3 7H4V8H3V7ZM3 8H4V9H3V8ZM3 9H4V10H3V9ZM3 10H4V11H3V10ZM3 13H4V14H3V13ZM4 2H5V3H4V2ZM4 4H5V5H4V4ZM4 11H5V12H4V11ZM4 13H5V14H4V13ZM5 2H6V3H5V2ZM5 4H6V5H5V4ZM5 11H6V12H5V11ZM5 13H6V14H5V13ZM6 2H7V3H6V2V2ZM6 5H7V6H6V5V5ZM6 6H7V7H6V6V6ZM6 9H7V10H6V9V9ZM6 10H7V11H6V10V10ZM6 13H7V14H6V13V13ZM7 2H8V3H7V2ZM7 13H8V14H7V13ZM8 2H9V3H8V2ZM8 13H9V14H8V13ZM9 2H10V3H9V2ZM9 4H10V5H9V4ZM9 5H10V6H9V5ZM9 6H10V7H9V6ZM9 7H10V8H9V7ZM9 8H10V9H9V8ZM9 9H10V10H9V9ZM9 10H10V11H9V10ZM9 11H10V12H9V11ZM9 13H10V14H9V13ZM10 2H11V3H10V2ZM10 11H11V12H10V11ZM10 13H11V14H10V13ZM11 2H12V3H11V2ZM11 11H12V12H11V11ZM11 13H12V14H11V13ZM12 2H13V3H12V2ZM12 11H13V12H12V11ZM12 13H13V14H12V13ZM13 2H14V3H13V2ZM13 13H14V14H13V13Z" fill="black"/>
</svg>
