<svg width="16" height="16" viewBox="0 0 16 16" fill="none" xmlns="http://www.w3.org/2000/svg">
<path d="M4 13V14H3V13H4Z" fill="black"/>
<path d="M3 12V13H2V12H3Z" fill="black"/>
<path d="M5 12V13H4V12H5Z" fill="black"/>
<path d="M4 11V12H3V11H4Z" fill="black"/>
<path d="M5 11H4V10H6V12H5V11Z" fill="black"/>
<path d="M13 11V12H12V11H13Z" fill="black"/>
<path d="M10 10V11H7V10H10Z" fill="black"/>
<path d="M7 9V10H6V9H7Z" fill="black"/>
<path d="M11 9V10H10V9H11Z" fill="black"/>
<path d="M5 6H6V9H5V6Z" fill="black"/>
<path d="M11 6H12V9H11V6Z" fill="black"/>
<path d="M14 7V8H13V7H14Z" fill="black"/>
<path d="M7 5V6H6V5H7Z" fill="black"/>
<path d="M11 5V6H10V5H11Z" fill="black"/>
<path d="M10 4V5H7V4H10Z" fill="black"/>
<path d="M6 3V4H5V3H6Z" fill="black"/>
<path d="M12 3V4H11V3H12Z" fill="black"/>
<path d="M9 2V3H8V2H9Z" fill="black"/>
</svg>
