<svg width="16" height="16" viewBox="0 0 16 16" fill="none" xmlns="http://www.w3.org/2000/svg">
<path d="M14 7H13V8H14V7ZM13 11H12V12H13V11ZM12 3H11V4H12V3ZM12 6H11V7H12V6ZM12 7H11V8H12V7ZM12 8H11V9H12V8ZM11 5H10V6H11V5ZM11 9H10V10H11V9ZM10 4H9V5H10V4ZM10 10H9V11H10V10ZM9 2H8V3H9V2ZM9 4H8V5H9V4ZM9 10H8V11H9V10ZM8 4H7V5H8V4ZM8 10H7V11H8V10ZM7 5H6V6H7V5ZM7 9H6V10H7V9ZM6 3H5V4H6V3ZM6 6H5V7H6V6ZM6 7H5V8H6V7ZM6 8H5V9H6V8ZM6 10H5V11H6V10ZM6 11H5V12H6V11ZM5 10H4V11H5V10ZM5 12H4V13H5V12ZM4 11H3V12H4V11ZM4 13H3V14H4V13ZM3 12H2V13H3V12Z" fill="black"/>
</svg>
