<svg width="16" height="16" viewBox="0 0 16 16" fill="none" xmlns="http://www.w3.org/2000/svg">
<path d="M5 3H6V4H5V3V3ZM5 4H6V5H5V4V4ZM5 5H6V6H5V5V5ZM6 2H7V3H6V2ZM6 4H7V5H6V4ZM6 6H7V7H6V6ZM6 8H7V9H6V8ZM6 9H7V10H6V9ZM6 10H7V11H6V10ZM6 11H7V12H6V11ZM7 2H8V3H7V2ZM7 3H8V4H7V3ZM7 4H8V5H7V4ZM7 5H8V6H7V5ZM7 6H8V7H7V6ZM7 8H8V9H7V8ZM7 9H8V10H7V9ZM7 10H8V11H7V10ZM7 11H8V12H7V11ZM7 12H8V13H7V12ZM8 2H9V3H8V2ZM8 4H9V5H8V4ZM8 6H9V7H8V6ZM8 8H9V9H8V8ZM8 9H9V10H8V9ZM8 10H9V11H8V10ZM8 11H9V12H8V11ZM8 13H9V14H8V13ZM9 3H10V4H9V3ZM9 4H10V5H9V4ZM9 5H10V6H9V5ZM9 13H10V14H9V13Z" fill="black"/>
</svg>
