<svg width="16" height="16" viewBox="0 0 16 16" fill="none" xmlns="http://www.w3.org/2000/svg">
<path d="M2 5H3V6H2V5ZM2 6H3V7H2V6ZM2 7H3V8H2V7ZM2 8H3V9H2V8ZM2 9H3V10H2V9ZM2 10H3V11H2V10ZM3 4H4V5H3V4ZM3 11H4V12H3V11ZM4 4H5V5H4V4ZM4 11H5V12H4V11ZM4 12H5V13H4V12ZM4 13H5V14H4V13ZM5 2H6V3H5V2ZM5 4H6V5H5V4ZM5 6H6V7H5V6ZM5 7H6V8H5V7ZM5 8H6V9H5V8ZM5 9H6V10H5V9ZM5 11H6V12H5V11ZM6 3H7V4H6V3ZM6 4H7V5H6V4ZM6 6H7V7H6V6ZM6 7H7V8H6V7ZM6 8H7V9H6V8ZM6 9H7V10H6V9ZM6 11H7V12H6V11ZM7 4H8V5H7V4ZM7 6H8V7H7V6ZM7 7H8V8H7V7ZM7 8H8V9H7V8ZM7 9H8V10H7V9ZM7 11H8V12H7V11ZM8 4H9V5H8V4ZM8 6H9V7H8V6ZM8 7H9V8H8V7ZM8 8H9V9H8V8ZM8 9H9V10H8V9ZM8 11H9V12H8V11ZM9 3H10V4H9V3ZM9 4H10V5H9V4ZM9 6H10V7H9V6ZM9 7H10V8H9V7ZM9 8H10V9H9V8ZM9 9H10V10H9V9ZM9 11H10V12H9V11ZM10 2H11V3H10V2ZM10 4H11V5H10V4ZM10 11H11V12H10V11ZM11 4H12V5H11V4ZM11 6H12V7H11V6ZM11 8H12V9H11V8ZM11 11H12V12H11V11ZM11 12H12V13H11V12ZM11 13H12V14H11V13ZM12 4H13V5H12V4ZM12 11H13V12H12V11ZM13 5H14V6H13V5ZM13 6H14V7H13V6ZM13 7H14V8H13V7ZM13 8H14V9H13V8ZM13 9H14V10H13V9ZM13 10H14V11H13V10Z" fill="black"/>
</svg>
