<svg width="16" height="16" viewBox="0 0 16 16" fill="none" xmlns="http://www.w3.org/2000/svg">
<path d="M2 6H3V7H2V6ZM2 7H3V8H2V7ZM2 8H3V9H2V8ZM2 9H3V10H2V9ZM3 4H4V5H3V4ZM3 5H4V6H3V5ZM3 6H4V7H3V6ZM3 7H4V8H3V7ZM3 8H4V9H3V8ZM3 9H4V10H3V9ZM3 10H4V11H3V10ZM3 11H4V12H3V11ZM4 3H5V4H4V3ZM4 4H5V5H4V4ZM4 5H5V6H4V5ZM4 6H5V7H4V6ZM4 7H5V8H4V7ZM4 8H5V9H4V8ZM4 9H5V10H4V9ZM4 10H5V11H4V10ZM4 12H5V13H4V12ZM5 3H6V4H5V3ZM5 4H6V5H5V4ZM5 5H6V6H5V5ZM5 6H6V7H5V6ZM5 7H6V8H5V7ZM5 8H6V9H5V8ZM5 9H6V10H5V9ZM5 10H6V11H5V10ZM5 12H6V13H5V12ZM6 2H7V3H6V2ZM6 3H7V4H6V3ZM6 4H7V5H6V4ZM6 5H7V6H6V5ZM6 6H7V7H6V6ZM6 7H7V8H6V7ZM6 8H7V9H6V8ZM6 9H7V10H6V9ZM6 10H7V11H6V10ZM6 13H7V14H6V13ZM7 2H8V3H7V2ZM7 3H8V4H7V3ZM7 4H8V5H7V4ZM7 5H8V6H7V5ZM7 6H8V7H7V6ZM7 7H8V8H7V7ZM7 8H8V9H7V8ZM7 9H8V10H7V9ZM7 13H8V14H7V13ZM8 2H9V3H8V2ZM8 3H9V4H8V3ZM8 4H9V5H8V4ZM8 5H9V6H8V5ZM8 6H9V7H8V6ZM8 7H9V8H8V7ZM8 8H9V9H8V8ZM8 9H9V10H8V9ZM8 13H9V14H8V13ZM9 2H10V3H9V2ZM9 3H10V4H9V3ZM9 4H10V5H9V4ZM9 5H10V6H9V5ZM9 6H10V7H9V6ZM9 7H10V8H9V7ZM9 8H10V9H9V8ZM9 13H10V14H9V13ZM10 3H11V4H10V3ZM10 4H11V5H10V4ZM10 5H11V6H10V5ZM10 6H11V7H10V6ZM10 12H11V13H10V12ZM11 3H12V4H11V3ZM11 12H12V13H11V12ZM12 4H13V5H12V4ZM12 5H13V6H12V5ZM12 10H13V11H12V10ZM12 11H13V12H12V11ZM13 6H14V7H13V6ZM13 7H14V8H13V7ZM13 8H14V9H13V8ZM13 9H14V10H13V9Z" fill="black"/>
</svg>
