<svg width="16" height="16" viewBox="0 0 16 16" fill="none" xmlns="http://www.w3.org/2000/svg">
<path d="M3 12H4V13H3V12ZM3 13H4V14H3V13ZM4 12H5V13H4V12ZM4 13H5V14H4V13ZM5 11H6V12H5V11ZM5 12H6V13H5V12ZM6 2H7V3H6V2V2ZM6 3H7V4H6V3V3ZM6 4H7V5H6V4ZM6 5H7V6H6V5ZM6 6H7V7H6V6ZM6 7H7V9H6V7ZM6 9H7V10H6V9ZM6 10H7V11H6V10ZM6 11H7V12H6V11ZM7 3H9V4H7V3ZM7 4H9V5H7V4ZM9 4H10V5H9V4ZM9 5H10V6H9V5ZM9 12H10V13H9V12ZM10 5H11V6H10V5ZM10 6H11V7H10V6ZM10 11H11V12H10V11ZM11 7H12V9H11V7V7ZM11 9H12V10H11V9ZM11 10H12V11H11V10Z" fill="black"/>
</svg>
