<svg width="16" height="16" viewBox="0 0 16 16" fill="none" xmlns="http://www.w3.org/2000/svg">
<path d="M12 0H13V1H12V0ZM12 1H13V2H12V1ZM12 2H13V3H12V2ZM3 3H16V4H3V3ZM3 4H4V5H3V4ZM12 4H13V5H12V4ZM3 5H4V6H3V5ZM12 5H13V6H12V5ZM3 6H4V7H3V6ZM12 6H13V7H12V6ZM3 7H4V8H3V7ZM12 7H13V8H12V7ZM3 8H4V9H3V8ZM12 8H13V9H12V8ZM3 9H4V10H3V9ZM12 9H13V10H12V9ZM3 10H4V11H3V10ZM12 10H13V11H12V10ZM3 11H4V12H3V11ZM12 11H13V12H12V11ZM0 12H13V13H0V12ZM3 13H4V14H3V13ZM3 14H4V15H3V14ZM3 15H4V16H3V15Z" fill="black"/>
</svg>
