<svg width="16" height="16" viewBox="0 0 16 16" fill="none" xmlns="http://www.w3.org/2000/svg">
<path d="M2 4H3V5H2V4ZM2 5H3V6H2V5ZM2 8H3V9H2V8ZM2 9H3V10H2V9ZM2 10H3V11H2V10ZM2 11H3V12H2V11ZM2 12H3V13H2V12ZM3 3H4V4H3V3ZM3 5H4V6H3V5ZM3 7H4V8H3V7ZM3 13H4V14H3V13ZM4 2H5V3H4V2ZM4 5H5V6H4V5ZM4 6H5V7H4V6ZM4 13H5V14H4V13ZM5 2H6V3H5V2ZM5 5H6V6H5V5ZM5 13H6V14H5V13ZM6 2H7V3H6V2ZM6 4H7V5H6V4ZM6 8H7V9H6V8ZM6 9H7V10H6V9ZM6 10H7V11H6V10ZM6 11H7V12H6V11ZM6 13H7V14H6V13ZM7 2H8V3H7V2ZM7 4H8V5H7V4ZM7 8H8V9H7V8ZM7 9H8V10H7V9ZM7 10H8V11H7V10ZM7 11H8V12H7V11ZM7 13H8V14H7V13ZM8 2H9V3H8V2ZM8 4H9V5H8V4ZM8 8H9V9H8V8ZM8 9H9V10H8V9ZM8 10H9V11H8V10ZM8 11H9V12H8V11ZM8 13H9V14H8V13ZM9 2H10V3H9V2ZM9 4H10V5H9V4ZM9 8H10V9H9V8ZM9 9H10V10H9V9ZM9 10H10V11H9V10ZM9 11H10V12H9V11ZM9 13H10V14H9V13ZM10 2H11V3H10V2ZM10 5H11V6H10V5ZM10 13H11V14H10V13ZM11 2H12V3H11V2ZM11 5H12V6H11V5ZM11 6H12V7H11V6ZM11 13H12V14H11V13ZM12 3H13V4H12V3ZM12 5H13V6H12V5ZM12 7H13V8H12V7ZM12 13H13V14H12V13ZM13 4H14V5H13V4ZM13 5H14V6H13V5ZM13 8H14V9H13V8ZM13 9H14V10H13V9ZM13 10H14V11H13V10ZM13 11H14V12H13V11ZM13 12H14V13H13V12Z" fill="black"/>
</svg>
