<svg width="16" height="16" viewBox="0 0 16 16" fill="none" xmlns="http://www.w3.org/2000/svg">
<path d="M5 2H6V3H5V2V2ZM5 3H6V4H5V3V3ZM5 4H6V5H5V4V4ZM5 5H6V6H5V5V5ZM5 6H6V7H5V6V6ZM5 7H6V8H5V7V7ZM5 8H6V9H5V8V8ZM5 9H6V10H5V9V9ZM5 10H6V11H5V10V10ZM5 11H6V12H5V11V11ZM5 12H6V13H5V12V12ZM5 13H6V14H5V13V13ZM6 4H7V5H6V4ZM6 5H7V6H6V5ZM6 8H7V9H6V8ZM6 9H7V10H6V9ZM6 10H7V11H6V10V10ZM6 11H7V12H6V11ZM6 12H7V13H6V12ZM6 13H7V14H6V13ZM7 4H8V5H7V4ZM7 5H8V6H7V5ZM7 8H8V9H7V8ZM7 9H8V10H7V9ZM7 10H8V11H7V10V10ZM7 11H8V12H7V11ZM7 12H8V13H7V12ZM7 13H8V14H7V13ZM8 4H9V5H8V4ZM8 5H9V6H8V5ZM8 8H9V9H8V8ZM8 9H9V10H8V9ZM8 10H9V11H8V10V10ZM8 11H9V12H8V11ZM8 12H9V13H8V12ZM8 13H9V14H8V13ZM9 4H10V5H9V4ZM9 5H10V6H9V5ZM9 6H10V7H9V6ZM9 7H10V8H9V7ZM9 8H10V9H9V8ZM9 9H10V10H9V9ZM9 10H10V11H9V10V10ZM9 11H10V12H9V11ZM9 12H10V13H9V12ZM9 13H10V14H9V13Z" fill="black"/>
</svg>
