<svg width="19" height="16" viewBox="0 0 19 16" fill="none" xmlns="http://www.w3.org/2000/svg">
<path d="M0 9H2V11H0V9ZM0 11H2V12H0V11ZM2 7H3V9H2V7ZM2 9H3V11H2V9ZM2 11H3V12H2V11ZM3 7H5V9H3V7ZM3 9H5V11H3V9ZM3 11H5V12H3V11ZM5 5H7V7H5V5ZM5 7H7V9H5V7ZM5 9H7V11H5V9ZM5 11H7V12H5V11ZM5 12H7V14H5V12ZM7 4H9V5H7V4ZM7 7H9V9H7V7ZM7 9H9V11H7V9ZM7 11H9V12H7V11ZM7 12H9V14H7V12ZM9 2H10V4H9V2ZM9 7H10V9H9V7ZM9 9H10V11H9V9ZM9 11H10V12H9V11ZM10 2H12V4H10V2ZM10 4H12V5H10V4ZM10 5H12V7H10V5ZM10 7H12V9H10V7ZM10 9H12V11H10V9ZM10 11H12V12H10V11ZM12 2H14V4H12V2ZM12 7H14V9H12V7ZM12 9H14V11H12V9ZM12 11H14V12H12V11ZM14 2H16V4H14V2ZM14 4H16V5H14V4ZM14 5H16V7H14V5ZM14 7H16V9H14V7ZM14 9H16V11H14V9ZM14 11H16V12H14V11ZM14 12H16V14H14V12ZM16 7H17V9H16V7ZM16 9H17V11H16V9ZM16 11H17V12H16V11ZM16 12H17V14H16V12ZM17 9H19V11H17V9ZM17 11H19V12H17V11Z" fill="black"/>
</svg>
