<svg width="16" height="16" viewBox="0 0 16 16" fill="none" xmlns="http://www.w3.org/2000/svg">
<path d="M2 12H3V13H2V12ZM2 13H3V14H2V13ZM3 2H4V3H3V2ZM3 3H4V4H3V3ZM3 4H4V5H3V4ZM3 5H4V6H3V5ZM3 6H4V7H3V6ZM3 7H4V8H3V7ZM3 8H4V9H3V8ZM3 9H4V10H3V9ZM3 10H4V11H3V10ZM3 12H4V13H3V12ZM3 13H4V14H3V13ZM4 2H5V3H4V2ZM4 3H5V4H4V3ZM4 4H5V5H4V4ZM4 5H5V6H4V5ZM4 6H5V7H4V6ZM4 7H5V8H4V7ZM5 2H6V3H5V2ZM5 3H6V4H5V3ZM5 4H6V5H5V4ZM5 5H6V6H5V5ZM8 3H9V4H8V3ZM8 4H9V5H8V4ZM8 5H9V6H8V5ZM9 2H10V3H9V2ZM9 3H10V4H9V3ZM9 12H10V13H9V12ZM9 13H10V14H9V13ZM10 2H11V3H10V2ZM10 9H11V10H10V9ZM10 10H11V11H10V10ZM10 12H11V13H10V12ZM10 13H11V14H10V13ZM11 2H12V3H11V2ZM11 3H12V4H11V3ZM11 7H12V8H11V7ZM11 8H12V9H11V8ZM12 2H13V3H12V2ZM12 3H13V4H12V3ZM12 4H13V5H12V4ZM12 5H13V6H12V5ZM12 6H13V7H12V6ZM12 7H13V8H12V7ZM13 3H14V4H13V3ZM13 4H14V5H13V4ZM13 5H14V6H13V5ZM13 6H14V7H13V6Z" fill="black"/>
</svg>
