<svg width="16" height="16" viewBox="0 0 16 16" fill="none" xmlns="http://www.w3.org/2000/svg">
<path d="M2 2H3V3H2V2ZM2 3H3V4H2V3ZM2 6H3V7H2V6ZM2 7H3V8H2V7ZM2 8H3V9H2V8ZM2 9H3V10H2V9ZM2 10H3V11H2V10ZM2 11H3V12H2V11ZM2 12H3V13H2V12ZM2 13H3V14H2V13ZM3 4H4V5H3V4ZM3 5H4V6H3V5ZM4 4H5V5H4V4ZM4 5H5V6H4V5ZM5 2H6V3H5V2ZM5 3H6V4H5V3ZM5 6H6V7H5V6ZM5 7H6V8H5V7ZM6 2H7V3H6V2ZM6 3H7V4H6V3ZM6 6H7V7H6V6ZM6 7H7V8H6V7ZM7 4H8V5H7V4ZM7 5H8V6H7V5ZM8 4H9V5H8V4ZM8 5H9V6H8V5ZM9 2H10V3H9V2ZM9 3H10V4H9V3ZM9 6H10V7H9V6ZM9 7H10V8H9V7ZM10 2H11V3H10V2ZM10 3H11V4H10V3ZM10 6H11V7H10V6ZM10 7H11V8H10V7ZM11 4H12V5H11V4ZM11 5H12V6H11V5ZM12 4H13V5H12V4ZM12 5H13V6H12V5ZM13 2H14V3H13V2ZM13 3H14V4H13V3ZM13 6H14V7H13V6ZM13 7H14V8H13V7Z" fill="black"/>
</svg>
