<svg width="16" height="16" viewBox="0 0 16 16" fill="none" xmlns="http://www.w3.org/2000/svg">
<g id="rad-mark 1">
<path id="Vector" fill-rule="evenodd" clip-rule="evenodd" d="M7.53843 2.92307V2H8.46149V2.92307H9.38457V3.84614H6.61536V2.92307H7.53843ZM13.0769 7.53842H14V8.46149H13.0769V9.38455H12.1538V6.61534H13.0769V7.53842ZM2 8.4616H2.92307V9.38468H3.84614V6.61547H2.92307V7.53855H2V8.4616ZM4.76925 4.76908V5.69213H3.84617V3.846H5.6923V4.76908H4.76925ZM10.3077 4.76908H11.2308V5.69213H12.1538V3.846H10.3077V4.76908ZM11.2308 11.2306V10.3075H12.1538V12.1537H10.3077V11.2306H11.2308ZM5.6923 11.2306H4.76925V10.3075H3.84617V12.1537H5.6923V11.2306ZM8.4616 13.0769V14H7.53853V13.0769H6.61545V12.1539H9.38466V13.0769H8.4616ZM6.6153 4.76936H9.38451V5.69243H10.3076V6.61551H11.2307V9.38472H10.3076V10.3078H9.38451V11.2309H6.6153V10.3078H5.69223V9.38472H4.76915V6.61551H5.69223V5.69243H6.6153V4.76936Z" fill="black"/>
</g>
</svg>
