<svg width="16" height="16" viewBox="0 0 16 16" fill="none" xmlns="http://www.w3.org/2000/svg">
<path d="M2 7H3V9H2V7ZM2 9H3V10H2V9ZM2 10H3V11H2V10ZM2 11H3V12H2V11ZM2 12H3V13H2V12ZM2 13H3V14H2V13ZM3 6H4V7H3V6ZM3 7H4V9H3V7ZM3 9H4V10H3V9ZM3 10H4V11H3V10ZM3 11H4V12H3V11ZM3 12H4V13H3V12ZM3 13H4V14H3V13ZM4 4H5V5H4V4ZM4 5H5V6H4V5ZM4 6H5V7H4V6ZM4 7H5V9H4V7ZM4 10H5V11H4V10ZM4 12H5V13H4V12ZM4 13H5V14H4V13ZM5 3H6V4H5V3ZM5 6H6V7H5V6ZM5 7H6V9H5V7ZM5 9H6V10H5V9ZM5 11H6V12H5V11ZM5 13H6V14H5V13ZM6 2H7V3H6V2ZM6 6H7V7H6V6ZM6 7H7V9H6V7ZM6 10H7V11H6V10ZM6 12H7V13H6V12ZM6 13H7V14H6V13ZM7 2H9V3H7V2ZM7 6H9V7H7V6ZM7 7H9V9H7V7ZM7 9H9V10H7V9ZM7 11H9V12H7V11ZM7 13H9V14H7V13ZM9 2H10V3H9V2ZM9 6H10V7H9V6ZM9 7H10V9H9V7ZM9 10H10V11H9V10ZM9 12H10V13H9V12ZM9 13H10V14H9V13ZM10 3H11V4H10V3ZM10 6H11V7H10V6ZM10 7H11V9H10V7ZM10 9H11V10H10V9ZM10 11H11V12H10V11ZM10 13H11V14H10V13ZM11 4H12V5H11V4ZM11 5H12V6H11V5ZM11 6H12V7H11V6ZM11 7H12V9H11V7ZM11 10H12V11H11V10ZM11 12H12V13H11V12ZM11 13H12V14H11V13ZM12 6H13V7H12V6ZM12 7H13V9H12V7ZM12 9H13V10H12V9ZM12 10H13V11H12V10ZM12 11H13V12H12V11ZM12 12H13V13H12V12ZM12 13H13V14H12V13ZM13 7H14V9H13V7ZM13 9H14V10H13V9ZM13 10H14V11H13V10ZM13 11H14V12H13V11ZM13 12H14V13H13V12ZM13 13H14V14H13V13Z" fill="black"/>
</svg>
