<svg width="16" height="16" viewBox="0 0 16 16" fill="none" xmlns="http://www.w3.org/2000/svg">
<path d="M0 10H1V12H0V10ZM1 12H2V13H1V12ZM2 2H4V3H2V2ZM2 12H4V13H2V12ZM4 2H5V3H4V2ZM4 10H5V12H4V10ZM4 13H5V14H4V13ZM5 2H6V3H5V2ZM5 3H6V4H5V3ZM5 4H6V6H5V4ZM5 6H6V7H5V6ZM5 7H6V8H5V7ZM5 8H6V9H5V8ZM5 9H6V10H5V9ZM5 13H6V14H5V13ZM6 7H8V8H6V7ZM6 8H8V9H6V8ZM6 13H8V14H6V13ZM8 7H9V8H8V7ZM8 8H9V9H8V8ZM8 13H9V14H8V13ZM9 7H10V8H9V7ZM9 8H10V9H9V8ZM9 13H10V14H9V13ZM10 7H11V8H10V7ZM10 8H11V9H10V8ZM10 9H11V10H10V9ZM10 13H11V14H10V13ZM11 6H13V7H11V6ZM11 10H13V12H11V10ZM11 12H13V13H11V12ZM11 13H13V14H11V13ZM13 4H14V6H13V4ZM13 12H14V13H13V12ZM14 4H15V6H14V4ZM14 10H15V12H14V10Z" fill="black"/>
</svg>
