<svg width="16" height="16" viewBox="0 0 16 16" fill="none" xmlns="http://www.w3.org/2000/svg">
<path d="M3 10H4V11H3V10ZM4 8H5V9H4V8ZM4 9H5V10H4V9ZM4 10H5V11H4V10ZM4 12H5V13H4V12ZM5 6H6V7H5V6ZM5 7H6V8H5V7ZM5 10H6V11H5V10ZM5 12H6V13H5V12ZM5 13H6V14H5V13ZM6 5H7V6H6V5ZM6 10H7V11H6V10ZM6 12H7V13H6V12ZM6 13H7V14H6V13ZM7 2H8V3H7V2ZM7 3H8V4H7V3ZM7 4H8V5H7V4ZM7 5H8V6H7V5ZM7 6H8V7H7V6ZM7 7H8V8H7V7ZM7 8H8V9H7V8ZM7 9H8V10H7V9ZM7 10H8V11H7V10ZM7 12H8V13H7V12ZM7 13H8V14H7V13ZM8 12H9V13H8V12ZM8 13H9V14H8V13ZM9 5H10V6H9V5ZM9 6H10V7H9V6ZM9 7H10V8H9V7ZM9 8H10V9H9V8ZM9 9H10V10H9V9ZM9 10H10V11H9V10ZM9 12H10V13H9V12ZM9 13H10V14H9V13ZM10 7H11V8H10V7ZM10 8H11V9H10V8ZM10 9H11V10H10V9ZM10 10H11V11H10V10ZM10 12H11V13H10V12ZM10 13H11V14H10V13ZM11 9H12V10H11V9ZM11 10H12V11H11V10ZM11 12H12V13H11V12ZM12 10H13V11H12V10Z" fill="black"/>
</svg>
