<svg width="16" height="16" viewBox="0 0 16 16" fill="none" xmlns="http://www.w3.org/2000/svg">
<path d="M3 11H4V12H3V11ZM3 12H4V13H3V12ZM3 13H4V14H3V13ZM4 2H5V3H4V2ZM4 3H5V4H4V3ZM4 4H5V5H4V4ZM4 11H5V12H4V11ZM4 13H5V14H4V13ZM5 4H6V5H5V4ZM5 5H6V6H5V5ZM5 6H6V7H5V6ZM5 11H6V12H5V11ZM5 12H6V13H5V12ZM5 13H6V14H5V13ZM6 6H7V7H6V6ZM6 7H7V8H6V7ZM6 10H7V11H6V10ZM7 8H8V9H7V8ZM7 9H8V10H7V9ZM8 8H9V9H8V8ZM8 9H9V10H8V9ZM9 6H10V7H9V6ZM9 7H10V8H9V7ZM9 10H10V11H9V10ZM10 4H11V5H10V4ZM10 5H11V6H10V5ZM10 6H11V7H10V6ZM10 11H11V12H10V11ZM10 12H11V13H10V12ZM10 13H11V14H10V13ZM11 2H12V3H11V2ZM11 3H12V4H11V3ZM11 4H12V5H11V4ZM11 11H12V12H11V11ZM11 13H12V14H11V13ZM12 11H13V12H12V11ZM12 12H13V13H12V12ZM12 13H13V14H12V13Z" fill="black"/>
</svg>
