<svg width="16" height="16" viewBox="0 0 16 16" fill="none" xmlns="http://www.w3.org/2000/svg">
<path d="M3 6H4V7H3V6ZM3 7H4V9H3V7ZM3 9H4V10H3V9ZM3 10H4V11H3V10ZM4 5H5V6H4V5ZM4 6H5V7H4V6ZM4 7H5V9H4V7ZM4 9H5V10H4V9ZM4 10H5V11H4V10ZM4 11H5V12H4V11ZM5 4H6V5H5V4ZM5 5H6V6H5V5ZM5 6H6V7H5V6ZM5 7H6V9H5V7ZM5 9H6V10H5V9ZM5 10H6V11H5V10ZM5 11H6V12H5V11ZM6 3H7V4H6V3ZM6 4H7V5H6V4ZM6 5H7V6H6V5ZM6 6H7V7H6V6ZM6 7H7V9H6V7ZM6 9H7V10H6V9ZM6 10H7V11H6V10ZM6 13H7V14H6V13ZM7 2H9V3H7V2ZM7 3H9V4H7V3ZM7 4H9V5H7V4ZM7 5H9V6H7V5ZM7 6H9V7H7V6ZM7 7H9V9H7V7ZM7 9H9V10H7V9ZM7 10H9V11H7V10V10ZM7 11H9V12H7V11ZM7 12H9V13H7V12ZM7 13H9V14H7V13ZM9 3H10V4H9V3ZM9 4H10V5H9V4ZM9 5H10V6H9V5ZM9 6H10V7H9V6ZM9 7H10V9H9V7ZM9 9H10V10H9V9ZM9 10H10V11H9V10V10ZM9 13H10V14H9V13ZM10 4H11V5H10V4ZM10 5H11V6H10V5ZM10 6H11V7H10V6ZM10 7H11V9H10V7ZM10 9H11V10H10V9ZM10 10H11V11H10V10V10ZM10 11H11V12H10V11ZM11 5H12V6H11V5ZM11 6H12V7H11V6ZM11 7H12V9H11V7ZM11 9H12V10H11V9ZM11 10H12V11H11V10ZM11 11H12V12H11V11ZM12 6H13V7H12V6ZM12 7H13V9H12V7ZM12 9H13V10H12V9ZM12 10H13V11H12V10Z" fill="black"/>
</svg>
