<svg width="16" height="16" viewBox="0 0 16 16" fill="none" xmlns="http://www.w3.org/2000/svg">
<path d="M5 8H4V7H5V8Z" fill="black"/>
<path d="M4 7H3V6H4V7Z" fill="black"/>
<path d="M6 7H5V6H6V7Z" fill="black"/>
<path d="M3 6H2V5H3V6Z" fill="black"/>
<path d="M7 6H6V5H7V6Z" fill="black"/>
<path d="M4 5H3V4H4V5Z" fill="black"/>
<path d="M6 5H5V4H6V5Z" fill="black"/>
<path d="M5 4H4V2H5V4Z" fill="black"/>
<path d="M8 14H7V12H8V14Z" fill="black"/>
<path d="M7 12H6V11H7V12Z" fill="black"/>
<path d="M9 12H8V11H9V12Z" fill="black"/>
<path d="M6 11H5V10H6V11Z" fill="black"/>
<path d="M10 11H9V10H10V11Z" fill="black"/>
<path d="M7 10H6V9H7V10Z" fill="black"/>
<path d="M9 10H8V9H9V10Z" fill="black"/>
<path d="M8 9H7V8H8V9Z" fill="black"/>
<path d="M12 11H11V9H12V11Z" fill="black"/>
<path d="M11 9H10V8H11V9Z" fill="black"/>
<path d="M13 9H12V8H13V9Z" fill="black"/>
<path d="M10 8H9V7H10V8Z" fill="black"/>
<path d="M14 8H13V7H14V8Z" fill="black"/>
<path d="M11 7H10V6H11V7Z" fill="black"/>
<path d="M13 7H12V6H13V7Z" fill="black"/>
<path d="M12 6H11V4H12V6Z" fill="black"/>
</svg>
