<svg width="16" height="16" viewBox="0 0 16 16" fill="none" xmlns="http://www.w3.org/2000/svg">
<path d="M12 14H11V12H12V14Z" fill="black"/>
<path d="M11 12H10V11H11V12Z" fill="black"/>
<path d="M13 12H12V11H13V12Z" fill="black"/>
<path d="M10 11H9V10H10V11Z" fill="black"/>
<path d="M14 11H13V10H14V11Z" fill="black"/>
<path d="M11 10H10V9H11V10Z" fill="black"/>
<path d="M13 10H12V9H13V10Z" fill="black"/>
<path d="M5 9H4V7H5V9Z" fill="black"/>
<path d="M12 9H11V7H12V9Z" fill="black"/>
<path d="M4 7H3V6H4V7Z" fill="black"/>
<path d="M6 7H5V6H6V7Z" fill="black"/>
<path d="M3 6H2V5H3V6Z" fill="black"/>
<path d="M7 6H6V5H7V6Z" fill="black"/>
<path d="M4 5H3V4H4V5Z" fill="black"/>
<path d="M6 5H5V4H6V5Z" fill="black"/>
<path d="M5 4H4V2H5V4Z" fill="black"/>
</svg>
