<svg width="16" height="16" viewBox="0 0 16 16" fill="none" xmlns="http://www.w3.org/2000/svg">
<path d="M2 7H3V8H2V7ZM3 3H4V4H3V3ZM3 7H4V8H3V7ZM3 12H4V13H3V12ZM4 4H5V5H4V4ZM4 11H5V12H4V11ZM5 6H6V7H5V6ZM5 7H6V8H5V7ZM5 8H6V9H5V8ZM5 9H6V10H5V9ZM6 5H7V6H6V5ZM6 6H7V7H6V6ZM6 7H7V8H6V7ZM6 8H7V9H6V8ZM6 9H7V10H6V9ZM6 10H7V11H6V10ZM7 5H8V6H7V5ZM7 6H8V7H7V6ZM7 7H8V8H7V7ZM7 8H8V9H7V8ZM7 9H8V10H7V9ZM7 10H8V11H7V10ZM7 12H8V13H7V12ZM7 13H8V14H7V13ZM8 2H9V3H8V2ZM8 3H9V4H8V3ZM8 5H9V6H8V5ZM8 6H9V7H8V6ZM8 7H9V8H8V7ZM8 8H9V9H8V8ZM8 9H9V10H8V9ZM8 10H9V11H8V10ZM9 5H10V6H9V5ZM9 6H10V7H9V6ZM9 7H10V8H9V7ZM9 8H10V9H9V8ZM9 9H10V10H9V9ZM9 10H10V11H9V10ZM10 6H11V7H10V6ZM10 7H11V8H10V7ZM10 8H11V9H10V8ZM10 9H11V10H10V9ZM11 4H12V5H11V4ZM11 11H12V12H11V11ZM12 3H13V4H12V3ZM12 8H13V9H12V8ZM12 12H13V13H12V12ZM13 8H14V9H13V8Z" fill="black"/>
</svg>
