<svg width="16" height="16" viewBox="0 0 16 16" fill="none" xmlns="http://www.w3.org/2000/svg">
<path d="M2 4H3V5H2V4ZM2 5H3V6H2V5ZM2 6H3V7H2V6ZM2 12H3V13H2V12ZM2 13H3V14H2V13ZM3 3H4V4H3V3ZM3 5H4V6H3V5ZM3 7H4V8H3V7ZM3 8H4V9H3V8ZM3 12H4V13H3V12ZM3 13H4V14H3V13ZM4 2H5V3H4V2ZM4 4H5V5H4V4ZM4 6H5V7H4V6ZM4 8H5V9H4V8ZM5 2H6V3H5V2ZM5 3H6V4H5V3ZM5 5H6V6H5V5ZM5 7H6V8H5V7ZM5 9H6V10H5V9ZM6 2H7V3H6V2ZM6 4H7V5H6V4ZM6 6H7V7H6V6ZM6 8H7V9H6V8ZM6 10H7V11H6V10ZM7 3H8V4H7V3ZM7 5H8V6H7V5ZM7 7H8V8H7V7ZM7 9H8V10H7V9ZM7 10H8V11H7V10ZM8 3H9V4H8V3ZM8 4H9V5H8V4ZM8 6H9V7H8V6ZM8 8H9V9H8V8ZM8 10H9V11H8V10ZM9 5H10V6H9V5ZM9 7H10V8H9V7ZM9 9H10V10H9V9ZM10 6H11V7H10V6ZM10 7H11V8H10V7ZM10 8H11V9H10V8ZM10 10H11V11H10V10ZM11 11H12V12H11V11ZM12 12H13V13H12V12ZM13 13H14V14H13V13Z" fill="black"/>
</svg>
