<svg width="16" height="16" viewBox="0 0 16 16" fill="none" xmlns="http://www.w3.org/2000/svg">
<path d="M4 3H5V4H4V3ZM4 4H5V5H4V4ZM4 5H5V6H4V5ZM4 6H5V7H4V6ZM4 7H5V8H4V7ZM4 8H5V9H4V8ZM4 9H5V10H4V9ZM4 10H5V11H4V10ZM4 13H5V14H4V13ZM5 2H6V3H5V2ZM5 3H6V4H5V3ZM5 4H6V5H5V4ZM5 7H6V8H5V7ZM5 8H6V9H5V8ZM5 9H6V10H5V9ZM5 10H6V11H5V10ZM5 12H6V13H5V12ZM6 2H7V3H6V2ZM6 4H7V5H6V4ZM6 7H7V8H6V7ZM6 8H7V9H6V8ZM6 10H7V11H6V10ZM6 11H7V12H6V11ZM7 2H8V3H7V2ZM7 4H8V5H7V4ZM7 7H8V8H7V7ZM7 8H8V9H7V8ZM7 9H8V10H7V9ZM7 10H8V11H7V10ZM8 2H9V3H8V2ZM8 4H9V5H8V4ZM8 7H9V8H8V7ZM8 8H9V9H8V8ZM8 9H9V10H8V9ZM8 10H9V11H8V10ZM9 2H10V3H9V2ZM9 4H10V5H9V4ZM9 7H10V8H9V7ZM9 8H10V9H9V8ZM9 10H10V11H9V10ZM9 11H10V12H9V11ZM10 2H11V3H10V2ZM10 3H11V4H10V3ZM10 4H11V5H10V4ZM10 7H11V8H10V7ZM10 8H11V9H10V8ZM10 9H11V10H10V9ZM10 10H11V11H10V10ZM10 12H11V13H10V12ZM11 3H12V4H11V3ZM11 4H12V5H11V4ZM11 5H12V6H11V5ZM11 6H12V7H11V6ZM11 7H12V8H11V7ZM11 8H12V9H11V8ZM11 9H12V10H11V9ZM11 10H12V11H11V10ZM11 13H12V14H11V13Z" fill="black"/>
</svg>
