<svg width="16" height="16" viewBox="0 0 16 16" fill="none" xmlns="http://www.w3.org/2000/svg">
<path d="M12 14H11V12H5V14H4V12H3V11H13V12H12V14Z" fill="black"/>
<path d="M3 11H2V5H3V11Z" fill="black"/>
<path d="M14 11H13V5H14V11Z" fill="black"/>
<path d="M10 10H5V6H10V10Z" fill="black"/>
<path d="M12 9H11V8H12V9Z" fill="black"/>
<path d="M12 7H11V6H12V7Z" fill="black"/>
<path d="M6 4V3H7V4H9V3H10V4H13V5H3V4H6Z" fill="black"/>
<path d="M6 3H5V2H6V3Z" fill="black"/>
<path d="M11 3H10V2H11V3Z" fill="black"/>
</svg>
