<svg width="16" height="16" viewBox="0 0 16 16" fill="none" xmlns="http://www.w3.org/2000/svg">
<g id="volume-high 1">
<g id="Vector">
<path d="M2 6H4V10H2V6ZM5 5H6V4H7V3H8V13H7V12H6V11H5V5Z" fill="black"/>
<path d="M2 6H4V10H2V6ZM5 5H6V4H7V3H8V13H7V12H6V11H5V5Z" fill="black"/>
<path d="M8.9375 6H9.9375V7H8.9375V6ZM8.9375 9H9.9375V10H8.9375V9ZM11.9375 3H12.9375V4H11.9375V3ZM9.9375 7H10.9375V9H9.9375V7ZM11.9375 12H12.9375V13H11.9375V12ZM12.9375 4H13.9375V5H12.9375V4ZM12.9375 11H13.9375V12H12.9375V11ZM13.9375 5H14.9375V11H13.9375V5Z" fill="black"/>
<path d="M11.9375 3H12.9375V4H13.9375V5H12.9375V4H11.9375V3Z" fill="black"/>
<path d="M11.9375 12H12.9375V11H13.9375V12H12.9375V13H11.9375V12Z" fill="black"/>
<path d="M11.9375 3H12.9375V4H13.9375V5H12.9375V4H11.9375V3Z" fill="black"/>
<path d="M11.9375 12H12.9375V11H13.9375V12H12.9375V13H11.9375V12Z" fill="black"/>
<path d="M8.9375 6H9.9375V7H8.9375V6ZM8.9375 9H9.9375V10H8.9375V9ZM11.9375 3H12.9375V4H11.9375V3ZM9.9375 7H10.9375V9H9.9375V7ZM11.9375 12H12.9375V13H11.9375V12ZM12.9375 4H13.9375V5H12.9375V4ZM12.9375 11H13.9375V12H12.9375V11ZM13.9375 5H14.9375V11H13.9375V5Z" fill="black"/>
<path d="M11.9375 3H12.9375V4H13.9375V5H12.9375V4H11.9375V3Z" fill="black"/>
<path d="M11.9375 12H12.9375V11H13.9375V12H12.9375V13H11.9375V12Z" fill="black"/>
<path d="M11.9375 3H12.9375V4H13.9375V5H12.9375V4H11.9375V3Z" fill="black"/>
<path d="M11.9375 12H12.9375V11H13.9375V12H12.9375V13H11.9375V12Z" fill="black"/>
<path d="M8.9375 6H9.9375V7V9V10H8.9375V9H9.9375V7H8.9375V6Z" fill="black"/>
<path d="M10.9375 5H11.9375V6H10.9375V5ZM10.9375 10H11.9375V11H10.9375V10ZM11.9375 6H12.9375V10H11.9375V6Z" fill="black"/>
<path d="M10.9375 5H11.9375V6H10.9375V5ZM10.9375 10H11.9375V11H10.9375V10ZM11.9375 6H12.9375V10H11.9375V6Z" fill="black"/>
</g>
</g>
</svg>
