<svg width="16" height="16" viewBox="0 0 16 16" fill="none" xmlns="http://www.w3.org/2000/svg">
<g id="volume-low 1">
<g id="Vector">
<path d="M2 6H4V10H2V6ZM5 5H6V4H7V3H8V13H7V12H6V11H5V5Z" fill="black"/>
<path d="M2 6H4V10H2V6ZM5 5H6V4H7V3H8V13H7V12H6V11H5V5Z" fill="black"/>
<path d="M8.9375 6H9.9375V7H8.9375V6ZM8.9375 9H9.9375V10H8.9375V9ZM9.9375 7H10.9375V9H9.9375V7Z" fill="black"/>
<path d="M8.9375 6H9.9375V7H8.9375V6ZM8.9375 9H9.9375V10H8.9375V9ZM9.9375 7H10.9375V9H9.9375V7Z" fill="black"/>
<path d="M8.9375 6H9.9375V7V9V10H8.9375V9H9.9375V7H8.9375V6Z" fill="black"/>
</g>
</g>
</svg>
