<svg width="16" height="16" viewBox="0 0 16 16" fill="none" xmlns="http://www.w3.org/2000/svg">
<path d="M2 2H3V3H2V2ZM11 2H12V3H11V2ZM2 3H3V4H2V3ZM10 3H12V4H10V3ZM2 4H3V5H2V4ZM9 4H10V5H9V4ZM11 4H12V5H11V4ZM2 5H3V6H2V5ZM8 5H9V6H8V5ZM11 5H12V6H11V5ZM2 6H3V7H2V6ZM7 6H8V7H7V6ZM11 6H12V7H11V6ZM2 7H3V8H2V7ZM6 7H7V8H6V7ZM11 7H12V8H11V7ZM2 8H3V9H2V8ZM5 8H6V9H5V8ZM11 8H12V9H11V8ZM2 9H3V10H2V9ZM4 9H5V10H4V9ZM11 9H12V10H11V9ZM2 10H4V11H2V10ZM9 10H10V11H9V10ZM11 10H12V11H11V10ZM13 10H14V11H13V10ZM2 11H3V12H2V11ZM10 11H13V12H10V11ZM11 12H12V13H11V12Z" fill="black"/>
</svg>
