<svg width="26" height="16" viewBox="0 0 26 16" fill="none" xmlns="http://www.w3.org/2000/svg">
<path d="M0 2H2V4H0V2ZM0 9H2V12H0V9ZM0 12H2V14H0V12ZM2 2H5V4H2V2ZM2 7H5V9H2V7ZM2 12H5V14H2V12ZM5 2H7V4H5V2ZM5 4H7V7H5V4ZM5 12H7V14H5V12ZM9 2H12V4H9V2ZM9 9H12V12H9V9ZM9 12H12V14H9V12ZM12 2H14V4H12V2ZM12 7H14V9H12V7ZM12 12H14V14H12V12ZM14 2H17V4H14V2ZM14 4H17V7H14V4ZM14 12H17V14H14V12ZM19 2H21V4H19V2ZM19 9H21V12H19V9ZM19 12H21V14H19V12ZM21 2H24V4H21V2ZM21 7H24V9H21V7ZM21 12H24V14H21V12ZM24 2H26V4H24V2ZM24 4H26V7H24V4ZM24 12H26V14H24V12Z" fill="black"/>
</svg>
