<svg xmlns="http://www.w3.org/2000/svg" viewBox="0 0 16 16" fill="none">
  <path fill-rule="evenodd" clip-rule="evenodd" d="M6 0H10V1H6V0ZM4 2V1H6V2H4ZM3 3V2H4V3H3ZM2 5V3H3V5H2ZM1 7V5H2V7H1ZM1 9H0V7H1V9ZM2 11H1V9H2V11ZM3 12H2V11H3V12ZM5 13H3V12H5V13ZM7 13V14H5V13H7ZM9 13H7V12H5V11H4V9H5V8H6V7H8V8H9V9H10V7H9V5H10V4H11V3H10V2H8V1H10V2H11V3H12V4H13V5H14V7H15V9H16V7H15V5H14V4H13V3H12V2H11V1H10V0H12V1H13V2H14V3H15V5H16V9H15V11H14V12H13V13H11V14H9V13ZM9 13V12H11V11H12V9H13V7H12V5H11V4H10V5H9V7H10V9H9V10H8V11H7V12H9V13Z" fill="currentColor"/>
</svg>
