<svg preserveAspectRatio="none" width="100%" height="100%" overflow="visible" style="display: block;" viewBox="0 0 1147.1 1473.32" fill="none" xmlns="http://www.w3.org/2000/svg">
<g id="GRID">
<path id="Rectangle 26275" d="M203.211 61.0156H50.4062V246.716M203.211 61.0156H229.209M203.211 61.0156V1400.18M229.209 61.0156H382.014M229.209 61.0156V1400.18M382.014 61.0156H408.012M382.014 61.0156V1400.18M408.012 61.0156H560.287M408.012 61.0156V1400.18M560.287 61.0156H586.816M560.287 61.0156V1400.18M586.816 61.0156H739.621M586.816 61.0156V1400.18M739.621 61.0156H766.149M739.621 61.0156V1400.18M766.149 61.0156H918.954M766.149 61.0156V1400.18M918.954 61.0156H944.952M918.954 61.0156V1400.18M944.952 61.0156H1097.76V246.716M944.952 61.0156V1400.18M50.4062 246.716V292.345M50.4062 246.716H1097.76M50.4062 292.345V477.515M50.4062 292.345H1097.76M50.4062 477.515V522.614M50.4062 477.515H1097.76M50.4062 522.614V708.315M50.4062 522.614H1097.76M50.4062 708.315V753.413M50.4062 708.315H1097.76M50.4062 753.413V938.583M50.4062 753.413H1097.76M50.4062 938.583V984.213M50.4062 938.583H1097.76M50.4062 984.213V1168.85M50.4062 984.213H1097.76M50.4062 1215.01V1400.18H203.211M50.4062 1215.01V1168.85M50.4062 1215.01H1097.76M50.4062 1168.85H1097.76M203.211 1400.18H229.209M229.209 1400.18H382.014M382.014 1400.18H408.012M408.012 1400.18H560.287M560.287 1400.18H586.816M586.816 1400.18H739.621M739.621 1400.18H766.149M766.149 1400.18H918.954M918.954 1400.18H944.952M944.952 1400.18H1097.76V1215.01M1097.76 1215.01V1168.85M1097.76 1168.85V984.213M1097.76 984.213V938.583M1097.76 938.583V753.413M1097.76 708.315V753.413M1097.76 708.315V522.614M1097.76 477.515V522.614M1097.76 477.515V292.345M1097.76 246.716V292.345" stroke="#FF1D1D"/>
<path id="Rectangle 26277" d="M1097.76 1400.18H1147.1M50.4046 1400.18H0.000119597M203.21 61.0159V0M229.208 61.0159V0M382.013 61.0159V0M408.011 61.0159V0M560.285 61.0159V0M586.814 61.0159V0M739.619 61.0159V0M766.148 61.0159V0M918.953 61.0159V0M944.951 61.0159V0M50.4046 0V61.0159H1.06127M1097.76 0V61.0159H1146.57" stroke="#777777"/>
<path id="Rectangle 26276" d="M203.211 1355V1373.57M203.211 1373.57V1412.83M203.211 1373.57H50.4062M203.211 1373.57H229.209M203.211 1412.83V1473.32M203.211 1412.83H229.209M203.211 1412.83H50.4062M229.209 1355V1373.57M229.209 1373.57V1412.83M229.209 1373.57H382.014M229.209 1412.83V1473.32M229.209 1412.83H382.014M382.014 1355V1373.57M382.014 1373.57V1412.83M382.014 1373.57H408.013M382.014 1412.83V1473.32M382.014 1412.83H408.013M408.013 1355V1373.57M408.013 1373.57V1412.83M408.013 1373.57H560.287M408.013 1412.83V1473.32M408.013 1412.83H560.287M560.287 1355V1373.57M560.287 1373.57V1412.83M560.287 1373.57H586.816M560.287 1412.83V1473.32M560.287 1412.83H586.816M586.816 1355V1373.57M586.816 1373.57V1412.83M586.816 1373.57H739.621M586.816 1412.83V1473.32M586.816 1412.83H739.621M739.621 1355V1373.57M739.621 1373.57V1412.83M739.621 1373.57H766.149M739.621 1412.83V1473.32M739.621 1412.83H766.149M766.149 1355V1373.57M766.149 1373.57V1412.83M766.149 1373.57H918.954M766.149 1412.83V1473.32M766.149 1412.83H918.954M918.954 1355V1373.57M918.954 1373.57V1412.83M918.954 1373.57H944.952M918.954 1412.83V1473.32M918.954 1412.83H944.952M944.952 1355V1373.57M944.952 1373.57V1412.83M944.952 1373.57H1097.76M944.952 1412.83V1473.32M944.952 1412.83H1097.76M50.4062 1373.57V1412.83M50.4062 1373.57V1355H1097.76V1373.57M1097.76 1373.57V1412.83M1097.76 1412.83V1473.32M50.4062 1412.83V1473.32" stroke="#393939"/>
</g>
</svg>
