<svg preserveAspectRatio="none" width="100%" height="100%" overflow="visible" style="display: block;" viewBox="0 0 271.171 145.965" fill="none" xmlns="http://www.w3.org/2000/svg">
<path id="Vector" d="M268.489 145.965H216.848L184.88 103.797H42.2517V145.965H0V0H221.095C228.1 0 234.583 1.14882 240.545 3.44638C246.655 5.74401 251.946 8.78489 256.417 12.5692C261.037 16.3535 264.614 20.7459 267.148 25.7466C269.83 30.612 271.171 35.6127 271.171 40.7485V62.0351C271.171 66.36 270.128 70.7521 268.042 75.2128C266.104 79.6727 263.421 83.7948 259.994 87.5789C256.715 91.363 252.84 94.6071 248.369 97.3096C244.047 99.8779 239.576 101.567 234.956 102.378L268.489 145.965ZM228.92 52.9123V50.074C228.92 46.9656 227.429 44.2625 224.449 41.9649C221.468 39.5322 217.369 38.3158 212.153 38.3158H42.2517V65.4813H212.153C217.817 65.4813 221.99 64.1975 224.672 61.6293C227.504 59.0618 228.92 56.1559 228.92 52.9123Z" fill="#FEF8E2"/>
</svg>
