<svg preserveAspectRatio="none" width="100%" height="100%" overflow="visible" style="display: block;" viewBox="0 0 271.842 145.965" fill="none" xmlns="http://www.w3.org/2000/svg">
<path id="Vector" d="M221.99 145.965H49.8527C42.997 145.965 36.5139 144.816 30.4035 142.519C24.442 140.085 19.1512 136.842 14.5311 132.787C10.06 128.598 6.4831 123.8 3.80049 118.394C1.26683 112.853 0 106.973 0 100.757V45.2085C0 38.9915 1.26683 33.18 3.80049 27.7739C6.4831 22.2326 10.06 17.4347 14.5311 13.3801C19.1512 9.19038 24.442 5.94668 30.4035 3.64912C36.5139 1.2164 42.997 0 49.8527 0H221.99C228.846 0 235.254 1.2164 241.215 3.64912C247.325 5.94668 252.617 9.19038 257.088 13.3801C261.707 17.4347 265.284 22.2326 267.818 27.7739C270.501 33.18 271.842 38.9915 271.842 45.2085V100.757C271.842 106.973 270.501 112.853 267.818 118.394C265.284 123.8 261.707 128.598 257.088 132.787C252.617 136.842 247.325 140.085 241.215 142.519C235.254 144.816 228.846 145.965 221.99 145.965ZM229.591 86.971V58.9939C229.591 56.1559 228.994 53.5204 227.802 51.0877C226.759 48.5198 225.194 46.2898 223.108 44.3976C221.17 42.5055 218.785 41.0188 215.953 39.9376C213.271 38.8564 210.291 38.3158 207.011 38.3158H65.2781C58.7203 38.3158 53.206 40.2755 48.7349 44.1949C44.4129 48.1143 42.2518 53.0474 42.2518 58.9939V86.971C42.2518 89.8093 42.7735 92.5118 43.8167 95.08C45.009 97.5125 46.5739 99.675 48.5113 101.567C50.5978 103.459 53.057 104.946 55.8886 106.027C58.7203 107.108 61.7757 107.649 65.0541 107.649H206.564C213.271 107.649 218.785 105.622 223.108 101.567C227.43 97.5125 229.591 92.6468 229.591 86.971Z" fill="#FEF8E2"/>
</svg>
