<svg xmlns="http://www.w3.org/2000/svg" viewBox="0 0 16 16" width="16" height="16" shape-rendering="crispEdges">
  <g fill="#0f0e0c">
    <rect x="2" y="4" width="1" height="1"/>
    <rect x="2" y="11" width="1" height="1"/>
    <rect x="3" y="3" width="1" height="1"/>
    <rect x="3" y="12" width="1" height="1"/>
    <rect x="4" y="5" width="1" height="1"/>
    <rect x="4" y="10" width="1" height="1"/>
    <rect x="5" y="4" width="1" height="1"/>
    <rect x="5" y="11" width="1" height="1"/>
    <rect x="12" y="4" width="1" height="1"/>
    <rect x="12" y="11" width="1" height="1"/>
    <rect x="13" y="5" width="1" height="1"/>
    <rect x="13" y="10" width="1" height="1"/>
    <rect x="14" y="3" width="1" height="1"/>
    <rect x="14" y="12" width="1" height="1"/>
    <rect x="15" y="4" width="1" height="1"/>
    <rect x="15" y="11" width="1" height="1"/>
  </g>
  <g fill="#95bad2">
    <rect x="6" y="7" width="1" height="2"/>
    <rect x="6" y="9" width="6" height="1"/>
    <rect x="7" y="10" width="4" height="1"/>
    <rect x="9" y="7" width="2" height="2"/>
  </g>
  <g fill="#ff7f7f">
    <rect x="6" y="6" width="6" height="1"/>
    <rect x="7" y="7" width="2" height="2"/>
    <rect x="7" y="5" width="4" height="1"/>
    <rect x="11" y="7" width="1" height="2"/>
  </g>
  <g fill="#ffffff">
    <rect x="0" y="4" width="2" height="1"/>
    <rect x="0" y="11" width="2" height="1"/>
    <rect x="0" y="3" width="3" height="1"/>
    <rect x="0" y="12" width="3" height="1"/>
    <rect x="0" y="5" width="4" height="1"/>
    <rect x="0" y="10" width="4" height="1"/>
    <rect x="0" y="6" width="6" height="4"/>
    <rect x="0" y="2" width="16" height="1"/>
    <rect x="0" y="13" width="16" height="1"/>
    <rect x="3" y="4" width="2" height="1"/>
    <rect x="3" y="11" width="2" height="1"/>
    <rect x="4" y="3" width="10" height="1"/>
    <rect x="4" y="12" width="10" height="1"/>
    <rect x="5" y="5" width="2" height="1"/>
    <rect x="5" y="10" width="2" height="1"/>
    <rect x="6" y="4" width="6" height="1"/>
    <rect x="6" y="11" width="6" height="1"/>
    <rect x="11" y="5" width="2" height="1"/>
    <rect x="11" y="10" width="2" height="1"/>
    <rect x="12" y="6" width="4" height="4"/>
    <rect x="13" y="4" width="2" height="1"/>
    <rect x="13" y="11" width="2" height="1"/>
    <rect x="14" y="5" width="2" height="1"/>
    <rect x="14" y="10" width="2" height="1"/>
    <rect x="15" y="3" width="1" height="1"/>
    <rect x="15" y="12" width="1" height="1"/>
  </g>
</svg>
