<svg xmlns="http://www.w3.org/2000/svg" viewBox="0 0 16 18" width="16" height="18" shape-rendering="crispEdges">
  <g fill="#0f0e0c">
    <rect x="0" y="3" width="1" height="5"/>
    <rect x="1" y="8" width="2" height="1"/>
    <rect x="1" y="2" width="3" height="1"/>
    <rect x="2" y="7" width="1" height="1"/>
    <rect x="2" y="9" width="1" height="4"/>
    <rect x="3" y="13" width="1" height="2"/>
    <rect x="3" y="6" width="13" height="1"/>
    <rect x="4" y="3" width="1" height="1"/>
    <rect x="4" y="15" width="1" height="1"/>
    <rect x="5" y="1" width="1" height="2"/>
    <rect x="5" y="16" width="2" height="1"/>
    <rect x="5" y="4" width="10" height="1"/>
    <rect x="6" y="0" width="8" height="1"/>
    <rect x="6" y="14" width="8" height="1"/>
    <rect x="7" y="8" width="2" height="3"/>
    <rect x="7" y="15" width="6" height="1"/>
    <rect x="7" y="17" width="6" height="1"/>
    <rect x="11" y="8" width="2" height="3"/>
    <rect x="13" y="16" width="2" height="1"/>
    <rect x="14" y="1" width="1" height="2"/>
    <rect x="15" y="3" width="1" height="1"/>
    <rect x="15" y="15" width="1" height="1"/>
  </g>
  <g fill="#fcc383">
    <rect x="1" y="7" width="1" height="1"/>
    <rect x="1" y="6" width="2" height="1"/>
    <rect x="1" y="3" width="3" height="1"/>
    <rect x="1" y="4" width="4" height="1"/>
    <rect x="1" y="5" width="15" height="1"/>
    <rect x="5" y="3" width="10" height="1"/>
    <rect x="6" y="1" width="8" height="2"/>
    <rect x="15" y="4" width="1" height="1"/>
  </g>
  <g fill="#fce184">
    <rect x="3" y="8" width="4" height="3"/>
    <rect x="3" y="7" width="13" height="1"/>
    <rect x="3" y="11" width="13" height="2"/>
    <rect x="4" y="13" width="2" height="2"/>
    <rect x="5" y="15" width="2" height="1"/>
    <rect x="7" y="16" width="6" height="1"/>
    <rect x="9" y="8" width="2" height="3"/>
    <rect x="13" y="15" width="2" height="1"/>
    <rect x="13" y="8" width="3" height="3"/>
    <rect x="14" y="13" width="2" height="2"/>
  </g>
  <rect x="6" y="13" width="8" height="1" fill="#ffffff"/>
</svg>
