<svg xmlns="http://www.w3.org/2000/svg" viewBox="0 0 16 16" width="16" height="16" shape-rendering="crispEdges">
  <g fill="#95bad2">
    <rect x="0" y="3" width="1" height="1"/>
    <rect x="0" y="5" width="1" height="1"/>
    <rect x="0" y="4" width="2" height="1"/>
    <rect x="0" y="2" width="7" height="1"/>
    <rect x="0" y="6" width="7" height="1"/>
    <rect x="2" y="3" width="1" height="1"/>
    <rect x="2" y="5" width="1" height="1"/>
    <rect x="3" y="4" width="1" height="1"/>
    <rect x="4" y="3" width="1" height="1"/>
    <rect x="4" y="5" width="1" height="1"/>
    <rect x="5" y="4" width="2" height="1"/>
    <rect x="6" y="3" width="1" height="1"/>
    <rect x="6" y="5" width="1" height="1"/>
  </g>
  <g fill="#ff7f7f">
    <rect x="0" y="8" width="16" height="1"/>
    <rect x="0" y="10" width="16" height="1"/>
    <rect x="0" y="12" width="16" height="1"/>
    <rect x="7" y="2" width="9" height="1"/>
    <rect x="7" y="4" width="9" height="1"/>
    <rect x="7" y="6" width="9" height="1"/>
  </g>
  <g fill="#ffffff">
    <rect x="0" y="7" width="16" height="1"/>
    <rect x="0" y="9" width="16" height="1"/>
    <rect x="0" y="11" width="16" height="1"/>
    <rect x="0" y="13" width="16" height="1"/>
    <rect x="1" y="3" width="1" height="1"/>
    <rect x="1" y="5" width="1" height="1"/>
    <rect x="2" y="4" width="1" height="1"/>
    <rect x="3" y="3" width="1" height="1"/>
    <rect x="3" y="5" width="1" height="1"/>
    <rect x="4" y="4" width="1" height="1"/>
    <rect x="5" y="3" width="1" height="1"/>
    <rect x="5" y="5" width="1" height="1"/>
    <rect x="7" y="3" width="9" height="1"/>
    <rect x="7" y="5" width="9" height="1"/>
  </g>
</svg>
