<svg xmlns="http://www.w3.org/2000/svg" viewBox="0 0 16 16" width="16" height="16" shape-rendering="crispEdges">
  <g fill="#95bad2">
    <rect x="4" y="8" width="1" height="1"/>
    <rect x="6" y="6" width="1" height="1"/>
    <rect x="6" y="8" width="1" height="1"/>
    <rect x="6" y="10" width="1" height="1"/>
    <rect x="8" y="8" width="1" height="1"/>
  </g>
  <g fill="#cef5ca">
    <rect x="0" y="7" width="2" height="2"/>
    <rect x="0" y="6" width="3" height="1"/>
    <rect x="0" y="9" width="3" height="1"/>
    <rect x="0" y="5" width="4" height="1"/>
    <rect x="0" y="10" width="4" height="1"/>
    <rect x="0" y="4" width="5" height="1"/>
    <rect x="0" y="11" width="5" height="1"/>
    <rect x="0" y="2" width="6" height="2"/>
    <rect x="0" y="12" width="6" height="2"/>
  </g>
  <g fill="#fce184">
    <rect x="2" y="7" width="1" height="1"/>
    <rect x="2" y="8" width="2" height="1"/>
    <rect x="3" y="6" width="1" height="1"/>
    <rect x="3" y="9" width="1" height="1"/>
    <rect x="4" y="5" width="1" height="1"/>
    <rect x="4" y="10" width="1" height="1"/>
    <rect x="5" y="4" width="3" height="1"/>
    <rect x="5" y="11" width="3" height="1"/>
    <rect x="6" y="5" width="1" height="1"/>
    <rect x="8" y="5" width="1" height="1"/>
    <rect x="8" y="10" width="1" height="1"/>
    <rect x="9" y="6" width="1" height="1"/>
    <rect x="9" y="9" width="1" height="1"/>
    <rect x="9" y="8" width="2" height="1"/>
    <rect x="10" y="7" width="1" height="1"/>
  </g>
  <g fill="#ff7f7f">
    <rect x="3" y="7" width="1" height="1"/>
    <rect x="5" y="5" width="1" height="1"/>
    <rect x="6" y="2" width="10" height="2"/>
    <rect x="6" y="12" width="10" height="2"/>
    <rect x="7" y="5" width="1" height="1"/>
    <rect x="8" y="4" width="8" height="1"/>
    <rect x="8" y="11" width="8" height="1"/>
    <rect x="9" y="7" width="1" height="1"/>
    <rect x="9" y="5" width="7" height="1"/>
    <rect x="9" y="10" width="7" height="1"/>
    <rect x="10" y="6" width="6" height="1"/>
    <rect x="10" y="9" width="6" height="1"/>
    <rect x="11" y="7" width="5" height="2"/>
  </g>
  <g fill="#ffffff">
    <rect x="4" y="6" width="2" height="1"/>
    <rect x="4" y="7" width="5" height="1"/>
    <rect x="4" y="9" width="5" height="1"/>
    <rect x="5" y="8" width="1" height="1"/>
    <rect x="5" y="10" width="1" height="1"/>
    <rect x="7" y="8" width="1" height="1"/>
    <rect x="7" y="10" width="1" height="1"/>
    <rect x="7" y="6" width="2" height="1"/>
  </g>
</svg>
