<svg xmlns="http://www.w3.org/2000/svg" viewBox="0 0 16 18" width="16" height="18" shape-rendering="crispEdges">
  <g fill="#0f0e0c">
    <rect x="0" y="13" width="1" height="2"/>
    <rect x="1" y="15" width="1" height="1"/>
    <rect x="1" y="12" width="2" height="1"/>
    <rect x="2" y="11" width="1" height="1"/>
    <rect x="2" y="16" width="1" height="1"/>
    <rect x="3" y="13" width="2" height="1"/>
    <rect x="3" y="17" width="11" height="1"/>
    <rect x="4" y="9" width="2" height="3"/>
    <rect x="5" y="5" width="1" height="2"/>
    <rect x="5" y="14" width="1" height="1"/>
    <rect x="5" y="7" width="3" height="1"/>
    <rect x="6" y="4" width="1" height="1"/>
    <rect x="7" y="2" width="1" height="1"/>
    <rect x="7" y="11" width="1" height="1"/>
    <rect x="7" y="3" width="2" height="1"/>
    <rect x="8" y="6" width="1" height="1"/>
    <rect x="8" y="10" width="1" height="1"/>
    <rect x="9" y="4" width="1" height="2"/>
    <rect x="10" y="6" width="1" height="1"/>
    <rect x="10" y="16" width="1" height="1"/>
    <rect x="10" y="9" width="2" height="3"/>
    <rect x="10" y="13" width="2" height="1"/>
    <rect x="11" y="7" width="1" height="1"/>
    <rect x="11" y="15" width="2" height="1"/>
    <rect x="12" y="12" width="1" height="1"/>
    <rect x="13" y="10" width="1" height="2"/>
    <rect x="13" y="14" width="1" height="1"/>
    <rect x="14" y="12" width="1" height="2"/>
    <rect x="14" y="16" width="1" height="1"/>
    <rect x="15" y="14" width="1" height="2"/>
  </g>
  <g fill="#fcc383">
    <rect x="1" y="13" width="2" height="1"/>
    <rect x="1" y="14" width="4" height="1"/>
    <rect x="2" y="15" width="5" height="1"/>
    <rect x="3" y="12" width="1" height="1"/>
    <rect x="3" y="16" width="7" height="1"/>
    <rect x="5" y="13" width="5" height="1"/>
    <rect x="6" y="6" width="2" height="1"/>
    <rect x="6" y="5" width="3" height="1"/>
    <rect x="6" y="8" width="4" height="1"/>
    <rect x="6" y="12" width="4" height="1"/>
    <rect x="7" y="10" width="1" height="1"/>
    <rect x="7" y="4" width="2" height="1"/>
    <rect x="7" y="9" width="2" height="1"/>
    <rect x="8" y="11" width="1" height="1"/>
    <rect x="8" y="7" width="3" height="1"/>
    <rect x="9" y="6" width="1" height="1"/>
    <rect x="9" y="15" width="2" height="1"/>
    <rect x="10" y="14" width="3" height="1"/>
    <rect x="11" y="16" width="3" height="1"/>
    <rect x="12" y="13" width="2" height="1"/>
    <rect x="13" y="12" width="1" height="1"/>
    <rect x="13" y="15" width="2" height="1"/>
    <rect x="14" y="14" width="1" height="1"/>
  </g>
  <g fill="#ffffff">
    <rect x="3" y="9" width="1" height="3"/>
    <rect x="4" y="8" width="2" height="1"/>
    <rect x="4" y="12" width="2" height="1"/>
    <rect x="6" y="9" width="1" height="3"/>
    <rect x="6" y="14" width="4" height="1"/>
    <rect x="7" y="15" width="2" height="1"/>
    <rect x="9" y="9" width="1" height="3"/>
    <rect x="10" y="8" width="2" height="1"/>
    <rect x="10" y="12" width="2" height="1"/>
    <rect x="12" y="9" width="1" height="3"/>
  </g>
</svg>
