<svg xmlns="http://www.w3.org/2000/svg" viewBox="0 0 16 16" width="16" height="16" shape-rendering="crispEdges">
  <g fill="#0f0e0c">
    <rect x="0" y="5" width="1" height="6"/>
    <rect x="1" y="3" width="1" height="2"/>
    <rect x="1" y="11" width="1" height="2"/>
    <rect x="2" y="2" width="1" height="1"/>
    <rect x="2" y="13" width="1" height="1"/>
    <rect x="3" y="1" width="2" height="1"/>
    <rect x="3" y="14" width="2" height="1"/>
    <rect x="4" y="10" width="8" height="1"/>
    <rect x="5" y="5" width="2" height="3"/>
    <rect x="5" y="0" width="6" height="1"/>
    <rect x="5" y="15" width="6" height="1"/>
    <rect x="9" y="5" width="2" height="3"/>
    <rect x="11" y="1" width="2" height="1"/>
    <rect x="11" y="14" width="2" height="1"/>
    <rect x="13" y="2" width="1" height="1"/>
    <rect x="13" y="13" width="1" height="1"/>
    <rect x="14" y="3" width="1" height="2"/>
    <rect x="14" y="11" width="1" height="2"/>
    <rect x="15" y="5" width="1" height="6"/>
  </g>
  <g fill="#fce184">
    <rect x="1" y="10" width="3" height="1"/>
    <rect x="1" y="5" width="4" height="3"/>
    <rect x="1" y="8" width="14" height="2"/>
    <rect x="2" y="3" width="12" height="2"/>
    <rect x="2" y="11" width="12" height="2"/>
    <rect x="3" y="2" width="10" height="1"/>
    <rect x="3" y="13" width="10" height="1"/>
    <rect x="5" y="1" width="6" height="1"/>
    <rect x="5" y="14" width="6" height="1"/>
    <rect x="7" y="5" width="2" height="3"/>
    <rect x="11" y="5" width="4" height="3"/>
    <rect x="12" y="10" width="3" height="1"/>
  </g>
</svg>
