<svg xmlns="http://www.w3.org/2000/svg" viewBox="0 0 16 16" width="16" height="16" shape-rendering="crispEdges">
  <g fill="#0f0e0c">
    <rect x="3" y="5" width="1" height="2"/>
    <rect x="4" y="3" width="1" height="2"/>
    <rect x="4" y="7" width="1" height="2"/>
    <rect x="5" y="1" width="1" height="2"/>
    <rect x="5" y="9" width="1" height="2"/>
    <rect x="6" y="0" width="1" height="1"/>
    <rect x="6" y="11" width="1" height="2"/>
    <rect x="7" y="13" width="2" height="1"/>
    <rect x="9" y="0" width="1" height="1"/>
    <rect x="9" y="11" width="1" height="2"/>
    <rect x="10" y="1" width="1" height="2"/>
    <rect x="10" y="9" width="1" height="2"/>
    <rect x="11" y="3" width="1" height="2"/>
    <rect x="11" y="7" width="1" height="2"/>
    <rect x="12" y="5" width="1" height="2"/>
  </g>
  <g fill="#ff7f7f">
    <rect x="4" y="5" width="8" height="2"/>
    <rect x="5" y="3" width="6" height="2"/>
    <rect x="5" y="7" width="6" height="2"/>
    <rect x="6" y="1" width="4" height="2"/>
    <rect x="6" y="9" width="4" height="2"/>
    <rect x="7" y="0" width="2" height="1"/>
    <rect x="7" y="11" width="2" height="2"/>
  </g>
</svg>
