<svg xmlns="http://www.w3.org/2000/svg" viewBox="0 0 16 23" width="16" height="23" shape-rendering="crispEdges">
  <rect x="6" y="22" width="4" height="1" fill="#0f0e0c"/>
  <g fill="#95bad2">
    <rect x="3" y="6" width="1" height="1"/>
    <rect x="5" y="4" width="1" height="1"/>
    <rect x="5" y="6" width="1" height="1"/>
    <rect x="5" y="8" width="1" height="1"/>
    <rect x="7" y="6" width="1" height="1"/>
  </g>
  <g fill="#cef5ca">
    <rect x="0" y="5" width="1" height="2"/>
    <rect x="0" y="4" width="2" height="1"/>
    <rect x="0" y="7" width="2" height="1"/>
    <rect x="0" y="3" width="3" height="1"/>
    <rect x="0" y="8" width="3" height="1"/>
    <rect x="0" y="2" width="4" height="1"/>
    <rect x="0" y="9" width="4" height="1"/>
    <rect x="0" y="0" width="5" height="2"/>
    <rect x="0" y="10" width="5" height="2"/>
  </g>
  <g fill="#fce184">
    <rect x="1" y="5" width="1" height="1"/>
    <rect x="1" y="6" width="2" height="1"/>
    <rect x="2" y="4" width="1" height="1"/>
    <rect x="2" y="7" width="1" height="1"/>
    <rect x="3" y="3" width="1" height="1"/>
    <rect x="3" y="8" width="1" height="1"/>
    <rect x="4" y="2" width="3" height="1"/>
    <rect x="4" y="9" width="3" height="1"/>
    <rect x="5" y="3" width="1" height="1"/>
    <rect x="7" y="3" width="1" height="1"/>
    <rect x="7" y="8" width="1" height="1"/>
    <rect x="8" y="4" width="1" height="1"/>
    <rect x="8" y="7" width="1" height="1"/>
    <rect x="8" y="6" width="2" height="1"/>
    <rect x="9" y="5" width="1" height="1"/>
  </g>
  <g fill="#ff7f7f">
    <rect x="2" y="5" width="1" height="1"/>
    <rect x="4" y="3" width="1" height="1"/>
    <rect x="5" y="0" width="11" height="2"/>
    <rect x="5" y="10" width="11" height="2"/>
    <rect x="6" y="3" width="1" height="1"/>
    <rect x="7" y="2" width="9" height="1"/>
    <rect x="7" y="9" width="9" height="1"/>
    <rect x="8" y="5" width="1" height="1"/>
    <rect x="8" y="3" width="8" height="1"/>
    <rect x="8" y="8" width="8" height="1"/>
    <rect x="9" y="4" width="7" height="1"/>
    <rect x="9" y="7" width="7" height="1"/>
    <rect x="10" y="5" width="6" height="2"/>
  </g>
  <g fill="#ffffff">
    <rect x="3" y="4" width="2" height="1"/>
    <rect x="3" y="5" width="5" height="1"/>
    <rect x="3" y="7" width="5" height="1"/>
    <rect x="4" y="6" width="1" height="1"/>
    <rect x="4" y="8" width="1" height="1"/>
    <rect x="6" y="6" width="1" height="1"/>
    <rect x="6" y="8" width="1" height="1"/>
    <rect x="6" y="4" width="2" height="1"/>
  </g>
</svg>
