<svg xmlns="http://www.w3.org/2000/svg" viewBox="0 0 16 17" width="16" height="17" shape-rendering="crispEdges">
  <g fill="#0f0e0c">
    <rect x="0" y="3" width="1" height="1"/>
    <rect x="1" y="2" width="1" height="1"/>
    <rect x="2" y="1" width="3" height="1"/>
    <rect x="5" y="9" width="2" height="2"/>
    <rect x="6" y="8" width="1" height="1"/>
    <rect x="6" y="13" width="4" height="1"/>
    <rect x="7" y="14" width="2" height="1"/>
    <rect x="9" y="9" width="2" height="2"/>
    <rect x="10" y="8" width="1" height="1"/>
    <rect x="11" y="1" width="3" height="1"/>
    <rect x="14" y="2" width="1" height="1"/>
    <rect x="15" y="3" width="1" height="1"/>
  </g>
  <g fill="#95bad2">
    <rect x="0" y="10" width="1" height="4"/>
    <rect x="1" y="9" width="1" height="1"/>
    <rect x="1" y="14" width="1" height="1"/>
    <rect x="2" y="4" width="1" height="5"/>
    <rect x="2" y="15" width="5" height="1"/>
    <rect x="3" y="3" width="1" height="1"/>
    <rect x="4" y="2" width="8" height="1"/>
    <rect x="9" y="15" width="5" height="1"/>
    <rect x="12" y="3" width="1" height="1"/>
    <rect x="13" y="4" width="1" height="5"/>
    <rect x="14" y="9" width="1" height="1"/>
    <rect x="14" y="14" width="1" height="1"/>
    <rect x="15" y="10" width="1" height="4"/>
  </g>
  <g fill="#fcc383">
    <rect x="0" y="9" width="1" height="1"/>
    <rect x="0" y="4" width="2" height="5"/>
    <rect x="1" y="3" width="2" height="1"/>
    <rect x="2" y="2" width="2" height="1"/>
    <rect x="8" y="8" width="1" height="3"/>
    <rect x="8" y="7" width="5" height="1"/>
    <rect x="9" y="6" width="3" height="1"/>
    <rect x="9" y="11" width="4" height="1"/>
    <rect x="11" y="8" width="2" height="1"/>
    <rect x="11" y="9" width="3" height="2"/>
    <rect x="12" y="2" width="2" height="1"/>
    <rect x="13" y="3" width="2" height="1"/>
    <rect x="14" y="4" width="2" height="5"/>
    <rect x="15" y="9" width="1" height="1"/>
  </g>
  <rect x="7" y="15" width="2" height="2" fill="#ff7f7f"/>
  <g fill="#ffffff">
    <rect x="1" y="10" width="4" height="1"/>
    <rect x="1" y="13" width="5" height="1"/>
    <rect x="1" y="11" width="8" height="1"/>
    <rect x="1" y="12" width="14" height="1"/>
    <rect x="2" y="9" width="3" height="1"/>
    <rect x="2" y="14" width="5" height="1"/>
    <rect x="3" y="8" width="3" height="1"/>
    <rect x="3" y="7" width="5" height="1"/>
    <rect x="3" y="6" width="6" height="1"/>
    <rect x="3" y="4" width="10" height="2"/>
    <rect x="4" y="3" width="8" height="1"/>
    <rect x="7" y="8" width="1" height="3"/>
    <rect x="9" y="8" width="1" height="1"/>
    <rect x="9" y="14" width="5" height="1"/>
    <rect x="10" y="13" width="5" height="1"/>
    <rect x="12" y="6" width="1" height="1"/>
    <rect x="13" y="11" width="2" height="1"/>
    <rect x="14" y="10" width="1" height="1"/>
  </g>
</svg>
