<svg xmlns="http://www.w3.org/2000/svg" viewBox="0 0 16 16" width="16" height="16" shape-rendering="crispEdges">
  <g fill="#0f0e0c">
    <rect x="0" y="4" width="3" height="1"/>
    <rect x="0" y="7" width="4" height="1"/>
    <rect x="3" y="3" width="7" height="1"/>
    <rect x="4" y="6" width="4" height="1"/>
    <rect x="7" y="7" width="1" height="4"/>
    <rect x="7" y="5" width="3" height="1"/>
    <rect x="8" y="11" width="1" height="2"/>
    <rect x="9" y="2" width="1" height="1"/>
    <rect x="9" y="13" width="1" height="1"/>
    <rect x="10" y="4" width="1" height="1"/>
    <rect x="10" y="1" width="2" height="1"/>
    <rect x="10" y="14" width="2" height="1"/>
    <rect x="12" y="5" width="2" height="3"/>
    <rect x="12" y="0" width="4" height="1"/>
    <rect x="12" y="10" width="4" height="1"/>
    <rect x="12" y="15" width="4" height="1"/>
  </g>
  <g fill="#fce184">
    <rect x="0" y="6" width="4" height="1"/>
    <rect x="0" y="5" width="7" height="1"/>
    <rect x="3" y="4" width="7" height="1"/>
    <rect x="8" y="6" width="4" height="2"/>
    <rect x="8" y="10" width="4" height="1"/>
    <rect x="8" y="8" width="8" height="2"/>
    <rect x="9" y="11" width="7" height="2"/>
    <rect x="10" y="5" width="2" height="1"/>
    <rect x="10" y="2" width="6" height="2"/>
    <rect x="10" y="13" width="6" height="1"/>
    <rect x="11" y="4" width="5" height="1"/>
    <rect x="12" y="1" width="4" height="1"/>
    <rect x="12" y="14" width="4" height="1"/>
    <rect x="14" y="5" width="2" height="3"/>
  </g>
</svg>
