<svg xmlns="http://www.w3.org/2000/svg" viewBox="0 0 16 16" width="16" height="16" shape-rendering="crispEdges">
  <g fill="#0f0e0c">
    <rect x="4" y="10" width="8" height="1"/>
    <rect x="5" y="5" width="2" height="3"/>
    <rect x="9" y="5" width="2" height="3"/>
  </g>
  <g fill="#fce184">
    <rect x="0" y="6" width="1" height="4"/>
    <rect x="1" y="3" width="1" height="2"/>
    <rect x="1" y="11" width="1" height="2"/>
    <rect x="3" y="1" width="2" height="1"/>
    <rect x="3" y="14" width="2" height="1"/>
    <rect x="6" y="0" width="4" height="1"/>
    <rect x="6" y="15" width="4" height="1"/>
    <rect x="11" y="1" width="2" height="1"/>
    <rect x="11" y="14" width="2" height="1"/>
    <rect x="14" y="3" width="1" height="2"/>
    <rect x="14" y="11" width="1" height="2"/>
    <rect x="15" y="6" width="1" height="4"/>
  </g>
</svg>
