<svg xmlns="http://www.w3.org/2000/svg" viewBox="0 0 16 18" width="16" height="18" shape-rendering="crispEdges">
  <g fill="#0f0e0c">
    <rect x="0" y="7" width="1" height="6"/>
    <rect x="1" y="5" width="1" height="2"/>
    <rect x="2" y="4" width="1" height="1"/>
    <rect x="3" y="3" width="2" height="1"/>
    <rect x="3" y="16" width="2" height="1"/>
    <rect x="4" y="6" width="2" height="1"/>
    <rect x="5" y="14" width="1" height="1"/>
    <rect x="5" y="8" width="2" height="3"/>
    <rect x="5" y="2" width="6" height="1"/>
    <rect x="5" y="17" width="6" height="1"/>
    <rect x="6" y="5" width="1" height="1"/>
    <rect x="6" y="13" width="4" height="1"/>
    <rect x="9" y="5" width="1" height="1"/>
    <rect x="9" y="8" width="2" height="3"/>
    <rect x="10" y="14" width="1" height="1"/>
    <rect x="10" y="6" width="2" height="1"/>
    <rect x="11" y="3" width="2" height="1"/>
    <rect x="11" y="16" width="2" height="1"/>
    <rect x="13" y="4" width="1" height="1"/>
    <rect x="13" y="15" width="1" height="1"/>
    <rect x="14" y="5" width="1" height="2"/>
    <rect x="14" y="13" width="1" height="2"/>
    <rect x="15" y="7" width="1" height="6"/>
  </g>
  <g fill="#95bad2">
    <rect x="0" y="13" width="5" height="2"/>
    <rect x="1" y="11" width="3" height="2"/>
    <rect x="1" y="15" width="3" height="1"/>
    <rect x="2" y="10" width="1" height="1"/>
  </g>
  <g fill="#fce184">
    <rect x="1" y="10" width="1" height="1"/>
    <rect x="1" y="8" width="4" height="2"/>
    <rect x="1" y="7" width="14" height="1"/>
    <rect x="2" y="6" width="2" height="1"/>
    <rect x="2" y="5" width="4" height="1"/>
    <rect x="3" y="10" width="2" height="1"/>
    <rect x="3" y="4" width="10" height="1"/>
    <rect x="4" y="15" width="9" height="1"/>
    <rect x="4" y="11" width="11" height="2"/>
    <rect x="5" y="13" width="1" height="1"/>
    <rect x="5" y="3" width="6" height="1"/>
    <rect x="5" y="16" width="6" height="1"/>
    <rect x="6" y="6" width="4" height="1"/>
    <rect x="6" y="14" width="4" height="1"/>
    <rect x="7" y="5" width="2" height="1"/>
    <rect x="7" y="8" width="2" height="3"/>
    <rect x="10" y="5" width="4" height="1"/>
    <rect x="10" y="13" width="4" height="1"/>
    <rect x="11" y="14" width="3" height="1"/>
    <rect x="11" y="8" width="4" height="3"/>
    <rect x="12" y="6" width="2" height="1"/>
  </g>
</svg>
