<?xml version="1.0" encoding="UTF-8"?>
<svg xmlns="http://www.w3.org/2000/svg" width="35" height="31"><defs><style>.c0{fill:#000000}.c1{fill:#f594a1}.c2{fill:#ef5c6f}.c3{fill:#ac4a68}</style></defs><path class="c0" d="M1,27H2V28H25V27H26V28H27V30H2V29H1V27ZM2,26H3V27H2V26ZM3,11H4V17H3V11ZM3,25H5V26H3V25ZM4,10H5V11H4V10ZM4,17H5V18H4V17ZM5,9H6V10H5V9ZM5,18H6V19H5V18ZM5,24H6V25H5V24ZM6,8H8V7H10V8H12V9H6V8ZM6,19H12V18H13V17H14V11H15V15H16V14H17V13H18V12H19V11H20V7H21V9H22V8H23V5H24V10H23V11H22V12H21V14H22V16H21V15H20V14H19V16H17V17H16V18H15V19H14V20H13V21H7V20H6V19ZM6,23H21V24H6V23ZM10,6H11V7H10V6ZM11,5H12V6H11V5ZM12,4H13V5H12V4ZM12,7H13V8H12V7ZM12,9H13V10H12V9ZM13,3H14V2H15V3H16V4H13V3ZM13,10H14V11H13V10ZM15,1H20V2H15V1ZM19,6H20V7H19V6ZM19,16H20V17H19V16ZM20,2H21V3H20V2ZM20,17H21V18H20V17ZM21,3H22V4H21V3ZM21,18H22V19H21V18ZM21,24H22V25H21V24ZM22,4H23V5H22V4ZM22,16H23V17H22V16ZM22,19H23V20H22V19ZM22,25H24V26H22V25ZM23,17H24V18H23V17ZM23,20H24V23H23V20ZM24,18H25V19H24V18ZM24,23H25V24H24V23ZM24,26H25V27H24V26ZM25,19H27V20H25V19ZM25,24H26V25H25V24ZM26,25H27V26H26V25ZM27,20H29V21H27V20ZM27,26H29V27H31V26H32V24H33V25H34V27H33V28H32V29H30V28H28V27H27V26ZM29,21H30V22H29V21ZM30,22H31V23H30V22ZM31,23H32V24H31V23Z"/><path class="c1" d="M4,11H5V12H4V11ZM4,13H5V15H4V13ZM5,10H6V11H5V10ZM6,9H10V10H9V11H7V10H6V9ZM6,11H7V12H6V11ZM6,24H8V25H6V24ZM9,24H10V25H9V24ZM10,7H11V8H10V7ZM10,10H11V11H10V10ZM11,6H12V5H13V4H16V6H15V5H14V6H13V7H11V6ZM11,9H12V10H11V9ZM14,6H15V7H14V6ZM15,2H17V3H15V2ZM15,7H16V8H15V7ZM16,6H17V7H16V6ZM17,24H18V25H17V24ZM19,2H20V3H19V2ZM19,24H20V25H19V24ZM26,20H27V21H26V20ZM28,21H29V22H28V21ZM30,23H31V24H30V23Z"/><path class="c2" d="M2,27H3V28H2V27ZM5,11H6V13H7V11H9V10H10V11H11V10H13V11H14V12H13V13H12V15H11V16H10V15H9V16H7V15H6V16H5V11ZM12,13V12H11V13H12ZM9,12V13H10V12H9ZM5,25H7V26H5V25ZM6,10H7V11H6V10ZM6,16H7V17H6V16ZM7,17H9V18H7V17ZM8,24H9V25H8V24ZM9,16H10V17H9V16ZM10,9H11V10H10V9ZM10,17H11V18H10V17ZM10,24H17V25H10V24ZM11,7H12V8H11V7ZM11,16H12V17H11V16ZM12,8H13V9H12V8ZM12,15H13V16H12V15ZM13,6H14V7H13V6ZM13,9H14V10H13V9ZM14,5H15V6H14V5ZM15,6H16V7H15V6ZM15,8H16V9H15V8ZM16,4H18V5H17V6H16V4ZM16,7H17V8H16V7ZM17,2H18V3H17V2ZM17,6H18V7H17V6ZM18,3H19V4H18V3ZM18,24H19V25H18V24ZM19,4H20V5H19V4ZM20,3H21V4H20V3ZM20,25H21V26H20V25ZM21,4H22V5H21V4ZM27,21H28V22H27V21ZM28,22H30V24H29V23H28V22ZM30,24H32V25H30V24Z"/><path class="c3" d="M3,26H7V25H20V26H21V25H22V26H24V27H25V28H3V26ZM4,12H5V13H4V12ZM4,15H5V16H6V17H7V18H9V17H10V18H11V17H12V16H13V15H12V13H13V12H14V17H13V18H12V19H6V18H5V17H4V15ZM6,12H7V13H6V12ZM6,15H7V16H6V15ZM7,16H9V17H7V16ZM9,12H10V13H9V12ZM9,15H10V16H9V15ZM10,16H11V17H10V16ZM11,12H12V13H11V12ZM11,15H12V16H11V15ZM13,7H15V9H16V8H17V7H18V6H17V5H18V4H19V5H20V4H21V5H23V8H22V9H21V7H20V11H19V12H18V13H17V14H16V15H15V11H14V9H13V7ZM20,7V6H19V7H20ZM16,3H18V4H16V3ZM18,2H19V3H18V2ZM19,3H20V4H19V3ZM19,14H20V15H21V16H22V17H23V18H24V19H25V20H26V21H27V22H28V23H29V24H30V25H32V26H31V27H29V26H27V25H26V24H25V23H24V20H23V19H22V18H21V17H20V16H19V14ZM20,24H21V25H20V24Z"/></svg>